<svg width="988" height="358" viewBox="0 0 988 358" fill="none" xmlns="http://www.w3.org/2000/svg">
<g id="Frame 8">
<g id="lamp post">
<path id="Vector" d="M779.754 74.2085H782.247L782.225 74.0142L781.473 67.3756C781.461 67.2726 781.411 67.1776 781.333 67.1087C781.256 67.0398 781.156 67.0018 781.052 67.0019C781.025 66.9994 780.998 66.9994 780.971 67.0019C780.833 67.0172 780.704 67.0757 780.602 67.1691C780.48 67.2802 780.404 67.4327 780.388 67.5969L779.754 74.2085Z" fill="#7F7E7F"/>
<path id="Vector_2" d="M781.999 72.6968H782.087L781.465 67.3786C781.453 67.2755 781.404 67.1805 781.326 67.1116C781.249 67.0427 781.148 67.0047 781.045 67.0048C781.018 67.0023 780.991 67.0023 780.964 67.0048L780.897 67.0663C780.786 67.1869 780.723 67.3446 780.72 67.5089L780.686 71.3347C780.681 71.6889 780.816 72.0306 781.062 72.2856C781.308 72.5407 781.645 72.6884 781.999 72.6968V72.6968Z" fill="#999999"/>
<path id="Vector_3" d="M785.705 281.437H775.927L777.358 277.112C777.42 276.925 777.54 276.761 777.7 276.646C777.86 276.53 778.053 276.468 778.25 276.468H782.831C783.073 276.468 783.31 276.54 783.512 276.675C783.714 276.81 783.871 277.001 783.964 277.225L785.705 281.437Z" fill="#999999"/>
<path id="Vector_4" d="M782.973 103.686H778.169V315.185H782.973V103.686Z" fill="#999999"/>
<path id="Vector_5" d="M782.958 103.686H780.74V315.185H782.958V103.686Z" fill="#DCDBDD"/>
<path id="Vector_6" d="M788.225 281.436H772.919V337.396H788.225V281.436Z" fill="#999999"/>
<path id="Vector_7" d="M788.221 281.436H779.099V337.396H788.221V281.436Z" fill="#DCDBDD"/>
<path id="Vector_8" d="M772.208 77.3976C772.208 80.0113 776.142 82.1282 781.003 82.1282C781.374 82.1282 781.741 82.1282 782.097 82.0914C786.437 81.8037 789.798 79.8121 789.798 77.3976C789.798 74.9831 786.437 72.994 782.097 72.7039C781.738 72.6793 781.374 72.667 781.003 72.667C776.144 72.6645 772.208 74.7864 772.208 77.3976Z" fill="#999999"/>
<path id="Vector_9" d="M772.913 107.862H788.216L793.613 81.9639H768.345L772.913 107.862Z" fill="#999999"/>
<path id="Vector_10" d="M794.998 80.0107H767V82.4941H794.998V80.0107Z" fill="#999999"/>
<path id="Vector_11" d="M776.701 77.1756H776.765C776.918 75.1668 779.069 73.4579 782.093 72.708C786.295 72.9883 789.58 74.8643 789.784 77.1756H791.21L793.209 80.0129H794.999V82.5036H777.397V80.0129H774.806L776.701 77.1756Z" fill="#EFEFEF"/>
<path id="Vector_12" d="M791.812 83.2246H770.231L774.446 106.502H786.84L791.812 83.2246Z" fill="#EFEFEF"/>
<path id="Vector_13" d="M789.212 77.6827C789.212 77.6827 787.567 74.1028 784.321 74.2135C784.321 74.2135 786.389 76.0452 786.197 77.6827C786.006 79.3203 789.212 77.6827 789.212 77.6827Z" fill="#E0E0E0"/>
<path id="Vector_14" d="M768.782 80.0176H793.202L791.203 77.1777H770.68L768.782 80.0176Z" fill="#999999"/>
<path id="Vector_15" d="M790.384 84.04H785.437L783.996 105.778H785.437L790.384 84.04Z" fill="#E0E0E0"/>
</g>
<g id="long tree">
<path id="Vector_16" d="M947.727 233.244C937.258 241.785 922.193 226.91 932.771 218.282C938.24 213.817 942.749 208.465 946.979 202.887C940.132 203.143 932.412 195.321 936.151 186.693C941.942 173.328 950.813 161.569 954.728 147.406C955.341 144.947 956.876 142.818 959.016 141.461C956.443 130.164 953.437 117.958 950.124 105.7C944.303 120.01 940.095 135.281 932.764 148.762C926.247 160.748 907.978 150.067 914.495 138.081C924.905 118.881 928.959 96.1554 940.396 77.6008C940.729 77.0859 941.099 76.5959 941.503 76.1346C931.115 43.182 919.429 16.1748 909.979 16.1748C898.338 16.1748 883.317 57.1181 871.492 99.6962L878.684 122.459L870.085 104.865C863.971 127.437 858.817 150.03 855.621 166.818C851.567 188.078 850.225 208.172 851.42 226.118L875.942 259.562L853.157 241.044C859.293 279.429 878.816 304.823 910.031 304.823C949.662 304.823 970.46 263.983 968.92 207.483C962.344 216.573 956.245 226.258 947.727 233.244Z" fill="#DCDBDB"/>
<path id="Vector_17" d="M968.025 192.836L949.302 212.248L967.145 184.53C966.427 178.729 965.498 172.825 964.36 166.819C964.132 165.624 963.89 164.392 963.626 163.153L950.431 184.2L962.461 157.347C959.059 140.904 954.287 120.766 948.803 100.899L931.854 129.665L945.783 90.3056C938.452 65.1531 930.161 41.6208 922.324 28.0879C917.764 20.2365 913.344 15.7133 909.348 16.2558L909.268 16.3291C896.563 27.9999 897.941 48.138 897.934 63.7383C897.934 70.7467 897.582 76.5014 893.77 82.4615C890.266 87.9304 885.706 92.8421 882.708 98.6629C878.14 107.511 881.535 119.19 882.862 128.434C884.731 141.41 880.259 152.391 874.497 163.879C868.859 175.139 861.536 187.624 868.251 200.057C874.292 211.237 880.633 221.669 879.211 235.084C878.089 245.707 872.276 253.338 874.079 264.643C876.278 278.571 888.741 289.245 897.758 299.062C907.369 309.537 925.205 304.274 935.879 297.647C961.075 282.017 972.482 242.173 968.025 192.836Z" fill="#EAEAEA"/>
<path id="Vector_18" d="M919.407 42.0968C920.207 52.0229 918.161 63.2246 924.539 71.7212C930.404 79.5653 934.414 86.8009 936.533 96.4851C937.999 103.347 937.398 110.282 936.298 117.158L945.828 90.2978C938.497 65.1453 930.206 41.613 922.369 28.0801C918.469 21.365 914.672 17.0837 911.16 16.3506C915.962 23.8135 918.66 32.6913 919.407 42.0968Z" fill="#F9F9FA"/>
<path id="Vector_19" d="M934.252 128.8C932.786 137.832 937.485 141.886 942.785 148.454C950.241 157.684 953.496 167.661 953.049 178.306L962.447 157.332C959.045 140.889 954.273 120.751 948.789 100.884L935.022 124.24C934.773 125.772 934.531 127.29 934.252 128.8Z" fill="#F9F9FA"/>
<path id="Vector_20" d="M968.026 192.835L949.302 212.248L967.146 184.529C966.427 178.728 965.499 172.824 964.36 166.818C964.133 165.623 963.891 164.391 963.627 163.152L952.917 180.219C952.526 184.726 951.598 189.171 950.153 193.458C945.703 206.874 945.967 216.698 947.844 230.648C949.017 239.35 950.439 248.243 948.525 256.944C946.81 264.81 941.29 270.448 939.112 277.794C937.448 283.438 936.077 289.245 932.58 294.112C930.456 297.056 928.149 299.864 925.675 302.521C929.233 301.262 932.649 299.63 935.865 297.653C961.076 282.016 972.483 242.173 968.026 192.835Z" fill="#F9F9FA"/>
<path id="Vector_21" d="M945.763 184.434L911.842 221.969L910.002 122.48L908.434 206.86L886.03 180.49L908.324 213.018L907.275 269.502L872.321 225.979L907.143 276.775L905.794 349.696H914.21L911.982 229.564L945.763 184.434Z" fill="#7D7D7D"/>
</g>
<g id="shrub">
<path id="Vector_22" d="M148.84 234.83C148.84 275.6 117.76 308.66 79.4205 308.66C41.0805 308.66 10.0005 275.6 10.0005 234.83C10.0005 194.06 41.0805 161 79.4205 161C117.76 161 148.84 194.06 148.84 234.83Z" fill="#F0EFEF"/>
<path id="Vector_23" d="M78.3506 181.88C86.8006 194.29 96.9906 193.43 103.701 195.61C113.921 198.94 121.271 204.61 126.491 214.07C133.601 226.94 128.591 241.63 139.161 252.98C141.16 255.122 143.039 257.372 144.791 259.72C147.485 251.699 148.853 243.292 148.841 234.83C148.841 194.06 117.761 161 79.4206 161C73.7356 161 68.0748 161.74 62.5806 163.2C69.5706 167.86 73.5806 174.87 78.3506 181.88Z" fill="#F7F7F7"/>
<path id="Vector_24" d="M104.741 288.33C90.2505 286.77 82.5405 304.67 69.5305 291.42C59.2805 280.94 54.8605 289.94 44.1205 278.75C37.9605 272.35 43.6805 259.75 30.7805 252.81C19.6105 246.81 17.8405 235.9 18.0005 224.92C18.1405 215.12 25.0005 204.62 24.0805 195.29C23.9367 194.023 23.6412 192.777 23.2005 191.58C14.5456 204.339 9.94486 219.413 10.0005 234.83C10.0005 275.6 41.0805 308.66 79.4205 308.66C100.01 308.66 118.471 299.09 131.181 283.95C122.381 287.82 114.641 289.39 104.741 288.33Z" fill="#D8D8D8"/>
<path id="Vector_25" d="M81.3005 350.29H77.5405L78.8805 198.57H79.9505L81.3005 350.29Z" fill="#7D7D7D"/>
<path id="Vector_26" d="M115 223.02L79.4204 241.58V246.82L115 223.02Z" fill="#7D7D7D"/>
<path id="Vector_27" d="M127.88 243.98L79.4204 276.9V285.84L127.88 243.98Z" fill="#7D7D7D"/>
<path id="Vector_28" d="M54.8604 196.99L79.4203 224.56V229.8L54.8604 196.99Z" fill="#7D7D7D"/>
<path id="Vector_29" d="M30.3003 234.83L79.4203 263.35V270.75L30.3003 234.83Z" fill="#7D7D7D"/>
</g>
<g id="shrub_2">
<path id="Vector_30" d="M180.159 285.094C180.159 308.339 162.439 327.188 140.579 327.188C118.72 327.188 101 308.339 101 285.094C101 261.849 118.72 243 140.579 243C162.439 243 180.159 261.849 180.159 285.094Z" fill="#F0EFEF"/>
<path id="Vector_31" d="M139.97 254.905C144.787 261.98 150.597 261.49 154.423 262.733C160.25 264.631 164.44 267.864 167.416 273.258C171.47 280.595 168.614 288.971 174.64 295.442C175.78 296.663 176.852 297.946 177.85 299.285C179.386 294.711 180.166 289.918 180.159 285.094C180.159 261.849 162.439 243 140.58 243C137.339 243 134.111 243.422 130.979 244.254C134.964 246.911 137.25 250.908 139.97 254.905Z" fill="#F7F7F7"/>
<path id="Vector_32" d="M155.016 315.596C146.754 314.707 142.359 324.912 134.941 317.358C129.097 311.383 126.577 316.514 120.454 310.134C116.942 306.485 120.203 299.301 112.848 295.345C106.479 291.924 105.47 285.703 105.561 279.443C105.641 273.856 109.552 267.869 109.028 262.55C108.946 261.827 108.777 261.117 108.526 260.435C103.592 267.709 100.969 276.303 101 285.093C101 308.338 118.72 327.187 140.58 327.187C152.319 327.187 162.844 321.731 170.09 313.099C165.073 315.305 160.66 316.2 155.016 315.596Z" fill="#D8D8D8"/>
<path id="Vector_33" d="M141.652 350.922H139.508L140.272 264.42H140.882L141.652 350.922Z" fill="#7D7D7D"/>
<path id="Vector_34" d="M160.865 278.36L140.579 288.942V291.93L160.865 278.36Z" fill="#7D7D7D"/>
<path id="Vector_35" d="M168.208 290.311L140.579 309.08V314.177L168.208 290.311Z" fill="#7D7D7D"/>
<path id="Vector_36" d="M126.577 263.52L140.58 279.238V282.226L126.577 263.52Z" fill="#7D7D7D"/>
<path id="Vector_37" d="M112.574 285.094L140.58 301.354V305.573L112.574 285.094Z" fill="#7D7D7D"/>
</g>
<g id="car">
<path id="Vector_38" d="M441.583 326.232H718.978L812.66 317.791C812.66 317.791 795.897 276.024 791.327 275.396C786.757 274.767 450.369 275.396 450.369 275.396L441.583 326.232Z" fill="#474747"/>
<path id="Vector_39" d="M856.592 284.606C855.612 288.003 853.787 288.739 853.787 296.06C853.787 298.935 854.43 302.562 852.985 305.753C852.356 307.136 848.469 309.441 849.554 314.062C849.554 314.062 843.142 319.029 842.871 319.672C842.6 320.315 842.149 323.828 842.149 323.828C835.244 326.651 804.283 325.578 804.283 325.578C804.283 325.578 805.218 274.439 762.241 280.401C719.263 286.364 726.769 328.809 726.769 328.809L520.12 332.492C520.12 332.492 523.476 278.583 477.853 284.251C439.961 288.949 449.697 332.277 449.697 332.277C411.906 334.231 408 321.399 408 321.399V316.103H410.37V302.155H408V291.77L415.947 273.569C419.297 267.819 428.368 263.112 440.097 259.29C475.275 247.816 534.338 244.286 534.338 244.286C550.286 235.117 563.509 228.303 573.852 223.355C590.349 215.462 609.146 207.762 627.359 205.965C676.646 201.094 717.176 206.615 727.11 208.225C738.717 210.107 797.075 235.519 801.467 237.716C805.859 239.913 841.686 242.891 846.289 243.447C850.891 244.004 850.748 248.599 850.748 248.599L851.379 252.685L850.636 255.076L847.2 253.881L848.649 259.052L848.196 261.218L852.815 261.952L853.787 268.233L854.376 272.027C857.725 273.709 857.106 282.853 856.592 284.606Z" fill="#E2E2E2"/>
<g id="frontwheel">
<path id="Vector_40" d="M514.99 323.588C518.207 306.311 506.81 289.696 489.533 286.478C472.255 283.261 455.641 294.658 452.423 311.935C449.205 329.213 460.603 345.827 477.88 349.045C495.157 352.263 511.772 340.865 514.99 323.588Z" fill="#606060"/>
<path id="Vector_41" d="M483.733 342.677C478.811 342.677 473.999 341.217 469.907 338.483C465.814 335.748 462.625 331.861 460.741 327.314C458.857 322.767 458.365 317.763 459.325 312.935C460.285 308.108 462.655 303.674 466.136 300.193C469.616 296.713 474.05 294.343 478.878 293.382C483.705 292.422 488.709 292.915 493.256 294.799C497.804 296.682 501.69 299.872 504.425 303.964C507.159 308.057 508.619 312.868 508.619 317.79C508.612 324.388 505.987 330.714 501.322 335.379C496.656 340.045 490.331 342.669 483.733 342.677V342.677ZM483.733 295.207C479.266 295.206 474.898 296.531 471.184 299.012C467.469 301.494 464.574 305.021 462.864 309.148C461.154 313.276 460.707 317.817 461.578 322.199C462.45 326.58 464.601 330.605 467.76 333.764C470.919 336.923 474.943 339.074 479.325 339.945C483.706 340.817 488.248 340.369 492.375 338.659C496.502 336.949 500.03 334.054 502.511 330.34C504.993 326.625 506.317 322.258 506.317 317.79C506.309 311.803 503.928 306.063 499.694 301.829C495.46 297.596 489.72 295.214 483.733 295.207V295.207Z" fill="#E2E2E2"/>
<path id="Vector_42" d="M487.998 341.551H479.083L481.944 317.114L478.674 293.903L488.863 294.532L485.466 317.114L487.998 341.551Z" fill="#E2E2E2"/>
<path id="Vector_43" d="M465.25 333.301L460.793 325.579L483.388 315.841L501.854 301.405L506.402 310.544L485.149 318.891L465.25 333.301Z" fill="#E2E2E2"/>
<path id="Vector_44" d="M461.679 308.581L466.578 301.129L485.424 316.946L506.615 326.966L500.491 335.133L483.489 319.891L461.679 308.581Z" fill="#E2E2E2"/>
<path id="Vector_45" d="M475.392 317.748C475.392 316.106 475.879 314.5 476.791 313.135C477.703 311.77 479 310.706 480.517 310.077C482.034 309.449 483.703 309.284 485.314 309.605C486.924 309.925 488.404 310.716 489.565 311.877C490.726 313.038 491.517 314.517 491.837 316.128C492.157 317.739 491.993 319.408 491.364 320.925C490.736 322.442 489.672 323.739 488.307 324.651C486.941 325.563 485.336 326.05 483.694 326.05C481.492 326.05 479.38 325.175 477.823 323.618C476.266 322.061 475.392 319.95 475.392 317.748V317.748Z" fill="#E2E2E2"/>
</g>
<g id="rearwheel">
<path id="Vector_46" d="M796.408 327.049C801.503 310.229 791.997 292.464 775.177 287.37C758.357 282.275 740.593 291.781 735.498 308.601C730.404 325.421 739.91 343.185 756.729 348.28C773.549 353.374 791.314 343.868 796.408 327.049Z" fill="#606060"/>
<path id="Vector_47" d="M765.887 342.667C760.965 342.666 756.154 341.206 752.061 338.472C747.969 335.737 744.78 331.85 742.897 327.303C741.013 322.755 740.521 317.752 741.481 312.924C742.442 308.097 744.812 303.663 748.293 300.183C751.773 296.703 756.208 294.333 761.035 293.373C765.862 292.413 770.866 292.905 775.413 294.789C779.96 296.673 783.847 299.862 786.581 303.955C789.316 308.047 790.775 312.859 790.775 317.781C790.768 324.379 788.143 330.705 783.477 335.371C778.811 340.036 772.485 342.66 765.887 342.667ZM765.887 295.197C761.42 295.197 757.053 296.522 753.338 299.003C749.624 301.485 746.729 305.013 745.02 309.14C743.31 313.267 742.863 317.809 743.735 322.19C744.606 326.572 746.758 330.596 749.917 333.755C753.076 336.913 757.1 339.064 761.482 339.936C765.863 340.807 770.405 340.359 774.532 338.649C778.659 336.939 782.186 334.044 784.668 330.33C787.149 326.615 788.473 322.248 788.473 317.781C788.466 311.793 786.084 306.052 781.85 301.818C777.616 297.584 771.875 295.203 765.887 295.197V295.197Z" fill="#E2E2E2"/>
<path id="Vector_48" d="M770.138 341.547H761.223L764.084 317.11L760.814 293.899L771.005 294.528L767.607 317.11L770.138 341.547Z" fill="#E2E2E2"/>
<path id="Vector_49" d="M747.414 333.293L742.957 325.571L765.553 315.833L784.018 301.397L788.569 310.537L767.313 318.883L747.414 333.293Z" fill="#E2E2E2"/>
<path id="Vector_50" d="M743.841 308.571L748.738 301.119L767.584 316.936L788.775 326.957L782.651 335.123L765.649 319.881L743.841 308.571Z" fill="#E2E2E2"/>
<path id="Vector_51" d="M757.552 317.738C757.551 316.095 758.038 314.489 758.95 313.123C759.863 311.757 761.16 310.692 762.677 310.063C764.195 309.434 765.865 309.27 767.476 309.59C769.087 309.91 770.567 310.702 771.729 311.863C772.89 313.025 773.681 314.505 774.002 316.116C774.322 317.727 774.157 319.397 773.529 320.915C772.9 322.432 771.835 323.729 770.469 324.642C769.103 325.554 767.497 326.041 765.854 326.04C763.652 326.04 761.54 325.165 759.983 323.608C758.426 322.051 757.552 319.94 757.552 317.738Z" fill="#E2E2E2"/>
</g>
<path id="Vector_52" d="M450.831 268.315L430.222 271.253C426.874 271.73 423.713 273.092 421.066 275.198C418.419 277.304 416.382 280.078 415.165 283.234L414.637 284.599C414.516 284.914 414.479 285.256 414.53 285.589C414.582 285.923 414.719 286.237 414.93 286.501C415.14 286.765 415.415 286.969 415.729 287.094C416.042 287.219 416.383 287.26 416.717 287.213L441.517 283.679C442.363 283.557 443.176 283.262 443.903 282.812C444.631 282.361 445.257 281.765 445.743 281.061L452.582 271.143C452.782 270.853 452.893 270.51 452.902 270.157C452.91 269.805 452.816 269.457 452.63 269.157C452.445 268.857 452.176 268.618 451.856 268.468C451.537 268.319 451.18 268.265 450.831 268.315Z" fill="#F7F7F7"/>
<path id="Vector_53" opacity="0.37" d="M416.751 316.017H425.829C427.305 316.017 428.754 315.198 430.027 313.643C431.299 312.088 432.35 309.854 433.07 307.172L433.369 306.008C433.441 305.741 433.478 305.44 433.477 305.134C433.475 304.828 433.435 304.527 433.361 304.263C433.287 303.999 433.181 303.78 433.053 303.628C432.925 303.476 432.781 303.396 432.634 303.396H421.704C421.331 303.395 420.962 303.555 420.621 303.866C420.279 304.178 419.973 304.634 419.721 305.206L416.157 313.249C416.052 313.486 415.982 313.783 415.957 314.101C415.931 314.42 415.952 314.747 416.015 315.042C416.078 315.337 416.182 315.587 416.313 315.76C416.444 315.933 416.596 316.023 416.751 316.017V316.017Z" fill="#F9F9F9"/>
<path id="Vector_54" d="M770.466 241.277L664.243 243.801C663.749 243.813 663.258 243.725 662.798 243.544C662.338 243.363 661.919 243.092 661.565 242.747C661.211 242.401 660.93 241.989 660.738 241.533C660.546 241.078 660.447 240.589 660.447 240.094V215.619C660.447 215.162 660.538 214.708 660.715 214.286C660.891 213.863 661.15 213.48 661.477 213.159C661.803 212.838 662.19 212.585 662.615 212.415C663.041 212.245 663.496 212.162 663.953 212.169C709.25 212.798 724.772 214.06 734.075 217.272C742.286 220.105 761.488 231.764 771.412 237.666C771.775 237.881 772.057 238.209 772.217 238.599C772.377 238.989 772.405 239.42 772.298 239.828C772.192 240.235 771.955 240.597 771.624 240.859C771.294 241.12 770.887 241.267 770.466 241.277Z" fill="#EAEAEA"/>
<path id="Vector_55" d="M651.217 212.01L656.277 212.071V243.99L553.799 246.424C553.51 246.43 553.227 246.343 552.992 246.175C552.757 246.007 552.582 245.768 552.495 245.493C552.407 245.217 552.411 244.921 552.506 244.648C552.601 244.375 552.781 244.14 553.021 243.979C564.993 235.908 605.098 211.487 651.217 212.01Z" fill="#EAEAEA"/>
<path id="Vector_56" d="M770.103 241.278H770.047V236.837L771.103 237.466C772.868 238.522 772.157 241.229 770.103 241.278Z" fill="#EAEAEA"/>
<path id="Vector_57" d="M661.373 243.55L647.9 244.277V211.411H663.009L660.555 215.385L661.373 243.55Z" fill="#D6D6D6"/>
<path id="Vector_58" d="M739.929 245.278H734.071V214.623L739.929 218.136V245.278Z" fill="#D6D6D6"/>
<path id="Vector_59" d="M566.589 235.685L569.714 246.035L552.621 246.441C552.404 246.446 552.191 246.382 552.014 246.258C551.837 246.133 551.704 245.955 551.635 245.75C551.566 245.545 551.564 245.323 551.631 245.116C551.697 244.91 551.828 244.731 552.003 244.604C555.862 241.827 563.013 236.881 566.589 235.685Z" fill="#2C3A64"/>
<path id="Vector_60" d="M551.877 247.3C551.534 247.3 551.2 247.191 550.924 246.988C550.648 246.786 550.444 246.5 550.341 246.173C550.239 245.846 550.243 245.495 550.354 245.171C550.465 244.847 550.677 244.567 550.958 244.371L551.313 244.138C551.683 243.882 552.096 243.6 552.552 243.292L553.758 242.487L554.406 242.062C554.897 241.742 555.415 241.408 555.967 241.055C556.357 240.807 556.764 240.547 557.187 240.283L557.255 240.239L557.437 240.127C557.79 239.907 558.164 239.673 558.55 239.425L558.634 239.374L559.02 239.14L559.613 238.778L560.474 238.259C561.294 237.766 562.178 237.245 563.096 236.714L563.961 236.212C564.541 235.878 565.137 235.541 565.749 235.199L566.179 234.966C567.413 234.279 568.664 233.598 569.898 232.944L570.302 232.729L570.868 232.432C573.217 231.2 575.632 229.994 578.048 228.839L578.799 228.484C579.551 228.129 580.317 227.774 581.094 227.418C581.351 227.299 581.613 227.185 581.877 227.063C582.394 226.829 582.922 226.596 583.457 226.362L584.259 226.009C585.056 225.658 585.907 225.291 586.856 224.892L588.34 224.274C591.689 222.893 595.104 221.596 598.489 220.418L599.23 220.161L600.069 219.876L601.123 219.52L601.981 219.24L602.014 219.228L602.911 218.938C603.455 218.764 604 218.591 604.547 218.419C604.921 218.302 605.299 218.186 605.681 218.071L607.429 217.55L608.402 217.269C609.014 217.096 609.629 216.923 610.246 216.755C611.468 216.419 612.717 216.091 613.948 215.783L614.023 215.764L614.35 215.685C614.876 215.554 615.414 215.423 615.952 215.297L616.919 215.063L617.165 215.007L617.889 214.843L618.862 214.628C619.187 214.556 619.514 214.486 619.839 214.418L620.825 214.212C621.148 214.144 621.48 214.079 621.811 214.013H621.865L622.8 213.831L623.735 213.653L624.792 213.462L625.472 213.34L625.792 213.286C626.461 213.172 627.127 213.053 627.795 212.955L628.805 212.798H628.856C629.448 212.709 630.041 212.623 630.635 212.541C631.741 212.389 632.853 212.246 633.942 212.12H634.013C634.319 212.083 634.623 212.05 634.929 212.017L635.59 211.947C635.805 211.921 636.044 211.898 636.292 211.877C636.539 211.856 636.801 211.826 637.065 211.8L638.105 211.706C638.437 211.676 638.774 211.65 639.108 211.625L639.886 211.564L641.375 211.463L642.257 211.409H642.385C642.705 211.391 643.035 211.374 643.365 211.36C643.622 211.346 643.886 211.335 644.15 211.325H644.176C644.409 211.325 644.643 211.304 644.877 211.297L645.459 211.276L646.16 211.255C646.605 211.243 647.049 211.32 647.464 211.481C647.879 211.643 648.257 211.886 648.577 212.197C648.896 212.507 649.15 212.879 649.324 213.289C649.497 213.7 649.587 214.141 649.587 214.586V240.994C649.58 242.058 649.162 243.078 648.418 243.839C647.675 244.6 646.665 245.043 645.601 245.075L551.921 247.298L551.877 247.3ZM567.348 236.226L566.768 236.548C566.092 236.924 565.435 237.295 564.798 237.663L563.935 238.159C563.024 238.687 562.15 239.203 561.334 239.692L560.481 240.206L559.889 240.566L559.515 240.8L559.426 240.854C559.043 241.087 558.671 241.321 558.312 241.543L558.078 241.69L556.867 242.457C556.322 242.805 555.811 243.135 555.327 243.453L554.684 243.874L553.492 244.668C553.043 244.98 552.635 245.259 552.267 245.505L552.096 245.622L569.695 245.206L645.562 243.404C646.189 243.386 646.785 243.124 647.224 242.675C647.663 242.226 647.91 241.624 647.913 240.996V214.539C647.913 214.318 647.868 214.098 647.782 213.894C647.695 213.69 647.569 213.505 647.41 213.35C647.251 213.196 647.062 213.075 646.856 212.994C646.649 212.914 646.428 212.876 646.207 212.882L645.522 212.901L644.94 212.922L644.239 212.95H644.211C643.949 212.95 643.689 212.973 643.432 212.985C643.11 212.999 642.787 213.015 642.467 213.034H642.336L641.474 213.085L639.999 213.186L639.244 213.244C638.895 213.27 638.568 213.298 638.241 213.326L637.21 213.42L636.446 213.494C636.212 213.515 635.978 213.539 635.768 213.565C635.558 213.59 635.324 213.609 635.111 213.635C634.8 213.665 634.503 213.7 634.204 213.735H634.134C633.059 213.861 631.958 214.002 630.862 214.151C630.275 214.233 629.693 214.32 629.106 214.406H629.057L628.057 214.563C627.391 214.668 626.732 214.778 626.075 214.89L625.757 214.946L625.086 215.063L624.039 215.255C623.727 215.311 623.416 215.369 623.104 215.43L622.169 215.612H622.115C621.79 215.678 621.468 215.741 621.145 215.808L620.166 216.012L619.201 216.22L618.235 216.435C618.001 216.486 617.768 216.542 617.52 216.596L617.275 216.655C616.954 216.727 616.636 216.8 616.321 216.877C615.783 217.003 615.253 217.131 614.729 217.262L614.418 217.339L614.339 217.36C613.114 217.664 611.882 217.989 610.669 218.321C610.054 218.489 609.447 218.66 608.841 218.833L607.904 219.149C607.329 219.317 606.752 219.49 606.174 219.663L605.055 220.009C604.505 220.177 603.965 220.35 603.419 220.523L602.535 220.808L602.5 220.822L601.654 221.098L600.602 221.451L599.777 221.731L599.041 221.989C595.684 223.157 592.3 224.443 588.978 225.813L587.506 226.425C586.571 226.822 585.722 227.185 584.934 227.533L584.135 227.883C583.607 228.117 583.086 228.351 582.569 228.585C582.305 228.702 582.05 228.818 581.795 228.935C581.022 229.291 580.262 229.636 579.516 229.996L578.766 230.349C576.375 231.492 573.979 232.687 571.651 233.909L571.085 234.208L570.683 234.419C569.571 235.003 568.458 235.611 567.348 236.226V236.226Z" fill="#606060"/>
<path id="Vector_61" d="M741.703 242.822C741.071 242.819 740.467 242.567 740.02 242.121C739.762 241.864 739.557 241.558 739.418 241.221C739.28 240.885 739.209 240.524 739.211 240.16V222.304C739.211 221.288 739.361 219.99 740.183 219.478C740.929 219.011 742.182 219.352 742.967 219.736C743.841 220.166 744.451 220.474 744.779 220.652L744.912 220.722L745.267 220.916C749.708 223.347 756.057 227.173 764.104 232.29L765.126 232.94L767.486 234.452L770.31 236.275L771.712 237.191L771.913 237.32L771.974 237.36C772.436 237.669 772.786 238.118 772.972 238.641C773.159 239.164 773.173 239.733 773.012 240.265C772.888 240.767 772.604 241.214 772.202 241.54C771.8 241.865 771.303 242.05 770.787 242.067H770.478L741.756 242.813L741.703 242.822ZM741.859 220.958C741.664 220.96 741.473 221.016 741.308 221.119C741.113 221.248 740.954 221.424 740.846 221.632C740.739 221.839 740.686 222.071 740.693 222.304V240.164C740.69 240.331 740.721 240.496 740.783 240.651C740.845 240.805 740.938 240.946 741.055 241.064C741.143 241.153 741.248 241.223 741.363 241.27C741.478 241.317 741.601 241.341 741.726 241.34L770.754 240.585C770.953 240.57 771.142 240.491 771.293 240.361C771.444 240.23 771.549 240.055 771.593 239.861C771.668 239.634 771.668 239.389 771.592 239.162C771.517 238.936 771.37 238.74 771.175 238.603L771.112 238.563L770.918 238.437L769.515 237.518L766.699 235.7C765.94 235.211 765.154 234.707 764.34 234.19L763.323 233.543C755.299 228.442 748.991 224.632 744.568 222.216L744.208 222.019L744.101 221.961C743.781 221.788 743.166 221.493 742.327 221.066C742.182 220.993 742.021 220.957 741.859 220.958Z" fill="#606060"/>
<path id="Vector_62" d="M566.589 235.685L569.714 246.035L552.621 246.441C552.404 246.446 552.191 246.382 552.014 246.258C551.837 246.133 551.704 245.955 551.635 245.75C551.566 245.545 551.564 245.323 551.631 245.116C551.697 244.91 551.828 244.731 552.003 244.604C555.862 241.827 563.013 236.881 566.589 235.685Z" fill="#606060"/>
<path id="Vector_63" d="M664.147 244.63C662.943 244.629 661.789 244.15 660.937 243.298C660.086 242.447 659.608 241.292 659.607 240.088V215.618C659.608 215.05 659.722 214.488 659.942 213.964C660.161 213.44 660.483 212.965 660.887 212.567C661.292 212.168 661.772 211.853 662.299 211.641C662.826 211.429 663.389 211.324 663.957 211.331C710.705 211.981 725.197 213.042 734.371 216.49L734.913 216.693V242.959L664.261 244.63H664.147ZM663.897 213C663.553 213 663.213 213.067 662.896 213.199C662.578 213.33 662.29 213.522 662.047 213.765C661.804 214.008 661.612 214.296 661.48 214.613C661.349 214.93 661.281 215.27 661.281 215.614V240.093C661.281 240.476 661.358 240.854 661.506 241.207C661.655 241.559 661.873 241.878 662.146 242.145C662.42 242.413 662.744 242.622 663.1 242.763C663.456 242.903 663.837 242.97 664.219 242.961L733.237 241.325V217.857C724.304 214.686 708.982 213.631 663.932 213.005L663.897 213Z" fill="#606060"/>
<path id="Vector_64" d="M833.561 268.236H853.56C855 259.653 852.557 254.294 851.155 252.688H819.458C819.199 252.687 818.944 252.759 818.724 252.896C818.505 253.034 818.328 253.23 818.214 253.463C818.101 253.696 818.055 253.956 818.083 254.214C818.111 254.471 818.21 254.716 818.371 254.92L825.937 264.533C826.845 265.687 828.002 266.62 829.323 267.262C830.644 267.903 832.093 268.236 833.561 268.236Z" fill="#C1C0BF"/>
<path id="Vector_65" d="M655.401 211.732L654.129 318.903L654.966 318.913L656.238 211.742L655.401 211.732Z" fill="#AFAFAF"/>
<path id="Vector_66" d="M726.223 317.418L519.472 321.496L519.488 322.333L726.239 318.255L726.223 317.418Z" fill="#AFAFAF"/>
<path id="Vector_67" d="M640.262 263.829C640.262 264.962 635.206 265.881 628.968 265.881C622.729 265.881 617.669 264.962 617.669 263.829C617.669 262.695 622.725 261.776 628.963 261.776C635.202 261.776 640.262 262.695 640.262 263.829Z" fill="#C1C0BF"/>
<path id="Vector_68" d="M737.014 263.829C737.014 264.962 731.959 265.881 725.72 265.881C719.482 265.881 714.426 264.962 714.426 263.829C714.426 262.695 719.482 261.776 725.72 261.776C731.959 261.776 737.014 262.695 737.014 263.829Z" fill="#C1C0BF"/>
<path id="Vector_69" d="M718.175 317.811L717.338 317.767C717.915 307.111 721.078 298.133 726.725 291.076C731.245 285.431 737.358 281.007 744.893 277.921C756.347 273.23 767.706 273.109 770.044 273.144V241.273H770.881V273.997L770.446 273.981C770.32 273.981 757.824 273.513 745.186 278.697C737.79 281.736 731.795 286.069 727.368 291.602C721.835 298.525 718.743 307.342 718.175 317.811Z" fill="#AFAFAF"/>
<path id="Vector_70" d="M544.686 321.357C544.361 293.715 545.901 274.589 547.257 263.411C548.717 251.285 550.284 245.617 550.295 245.561L551.099 245.794C551.039 246.028 544.905 268.586 545.525 321.357H544.686Z" fill="#C1C0BF"/>
<path id="Vector_71" d="M586.347 238.658H568.466C566.071 238.658 564.13 240.599 564.13 242.994V248.248C564.13 250.643 566.071 252.584 568.466 252.584H586.347C588.741 252.584 590.683 250.643 590.683 248.248V242.994C590.683 240.599 588.741 238.658 586.347 238.658Z" fill="#D6D6D6"/>
<g id="indicators" opacity="0.3">
<path id="Vector_72" d="M448.544 271.37L442.778 272.167C441.841 272.297 440.956 272.666 440.215 273.238C439.474 273.81 438.904 274.564 438.564 275.421L438.413 275.792C438.379 275.878 438.369 275.97 438.383 276.061C438.398 276.151 438.436 276.236 438.495 276.308C438.554 276.38 438.631 276.435 438.718 276.469C438.806 276.503 438.901 276.514 438.994 276.501L445.943 275.541C446.18 275.509 446.407 275.429 446.611 275.306C446.815 275.184 446.99 275.022 447.126 274.831L449.038 272.138C449.095 272.059 449.126 271.965 449.129 271.869C449.131 271.773 449.105 271.678 449.052 271.596C448.999 271.514 448.923 271.449 448.833 271.409C448.743 271.369 448.642 271.355 448.544 271.37Z" fill="#A3A3A3"/>
<path id="Vector_73" d="M444.813 276.981L439.047 277.779C438.11 277.908 437.225 278.278 436.484 278.85C435.743 279.422 435.173 280.175 434.832 281.033L434.681 281.403C434.648 281.489 434.637 281.581 434.652 281.672C434.666 281.762 434.705 281.848 434.763 281.919C434.822 281.991 434.899 282.046 434.987 282.08C435.074 282.114 435.17 282.125 435.263 282.113L442.211 281.153C442.449 281.12 442.676 281.04 442.88 280.918C443.083 280.795 443.258 280.633 443.394 280.442L445.307 277.749C445.363 277.67 445.395 277.577 445.397 277.48C445.4 277.384 445.373 277.289 445.321 277.207C445.268 277.126 445.192 277.061 445.102 277.02C445.011 276.98 444.911 276.967 444.813 276.981Z" fill="#A3A3A3"/>
<path id="Vector 44" d="M830.452 261.319H853.973C854.09 262.254 853.973 263.072 853.973 264.007H833.607C833.14 264.007 831.27 264.124 830.101 262.722C829.166 261.6 829.946 261.319 830.452 261.319Z" fill="#A3A3A3"/>
<path id="Vector 43" d="M572.094 244.723H590.793V247.411H575.483C572.959 247.411 572.172 245.619 572.094 244.723Z" fill="#A3A3A3"/>
</g>
</g>
<path id="Vector 46" d="M988 350H1" stroke="#616161" stroke-width="2"/>
<g id="pet">
<path id="Vector_74" d="M181.125 329.49L177.392 334.433L181.148 337.597L186.155 331.056L181.125 329.49Z" fill="#EAE9E8"/>
<path id="Vector_75" d="M178.434 331.874C178.434 331.874 174.148 334.832 175.152 336.516L187.7 349.219L188.111 348.79C188.519 348.361 188.786 347.817 188.876 347.232C188.966 346.647 188.874 346.048 188.613 345.517L183.838 335.644C183.838 335.644 179.616 338.83 178.434 331.874Z" fill="#1F252A"/>
<path id="Vector_76" d="M177.98 328.984L197.936 305.08C198.297 304.648 198.543 304.131 198.652 303.579L203.801 277.397L213.715 298.184L210.702 308.732C210.557 309.243 210.292 309.712 209.931 310.101L186.653 335.155C186.534 335.282 186.375 335.362 186.202 335.381C186.03 335.401 185.856 335.358 185.713 335.26L178.113 330.047C178.031 329.989 177.961 329.914 177.91 329.828C177.858 329.741 177.825 329.645 177.812 329.545C177.8 329.445 177.808 329.343 177.837 329.246C177.866 329.15 177.915 329.06 177.98 328.984V328.984Z" fill="#333333"/>
<path id="Vector_77" d="M228.163 341.378L230.934 346.923L235.439 344.961L231.801 337.566L228.163 341.378Z" fill="#EAE9E8"/>
<path id="Vector_78" d="M203.109 268.835L203.803 277.379L213.717 298.184L217.409 306.5L226.954 342.805C226.979 342.904 227.025 342.998 227.087 343.079C227.15 343.161 227.228 343.229 227.318 343.279C227.407 343.33 227.506 343.362 227.608 343.374C227.71 343.386 227.813 343.377 227.912 343.348L235.941 341.002C236.129 340.945 236.289 340.82 236.389 340.651C236.489 340.482 236.521 340.281 236.479 340.089L229.117 304.756L221.239 268.835H203.109Z" fill="#424242"/>
<path id="Vector_79" d="M200.682 242.522L209.117 233.169C209.117 233.169 210.942 231.088 213.736 233.169C215.632 234.64 217.407 236.261 219.044 238.017C219.044 238.017 224.357 262.618 221.239 268.853H203.11L203.918 253.376L207.957 249.911L200.682 242.522Z" fill="#D1D1D1"/>
<path id="Vector_80" d="M199.712 256.904L207.955 249.912L201.848 243.69L193.29 255.001C192.955 255.443 192.793 255.991 192.833 256.544L194.166 278.553V278.772C192.158 279.073 191.049 280.662 190.925 282.702C190.857 283.432 190.973 284.168 191.262 284.842C191.551 285.517 192.005 286.108 192.581 286.561C193.158 287.015 193.839 287.317 194.562 287.44C195.285 287.563 196.028 287.502 196.722 287.264C197.416 287.026 198.039 286.618 198.534 286.077C199.03 285.537 199.382 284.88 199.559 284.168C199.736 283.456 199.731 282.711 199.546 282.001C199.36 281.292 199 280.64 198.498 280.105L198.817 258.794C198.824 258.433 198.907 258.079 199.061 257.753C199.215 257.427 199.437 257.138 199.712 256.904V256.904Z" fill="#EAE9E8"/>
<path id="Vector_81" d="M209.574 232.244L212.92 227.625L218.698 232.244L217.329 236.284C217.329 236.284 212.801 231.436 209.574 232.244Z" fill="#EAE9E8"/>
<path id="Vector_82" d="M246.511 263.088C246.018 263.022 245.518 263.115 245.082 263.353L244.831 263.252L225.747 255.342L220.727 247.09C221.128 249.504 222.169 259.834 222.169 259.834L224.711 261.577L241.987 267.26L242.293 267.41C242.27 267.593 242.499 267.474 242.499 267.666C242.499 269.998 244.187 271.523 246.515 271.523C247.634 271.523 248.706 271.078 249.497 270.288C250.288 269.497 250.733 268.424 250.733 267.305C250.733 266.187 250.288 265.114 249.497 264.323C248.706 263.532 247.634 263.088 246.515 263.088H246.511Z" fill="#EAE9E8"/>
<path id="Vector_83" d="M227.94 218.847V223.698H227.027L227.483 228.664H225.407C225.407 228.664 224.494 232.243 223.211 232.243C223.211 232.243 219.788 233.106 217.949 231.636L212.928 227.624V222.544L215.009 216.423L223.681 214.113L227.954 215.843L227.94 218.847Z" fill="#EAE9E8"/>
<path id="Vector_84" d="M215.897 230.221V231.868L218.024 234.233L218.695 232.243L215.897 230.221Z" fill="#D1D1D1"/>
<path id="Vector_85" d="M221.572 268.852H203.109V270.371H221.572V268.852Z" fill="#333333"/>
<path id="Vector_86" d="M228.749 344.962C228.749 344.962 229.096 350.156 231.059 350.156L248.38 345.884L248.225 345.313C248.067 344.747 247.74 344.242 247.287 343.866C246.834 343.49 246.278 343.261 245.692 343.209L234.737 342.246C234.737 342.246 235.331 347.5 228.749 344.962Z" fill="#1F252A"/>
<path id="Vector_87" d="M249.809 269.925C249.809 269.925 277.309 312.159 317.151 318.914" stroke="#565555" stroke-miterlimit="10"/>
<path id="tail" d="M279.039 327.753C279.039 327.753 275.141 326.297 274.795 323.905C274.448 321.514 274.361 319.177 276.095 317.273C276.095 317.273 272.166 318.474 273.667 325.325C273.667 325.325 273.927 328.1 278.519 329.136L279.039 327.753Z" fill="#333333"/>
<path id="Vector_88" d="M311.262 323.42L283.666 324.232C282.279 324.262 280.94 324.743 279.85 325.601C277.54 327.459 274.072 331.325 274.537 337.551L273.67 348.711H279.216L279.193 348.574C279.122 348.078 278.913 347.613 278.59 347.23C278.267 346.848 277.844 346.564 277.367 346.41L276.705 346.2L276.824 343.507C276.839 343.153 276.962 342.813 277.178 342.532C277.394 342.251 277.691 342.043 278.029 341.937C279.731 341.403 282.954 340.084 285.04 337.295C285.223 337.048 285.483 336.867 285.779 336.781C286.074 336.694 286.39 336.707 286.678 336.816C290.786 338.35 305.762 343.663 313.343 341.869C313.343 341.869 313.95 348.19 315.685 348.715H319.756L319.601 348.186C319.462 347.713 319.203 347.285 318.849 346.942C318.496 346.599 318.06 346.353 317.584 346.228L317.154 346.118V341.787C317.154 341.787 325.124 338.756 326.772 331.827C328.419 324.899 329.802 318.052 329.802 318.052L330.236 315.108C330.236 315.108 336.384 315.368 338.639 309.827L336.813 308.613H330.925C330.467 307.712 329.759 306.963 328.885 306.455C328.011 305.947 327.01 305.703 326 305.751C322.449 305.925 321.148 308.348 321.148 308.348C319.226 312.531 317.521 316.811 316.041 321.169C316.041 321.169 314.032 324.027 311.262 323.42Z" fill="#7A7A7A"/>
<path id="Vector_89" d="M317.149 318.029L316.364 320.206C316.364 320.206 323.813 324.62 328.583 323.803L329.19 320.964C329.19 320.964 323.649 321.904 317.149 318.029Z" fill="#333333"/>
<path id="Vector_90" d="M336.757 309.003L337.729 310.007C337.819 310.103 337.933 310.173 338.059 310.209C338.185 310.246 338.318 310.249 338.445 310.218C338.573 310.186 338.689 310.121 338.783 310.03C338.877 309.938 338.945 309.823 338.98 309.697C338.978 309.685 338.978 309.673 338.98 309.66C339.028 309.388 338.987 309.108 338.864 308.86C338.741 308.613 338.541 308.411 338.295 308.286C338.049 308.16 337.769 308.117 337.496 308.162C337.223 308.207 336.972 308.339 336.78 308.538L336.725 308.602C336.68 308.661 336.658 308.734 336.664 308.808C336.67 308.883 336.703 308.952 336.757 309.003Z" fill="#333333"/>
<path id="Vector_91" d="M322.778 309.274V321.392C322.776 321.505 322.804 321.616 322.86 321.715C322.915 321.813 322.996 321.895 323.094 321.952C323.191 322.009 323.302 322.038 323.415 322.038C323.528 322.037 323.639 322.007 323.736 321.949C324.834 321.327 325.809 320.512 326.617 319.543C327.057 318.965 327.336 318.28 327.425 317.558C327.514 316.836 327.41 316.104 327.123 315.436C326.416 313.706 324.987 310.784 322.86 309.214C322.851 309.209 322.84 309.206 322.829 309.206C322.818 309.206 322.808 309.21 322.799 309.216C322.79 309.223 322.784 309.232 322.78 309.242C322.776 309.252 322.775 309.263 322.778 309.274V309.274Z" fill="#686767"/>
<path id="Vector_92" d="M220.72 223.584C220.72 223.584 222.167 216.423 227.015 217.23C227.015 217.23 228.863 219.873 229.324 217.167C229.785 214.46 223.436 208.567 217.43 210.32C211.423 212.073 211.437 213.072 211.437 213.072C211.437 213.072 207.479 216.651 212.906 226.469L216.836 225.661C216.836 225.661 214.18 223.835 215.796 221.617C217.411 219.399 219.689 221.735 219.689 221.735L220.72 223.584Z" fill="#383838"/>
</g>
</g>
</svg>
