<svg width="988" height="358" viewBox="0 0 988 358" fill="none" xmlns="http://www.w3.org/2000/svg">
<g id="Frame 8">
<g id="lamp post">
<path id="Vector" d="M779.754 74.2085H782.247L782.225 74.0142L781.473 67.3756C781.461 67.2726 781.411 67.1776 781.333 67.1087C781.256 67.0398 781.156 67.0018 781.052 67.0019C781.025 66.9994 780.998 66.9994 780.971 67.0019C780.833 67.0172 780.704 67.0757 780.602 67.1691C780.48 67.2802 780.404 67.4327 780.388 67.5969L779.754 74.2085Z" fill="#7F7E7F"/>
<path id="Vector_2" d="M781.999 72.6968H782.087L781.465 67.3786C781.453 67.2755 781.404 67.1805 781.326 67.1116C781.249 67.0427 781.148 67.0047 781.045 67.0048C781.018 67.0023 780.991 67.0023 780.964 67.0048L780.897 67.0663C780.786 67.1869 780.723 67.3446 780.72 67.5089L780.686 71.3347C780.681 71.6889 780.816 72.0306 781.062 72.2856C781.308 72.5407 781.645 72.6884 781.999 72.6968Z" fill="#999999"/>
<path id="Vector_3" d="M785.705 281.437H775.927L777.358 277.112C777.42 276.925 777.54 276.761 777.7 276.646C777.86 276.53 778.053 276.468 778.25 276.468H782.831C783.073 276.468 783.31 276.54 783.512 276.675C783.714 276.81 783.871 277.001 783.964 277.225L785.705 281.437Z" fill="#999999"/>
<path id="Vector_4" d="M782.973 103.686H778.169V315.185H782.973V103.686Z" fill="#999999"/>
<path id="Vector_5" d="M782.958 103.686H780.74V315.185H782.958V103.686Z" fill="#DCDBDD"/>
<path id="Vector_6" d="M788.225 281.436H772.919V337.396H788.225V281.436Z" fill="#999999"/>
<path id="Vector_7" d="M788.221 281.436H779.099V337.396H788.221V281.436Z" fill="#DCDBDD"/>
<path id="Vector_8" d="M772.208 77.3976C772.208 80.0113 776.142 82.1282 781.003 82.1282C781.374 82.1282 781.741 82.1282 782.097 82.0914C786.437 81.8037 789.798 79.8121 789.798 77.3976C789.798 74.9831 786.437 72.994 782.097 72.7039C781.738 72.6793 781.374 72.667 781.003 72.667C776.144 72.6645 772.208 74.7864 772.208 77.3976Z" fill="#999999"/>
<path id="Vector_9" d="M772.913 107.862H788.216L793.613 81.9639H768.345L772.913 107.862Z" fill="#999999"/>
<path id="Vector_10" d="M794.998 80.0107H767V82.4941H794.998V80.0107Z" fill="#999999"/>
<path id="Vector_11" d="M776.701 77.1756H776.765C776.918 75.1668 779.069 73.4579 782.093 72.708C786.295 72.9883 789.58 74.8643 789.784 77.1756H791.21L793.209 80.0129H794.999V82.5036H777.397V80.0129H774.806L776.701 77.1756Z" fill="#EFEFEF"/>
<path id="Vector_12" d="M791.812 83.2246H770.231L774.446 106.502H786.84L791.812 83.2246Z" fill="#EFEFEF"/>
<path id="Vector_13" d="M789.212 77.6827C789.212 77.6827 787.567 74.1028 784.321 74.2135C784.321 74.2135 786.389 76.0452 786.197 77.6827C786.006 79.3203 789.212 77.6827 789.212 77.6827Z" fill="#E0E0E0"/>
<path id="Vector_14" d="M768.782 80.0176H793.202L791.203 77.1777H770.68L768.782 80.0176Z" fill="#999999"/>
<path id="Vector_15" d="M790.384 84.04H785.437L783.996 105.778H785.437L790.384 84.04Z" fill="#E0E0E0"/>
</g>
<g id="long tree">
<path id="Vector_16" d="M947.727 233.244C937.258 241.785 922.193 226.91 932.771 218.282C938.24 213.817 942.749 208.465 946.979 202.887C940.132 203.143 932.412 195.321 936.151 186.693C941.942 173.328 950.813 161.569 954.728 147.406C955.341 144.947 956.876 142.818 959.016 141.461C956.443 130.164 953.437 117.958 950.124 105.7C944.303 120.01 940.095 135.281 932.764 148.762C926.247 160.748 907.978 150.067 914.495 138.081C924.905 118.881 928.959 96.1554 940.396 77.6008C940.729 77.0859 941.099 76.5959 941.503 76.1346C931.115 43.182 919.429 16.1748 909.979 16.1748C898.338 16.1748 883.317 57.1181 871.492 99.6962L878.684 122.459L870.085 104.865C863.971 127.437 858.817 150.03 855.621 166.818C851.567 188.078 850.225 208.172 851.42 226.118L875.942 259.562L853.157 241.044C859.293 279.429 878.816 304.823 910.031 304.823C949.662 304.823 970.46 263.983 968.92 207.483C962.344 216.573 956.245 226.258 947.727 233.244Z" fill="#DCDBDB"/>
<path id="Vector_17" d="M968.025 192.836L949.302 212.248L967.145 184.53C966.427 178.729 965.498 172.825 964.36 166.819C964.132 165.624 963.89 164.392 963.626 163.153L950.431 184.2L962.461 157.347C959.059 140.904 954.287 120.766 948.803 100.899L931.854 129.665L945.783 90.3056C938.452 65.1531 930.161 41.6208 922.324 28.0879C917.764 20.2365 913.344 15.7133 909.348 16.2558L909.268 16.3291C896.563 27.9999 897.941 48.138 897.934 63.7383C897.934 70.7467 897.582 76.5014 893.77 82.4615C890.266 87.9304 885.706 92.8421 882.708 98.6629C878.14 107.511 881.535 119.19 882.862 128.434C884.731 141.41 880.259 152.391 874.497 163.879C868.859 175.139 861.536 187.624 868.251 200.057C874.292 211.237 880.633 221.669 879.211 235.084C878.089 245.707 872.276 253.338 874.079 264.643C876.278 278.572 888.741 289.245 897.758 299.062C907.369 309.537 925.205 304.274 935.879 297.647C961.075 282.017 972.482 242.173 968.025 192.836Z" fill="#EAEAEA"/>
<path id="Vector_18" d="M919.407 42.0968C920.207 52.0229 918.161 63.2246 924.539 71.7212C930.404 79.5653 934.414 86.8009 936.533 96.4851C937.999 103.347 937.398 110.282 936.298 117.158L945.828 90.2978C938.497 65.1453 930.206 41.613 922.369 28.0801C918.469 21.365 914.672 17.0837 911.16 16.3506C915.962 23.8135 918.66 32.6913 919.407 42.0968Z" fill="#F9F9FA"/>
<path id="Vector_19" d="M934.252 128.8C932.786 137.832 937.485 141.886 942.785 148.454C950.241 157.684 953.496 167.661 953.049 178.306L962.447 157.332C959.045 140.889 954.273 120.751 948.789 100.884L935.022 124.24C934.773 125.772 934.531 127.29 934.252 128.8Z" fill="#F9F9FA"/>
<path id="Vector_20" d="M968.026 192.835L949.302 212.248L967.146 184.529C966.427 178.728 965.499 172.824 964.36 166.818C964.133 165.623 963.891 164.391 963.627 163.152L952.917 180.219C952.526 184.726 951.598 189.171 950.153 193.458C945.703 206.874 945.967 216.698 947.844 230.648C949.017 239.35 950.439 248.243 948.525 256.944C946.81 264.81 941.29 270.448 939.112 277.794C937.448 283.438 936.077 289.245 932.58 294.112C930.456 297.056 928.149 299.864 925.675 302.521C929.233 301.262 932.649 299.63 935.865 297.653C961.076 282.016 972.483 242.173 968.026 192.835Z" fill="#F9F9FA"/>
<path id="Vector_21" d="M945.763 184.434L911.842 221.969L910.002 122.48L908.434 206.86L886.03 180.49L908.324 213.018L907.275 269.502L872.321 225.979L907.143 276.775L905.794 349.696H914.21L911.982 229.564L945.763 184.434Z" fill="#7D7D7D"/>
</g>
<g id="shrub">
<path id="Vector_22" d="M148.84 234.83C148.84 275.6 117.76 308.66 79.4205 308.66C41.0805 308.66 10.0005 275.6 10.0005 234.83C10.0005 194.06 41.0805 161 79.4205 161C117.76 161 148.84 194.06 148.84 234.83Z" fill="#F0EFEF"/>
<path id="Vector_23" d="M78.3506 181.88C86.8006 194.29 96.9906 193.43 103.701 195.61C113.921 198.94 121.271 204.61 126.491 214.07C133.601 226.94 128.591 241.63 139.161 252.98C141.16 255.122 143.039 257.372 144.791 259.72C147.485 251.699 148.853 243.292 148.841 234.83C148.841 194.06 117.761 161 79.4206 161C73.7356 161 68.0748 161.74 62.5806 163.2C69.5706 167.86 73.5806 174.87 78.3506 181.88Z" fill="#F7F7F7"/>
<path id="Vector_24" d="M104.741 288.33C90.2505 286.77 82.5405 304.67 69.5305 291.42C59.2805 280.94 54.8605 289.94 44.1205 278.75C37.9605 272.35 43.6805 259.75 30.7805 252.81C19.6105 246.81 17.8405 235.9 18.0005 224.92C18.1405 215.12 25.0005 204.62 24.0805 195.29C23.9367 194.023 23.6412 192.777 23.2005 191.58C14.5456 204.339 9.94486 219.413 10.0005 234.83C10.0005 275.6 41.0805 308.66 79.4205 308.66C100.01 308.66 118.471 299.09 131.181 283.95C122.381 287.82 114.641 289.39 104.741 288.33Z" fill="#D8D8D8"/>
<path id="Vector_25" d="M81.3005 350.29H77.5405L78.8805 198.57H79.9505L81.3005 350.29Z" fill="#7D7D7D"/>
<path id="Vector_26" d="M115 223.02L79.4204 241.58V246.82L115 223.02Z" fill="#7D7D7D"/>
<path id="Vector_27" d="M127.88 243.98L79.4204 276.9V285.84L127.88 243.98Z" fill="#7D7D7D"/>
<path id="Vector_28" d="M54.8604 196.99L79.4203 224.56V229.8L54.8604 196.99Z" fill="#7D7D7D"/>
<path id="Vector_29" d="M30.3003 234.83L79.4203 263.35V270.75L30.3003 234.83Z" fill="#7D7D7D"/>
</g>
<g id="shrub_2">
<path id="Vector_30" d="M180.159 285.094C180.159 308.339 162.439 327.188 140.579 327.188C118.72 327.188 101 308.339 101 285.094C101 261.849 118.72 243 140.579 243C162.439 243 180.159 261.849 180.159 285.094Z" fill="#F0EFEF"/>
<path id="Vector_31" d="M139.97 254.905C144.787 261.98 150.597 261.49 154.423 262.733C160.25 264.631 164.44 267.864 167.416 273.258C171.47 280.595 168.614 288.971 174.64 295.442C175.78 296.663 176.852 297.946 177.85 299.285C179.386 294.711 180.166 289.918 180.159 285.094C180.159 261.849 162.439 243 140.58 243C137.339 243 134.111 243.422 130.979 244.254C134.964 246.911 137.25 250.908 139.97 254.905Z" fill="#F7F7F7"/>
<path id="Vector_32" d="M155.016 315.596C146.754 314.707 142.359 324.912 134.941 317.358C129.097 311.383 126.577 316.514 120.454 310.134C116.942 306.485 120.203 299.301 112.848 295.345C106.479 291.924 105.47 285.703 105.561 279.443C105.641 273.856 109.552 267.869 109.028 262.55C108.946 261.827 108.777 261.117 108.526 260.435C103.592 267.709 100.969 276.303 101 285.093C101 308.338 118.72 327.187 140.58 327.187C152.319 327.187 162.844 321.731 170.09 313.099C165.073 315.305 160.66 316.2 155.016 315.596Z" fill="#D8D8D8"/>
<path id="Vector_33" d="M141.652 350.922H139.508L140.272 264.42H140.882L141.652 350.922Z" fill="#7D7D7D"/>
<path id="Vector_34" d="M160.865 278.36L140.579 288.942V291.93L160.865 278.36Z" fill="#7D7D7D"/>
<path id="Vector_35" d="M168.208 290.311L140.579 309.08V314.177L168.208 290.311Z" fill="#7D7D7D"/>
<path id="Vector_36" d="M126.577 263.52L140.58 279.238V282.226L126.577 263.52Z" fill="#7D7D7D"/>
<path id="Vector_37" d="M112.574 285.094L140.58 301.354V305.573L112.574 285.094Z" fill="#7D7D7D"/>
</g>
<path id="Vector 46" d="M988 350H1" stroke="#616161" stroke-width="2"/>
</g>
</svg>
