<svg width="9704" height="1176" viewBox="0 0 9704 1176" fill="none" xmlns="http://www.w3.org/2000/svg">
<g clip-path="url(#clip0)">
<path d="M1886.73 1179.23H3281L3236.42 576.148C3235.84 574.009 3235.27 571.86 3234.69 569.721C3231.91 559.305 3228.93 548.923 3225.75 538.574C3225.08 536.415 3224.4 534.246 3223.73 532.087C3223.47 531.227 3223.2 530.388 3222.92 529.558C3220.46 521.881 3217.91 514.218 3215.27 506.568C3214.59 504.679 3213.94 502.779 3213.26 500.89C3212.46 498.701 3211.66 496.482 3210.86 494.323C3209.73 491.224 3208.56 488.132 3207.37 485.047V498.291L3119.13 498.001V530.508H3044.31V329.853H2974.47V314.86H2971.82V329.853H2896.12V314.86H2893.47V329.853H2840.02V314.86H2837.37V329.853H2822.64V544.762H2754.94V428.551H2614.3V340.059C2613.27 339.629 2612.25 339.239 2611.23 338.819H2591.51V338.769H2476.91V338.819H2476.81V354.313H2476.91V364.978H2476.81V380.482H2476.91V391.177H2476.81V406.67H2476.91V406.73H2476.74L2464.76 406.67V325.595H2447.51V314H2445.47V325.595H2350.95V314H2348.92V325.595H2336.17V335.871H2336.09V351.374H2336.17V364.978H2336.09V380.482H2336.17V391.177H2336.09V406.67H2336.17V416.556H2336.09V432.05H2336.17V441.955H2336.09V457.449H2336.17V466.775H2336.09V476.611H2336.17V477.68H2293.33V400.133H2286.99V477.68H2222.26V436.298H2218.17V477.68H2191.17V566.392H2136.95V588.743H2078.63V550.269H1973.56V445.724H1957.12V435.308H1954.75V445.724H1873.02V435.318H1870.66V445.724H1852.88V498.301L1764.64 498.011V530.458H1689.83V329.853H1670.25V314.86H1667.61V329.853H1619.99V314.86H1617.33V329.853H1541.64V314.86H1538.98V329.853H1485.53V314.86H1482.89V329.853H1468.1V544.762H1400.42V428.551H1316.62V340.059C1315.6 339.629 1314.58 339.239 1313.55 338.819H1293.84V338.769H1179.24V338.819H1179.14V354.313H1179.24V364.978H1179.14V380.482H1179.24V391.177H1179.14V406.67H1179.24V406.73L1167.09 406.67V325.595H1149.84V314H1147.81V325.595H1053.28V314H1051.22V325.595H1038.47V335.871H1038.41V351.374H1038.47V364.978H1038.41V380.482H1038.47V391.177H1038.41V406.67H1038.47V416.556H1038.41V432.05H1038.47V441.955H1038.41V457.449H1038.47V466.775H1038.41V476.611H1038.47V477.68H995.649V400.133H989.327V477.68H924.585V436.298H920.507V477.68H893.508V566.392H839.29V588.743H780.968V550.269H675.907V445.724H659.481V435.308H657.127V445.724H575.356V435.318H573.015V445.724H555.246V498.301L467.005 498.011V530.458H392.183V391.567C377.15 394.192 361.459 396.475 345.112 398.414C341.711 398.814 338.33 399.227 334.97 399.653C300.722 403.918 268.507 409.063 238.326 415.087C214.502 419.798 191.911 424.989 170.552 430.66V544.751H102.828V451.241C-192.096 553.988 -226.402 751.903 -229.877 855.749C-229.963 858.458 -230 861.116 -230 863.805C-230 1058.08 -218.626 1181 -218.626 1181L1260.2 1176.14L1676.36 1178.14L1886.69 1179.14" fill="#DBDBDB"/>
<path d="M1886.73 1179.23H3281L3236.42 576.148C3235.84 574.009 3235.27 571.86 3234.69 569.721C3231.91 559.305 3228.93 548.923 3225.75 538.574C3225.08 536.415 3224.4 534.246 3223.73 532.087C3223.47 531.227 3223.2 530.388 3222.92 529.558C3220.46 521.881 3217.91 514.218 3215.27 506.568C3214.59 504.679 3213.94 502.779 3213.26 500.89C3212.46 498.701 3211.66 496.482 3210.86 494.323C3209.73 491.224 3208.56 488.132 3207.37 485.047V498.291L3119.13 498.001V530.508H3044.31V329.853H2974.47V314.86H2971.82V329.853H2896.12V314.86H2893.47V329.853H2840.02V314.86H2837.37V329.853H2822.64V544.762H2754.94V428.551H2614.3V340.059C2613.27 339.629 2612.25 339.239 2611.23 338.819H2591.51V338.769H2476.91V338.819H2476.81V354.313H2476.91V364.978H2476.81V380.482H2476.91V391.177H2476.81V406.67H2476.91V406.73H2476.74L2464.76 406.67V325.595H2447.51V314H2445.47V325.595H2350.95V314H2348.92V325.595H2336.17V335.871H2336.09V351.374H2336.17V364.978H2336.09V380.482H2336.17V391.177H2336.09V406.67H2336.17V416.556H2336.09V432.05H2336.17V441.955H2336.09V457.449H2336.17V466.775H2336.09V476.611H2336.17V477.68H2293.33V400.133H2286.99V477.68H2222.26V436.298H2218.17V477.68H2191.17V566.392H2136.95V588.743H2078.63V550.269H1973.56V445.724H1957.12V435.308H1954.75V445.724H1873.02V435.318H1870.66V445.724H1852.88V498.301L1764.64 498.011V530.458H1689.83V329.853H1670.25V314.86H1667.61V329.853H1619.99V314.86H1617.33V329.853H1541.64V314.86H1538.98V329.853H1485.53V314.86H1482.89V329.853H1468.1V544.762H1400.42V428.551H1316.62V340.059C1315.6 339.629 1314.58 339.239 1313.55 338.819H1293.84V338.769H1179.24V338.819H1179.14V354.313H1179.24V364.978H1179.14V380.482H1179.24V391.177H1179.14V406.67H1179.24V406.73L1167.09 406.67V325.595H1149.84V314H1147.81V325.595H1053.28V314H1051.22V325.595H1038.47V335.871H1038.41V351.374H1038.47V364.978H1038.41V380.482H1038.47V391.177H1038.41V406.67H1038.47V416.556H1038.41V432.05H1038.47V441.955H1038.41V457.449H1038.47V466.775H1038.41V476.611H1038.47V477.68H995.649V400.133H989.327V477.68H924.585V436.298H920.507V477.68H893.508V566.392H839.29V588.743H780.968V550.269H675.907V445.724H659.481V435.308H657.127V445.724H575.356V435.318H573.015V445.724H555.246V498.301L467.005 498.011V530.458H392.183V391.567C377.15 394.192 361.459 396.475 345.112 398.414C341.711 398.814 338.33 399.227 334.97 399.653C300.722 403.918 268.507 409.063 238.326 415.087C214.502 419.798 191.911 424.989 170.552 430.66V544.751H102.828V451.241C-192.096 553.988 -226.402 751.903 -229.877 855.749C-229.963 858.458 -230 861.116 -230 863.805C-230 1058.08 -218.626 1181 -218.626 1181L1260.2 1176.14L1676.36 1178.14L1886.69 1179.14" fill="#DBDBDB"/>
<path d="M5014.73 1176.23H6409L6364.42 573.148C6363.84 571.009 6363.27 568.86 6362.69 566.721C6359.91 556.305 6356.93 545.923 6353.75 535.574C6353.08 533.415 6352.4 531.246 6351.73 529.087C6351.47 528.227 6351.2 527.388 6350.92 526.558C6348.46 518.881 6345.91 511.218 6343.27 503.568C6342.59 501.679 6341.94 499.779 6341.26 497.89C6340.46 495.701 6339.66 493.482 6338.86 491.323C6337.73 488.224 6336.56 485.132 6335.37 482.047V495.291L6247.13 495.001V527.508H6172.31V326.853H6102.47V311.86H6099.82V326.853H6024.12V311.86H6021.47V326.853H5968.02V311.86H5965.37V326.853H5950.64V541.762H5882.94V425.551H5742.3V337.059C5741.27 336.629 5740.25 336.239 5739.23 335.819H5719.51V335.769H5604.91V335.819H5604.81V351.313H5604.91V361.978H5604.81V377.482H5604.91V388.177H5604.81V403.67H5604.91V403.73H5604.74L5592.76 403.67V322.595H5575.51V311H5573.47V322.595H5478.95V311H5476.92V322.595H5464.17V332.871H5464.09V348.374H5464.17V361.978H5464.09V377.482H5464.17V388.177H5464.09V403.67H5464.17V413.556H5464.09V429.05H5464.17V438.955H5464.09V454.449H5464.17V463.775H5464.09V473.611H5464.17V474.68H5421.33V397.133H5414.99V474.68H5350.26V433.298H5346.17V474.68H5319.17V563.392H5264.95V585.743H5206.63V547.269H5101.56V442.724H5085.12V432.308H5082.75V442.724H5001.02V432.318H4998.66V442.724H4980.88V495.301L4892.64 495.011V527.458H4817.83V326.853H4798.25V311.86H4795.61V326.853H4747.99V311.86H4745.33V326.853H4669.64V311.86H4666.98V326.853H4613.53V311.86H4610.89V326.853H4596.1V541.762H4528.42V425.551H4444.62V337.059C4443.6 336.629 4442.58 336.239 4441.55 335.819H4421.84V335.769H4307.24V335.819H4307.14V351.313H4307.24V361.978H4307.14V377.482H4307.24V388.177H4307.14V403.67H4307.24V403.73L4295.09 403.67V322.595H4277.84V311H4275.81V322.595H4181.28V311H4179.22V322.595H4166.47V332.871H4166.41V348.374H4166.47V361.978H4166.41V377.482H4166.47V388.177H4166.41V403.67H4166.47V413.556H4166.41V429.05H4166.47V438.955H4166.41V454.449H4166.47V463.775H4166.41V473.611H4166.47V474.68H4123.65V397.133H4117.33V474.68H4052.59V433.298H4048.51V474.68H4021.51V563.392H3967.29V585.743H3908.97V547.269H3803.91V442.724H3787.48V432.308H3785.13V442.724H3703.36V432.318H3701.01V442.724H3683.25V495.301L3595 495.011V527.458H3520.18V388.567C3505.15 391.192 3489.46 393.475 3473.11 395.414C3469.71 395.814 3466.33 396.227 3462.97 396.653C3428.72 400.918 3396.51 406.063 3366.33 412.087C3342.5 416.798 3319.91 421.989 3298.55 427.66V541.751H3230.83V448.241C2935.9 550.988 2901.6 748.903 2898.12 852.749C2898.04 855.458 2898 858.116 2898 860.805C2898 1055.08 2909.37 1178 2909.37 1178L4388.2 1173.14L4804.36 1175.14L5014.69 1176.14" fill="#DBDBDB"/>
<path d="M8230.73 1174.23H9625L9580.42 571.148C9579.84 569.009 9579.27 566.86 9578.69 564.721C9575.91 554.305 9572.93 543.923 9569.75 533.574C9569.08 531.415 9568.4 529.246 9567.73 527.087C9567.47 526.227 9567.2 525.388 9566.92 524.558C9564.46 516.881 9561.91 509.218 9559.27 501.568C9558.59 499.679 9557.94 497.779 9557.26 495.89C9556.46 493.701 9555.66 491.482 9554.86 489.323C9553.73 486.224 9552.56 483.132 9551.37 480.047V493.291L9463.13 493.001V525.508H9388.31V324.853H9318.47V309.86H9315.82V324.853H9240.12V309.86H9237.47V324.853H9184.02V309.86H9181.37V324.853H9166.64V539.762H9098.94V423.551H8958.3V335.059C8957.27 334.629 8956.25 334.239 8955.23 333.819H8935.51V333.769H8820.91V333.819H8820.81V349.313H8820.91V359.978H8820.81V375.482H8820.91V386.177H8820.81V401.67H8820.91V401.73H8820.74L8808.76 401.67V320.595H8791.51V309H8789.47V320.595H8694.95V309H8692.92V320.595H8680.17V330.871H8680.09V346.374H8680.17V359.978H8680.09V375.482H8680.17V386.177H8680.09V401.67H8680.17V411.556H8680.09V427.05H8680.17V436.955H8680.09V452.449H8680.17V461.775H8680.09V471.611H8680.17V472.68H8637.33V395.133H8630.99V472.68H8566.26V431.298H8562.17V472.68H8535.17V561.392H8480.95V583.743H8422.63V545.269H8317.56V440.724H8301.12V430.308H8298.75V440.724H8217.02V430.318H8214.66V440.724H8196.88V493.301L8108.64 493.011V525.458H8033.83V324.853H8014.25V309.86H8011.61V324.853H7963.99V309.86H7961.33V324.853H7885.64V309.86H7882.98V324.853H7829.53V309.86H7826.89V324.853H7812.1V539.762H7744.42V423.551H7660.62V335.059C7659.6 334.629 7658.58 334.239 7657.55 333.819H7637.84V333.769H7523.24V333.819H7523.14V349.313H7523.24V359.978H7523.14V375.482H7523.24V386.177H7523.14V401.67H7523.24V401.73L7511.09 401.67V320.595H7493.84V309H7491.81V320.595H7397.28V309H7395.22V320.595H7382.47V330.871H7382.41V346.374H7382.47V359.978H7382.41V375.482H7382.47V386.177H7382.41V401.67H7382.47V411.556H7382.41V427.05H7382.47V436.955H7382.41V452.449H7382.47V461.775H7382.41V471.611H7382.47V472.68H7339.65V395.133H7333.33V472.68H7268.59V431.298H7264.51V472.68H7237.51V561.392H7183.29V583.743H7124.97V545.269H7019.91V440.724H7003.48V430.308H7001.13V440.724H6919.36V430.318H6917.01V440.724H6899.25V493.301L6811 493.011V525.458H6736.18V386.567C6721.15 389.192 6705.46 391.475 6689.11 393.414C6685.71 393.814 6682.33 394.227 6678.97 394.653C6644.72 398.918 6612.51 404.063 6582.33 410.087C6558.5 414.798 6535.91 419.989 6514.55 425.66V539.751H6446.83V446.241C6151.9 548.988 6117.6 746.903 6114.12 850.749C6114.04 853.458 6114 856.116 6114 858.805C6114 1053.08 6125.37 1176 6125.37 1176L7604.2 1171.14L8020.36 1173.14L8230.69 1174.14" fill="#DBDBDB"/>
<path d="M2011.73 1201.23H3406L3361.42 598.148C3360.84 596.009 3360.27 593.86 3359.69 591.721C3356.91 581.305 3353.93 570.923 3350.75 560.574C3350.08 558.415 3349.4 556.246 3348.73 554.087C3348.47 553.227 3348.2 552.388 3347.92 551.558C3345.46 543.881 3342.91 536.218 3340.27 528.568C3339.59 526.679 3338.94 524.779 3338.26 522.89C3337.46 520.701 3336.66 518.482 3335.86 516.323C3334.73 513.224 3333.56 510.132 3332.37 507.047V520.291L3244.13 520.001V552.508H3169.31V351.853H3099.47V336.86H3096.82V351.853H3021.12V336.86H3018.47V351.853H2965.02V336.86H2962.37V351.853H2947.64V566.762H2879.94V450.551H2739.3V362.059C2738.27 361.629 2737.25 361.239 2736.23 360.819H2716.51V360.769H2601.91V360.819H2601.81V376.313H2601.91V386.978H2601.81V402.482H2601.91V413.177H2601.81V428.67H2601.91V428.73H2601.74L2589.76 428.67V347.595H2572.51V336H2570.47V347.595H2475.95V336H2473.92V347.595H2461.17V357.871H2461.09V373.374H2461.17V386.978H2461.09V402.482H2461.17V413.177H2461.09V428.67H2461.17V438.556H2461.09V454.05H2461.17V463.955H2461.09V479.449H2461.17V488.775H2461.09V498.611H2461.17V499.68H2418.33V422.133H2411.99V499.68H2347.26V458.298H2343.17V499.68H2316.17V588.392H2261.95V610.743H2203.63V572.269H2098.56V467.724H2082.12V457.308H2079.75V467.724H1998.02V457.318H1995.66V467.724H1977.88V520.301L1889.64 520.011V552.458H1814.83V351.853H1795.25V336.86H1792.61V351.853H1744.99V336.86H1742.33V351.853H1666.64V336.86H1663.98V351.853H1610.53V336.86H1607.89V351.853H1593.1V566.762H1525.42V450.551H1441.62V362.059C1440.6 361.629 1439.58 361.239 1438.55 360.819H1418.84V360.769H1304.24V360.819H1304.14V376.313H1304.24V386.978H1304.14V402.482H1304.24V413.177H1304.14V428.67H1304.24V428.73L1292.09 428.67V347.595H1274.84V336H1272.81V347.595H1178.28V336H1176.22V347.595H1163.47V357.871H1163.41V373.374H1163.47V386.978H1163.41V402.482H1163.47V413.177H1163.41V428.67H1163.47V438.556H1163.41V454.05H1163.47V463.955H1163.41V479.449H1163.47V488.775H1163.41V498.611H1163.47V499.68H1120.65V422.133H1114.33V499.68H1049.59V458.298H1045.51V499.68H1018.51V588.392H964.29V610.743H905.968V572.269H800.907V467.724H784.481V457.308H782.127V467.724H700.356V457.318H698.015V467.724H680.246V520.301L592.005 520.011V552.458H517.183V413.567C502.15 416.192 486.459 418.475 470.112 420.414C466.711 420.814 463.33 421.227 459.97 421.653C425.722 425.918 393.507 431.063 363.326 437.087C339.502 441.798 316.911 446.989 295.552 452.66V566.751H227.828V473.241C-67.0963 575.988 -101.402 773.903 -104.877 877.749C-104.963 880.458 -105 883.116 -105 885.805C-105 1080.08 -93.6264 1203 -93.6264 1203L1385.2 1198.14L1801.36 1200.14L2011.69 1201.14" fill="#FCFBFB"/>
<path d="M5159.73 1200.23H6554L6509.42 597.148C6508.84 595.009 6508.27 592.86 6507.69 590.721C6504.91 580.305 6501.93 569.923 6498.75 559.574C6498.08 557.415 6497.4 555.246 6496.73 553.087C6496.47 552.227 6496.2 551.388 6495.92 550.558C6493.46 542.881 6490.91 535.218 6488.27 527.568C6487.59 525.679 6486.94 523.779 6486.26 521.89C6485.46 519.701 6484.66 517.482 6483.86 515.323C6482.73 512.224 6481.56 509.132 6480.37 506.047V519.291L6392.13 519.001V551.508H6317.31V350.853H6247.47V335.86H6244.82V350.853H6169.12V335.86H6166.47V350.853H6113.02V335.86H6110.37V350.853H6095.64V565.762H6027.94V449.551H5887.3V361.059C5886.27 360.629 5885.25 360.239 5884.23 359.819H5864.51V359.769H5749.91V359.819H5749.81V375.313H5749.91V385.978H5749.81V401.482H5749.91V412.177H5749.81V427.67H5749.91V427.73H5749.74L5737.76 427.67V346.595H5720.51V335H5718.47V346.595H5623.95V335H5621.92V346.595H5609.17V356.871H5609.09V372.374H5609.17V385.978H5609.09V401.482H5609.17V412.177H5609.09V427.67H5609.17V437.556H5609.09V453.05H5609.17V462.955H5609.09V478.449H5609.17V487.775H5609.09V497.611H5609.17V498.68H5566.33V421.133H5559.99V498.68H5495.26V457.298H5491.17V498.68H5464.17V587.392H5409.95V609.743H5351.63V571.269H5246.56V466.724H5230.12V456.308H5227.75V466.724H5146.02V456.318H5143.66V466.724H5125.88V519.301L5037.64 519.011V551.458H4962.83V350.853H4943.25V335.86H4940.61V350.853H4892.99V335.86H4890.33V350.853H4814.64V335.86H4811.98V350.853H4758.53V335.86H4755.89V350.853H4741.1V565.762H4673.42V449.551H4589.62V361.059C4588.6 360.629 4587.58 360.239 4586.55 359.819H4566.84V359.769H4452.24V359.819H4452.14V375.313H4452.24V385.978H4452.14V401.482H4452.24V412.177H4452.14V427.67H4452.24V427.73L4440.09 427.67V346.595H4422.84V335H4420.81V346.595H4326.28V335H4324.22V346.595H4311.47V356.871H4311.41V372.374H4311.47V385.978H4311.41V401.482H4311.47V412.177H4311.41V427.67H4311.47V437.556H4311.41V453.05H4311.47V462.955H4311.41V478.449H4311.47V487.775H4311.41V497.611H4311.47V498.68H4268.65V421.133H4262.33V498.68H4197.59V457.298H4193.51V498.68H4166.51V587.392H4112.29V609.743H4053.97V571.269H3948.91V466.724H3932.48V456.308H3930.13V466.724H3848.36V456.318H3846.01V466.724H3828.25V519.301L3740 519.011V551.458H3665.18V412.567C3650.15 415.192 3634.46 417.475 3618.11 419.414C3614.71 419.814 3611.33 420.227 3607.97 420.653C3573.72 424.918 3541.51 430.063 3511.33 436.087C3487.5 440.798 3464.91 445.989 3443.55 451.66V565.751H3375.83V472.241C3080.9 574.988 3046.6 772.903 3043.12 876.749C3043.04 879.458 3043 882.116 3043 884.805C3043 1079.08 3054.37 1202 3054.37 1202L4533.2 1197.14L4949.36 1199.14L5159.69 1200.14" fill="#FCFBFB"/>
<path d="M8375.73 1198.23H9770L9725.42 595.148C9724.84 593.009 9724.27 590.86 9723.69 588.721C9720.91 578.305 9717.93 567.923 9714.75 557.574C9714.08 555.415 9713.4 553.246 9712.73 551.087C9712.47 550.227 9712.2 549.388 9711.92 548.558C9709.46 540.881 9706.91 533.218 9704.27 525.568C9703.59 523.679 9702.94 521.779 9702.26 519.89C9701.46 517.701 9700.66 515.482 9699.86 513.323C9698.73 510.224 9697.56 507.132 9696.37 504.047V517.291L9608.13 517.001V549.508H9533.31V348.853H9463.47V333.86H9460.82V348.853H9385.12V333.86H9382.47V348.853H9329.02V333.86H9326.37V348.853H9311.64V563.762H9243.94V447.551H9103.3V359.059C9102.27 358.629 9101.25 358.239 9100.23 357.819H9080.51V357.769H8965.91V357.819H8965.81V373.313H8965.91V383.978H8965.81V399.482H8965.91V410.177H8965.81V425.67H8965.91V425.73H8965.74L8953.76 425.67V344.595H8936.51V333H8934.47V344.595H8839.95V333H8837.92V344.595H8825.17V354.871H8825.09V370.374H8825.17V383.978H8825.09V399.482H8825.17V410.177H8825.09V425.67H8825.17V435.556H8825.09V451.05H8825.17V460.955H8825.09V476.449H8825.17V485.775H8825.09V495.611H8825.17V496.68H8782.33V419.133H8775.99V496.68H8711.26V455.298H8707.17V496.68H8680.17V585.392H8625.95V607.743H8567.63V569.269H8462.56V464.724H8446.12V454.308H8443.75V464.724H8362.02V454.318H8359.66V464.724H8341.88V517.301L8253.64 517.011V549.458H8178.83V348.853H8159.25V333.86H8156.61V348.853H8108.99V333.86H8106.33V348.853H8030.64V333.86H8027.98V348.853H7974.53V333.86H7971.89V348.853H7957.1V563.762H7889.42V447.551H7805.62V359.059C7804.6 358.629 7803.58 358.239 7802.55 357.819H7782.84V357.769H7668.24V357.819H7668.14V373.313H7668.24V383.978H7668.14V399.482H7668.24V410.177H7668.14V425.67H7668.24V425.73L7656.09 425.67V344.595H7638.84V333H7636.81V344.595H7542.28V333H7540.22V344.595H7527.47V354.871H7527.41V370.374H7527.47V383.978H7527.41V399.482H7527.47V410.177H7527.41V425.67H7527.47V435.556H7527.41V451.05H7527.47V460.955H7527.41V476.449H7527.47V485.775H7527.41V495.611H7527.47V496.68H7484.65V419.133H7478.33V496.68H7413.59V455.298H7409.51V496.68H7382.51V585.392H7328.29V607.743H7269.97V569.269H7164.91V464.724H7148.48V454.308H7146.13V464.724H7064.36V454.318H7062.01V464.724H7044.25V517.301L6956 517.011V549.458H6881.18V410.567C6866.15 413.192 6850.46 415.475 6834.11 417.414C6830.71 417.814 6827.33 418.227 6823.97 418.653C6789.72 422.918 6757.51 428.063 6727.33 434.087C6703.5 438.798 6680.91 443.989 6659.55 449.66V563.751H6591.83V470.241C6296.9 572.988 6262.6 770.903 6259.12 874.749C6259.04 877.458 6259 880.116 6259 882.805C6259 1077.08 6270.37 1200 6270.37 1200L7749.2 1195.14L8165.36 1197.14L8375.69 1198.14" fill="#FCFBFB"/>
<path opacity="0.46" d="M1189.52 63.3615C1189.52 63.3615 1212.09 26.0915 1266.06 30.2315C1266.06 30.2315 1344.4 -31.8784 1427.95 21.9516C1427.95 21.9516 1516.76 8.62156 1582.53 33.5016C1626.38 50.0916 1640.87 67.5016 1640.87 67.5016L1189.52 63.3615Z" fill="#F4F4F4"/>
<path opacity="0.46" d="M1672.3 168.241C1672.3 168.241 1686.93 142.892 1721.89 145.712C1721.89 145.712 1772.65 103.461 1826.79 140.081C1826.79 140.081 1884.33 131.011 1926.94 147.931C1955.36 159.221 1964.74 171.061 1964.74 171.061L1672.3 168.241Z" fill="#F4F4F4"/>
<path opacity="0.46" d="M1993.58 59.9518C1993.58 59.9518 2006.89 35.2918 2038.73 38.0318C2038.73 38.0318 2084.96 -3.06823 2134.25 32.5518C2134.25 32.5518 2186.66 23.7218 2225.46 40.1918C2251.34 51.1918 2259.88 62.6918 2259.88 62.6918L1993.58 59.9518Z" fill="#F4F4F4"/>
<path d="M374.52 619.967C376.005 614.375 376.751 608.613 376.74 602.827C376.74 575.887 361.14 554.047 341.89 554.047C339.103 554.052 336.337 554.515 333.7 555.417C330.57 482.507 298.7 425.197 259.7 425.197C222.62 425.197 191.9 477.197 186.35 545.117C158.77 563.857 139.86 602.197 139.86 646.467C139.743 666.343 143.758 686.025 151.65 704.267C126.05 720.037 109.75 743.817 109.75 770.427C109.75 817.917 161.66 856.427 225.75 856.427C273.68 856.427 314.82 834.857 332.48 804.097C337.451 805.274 342.542 805.868 347.65 805.867C391.23 805.867 426.56 762.977 426.56 710.067C426.52 668.617 404.82 633.327 374.52 619.967Z" fill="#ECEDEE"/>
<path d="M374.52 619.967C374.52 619.967 297.72 590.047 239.2 642.747C180.68 695.447 139.98 612.347 159.51 573.747C147.24 593.447 139.85 618.747 139.85 646.457C139.733 666.333 143.748 686.015 151.64 704.257C126.04 720.027 109.74 743.807 109.74 770.417C109.74 817.907 161.65 856.417 225.74 856.417C273.67 856.417 314.81 834.847 332.47 804.087C337.441 805.264 342.532 805.858 347.64 805.857C391.22 805.857 426.55 762.967 426.55 710.057C426.52 668.617 404.82 633.327 374.52 619.967Z" fill="#C6C6C8"/>
<path d="M284.25 1183.05C281.25 1183.05 278.78 1182.24 278.78 1179.22V586.807C278.78 585.356 279.356 583.965 280.382 582.939C281.408 581.913 282.799 581.337 284.25 581.337C285.701 581.337 287.092 581.913 288.118 582.939C289.144 583.965 289.72 585.356 289.72 586.807V1179.23C289.72 1182.25 287.27 1183.05 284.25 1183.05Z" fill="#606060"/>
<path d="M284.25 797.227C268.73 797.227 255.6 791.697 245.25 780.797C216.25 750.297 219.03 688.007 219.17 685.367C219.289 683.953 219.953 682.641 221.021 681.707C222.09 680.773 223.479 680.291 224.896 680.362C226.313 680.434 227.647 681.053 228.616 682.09C229.586 683.126 230.114 684.498 230.09 685.917V685.917C230.09 686.517 227.42 746.197 253.19 773.277C261.52 782.037 271.69 786.277 284.26 786.277C285.711 786.277 287.102 786.854 288.128 787.879C289.154 788.905 289.73 790.296 289.73 791.747C289.73 793.198 289.154 794.589 288.128 795.615C287.102 796.641 285.711 797.217 284.26 797.217L284.25 797.227Z" fill="#606060"/>
<path d="M285.01 921.258H283.91C282.462 921.169 281.108 920.508 280.147 919.422C279.186 918.335 278.696 916.911 278.785 915.463C278.874 914.015 279.534 912.661 280.621 911.7C281.708 910.739 283.132 910.249 284.58 910.338C286.67 910.468 288.75 909.578 290.95 907.608C297.7 901.608 310.52 880.248 320.49 805.608C326.26 762.428 328.24 722.158 328.26 721.758C328.267 721.022 328.423 720.296 328.718 719.622C329.013 718.948 329.44 718.34 329.975 717.836C330.51 717.331 331.141 716.939 331.831 716.684C332.521 716.429 333.255 716.315 333.99 716.35C334.725 716.385 335.445 716.568 336.107 716.887C336.769 717.207 337.361 717.657 337.845 718.21C338.33 718.764 338.698 719.409 338.927 720.108C339.156 720.807 339.242 721.545 339.18 722.278C339.18 722.688 337.18 763.418 331.34 807.058C327.9 832.788 323.82 854.518 319.22 871.648C313.17 894.128 306.31 908.568 298.22 915.798C294.15 919.398 289.7 921.258 285.01 921.258Z" fill="#606060"/>
<path d="M3640.44 936.857C3641.11 934.334 3641.44 931.735 3641.44 929.125C3641.44 916.973 3634.4 907.121 3625.72 907.121C3624.46 907.124 3623.21 907.333 3622.02 907.739C3620.61 874.851 3606.24 849 3588.64 849C3571.92 849 3558.06 872.456 3555.56 903.093C3543.12 911.547 3534.59 928.841 3534.59 948.81C3534.53 957.776 3536.34 966.654 3539.9 974.882C3528.36 981.996 3521 992.723 3521 1004.73C3521 1026.15 3544.42 1043.52 3573.33 1043.52C3594.95 1043.52 3613.51 1033.79 3621.47 1019.91C3623.72 1020.44 3626.01 1020.71 3628.32 1020.71C3647.97 1020.71 3663.91 1001.37 3663.91 977.499C3663.89 958.802 3654.1 942.883 3640.44 936.857Z" fill="#ECEDEE"/>
<path d="M3640.44 936.857C3640.44 936.857 3605.79 923.36 3579.4 947.132C3553 970.904 3534.64 933.419 3543.45 916.008C3537.92 924.894 3534.58 936.306 3534.58 948.806C3534.53 957.771 3536.34 966.65 3539.9 974.878C3528.35 981.992 3521 992.718 3521 1004.72C3521 1026.14 3544.42 1043.51 3573.33 1043.51C3594.95 1043.51 3613.5 1033.78 3621.47 1019.91C3623.71 1020.44 3626.01 1020.71 3628.31 1020.71C3647.97 1020.71 3663.91 1001.36 3663.91 977.494C3663.89 958.802 3654.1 942.883 3640.44 936.857Z" fill="#C6C6C8"/>
<path d="M3599.72 1190.85C3598.36 1190.85 3597.25 1190.48 3597.25 1189.12V921.899C3597.25 921.245 3597.51 920.617 3597.97 920.154C3598.44 919.692 3599.06 919.432 3599.72 919.432C3600.37 919.432 3601 919.692 3601.46 920.154C3601.93 920.617 3602.19 921.245 3602.19 921.899V1189.13C3602.19 1190.49 3601.08 1190.85 3599.72 1190.85Z" fill="#606060"/>
<path d="M3599.72 1016.82C3592.72 1016.82 3586.79 1014.32 3582.13 1009.4C3569.04 995.646 3570.3 967.548 3570.36 966.357C3570.42 965.72 3570.71 965.128 3571.2 964.706C3571.68 964.285 3572.31 964.068 3572.94 964.1C3573.58 964.132 3574.19 964.411 3574.62 964.879C3575.06 965.346 3575.3 965.965 3575.29 966.605V966.605C3575.29 966.876 3574.08 993.796 3585.71 1006.01C3589.46 1009.96 3594.05 1011.88 3599.72 1011.88C3600.38 1011.88 3601 1012.14 3601.47 1012.6C3601.93 1013.06 3602.19 1013.69 3602.19 1014.34C3602.19 1015 3601.93 1015.63 3601.47 1016.09C3601 1016.55 3600.38 1016.81 3599.72 1016.81L3599.72 1016.82Z" fill="#606060"/>
<path d="M3600.06 1072.76H3599.56C3598.91 1072.72 3598.3 1072.42 3597.87 1071.93C3597.43 1071.44 3597.21 1070.8 3597.25 1070.15C3597.29 1069.5 3597.59 1068.88 3598.08 1068.45C3598.57 1068.02 3599.21 1067.8 3599.87 1067.84C3600.81 1067.9 3601.75 1067.49 3602.74 1066.61C3605.78 1063.9 3611.57 1054.26 3616.06 1020.6C3618.67 1001.12 3619.56 982.953 3619.57 982.772C3619.57 982.44 3619.64 982.113 3619.78 981.809C3619.91 981.505 3620.1 981.231 3620.34 981.003C3620.58 980.775 3620.87 980.599 3621.18 980.483C3621.49 980.368 3621.82 980.317 3622.15 980.333C3622.49 980.349 3622.81 980.431 3623.11 980.575C3623.41 980.72 3623.67 980.922 3623.89 981.172C3624.11 981.422 3624.28 981.713 3624.38 982.028C3624.48 982.343 3624.52 982.676 3624.5 983.007C3624.5 983.192 3623.59 1001.56 3620.96 1021.25C3619.41 1032.86 3617.57 1042.66 3615.49 1050.38C3612.76 1060.52 3609.67 1067.04 3606.02 1070.3C3604.18 1071.92 3602.18 1072.76 3600.06 1072.76Z" fill="#606060"/>
<path d="M3938.53 679.724C3939.86 674.707 3940.53 669.538 3940.52 664.348C3940.52 640.181 3926.53 620.588 3909.26 620.588C3906.76 620.593 3904.27 621.008 3901.91 621.817C3899.1 556.411 3870.51 505 3835.53 505C3802.26 505 3774.7 551.648 3769.73 612.577C3744.98 629.389 3728.02 663.783 3728.02 703.496C3727.92 721.326 3731.52 738.983 3738.6 755.347C3715.63 769.494 3701.01 790.827 3701.01 814.698C3701.01 857.3 3747.58 891.847 3805.07 891.847C3848.07 891.847 3884.97 872.497 3900.82 844.903C3905.27 845.958 3909.84 846.491 3914.42 846.49C3953.52 846.49 3985.21 808.015 3985.21 760.55C3985.18 723.367 3965.71 691.709 3938.53 679.724Z" fill="#ECEDEE"/>
<path d="M3938.53 679.724C3938.53 679.724 3869.63 652.883 3817.14 700.159C3764.64 747.435 3728.13 672.888 3745.65 638.261C3734.64 655.933 3728.01 678.629 3728.01 703.487C3727.91 721.317 3731.51 738.974 3738.59 755.338C3715.62 769.485 3701 790.818 3701 814.689C3701 857.291 3747.57 891.838 3805.06 891.838C3848.06 891.838 3884.96 872.488 3900.81 844.894C3905.27 845.949 3909.83 846.482 3914.41 846.481C3953.51 846.481 3985.2 808.006 3985.2 760.541C3985.18 723.367 3965.71 691.709 3938.53 679.724Z" fill="#C6C6C8"/>
<path d="M3857.55 1184.85C3854.86 1184.85 3852.64 1184.12 3852.64 1181.41V649.977C3852.64 648.676 3853.16 647.428 3854.08 646.507C3855 645.587 3856.25 645.07 3857.55 645.07C3858.85 645.07 3860.1 645.587 3861.02 646.507C3861.94 647.428 3862.46 648.676 3862.46 649.977V1181.42C3862.46 1184.13 3860.26 1184.85 3857.55 1184.85Z" fill="#606060"/>
<path d="M3857.55 838.74C3843.63 838.74 3831.85 833.78 3822.56 824.001C3796.55 796.641 3799.04 740.762 3799.17 738.393C3799.27 737.125 3799.87 735.948 3800.83 735.11C3801.79 734.272 3803.03 733.84 3804.3 733.904C3805.58 733.968 3806.77 734.523 3807.64 735.453C3808.51 736.383 3808.98 737.614 3808.96 738.887V738.887C3808.96 739.425 3806.57 792.963 3829.69 817.255C3837.16 825.114 3846.28 828.917 3857.56 828.917C3858.86 828.917 3860.11 829.434 3861.03 830.355C3861.95 831.275 3862.47 832.523 3862.47 833.824C3862.47 835.126 3861.95 836.374 3861.03 837.294C3860.11 838.214 3858.86 838.732 3857.56 838.732L3857.55 838.74Z" fill="#606060"/>
<path d="M3858.23 950.005H3857.24C3855.94 949.926 3854.73 949.333 3853.87 948.358C3853.01 947.383 3852.57 946.106 3852.65 944.807C3852.73 943.508 3853.32 942.294 3854.29 941.431C3855.27 940.569 3856.55 940.13 3857.84 940.209C3859.72 940.326 3861.59 939.527 3863.56 937.76C3869.61 932.378 3881.12 913.216 3890.06 846.258C3895.24 807.523 3897.01 771.397 3897.03 771.038C3897.04 770.379 3897.18 769.727 3897.44 769.122C3897.7 768.518 3898.09 767.973 3898.57 767.52C3899.05 767.067 3899.61 766.716 3900.23 766.487C3900.85 766.258 3901.51 766.156 3902.17 766.187C3902.83 766.219 3903.47 766.383 3904.07 766.669C3904.66 766.956 3905.19 767.36 3905.63 767.856C3906.06 768.353 3906.39 768.932 3906.6 769.558C3906.8 770.185 3906.88 770.847 3906.83 771.505C3906.83 771.873 3905.03 808.411 3899.79 847.559C3896.71 870.641 3893.05 890.134 3888.92 905.501C3883.49 925.668 3877.34 938.621 3870.08 945.107C3866.43 948.337 3862.44 950.005 3858.23 950.005Z" fill="#606060"/>
<path d="M6883.78 627.967C6885.26 622.375 6886.01 616.613 6886 610.827C6886 583.887 6870.4 562.047 6851.15 562.047C6848.36 562.052 6845.6 562.515 6842.96 563.417C6839.83 490.507 6807.96 433.197 6768.96 433.197C6731.88 433.197 6701.16 485.197 6695.61 553.117C6668.03 571.857 6649.12 610.197 6649.12 654.467C6649 674.343 6653.02 694.025 6660.91 712.267C6635.31 728.037 6619.01 751.817 6619.01 778.427C6619.01 825.917 6670.92 864.427 6735.01 864.427C6782.94 864.427 6824.08 842.857 6841.74 812.097C6846.71 813.274 6851.8 813.868 6856.91 813.867C6900.49 813.867 6935.82 770.977 6935.82 718.067C6935.78 676.617 6914.08 641.327 6883.78 627.967Z" fill="#ECEDEE"/>
<path d="M6883.78 627.967C6883.78 627.967 6806.98 598.047 6748.46 650.747C6689.94 703.447 6649.24 620.347 6668.77 581.747C6656.5 601.447 6649.11 626.747 6649.11 654.457C6648.99 674.333 6653.01 694.015 6660.9 712.257C6635.3 728.027 6619 751.807 6619 778.417C6619 825.907 6670.91 864.417 6735 864.417C6782.93 864.417 6824.07 842.847 6841.73 812.087C6846.7 813.264 6851.79 813.858 6856.9 813.857C6900.48 813.857 6935.81 770.967 6935.81 718.057C6935.78 676.617 6914.08 641.327 6883.78 627.967Z" fill="#C6C6C8"/>
<path d="M6793.51 1191.05C6790.51 1191.05 6788.04 1190.24 6788.04 1187.22V594.807C6788.04 593.356 6788.62 591.965 6789.64 590.939C6790.67 589.913 6792.06 589.337 6793.51 589.337C6794.96 589.337 6796.35 589.913 6797.38 590.939C6798.4 591.965 6798.98 593.356 6798.98 594.807V1187.23C6798.98 1190.25 6796.53 1191.05 6793.51 1191.05Z" fill="#606060"/>
<path d="M6793.51 805.227C6777.99 805.227 6764.86 799.697 6754.51 788.797C6725.51 758.297 6728.29 696.007 6728.43 693.367C6728.55 691.953 6729.21 690.641 6730.28 689.707C6731.35 688.773 6732.74 688.291 6734.16 688.362C6735.57 688.434 6736.91 689.053 6737.88 690.09C6738.85 691.126 6739.37 692.498 6739.35 693.917V693.917C6739.35 694.517 6736.68 754.197 6762.45 781.277C6770.78 790.037 6780.95 794.277 6793.52 794.277C6794.97 794.277 6796.36 794.854 6797.39 795.879C6798.41 796.905 6798.99 798.296 6798.99 799.747C6798.99 801.198 6798.41 802.589 6797.39 803.615C6796.36 804.641 6794.97 805.217 6793.52 805.217L6793.51 805.227Z" fill="#606060"/>
<path d="M6794.27 929.258H6793.17C6791.72 929.169 6790.37 928.508 6789.41 927.422C6788.45 926.335 6787.96 924.911 6788.04 923.463C6788.13 922.015 6788.79 920.661 6789.88 919.7C6790.97 918.739 6792.39 918.249 6793.84 918.338C6795.93 918.468 6798.01 917.578 6800.21 915.608C6806.96 909.608 6819.78 888.248 6829.75 813.608C6835.52 770.428 6837.5 730.158 6837.52 729.758C6837.53 729.022 6837.68 728.296 6837.98 727.622C6838.27 726.948 6838.7 726.34 6839.24 725.836C6839.77 725.331 6840.4 724.939 6841.09 724.684C6841.78 724.429 6842.52 724.315 6843.25 724.35C6843.98 724.385 6844.7 724.568 6845.37 724.887C6846.03 725.207 6846.62 725.657 6847.11 726.21C6847.59 726.764 6847.96 727.409 6848.19 728.108C6848.42 728.807 6848.5 729.545 6848.44 730.278C6848.44 730.688 6846.44 771.418 6840.6 815.058C6837.16 840.788 6833.08 862.518 6828.48 879.648C6822.43 902.128 6815.57 916.568 6807.48 923.798C6803.41 927.398 6798.96 929.258 6794.27 929.258Z" fill="#606060"/>
<path d="M2334.64 115.318H2344.78L2344.69 114.528L2341.63 87.5277C2341.58 87.1087 2341.38 86.7224 2341.06 86.4422C2340.75 86.1619 2340.34 86.0073 2339.92 86.0077C2339.81 85.9974 2339.7 85.9974 2339.59 86.0077C2339.03 86.07 2338.51 86.3081 2338.09 86.6877C2337.59 87.1394 2337.28 87.7597 2337.22 88.4277L2334.64 115.318Z" fill="#7F7E7F"/>
<path d="M2343.8 109.198H2344.16L2341.63 87.5678C2341.58 87.1488 2341.38 86.7624 2341.06 86.4822C2340.75 86.2019 2340.34 86.0473 2339.92 86.0477C2339.81 86.0375 2339.7 86.0375 2339.59 86.0477L2339.32 86.2977C2338.87 86.7884 2338.61 87.4295 2338.6 88.0977L2338.46 103.658C2338.44 105.098 2338.99 106.488 2339.99 107.525C2340.99 108.563 2342.36 109.164 2343.8 109.198V109.198Z" fill="#999999"/>
<path d="M2358.88 958.138H2319.11L2324.93 940.548C2325.18 939.785 2325.67 939.122 2326.32 938.652C2326.97 938.182 2327.76 937.929 2328.56 937.928H2347.19C2348.18 937.929 2349.14 938.222 2349.96 938.77C2350.78 939.318 2351.42 940.097 2351.8 941.008L2358.88 958.138Z" fill="#999999"/>
<path d="M2347.73 235.228H2328.19V1095.42H2347.73V235.228Z" fill="#999999"/>
<path d="M2347.72 235.228H2338.7V1095.42H2347.72V235.228Z" fill="#DCDBDD"/>
<path d="M2369.09 958.147H2306.84V1185.75H2369.09V958.147Z" fill="#999999"/>
<path d="M2369.08 958.147H2331.98V1185.75H2369.08V958.147Z" fill="#DCDBDD"/>
<path d="M2303.94 128.298C2303.94 138.928 2319.94 147.538 2339.71 147.538C2341.22 147.538 2342.71 147.538 2344.16 147.388C2361.81 146.218 2375.48 138.118 2375.48 128.298C2375.48 118.478 2361.81 110.388 2344.16 109.208C2342.7 109.108 2341.22 109.058 2339.71 109.058C2319.95 109.048 2303.94 117.678 2303.94 128.298Z" fill="#999999"/>
<path d="M2306.91 252.187H2369.15L2391.1 146.857H2288.33L2306.91 252.187Z" fill="#999999"/>
<path d="M2396.65 138.928H2282.78V149.028H2396.65V138.928Z" fill="#999999"/>
<path d="M2322.23 127.378H2322.49C2323.11 119.208 2331.86 112.258 2344.16 109.208C2361.25 110.348 2374.61 117.978 2375.44 127.378H2381.24L2389.37 138.918H2396.65V149.048H2325.06V138.918H2314.52L2322.23 127.378Z" fill="#EFEFEF"/>
<path d="M2383.74 151.998H2295.97L2313.11 246.668H2363.52L2383.74 151.998Z" fill="#EFEFEF"/>
<path d="M2373.11 129.428C2373.11 129.428 2366.42 114.868 2353.22 115.318C2353.22 115.318 2361.63 122.768 2360.85 129.428C2360.07 136.088 2373.11 129.428 2373.11 129.428Z" fill="#E0E0E0"/>
<path d="M2290.05 138.928H2389.37L2381.24 127.378H2297.77L2290.05 138.928Z" fill="#999999"/>
<path d="M2377.92 155.298H2357.8L2351.94 243.708H2357.8L2377.92 155.298Z" fill="#E0E0E0"/>
<path d="M8843.9 123.318H8854.04L8853.95 122.528L8850.89 95.5277C8850.84 95.1087 8850.64 94.7224 8850.32 94.4422C8850.01 94.1619 8849.6 94.0073 8849.18 94.0077C8849.07 93.9974 8848.96 93.9974 8848.85 94.0077C8848.29 94.07 8847.77 94.3081 8847.35 94.6877C8846.85 95.1394 8846.54 95.7597 8846.48 96.4277L8843.9 123.318Z" fill="#7F7E7F"/>
<path d="M8853.06 117.198H8853.42L8850.89 95.5678C8850.84 95.1488 8850.64 94.7624 8850.32 94.4822C8850.01 94.2019 8849.6 94.0473 8849.18 94.0477C8849.07 94.0375 8848.96 94.0375 8848.85 94.0477L8848.58 94.2977C8848.13 94.7884 8847.87 95.4295 8847.86 96.0977L8847.72 111.658C8847.7 113.098 8848.25 114.488 8849.25 115.525C8850.25 116.563 8851.62 117.164 8853.06 117.198V117.198Z" fill="#999999"/>
<path d="M8868.14 966.138H8828.37L8834.19 948.548C8834.44 947.785 8834.93 947.122 8835.58 946.652C8836.23 946.182 8837.02 945.929 8837.82 945.928H8856.45C8857.44 945.929 8858.4 946.222 8859.22 946.77C8860.04 947.318 8860.68 948.097 8861.06 949.008L8868.14 966.138Z" fill="#999999"/>
<path d="M8856.99 243.228H8837.45V1103.42H8856.99V243.228Z" fill="#999999"/>
<path d="M8856.98 243.228H8847.96V1103.42H8856.98V243.228Z" fill="#DCDBDD"/>
<path d="M8878.35 966.147H8816.1V1193.75H8878.35V966.147Z" fill="#999999"/>
<path d="M8878.34 966.147H8841.24V1193.75H8878.34V966.147Z" fill="#DCDBDD"/>
<path d="M8813.2 136.298C8813.2 146.928 8829.2 155.538 8848.97 155.538C8850.48 155.538 8851.97 155.538 8853.42 155.388C8871.07 154.218 8884.74 146.118 8884.74 136.298C8884.74 126.478 8871.07 118.388 8853.42 117.208C8851.96 117.108 8850.48 117.058 8848.97 117.058C8829.21 117.048 8813.2 125.678 8813.2 136.298Z" fill="#999999"/>
<path d="M8816.17 260.187H8878.41L8900.36 154.857H8797.59L8816.17 260.187Z" fill="#999999"/>
<path d="M8905.91 146.928H8792.04V157.028H8905.91V146.928Z" fill="#999999"/>
<path d="M8831.49 135.378H8831.75C8832.37 127.208 8841.12 120.258 8853.42 117.208C8870.51 118.348 8883.87 125.978 8884.7 135.378H8890.5L8898.63 146.918H8905.91V157.048H8834.32V146.918H8823.78L8831.49 135.378Z" fill="#EFEFEF"/>
<path d="M8893 159.998H8805.23L8822.37 254.668H8872.78L8893 159.998Z" fill="#EFEFEF"/>
<path d="M8882.37 137.428C8882.37 137.428 8875.68 122.868 8862.48 123.318C8862.48 123.318 8870.89 130.768 8870.11 137.428C8869.33 144.088 8882.37 137.428 8882.37 137.428Z" fill="#E0E0E0"/>
<path d="M8799.31 146.928H8898.63L8890.5 135.378H8807.03L8799.31 146.928Z" fill="#999999"/>
<path d="M8887.18 163.298H8867.06L8861.2 251.708H8867.06L8887.18 163.298Z" fill="#E0E0E0"/>
</g>
<defs>
<clipPath id="clip0">
<rect width="9704" height="1176" fill="white"/>
</clipPath>
</defs>
</svg>
