<svg width="895" height="634" viewBox="0 0 895 634" fill="none" xmlns="http://www.w3.org/2000/svg">
<g clip-path="url(#clip0)">
<path d="M558 8H168V632H558V8Z" fill="#F4F4F4"/>
<path d="M219.13 481.1H184.5H180.06V430.84H219.13V481.1Z" stroke="#F9CACA" stroke-width="3" stroke-miterlimit="10"/>
<path d="M184.5 481.1L184.35 440.19H219.13V430.84H180.06V481.1H184.5Z" stroke="#F9CACA" stroke-width="3" stroke-miterlimit="10"/>
<path d="M198.31 449.2H184.66V453.39H198.31V449.2Z" stroke="#F9CACA" stroke-width="3" stroke-miterlimit="10"/>
<path d="M204.39 440.19H198.3V481.1H204.39V440.19Z" stroke="#F9CACA" stroke-width="3" stroke-miterlimit="10"/>
<path d="M219.13 481.1H184.5H180.06V430.84H219.13V481.1Z" fill="#CACACA"/>
<path d="M201.12 449.2H180.99V451.3H201.12V449.2Z" fill="#9B9B9B"/>
<path d="M205.39 432.13H201.12V481.1H205.39V432.13Z" fill="#9B9B9B"/>
<path d="M219.13 481.1H184.5H180.06V430.84H219.13V481.1Z" stroke="#7F7F7F" stroke-width="3" stroke-miterlimit="10"/>
<path d="M184.38 479.92L184.24 441.01H218.08V432.13H180.06V479.92H184.38Z" fill="#9B9B9B"/>
<path opacity="0.2" d="M218.08 479.92H184.38H180.06V432.13H218.08V479.92Z" fill="#CACACA"/>
<path opacity="0.41" d="M185.42 432.13H190.38L210.54 479.92H204.39L185.42 432.13Z" fill="#CACACA"/>
<path opacity="0.41" d="M201.12 432.13H206.38L218.08 463.21V470.11L201.12 432.13Z" fill="#CACACA"/>
<g opacity="0.6">
<path opacity="0.6" d="M63.1394 495.75C61.8471 493.358 61.3692 490.611 61.7778 487.923C62.1865 485.235 63.4596 482.754 65.4044 480.854C67.3492 478.955 69.8598 477.74 72.5564 477.395C75.253 477.05 77.9886 477.592 80.3494 478.94C80.4254 476.531 81.2177 474.198 82.6251 472.241C84.0324 470.284 85.991 468.791 88.2509 467.951C90.5108 467.112 92.9695 466.966 95.3132 467.53C97.6569 468.094 99.7792 469.344 101.409 471.12C102.314 469.117 103.863 467.474 105.809 466.453C107.756 465.433 109.988 465.093 112.15 465.489C114.312 465.885 116.28 466.993 117.738 468.637C119.197 470.281 120.064 472.366 120.199 474.56C121.078 474.157 122.033 473.949 122.999 473.95C124.238 473.957 125.451 474.301 126.508 474.946C127.565 475.591 128.427 476.512 128.999 477.61C131.209 476.133 133.827 475.388 136.484 475.481C139.14 475.573 141.7 476.499 143.801 478.127C145.902 479.755 147.438 482.002 148.192 484.551C148.945 487.1 148.878 489.822 147.999 492.33C150.202 493.099 152.12 494.516 153.501 496.396C154.882 498.275 155.662 500.529 155.738 502.86C155.813 505.191 155.182 507.491 153.925 509.456C152.669 511.421 150.847 512.96 148.699 513.87C149.602 515.381 150.075 517.11 150.069 518.87C150.07 519.621 149.983 520.37 149.809 521.1C150.637 520.871 151.491 520.754 152.349 520.75C154.832 520.75 157.213 521.736 158.968 523.492C160.723 525.247 161.709 527.628 161.709 530.11C161.709 532.593 160.723 534.973 158.968 536.729C157.213 538.484 154.832 539.47 152.349 539.47C151.536 539.469 150.726 539.365 149.939 539.16C149.794 539.756 149.579 540.334 149.299 540.88C154.919 543.6 158.749 548.97 158.749 555.15C158.749 564.08 150.749 571.31 140.909 571.31C136.544 571.342 132.302 569.858 128.909 567.11C128.265 568.498 127.321 569.725 126.145 570.704C124.97 571.683 123.591 572.39 122.11 572.772C120.629 573.155 119.081 573.204 117.578 572.917C116.075 572.629 114.655 572.012 113.419 571.11C112.797 572.477 111.763 573.614 110.462 574.364C109.161 575.114 107.658 575.438 106.164 575.292C104.67 575.145 103.258 574.535 102.128 573.547C100.998 572.559 100.204 571.242 99.8594 569.78H98.3694C89.784 569.78 81.3747 567.345 74.1177 562.757C66.8606 558.17 61.0534 551.619 57.37 543.864C53.6867 536.108 52.2783 527.468 53.3084 518.944C54.3384 510.421 57.7647 502.365 63.1894 495.71L63.1394 495.75Z" fill="#E4E4E4"/>
<path opacity="0.6" d="M99.3394 570.42H98.3394C89.6711 570.422 81.1788 567.974 73.841 563.36C66.5032 558.745 60.6187 552.151 56.8655 544.337C53.1123 536.523 51.6433 527.808 52.6277 519.196C53.6121 510.584 57.0098 502.425 62.4294 495.66C61.2101 493.214 60.7846 490.448 61.2122 487.749C61.6398 485.049 62.8991 482.55 64.8146 480.601C66.7301 478.651 69.2063 477.348 71.8978 476.873C74.5893 476.398 77.3621 476.774 79.8294 477.95C80.0805 475.588 80.9878 473.343 82.4484 471.469C83.9091 469.595 85.8649 468.168 88.0947 467.348C90.3244 466.528 92.7391 466.349 95.0656 466.83C97.3921 467.311 99.5376 468.433 101.259 470.07C102.326 468.158 103.965 466.629 105.947 465.699C107.928 464.768 110.152 464.482 112.304 464.882C114.457 465.282 116.429 466.347 117.944 467.927C119.459 469.507 120.44 471.523 120.749 473.69C121.482 473.45 122.248 473.328 123.019 473.33C124.263 473.331 125.486 473.644 126.577 474.242C127.667 474.84 128.59 475.702 129.259 476.75C131.555 475.397 134.206 474.766 136.865 474.939C139.525 475.112 142.071 476.081 144.172 477.721C146.273 479.36 147.833 481.594 148.647 484.132C149.462 486.67 149.494 489.394 148.739 491.95C150.913 492.833 152.785 494.326 154.13 496.249C155.475 498.171 156.235 500.441 156.32 502.786C156.404 505.131 155.809 507.45 154.606 509.464C153.403 511.479 151.644 513.103 149.539 514.14C150.282 515.595 150.669 517.206 150.669 518.84C150.668 519.319 150.631 519.797 150.559 520.27C151.144 520.167 151.736 520.114 152.329 520.11C153.745 520.08 155.151 520.351 156.454 520.905C157.757 521.459 158.928 522.284 159.889 523.324C160.849 524.364 161.578 525.597 162.027 526.94C162.475 528.283 162.633 529.706 162.491 531.115C162.348 532.524 161.908 533.887 161.199 535.113C160.49 536.339 159.529 537.4 158.38 538.227C157.23 539.053 155.918 539.627 154.53 539.908C153.142 540.19 151.71 540.173 150.329 539.86C150.249 540.1 150.159 540.34 150.059 540.57C152.791 541.91 155.101 543.977 156.734 546.544C158.368 549.11 159.263 552.078 159.319 555.12C159.319 564.37 151.039 571.89 140.869 571.89C136.62 571.914 132.479 570.556 129.069 568.02C128.121 569.742 126.728 571.177 125.036 572.178C123.344 573.179 121.415 573.708 119.449 573.71C117.377 573.713 115.347 573.123 113.599 572.01C112.841 573.333 111.712 574.405 110.352 575.094C108.992 575.783 107.46 576.06 105.944 575.89C104.429 575.72 102.996 575.111 101.823 574.137C100.649 573.163 99.7861 571.868 99.3394 570.41V570.42ZM113.729 570.64C114.896 571.486 116.235 572.064 117.652 572.33C119.068 572.597 120.526 572.546 121.92 572.182C123.314 571.817 124.61 571.148 125.715 570.223C126.82 569.298 127.706 568.139 128.309 566.83L128.639 566.12L129.249 566.62C132.537 569.276 136.643 570.711 140.869 570.68C150.369 570.68 158.099 563.68 158.099 555.13C158.099 549.39 154.609 544.13 148.989 541.41L148.419 541.14L148.719 540.58C148.975 540.074 149.173 539.541 149.309 538.99L149.459 538.39L150.059 538.55C150.794 538.741 151.55 538.839 152.309 538.84C154.63 538.84 156.856 537.918 158.497 536.277C160.137 534.636 161.059 532.411 161.059 530.09C161.059 527.769 160.137 525.544 158.497 523.903C156.856 522.262 154.63 521.34 152.309 521.34C151.508 521.34 150.71 521.451 149.939 521.67L148.939 521.95L149.179 520.95C149.339 520.265 149.419 519.564 149.419 518.86C149.426 517.219 148.983 515.608 148.139 514.2L147.779 513.59L148.419 513.32C150.452 512.456 152.176 510.997 153.364 509.136C154.553 507.274 155.151 505.097 155.08 502.889C155.008 500.681 154.271 498.547 152.964 496.766C151.658 494.985 149.844 493.641 147.759 492.91L147.189 492.71L147.379 492.14C148.197 489.764 148.252 487.191 147.536 484.782C146.819 482.374 145.367 480.249 143.384 478.706C141.4 477.163 138.983 476.279 136.472 476.178C133.961 476.076 131.481 476.762 129.379 478.14L128.819 478.51L128.499 477.91C127.977 476.902 127.188 476.056 126.218 475.465C125.249 474.874 124.135 474.561 122.999 474.56C122.119 474.561 121.249 474.752 120.449 475.12L119.639 475.48V474.6C119.519 472.536 118.709 470.573 117.34 469.024C115.97 467.476 114.121 466.432 112.088 466.059C110.054 465.687 107.955 466.008 106.126 466.971C104.296 467.934 102.843 469.483 101.999 471.37L101.619 472.21L100.999 471.53C99.4509 469.844 97.4351 468.657 95.2091 468.121C92.9832 467.585 90.6481 467.725 88.5019 468.522C86.3557 469.32 84.4958 470.738 83.1595 472.598C81.8232 474.457 81.0712 476.672 80.9994 478.96V479.96L80.1194 479.46C78.3104 478.424 76.2607 477.881 74.1759 477.887C72.0911 477.893 70.0445 478.447 68.2413 479.494C66.4382 480.54 64.9419 482.042 63.9025 483.849C62.8631 485.657 62.3171 487.705 62.3194 489.79C62.3198 491.765 62.8075 493.709 63.7394 495.45L63.9394 495.81L63.6794 496.12C58.3155 502.681 54.9229 510.629 53.8956 519.04C52.8683 527.452 54.2485 535.983 57.8758 543.642C61.5031 551.3 67.2287 557.773 74.3876 562.308C81.5465 566.843 89.8451 569.253 98.3194 569.26H99.7894H100.279L100.399 569.74C100.717 571.077 101.443 572.282 102.478 573.186C103.512 574.09 104.803 574.649 106.171 574.785C107.538 574.92 108.914 574.625 110.106 573.941C111.297 573.258 112.246 572.219 112.819 570.97L113.129 570.29L113.729 570.64Z" fill="#787878"/>
<path opacity="0.6" d="M62.0894 499.5C60.9331 497.357 60.5062 494.896 60.873 492.489C61.2398 490.082 62.3805 487.859 64.1226 486.158C65.8646 484.456 68.1133 483.369 70.5285 483.059C72.9438 482.749 75.3942 483.234 77.5094 484.44C77.5815 482.284 78.2934 480.199 79.5544 478.449C80.8155 476.699 82.5687 475.364 84.5909 474.613C86.6132 473.862 88.813 473.73 90.9105 474.234C93.0079 474.737 94.9082 475.854 96.3694 477.44C97.1808 475.645 98.5698 474.174 100.315 473.26C102.06 472.346 104.061 472.043 105.998 472.399C107.935 472.754 109.698 473.748 111.005 475.222C112.312 476.695 113.088 478.564 113.209 480.53C113.994 480.173 114.847 479.989 115.709 479.99C116.824 479.99 117.917 480.295 118.87 480.871C119.824 481.448 120.601 482.274 121.119 483.26C123.098 481.959 125.434 481.309 127.8 481.403C130.166 481.496 132.444 482.328 134.313 483.782C136.183 485.235 137.55 487.238 138.224 489.508C138.897 491.778 138.843 494.202 138.069 496.44C140.042 497.129 141.761 498.399 142.998 500.083C144.235 501.767 144.934 503.786 145.002 505.874C145.071 507.963 144.505 510.023 143.38 511.784C142.255 513.545 140.623 514.924 138.699 515.74C139.857 517.683 140.215 519.999 139.699 522.2C140.438 521.995 141.202 521.89 141.969 521.89C144.143 521.965 146.203 522.882 147.714 524.446C149.225 526.01 150.07 528.1 150.07 530.275C150.07 532.45 149.225 534.54 147.714 536.105C146.203 537.669 144.143 538.585 141.969 538.66C141.24 538.66 140.514 538.566 139.809 538.38C139.684 538.917 139.489 539.434 139.229 539.92C141.704 541.033 143.814 542.823 145.313 545.085C146.812 547.347 147.639 549.987 147.699 552.7C147.699 560.7 140.549 567.18 131.699 567.18C127.804 567.191 124.024 565.856 120.999 563.4C120.426 564.646 119.583 565.748 118.532 566.629C117.481 567.509 116.247 568.145 114.921 568.491C113.594 568.838 112.207 568.885 110.86 568.631C109.513 568.377 108.238 567.826 107.129 567.02C106.568 568.24 105.641 569.255 104.476 569.924C103.311 570.592 101.967 570.881 100.631 570.75C99.2943 570.619 98.0318 570.075 97.019 569.193C96.0061 568.311 95.2932 567.136 94.9794 565.83H93.6494C85.9584 565.831 78.4249 563.65 71.9234 559.542C65.4219 555.433 60.2191 549.564 56.9189 542.617C53.6187 535.67 52.3565 527.93 53.2788 520.295C54.2011 512.659 57.27 505.442 62.1294 499.48L62.0894 499.5Z" fill="white"/>
<path opacity="0.6" d="M106.2 479.14C106.055 476.424 105.028 473.829 103.276 471.748C101.524 469.668 99.141 468.215 96.489 467.611C93.837 467.006 91.0601 467.282 88.5791 468.397C86.0981 469.512 84.0481 471.405 82.7397 473.79C81.4131 471.79 79.5229 470.228 77.3083 469.303C75.0937 468.377 72.6544 468.129 70.299 468.591C67.9436 469.052 65.778 470.202 64.0764 471.895C62.3747 473.588 61.2135 475.747 60.7397 478.1C58.9231 476.86 56.7432 476.264 54.5482 476.408C52.3531 476.551 50.2696 477.426 48.6302 478.893C46.9908 480.36 45.8901 482.333 45.5039 484.499C45.1178 486.665 45.4684 488.897 46.4997 490.84C44.7762 491.06 43.2018 491.93 42.0979 493.272C40.9939 494.614 40.4438 496.326 40.5597 498.06C37.9188 497.977 35.318 498.722 33.1212 500.19C30.9244 501.658 29.2416 503.776 28.3082 506.248C27.3747 508.72 27.2375 511.422 27.9155 513.975C28.5936 516.529 30.0531 518.807 32.0897 520.49C30.606 522.291 29.7026 524.5 29.4987 526.824C29.2948 529.149 29.7999 531.481 30.9475 533.513C32.095 535.545 33.8312 537.182 35.9273 538.208C38.0234 539.234 40.381 539.601 42.6897 539.26C42.7009 541.026 43.1954 542.755 44.1197 544.26C44.5127 544.905 44.9791 545.503 45.5097 546.04C44.6828 546.26 43.8915 546.597 43.1597 547.04C42.0228 547.735 41.0472 548.664 40.2982 549.766C39.5492 550.868 39.0441 552.117 38.8167 553.43C38.5892 554.742 38.6447 556.089 38.9793 557.378C39.3139 558.668 39.92 559.871 40.757 560.908C41.594 561.944 42.6427 562.79 43.8329 563.389C45.0232 563.988 46.3275 564.326 47.6587 564.38C48.99 564.434 50.3174 564.203 51.5524 563.703C52.7873 563.203 53.9012 562.445 54.8197 561.48C55.257 561.915 55.7436 562.298 56.2697 562.62C52.8897 567.87 52.4197 574.45 55.6497 579.72C60.3097 587.26 70.8997 589.26 79.3097 584.15C83.0313 581.886 85.8572 578.407 87.3097 574.3C88.5825 575.149 90.0272 575.705 91.5403 575.929C93.0534 576.154 94.5974 576.041 96.0616 575.598C97.5259 575.156 98.8741 574.395 100.01 573.37C101.145 572.345 102.04 571.081 102.63 569.67C103.875 570.505 105.35 570.93 106.849 570.888C108.348 570.845 109.796 570.336 110.992 569.431C112.188 568.527 113.072 567.272 113.522 565.842C113.971 564.411 113.964 562.876 113.5 561.45C113.93 561.2 114.36 560.96 114.78 560.7C122.105 556.22 128.009 549.754 131.808 542.053C135.606 534.352 137.143 525.732 136.239 517.193C135.336 508.654 132.029 500.546 126.703 493.811C121.377 487.075 114.25 481.988 106.15 479.14H106.2Z" fill="#E4E4E4"/>
<path opacity="0.6" d="M110.78 570.36C109.604 571.072 108.263 571.463 106.89 571.497C105.516 571.53 104.158 571.204 102.95 570.55C102.288 571.892 101.359 573.086 100.219 574.057C99.0802 575.028 97.7548 575.756 96.3244 576.197C94.894 576.638 93.3886 576.782 91.9004 576.621C90.4123 576.46 88.9727 575.997 87.6697 575.26C86.096 579.195 83.2891 582.515 79.6697 584.72C70.9797 590.03 59.9897 587.93 55.1697 580.04C53.6288 577.417 52.8423 574.418 52.897 571.376C52.9517 568.334 53.8455 565.366 55.4797 562.8C55.2697 562.65 55.0697 562.5 54.8697 562.33C54.3849 562.782 53.8556 563.184 53.2897 563.53C51.0483 564.664 48.4624 564.912 46.0461 564.226C43.6298 563.541 41.5601 561.971 40.2484 559.829C38.9367 557.687 38.4791 555.129 38.9667 552.665C39.4542 550.201 40.8511 548.011 42.8797 546.53C43.3869 546.223 43.9187 545.959 44.4697 545.74C44.1673 545.369 43.89 544.978 43.6397 544.57C42.7862 543.18 42.2755 541.606 42.1497 539.98C39.8124 540.194 37.4629 539.728 35.3845 538.638C33.306 537.547 31.5872 535.879 30.4353 533.834C29.2833 531.789 28.7473 529.454 28.8918 527.112C29.0363 524.769 29.8551 522.518 31.2497 520.63C30.3054 519.78 29.4901 518.796 28.8297 517.71C27.6079 515.714 26.9355 513.43 26.8806 511.09C26.8257 508.75 27.3902 506.437 28.517 504.385C29.6438 502.333 31.2929 500.616 33.2971 499.407C35.3012 498.198 37.5894 497.54 39.9297 497.5C39.9418 496.248 40.2699 495.02 40.8836 493.929C41.4972 492.839 42.3764 491.92 43.4397 491.26C44.0944 490.855 44.8103 490.557 45.5597 490.38C44.69 488.371 44.4732 486.139 44.9399 484.001C45.4067 481.862 46.5334 479.923 48.161 478.459C49.7887 476.995 51.835 476.079 54.0112 475.841C56.1874 475.602 58.3836 476.053 60.2897 477.13C61.1607 473.975 63.203 471.271 65.9997 469.57C68.6788 467.917 71.8767 467.319 74.9721 467.892C78.0676 468.465 80.8396 470.168 82.7497 472.67C84.2363 470.377 86.4021 468.605 88.9445 467.602C91.487 466.599 94.2791 466.415 96.9311 467.076C99.5831 467.737 101.963 469.209 103.737 471.288C105.512 473.366 106.593 475.947 106.83 478.67C114.999 481.61 122.17 486.801 127.513 493.645C132.856 500.488 136.153 508.704 137.023 517.342C137.893 525.981 136.301 534.689 132.43 542.461C128.56 550.233 122.569 556.75 115.15 561.26L114.27 561.78C114.683 563.395 114.567 565.101 113.938 566.645C113.31 568.19 112.203 569.492 110.78 570.36ZM102.4 568.75L103.02 569.16C104.159 569.943 105.516 570.348 106.898 570.318C108.28 570.288 109.618 569.825 110.723 568.994C111.827 568.163 112.643 567.007 113.056 565.687C113.468 564.368 113.455 562.952 113.02 561.64L112.87 561.16L113.3 560.92L114.56 560.18C121.788 555.758 127.613 549.377 131.359 541.776C135.104 534.176 136.617 525.669 135.72 517.243C134.824 508.818 131.556 500.819 126.295 494.177C121.034 487.535 113.996 482.522 106 479.72L105.62 479.59V479.18C105.482 476.597 104.506 474.13 102.84 472.151C101.175 470.173 98.9099 468.791 96.3886 468.214C93.8672 467.638 91.2267 467.899 88.8668 468.957C86.507 470.015 84.5561 471.814 83.3097 474.08L82.8197 474.97L82.2597 474.12C81.0021 472.199 79.1996 470.697 77.083 469.807C74.9664 468.916 72.6322 468.678 70.3795 469.123C68.1268 469.568 66.0582 470.675 64.4388 472.303C62.8193 473.931 61.7228 476.005 61.2897 478.26L61.1197 479.17L60.3497 478.65C58.6484 477.503 56.6133 476.955 54.5659 477.094C52.5186 477.232 50.5758 478.049 49.0446 479.415C47.5134 480.781 46.481 482.619 46.1107 484.637C45.7404 486.655 46.0532 488.739 46.9997 490.56L47.4197 491.34L46.5397 491.45C44.9689 491.646 43.5327 492.436 42.5265 493.658C41.5202 494.88 41.0204 496.441 41.1297 498.02V498.69H40.4597C38.2853 498.619 36.1321 499.137 34.2286 500.191C32.3251 501.244 30.7423 502.793 29.6482 504.674C28.5542 506.554 27.9897 508.696 28.0146 510.871C28.0395 513.047 28.6529 515.175 29.7897 517.03C30.4914 518.165 31.3729 519.178 32.3997 520.03L32.8697 520.41L32.4797 520.88C31.1088 522.6 30.2852 524.692 30.1153 526.885C29.9454 529.079 30.4369 531.272 31.5265 533.183C32.616 535.094 34.2535 536.635 36.2274 537.606C38.2013 538.577 40.421 538.933 42.5997 538.63L43.2997 538.53V539.23C43.3105 540.872 43.7704 542.48 44.6297 543.88C45.0021 544.479 45.4379 545.035 45.9297 545.54L46.6597 546.27L45.6597 546.55C44.8831 546.779 44.1426 547.115 43.4597 547.55C42.4794 548.149 41.6267 548.936 40.9505 549.865C40.2742 550.794 39.7875 551.847 39.5182 552.964C39.2489 554.082 39.2023 555.241 39.381 556.376C39.5597 557.511 39.9602 558.6 40.5597 559.58C41.1592 560.56 41.9459 561.413 42.8749 562.089C43.8039 562.766 44.857 563.252 45.9741 563.522C47.0912 563.791 48.2504 563.837 49.3855 563.659C50.5206 563.48 51.6094 563.079 52.5897 562.48C53.2378 562.08 53.8326 561.6 54.3597 561.05L54.7897 560.6L55.2297 561.04C55.6307 561.426 56.0773 561.762 56.5597 562.04L57.0997 562.37L56.7597 562.9C53.3897 568.15 53.1497 574.46 56.1497 579.36C60.6197 586.67 70.8597 588.59 78.9697 583.63C82.5911 581.451 85.3442 578.083 86.7597 574.1L87.0197 573.35L87.6697 573.79C89.2202 574.821 91.0326 575.388 92.8941 575.425C94.7557 575.463 96.5892 574.968 98.1797 574C99.9375 572.933 101.308 571.332 102.09 569.43L102.4 568.75Z" fill="#787878"/>
<path opacity="0.6" d="M113.09 481.64C113.007 479.849 112.47 478.107 111.53 476.58C110.777 475.363 109.791 474.307 108.628 473.472C107.466 472.637 106.15 472.04 104.757 471.715C103.363 471.39 101.919 471.343 100.507 471.577C99.0953 471.812 97.7437 472.322 96.5298 473.08C94.9128 474.06 93.5736 475.437 92.6398 477.08C91.4601 475.35 89.7969 474.005 87.8577 473.214C85.9185 472.423 83.7894 472.221 81.736 472.633C79.6826 473.045 77.796 474.052 76.3117 475.53C74.8273 477.007 73.8111 478.889 73.3897 480.94C71.799 479.883 69.9028 479.383 67.9975 479.517C66.0922 479.652 64.2853 480.414 62.8592 481.685C61.4331 482.956 60.4683 484.663 60.1156 486.54C59.7629 488.417 60.0422 490.359 60.9098 492.06C60.0744 492.172 59.271 492.454 58.5498 492.89C57.6253 493.456 56.8713 494.261 56.3677 495.221C55.8641 496.18 55.6299 497.258 55.6898 498.34C53.5312 498.286 51.4029 498.856 49.5597 499.98C48.3192 500.725 47.2379 501.708 46.3777 502.872C45.5175 504.036 44.8955 505.358 44.5471 506.762C44.1987 508.167 44.131 509.626 44.3476 511.057C44.5643 512.488 45.0612 513.862 45.8098 515.1C46.4406 516.134 47.2419 517.054 48.1798 517.82C46.8742 519.368 46.0743 521.279 45.8874 523.295C45.7006 525.311 46.136 527.337 47.1349 529.098C48.1338 530.859 49.6483 532.273 51.4745 533.147C53.3008 534.022 55.3512 534.316 57.3497 533.99C57.3569 535.505 57.7788 536.989 58.5697 538.28C58.9051 538.838 59.3081 539.352 59.7697 539.81C58.5714 540.142 57.4659 540.746 56.5395 541.576C55.6132 542.405 54.8911 543.438 54.4296 544.593C53.9681 545.747 53.7797 546.993 53.879 548.232C53.9783 549.472 54.3628 550.672 55.0023 551.738C55.6419 552.805 56.5192 553.709 57.5658 554.38C58.6124 555.052 59.8001 555.472 61.036 555.609C62.272 555.745 63.5228 555.595 64.6908 555.168C65.8589 554.742 66.9126 554.051 67.7697 553.15C68.1451 553.536 68.5686 553.872 69.0297 554.15C66.0297 558.72 65.6097 564.42 68.3897 568.97C72.3897 575.54 81.6297 577.21 88.9897 572.71C92.2625 570.745 94.7618 567.717 96.0698 564.13C97.1885 564.855 98.4522 565.327 99.7724 565.512C101.093 565.696 102.437 565.59 103.712 565.201C104.987 564.811 106.161 564.147 107.152 563.256C108.143 562.364 108.928 561.267 109.45 560.04C110.456 560.698 111.628 561.057 112.83 561.074C114.032 561.092 115.215 560.768 116.24 560.14C118.78 558.58 125.17 556.71 124.31 554.03C124.69 553.81 125.7 552.58 126.07 552.36C144.79 540.9 144.85 516.5 133.57 498.05C128.864 490.361 121.62 484.557 113.09 481.64Z" fill="white"/>
<path opacity="0.6" d="M98.2701 549.87C98.8801 558.2 99.2001 572.87 99.3801 576.98C101.44 570.67 106.7 566.19 112.5 559.98C112.814 559.64 113.197 559.372 113.623 559.193C114.05 559.013 114.51 558.928 114.972 558.941C115.434 558.954 115.888 559.066 116.304 559.27C116.719 559.473 117.086 559.763 117.38 560.12C118.16 561.12 118.38 561.94 118.02 562.43C117.39 563.26 107.61 571.58 106.53 573.56C104.09 576.4 99.7001 581.66 99.3401 585.98C98.4901 596.39 100.34 619.48 99.8901 629.98H91.5801C91.4801 627.19 91.6801 613.5 91.7301 612.16C91.9101 607.79 94.5601 584.48 90.4701 571.9C88.2701 565.11 83.9001 555.34 83.8701 547.8C86.6701 552.8 87.6901 559.03 90.1001 564.36C92.1601 568.91 95.4101 573.88 96.3401 578.78C96.6901 574.78 94.6901 556.08 93.9001 550.35C93.8557 550.028 93.8838 549.7 93.9824 549.39C94.081 549.081 94.2477 548.797 94.4701 548.56C94.7603 548.249 95.1344 548.029 95.5471 547.926C95.9598 547.823 96.3934 547.842 96.7954 547.981C97.1975 548.12 97.5508 548.372 97.8125 548.707C98.0742 549.042 98.2332 549.446 98.2701 549.87Z" fill="#A0A0A0"/>
<path opacity="0.6" d="M91.17 629.97C91.07 627.15 91.27 613.44 91.32 612.12C91.32 611.47 91.43 610.38 91.54 609.01C92.14 601.12 93.54 582.64 90.08 572.01C89.56 570.41 88.93 568.65 88.25 566.78C86.02 560.61 83.49 553.62 83.46 547.78V546.2L84.23 547.59C85.7406 550.563 86.9531 553.678 87.85 556.89C88.5823 559.365 89.4571 561.796 90.47 564.17C91.08 565.52 91.78 566.88 92.53 568.32C93.834 570.705 94.9701 573.177 95.93 575.72C95.65 568.96 94.13 554.93 93.5 550.39C93.4394 550.038 93.4517 549.678 93.536 549.331C93.6204 548.984 93.7749 548.658 93.9902 548.374C94.2054 548.089 94.4768 547.851 94.7875 547.676C95.0982 547.5 95.4417 547.39 95.7966 547.352C96.1515 547.315 96.5104 547.35 96.8511 547.457C97.1918 547.563 97.507 547.738 97.7772 547.972C98.0475 548.205 98.267 548.491 98.4223 548.812C98.5776 549.134 98.6653 549.484 98.68 549.84C99.11 555.73 99.4 564.94 99.59 571.04C99.59 572.56 99.68 573.9 99.71 575.04C101.65 570.69 105.11 567.12 109.05 563.04C110.05 562.04 111.13 560.89 112.21 559.74C112.57 559.354 113.01 559.05 113.498 558.848C113.986 558.646 114.512 558.551 115.04 558.57C115.552 558.59 116.055 558.719 116.513 558.949C116.972 559.178 117.376 559.502 117.7 559.9C118.6 561.03 118.84 562.05 118.35 562.71C118.12 563.01 117.1 563.94 115.17 565.71C112.17 568.45 107.57 572.58 106.89 573.82V573.9C104.89 576.24 100.16 581.74 99.79 586.09C99.32 591.85 99.67 601.5 100 610.82C100.27 618.31 100.53 625.38 100.35 630.05V630.44H91.26L91.17 629.97ZM99.17 610.78C98.83 601.43 98.49 591.78 98.96 585.95C99.35 581.36 104.15 575.75 106.23 573.33C107.03 571.92 111.43 567.95 114.65 565.04C116.13 563.7 117.53 562.44 117.72 562.18C117.91 561.92 117.72 561.18 117.09 560.37C116.84 560.067 116.527 559.82 116.174 559.648C115.82 559.475 115.433 559.38 115.04 559.37C114.628 559.354 114.217 559.427 113.836 559.584C113.454 559.741 113.111 559.979 112.83 560.28C111.75 561.44 110.69 562.53 109.66 563.59C105.25 568.15 101.44 572.08 99.8 577.12L99.11 579.25L99.01 577.02C98.95 575.82 98.89 573.73 98.8 571.09C98.61 564.99 98.33 555.79 97.9 549.92H98.3H97.9C97.8756 549.57 97.7491 549.235 97.536 548.957C97.3229 548.678 97.0328 548.469 96.7015 548.354C96.3702 548.238 96.0125 548.223 95.6726 548.31C95.3328 548.396 95.0259 548.581 94.79 548.84C94.6113 549.035 94.4775 549.267 94.398 549.519C94.3186 549.771 94.2953 550.038 94.33 550.3C95.11 555.92 97.13 574.78 96.77 578.81L96.52 581.74L95.97 578.85C95.33 575.48 93.55 572.04 91.84 568.72C91.09 567.26 90.38 565.89 89.76 564.52C88.7315 562.122 87.8466 559.664 87.11 557.16C86.3641 554.616 85.459 552.121 84.4 549.69C84.87 554.98 87.08 561.08 89.05 566.52C89.73 568.4 90.37 570.17 90.89 571.78C94.4 582.56 92.98 601.15 92.38 609.09C92.27 610.45 92.19 611.53 92.17 612.17C92.17 613.44 91.93 626.06 92.01 629.57H99.53C99.65 624.92 99.4 618.05 99.14 610.78H99.17Z" fill="#585859"/>
<g opacity="0.33">
<path opacity="0.33" d="M76.76 486.76C78.1631 486.76 79.534 487.181 80.6948 487.969C81.8557 488.757 82.7529 489.876 83.27 491.18C85.267 489.787 87.645 489.043 90.08 489.05C96.31 489.05 101.36 493.73 101.36 499.51C101.354 501.652 100.652 503.733 99.36 505.44C101.031 506.51 102.351 508.047 103.157 509.86C103.962 511.673 104.217 513.683 103.891 515.64C103.564 517.597 102.67 519.415 101.319 520.869C99.968 522.322 98.2202 523.347 96.2922 523.815C94.3643 524.284 92.3411 524.176 90.4738 523.506C88.6066 522.835 86.9774 521.63 85.7886 520.042C84.5998 518.453 83.9036 516.551 83.7865 514.57C83.6694 512.589 84.1366 510.618 85.13 508.9C83.4334 508.171 81.9588 507.009 80.8546 505.529C79.7504 504.049 79.0555 502.304 78.84 500.47C78.164 500.684 77.459 500.792 76.75 500.79C74.8935 500.79 73.113 500.053 71.8003 498.74C70.4875 497.427 69.75 495.647 69.75 493.79C69.75 491.934 70.4875 490.153 71.8003 488.841C73.113 487.528 74.8935 486.79 76.75 486.79L76.76 486.76Z" fill="#E4E4E4"/>
</g>
<path opacity="0.6" d="M128.53 561.74L111.86 549.74L111.33 552.23C111.33 552.23 110.53 557.23 116.01 561.41C121.49 565.59 126.62 563.4 128.53 561.74Z" fill="white"/>
<path opacity="0.6" d="M122.52 564.38C124.494 564.377 126.431 563.845 128.13 562.84C128.208 562.801 128.276 562.746 128.331 562.678C128.386 562.611 128.425 562.532 128.447 562.448C128.469 562.364 128.473 562.276 128.458 562.191C128.443 562.105 128.41 562.024 128.361 561.952C128.312 561.88 128.249 561.819 128.174 561.774C128.1 561.729 128.017 561.7 127.931 561.689C127.845 561.679 127.757 561.687 127.674 561.713C127.591 561.739 127.515 561.782 127.45 561.84C125.909 562.77 124.133 563.238 122.334 563.188C120.535 563.139 118.788 562.574 117.3 561.56C113 558.75 111.3 555.13 112.14 550.78C112.17 550.621 112.136 550.457 112.046 550.323C111.957 550.188 111.818 550.094 111.66 550.06C111.581 550.044 111.5 550.044 111.421 550.059C111.342 550.075 111.267 550.106 111.2 550.15C111.133 550.195 111.076 550.252 111.031 550.319C110.987 550.386 110.956 550.461 110.94 550.54C109.94 555.43 111.87 559.48 116.63 562.54C118.368 563.723 120.418 564.364 122.52 564.38Z" fill="#585859"/>
<path opacity="0.6" d="M112 549.32C112.386 549.32 112.7 549.007 112.7 548.62C112.7 548.233 112.386 547.92 112 547.92C111.613 547.92 111.3 548.233 111.3 548.62C111.3 549.007 111.613 549.32 112 549.32Z" fill="#585859"/>
<path opacity="0.6" d="M104.18 535.56L108.17 539.47L108.92 541.61L108.04 544.98L106.17 546.59L103.26 546.78L100.75 546.34L100.28 547.52L98.64 549.92L97.06 550.65L94.62 550.41L92.62 548.74L91.75 546.45L103.15 534.39L104.18 535.56Z" fill="white"/>
<path opacity="0.6" d="M95.9998 551.26C96.2262 551.275 96.4533 551.275 96.6798 551.26C97.782 551.142 98.81 550.648 99.5911 549.861C100.372 549.074 100.859 548.043 100.97 546.94L101.5 547.07C102.76 547.39 105.1 547.99 106.97 546.88C107.571 546.477 108.084 545.958 108.481 545.354C108.878 544.749 109.15 544.071 109.28 543.36C109.95 540.67 108.82 538.53 105.38 536.01C105.316 535.962 105.243 535.927 105.165 535.907C105.087 535.887 105.007 535.883 104.927 535.896C104.848 535.908 104.772 535.936 104.704 535.978C104.636 536.02 104.576 536.075 104.53 536.14C104.435 536.27 104.395 536.432 104.42 536.592C104.444 536.751 104.53 536.894 104.66 536.99C107.66 539.2 108.66 540.91 108.09 543.07C107.996 543.623 107.793 544.152 107.492 544.626C107.192 545.1 106.8 545.509 106.34 545.83C104.91 546.68 102.97 546.19 101.8 545.89C101.53 545.82 101.3 545.76 101.11 545.73C100.959 545.7 100.805 545.702 100.655 545.735C100.505 545.767 100.364 545.83 100.24 545.92C99.9859 546.107 99.8168 546.388 99.7698 546.7C99.7091 547.548 99.3525 548.348 98.7622 548.961C98.1719 549.573 97.3853 549.958 96.5398 550.05C95.6429 550.154 94.739 549.924 94.0011 549.404C93.2631 548.884 92.7428 548.11 92.5398 547.23C92.4995 547.073 92.3996 546.938 92.2614 546.854C92.1231 546.77 91.9574 546.744 91.7998 546.78C91.7219 546.798 91.6482 546.831 91.5832 546.877C91.5183 546.923 91.4632 546.982 91.4213 547.05C91.3794 547.118 91.3514 547.194 91.3392 547.273C91.3269 547.352 91.3305 547.432 91.3498 547.51C91.5952 548.564 92.1862 549.506 93.0289 550.186C93.8716 550.865 94.9173 551.243 95.9998 551.26Z" fill="#585859"/>
<path opacity="0.6" d="M103.37 535.91C103.751 535.91 104.06 535.601 104.06 535.22C104.06 534.839 103.751 534.53 103.37 534.53C102.989 534.53 102.68 534.839 102.68 535.22C102.68 535.601 102.989 535.91 103.37 535.91Z" fill="#585859"/>
<path opacity="0.6" d="M104.05 514.59C104.211 514.59 104.366 514.526 104.481 514.411C104.595 514.297 104.66 514.142 104.66 513.98C104.663 512.282 104.264 510.608 103.493 509.096C102.723 507.583 101.605 506.275 100.23 505.28C101.365 503.569 101.974 501.563 101.98 499.51C101.98 493.4 96.6395 488.43 90.0795 488.43C87.5173 488.42 85.0153 489.206 82.9195 490.68C82.7869 490.773 82.6966 490.914 82.6685 491.074C82.6403 491.233 82.6767 491.397 82.7695 491.53C82.8623 491.662 83.004 491.753 83.1634 491.781C83.3228 491.809 83.4869 491.773 83.6195 491.68C85.515 490.363 87.7714 489.664 90.0795 489.68C95.9695 489.68 100.75 494.1 100.75 499.53C100.748 501.537 100.092 503.489 98.8795 505.09L98.4895 505.62L99.0395 505.97C100.386 506.826 101.495 508.008 102.264 509.407C103.033 510.805 103.437 512.374 103.44 513.97C103.439 514.133 103.503 514.289 103.618 514.405C103.732 514.521 103.887 514.587 104.05 514.59Z" fill="#6F6F70"/>
<path opacity="0.6" d="M103.59 517.87C104.07 517.87 104.46 517.48 104.46 517C104.46 516.519 104.07 516.13 103.59 516.13C103.109 516.13 102.72 516.519 102.72 517C102.72 517.48 103.109 517.87 103.59 517.87Z" fill="#6F6F70"/>
</g>
<g opacity="0.49">
<path opacity="0.49" d="M672.15 409.67C670.058 405.756 669.297 401.267 669.985 396.882C670.672 392.497 672.768 388.456 675.958 385.37C679.147 382.283 683.255 380.32 687.66 379.777C692.065 379.234 696.526 380.141 700.37 382.36C700.508 378.427 701.815 374.625 704.124 371.439C706.434 368.253 709.641 365.828 713.335 364.473C717.03 363.119 721.044 362.896 724.866 363.834C728.688 364.772 732.143 366.829 734.79 369.74C736.278 366.473 738.818 363.798 742.004 362.144C745.19 360.489 748.838 359.95 752.367 360.612C755.895 361.274 759.1 363.099 761.47 365.796C763.84 368.493 765.237 371.906 765.44 375.49C768.023 374.328 770.953 374.199 773.629 375.128C776.305 376.058 778.524 377.976 779.83 380.49C783.446 378.135 787.707 376.971 792.018 377.16C796.329 377.35 800.472 378.883 803.867 381.546C807.263 384.209 809.739 387.868 810.95 392.009C812.161 396.151 812.046 400.567 810.62 404.64C814.209 405.911 817.329 408.238 819.57 411.316C821.811 414.393 823.069 418.077 823.177 421.882C823.285 425.688 822.239 429.437 820.176 432.637C818.113 435.837 815.131 438.337 811.62 439.81C813.077 442.271 813.84 445.08 813.83 447.94C813.822 449.169 813.675 450.394 813.39 451.59C815.495 451.004 817.702 450.876 819.861 451.216C822.02 451.555 824.08 452.354 825.904 453.558C827.728 454.761 829.273 456.342 830.434 458.194C831.595 460.046 832.345 462.125 832.633 464.291C832.922 466.457 832.743 468.66 832.108 470.751C831.473 472.842 830.397 474.773 828.952 476.412C827.507 478.052 825.727 479.363 823.733 480.256C821.738 481.149 819.575 481.604 817.39 481.59C816.063 481.583 814.742 481.405 813.46 481.06C813.219 482.037 812.86 482.98 812.39 483.87C821.56 488.35 827.77 497.13 827.73 507.22C827.67 521.79 814.57 533.55 798.49 533.48C791.353 533.485 784.435 531.01 778.92 526.48C777.862 528.742 776.317 530.742 774.395 532.336C772.473 533.93 770.221 535.079 767.802 535.699C765.384 536.32 762.857 536.397 760.405 535.925C757.953 535.453 755.636 534.444 753.62 532.97C752.589 535.193 750.89 537.039 748.76 538.25C746.629 539.461 744.174 539.977 741.737 539.726C739.299 539.475 737.001 538.469 735.162 536.849C733.324 535.23 732.036 533.076 731.48 530.69C730.68 530.69 729.87 530.69 729.06 530.69C715.046 530.631 701.336 526.598 689.521 519.059C677.707 511.521 668.273 500.786 662.315 488.102C656.356 475.417 654.117 461.303 655.858 447.397C657.599 433.491 663.248 420.364 672.15 409.54V409.67Z" fill="#E4E4E4"/>
<path opacity="0.49" d="M730.72 531.8C730.17 531.8 729.61 531.8 729.05 531.8C714.907 531.734 701.071 527.674 689.134 520.088C677.198 512.503 667.646 501.7 661.58 488.924C655.514 476.148 653.18 461.919 654.846 447.874C656.513 433.83 662.112 420.542 671 409.54C669.022 405.54 668.343 401.021 669.058 396.616C669.772 392.211 671.845 388.139 674.986 384.97C678.128 381.8 682.18 379.69 686.579 378.935C690.977 378.181 695.501 378.819 699.52 380.76C699.955 376.915 701.456 373.268 703.852 370.229C706.247 367.19 709.444 364.88 713.081 363.56C716.719 362.239 720.652 361.959 724.44 362.753C728.227 363.546 731.718 365.381 734.52 368.05C736.269 364.937 738.95 362.452 742.186 360.943C745.423 359.435 749.051 358.98 752.559 359.643C756.068 360.305 759.28 362.052 761.743 364.637C764.206 367.221 765.797 370.514 766.29 374.05C767.489 373.669 768.741 373.48 770 373.49C772.03 373.493 774.027 374.008 775.805 374.989C777.583 375.97 779.084 377.384 780.17 379.1C783.93 376.893 788.269 375.873 792.619 376.172C796.969 376.472 801.127 378.077 804.55 380.778C807.973 383.479 810.501 387.15 811.803 391.311C813.105 395.472 813.122 399.93 811.85 404.1C815.391 405.556 818.437 408.006 820.619 411.153C822.801 414.3 824.026 418.01 824.148 421.838C824.269 425.666 823.281 429.447 821.304 432.726C819.326 436.005 816.442 438.642 813 440.32C814.195 442.7 814.815 445.327 814.81 447.99C814.799 448.773 814.739 449.555 814.63 450.33C816.853 449.944 819.132 450.025 821.322 450.567C823.512 451.109 825.565 452.1 827.352 453.478C829.138 454.856 830.618 456.591 831.698 458.572C832.778 460.553 833.435 462.737 833.625 464.985C833.816 467.233 833.537 469.496 832.806 471.631C832.075 473.765 830.908 475.725 829.38 477.384C827.851 479.043 825.994 480.367 823.926 481.27C821.859 482.173 819.626 482.636 817.37 482.63C816.288 482.622 815.209 482.508 814.15 482.29C814.021 482.688 813.87 483.078 813.7 483.46C823.03 488.39 828.76 497.46 828.7 507.26C828.63 522.36 815.06 534.59 798.45 534.51C791.516 534.517 784.767 532.271 779.22 528.11C777.655 530.906 775.372 533.234 772.607 534.853C769.841 536.473 766.694 537.324 763.49 537.32C760.108 537.315 756.798 536.343 753.95 534.52C752.699 536.67 750.848 538.408 748.624 539.52C746.399 540.633 743.899 541.071 741.428 540.783C738.958 540.494 736.626 539.49 734.718 537.894C732.811 536.298 731.411 534.18 730.69 531.8H730.72ZM754.21 532.26C756.106 533.644 758.286 534.591 760.591 535.034C762.897 535.476 765.272 535.402 767.546 534.818C769.82 534.234 771.937 533.154 773.744 531.656C775.552 530.157 777.005 528.277 778 526.15L778.54 524.98L779.54 525.8C784.883 530.162 791.572 532.537 798.47 532.52C814 532.59 826.67 521.26 826.73 507.26C826.73 497.88 821.11 489.26 811.96 484.8L811.03 484.35L811.51 483.44C811.952 482.626 812.288 481.759 812.51 480.86L812.76 479.86L813.76 480.13C815.72 480.657 817.77 480.76 819.773 480.433C821.776 480.105 823.686 479.354 825.376 478.23C827.066 477.106 828.497 475.634 829.574 473.913C830.65 472.193 831.348 470.262 831.619 468.251C831.891 466.239 831.73 464.193 831.149 462.248C830.567 460.304 829.578 458.505 828.246 456.973C826.915 455.441 825.272 454.21 823.428 453.363C821.583 452.516 819.579 452.072 817.55 452.06C816.242 452.059 814.94 452.234 813.68 452.58L812.05 453.03L812.45 451.39C813.338 447.648 812.747 443.707 810.8 440.39L810.21 439.39L811.27 438.94C814.592 437.543 817.414 435.174 819.366 432.145C821.317 429.115 822.307 425.566 822.206 421.963C822.104 418.361 820.915 414.873 818.796 411.958C816.677 409.044 813.725 406.838 810.33 405.63L809.4 405.3L809.72 404.36C811.076 400.484 811.185 396.281 810.033 392.34C808.881 388.399 806.525 384.917 803.295 382.381C800.065 379.846 796.123 378.384 792.021 378.201C787.919 378.018 783.863 379.123 780.42 381.36L779.5 381.96L778.99 380.96C777.804 378.665 775.786 376.911 773.348 376.057C770.91 375.204 768.238 375.316 765.88 376.37L764.56 376.96L764.48 375.52C764.291 372.159 762.981 368.958 760.759 366.428C758.538 363.899 755.533 362.187 752.224 361.565C748.916 360.943 745.494 361.448 742.506 362.999C739.518 364.55 737.136 367.057 735.74 370.12L735.11 371.49L734.11 370.38C731.593 367.62 728.311 365.672 724.683 364.785C721.054 363.898 717.244 364.112 713.738 365.399C710.231 366.687 707.188 368.99 704.996 372.014C702.804 375.038 701.562 378.647 701.43 382.38L701.37 384.03L699.93 383.2C696.272 381.09 692.025 380.228 687.834 380.747C683.642 381.265 679.734 383.136 676.701 386.074C673.667 389.013 671.674 392.86 671.022 397.032C670.371 401.205 671.096 405.477 673.09 409.2L673.41 409.79L672.98 410.3C664.201 420.979 658.63 433.929 656.914 447.646C655.198 461.364 657.407 475.286 663.284 487.799C669.161 500.312 678.466 510.902 690.119 518.339C701.772 525.777 715.296 529.758 729.12 529.82C729.92 529.82 730.72 529.82 731.51 529.82H732.33L732.51 530.62C733.019 532.804 734.198 534.774 735.881 536.256C737.564 537.737 739.667 538.657 741.898 538.886C744.128 539.115 746.375 538.642 748.324 537.533C750.273 536.424 751.827 534.735 752.77 532.7L753.29 531.6L754.21 532.26Z" fill="#787878"/>
<path opacity="0.49" d="M670.42 415.78C668.545 412.274 667.864 408.253 668.48 404.325C669.095 400.397 670.974 396.777 673.831 394.012C676.688 391.247 680.369 389.489 684.315 389.003C688.261 388.518 692.257 389.331 695.7 391.32C695.826 387.799 696.999 384.395 699.068 381.543C701.137 378.691 704.009 376.521 707.317 375.308C710.625 374.095 714.22 373.896 717.642 374.735C721.064 375.575 724.158 377.414 726.53 380.02C727.861 377.089 730.136 374.689 732.992 373.204C735.848 371.718 739.12 371.233 742.284 371.827C745.448 372.42 748.321 374.057 750.445 376.476C752.569 378.895 753.821 381.956 754 385.17C756.319 384.13 758.948 384.018 761.348 384.857C763.747 385.695 765.734 387.422 766.9 389.68C769.698 387.867 772.935 386.843 776.267 386.716C779.599 386.59 782.904 387.365 785.832 388.961C788.76 390.557 791.203 392.913 792.903 395.782C794.603 398.651 795.496 401.925 795.49 405.26C795.485 407.301 795.148 409.328 794.49 411.26C797.704 412.399 800.498 414.485 802.505 417.242C804.511 419.999 805.636 423.299 805.732 426.708C805.827 430.117 804.888 433.475 803.038 436.34C801.189 439.205 798.516 441.443 795.37 442.76C796.688 444.959 797.379 447.476 797.37 450.04C797.36 451.142 797.226 452.239 796.97 453.31C798.84 452.843 800.789 452.776 802.687 453.114C804.585 453.452 806.39 454.188 807.984 455.273C809.578 456.358 810.925 457.768 811.936 459.41C812.947 461.052 813.599 462.889 813.85 464.8C814.101 466.712 813.945 468.655 813.393 470.502C812.84 472.35 811.903 474.059 810.644 475.519C809.384 476.979 807.83 478.156 806.084 478.973C804.337 479.79 802.438 480.229 800.51 480.26C799.325 480.253 798.145 480.095 797 479.79C796.771 480.665 796.435 481.508 796 482.3C804.21 486.3 809.78 494.19 809.74 503.22C809.68 516.22 797.95 526.8 783.54 526.74C777.156 526.754 770.966 524.556 766.02 520.52C765.071 522.546 763.685 524.336 761.962 525.763C760.24 527.19 758.222 528.218 756.056 528.773C753.889 529.329 751.626 529.398 749.429 528.975C747.232 528.553 745.156 527.65 743.35 526.33C742.429 528.319 740.911 529.971 739.007 531.056C737.103 532.142 734.908 532.607 732.728 532.387C730.547 532.167 728.49 531.273 726.841 529.829C725.192 528.385 724.035 526.463 723.53 524.33C722.81 524.33 722.08 524.33 721.36 524.33C708.805 524.28 696.523 520.669 685.938 513.918C675.352 507.167 666.899 497.552 661.56 486.19C656.22 474.827 654.212 462.183 655.77 449.726C657.327 437.268 662.387 425.508 670.36 415.81L670.42 415.78Z" fill="white"/>
<path opacity="0.49" d="M729.12 498.26C730.06 511.85 730.46 535.87 730.74 542.5C734.14 532.22 742.74 524.94 752.27 514.85C752.785 514.292 753.414 513.852 754.114 513.558C754.815 513.265 755.57 513.126 756.329 513.151C757.088 513.175 757.833 513.363 758.513 513.701C759.193 514.039 759.792 514.52 760.27 515.11C761.53 516.69 761.9 518.11 761.27 518.88C760.27 520.25 744.21 533.74 742.45 536.97C738.45 541.6 731.23 550.15 730.62 557.2C729.15 574.2 731.94 611.88 731.21 628.98L717.64 628.92C717.5 624.36 717.92 602.02 718.01 599.83C718.33 592.71 722.83 554.68 716.24 534.12C712.7 523.02 705.64 507.05 705.64 494.74C710.17 502.98 711.79 513.1 715.64 521.8C718.97 529.24 724.23 537.39 725.72 545.39C726.32 538.94 723.19 508.33 721.94 498.98C721.869 498.454 721.916 497.919 722.079 497.414C722.242 496.909 722.515 496.446 722.88 496.06C723.353 495.533 723.971 495.158 724.658 494.982C725.344 494.807 726.067 494.839 726.735 495.074C727.403 495.31 727.986 495.738 728.411 496.305C728.835 496.873 729.082 497.553 729.12 498.26Z" fill="#A0A0A0"/>
<path opacity="0.49" d="M717 628.94C716.86 624.31 717.28 601.94 717.37 599.8C717.37 598.73 717.56 596.96 717.74 594.72C718.74 581.85 721.2 551.72 715.63 534.33C714.79 531.71 713.76 528.83 712.63 525.78C709 515.69 705 504.26 705 494.74V492.15L706.24 494.42C708.82 499.11 710.49 504.42 712.09 509.63C713.263 513.677 714.675 517.651 716.32 521.53C717.32 523.74 718.44 525.97 719.65 528.33C721.759 532.228 723.594 536.267 725.14 540.42C724.73 529.42 722.35 506.48 721.35 499.07C721.267 498.446 721.323 497.811 721.515 497.211C721.707 496.611 722.03 496.061 722.46 495.6C723.027 494.998 723.757 494.574 724.561 494.38C725.365 494.186 726.208 494.23 726.987 494.506C727.766 494.783 728.448 495.281 728.949 495.938C729.451 496.596 729.75 497.386 729.81 498.21C730.48 507.82 730.88 522.86 731.15 532.81C731.21 535.3 731.27 537.48 731.33 539.25C734.52 532.17 740.2 526.36 746.64 519.76C748.32 518.04 750.06 516.27 751.82 514.39C752.411 513.763 753.131 513.27 753.93 512.945C754.729 512.621 755.588 512.473 756.45 512.51C757.287 512.541 758.108 512.753 758.855 513.131C759.603 513.509 760.259 514.044 760.78 514.7C762.25 516.54 762.63 518.21 761.78 519.28C761.41 519.78 759.78 521.28 756.58 524.11C751.58 528.55 744.12 535.26 743.01 537.29L742.93 537.41C739.63 541.26 731.89 550.16 731.27 557.26C730.46 566.66 730.95 582.4 731.44 597.63C731.82 609.85 732.19 621.39 731.86 629.01V629.65L717 629.58V628.94ZM730.14 597.67C729.65 582.41 729.14 566.67 729.97 557.14C730.63 549.65 738.51 540.53 741.92 536.59C743.24 534.3 750.45 527.84 755.73 523.12C758.16 520.95 760.45 518.89 760.73 518.48C761.01 518.07 760.73 516.8 759.73 515.48C759.324 514.978 758.815 514.567 758.237 514.278C757.659 513.988 757.026 513.825 756.38 513.8C755.708 513.773 755.038 513.89 754.415 514.143C753.793 514.397 753.232 514.781 752.77 515.27C751 517.15 749.26 518.93 747.57 520.65C740.34 528.05 734.1 534.45 731.38 542.65L730.24 546.11L730.09 542.47C730.01 540.47 729.91 537.1 729.8 532.79C729.53 522.85 729.13 507.79 728.47 498.24C728.453 497.841 728.355 497.45 728.182 497.09C728.008 496.731 727.763 496.41 727.461 496.149C727.159 495.888 726.807 495.691 726.426 495.57C726.046 495.45 725.644 495.408 725.247 495.449C724.85 495.489 724.465 495.61 724.116 495.804C723.767 495.999 723.462 496.262 723.219 496.579C722.976 496.896 722.8 497.259 722.702 497.646C722.604 498.033 722.586 498.436 722.65 498.83C723.88 508.01 727.04 538.83 726.43 545.39L726 550.26L725.12 545.56C724.12 540.04 721.23 534.42 718.45 528.98C717.24 526.61 716.09 524.36 715.09 522.12C713.431 518.208 712.005 514.201 710.82 510.12C709.62 505.966 708.16 501.892 706.45 497.92C707.18 506.55 710.74 516.52 713.92 525.42C715.01 528.48 716.04 531.42 716.92 534.01C722.57 551.64 720.13 582.01 719.09 594.92C718.91 597.15 718.77 598.92 718.73 599.92C718.64 601.98 718.25 622.59 718.34 628.32H730.62C730.84 620.75 730.48 609.53 730.11 597.67H730.14Z" fill="#585859"/>
<g opacity="0.33">
<path opacity="0.33" d="M694.46 395.1C696.747 395.113 698.978 395.81 700.866 397.102C702.753 398.394 704.211 400.222 705.05 402.35C708.317 400.086 712.205 398.888 716.18 398.92C726.35 398.97 734.56 406.65 734.52 416.08C734.5 419.572 733.345 422.962 731.23 425.74C733.96 427.498 736.114 430.019 737.423 432.991C738.732 435.963 739.138 439.254 738.591 442.455C738.044 445.656 736.568 448.626 734.346 450.995C732.125 453.363 729.256 455.026 726.096 455.777C722.937 456.528 719.626 456.333 716.577 455.217C713.527 454.101 710.873 452.113 708.944 449.5C707.016 446.887 705.898 443.765 705.73 440.522C705.562 437.279 706.351 434.058 708 431.26C705.235 430.061 702.835 428.153 701.042 425.731C699.25 423.308 698.128 420.455 697.79 417.46C696.684 417.795 695.535 417.963 694.38 417.96C692.876 417.954 691.388 417.651 690.002 417.069C688.615 416.488 687.356 415.639 686.298 414.571C685.239 413.503 684.401 412.237 683.832 410.846C683.263 409.454 682.973 407.964 682.98 406.46C682.986 404.957 683.289 403.469 683.87 402.082C684.452 400.696 685.301 399.437 686.369 398.378C687.436 397.32 688.702 396.482 690.094 395.913C691.486 395.343 692.976 395.054 694.48 395.06L694.46 395.1Z" fill="#E4E4E4"/>
</g>
<path opacity="0.49" d="M778.419 517.84L751.299 498.1L750.409 502.16C750.409 502.16 749.069 510.27 757.989 517.16C766.909 524.05 775.289 520.54 778.419 517.84Z" fill="white"/>
<path opacity="0.49" d="M768.599 522.11C771.823 522.116 774.989 521.26 777.769 519.63C777.974 519.477 778.111 519.251 778.154 518.999C778.197 518.747 778.142 518.488 778 518.275C777.857 518.063 777.639 517.913 777.39 517.856C777.141 517.799 776.879 517.84 776.659 517.97C774.137 519.48 771.234 520.232 768.297 520.139C765.359 520.045 762.51 519.108 760.089 517.44C753.089 512.84 750.289 506.91 751.739 499.82C751.766 499.692 751.766 499.559 751.741 499.43C751.716 499.301 751.666 499.178 751.594 499.069C751.521 498.959 751.428 498.865 751.319 498.791C751.21 498.718 751.088 498.667 750.959 498.64C750.701 498.59 750.433 498.644 750.214 498.79C749.995 498.936 749.842 499.163 749.789 499.42C748.149 507.42 751.249 514.01 758.989 519.11C761.827 521.036 765.17 522.08 768.599 522.11Z" fill="#585859"/>
<path opacity="0.49" d="M751.53 497.45C752.159 497.45 752.67 496.94 752.67 496.31C752.67 495.68 752.159 495.17 751.53 495.17C750.9 495.17 750.39 495.68 750.39 496.31C750.39 496.94 750.9 497.45 751.53 497.45Z" fill="#585859"/>
<path opacity="0.49" d="M738.86 474.93L745.34 481.35L746.56 484.84L745.1 490.33L742.04 492.94L737.28 493.24L733.18 492.5L732.41 494.42L729.73 498.33L727.14 499.52L723.15 499.1L719.9 496.36L718.5 492.62L737.19 473.01L738.86 474.93Z" fill="white"/>
<path opacity="0.49" d="M725.32 500.57C725.694 500.569 726.068 500.549 726.44 500.51C731.8 499.9 733.13 495.51 733.44 493.51C733.68 493.51 733.97 493.64 734.31 493.73C736.31 494.26 740.18 495.25 743.23 493.45C744.215 492.801 745.06 491.96 745.713 490.977C746.366 489.995 746.814 488.89 747.03 487.73C748.14 483.33 746.31 479.84 740.72 475.73C740.507 475.596 740.251 475.547 740.003 475.593C739.756 475.639 739.535 475.777 739.384 475.979C739.234 476.181 739.165 476.433 739.192 476.683C739.219 476.934 739.34 477.165 739.53 477.33C744.43 480.97 745.98 483.76 745.09 487.33C744.935 488.232 744.601 489.094 744.108 489.865C743.616 490.636 742.973 491.301 742.22 491.82C739.88 493.2 736.7 492.38 734.81 491.89C734.36 491.77 733.98 491.67 733.69 491.62C733.443 491.572 733.189 491.574 732.943 491.628C732.697 491.681 732.464 491.784 732.26 491.93C732.053 492.078 731.878 492.266 731.744 492.482C731.61 492.698 731.52 492.939 731.48 493.19C731.2 495.03 730.14 498.19 726.19 498.63C720.94 499.22 719.69 494.22 719.64 494.01C719.561 493.773 719.397 493.575 719.18 493.453C718.962 493.331 718.707 493.294 718.464 493.351C718.222 493.407 718.009 493.552 717.867 493.757C717.726 493.962 717.666 494.213 717.7 494.46C718.106 496.183 719.076 497.72 720.457 498.827C721.838 499.935 723.55 500.548 725.32 500.57Z" fill="#585859"/>
<path opacity="0.49" d="M737.54 475.49C738.158 475.49 738.66 474.989 738.66 474.37C738.66 473.751 738.158 473.25 737.54 473.25C736.921 473.25 736.42 473.751 736.42 474.37C736.42 474.989 736.921 475.49 737.54 475.49Z" fill="#585859"/>
<path opacity="0.49" d="M738.8 440.71C739.065 440.71 739.319 440.605 739.507 440.417C739.694 440.23 739.8 439.975 739.8 439.71C739.812 436.94 739.167 434.206 737.917 431.734C736.667 429.262 734.848 427.122 732.61 425.49C734.483 422.708 735.492 419.434 735.51 416.08C735.51 406.08 726.88 397.97 716.17 397.92C711.989 397.887 707.901 399.152 704.47 401.54C704.347 401.608 704.24 401.701 704.156 401.813C704.071 401.925 704.011 402.053 703.98 402.189C703.948 402.326 703.946 402.468 703.972 402.605C703.999 402.743 704.054 402.873 704.135 402.988C704.215 403.103 704.318 403.199 704.439 403.272C704.559 403.344 704.693 403.39 704.832 403.407C704.971 403.424 705.112 403.412 705.246 403.371C705.38 403.33 705.504 403.262 705.61 403.17C708.706 401.022 712.391 399.887 716.16 399.92C725.77 399.92 733.55 407.21 733.51 416.07C733.493 419.349 732.408 422.533 730.42 425.14L729.78 426L730.67 426.58C732.867 427.989 734.673 429.93 735.92 432.224C737.166 434.518 737.813 437.09 737.8 439.7C737.798 439.832 737.823 439.963 737.873 440.086C737.922 440.208 737.996 440.32 738.089 440.414C738.182 440.508 738.293 440.582 738.415 440.633C738.537 440.684 738.667 440.71 738.8 440.71Z" fill="#6F6F70"/>
<path opacity="0.49" d="M738.029 446.06C738.814 446.06 739.449 445.424 739.449 444.64C739.449 443.856 738.814 443.22 738.029 443.22C737.245 443.22 736.609 443.856 736.609 444.64C736.609 445.424 737.245 446.06 738.029 446.06Z" fill="#6F6F70"/>
</g>
<path d="M274.33 70.77H146.44V512.29H274.33V70.77Z" fill="#E4E4E4"/>
<path d="M715.08 1.5H152.53V28.14H715.08V1.5Z" fill="#9B9B9B"/>
<path d="M275.34 532.08H146.44V630.03H275.34V532.08Z" stroke="#7C7C7C" stroke-width="3" stroke-miterlimit="10"/>
<path d="M308.58 44.8901H129.69V70.7701H308.58V44.8901Z" fill="#9B9B9B"/>
<path d="M297.67 70.77H275.34V630.02H297.67V70.77Z" fill="#9B9B9B"/>
<path opacity="0.58" d="M306.8 70.77H295.64V630.02H306.8V70.77Z" fill="#9B9B9B"/>
<path d="M551.41 28.1401L555.47 610.49H702.65V28.1401H551.41Z" fill="#E2E2E2"/>
<path d="M275.34 532.08H146.44V630.03H275.34V532.08Z" fill="#CECCCC"/>
<path opacity="0.43" d="M551.46 34.7601L702.65 57.8301V28.1401H551.41L551.46 34.7601Z" fill="#9B9B9B"/>
<path d="M702.65 610.49H297.67V630.03H702.65V610.49Z" fill="#9B9B9B"/>
<path d="M267.48 546.54H159.38V630.02H267.48V546.54Z" stroke="#7C7C7C" stroke-width="3" stroke-miterlimit="10"/>
<path d="M169.27 626.47V556.44H267.47V546.54H159.38V630.03H169.27V626.47Z" fill="#9E9B9B"/>
<path d="M224.08 556.44H210.38V630.03H224.08V556.44Z" fill="#7C7C7C"/>
<path d="M424.48 137.37H335.41H324V78H424.48V137.37Z" fill="#B5B5B5"/>
<path d="M355.4 100.07H325.2V102.55H355.4V100.07Z" fill="#9B9B9B"/>
<path d="M401.898 130.853C402.151 130.663 402.515 130.099 402.91 129.366C403.694 127.867 404.382 126.32 404.969 124.734C405.184 124.137 405.295 123.735 405.233 123.695C405.171 123.655 404.961 123.294 404.668 122.759C404.357 122.189 403.957 121.424 403.567 120.646C402.801 119.121 402.067 117.544 402.089 117.292C401.896 117.903 398.642 128.209 398.563 129.633C398.481 131.097 400.922 131.585 401.898 130.853Z" fill="#F4F4F4"/>
<path d="M402.906 129.368C403.69 127.869 404.378 126.322 404.965 124.735C404.884 124.09 404.784 123.395 404.664 122.761C404.425 121.494 404.111 120.47 403.722 120.567C403.665 120.582 403.104 120.536 403.055 120.575C402.281 121.183 403.055 125.174 402.471 126.304C402.037 127.147 402.906 129.368 402.906 129.368Z" fill="#DDDDDD"/>
<path d="M408.464 107.219C408.464 107.219 408.447 107.981 408.458 109.011C408.464 109.515 408.475 110.086 408.5 110.663C408.518 111.077 408.449 111.462 408.482 111.863L409.636 117.939L414.45 111.829C414.45 111.829 413.586 110.933 412.782 106.5C412.774 106.454 412.769 106.428 412.769 106.428L408.464 107.219Z" fill="#F9F9F9"/>
<path d="M401.967 134.351C401.65 134.935 403.279 136.426 404.102 136.853C405.154 137.398 405.209 137.596 411.528 138C412.212 138.044 412.855 138.082 413.458 138.115C417.531 138.339 419.731 138.337 419.731 138.337C419.731 138.337 416.628 133.742 417.884 122.434C418.047 120.967 417.485 118.587 416.644 117.374C415.767 116.108 415.719 114.542 415.503 113.035C415.442 112.603 415.769 112.546 415.657 112.133C415.657 112.133 414.557 111.681 414.439 111.668C413.729 112.163 412.751 113.171 410.61 113.148C409.165 113.134 408.712 112.178 408.564 111.672C407.993 111.806 407.379 112.169 406.892 112.338C402.853 113.739 402.094 117.263 402.094 117.263C402.094 117.263 403.561 127.639 403.683 129.105C403.767 130.081 402.729 132.948 401.967 134.351Z" fill="#F4F4F4"/>
<path d="M411.944 135.288C410.315 140.494 419.974 138.398 419.974 138.398C419.974 138.398 419.549 136.539 419.845 132.918C419.965 131.446 421.602 129.425 421.259 127.522C420.901 125.532 416.515 124.137 415.319 121.783C416.378 127.762 410.276 131.586 411.944 135.288Z" fill="#DDDDDD"/>
<path d="M412.035 135.361C412.035 135.361 409.869 135.209 409.045 135.452C408.222 135.696 407.49 136.368 407.398 136.734C407.306 137.1 409.076 137.313 409.503 137.131C409.93 136.948 410.693 137.313 411.214 137.161C411.735 137.008 412.312 136.581 412.312 136.581L412.035 135.361Z" fill="#FCFCFC"/>
<path d="M414.44 111.668C414.44 111.668 419.134 113.204 420.993 115.929C422.417 118.017 423.15 127.513 422.975 129.046C422.807 130.513 420.903 133.332 412.758 136.901C412.64 136.953 411.273 136.566 411.639 135.315L417.842 128.166L414.085 118.747C414.085 118.747 411.366 114.658 414.44 111.668Z" fill="#F4F4F4"/>
<path d="M404.865 135.999C404.865 135.999 407.147 135.939 407.591 136.386C408.035 136.833 408.689 137.891 408.364 138.178C408.039 138.466 406.734 137.771 405.92 137.934C405.105 138.097 404.578 137.974 403.801 137.405C403.025 136.836 404.865 135.999 404.865 135.999Z" fill="#FCFCFC"/>
<path d="M401.815 126.969L404.929 135.999C404.929 135.999 404.837 136.944 403.495 137.555C403.495 137.555 398.157 132.216 398.525 130.019C398.893 127.823 401.815 126.969 401.815 126.969Z" fill="#F4F4F4"/>
<path d="M413.042 107.789C413.042 107.789 418.643 103.797 415.137 99.8346C414.797 99.451 414.364 99.1624 413.879 98.9971C412.546 98.5433 409.556 97.775 407.825 99.2985C405.962 100.938 405.149 102.253 406.338 104.078C407.526 105.902 413.042 107.789 413.042 107.789Z" fill="#4C4B4C"/>
<path d="M408.461 109.014C408.467 109.518 408.478 110.088 408.504 110.666C413.138 109.444 412.851 106.963 412.785 106.503C412.778 106.456 412.772 106.43 412.772 106.43C412.772 106.43 410.311 107.786 408.461 109.014Z" fill="#BFBFC1"/>
<path d="M407.474 109.486C407.474 109.486 412.425 110.213 412.831 107.123C413.237 104.033 414.148 102.045 411.005 101.45C407.861 100.856 407.094 101.954 406.705 102.952C406.315 103.95 406.197 109.217 407.474 109.486Z" fill="#F9F9F9"/>
<path d="M416.391 96.383C415.543 95.9683 414.318 96.6755 414.318 96.6755C414.701 96.0115 416.337 96.0628 416.337 96.0628C413.054 95.6816 412.576 97.803 412.539 98.001C410.006 96.115 406.692 100.958 406.692 100.958C406.692 100.958 411.254 100.488 412.237 101.479C413.308 102.565 412.726 107.561 412.726 107.561C412.726 107.561 413.108 106.384 413.785 106.676C414.844 107.131 416.583 104.721 415.684 101.847C415.593 101.558 415.486 101.275 415.363 100.998C415.582 101.077 415.815 101.112 416.048 101.101C416.634 101.046 417.379 99.4658 417.451 98.9518C417.524 98.4377 417.239 96.7985 416.391 96.383Z" fill="#4C4B4C"/>
<path d="M408.577 100.103C408.577 100.103 407.594 100.888 407.355 101.651C407.116 102.414 407.007 103.983 406.55 103.932C406.55 103.932 405.559 101.544 406.673 100.194C407.854 98.7581 408.577 100.103 408.577 100.103Z" fill="#4C4B4C"/>
<path d="M408.113 101.922C408.113 101.922 409.05 105.601 411.6 106.779C411.6 106.779 409.05 104.519 408.835 102.09C408.619 99.6614 408.113 101.922 408.113 101.922Z" fill="#4C4B4C"/>
<path d="M400.669 122.066C400.661 122.067 400.653 122.067 400.645 122.066C400.635 122.063 400.625 122.058 400.617 122.051C400.609 122.044 400.602 122.036 400.597 122.026C400.592 122.017 400.588 122.006 400.587 121.996C400.586 121.985 400.587 121.974 400.59 121.964L402.019 117.243C402.032 117.204 403.278 113.626 405.855 112.691C405.875 112.684 405.898 112.684 405.917 112.694C405.937 112.703 405.952 112.719 405.96 112.74C405.967 112.76 405.966 112.782 405.957 112.802C405.948 112.822 405.932 112.837 405.911 112.844C403.406 113.753 402.186 117.257 402.175 117.292L400.747 122.008C400.742 122.025 400.731 122.039 400.717 122.05C400.703 122.06 400.686 122.066 400.669 122.066Z" fill="#898989"/>
<path d="M399.052 131.897C399.038 131.897 399.024 131.893 399.012 131.886C399 131.879 398.99 131.869 398.982 131.857C397.803 129.961 398.968 127.425 398.982 127.399C398.986 127.389 398.992 127.38 399 127.372C399.008 127.364 399.017 127.357 399.028 127.353C399.038 127.349 399.049 127.347 399.06 127.347C399.072 127.347 399.083 127.35 399.093 127.355C399.103 127.359 399.112 127.366 399.119 127.375C399.127 127.383 399.132 127.393 399.136 127.403C399.139 127.414 399.14 127.425 399.139 127.436C399.138 127.447 399.135 127.458 399.13 127.468C399.118 127.493 397.989 129.95 399.122 131.771C399.128 131.78 399.132 131.79 399.134 131.801C399.135 131.811 399.135 131.822 399.133 131.833C399.13 131.843 399.126 131.853 399.12 131.862C399.113 131.87 399.105 131.878 399.096 131.884C399.083 131.892 399.067 131.897 399.052 131.897Z" fill="#898989"/>
<path d="M412.758 136.985C412.753 136.986 412.748 136.986 412.743 136.985C412.268 136.9 411.928 136.695 411.723 136.38C411.412 135.891 411.554 135.321 411.56 135.299L411.565 135.28L415.932 130.247C415.94 130.239 415.948 130.232 415.958 130.227C415.967 130.222 415.978 130.22 415.988 130.219C415.999 130.218 416.01 130.22 416.02 130.223C416.03 130.226 416.04 130.232 416.048 130.239C416.056 130.246 416.062 130.255 416.067 130.264C416.072 130.274 416.075 130.284 416.075 130.295C416.076 130.306 416.075 130.316 416.071 130.327C416.068 130.337 416.063 130.346 416.055 130.354L411.714 135.357C411.694 135.452 411.616 135.911 411.861 136.293C412.037 136.569 412.345 136.747 412.772 136.825C412.783 136.826 412.793 136.829 412.803 136.834C412.812 136.839 412.821 136.846 412.828 136.854C412.835 136.863 412.84 136.872 412.843 136.882C412.846 136.893 412.847 136.904 412.846 136.914C412.845 136.925 412.842 136.935 412.837 136.945C412.832 136.954 412.826 136.963 412.817 136.97C412.809 136.977 412.8 136.982 412.789 136.985C412.779 136.988 412.768 136.989 412.758 136.988V136.985Z" fill="#898989"/>
<path d="M416.621 125.34C416.605 125.34 416.589 125.335 416.575 125.325C416.562 125.316 416.551 125.303 416.546 125.287L415.298 122.011C415.294 122.001 415.293 121.991 415.293 121.98C415.293 121.969 415.296 121.959 415.3 121.949C415.305 121.939 415.311 121.93 415.319 121.923C415.326 121.916 415.336 121.91 415.346 121.906C415.356 121.902 415.366 121.901 415.377 121.901C415.388 121.901 415.398 121.904 415.408 121.908C415.418 121.912 415.426 121.919 415.434 121.926C415.441 121.934 415.447 121.943 415.451 121.953L416.698 125.229C416.702 125.239 416.704 125.25 416.703 125.261C416.703 125.271 416.7 125.282 416.696 125.292C416.692 125.301 416.685 125.31 416.678 125.318C416.67 125.325 416.661 125.331 416.651 125.334C416.641 125.338 416.631 125.34 416.621 125.34Z" fill="#898989"/>
<path d="M409.148 137.269C408.817 137.265 408.486 137.243 408.157 137.202C408.146 137.201 408.136 137.197 408.126 137.192C408.117 137.186 408.109 137.179 408.102 137.171C408.096 137.162 408.091 137.153 408.088 137.142C408.085 137.132 408.084 137.121 408.086 137.11C408.087 137.1 408.09 137.089 408.096 137.08C408.101 137.07 408.108 137.062 408.117 137.056C408.125 137.049 408.135 137.044 408.145 137.041C408.156 137.038 408.167 137.038 408.177 137.039C408.701 137.105 409.605 137.155 409.807 137.01C409.824 136.997 409.846 136.991 409.867 136.995C409.889 136.998 409.908 137.009 409.921 137.027C409.934 137.044 409.939 137.066 409.936 137.087C409.933 137.109 409.921 137.128 409.904 137.141C409.768 137.239 409.466 137.269 409.148 137.269Z" fill="#898989"/>
<path d="M407.59 136.468C407.578 136.467 407.566 136.465 407.555 136.459C407.544 136.454 407.535 136.447 407.527 136.437C407.521 136.429 407.515 136.42 407.512 136.409C407.509 136.399 407.508 136.388 407.509 136.378C407.51 136.367 407.513 136.357 407.518 136.347C407.524 136.338 407.53 136.329 407.539 136.323C407.605 136.27 409.153 135.012 409.878 135.256C409.888 135.26 409.897 135.265 409.905 135.272C409.913 135.279 409.92 135.288 409.925 135.297C409.93 135.307 409.932 135.317 409.933 135.328C409.934 135.339 409.933 135.349 409.929 135.36C409.926 135.37 409.92 135.379 409.913 135.387C409.906 135.395 409.898 135.402 409.888 135.407C409.878 135.411 409.868 135.414 409.857 135.415C409.847 135.416 409.836 135.414 409.826 135.411C409.296 135.232 408.07 136.099 407.642 136.449C407.628 136.461 407.609 136.468 407.59 136.468Z" fill="#898989"/>
<path d="M381.096 115.33C379.008 113.376 377.483 112.495 377.483 112.495L377.6 122.092C377.6 122.092 378.167 123.676 379.333 125.247C379.526 125.548 380.029 126.497 380.492 127.888C381.096 129.626 383.389 129.626 383.969 129.626C384.548 129.626 385.128 130.206 385.128 128.467C385.128 127.077 385.363 126.621 385.128 126.149C383.867 125.347 382.993 117.105 381.096 115.33Z" fill="#DBDBDB"/>
<path d="M394.805 126.444C395.288 126.554 395.784 126.572 396.269 126.496C397.661 126.27 398.113 126.185 398.764 126.393C399.129 126.513 399.807 126.953 400.162 127.233C400.388 127.412 400.771 128.265 400.598 128.427C400.283 128.723 398.196 128.353 397.698 128.593C397.32 128.773 396.607 128.831 396.111 128.693C395.615 128.555 394.716 128.444 394.716 128.444L394.805 126.444Z" fill="#F9F9F9"/>
<path d="M395.808 126.578C395.808 126.578 389.806 125.657 387.548 125.32C385.29 124.982 382.399 125.221 381.514 127.336C380.629 129.452 384.235 129.858 386.095 130.013C390.187 130.354 395.933 128.652 395.933 128.652L395.808 126.578Z" fill="#DBDBDB"/>
<path d="M374.831 106.59C374.831 106.59 373.531 109.184 374.117 111.392L372.445 117.315L367.45 111.356C367.45 111.356 369.394 108.66 369.833 105.248L374.831 106.59Z" fill="#F9F9F9"/>
<path d="M374.121 108.104C374.075 108.576 374.018 109.109 373.947 109.646C369.711 108.129 370.182 105.83 370.281 105.405C370.292 105.362 370.3 105.338 370.3 105.338C370.3 105.338 372.491 106.804 374.121 108.104Z" fill="#BFBFC1"/>
<path d="M367.742 139.474C366.047 139.575 364.586 139.504 363.696 139.229C363.028 139.024 362.527 133.533 362.278 127.687C362 121.215 362.03 114.308 362.48 113.655C363.348 112.398 367.404 111.27 367.52 111.256C368.228 111.742 369.944 112.736 372.069 112.703C373.507 112.681 373.968 111.82 374.115 111.319C374.711 111.379 376.438 112.078 376.925 112.237C379.36 113.039 379.302 116.791 379.302 116.791C379.302 116.791 379.537 130.752 380.317 134.037C381.029 137.032 373.175 139.147 367.742 139.474Z" fill="#E2E2E2"/>
<path d="M374.109 135.438L375.235 137.92C375.235 137.92 369.545 137.405 368.514 138.168C368.035 138.524 367.644 139.097 367.742 139.474C366.047 139.576 364.586 139.504 363.696 139.229C363.028 139.024 362.527 133.534 362.278 127.687L363.091 126.559L365.061 124.832C365.246 124.669 365.472 124.56 365.714 124.517C365.957 124.474 366.206 124.498 366.436 124.586C366.666 124.675 366.867 124.824 367.018 125.019C367.169 125.214 367.264 125.446 367.292 125.691C367.335 126.065 367.357 126.441 367.358 126.817C367.358 129.613 371.951 133.547 374.109 135.438Z" fill="#BFBFC1"/>
<path d="M373.922 135.348C374.416 135.548 374.941 135.66 375.474 135.679C377.004 135.724 377.501 135.729 378.151 136.055C378.516 136.237 379.151 136.799 379.474 137.138C379.679 137.356 379.919 138.257 379.704 138.382C379.309 138.611 377.16 137.851 376.578 137.988C376.141 138.091 375.37 138.011 374.868 137.783C374.366 137.555 373.431 137.275 373.431 137.275L373.922 135.348Z" fill="#F9F9F9"/>
<path d="M375.599 135.724C375.599 135.724 376.739 135.485 377.229 135.28C377.229 135.28 377.495 135.456 377.332 135.61C377.169 135.764 376.705 135.93 376.705 135.93L375.599 135.724Z" fill="#F9F9F9"/>
<path d="M363.006 113.125C363.006 113.125 359.913 114.902 359.97 122.749C360.028 130.596 359.511 132.029 360.944 133.06C362.377 134.092 370.52 137.309 373.498 137.497C373.498 137.497 374.569 136.409 374.11 135.225C374.11 135.225 364.916 129.201 364.802 128.857C364.688 128.514 367.589 122.231 367.876 120.169C368.163 118.107 363.006 113.125 363.006 113.125Z" fill="#E2E2E2"/>
<path d="M375.762 108.053C375.762 108.053 370.19 109.702 369.243 106.347C368.297 102.991 366.213 101.121 370.352 99.7725C373.756 98.6634 375.268 99.8207 375.859 100.864C376.45 101.907 377.804 107.35 375.762 108.053Z" fill="#F9F9F9"/>
<path d="M366.065 100.34C366.007 100.293 365.889 100.27 365.642 100.302C365.766 100.195 365.914 100.121 366.074 100.086C366.06 99.732 366.127 99.0918 366.686 98.8317C366.601 98.9066 366.534 98.9997 366.49 99.104C366.446 99.2084 366.426 99.3213 366.431 99.4344C366.976 98.603 368.328 97.8189 372.397 97.3914C377.762 96.8276 376.662 100.59 376.054 101.128C375.446 101.666 373.514 100.864 372.259 101.204C371.004 101.545 371.112 103.462 370.729 103.799C370.347 104.136 370.43 103.651 369.794 103.493C369.159 103.335 369.287 104.329 369.576 104.937C369.864 105.545 369.218 106.543 369.218 106.543L368.239 105.806C367.261 105.069 365.792 101.446 366.012 100.576C366.026 100.496 366.043 100.419 366.065 100.34Z" fill="#4C4B4C"/>
<path d="M368.906 99.9377C368.906 99.9377 371.457 102.366 373.376 101.976C375.296 101.587 375.813 100.771 375.813 100.771C374.862 99.8902 374.008 98.9095 373.266 97.8457C373.266 97.8457 369.059 98.1188 368.906 99.9377Z" fill="#4C4B4C"/>
<path d="M375.758 108.13H375.762C375.791 108.13 376.469 108.072 376.841 106.558C377.205 105.079 376.168 101.269 376.123 101.108C376.117 101.089 376.104 101.073 376.087 101.063C376.07 101.054 376.049 101.051 376.03 101.056C376.011 101.062 375.995 101.074 375.984 101.091C375.974 101.108 375.971 101.128 375.976 101.148C375.986 101.187 377.046 105.081 376.692 106.522C376.347 107.927 375.76 107.975 375.754 107.975C375.733 107.975 375.714 107.983 375.7 107.998C375.685 108.012 375.677 108.031 375.677 108.052C375.677 108.072 375.685 108.091 375.7 108.106C375.714 108.12 375.733 108.128 375.754 108.128L375.758 108.13Z" fill="#898989"/>
<path d="M379.06 136.876C379.076 136.875 379.091 136.87 379.104 136.861C379.12 136.849 379.131 136.831 379.135 136.812C379.138 136.792 379.133 136.771 379.122 136.755C378.921 136.471 378.663 136.232 378.364 136.054C378.066 135.876 377.733 135.763 377.388 135.721C377.367 135.72 377.347 135.727 377.332 135.74C377.317 135.754 377.307 135.773 377.306 135.793C377.305 135.813 377.312 135.833 377.325 135.848C377.338 135.864 377.357 135.873 377.378 135.874C377.7 135.917 378.009 136.025 378.288 136.192C378.567 136.359 378.808 136.581 378.998 136.844C379.005 136.854 379.014 136.862 379.025 136.867C379.036 136.873 379.048 136.876 379.06 136.876Z" fill="#898989"/>
<path d="M361.8 79.8999H355.4V137.76H361.8V79.8999Z" fill="#9B9B9B"/>
<path d="M424.29 137.76H335.22H323.81V78.3901H424.29V137.76Z" stroke="#F9CACA" stroke-width="3" stroke-miterlimit="10"/>
<path d="M424.29 137.76H335.22H323.81V78.3901H424.29V137.76Z" stroke="#7F7F7F" stroke-width="3" stroke-miterlimit="10"/>
<path d="M335.95 137.76L335.58 89.4201H422.88V78.3901H324.81V137.76H335.95Z" fill="#9B9B9B"/>
<path opacity="0.2" d="M422.76 137.76H335.94H324.81V78.3901H422.76V137.76Z" fill="#CACACA"/>
<path opacity="0.41" d="M344.52 78.3901H355.4L402.6 136.36H380.28L344.52 78.3901Z" fill="#CACACA"/>
<path opacity="0.41" d="M363.96 78.3901L412.44 136.36H417.96L369.24 78.3901H363.96Z" fill="#CACACA"/>
<path d="M518.93 137.76H466.98H460.32V78.3901H518.93V137.76Z" stroke="#F9CACA" stroke-width="3" stroke-miterlimit="10"/>
<path d="M466.98 137.76L466.76 89.4201H518.93V78.3901H460.32V137.76H466.98Z" stroke="#F9CACA" stroke-width="3" stroke-miterlimit="10"/>
<path d="M487.68 100.07H467.21V105.02H487.68V100.07Z" stroke="#F9CACA" stroke-width="3" stroke-miterlimit="10"/>
<path d="M496.81 89.4199H487.68V137.76H496.81V89.4199Z" stroke="#F9CACA" stroke-width="3" stroke-miterlimit="10"/>
<path d="M518.93 137.76H466.98H460.32V78.3901H518.93V137.76Z" fill="#CACACA"/>
<path d="M491.91 100.07H461.71V102.55H491.91V100.07Z" fill="#9B9B9B"/>
<path d="M498.31 79.8999H491.91V137.76H498.31V79.8999Z" fill="#9B9B9B"/>
<path d="M518.93 137.76H466.98H460.32V78.3901H518.93V137.76Z" stroke="#7F7F7F" stroke-width="3" stroke-miterlimit="10"/>
<path d="M466.8 136.36L466.58 90.3999H517.35V79.8999H460.32V136.36H466.8Z" fill="#9B9B9B"/>
<path opacity="0.2" d="M517.35 136.36H466.8H460.32V79.8999H517.35V136.36Z" fill="#CACACA"/>
<path opacity="0.41" d="M468.36 79.8999H475.8L506.04 136.36H496.82L468.36 79.8999Z" fill="#CACACA"/>
<path opacity="0.41" d="M491.91 79.8999H499.8L517.35 116.62V124.78L491.91 79.8999Z" fill="#CACACA"/>
<path d="M219.13 166.1H184.5H180.06V115.84H219.13V166.1Z" stroke="#F9CACA" stroke-width="3" stroke-miterlimit="10"/>
<path d="M184.5 166.1L184.35 125.19H219.13V115.84H180.06V166.1H184.5Z" stroke="#F9CACA" stroke-width="3" stroke-miterlimit="10"/>
<path d="M198.31 134.2H184.66V138.39H198.31V134.2Z" stroke="#F9CACA" stroke-width="3" stroke-miterlimit="10"/>
<path d="M204.39 125.19H198.3V166.1H204.39V125.19Z" stroke="#F9CACA" stroke-width="3" stroke-miterlimit="10"/>
<path d="M219.13 166.1H184.5H180.06V115.84H219.13V166.1Z" fill="#CACACA"/>
<path d="M201.12 134.2H180.99V136.3H201.12V134.2Z" fill="#9B9B9B"/>
<path d="M205.39 117.13H201.12V166.1H205.39V117.13Z" fill="#9B9B9B"/>
<path d="M219.13 166.1H184.5H180.06V115.84H219.13V166.1Z" stroke="#7F7F7F" stroke-width="3" stroke-miterlimit="10"/>
<path d="M184.38 164.91L184.24 126.01H218.08V117.13H180.06V164.91H184.38Z" fill="#9B9B9B"/>
<path opacity="0.2" d="M218.08 164.91H184.38H180.06V117.13H218.08V164.91Z" fill="#CACACA"/>
<path opacity="0.41" d="M185.42 117.13H190.38L210.54 164.91H204.39L185.42 117.13Z" fill="#CACACA"/>
<path opacity="0.41" d="M201.12 117.13H206.38L218.08 148.21V155.11L201.12 117.13Z" fill="#CACACA"/>
<path d="M219.13 261.1H184.5H180.06V210.84H219.13V261.1Z" stroke="#F9CACA" stroke-width="3" stroke-miterlimit="10"/>
<path d="M184.5 261.1L184.35 220.19H219.13V210.84H180.06V261.1H184.5Z" stroke="#F9CACA" stroke-width="3" stroke-miterlimit="10"/>
<path d="M198.31 229.2H184.66V233.39H198.31V229.2Z" stroke="#F9CACA" stroke-width="3" stroke-miterlimit="10"/>
<path d="M204.39 220.19H198.3V261.1H204.39V220.19Z" stroke="#F9CACA" stroke-width="3" stroke-miterlimit="10"/>
<path d="M219.13 261.1H184.5H180.06V210.84H219.13V261.1Z" fill="#CACACA"/>
<path d="M201.12 229.2H180.99V231.3H201.12V229.2Z" fill="#9B9B9B"/>
<path d="M205.39 212.13H201.12V261.1H205.39V212.13Z" fill="#9B9B9B"/>
<path d="M219.13 261.1H184.5H180.06V210.84H219.13V261.1Z" stroke="#7F7F7F" stroke-width="3" stroke-miterlimit="10"/>
<path d="M184.38 259.92L184.24 221.01H218.08V212.13H180.06V259.92H184.38Z" fill="#9B9B9B"/>
<path opacity="0.2" d="M218.08 259.92H184.38H180.06V212.13H218.08V259.92Z" fill="#CACACA"/>
<path opacity="0.41" d="M185.42 212.13H190.38L210.54 259.92H204.39L185.42 212.13Z" fill="#CACACA"/>
<path opacity="0.41" d="M201.12 212.13H206.38L218.08 243.21V250.11L201.12 212.13Z" fill="#CACACA"/>
<path d="M219.13 372.1H184.5H180.06V321.84H219.13V372.1Z" stroke="#F9CACA" stroke-width="3" stroke-miterlimit="10"/>
<path d="M184.5 372.1L184.35 331.19H219.13V321.84H180.06V372.1H184.5Z" stroke="#F9CACA" stroke-width="3" stroke-miterlimit="10"/>
<path d="M198.31 340.2H184.66V344.39H198.31V340.2Z" stroke="#F9CACA" stroke-width="3" stroke-miterlimit="10"/>
<path d="M204.39 331.19H198.3V372.1H204.39V331.19Z" stroke="#F9CACA" stroke-width="3" stroke-miterlimit="10"/>
<path d="M219.13 372.1H184.5H180.06V321.84H219.13V372.1Z" fill="#CACACA"/>
<path d="M201.12 340.2H180.99V342.3H201.12V340.2Z" fill="#9B9B9B"/>
<path d="M205.39 323.13H201.12V372.1H205.39V323.13Z" fill="#9B9B9B"/>
<path d="M219.13 372.1H184.5H180.06V321.84H219.13V372.1Z" stroke="#7F7F7F" stroke-width="3" stroke-miterlimit="10"/>
<path d="M184.38 370.92L184.24 332.01H218.08V323.13H180.06V370.92H184.38Z" fill="#9B9B9B"/>
<path opacity="0.2" d="M218.08 370.92H184.38H180.06V323.13H218.08V370.92Z" fill="#CACACA"/>
<path opacity="0.41" d="M185.42 323.13H190.38L210.54 370.92H204.39L185.42 323.13Z" fill="#CACACA"/>
<path opacity="0.41" d="M201.12 323.13H206.38L218.08 354.21V361.11L201.12 323.13Z" fill="#CACACA"/>
<path d="M666.34 137.76H626.44H621.32V78.3901H666.34V137.76Z" stroke="#F9CACA" stroke-width="3" stroke-miterlimit="10"/>
<path d="M626.44 137.76L626.26 89.4201H666.34V78.3901H621.32V137.76H626.44Z" stroke="#F9CACA" stroke-width="3" stroke-miterlimit="10"/>
<path d="M642.33 100.07H626.61V105.02H642.33V100.07Z" stroke="#F9CACA" stroke-width="3" stroke-miterlimit="10"/>
<path d="M649.36 89.4199H642.34V137.76H649.36V89.4199Z" stroke="#F9CACA" stroke-width="3" stroke-miterlimit="10"/>
<path d="M666.34 137.76H626.44H621.32V78.3901H666.34V137.76Z" fill="#CACACA"/>
<path d="M645.58 100.07H622.39V102.55H645.58V100.07Z" fill="#9B9B9B"/>
<path d="M650.5 79.8999H645.58V137.76H650.5V79.8999Z" fill="#9B9B9B"/>
<path d="M666.34 137.76H626.44H621.32V78.3901H666.34V137.76Z" stroke="#7F7F7F" stroke-width="3" stroke-miterlimit="10"/>
<path d="M626.3 136.36L626.13 90.3999H665.12V79.8999H621.32V136.36H626.3Z" fill="#9B9B9B"/>
<path opacity="0.2" d="M665.12 136.36H626.3H621.32V79.8999H665.12V136.36Z" fill="#CACACA"/>
<path opacity="0.41" d="M627.5 79.8999H633.21L656.44 136.36H649.35L627.5 79.8999Z" fill="#CACACA"/>
<path opacity="0.41" d="M645.58 79.8999H651.64L665.12 116.62V124.78L645.58 79.8999Z" fill="#CACACA"/>
<path d="M667.59 264.76H626.58H621.32V205.38H667.59V264.76Z" stroke="#F9CACA" stroke-width="3" stroke-miterlimit="10"/>
<path d="M626.58 264.76L626.4 216.42H667.59V205.38H621.32V264.76H626.58Z" stroke="#F9CACA" stroke-width="3" stroke-miterlimit="10"/>
<path d="M642.92 227.07H626.76V232.02H642.92V227.07Z" stroke="#F9CACA" stroke-width="3" stroke-miterlimit="10"/>
<path d="M650.13 216.42H642.92V264.76H650.13V216.42Z" stroke="#F9CACA" stroke-width="3" stroke-miterlimit="10"/>
<path d="M667.59 264.76H626.58H621.32V205.38H667.59V264.76Z" fill="#CACACA"/>
<path d="M646.26 227.07H622.42V229.55H646.26V227.07Z" fill="#9B9B9B"/>
<path d="M651.32 206.9H646.26V264.76H651.32V206.9Z" fill="#9B9B9B"/>
<path d="M667.59 264.76H626.58H621.32V205.38H667.59V264.76Z" stroke="#7F7F7F" stroke-width="3" stroke-miterlimit="10"/>
<path d="M626.44 263.36L626.26 217.4H666.34V206.9H621.32V263.36H626.44Z" fill="#9B9B9B"/>
<path opacity="0.2" d="M666.34 263.36H626.44H621.32V206.9H666.34V263.36Z" fill="#CACACA"/>
<path opacity="0.41" d="M627.67 206.9H633.54L657.41 263.36H650.13L627.67 206.9Z" fill="#CACACA"/>
<path opacity="0.41" d="M646.26 206.9H652.49L666.34 243.62V251.78L646.26 206.9Z" fill="#CACACA"/>
<path d="M669.62 372.76H626.81H621.32V313.38H669.62V372.76Z" stroke="#F9CACA" stroke-width="3" stroke-miterlimit="10"/>
<path d="M626.81 372.76L626.63 324.42H669.62V313.38H621.32V372.76H626.81Z" stroke="#F9CACA" stroke-width="3" stroke-miterlimit="10"/>
<path d="M643.87 335.07H627V340.02H643.87V335.07Z" stroke="#F9CACA" stroke-width="3" stroke-miterlimit="10"/>
<path d="M651.39 324.42H643.86V372.76H651.39V324.42Z" stroke="#F9CACA" stroke-width="3" stroke-miterlimit="10"/>
<path d="M669.62 372.76H626.81H621.32V313.38H669.62V372.76Z" fill="#CACACA"/>
<path d="M647.35 335.07H622.47V337.55H647.35V335.07Z" fill="#9B9B9B"/>
<path d="M652.63 314.9H647.35V372.76H652.63V314.9Z" fill="#9B9B9B"/>
<path d="M669.62 372.76H626.81H621.32V313.38H669.62V372.76Z" stroke="#7F7F7F" stroke-width="3" stroke-miterlimit="10"/>
<path d="M626.66 371.36L626.48 325.4H668.31V314.9H621.32V371.36H626.66Z" fill="#9B9B9B"/>
<path opacity="0.2" d="M668.31 371.36H626.66H621.32V314.9H668.31V371.36Z" fill="#CACACA"/>
<path opacity="0.41" d="M627.95 314.9H634.08L658.99 371.36H651.39L627.95 314.9Z" fill="#CACACA"/>
<path opacity="0.41" d="M647.35 314.9H653.85L668.31 351.62V359.78L647.35 314.9Z" fill="#CACACA"/>
<path d="M669.62 475.76H626.81H621.32V416.38H669.62V475.76Z" stroke="#F9CACA" stroke-width="3" stroke-miterlimit="10"/>
<path d="M626.81 475.76L626.63 427.42H669.62V416.38H621.32V475.76H626.81Z" stroke="#F9CACA" stroke-width="3" stroke-miterlimit="10"/>
<path d="M643.87 438.07H627V443.02H643.87V438.07Z" stroke="#F9CACA" stroke-width="3" stroke-miterlimit="10"/>
<path d="M651.39 427.42H643.86V475.76H651.39V427.42Z" stroke="#F9CACA" stroke-width="3" stroke-miterlimit="10"/>
<path d="M669.62 475.76H626.81H621.32V416.38H669.62V475.76Z" fill="#CACACA"/>
<path d="M647.35 438.07H622.47V440.55H647.35V438.07Z" fill="#9B9B9B"/>
<path d="M652.63 417.9H647.35V475.76H652.63V417.9Z" fill="#9B9B9B"/>
<path d="M669.62 475.76H626.81H621.32V416.38H669.62V475.76Z" stroke="#7F7F7F" stroke-width="3" stroke-miterlimit="10"/>
<path d="M626.66 474.36L626.48 428.4H668.31V417.9H621.32V474.36H626.66Z" fill="#9B9B9B"/>
<path opacity="0.2" d="M668.31 474.36H626.66H621.32V417.9H668.31V474.36Z" fill="#CACACA"/>
<path opacity="0.41" d="M627.95 417.9H634.08L658.99 474.36H651.39L627.95 417.9Z" fill="#CACACA"/>
<path opacity="0.41" d="M647.35 417.9H653.85L668.31 454.62V462.78L647.35 417.9Z" fill="#CACACA"/>
<path d="M669.62 576.76H626.81H621.32V517.38H669.62V576.76Z" stroke="#F9CACA" stroke-width="3" stroke-miterlimit="10"/>
<path d="M626.81 576.76L626.63 528.42H669.62V517.38H621.32V576.76H626.81Z" stroke="#F9CACA" stroke-width="3" stroke-miterlimit="10"/>
<path d="M643.87 539.07H627V544.02H643.87V539.07Z" stroke="#F9CACA" stroke-width="3" stroke-miterlimit="10"/>
<path d="M651.39 528.42H643.86V576.76H651.39V528.42Z" stroke="#F9CACA" stroke-width="3" stroke-miterlimit="10"/>
<path d="M669.62 576.76H626.81H621.32V517.38H669.62V576.76Z" fill="#CACACA"/>
<path d="M647.35 539.07H622.47V541.55H647.35V539.07Z" fill="#9B9B9B"/>
<path d="M652.63 518.9H647.35V576.76H652.63V518.9Z" fill="#9B9B9B"/>
<path d="M669.62 576.76H626.81H621.32V517.38H669.62V576.76Z" stroke="#7F7F7F" stroke-width="3" stroke-miterlimit="10"/>
<path d="M626.66 575.36L626.48 529.4H668.31V518.9H621.32V575.36H626.66Z" fill="#9B9B9B"/>
<path opacity="0.2" d="M668.31 575.36H626.66H621.32V518.9H668.31V575.36Z" fill="#CACACA"/>
<path opacity="0.41" d="M627.95 518.9H634.08L658.99 575.36H651.39L627.95 518.9Z" fill="#CACACA"/>
<path opacity="0.41" d="M647.35 518.9H653.85L668.31 555.62V563.78L647.35 518.9Z" fill="#CACACA"/>
<path d="M424.29 266.76H335.22H323.81V207.38H424.29V266.76Z" fill="#C7C7C7"/>
<path d="M355.4 229.07H325.2V231.55H355.4V229.07Z" fill="#9B9B9B"/>
<path d="M361.8 208.9H355.4V266.76H361.8V208.9Z" fill="#9B9B9B"/>
<path d="M413.487 228.755C413.291 232.377 408.11 233.485 404.568 232.508C402.266 231.875 401.287 231.324 401.643 228.813C402.219 224.741 404.544 222.855 407.095 222.555C410.387 222.167 413.65 225.77 413.487 228.755Z" fill="#606060"/>
<path d="M400.015 246.081C401.302 244.327 406.617 239.249 407.208 239.249C408.929 239.279 414.579 239.281 415.684 239.841L415.63 249.518C415.45 250.33 411.55 262.982 411.776 265.752L411.749 265.778C408.48 268.925 403.327 268.676 400.335 265.231C400.335 265.231 400.348 261.392 399.892 257.891C399.167 252.411 396.814 250.442 400.015 246.081Z" fill="#EAEAEA"/>
<path d="M408.94 233.805C408.94 233.805 408.79 237.375 409.113 238.729C409.435 240.082 409.863 240.185 407.101 240.597C406.016 240.759 404.969 241 404.969 241C404.969 241 405.253 239.012 405.301 238.173C405.371 236.791 404.982 232.521 404.982 232.521L408.94 233.805Z" fill="#F9F9F9"/>
<path d="M406.836 235.581C406.343 235.859 405.805 236.05 405.247 236.145C405.153 234.459 404.977 232.525 404.977 232.525L408.757 233.744C408.296 234.52 407.632 235.155 406.836 235.581Z" fill="#9F9FA0"/>
<path d="M381.932 262.973L383.017 264.393C383.017 264.393 393.08 260.121 394.925 258.449C395.526 257.905 396.79 256.86 398.221 255.701C401.184 253.299 404.864 250.4 404.864 250.4L406.273 249.168L411.086 244.974C411.086 244.974 408.693 243.587 406.996 243.188C406.434 243.056 405.949 243.032 405.651 243.201C403.172 244.61 398.366 249.232 394.95 252.534C393.045 254.375 391.573 255.807 391.172 256.046C390.058 256.717 384.923 261.128 381.932 262.973Z" fill="#F9F9F9"/>
<path d="M381.934 262.975C381.934 262.975 379.459 262.875 378.864 263.158C378.269 263.441 376.423 264.732 376.423 264.732C376.423 264.732 376.802 265.104 377.765 264.671C378.728 264.238 380.087 265.319 380.85 265.252C381.613 265.185 383.014 264.397 383.014 264.397L381.934 262.975Z" fill="#F9F9F9"/>
<path d="M382.574 264.629C382.574 264.629 381.348 265.736 380.728 265.875C380.107 266.015 379.179 266.311 379.111 266.002C379.043 265.694 380.48 264.56 380.48 264.56L382.574 264.629Z" fill="#F9F9F9"/>
<path d="M378.992 263.479C378.903 263.512 376.302 264.011 376.302 264.011C376.302 264.011 376.66 264.637 376.983 264.505C377.307 264.372 378.992 263.479 378.992 263.479Z" fill="#F9F9F9"/>
<path d="M409.057 245.315C408.872 248.685 402.674 254.449 402.674 254.449C402.674 254.449 397.689 249.956 397.024 248.469C397.024 248.469 403.027 242.876 403.412 242.538C405.153 241.025 406.744 241.505 407.74 241.944C408.545 242.289 409.057 245.315 409.057 245.315Z" fill="#DEDEDE"/>
<path d="M408.183 245.686C405.672 242.784 405.377 237.134 407.713 234.127C406.655 232.258 405.78 232.44 406.368 230.386C407.53 226.336 402.96 223.018 407.427 222.533C411.906 222.284 414.304 225.474 415.918 228.407C416.636 229.745 417.632 230.914 418.839 231.836C421.265 233.649 422.164 237.297 420.25 240.694C422.189 242.172 423.542 245.841 421.744 248.47C421.313 249.102 420.525 249.8 420.474 249.99C420.548 249.757 421.571 256.338 414.084 257.462C406.444 258.609 405.936 251.385 408.183 245.686Z" fill="#606060"/>
<path d="M407.715 224.741C407.715 224.741 409.304 225.351 410.093 227.01C410.883 228.67 410.232 233.85 406.581 235.409C402.931 236.968 401.454 233.006 401.838 230.146C402.222 227.285 403.419 223.571 407.715 224.741Z" fill="#F9F9F9"/>
<path d="M411.004 230.19C411.239 227.46 410.812 225.458 408.797 224.692C406.782 223.926 405.051 223.133 403.537 225.074L403.175 225.332C403.175 225.332 406.49 225.868 406.855 227.551C407.22 229.234 409.151 231.071 408.979 231.936C408.807 232.802 408.687 234.496 408.687 234.496L409.329 233.841C409.329 233.841 410.769 232.92 411.004 230.19Z" fill="#606060"/>
<path d="M407.903 229.827C407.604 230.558 407.773 231.311 408.282 231.51C408.79 231.71 409.445 231.279 409.745 230.548C410.044 229.817 409.873 229.065 409.365 228.865C408.856 228.666 408.201 229.098 407.903 229.827Z" fill="#F9F9F9"/>
<path d="M424.29 266.76H335.22H323.81V207.38H424.29V266.76Z" stroke="#F9CACA" stroke-width="3" stroke-miterlimit="10"/>
<path d="M424.29 266.76H335.22H323.81V207.38H424.29V266.76Z" stroke="#7F7F7F" stroke-width="3" stroke-miterlimit="10"/>
<path d="M335.95 266.76L335.58 218.42H422.88V207.38H324.81V266.76H335.95Z" fill="#9B9B9B"/>
<path opacity="0.2" d="M422.76 266.76H335.94H324.81V207.38H422.76V266.76Z" fill="#CACACA"/>
<path opacity="0.41" d="M344.52 207.38H355.4L402.6 265.36H380.28L344.52 207.38Z" fill="#CACACA"/>
<path opacity="0.41" d="M363.96 207.38L412.44 265.36H417.96L369.24 207.38H363.96Z" fill="#CACACA"/>
<path d="M518.93 266.76H466.98H460.32V207.38H518.93V266.76Z" stroke="#F9CACA" stroke-width="3" stroke-miterlimit="10"/>
<path d="M466.98 266.76L466.76 218.42H518.93V207.38H460.32V266.76H466.98Z" stroke="#F9CACA" stroke-width="3" stroke-miterlimit="10"/>
<path d="M487.68 229.07H467.21V234.02H487.68V229.07Z" stroke="#F9CACA" stroke-width="3" stroke-miterlimit="10"/>
<path d="M496.81 218.42H487.68V266.76H496.81V218.42Z" stroke="#F9CACA" stroke-width="3" stroke-miterlimit="10"/>
<path d="M518.93 266.76H466.98H460.32V207.38H518.93V266.76Z" fill="#CACACA"/>
<path d="M491.91 229.07H461.71V231.55H491.91V229.07Z" fill="#9B9B9B"/>
<path d="M498.31 208.9H491.91V266.76H498.31V208.9Z" fill="#9B9B9B"/>
<path d="M518.93 266.76H466.98H460.32V207.38H518.93V266.76Z" stroke="#7F7F7F" stroke-width="3" stroke-miterlimit="10"/>
<path d="M466.8 265.36L466.58 219.4H517.35V208.9H460.32V265.36H466.8Z" fill="#9B9B9B"/>
<path opacity="0.2" d="M517.35 265.36H466.8H460.32V208.9H517.35V265.36Z" fill="#CACACA"/>
<path opacity="0.41" d="M468.36 208.9H475.8L506.04 265.36H496.82L468.36 208.9Z" fill="#CACACA"/>
<path opacity="0.41" d="M491.91 208.9H499.8L517.35 245.62V253.78L491.91 208.9Z" fill="#CACACA"/>
<path d="M424.29 376.76H335.22H323.81V317.38H424.29V376.76Z" fill="#CACACA"/>
<path d="M355.4 339.07H325.2V341.55H355.4V339.07Z" fill="#9B9B9B"/>
<path d="M361.8 318.9H355.4V376.76H361.8V318.9Z" fill="#9B9B9B"/>
<path d="M424.29 376.76H335.22H323.81V317.38H424.29V376.76Z" stroke="#F9CACA" stroke-width="3" stroke-miterlimit="10"/>
<path d="M424.29 376.76H335.22H323.81V317.38H424.29V376.76Z" stroke="#7F7F7F" stroke-width="3" stroke-miterlimit="10"/>
<path d="M335.95 376.76L335.58 328.42H422.88V317.38H324.81V376.76H335.95Z" fill="#9B9B9B"/>
<path opacity="0.2" d="M422.76 376.76H335.94H324.81V317.38H422.76V376.76Z" fill="#CACACA"/>
<path opacity="0.41" d="M344.52 317.38H355.4L402.6 375.36H380.28L344.52 317.38Z" fill="#CACACA"/>
<path opacity="0.41" d="M363.96 317.38L412.44 375.36H417.96L369.24 317.38H363.96Z" fill="#CACACA"/>
<path d="M518.93 376.76H466.98H460.32V317.38H518.93V376.76Z" stroke="#F9CACA" stroke-width="3" stroke-miterlimit="10"/>
<path d="M466.98 376.76L466.76 328.42H518.93V317.38H460.32V376.76H466.98Z" stroke="#F9CACA" stroke-width="3" stroke-miterlimit="10"/>
<path d="M487.68 339.07H467.21V344.02H487.68V339.07Z" stroke="#F9CACA" stroke-width="3" stroke-miterlimit="10"/>
<path d="M496.81 328.42H487.68V376.76H496.81V328.42Z" stroke="#F9CACA" stroke-width="3" stroke-miterlimit="10"/>
<path d="M518.93 376.76H466.98H460.32V317.38H518.93V376.76Z" fill="#CACACA"/>
<path d="M491.91 339.07H461.71V341.55H491.91V339.07Z" fill="#9B9B9B"/>
<path d="M498.31 318.9H491.91V376.76H498.31V318.9Z" fill="#9B9B9B"/>
<path d="M518.93 376.76H466.98H460.32V317.38H518.93V376.76Z" stroke="#7F7F7F" stroke-width="3" stroke-miterlimit="10"/>
<path d="M466.8 375.36L466.58 329.4H517.35V318.9H460.32V375.36H466.8Z" fill="#9B9B9B"/>
<path opacity="0.2" d="M517.35 375.36H466.8H460.32V318.9H517.35V375.36Z" fill="#CACACA"/>
<path opacity="0.41" d="M468.36 318.9H475.8L506.04 375.36H496.82L468.36 318.9Z" fill="#CACACA"/>
<path opacity="0.41" d="M491.91 318.9H499.8L517.35 355.62V363.78L491.91 318.9Z" fill="#CACACA"/>
<path d="M424.29 477.76H335.22H323.81V418.38H424.29V477.76Z" fill="#CACACA"/>
<path d="M355.4 440.07H325.2V442.55H355.4V440.07Z" fill="#9B9B9B"/>
<path d="M361.8 419.9H355.4V477.76H361.8V419.9Z" fill="#9B9B9B"/>
<path d="M424.29 477.76H335.22H323.81V418.38H424.29V477.76Z" stroke="#F9CACA" stroke-width="3" stroke-miterlimit="10"/>
<path d="M424.29 477.76H335.22H323.81V418.38H424.29V477.76Z" stroke="#7F7F7F" stroke-width="3" stroke-miterlimit="10"/>
<path d="M335.95 477.76L335.58 429.42H422.88V418.38H324.81V477.76H335.95Z" fill="#9B9B9B"/>
<path opacity="0.2" d="M422.76 477.76H335.94H324.81V418.38H422.76V477.76Z" fill="#CACACA"/>
<path opacity="0.41" d="M344.52 418.38H355.4L402.6 476.36H380.28L344.52 418.38Z" fill="#CACACA"/>
<path opacity="0.41" d="M363.96 418.38L412.44 476.36H417.96L369.24 418.38H363.96Z" fill="#CACACA"/>
<path d="M518.93 477.76H466.98H460.32V418.38H518.93V477.76Z" stroke="#F9CACA" stroke-width="3" stroke-miterlimit="10"/>
<path d="M466.98 477.76L466.76 429.42H518.93V418.38H460.32V477.76H466.98Z" stroke="#F9CACA" stroke-width="3" stroke-miterlimit="10"/>
<path d="M487.68 440.07H467.21V445.02H487.68V440.07Z" stroke="#F9CACA" stroke-width="3" stroke-miterlimit="10"/>
<path d="M496.81 429.42H487.68V477.76H496.81V429.42Z" stroke="#F9CACA" stroke-width="3" stroke-miterlimit="10"/>
<path d="M518.93 477.76H466.98H460.32V418.38H518.93V477.76Z" fill="#CACACA"/>
<path d="M491.91 440.07H461.71V442.55H491.91V440.07Z" fill="#9B9B9B"/>
<path d="M498.31 419.9H491.91V477.76H498.31V419.9Z" fill="#9B9B9B"/>
<path d="M518.93 477.76H466.98H460.32V418.38H518.93V477.76Z" stroke="#7F7F7F" stroke-width="3" stroke-miterlimit="10"/>
<path d="M466.8 476.36L466.58 430.4H517.35V419.9H460.32V476.36H466.8Z" fill="#9B9B9B"/>
<path opacity="0.2" d="M517.35 476.36H466.8H460.32V419.9H517.35V476.36Z" fill="#CACACA"/>
<path opacity="0.41" d="M468.36 419.9H475.8L506.04 476.36H496.82L468.36 419.9Z" fill="#CACACA"/>
<path opacity="0.41" d="M491.91 419.9H499.8L517.35 456.62V464.78L491.91 419.9Z" fill="#CACACA"/>
<path d="M424.29 577.76H335.22H323.81V518.38H424.29V577.76Z" fill="#CACACA"/>
<path d="M355.4 540.07H325.2V542.55H355.4V540.07Z" fill="#9B9B9B"/>
<path d="M361.8 519.9H355.4V577.76H361.8V519.9Z" fill="#9B9B9B"/>
<path d="M424.29 577.76H335.22H323.81V518.38H424.29V577.76Z" stroke="#F9CACA" stroke-width="3" stroke-miterlimit="10"/>
<path d="M424.29 577.76H335.22H323.81V518.38H424.29V577.76Z" stroke="#7F7F7F" stroke-width="3" stroke-miterlimit="10"/>
<path d="M335.95 577.76L335.58 529.42H422.88V518.38H324.81V577.76H335.95Z" fill="#9B9B9B"/>
<path opacity="0.2" d="M422.76 577.76H335.94H324.81V518.38H422.76V577.76Z" fill="#CACACA"/>
<path opacity="0.41" d="M344.52 518.38H355.4L402.6 576.36H380.28L344.52 518.38Z" fill="#CACACA"/>
<path opacity="0.41" d="M363.96 518.38L412.44 576.36H417.96L369.24 518.38H363.96Z" fill="#CACACA"/>
<path d="M518.93 577.76H466.98H460.32V518.38H518.93V577.76Z" stroke="#F9CACA" stroke-width="3" stroke-miterlimit="10"/>
<path d="M466.98 577.76L466.76 529.42H518.93V518.38H460.32V577.76H466.98Z" stroke="#F9CACA" stroke-width="3" stroke-miterlimit="10"/>
<path d="M487.68 540.07H467.21V545.02H487.68V540.07Z" stroke="#F9CACA" stroke-width="3" stroke-miterlimit="10"/>
<path d="M496.81 529.42H487.68V577.76H496.81V529.42Z" stroke="#F9CACA" stroke-width="3" stroke-miterlimit="10"/>
<path d="M518.93 577.76H466.98H460.32V518.38H518.93V577.76Z" fill="#CACACA"/>
<path d="M491.91 540.07H461.71V542.55H491.91V540.07Z" fill="#9B9B9B"/>
<path d="M498.31 519.9H491.91V577.76H498.31V519.9Z" fill="#9B9B9B"/>
<path d="M518.93 577.76H466.98H460.32V518.38H518.93V577.76Z" stroke="#7F7F7F" stroke-width="3" stroke-miterlimit="10"/>
<path d="M466.8 576.36L466.58 530.4H517.35V519.9H460.32V576.36H466.8Z" fill="#9B9B9B"/>
<path opacity="0.2" d="M517.35 576.36H466.8H460.32V519.9H517.35V576.36Z" fill="#CACACA"/>
<path opacity="0.41" d="M468.36 519.9H475.8L506.04 576.36H496.82L468.36 519.9Z" fill="#CACACA"/>
<path opacity="0.41" d="M491.91 519.9H499.8L517.35 556.62V564.78L491.91 519.9Z" fill="#CACACA"/>
<path d="M210.38 556.44H169.27V628.3H210.38V556.44Z" fill="#F9F9F9"/>
<path d="M266.18 556.44H225.07V628.3H266.18V556.44Z" fill="#F9F9F9"/>
<path opacity="0.4" d="M169.92 546.54L201.36 628.3H227.38L194.07 546.54H169.92Z" fill="#CACACA"/>
<path opacity="0.4" d="M208.43 546.54L239.14 628.3H257.16L224.58 546.54H208.43Z" fill="#CACACA"/>
<g filter="url(#filter0_d)">
<path d="M3 630.03H891.4" stroke="#828181" stroke-width="3" stroke-miterlimit="10" stroke-linecap="round"/>
</g>
<path opacity="0.58" d="M316.2 44.8901H308.58V70.7701H316.2V44.8901Z" fill="#9B9B9B"/>
<path d="M551.41 242.59V28.1401H622.39" stroke="#9B9B9B" stroke-width="3" stroke-miterlimit="10" stroke-linecap="round"/>
<path d="M554.84 460.64L555.47 610.49" stroke="#9B9B9B" stroke-width="3" stroke-miterlimit="10" stroke-linecap="round"/>
<path d="M702.64 610.49H555.47V628.3H702.64V610.49Z" fill="#919090"/>
<path d="M702.65 263.36V556.44" stroke="#9B9B9B" stroke-width="3" stroke-miterlimit="10" stroke-linecap="round"/>
<path d="M146.44 70.77V266.76" stroke="#9B9B9B" stroke-width="3" stroke-miterlimit="10" stroke-linecap="round"/>
<path d="M123.6 512.29H232.8" stroke="#9B9B9B" stroke-width="3" stroke-miterlimit="10" stroke-linecap="round"/>
<path d="M274.32 512.29L275.34 336.31" stroke="#9B9B9B" stroke-width="3" stroke-miterlimit="10" stroke-linecap="round"/>
<path d="M275.34 70.77V205.38" stroke="#9B9B9B" stroke-width="3" stroke-miterlimit="10" stroke-linecap="round"/>
<path d="M146.44 405.1V488.62" stroke="#9B9B9B" stroke-width="3" stroke-miterlimit="10" stroke-linecap="round"/>
<path d="M170.4 28.1401H361.45" stroke="#878787" stroke-width="3" stroke-miterlimit="10" stroke-linecap="round"/>
<path d="M152.53 14.82V1.5H255.24" stroke="#878787" stroke-width="3" stroke-miterlimit="10" stroke-linecap="round"/>
<path d="M542.76 1.5H715.08V28.14" stroke="#878787" stroke-width="3" stroke-miterlimit="10" stroke-linecap="round"/>
<path d="M306.8 79.8999V284.14" stroke="#9B9B9B" stroke-width="3" stroke-miterlimit="10" stroke-linecap="round"/>
<path d="M306.8 610.49L308.58 481.1" stroke="#9B9B9B" stroke-width="3" stroke-miterlimit="10" stroke-linecap="round"/>
<path d="M278.13 512.29H123.6V532.08H278.13V512.29Z" fill="#9B9B9B"/>
<path d="M189.83 532.08H123.6" stroke="#898989" stroke-width="3" stroke-miterlimit="10" stroke-linecap="round"/>
<path d="M262.92 532.08H275.34V617.74" stroke="#898989" stroke-width="3" stroke-miterlimit="10" stroke-linecap="round"/>
</g>
<defs>
<filter id="filter0_d" x="-2.5" y="628.53" width="899.4" height="11" filterUnits="userSpaceOnUse" color-interpolation-filters="sRGB">
<feFlood flood-opacity="0" result="BackgroundImageFix"/>
<feColorMatrix in="SourceAlpha" type="matrix" values="0 0 0 0 0 0 0 0 0 0 0 0 0 0 0 0 0 0 127 0"/>
<feOffset dy="4"/>
<feGaussianBlur stdDeviation="2"/>
<feColorMatrix type="matrix" values="0 0 0 0 0 0 0 0 0 0 0 0 0 0 0 0 0 0 0.25 0"/>
<feBlend mode="normal" in2="BackgroundImageFix" result="effect1_dropShadow"/>
<feBlend mode="normal" in="SourceGraphic" in2="effect1_dropShadow" result="shape"/>
</filter>
<clipPath id="clip0">
<rect width="894.4" height="633.03" fill="white"/>
</clipPath>
</defs>
</svg>
