<svg width="450" height="440" viewBox="0 0 450 440" fill="none" xmlns="http://www.w3.org/2000/svg">
<g clip-path="url(#clip0)">
<path d="M215.847 189.679L213.336 186.423L273.849 141.04L312.747 177.939L355.781 228.107L351.35 231.807L272.028 146.861L215.847 189.679Z" fill="#F6F6F6"/>
<path d="M435.399 409.591C438.826 409.591 441.603 409.48 441.603 409.344C441.603 409.208 438.826 409.097 435.399 409.097C431.973 409.097 429.195 409.208 429.195 409.344C429.195 409.48 431.973 409.591 435.399 409.591Z" fill="#DFDEDD"/>
<path d="M446.972 357.597C447.12 357.104 447.169 356.611 447.169 356.019C447.169 353.552 445.79 351.579 444.018 351.579C443.771 351.579 443.525 351.628 443.279 351.678C443.033 345.067 440.177 339.839 436.632 339.789C433.284 339.789 430.428 344.476 429.935 350.642C427.424 352.319 425.701 355.821 425.652 359.817C425.652 361.741 426.046 363.517 426.686 365.095C424.372 366.526 422.845 368.696 422.845 371.114C422.845 375.455 427.523 378.957 433.333 379.006C437.666 379.006 441.408 377.082 443.033 374.271C443.476 374.369 443.919 374.419 444.411 374.419C448.351 374.419 451.6 370.571 451.6 365.737C451.699 362.037 449.729 358.83 446.972 357.597Z" fill="#F1F0F2"/>
<path d="M446.971 357.597C446.971 357.597 440.028 354.835 434.661 359.62C429.344 364.405 425.651 356.808 427.473 353.306C426.34 355.082 425.651 357.4 425.651 359.916C425.651 361.84 426.045 363.616 426.685 365.194C424.371 366.625 422.844 368.795 422.844 371.212C422.844 375.553 427.522 379.056 433.332 379.105C437.665 379.105 441.407 377.181 443.032 374.369C443.475 374.468 443.918 374.517 444.41 374.517C448.35 374.517 451.599 370.67 451.599 365.835C451.698 362.037 449.728 358.831 446.971 357.597Z" fill="#E6E6E8"/>
<path d="M438.551 408.802C438.256 408.802 438.059 408.703 438.059 408.456L438.305 354.588C438.305 354.292 438.551 354.095 438.798 354.095C439.093 354.095 439.29 354.342 439.29 354.588L439.044 408.456C439.044 408.703 438.798 408.802 438.551 408.802Z" fill="#CACACB"/>
<path d="M438.699 373.679C437.272 373.679 436.09 373.185 435.154 372.15C432.545 369.338 432.84 363.714 432.84 363.467C432.84 363.172 433.086 362.974 433.382 362.974C433.677 362.974 433.874 363.221 433.874 363.517C433.874 363.566 433.628 368.992 435.942 371.459C436.681 372.248 437.616 372.643 438.749 372.643C439.044 372.643 439.241 372.889 439.241 373.136C439.192 373.481 438.995 373.679 438.699 373.679Z" fill="#DDDDDD"/>
<path d="M438.748 384.975C438.699 384.975 438.699 384.975 438.65 384.975C438.354 384.975 438.158 384.728 438.207 384.432C438.207 384.136 438.453 383.939 438.748 383.988C438.945 383.988 439.142 383.939 439.339 383.742C439.979 383.199 441.112 381.275 442.047 374.468C442.589 370.521 442.786 366.871 442.786 366.822C442.786 366.526 443.032 366.328 443.328 366.328C443.623 366.328 443.82 366.575 443.82 366.871C443.82 366.92 443.623 370.62 443.081 374.566C442.737 376.885 442.392 378.858 441.949 380.437C441.407 382.459 440.767 383.791 440.029 384.432C439.536 384.778 439.142 384.975 438.748 384.975Z" fill="#DDDDDD"/>
<path d="M438.846 405.003C438.945 404.51 438.846 404.017 438.551 403.622C438.206 403.129 437.665 403.08 437.271 403.375C436.828 402.537 436.089 402.044 435.301 402.044C434.07 402.044 433.036 403.277 432.839 404.855C432.15 405.151 431.658 406.039 431.658 407.026C431.658 408.308 432.396 409.344 433.332 409.344H438.059C438.994 409.344 439.733 408.308 439.733 407.026C439.782 406.187 439.388 405.398 438.846 405.003Z" fill="#EDEFEF"/>
<path d="M436.336 408.9L436.188 408.555C435.991 408.012 436.089 407.421 436.385 407.026L436.73 406.533C437.025 406.138 437.419 405.99 437.813 406.089L438.256 406.237C438.404 406.286 438.601 406.237 438.699 406.089L439.044 405.743C439.487 405.299 440.078 405.299 440.472 405.793L440.964 406.335C441.358 406.779 441.456 407.47 441.21 408.062L440.866 408.9C440.767 409.147 440.57 409.295 440.373 409.295H436.779C436.631 409.344 436.434 409.196 436.336 408.9Z" fill="#EDEFEF"/>
<path d="M439.241 409.344C438.207 408.407 438.158 407.124 438.404 406.236C438.355 406.236 438.305 406.236 438.256 406.236L437.813 406.088C437.419 405.99 437.025 406.138 436.73 406.532L436.385 407.026C436.09 407.42 436.04 408.062 436.188 408.555L436.336 408.9C436.434 409.147 436.631 409.344 436.828 409.344C436.877 409.344 439.29 409.393 439.241 409.344Z" fill="#E9E8EA"/>
<path d="M440.127 407.273C440.078 407.273 440.078 407.273 440.029 407.223C439.979 407.125 439.979 407.026 440.029 406.927L440.275 406.631C440.324 406.533 440.423 406.533 440.472 406.631C440.521 406.73 440.521 406.829 440.472 406.927L440.226 407.223C440.176 407.223 440.127 407.273 440.127 407.273Z" fill="#E9E8EA"/>
<path d="M440.127 408.407C440.078 408.407 440.078 408.407 440.029 408.358C439.979 408.259 439.979 408.16 440.029 408.062L440.472 407.47C440.521 407.371 440.619 407.371 440.669 407.47C440.718 407.568 440.718 407.667 440.669 407.766L440.226 408.358C440.176 408.407 440.127 408.407 440.127 408.407Z" fill="#E9E8EA"/>
<path d="M437.025 403.72C436.976 403.72 436.976 403.72 436.927 403.671C436.877 403.572 436.877 403.473 436.927 403.375L437.616 402.388C437.665 402.289 437.764 402.289 437.813 402.388C437.862 402.487 437.862 402.585 437.813 402.684L437.124 403.671C437.074 403.671 437.025 403.72 437.025 403.72Z" fill="#EDEFEF"/>
<path d="M433.48 406.088C433.43 406.088 433.43 406.088 433.381 406.039L432.692 405.052C432.642 404.954 432.642 404.855 432.692 404.756C432.741 404.658 432.839 404.658 432.889 404.756L433.578 405.743C433.627 405.842 433.627 405.94 433.578 406.039C433.529 406.088 433.48 406.088 433.48 406.088Z" fill="#E9E8EA"/>
<path d="M434.71 403.425C434.71 403.524 434.661 403.622 434.562 403.622C434.464 403.622 434.415 403.524 434.415 403.425C434.415 403.326 434.464 403.228 434.562 403.228C434.661 403.228 434.71 403.326 434.71 403.425Z" fill="#E9E8EA"/>
<path d="M436.384 405.99C436.384 406.089 436.335 406.187 436.237 406.187C436.138 406.187 436.089 406.089 436.089 405.99C436.089 405.891 436.138 405.793 436.237 405.793C436.335 405.793 436.384 405.891 436.384 405.99Z" fill="#E9E8EA"/>
<path d="M434.612 405.498C433.972 404.758 433.874 403.032 434.563 402.095C433.677 402.44 432.988 403.476 432.84 404.758C432.151 405.054 431.658 405.942 431.658 406.978C431.658 408.261 432.446 409.247 433.382 409.247H435.351C434.268 408.508 434.268 407.126 434.711 406.189C434.809 405.992 434.809 405.646 434.612 405.498Z" fill="#E9E8EA"/>
<path d="M432.544 406.089C432.938 406.582 433.43 406.78 433.775 406.829C434.021 406.878 434.218 406.582 434.169 406.286C434.119 405.793 433.972 405.053 433.627 404.56C433.282 404.067 432.741 403.869 432.396 403.82C432.15 403.771 431.953 404.067 432.002 404.363C432.051 404.856 432.199 405.596 432.544 406.089Z" fill="#EDEFEF"/>
<path d="M450.614 265.351C454.701 265.351 458 262.046 458 257.951C458 253.857 454.701 250.552 450.614 250.552C449.925 250.552 449.236 250.65 448.596 250.848C448.743 250.305 448.792 249.713 448.792 249.072C448.792 247.641 448.399 246.309 447.709 245.126C450.959 243.744 453.273 240.489 453.273 236.739C453.273 232.744 450.713 229.389 447.168 228.156C447.512 227.12 447.709 226.035 447.709 224.9C447.709 219.375 443.229 214.886 437.714 214.886C435.695 214.886 433.824 215.478 432.249 216.514C431.362 214.788 429.54 213.653 427.472 213.653C426.685 213.653 425.946 213.85 425.257 214.146C425.011 210.101 421.662 206.846 417.526 206.846C414.375 206.846 411.667 208.72 410.485 211.433C408.762 209.509 406.251 208.326 403.444 208.326C398.274 208.326 394.089 212.42 393.892 217.6C392.464 216.761 390.79 216.317 389.018 216.317C383.601 216.317 379.17 220.757 379.17 226.183C379.17 227.663 379.515 229.093 380.105 230.327C380.056 230.327 380.056 230.327 380.007 230.327C377.89 230.327 376.117 231.807 375.477 233.878C371.637 233.977 368.485 237.085 368.485 240.982C368.485 243.942 370.258 246.457 372.818 247.543C372.523 249.467 372.326 251.44 372.326 253.462C372.326 273.243 384.34 291.249 404.084 291.249C404.478 291.249 406.842 292.038 407.236 292.038C407.826 294.554 412.061 293.617 414.72 293.617C416.985 293.617 418.954 292.235 419.89 290.312C421.219 291.298 422.893 291.89 424.666 291.89C427.965 291.89 430.771 289.966 432.052 287.155C434.563 289.226 437.862 290.46 441.505 290.46C449.285 290.46 455.538 289.621 455.538 277.733C455.538 272.849 452.535 268.606 448.103 266.485C448.349 266.041 448.497 265.597 448.596 265.104C449.334 265.252 449.974 265.351 450.614 265.351Z" fill="#F9F9FA"/>
<path d="M414.621 248.579C415.056 248.579 415.409 248.225 415.409 247.789C415.409 247.353 415.056 247 414.621 247C414.186 247 413.833 247.353 413.833 247.789C413.833 248.225 414.186 248.579 414.621 248.579Z" fill="#707071"/>
<path d="M384.536 234.026C383.896 232.793 383.502 231.362 383.502 229.833C383.502 224.95 387.293 221.003 391.971 221.003C393.497 221.003 394.925 221.447 396.205 222.187C396.353 217.599 399.997 213.9 404.428 213.9C406.841 213.9 409.007 214.985 410.484 216.662C411.518 214.245 413.882 212.568 416.59 212.568C420.135 212.568 423.04 215.429 423.237 219.079C423.828 218.783 424.468 218.635 425.157 218.635C426.93 218.635 428.505 219.671 429.244 221.201C430.623 220.263 432.198 219.721 433.971 219.721C438.698 219.721 442.587 223.716 442.587 228.649C442.587 229.685 442.44 230.672 442.095 231.56C445.148 232.694 447.363 235.703 447.363 239.255C447.363 242.61 445.394 245.52 442.587 246.753C443.178 247.789 443.523 248.973 443.523 250.256C443.523 250.798 443.474 251.341 443.326 251.834C443.868 251.686 444.458 251.588 445.049 251.588C448.545 251.588 451.401 254.547 451.401 258.198C451.401 261.848 448.545 264.808 445.049 264.808C444.508 264.808 443.917 264.709 443.424 264.611C443.326 265.055 443.178 265.449 442.981 265.844C446.822 267.768 449.382 271.566 449.382 275.907C449.382 282.221 443.966 287.302 437.27 287.302C434.118 287.302 431.263 286.168 429.145 284.343C428.013 286.858 425.6 288.585 422.744 288.585C421.218 288.585 419.79 288.092 418.608 287.204C417.821 288.93 416.147 290.164 414.177 290.164C411.863 290.164 409.943 288.486 409.401 286.266C409.056 286.266 408.712 286.266 408.416 286.266C391.38 286.266 377.593 271.912 377.593 254.202C377.593 246.556 380.203 239.502 384.536 234.026Z" fill="white"/>
<path d="M409.944 277.585C410.436 284.145 410.682 294.949 410.879 300.326C410.879 300.819 411.569 300.967 411.815 300.523C414.08 295.738 418.413 291.94 423.09 286.908C424.42 285.477 426.488 285.576 427.669 287.155C428.309 287.993 428.506 288.733 428.162 289.177C427.571 289.966 418.56 297.613 417.576 299.487C415.311 302.102 412.209 308.317 411.864 312.313C411.076 321.932 411.815 341.96 411.47 351.629H403.789C403.69 349.063 403.887 336.386 403.937 335.152C404.084 331.107 406.546 309.55 402.755 297.958C400.736 291.693 396.699 282.666 396.649 275.661C399.21 280.298 400.145 286.02 402.41 290.953C403.198 292.729 404.232 294.603 405.168 296.527C405.857 297.908 407.876 297.317 407.777 295.787C407.236 289.325 406.349 281.334 405.906 278.029C405.808 277.437 406.005 276.795 406.448 276.351C407.629 275.019 409.796 275.809 409.944 277.585Z" fill="#D8D8D8"/>
<path d="M437.96 288.585L422.597 277.486L422.105 279.805C422.105 279.805 421.366 284.392 426.438 288.289C431.46 292.137 436.187 290.114 437.96 288.585Z" fill="white"/>
<path d="M437.271 289.127C437.271 289.127 432.544 292.334 427.275 288.881C422.007 285.428 421.662 281.333 422.253 278.324" stroke="#DCDBDB" stroke-width="3" stroke-miterlimit="10" stroke-linecap="round"/>
<path d="M390.594 430.063C396.739 430.063 401.721 429.643 401.721 429.126C401.721 428.608 396.739 428.188 390.594 428.188C384.448 428.188 379.466 428.608 379.466 429.126C379.466 429.643 384.448 430.063 390.594 430.063Z" fill="#DFDEDD"/>
<path d="M375.231 425.13C381.377 425.13 386.359 424.71 386.359 424.193C386.359 423.675 381.377 423.255 375.231 423.255C369.085 423.255 364.103 423.675 364.103 424.193C364.103 424.71 369.085 425.13 375.231 425.13Z" fill="#DFDEDD"/>
<path d="M419.595 295.836L419.201 417.434L432.15 409.689V308.169L419.595 295.836Z" fill="#FCFDFD"/>
<path d="M408.614 230.129L441.702 262.638L443.721 259.332L411.815 225.492L408.614 230.129Z" fill="#F6F6F6"/>
<path d="M222.889 179.961L300.685 179.221L313.043 191.553L312.059 289.177H274.539V234.026L222.889 179.961Z" fill="white"/>
<path d="M303.885 168.714L330.178 143.605L366.614 173.005L308.612 172.956L303.885 168.714Z" fill="white"/>
<path d="M313.93 174.288C313.93 174.288 365.826 174.979 367.205 174.288C368.584 173.598 376.905 179.961 376.905 179.961V294.505H356.176L357.062 238.219L367.894 246.507L374.738 242.018L346.525 208.967L308.957 174.288H313.93Z" fill="#F9F9FA"/>
<path d="M269.763 288.536C269.763 288.536 268.581 298.797 269.763 298.649C270.944 298.501 312.058 298.007 312.058 298.007V289.227L269.763 288.536Z" fill="#F3F3F3"/>
<path d="M310.975 299.882L271.24 299.142V427.152L312.059 430.458L310.975 299.882Z" fill="white"/>
<path d="M312.748 290.41L312.994 299.437L355.437 312.954L355.782 303.976L312.748 290.41Z" fill="white"/>
<path d="M356.176 294.505H418.413V417.829L356.176 415.215V294.505Z" fill="#F9F9FA"/>
<path d="M419.003 294.505L432.101 307.774V410.331L418.413 417.829L419.003 294.505Z" stroke="#DFDEDD" stroke-width="2" stroke-miterlimit="10"/>
<path d="M215.404 104.338L215.601 183.513L234.509 169.355L260.408 150.56V147.255L215.404 104.338Z" fill="#FBFCFC"/>
<path d="M124.708 104.338L214.518 105.473L215.601 183.513L197.432 196.782L124.708 104.338Z" fill="#F9F9FA"/>
<path d="M122.739 104.338L176.999 66.5022L215.405 104.338H122.739Z" fill="#FBFCFC"/>
<path d="M384.783 181.638L424.173 227.515L440.323 253.363V255.238L412.652 226.38L382.469 179.221L384.783 181.638Z" fill="white"/>
<path d="M376.955 181.934L411.815 233.286V294.505H376.955V181.934Z" fill="white"/>
<path d="M406.25 344.87H381.779V368.746H406.25V344.87Z" stroke="#DFDEDD" stroke-width="2" stroke-miterlimit="10"/>
<path d="M406.25 311.08H381.779V334.955H406.25V311.08Z" stroke="#DFDEDD" stroke-width="2" stroke-miterlimit="10"/>
<path d="M314.668 193.28L350.218 232.349L356.176 236.345L355.782 303.976L312.059 289.177L313.043 191.554L314.668 193.28Z" fill="#FCFDFD"/>
<path d="M388.23 338.655C388.427 337.817 388.575 336.929 388.575 336.041C388.575 331.897 386.162 328.543 383.257 328.543C382.814 328.543 382.42 328.592 382.026 328.74C381.534 317.542 376.659 308.761 370.701 308.761C365.039 308.761 360.312 316.753 359.475 327.161C355.241 330.022 352.335 335.942 352.335 342.75C352.335 346.005 352.976 349.014 354.157 351.629C350.218 354.046 347.756 357.696 347.756 361.791C347.756 369.092 355.733 375.011 365.531 375.011C372.868 375.011 379.17 371.706 381.878 366.97C382.617 367.168 383.405 367.266 384.192 367.266C390.889 367.266 396.305 360.656 396.305 352.566C396.207 346.104 392.858 340.678 388.23 338.655Z" fill="#EEEEEF"/>
<path d="M388.229 338.655C388.229 338.655 376.461 334.067 367.5 342.158C358.538 350.248 352.285 337.471 355.289 331.552C353.418 334.561 352.285 338.458 352.285 342.7C352.285 345.956 352.925 348.965 354.107 351.58C350.168 353.997 347.706 357.647 347.706 361.741C347.706 369.042 355.683 374.962 365.481 374.962C372.817 374.962 379.12 371.657 381.828 366.921C382.567 367.118 383.354 367.217 384.142 367.217C390.839 367.217 396.255 360.607 396.255 352.517C396.205 346.104 392.857 340.678 388.229 338.655Z" fill="#E0E0E0"/>
<path d="M374.393 425.13C373.95 425.13 373.556 424.982 373.556 424.538V333.525C373.556 333.081 373.95 332.686 374.393 332.686C374.836 332.686 375.23 333.081 375.23 333.525V424.538C375.23 424.982 374.836 425.13 374.393 425.13Z" fill="#CCCACA"/>
<path d="M374.394 365.836C372.03 365.836 370.011 364.997 368.436 363.32C364.004 358.633 364.398 349.063 364.447 348.669C364.447 348.225 364.841 347.83 365.334 347.879C365.777 347.879 366.171 348.274 366.122 348.767C366.122 348.866 365.728 358.041 369.667 362.185C370.947 363.517 372.522 364.208 374.443 364.208C374.886 364.208 375.28 364.602 375.28 365.046C375.231 365.49 374.837 365.836 374.394 365.836Z" fill="#B7B7B7"/>
<path d="M374.492 384.926C374.443 384.926 374.393 384.926 374.344 384.926C373.901 384.877 373.507 384.482 373.556 384.038C373.606 383.594 374 383.2 374.443 383.249C374.738 383.249 375.083 383.15 375.427 382.854C376.461 381.917 378.431 378.661 379.957 367.167C380.844 360.557 381.139 354.342 381.139 354.292C381.139 353.848 381.533 353.454 382.025 353.503C382.468 353.503 382.862 353.898 382.813 354.391C382.813 354.44 382.518 360.705 381.631 367.414C381.09 371.36 380.499 374.715 379.76 377.329C378.825 380.782 377.791 383.002 376.56 384.087C375.92 384.63 375.231 384.926 374.492 384.926Z" fill="#D3D3D3"/>
<path d="M312.748 307.774L312.059 430.457L356.176 424.489V337.816L341.897 332.538L312.748 307.774Z" fill="#FCFDFD"/>
<path d="M314.422 299.882C314.422 299.882 344.31 325.484 345.787 325.582C347.264 325.681 379.564 340.283 379.564 340.283L356.225 313.743L314.422 299.882Z" fill="white"/>
<path d="M300.733 164.52L330.276 137.734L378.677 176.458L412.651 226.38L408.614 230.129L376.954 179.961L330.522 143.9L303.983 168.319L300.733 164.52Z" fill="#F6F6F6"/>
<path d="M317.623 183.513L357.062 227.515L372.572 239.403L345.393 209.411L317.623 183.513Z" fill="white"/>
<path d="M229.832 179.221L242.978 169.355L293.201 170.391L300.685 179.221H229.832Z" fill="#F4F4F5"/>
<path d="M412.652 226.381L408.614 230.13L441.702 262.638L443.721 259.333L412.652 226.381Z" stroke="#DFDEDD" stroke-width="2" stroke-miterlimit="10"/>
<path d="M242.978 169.355L271.881 147.699L293.201 170.391L242.978 169.355Z" stroke="#DFDEDD" stroke-width="2" stroke-miterlimit="10"/>
<path d="M295.761 199.396H253.367V253.363H295.761V199.396Z" fill="#F9F9FA" stroke="#DFDEDD" stroke-width="2" stroke-miterlimit="10"/>
<path d="M313.684 301.115L312.748 307.774L341.897 332.538L346.427 326.125L313.684 301.115Z" fill="white"/>
<path d="M274.539 206.846V244.188" stroke="#DFDEDD" stroke-width="2" stroke-miterlimit="10"/>
<path d="M255.927 225.492H293.2" stroke="#DFDEDD" stroke-width="2" stroke-miterlimit="10"/>
<path d="M313.437 178.925L356.176 227.959V303.976L312.059 289.177L313.043 191.553" stroke="#DFDEDD" stroke-width="2" stroke-miterlimit="10"/>
<path d="M356.176 338.753V424.489L312.059 430.457V289.177L356.176 303.976V314.828" stroke="#DFDEDD" stroke-width="2" stroke-miterlimit="10"/>
<path d="M271.24 299.142H312.059V430.458L271.24 427.152V299.142Z" stroke="#DFDEDD" stroke-width="2" stroke-miterlimit="10"/>
<path d="M285.372 362.826H271.782V326.668H285.372C288.474 326.668 290.985 329.183 290.985 332.291V357.153C290.985 360.261 288.474 362.826 285.372 362.826Z" fill="#F9F9FA" stroke="#DFDEDD" stroke-width="2" stroke-miterlimit="10"/>
<path d="M317.573 344.722L317.77 428.978L332.148 427.794V350.05L317.573 344.722Z" stroke="#DFDEDD" stroke-width="2" stroke-miterlimit="10"/>
<path d="M346.525 326.865L342.635 332.538L374.541 344.032L378.579 340.283L346.525 326.865Z" fill="#F6F6F6"/>
<path d="M317.573 350.543L326.83 354.835V428.435" stroke="#DFDEDD" stroke-width="2" stroke-miterlimit="10"/>
<path d="M326.19 215.922V219.622V261.602L345.393 274.575V226.775L326.19 215.922Z" stroke="#DFDEDD" stroke-width="2" stroke-miterlimit="10"/>
<path d="M341.748 230.129L335.79 225.492L326.189 219.622V261.602L341.748 271.073V230.129Z" stroke="#DFDEDD" stroke-width="2" stroke-miterlimit="10"/>
<path d="M335.052 264.365L334.608 227.515" stroke="#DFDEDD" stroke-width="2" stroke-miterlimit="10"/>
<path d="M327.715 243.893L340.222 249.072" stroke="#DFDEDD" stroke-width="2" stroke-miterlimit="10"/>
<path d="M346.426 326.125L341.896 332.538L374.738 344.722L379.564 340.283L346.426 326.125Z" stroke="#DFDEDD" stroke-width="2" stroke-miterlimit="10"/>
<path d="M339.484 350.543V351.678V377.675L351.35 380.585V356.117L339.484 350.543Z" stroke="#DFDEDD" stroke-width="2" stroke-miterlimit="10"/>
<path d="M345.737 376.392L345.54 356.858" stroke="#DFDEDD" stroke-width="2" stroke-miterlimit="10"/>
<path d="M341.897 365.54L348.495 368.302" stroke="#DFDEDD" stroke-width="2" stroke-miterlimit="10"/>
<path d="M312.847 299.734L346.477 326.125C346.87 326.421 347.363 326.668 347.855 326.816L379.564 340.283C380.106 340.431 380.5 339.691 380.057 339.345L356.226 313.743L312.995 299.438C312.798 299.388 312.699 299.586 312.847 299.734Z" stroke="#DFDEDD" stroke-width="2" stroke-miterlimit="10"/>
<path d="M215.847 189.679L271.88 147.699L351.35 232.349L357.062 227.515L374.738 241.969L346.525 210.496L274.539 141.04H272.914L211.662 187.706" stroke="#DFDEDD" stroke-width="2" stroke-miterlimit="10"/>
<path d="M374.738 241.968L368.534 246.507L351.35 232.349" stroke="#DFDEDD" stroke-width="2" stroke-miterlimit="10"/>
<path d="M215.601 183.513L215.404 104.338H124.56" stroke="#DFDEDD" stroke-width="2" stroke-miterlimit="10"/>
<path d="M218.605 115.832L257.65 150.56L260.408 147.255L215.404 104.338" stroke="#DFDEDD" stroke-width="2" stroke-miterlimit="10"/>
<path d="M225.498 134.232C225.498 134.232 225.153 158.404 225.498 158.404C225.843 158.404 235.345 158.404 235.345 158.404V141.04L225.498 134.232Z" stroke="#DFDEDD" stroke-width="2" stroke-miterlimit="10"/>
<path d="M412.209 225.887L377.644 174.239" stroke="#DFDEDD" stroke-width="2" stroke-miterlimit="10"/>
<path d="M308.267 173.597H368.386L376.954 179.961V294.505H411.814V232.842" stroke="#DFDEDD" stroke-width="2" stroke-miterlimit="10"/>
<path d="M383.306 241.969V294.505H390.544L391.578 249.072L383.306 241.969Z" fill="#F9F9FA" stroke="#DFDEDD" stroke-width="2" stroke-miterlimit="10"/>
<path d="M376.955 262.638H419.25L419.053 293.666L432.101 307.774V410.331L418.413 417.829V294.505H356.127" stroke="#DFDEDD" stroke-width="2" stroke-miterlimit="10"/>
<path d="M412.208 225.887L442.096 257.063L424.173 227.515L379.564 176.261L330.178 136.847L299.7 164.471L303.885 169.355L330.178 144.246L376.954 179.961L408.023 229.685L412.208 225.887Z" stroke="#DFDEDD" stroke-width="2" stroke-miterlimit="10"/>
<path d="M345.737 325.582L312.847 299.734L312.748 307.774L341.897 332.538L374.739 344.722L380.056 339.296" stroke="#DFDEDD" stroke-width="2" stroke-miterlimit="10"/>
<path d="M375.378 416.004L418.412 417.829" stroke="#DFDEDD" stroke-width="2" stroke-miterlimit="10"/>
<path d="M356.176 415.214L373.557 415.905" stroke="#DFDEDD" stroke-width="2" stroke-miterlimit="10"/>
<path d="M416.394 411.318V409.788C416.394 407.815 417.969 406.237 419.939 406.237H421.465V407.766C421.465 409.739 419.889 411.318 417.92 411.318H416.394Z" fill="#E9E8EA"/>
<path d="M420.874 409.69C420.53 409.542 420.136 409.394 419.742 409.295C419.249 409.196 418.855 408.9 418.609 408.506C418.314 408.012 417.92 407.569 417.477 407.223C416.837 407.864 416.394 408.752 416.394 409.739V411.268H417.92C419.151 411.318 420.234 410.676 420.874 409.69Z" fill="#FCFDFD"/>
<path d="M418.117 410.084C417.477 408.358 415.803 407.125 413.834 407.125C413.292 407.125 412.8 407.223 412.307 407.371C411.519 405.99 410.042 405.053 408.319 405.053C405.808 405.053 403.74 407.075 403.74 409.641C403.74 409.789 403.74 409.887 403.74 410.035C401.573 410.38 399.85 412.255 399.85 414.573C399.85 417.089 401.869 419.161 404.429 419.161H417.133C417.428 419.21 417.723 419.26 418.068 419.26C420.579 419.26 422.647 417.237 422.647 414.672C422.598 412.156 420.579 410.134 418.117 410.084Z" fill="#EDEFEF"/>
<path d="M418.117 410.084C417.477 408.358 415.803 407.125 413.833 407.125C413.292 407.125 412.799 407.223 412.307 407.371C411.519 405.99 410.042 405.053 408.319 405.053C406.792 405.053 405.414 405.842 404.577 407.026C405.168 406.73 405.857 406.533 406.595 406.533C407.777 406.533 408.811 406.977 409.648 407.717C410.288 408.309 411.175 408.605 412.061 408.605H412.11C413.636 408.605 414.966 409.345 415.803 410.479C416.246 411.12 416.935 411.515 417.674 411.762C419.545 412.304 420.924 414.08 420.924 416.152C420.924 417.139 420.628 418.027 420.087 418.767C421.564 418.027 422.598 416.448 422.598 414.672C422.598 412.156 420.579 410.134 418.117 410.084Z" fill="#E9E8EA"/>
<path d="M404.133 415.511C404.867 415.511 405.463 414.914 405.463 414.179C405.463 413.443 404.867 412.847 404.133 412.847C403.399 412.847 402.804 413.443 402.804 414.179C402.804 414.914 403.399 415.511 404.133 415.511Z" fill="#E9E8EA"/>
<path d="M416 416.892C416.734 416.892 417.329 416.295 417.329 415.56C417.329 414.824 416.734 414.228 416 414.228C415.266 414.228 414.67 414.824 414.67 415.56C414.67 416.295 415.266 416.892 416 416.892Z" fill="#E9E8EA"/>
<path d="M410.928 410.972C411.662 410.972 412.257 410.376 412.257 409.64C412.257 408.905 411.662 408.309 410.928 408.309C410.194 408.309 409.599 408.905 409.599 409.64C409.599 410.376 410.194 410.972 410.928 410.972Z" fill="#E9E8EA"/>
<path d="M229.832 179.221H301.522L313.044 191.553L312.059 289.177L269.764 288.535" stroke="#DFDEDD" stroke-width="2" stroke-miterlimit="10"/>
<path d="M357.209 228.107L352.039 232.349L368.583 245.915L373.851 241.968L357.209 228.107Z" fill="#F6F6F6"/>
<path d="M355.782 181.095H340.223V192.688H355.782V181.095Z" fill="#F9F9FA" stroke="#DFDEDD" stroke-width="2" stroke-miterlimit="10"/>
<path d="M370.898 199.396H356.127V214.195H370.898V199.396Z" fill="#F9F9FA" stroke="#DFDEDD" stroke-width="2" stroke-miterlimit="10"/>
<path d="M203.144 132.21H173.01V158.306H203.144V132.21Z" fill="#F7F6F5" stroke="#DFDEDD" stroke-width="2" stroke-miterlimit="10"/>
<path d="M419.25 262.638L432.101 285.181H412.406" stroke="#DFDEDD" stroke-width="2" stroke-miterlimit="10"/>
<path d="M432.101 307.774V285.181" stroke="#DFDEDD" stroke-width="2" stroke-miterlimit="10"/>
<path d="M318.066 345.561V350.543L327.323 354.293L327.47 427.547L332.148 427.005L331.508 350.543L318.066 345.561Z" fill="#F4F4F5"/>
<path d="M429.934 337.471L422.252 333.722V312.954L429.934 319.071V337.471Z" stroke="#DFDEDD" stroke-width="2" stroke-miterlimit="10"/>
<path d="M426.832 336.04V316.604" stroke="#DFDEDD" stroke-width="2" stroke-miterlimit="10"/>
<path d="M422.252 322.524L429.934 328.641" stroke="#DFDEDD" stroke-width="2" stroke-miterlimit="10"/>
<path d="M390.199 294.061H391.479V293.962L391.085 290.558C391.085 290.46 390.987 290.361 390.888 290.361H390.839C390.79 290.361 390.691 290.41 390.642 290.46C390.593 290.509 390.543 290.608 390.543 290.657L390.199 294.061Z" fill="#F9F9FA"/>
<path d="M391.331 293.321L391.036 290.607C391.036 290.509 390.937 290.41 390.839 290.41H390.79C390.79 290.41 390.79 290.41 390.741 290.459C390.691 290.509 390.642 290.607 390.642 290.706V292.679C390.691 292.975 390.987 293.321 391.331 293.321Z" fill="#F9F9FA"/>
<path d="M391.824 309.205H389.362V417.73H391.824V309.205Z" fill="#E2E2E2"/>
<path d="M391.824 309.205H390.692V417.73H391.824V309.205Z" fill="#F0EFEF"/>
<path d="M394.532 400.416H386.703V429.125H394.532V400.416Z" fill="#F0EFEF"/>
<path d="M394.532 400.416H389.854V429.125H394.532V400.416Z" fill="#F4F4F5"/>
<path d="M386.309 295.738C386.309 297.07 388.328 298.155 390.79 298.155C390.987 298.155 391.184 298.155 391.331 298.155C393.547 298.007 395.27 296.971 395.27 295.738C395.27 294.504 393.547 293.469 391.331 293.321C391.134 293.321 390.937 293.321 390.79 293.321C388.328 293.271 386.309 294.357 386.309 295.738Z" fill="#DFDEDD"/>
<path d="M386.703 311.326H394.532L397.29 298.056H384.389L386.703 311.326Z" fill="#DFDEDD"/>
<path d="M397.979 297.07H383.65V298.352H397.979V297.07Z" fill="#DFDEDD"/>
<path d="M393.252 400.416H388.229L388.968 398.196C389.017 397.999 389.214 397.851 389.411 397.851H391.775C392.021 397.851 392.267 397.999 392.365 398.245L393.252 400.416Z" fill="#DFDEDD"/>
<path d="M388.623 295.59C388.721 294.554 389.854 293.666 391.38 293.321C393.547 293.469 395.221 294.406 395.319 295.59H396.058L397.092 297.07H398.027V298.352H389.017V297.07H387.688L388.623 295.59Z" fill="#F9F9FA"/>
<path d="M396.403 298.698H385.324L387.491 310.636H393.842L396.403 298.698Z" fill="white"/>
<path d="M395.025 295.837C395.025 295.837 394.188 294.011 392.514 294.061C392.514 294.061 393.548 294.998 393.498 295.837C393.4 296.724 395.025 295.837 395.025 295.837Z" fill="#F9F9FA"/>
<path d="M384.586 297.07H397.092L396.058 295.59H385.571L384.586 297.07Z" fill="#DFDEDD"/>
<path d="M395.665 299.142H393.104L392.366 310.29H393.104L395.665 299.142Z" fill="#F9F9FA"/>
<path d="M245.046 168.862L271.831 148.686L291.477 169.355L245.046 168.862Z" fill="white"/>
<path d="M410.683 419.26C416.638 419.26 421.466 419.149 421.466 419.013C421.466 418.877 416.638 418.766 410.683 418.766C404.727 418.766 399.899 418.877 399.899 419.013C399.899 419.149 404.727 419.26 410.683 419.26Z" fill="#DFDEDD"/>
<path d="M371.587 430.063C377.543 430.063 382.37 429.952 382.37 429.816C382.37 429.68 377.543 429.569 371.587 429.569C365.632 429.569 360.804 429.68 360.804 429.816C360.804 429.952 365.632 430.063 371.587 430.063Z" fill="#DFDEDD"/>
<path d="M376.806 425.229C376.659 425.229 376.56 425.179 376.462 425.081C376.265 424.883 376.265 424.587 376.462 424.39L377.397 423.453C377.594 423.255 377.89 423.255 378.087 423.453C378.283 423.65 378.283 423.946 378.087 424.143L377.151 425.081C377.053 425.179 376.905 425.229 376.806 425.229Z" fill="#E9E8EA"/>
<path d="M375.28 411.663C374 412.945 373.556 414.721 373.36 416.004C373.261 416.793 373.95 417.484 374.738 417.385C376.018 417.237 377.791 416.744 379.071 415.461C380.351 414.178 380.794 412.403 380.991 411.12C381.09 410.331 380.401 409.64 379.613 409.739C378.333 409.936 376.56 410.38 375.28 411.663Z" fill="#E9E8EA"/>
<path d="M382.321 418.668C382.617 417.484 382.272 416.152 381.336 415.215C380.155 414.031 378.382 413.833 376.954 414.573C375.379 412.501 372.917 411.17 370.159 411.17C365.925 411.17 362.429 414.228 361.69 418.273C359.376 419.013 357.702 421.184 357.702 423.798C357.702 427.004 360.312 429.57 363.463 429.57H379.662C382.863 429.57 385.423 426.955 385.423 423.798C385.472 421.578 384.192 419.605 382.321 418.668Z" fill="#EDEFEF"/>
<path d="M373.704 428.484L373.261 427.596C372.67 426.314 372.916 424.735 373.901 423.699L375.034 422.515C375.969 421.529 377.397 421.134 378.727 421.43L380.302 421.775C380.844 421.923 381.435 421.775 381.878 421.43L383.059 420.542C384.537 419.457 386.555 419.457 388.033 420.641L389.707 422.022C391.036 423.107 391.381 424.932 390.593 426.412L389.46 428.533C389.116 429.175 388.476 429.569 387.737 429.569H375.329C374.689 429.619 374 429.175 373.704 428.484Z" fill="#EDEFEF"/>
<path d="M383.748 429.619C380.203 427.251 379.956 424.045 380.892 421.825C380.695 421.825 380.547 421.825 380.35 421.775L378.775 421.43C377.445 421.134 376.067 421.529 375.082 422.515L373.949 423.699C372.965 424.735 372.669 426.264 373.309 427.596L373.752 428.484C374.048 429.175 374.737 429.57 375.476 429.57C375.427 429.619 383.797 429.619 383.748 429.619Z" fill="#E9E8EA"/>
<path d="M386.653 424.291C386.506 424.291 386.407 424.242 386.309 424.143C386.112 423.946 386.112 423.65 386.309 423.453L387.097 422.663C387.294 422.466 387.589 422.466 387.786 422.663C387.983 422.861 387.983 423.157 387.786 423.354L386.998 424.143C386.9 424.242 386.752 424.291 386.653 424.291Z" fill="#E9E8EA"/>
<path d="M386.653 427.202C386.506 427.202 386.407 427.152 386.309 427.054C386.112 426.856 386.112 426.56 386.309 426.363L387.835 424.834C388.032 424.637 388.328 424.637 388.525 424.834C388.722 425.031 388.722 425.327 388.525 425.525L386.998 427.054C386.9 427.152 386.801 427.202 386.653 427.202Z" fill="#E9E8EA"/>
<path d="M375.969 415.363C375.821 415.363 375.723 415.313 375.624 415.215C375.427 415.017 375.427 414.721 375.624 414.524L378.086 412.057C378.283 411.86 378.579 411.86 378.775 412.057C378.972 412.255 378.972 412.551 378.775 412.748L376.314 415.215C376.215 415.313 376.067 415.363 375.969 415.363Z" fill="#EDEFEF"/>
<path d="M363.758 421.43C363.61 421.43 363.512 421.381 363.413 421.282L360.951 418.816C360.754 418.618 360.754 418.322 360.951 418.125C361.148 417.928 361.444 417.928 361.641 418.125L364.103 420.591C364.3 420.789 364.3 421.085 364.103 421.282C364.004 421.381 363.906 421.43 363.758 421.43Z" fill="#E9E8EA"/>
<path d="M368.091 414.672C368.091 414.919 367.894 415.165 367.598 415.165C367.352 415.165 367.106 414.968 367.106 414.672C367.106 414.425 367.303 414.179 367.598 414.179C367.845 414.179 368.091 414.425 368.091 414.672Z" fill="#E9E8EA"/>
<path d="M373.851 421.085C373.851 421.331 373.655 421.578 373.359 421.578C373.113 421.578 372.867 421.381 372.867 421.085C372.867 420.838 373.064 420.591 373.359 420.591C373.605 420.641 373.851 420.838 373.851 421.085Z" fill="#E9E8EA"/>
<path d="M367.798 419.852C365.68 418.027 365.286 413.686 367.699 411.318C364.646 412.255 362.283 414.87 361.741 418.076C359.378 418.816 357.704 421.036 357.753 423.65C357.802 426.807 360.461 429.373 363.612 429.373H370.358C366.616 427.498 366.714 424.045 368.093 421.677C368.438 421.085 368.29 420.296 367.798 419.852Z" fill="#E9E8EA"/>
<path d="M360.607 421.381C361.888 422.664 363.66 423.108 364.94 423.305C365.728 423.403 366.418 422.713 366.319 421.924C366.171 420.641 365.679 418.865 364.399 417.583C363.119 416.3 361.346 415.856 360.066 415.659C359.278 415.56 358.589 416.251 358.687 417.04C358.884 418.323 359.376 420.098 360.607 421.381Z" fill="#EDEFEF"/>
<path d="M123.231 105.424L177.294 63L223.086 112.231L218.605 115.832L177.147 68.5743L122 111.491L123.231 105.424Z" fill="#F9F9FA" stroke="#DFDEDD" stroke-width="2" stroke-miterlimit="10"/>
<path d="M223.086 112.232L218.605 115.833L257.651 150.561L260.408 147.256L223.086 112.232Z" fill="#F9F9FA" stroke="#DFDEDD" stroke-width="2" stroke-miterlimit="10"/>
<path d="M177.294 63L228.009 113.563L260.408 147.255L223.085 112.231L177.294 63Z" fill="#F7F7F7"/>
<path d="M260.408 147.255L221.313 106.854L177.294 63" stroke="#E0E0E0" stroke-miterlimit="10"/>
<path d="M300.291 430.161H322.645C323.778 428.583 324.418 426.708 324.418 424.636C324.418 419.999 321.07 416.102 316.638 415.313C316.097 415.214 315.654 414.77 315.457 414.228C314.718 412.008 312.65 410.38 310.188 410.38C309.548 410.38 308.908 410.479 308.366 410.676C307.874 410.873 307.283 410.775 306.889 410.429C305.363 409.196 303.541 408.358 301.571 408.062C301.03 407.963 300.537 408.062 299.996 408.062C293.743 408.062 289.705 413.192 290.001 419.555C290.296 425.574 294.333 430.161 300.291 430.161Z" fill="#EDEFEF"/>
<path d="M292.117 419.605C291.822 413.784 296.056 408.9 301.571 408.111C301.029 408.012 300.488 408.012 299.946 408.012C293.693 408.012 288.621 413.241 288.917 419.605C289.212 425.574 294.333 430.112 300.241 430.112H303.393C297.484 430.161 292.363 425.574 292.117 419.605Z" fill="#E1E0E2"/>
<path d="M303.885 427.152C303.639 423.995 301.423 421.282 298.42 420.295C297.09 419.851 295.859 419.802 294.678 419.999C294.185 420.098 293.644 419.95 293.299 419.605C291.28 417.533 288.277 416.349 285.027 416.842C284.929 416.842 284.83 416.892 284.732 416.892C280.793 417.631 278.626 420.887 278.085 424.834C277.838 426.659 278.823 428.435 279.512 429.964L302.014 430.112L303.934 427.744C303.934 427.547 303.885 427.349 303.885 427.152Z" fill="#EDEFEF"/>
<path d="M282.614 427.794C281.285 427.794 280.251 426.708 280.251 425.426C280.251 421.874 282.023 418.766 284.781 416.892C280.842 417.632 277.74 420.887 277.198 424.834C276.952 426.659 277.198 428.435 277.887 429.964L303.54 430.112C303.787 429.372 303.885 428.583 303.885 427.744H282.614V427.794Z" fill="#E1E0E2"/>
<path d="M325.206 430.951H276.312C275.869 430.951 275.524 430.605 275.524 430.161C275.524 429.717 275.869 429.372 276.312 429.372H325.206C325.649 429.372 325.993 429.717 325.993 430.161C325.993 430.556 325.649 430.951 325.206 430.951Z" fill="#E1E0E2"/>
<path d="M317.082 430.753C316.983 430.753 316.885 430.753 316.786 430.704C316.392 430.507 316.195 430.063 316.392 429.668L318.362 425.179C318.559 424.785 319.002 424.587 319.396 424.785C319.79 424.982 319.987 425.426 319.79 425.82L317.82 430.31C317.672 430.556 317.377 430.753 317.082 430.753Z" fill="#E1E0E2"/>
<path d="M314.028 420.197C313.782 419.852 313.289 419.753 312.945 420.049L310.532 421.874L309.449 418.816C309.301 418.421 308.858 418.174 308.464 418.322C308.07 418.47 307.824 418.914 307.972 419.309L311.911 430.359C312.009 430.704 312.304 430.901 312.649 430.901C312.748 430.901 312.846 430.901 312.895 430.852C313.289 430.704 313.535 430.26 313.388 429.866L311.467 424.489C311.221 423.847 311.467 423.107 312.009 422.713L313.88 421.282C314.225 421.035 314.274 420.542 314.028 420.197Z" fill="#E1E0E2"/>
<path d="M303.393 414.376C302.999 414.228 302.506 414.425 302.359 414.82L301.718 416.547L299.946 414.425C299.65 414.08 299.158 414.031 298.813 414.327C298.469 414.623 298.419 415.116 298.715 415.461L300.487 417.632C300.832 418.076 300.931 418.668 300.734 419.161L296.795 429.915C296.647 430.309 296.844 430.803 297.238 430.951C297.336 431 297.435 431 297.533 431C297.878 431 298.173 430.803 298.272 430.507L303.786 415.511C304.033 414.968 303.786 414.524 303.393 414.376Z" fill="#E1E0E2"/>
<path d="M284.781 421.825C284.683 421.479 284.338 421.282 283.993 421.381C283.649 421.479 283.452 421.825 283.55 422.17L284.338 424.785L281.778 423.995C281.433 423.897 281.088 424.094 280.99 424.39C280.891 424.735 281.088 425.08 281.433 425.179L284.19 426.067C284.584 426.215 284.929 426.511 285.027 426.906L285.52 428.632C285.618 428.928 285.864 429.076 286.16 429.076C286.209 429.076 286.307 429.076 286.357 429.027C286.701 428.928 286.898 428.583 286.8 428.238L284.781 421.825Z" fill="#E1E0E2"/>
<path d="M292.217 423.354C291.921 423.157 291.527 423.305 291.33 423.601L288.77 428.139C288.573 428.435 288.721 428.83 289.016 429.027C289.115 429.076 289.213 429.126 289.311 429.126C289.558 429.126 289.755 429.027 289.853 428.78L292.413 424.242C292.66 423.946 292.561 423.551 292.217 423.354Z" fill="#E1E0E2"/>
<path d="M374.195 244.704C385.134 244.704 394 235.838 394 224.898C394 213.959 385.134 205.093 374.195 205.093C372.335 205.093 370.534 205.355 368.829 205.836C369.187 204.318 369.385 202.736 369.385 201.106C369.385 197.258 368.321 193.656 366.483 190.578C375.242 186.859 381.382 178.18 381.382 168.068C381.382 157.396 374.537 148.322 365.003 144.987C365.943 142.251 366.461 139.322 366.461 136.265C366.461 121.456 354.458 109.453 339.65 109.453C334.22 109.453 329.175 111.073 324.953 113.846C322.538 109.25 317.728 106.113 312.175 106.113C310.064 106.113 308.066 106.578 306.259 107.391C305.591 96.4884 296.544 87.8522 285.476 87.8522C277.032 87.8522 269.764 92.881 266.499 100.106C261.806 95.008 255.078 91.8069 247.601 91.8069C233.696 91.8069 222.382 102.864 221.949 116.663C218.08 114.445 213.602 113.173 208.819 113.173C194.197 113.173 182.344 125.026 182.344 139.648C182.344 143.64 183.231 147.424 184.813 150.817C184.727 150.817 184.647 150.801 184.567 150.801C178.923 150.801 174.135 154.809 172.361 160.389C161.977 160.592 153.619 169.062 153.619 179.494C153.619 187.393 158.407 194.169 165.237 197.087C164.382 202.239 163.922 207.519 163.922 212.911C163.922 265.958 196.239 314.307 249.285 314.307C250.338 314.307 256.729 316.423 257.771 316.386C259.375 323.103 270.747 320.623 277.962 320.623C284.118 320.623 289.409 316.973 291.825 311.731C295.437 314.355 299.878 315.905 304.688 315.905C313.511 315.905 321.116 310.689 324.595 303.175C331.302 308.701 340.216 312.067 350.001 312.067C370.86 312.067 387.769 296.756 387.769 277.865C387.769 264.787 379.662 253.431 367.76 247.675C368.359 246.532 368.813 245.308 369.128 244.031C370.732 244.474 372.436 244.704 374.195 244.704Z" fill="#E4E4E4" stroke="#707071" stroke-opacity="0.62" stroke-width="3" stroke-miterlimit="10" stroke-linecap="round"/>
<path d="M270.635 200.47C271.653 200.47 272.478 199.645 272.478 198.627C272.478 197.608 271.653 196.783 270.635 196.783C269.616 196.783 268.791 197.608 268.791 198.627C268.791 199.645 269.616 200.47 270.635 200.47Z" fill="#707071"/>
<path d="M190.237 155.676C188.489 152.325 187.5 148.488 187.5 144.41C187.5 131.311 197.724 120.698 210.331 120.698C214.451 120.698 218.315 121.836 221.655 123.824C222.029 111.463 231.788 101.56 243.78 101.56C250.231 101.56 256.034 104.425 260.08 108.994C262.902 102.522 269.165 98.0171 276.449 98.0171C285.994 98.0171 293.796 105.75 294.373 115.514C295.934 114.787 297.655 114.37 299.477 114.37C304.266 114.37 308.413 117.181 310.497 121.296C314.136 118.811 318.492 117.363 323.173 117.363C335.946 117.363 346.298 128.116 346.298 141.38C346.298 144.116 345.849 146.74 345.042 149.193C353.266 152.18 359.172 160.304 359.172 169.864C359.172 178.923 353.876 186.699 346.319 190.028C347.906 192.786 348.825 196.013 348.825 199.46C348.825 200.919 348.654 202.336 348.35 203.698C349.825 203.271 351.375 203.036 352.978 203.036C362.41 203.036 370.058 210.977 370.058 220.773C370.058 230.569 362.41 238.51 352.978 238.51C351.46 238.51 349.99 238.302 348.585 237.917C348.312 239.066 347.922 240.162 347.404 241.182C357.67 246.34 364.66 256.51 364.66 268.224C364.66 285.144 350.076 298.862 332.087 298.862C323.649 298.862 315.964 295.843 310.176 290.894C307.178 297.622 300.621 302.299 293.011 302.299C288.864 302.299 285.032 300.909 281.916 298.563C279.832 303.261 275.268 306.526 269.956 306.526C263.735 306.526 258.535 302.047 257.151 296.025C256.253 296.057 255.35 296.073 254.442 296.073C208.69 296.073 171.596 257.552 171.596 210.037C171.602 189.419 178.592 170.495 190.237 155.676Z" fill="white"/>
<path opacity="0.33" d="M214.345 133.219C220.597 133.219 225.936 137.088 228.122 142.56C232.13 139.739 237.111 138.05 242.525 138.05C255.714 138.05 266.402 147.963 266.402 160.186C266.402 164.851 264.842 169.169 262.186 172.739C268.139 176.549 272.094 183.208 272.094 190.802C272.094 202.65 262.491 212.254 250.642 212.254C238.794 212.254 229.191 202.65 229.191 190.802C229.191 186.89 230.254 183.23 232.087 180.071C224.771 176.758 219.545 170.104 218.764 162.232C217.37 162.665 215.884 162.9 214.35 162.9C206.152 162.9 199.509 156.258 199.509 148.06C199.504 139.862 206.147 133.219 214.345 133.219Z" fill="#E4E4E4"/>
<path d="M228.117 142.561C232.125 139.739 237.106 138.051 242.519 138.051C255.709 138.051 266.397 147.964 266.397 160.186C266.397 164.852 264.837 169.17 262.181 172.74C268.134 176.55 272.089 183.209 272.089 190.803" stroke="#707071" stroke-opacity="0.62" stroke-width="3" stroke-miterlimit="10" stroke-linecap="round"/>
<path d="M259.856 266.76C260.957 281.739 261.598 306.494 262.009 318.85C262.047 320.031 263.634 320.341 264.142 319.277C269.352 308.337 279.223 299.643 289.96 288.147C293.011 284.877 297.778 285.133 300.488 288.687C301.968 290.627 302.385 292.326 301.642 293.315C300.311 295.089 279.608 312.677 277.337 316.872C272.163 322.89 264.981 337.041 264.217 346.19C262.41 368.198 264.131 414.04 263.276 436.213H245.688C245.485 430.297 245.897 401.337 246.004 398.499C246.383 389.259 251.994 339.938 243.337 313.324C238.682 298.953 229.442 278.282 229.373 262.329C235.294 272.986 237.442 286.095 242.551 297.355C244.406 301.454 246.72 305.719 248.911 310.058C250.482 313.163 255.169 311.859 254.886 308.391C253.683 293.657 251.636 275.3 250.589 267.722C250.397 266.343 250.84 264.953 251.786 263.933C254.57 260.956 259.557 262.703 259.856 266.76Z" fill="#9F9F9F" stroke="#59595A" stroke-opacity="0.62" stroke-width="2" stroke-miterlimit="10"/>
<path d="M271.687 236.773L280.131 245.046L281.724 249.567L279.864 256.702L275.915 260.106L269.742 260.518L264.43 259.582L263.441 262.073L259.978 267.15L256.638 268.716L251.465 268.186L247.238 264.654L245.389 259.807L269.512 234.288L271.687 236.773Z" fill="white"/>
<path d="M324.135 291.915L288.869 266.477L287.736 271.751C287.736 271.751 286.042 282.274 297.639 291.183C309.246 300.086 320.106 295.431 324.135 291.915Z" fill="white"/>
<path d="M322.58 293.165C322.58 293.165 311.72 300.455 299.664 292.583C287.602 284.711 286.801 275.342 288.185 268.448" stroke="#59595A" stroke-opacity="0.62" stroke-width="3" stroke-miterlimit="10" stroke-linecap="round"/>
<path d="M289.158 265.622C289.972 265.622 290.633 264.961 290.633 264.147C290.633 263.332 289.972 262.672 289.158 262.672C288.343 262.672 287.683 263.332 287.683 264.147C287.683 264.961 288.343 265.622 289.158 265.622Z" fill="#59595A" fill-opacity="0.62"/>
<path d="M246.313 261.464C246.313 261.464 248.173 269.346 256.243 268.406C262.373 267.69 263.842 262.618 264.2 260.229C264.297 259.583 264.895 259.144 265.537 259.262C268.556 259.812 278.956 264.109 281.788 252.678C283.13 247.259 280.522 243.235 274.034 238.457" stroke="#59595A" stroke-opacity="0.62" stroke-width="3" stroke-miterlimit="10" stroke-linecap="round"/>
<path d="M270.635 237.196C271.438 237.196 272.088 236.545 272.088 235.742C272.088 234.939 271.438 234.288 270.635 234.288C269.832 234.288 269.181 234.939 269.181 235.742C269.181 236.545 269.832 237.196 270.635 237.196Z" fill="#59595A"/>
<path d="M222.029 436.758C222.029 436.758 217.065 427.716 223.745 426.31C223.745 426.31 217.866 426.599 214.884 418.182C214.783 417.888 214.681 417.583 214.585 417.268C211.72 407.916 225.653 402.571 225.653 402.571C225.653 402.571 220.308 390.547 233.284 388.639L237.672 390.355C237.672 390.355 238.244 375.279 248.168 375.658C258.092 376.038 259.62 384.246 259.62 384.246C259.62 384.246 270.501 383.103 269.165 392.455C269.165 392.455 278.133 397.035 279.089 402.379C279.089 402.379 289.724 404.998 286.79 416.311C283.856 427.625 278.325 424.814 278.325 424.814L282.525 428.336C282.525 428.336 285.577 438.452 276.038 438.26L223.552 438.265L222.029 436.758Z" fill="#E5E7E5"/>
<path d="M215.376 436.042C215.376 436.042 210.411 427.994 217.091 426.743C217.091 426.743 211.213 427 208.231 419.507C208.129 419.245 208.028 418.973 207.932 418.695C205.067 410.368 218.999 405.612 218.999 405.612C218.999 405.612 213.655 394.908 226.631 393.208L231.018 394.737C231.018 394.737 231.59 381.312 241.514 381.654C251.439 381.996 252.967 389.302 252.967 389.302C252.967 389.302 263.848 388.281 262.512 396.607C262.512 396.607 271.479 400.685 272.436 405.441C272.436 405.441 283.071 407.777 280.137 417.845C277.203 427.913 271.672 425.418 271.672 425.418L275.872 428.555C275.872 428.555 278.924 437.56 269.384 437.389H216.899L215.376 436.042Z" fill="white"/>
<path d="M289.783 412.148C289.783 406.494 285.614 401.39 279.944 399.894C278.779 395.704 275.263 392.284 270.88 391.028C270.944 390.611 270.977 390.189 270.977 389.767C270.977 385.24 267.294 381.558 262.768 381.558C262.18 381.558 261.603 381.617 261.036 381.74C259.219 376.625 254.832 372.601 249.338 372.601C242.529 372.601 236.731 378.854 236.239 386.48C235.267 386.186 234.246 386.036 233.22 386.036C227.459 386.036 222.772 390.723 222.772 396.484C222.772 397.831 223.029 399.156 223.526 400.386C217.545 402.539 213.372 408.161 213.372 414.393C213.372 418.743 215.638 423.077 219.368 426.016C218.673 427.24 218.299 428.635 218.299 430.067C218.299 432.05 219.004 433.872 220.18 435.289H214.868C214.045 435.289 213.377 435.957 213.377 436.78C213.377 437.603 214.045 438.271 214.868 438.271H288.297C289.12 438.271 289.788 437.603 289.788 436.78C289.788 435.957 289.12 435.289 288.297 435.289H282.985C284.161 433.867 284.866 432.05 284.866 430.067C284.866 427.529 283.706 425.257 281.895 423.75C286.485 421.746 289.783 417.241 289.783 412.148ZM276.652 421.848C275.829 421.848 275.161 422.516 275.161 423.339C275.161 424.162 275.829 424.83 276.652 424.83C279.533 424.83 281.873 427.171 281.873 430.051C281.873 432.932 279.533 435.272 276.652 435.272H262.736L270.661 415.462L279.11 411.24C279.848 410.871 280.147 409.973 279.778 409.236C279.41 408.498 278.512 408.199 277.774 408.568L270.982 411.966V405.425C270.982 404.602 270.314 403.934 269.491 403.934C268.668 403.934 268 404.602 268 405.425V414.093L266.354 418.203L261.87 409.236C261.501 408.498 260.603 408.199 259.866 408.568C259.128 408.936 258.829 409.834 259.198 410.572L264.868 421.912L259.524 435.278H253.074V430.057C253.074 429.234 252.406 428.566 251.583 428.566C250.76 428.566 250.091 429.234 250.091 430.057V435.278H243.796L239.644 418.679V409.909C239.644 409.086 238.976 408.418 238.153 408.418C237.33 408.418 236.662 409.086 236.662 409.909V416.45L229.869 413.051C229.132 412.683 228.234 412.982 227.865 413.719C227.496 414.457 227.796 415.355 228.533 415.723L236.875 419.892L240.723 435.283H226.518C223.638 435.283 221.297 432.942 221.297 430.062C221.297 427.165 223.648 424.841 226.518 424.841C227.341 424.841 228.009 424.173 228.009 423.35C228.009 422.527 227.341 421.859 226.518 421.859C224.6 421.859 222.761 422.532 221.302 423.734C218.235 421.356 216.37 417.866 216.37 414.398C216.37 407.878 222.077 402.459 228.757 402.459C230.126 402.459 231.467 402.689 232.739 403.138C233.514 403.416 234.369 403.004 234.641 402.229C234.914 401.454 234.508 400.599 233.733 400.327C232.14 399.76 230.468 399.477 228.757 399.477C227.993 399.477 227.229 399.536 226.47 399.653C226.011 398.67 225.77 397.596 225.77 396.495C225.77 392.38 229.116 389.035 233.231 389.035C234.556 389.035 235.86 389.387 236.998 390.055C238.035 390.665 239.334 389.858 239.243 388.655C239.216 388.297 239.2 387.923 239.2 387.544C239.2 381.072 243.849 375.605 249.349 375.605C253.554 375.605 257.365 379.057 258.615 384.006C258.84 384.904 259.823 385.379 260.668 385.005C261.336 384.711 262.046 384.561 262.784 384.561C265.664 384.561 268.005 386.902 268.005 389.783C268.005 390.039 267.984 390.296 267.946 390.552C267.717 390.542 267.487 390.531 267.257 390.531C260.261 390.531 254.57 396.223 254.57 403.218C254.57 404.041 255.238 404.709 256.061 404.709C256.884 404.709 257.552 404.041 257.552 403.218C257.552 397.869 261.902 393.518 267.252 393.518C272.024 393.518 276.406 396.933 277.235 401.438C277.347 402.048 277.822 402.523 278.432 402.636C283.204 403.517 286.801 407.616 286.801 412.175C286.801 417.407 282.151 421.848 276.652 421.848Z" fill="#59595A" fill-opacity="0.62"/>
<path d="M251.577 427.807C252.401 427.807 253.068 427.139 253.068 426.315C253.068 425.492 252.401 424.824 251.577 424.824C250.754 424.824 250.086 425.492 250.086 426.315C250.086 427.139 250.754 427.807 251.577 427.807Z" fill="#59595A"/>
<path d="M251.577 421.089C252.4 421.089 253.068 420.421 253.068 419.598V412.88C253.068 412.485 252.913 412.106 252.63 411.828L248.275 407.472L252.839 400.252C252.988 400.012 253.068 399.739 253.068 399.456V390.499C253.068 389.676 252.4 389.008 251.577 389.008C250.754 389.008 250.086 389.676 250.086 390.499V399.023L246.116 405.313L239.206 398.403C238.623 397.821 237.677 397.821 237.095 398.403C236.512 398.986 236.512 399.931 237.095 400.514L250.092 413.511V419.609C250.086 420.421 250.754 421.089 251.577 421.089Z" fill="#59595A" fill-opacity="0.62"/>
<path opacity="0.83" d="M185.176 254.217H2.15381V437.239H185.176V254.217Z" fill="#FDFEFF"/>
<path d="M185.887 254.468L185.171 437.913L241.782 436.935L242.429 290.712L185.887 254.468Z" fill="#E5E7E5"/>
<path d="M103.902 72.2957L103.859 252.053L162.314 252.042L159.615 111.447L103.902 72.2957Z" fill="#E5E7E5"/>
<path d="M102.614 67.4482L102.801 94.9227L159.615 130.119V111.447L123.093 85.6078L102.614 67.4482Z" fill="#E5E5E5"/>
<path d="M1.21875 67.4482V253.308L103.859 252.052L102.614 67.4482H1.21875Z" fill="white"/>
<path d="M0 66.0104L50.2834 22.1881L96.2595 66.0104H0Z" fill="white"/>
<path d="M80.2752 116.294H34.748V162.089H80.2752V116.294Z" fill="#F3F3F3"/>
<path d="M69.0574 302.705H21.0132V350.749H69.0574V302.705Z" fill="#E5E5E5"/>
<path d="M1.21875 252.053L184.294 254.468L185.171 437.913H1.21875V252.053Z" fill="white"/>
<path d="M70.554 302.705H22.5098V350.749H70.554V302.705Z" fill="#F5F5F7"/>
<path d="M163.34 302.705H115.295V350.749H163.34V302.705Z" fill="#F7F8F8"/>
<path d="M185.171 254.468V437.913L242.429 437.763V290.712L185.171 254.468Z" stroke="#5C5C5B" stroke-width="3" stroke-miterlimit="10"/>
<path d="M182.942 254.468H1.21875V437.913H185.171V254.468H182.942Z" stroke="#5C5C5B" stroke-miterlimit="10"/>
<path d="M210.609 409.497V306.884L194.186 299.354V435.24L210.609 434.604V423.75" stroke="#5C5C5B" stroke-width="3" stroke-miterlimit="10" stroke-linecap="round"/>
<path d="M41.3107 303.538H69.0577V351.909H20.6875V303.538H27.1166" stroke="#5C5C5B" stroke-width="3" stroke-miterlimit="10" stroke-linecap="round"/>
<path d="M44.8696 311.063V344.24" stroke="#5C5C5B" stroke-width="3" stroke-miterlimit="10" stroke-linecap="round"/>
<path d="M29.4409 327.652H62.6176" stroke="#5C5C5B" stroke-width="3" stroke-miterlimit="10" stroke-linecap="round"/>
<path d="M227.828 341.167L227.935 316.407L219.277 312.527" stroke="#5C5C5B" stroke-width="3" stroke-miterlimit="10"/>
<path d="M240.932 289.547L185.171 253.308V436.753" stroke="#5C5C5B" stroke-width="3" stroke-miterlimit="10"/>
<path d="M182.942 253.308H1.21875V436.753H185.171V253.308H182.942Z" stroke="#59595A" stroke-width="3" stroke-miterlimit="10"/>
<path d="M210.609 305.719L194.186 298.194V435.24L210.609 433.445" stroke="#5C5C5B" stroke-miterlimit="10"/>
<path d="M44.8696 309.903V343.08" stroke="#5C5C5B" stroke-miterlimit="10" stroke-linecap="round"/>
<path d="M29.4409 326.491H62.6176" stroke="#5C5C5B" stroke-miterlimit="10" stroke-linecap="round"/>
<path d="M163.008 343.828V350.674H114.638V302.304H163.008V333.776" stroke="#5C5C5B" stroke-width="3" stroke-miterlimit="10" stroke-linecap="round"/>
<path d="M138.82 309.834V343.01" stroke="#5C5C5B" stroke-width="3" stroke-miterlimit="10" stroke-linecap="round"/>
<path d="M123.397 326.422H156.574" stroke="#5C5C5B" stroke-width="3" stroke-miterlimit="10" stroke-linecap="round"/>
<path d="M219.277 336.8L232.103 340.857V313.179L219.277 306.125V310.293V337.96L232.103 342.022V314.339L219.277 307.29V311.458" stroke="#5C5C5B" stroke-width="3" stroke-miterlimit="10"/>
<path d="M227.828 378.581L227.935 352.325L219.277 349.936" stroke="#5C5C5B" stroke-width="3" stroke-miterlimit="10"/>
<path d="M219.277 344.704V348.868" stroke="#5C5C5B" stroke-miterlimit="10"/>
<path d="M219.277 374.21L232.103 378.271V347.601L219.277 343.54V347.708V375.375L232.103 379.437V351.754" stroke="#5C5C5B" stroke-width="3" stroke-miterlimit="10"/>
<g opacity="0.68">
<path opacity="0.8" d="M73.3335 403.362H93.946" stroke="#59595A" stroke-width="3" stroke-miterlimit="10"/>
<path opacity="0.8" d="M106.179 416.429H151.439" stroke="#59595A" stroke-width="3" stroke-miterlimit="10"/>
<path opacity="0.8" d="M98.5151 429.132H143.866" stroke="#59595A" stroke-width="3" stroke-miterlimit="10"/>
<path opacity="0.8" d="M70.9497 416.247H99.4022" stroke="#59595A" stroke-width="3" stroke-miterlimit="10"/>
<g opacity="0.68">
<path opacity="0.8" d="M1.82275 391.856H74.4128" stroke="#59595A" stroke-width="3" stroke-miterlimit="10"/>
<path opacity="0.8" d="M8.61035 415.039V403.79" stroke="#59595A" stroke-width="3" stroke-miterlimit="10"/>
<path opacity="0.8" d="M35.4966 415.039V403.79" stroke="#59595A" stroke-width="3" stroke-miterlimit="10" stroke-linecap="round"/>
<path opacity="0.8" d="M24.7441 403.229V391.856" stroke="#59595A" stroke-width="3" stroke-miterlimit="10"/>
<path opacity="0.8" d="M46.3828 403.362H73.6061" stroke="#59595A" stroke-width="3" stroke-miterlimit="10"/>
<path opacity="0.8" d="M1.82275 403.362H39.7291" stroke="#59595A" stroke-width="3" stroke-miterlimit="10" stroke-linecap="round"/>
<path opacity="0.8" d="M46.2061 404.805V392.813" stroke="#59595A" stroke-width="3" stroke-miterlimit="10"/>
<path opacity="0.8" d="M61.71 415.552V403.651" stroke="#59595A" stroke-width="3" stroke-miterlimit="10"/>
<path opacity="0.8" d="M35.3628 415.729H47.2589" stroke="#59595A" stroke-width="3" stroke-miterlimit="10" stroke-linecap="round"/>
<path opacity="0.8" d="M51.6948 415.729H67.0219" stroke="#59595A" stroke-width="3" stroke-miterlimit="10" stroke-linecap="round"/>
<path opacity="0.8" d="M168.428 402.261H183.755" stroke="#59595A" stroke-width="3" stroke-miterlimit="10" stroke-linecap="round"/>
<path opacity="0.8" d="M155.094 416.429H185.385" stroke="#59595A" stroke-width="3" stroke-miterlimit="10"/>
<path opacity="0.8" d="M143.123 429.132H173.409" stroke="#59595A" stroke-width="3" stroke-miterlimit="10"/>
<path opacity="0.8" d="M44.0312 428.432L85.8388 428.619" stroke="#59595A" stroke-width="3" stroke-miterlimit="10" stroke-linecap="round"/>
<path opacity="0.8" d="M1.82275 428.432H37.3776" stroke="#59595A" stroke-width="3" stroke-miterlimit="10" stroke-linecap="round"/>
<path opacity="0.8" d="M1.82275 415.552H34.5773" stroke="#59595A" stroke-width="3" stroke-miterlimit="10"/>
<path opacity="0.8" d="M43.855 429.853V416.739" stroke="#59595A" stroke-width="3" stroke-miterlimit="10"/>
<path opacity="0.8" d="M59.3584 436.213V428.726" stroke="#59595A" stroke-width="3" stroke-miterlimit="10"/>
<path opacity="0.8" d="M8.38525 436.213V428.726" stroke="#59595A" stroke-width="3" stroke-miterlimit="10"/>
<path opacity="0.8" d="M31.3496 436.822V428.726" stroke="#59595A" stroke-width="3" stroke-miterlimit="10"/>
</g>
<path opacity="0.8" d="M74.4131 391.749H185.353" stroke="#59595A" stroke-width="3" stroke-miterlimit="10"/>
<path opacity="0.8" d="M100.872 403.261H159.631" stroke="#59595A" stroke-width="3" stroke-miterlimit="10"/>
<path opacity="0.8" d="M116.193 415.446V403.549" stroke="#59595A" stroke-width="3" stroke-miterlimit="10"/>
<path opacity="0.8" d="M147.623 415.446V403.549" stroke="#59595A" stroke-width="3" stroke-miterlimit="10"/>
<path opacity="0.8" d="M138.645 428.918V417.017" stroke="#59595A" stroke-width="3" stroke-miterlimit="10"/>
<path opacity="0.8" d="M167.081 428.918V417.017" stroke="#59595A" stroke-width="3" stroke-miterlimit="10"/>
<path opacity="0.8" d="M173.066 403.475V391.578" stroke="#59595A" stroke-width="3" stroke-miterlimit="10"/>
<path opacity="0.8" d="M153.608 403.475V391.578" stroke="#59595A" stroke-width="3" stroke-miterlimit="10"/>
<path opacity="0.8" d="M129.667 403.475V391.578" stroke="#59595A" stroke-width="3" stroke-miterlimit="10"/>
<path opacity="0.8" d="M72.7935 403.475V391.578" stroke="#59595A" stroke-width="3" stroke-miterlimit="10"/>
<path opacity="0.8" d="M101.23 404.971V393.075" stroke="#59595A" stroke-width="3" stroke-miterlimit="10"/>
<path opacity="0.8" d="M72.7935 427.422V415.52" stroke="#59595A" stroke-width="3" stroke-miterlimit="10"/>
<path opacity="0.8" d="M98.3389 429.854V415.446" stroke="#59595A" stroke-width="3" stroke-miterlimit="10"/>
<path opacity="0.8" d="M113.842 436.112V428.619" stroke="#59595A" stroke-width="3" stroke-miterlimit="10"/>
<path opacity="0.8" d="M85.8389 436.721V428.619" stroke="#59595A" stroke-width="3" stroke-miterlimit="10"/>
</g>
<path opacity="0.8" d="M147.623 234.363V222.462" stroke="#59595A" stroke-miterlimit="10"/>
<path opacity="0.8" d="M138.644 247.831V235.934" stroke="#59595A" stroke-miterlimit="10"/>
<path opacity="0.8" d="M113.842 253.426V247.537" stroke="#59595A" stroke-miterlimit="10"/>
<path opacity="0.8" d="M59.3584 254.596V247.638" stroke="#59595A" stroke-width="3" stroke-miterlimit="10"/>
<path opacity="0.8" d="M8.38525 254.061V247.638" stroke="#59595A" stroke-width="3" stroke-miterlimit="10"/>
<path opacity="0.8" d="M31.3496 254.665V247.638" stroke="#59595A" stroke-width="3" stroke-miterlimit="10"/>
<path opacity="0.8" d="M44.0312 247.349L97.1578 247.536" stroke="#59595A" stroke-width="3" stroke-miterlimit="10" stroke-linecap="round"/>
<path opacity="0.8" d="M1.82275 247.349H37.3776" stroke="#59595A" stroke-width="3" stroke-miterlimit="10" stroke-linecap="round"/>
<path opacity="0.8" d="M43.8545 248.771V235.651" stroke="#59595A" stroke-width="3" stroke-miterlimit="10"/>
<path opacity="0.8" d="M51.6948 234.646H67.0219" stroke="#59595A" stroke-width="3" stroke-miterlimit="10" stroke-linecap="round"/>
<path opacity="0.8" d="M70.9497 235.164H102.726" stroke="#59595A" stroke-width="3" stroke-miterlimit="10"/>
<path opacity="0.8" d="M8.60986 233.951V222.702" stroke="#59595A" stroke-width="3" stroke-miterlimit="10"/>
<path opacity="0.8" d="M35.4961 233.951V222.702" stroke="#59595A" stroke-width="3" stroke-miterlimit="10" stroke-linecap="round"/>
<path opacity="0.8" d="M61.71 234.464V222.568" stroke="#59595A" stroke-width="3" stroke-miterlimit="10"/>
<path opacity="0.8" d="M35.3628 234.646H47.2589" stroke="#59595A" stroke-width="3" stroke-miterlimit="10" stroke-linecap="round"/>
<path opacity="0.8" d="M1.82275 234.464H34.5773" stroke="#59595A" stroke-width="3" stroke-miterlimit="10"/>
<path opacity="0.8" d="M73.3335 222.274H93.946" stroke="#59595A" stroke-width="3" stroke-miterlimit="10"/>
<path opacity="0.8" d="M1.82275 210.768H74.4128" stroke="#59595A" stroke-width="3" stroke-miterlimit="10"/>
<path opacity="0.8" d="M24.7441 222.141V210.768" stroke="#59595A" stroke-width="3" stroke-miterlimit="10"/>
<path opacity="0.8" d="M46.3823 222.274H73.6056" stroke="#59595A" stroke-width="3" stroke-miterlimit="10"/>
<path opacity="0.8" d="M1.82275 222.274H39.7291" stroke="#59595A" stroke-width="3" stroke-miterlimit="10" stroke-linecap="round"/>
<path opacity="0.8" d="M46.2061 223.717V211.73" stroke="#59595A" stroke-width="3" stroke-miterlimit="10"/>
<path opacity="0.8" d="M74.4131 210.667H104.88" stroke="#59595A" stroke-width="3" stroke-miterlimit="10"/>
<path opacity="0.8" d="M72.7935 222.387V210.49" stroke="#59595A" stroke-width="3" stroke-miterlimit="10"/>
<path opacity="0.8" d="M72.7935 246.334V234.438" stroke="#59595A" stroke-width="3" stroke-miterlimit="10"/>
<path opacity="0.8" d="M85.8389 254.029V247.536" stroke="#59595A" stroke-width="3" stroke-miterlimit="10"/>
<path d="M103.859 68.6079V252.052L159.615 253.062V104.852L103.859 68.6079Z" stroke="#5C5C5B" stroke-width="3" stroke-miterlimit="10"/>
<path d="M18.3201 67.4482H1.21875V252.042L103.859 252.052V68.6079L102.614 67.4482H38.254" stroke="#5C5C5B" stroke-width="3" stroke-miterlimit="10" stroke-linecap="round"/>
<path opacity="0.19" d="M158.279 155.985L134.583 178.249L133.236 182.979L132.44 207.867L158.279 222.275V155.985Z" fill="#B6B6B6"/>
<path d="M57.5091 163.654H33.3213V115.284H81.6915V163.654H75.2571" stroke="#5C5C5B" stroke-width="3" stroke-miterlimit="10" stroke-linecap="round"/>
<path d="M57.5088 122.808V155.985" stroke="#5C5C5B" stroke-width="3" stroke-miterlimit="10" stroke-linecap="round"/>
<path d="M42.0801 139.397H75.2568" stroke="#5C5C5B" stroke-width="3" stroke-miterlimit="10" stroke-linecap="round"/>
<path d="M137.965 123.445V149.776L146.516 152.485L146.618 127.41L137.965 123.445Z" stroke="#5C5C5B" stroke-width="3" stroke-miterlimit="10"/>
<path d="M137.965 123.274V119.105L150.786 126.16V153.837L137.965 149.776" stroke="#5C5C5B" stroke-width="3" stroke-miterlimit="10"/>
<path d="M103.859 183.519H185.171V253.308" stroke="#59595A" stroke-width="3" stroke-miterlimit="10" stroke-linecap="round"/>
<path d="M186.705 183.519L240.932 239.718L242.322 289.943" stroke="#59595A" stroke-width="3" stroke-miterlimit="10" stroke-linecap="round"/>
<path d="M113.521 183.519V252.042" stroke="#59595A" stroke-width="3" stroke-miterlimit="10" stroke-linecap="round"/>
<path d="M122.815 183.519V252.042" stroke="#59595A" stroke-width="3" stroke-miterlimit="10" stroke-linecap="round"/>
<path d="M118.17 207.861C120.735 207.861 122.815 205.782 122.815 203.217C122.815 200.652 120.735 198.573 118.17 198.573C115.606 198.573 113.526 200.652 113.526 203.217C113.526 205.782 115.606 207.861 118.17 207.861Z" stroke="#59595A" stroke-width="3" stroke-miterlimit="10" stroke-linecap="round"/>
<path d="M118.17 241.605C120.735 241.605 122.815 239.525 122.815 236.96C122.815 234.396 120.735 232.316 118.17 232.316C115.606 232.316 113.526 234.396 113.526 236.96C113.526 239.525 115.606 241.605 118.17 241.605Z" stroke="#59595A" stroke-width="3" stroke-miterlimit="10" stroke-linecap="round"/>
<path d="M137.917 183.519V252.042" stroke="#59595A" stroke-width="3" stroke-miterlimit="10" stroke-linecap="round"/>
<path d="M147.211 183.519V252.042" stroke="#59595A" stroke-width="3" stroke-miterlimit="10" stroke-linecap="round"/>
<path d="M142.562 207.861C145.126 207.861 147.206 205.782 147.206 203.217C147.206 200.652 145.126 198.573 142.562 198.573C139.997 198.573 137.917 200.652 137.917 203.217C137.917 205.782 139.997 207.861 142.562 207.861Z" stroke="#59595A" stroke-width="3" stroke-miterlimit="10" stroke-linecap="round"/>
<path d="M142.562 241.605C145.126 241.605 147.206 239.525 147.206 236.96C147.206 234.396 145.126 232.316 142.562 232.316C139.997 232.316 137.917 234.396 137.917 236.96C137.917 239.525 139.997 241.605 142.562 241.605Z" stroke="#59595A" stroke-width="3" stroke-miterlimit="10" stroke-linecap="round"/>
<path d="M162.313 183.519V252.042" stroke="#59595A" stroke-width="3" stroke-miterlimit="10" stroke-linecap="round"/>
<path d="M171.602 183.519V252.042" stroke="#59595A" stroke-width="3" stroke-miterlimit="10" stroke-linecap="round"/>
<path d="M166.958 207.861C169.522 207.861 171.602 205.782 171.602 203.217C171.602 200.652 169.522 198.573 166.958 198.573C164.393 198.573 162.313 200.652 162.313 203.217C162.313 205.782 164.393 207.861 166.958 207.861Z" stroke="#59595A" stroke-width="3" stroke-miterlimit="10" stroke-linecap="round"/>
<path d="M166.958 241.605C169.522 241.605 171.602 239.525 171.602 236.96C171.602 234.396 169.522 232.316 166.958 232.316C164.393 232.316 162.313 234.396 162.313 236.96C162.313 239.525 164.393 241.605 166.958 241.605Z" stroke="#59595A" stroke-width="3" stroke-miterlimit="10" stroke-linecap="round"/>
<path d="M194.106 191.188V259.118" stroke="#59595A" stroke-width="3" stroke-miterlimit="10" stroke-linecap="round"/>
<path d="M201.075 198.157V263.644" stroke="#59595A" stroke-width="3" stroke-miterlimit="10" stroke-linecap="round"/>
<path d="M197.511 215.718C198.857 215.718 199.948 213.959 199.948 211.79C199.948 209.62 198.857 207.862 197.511 207.862C196.165 207.862 195.074 209.62 195.074 211.79C195.074 213.959 196.165 215.718 197.511 215.718Z" stroke="#59595A" stroke-width="3" stroke-miterlimit="10" stroke-linecap="round"/>
<path d="M197.511 250.006C198.857 250.006 199.948 247.51 199.948 244.432C199.948 241.354 198.857 238.858 197.511 238.858C196.165 238.858 195.074 241.354 195.074 244.432C195.074 247.51 196.165 250.006 197.511 250.006Z" stroke="#59595A" stroke-width="3" stroke-miterlimit="10" stroke-linecap="round"/>
<path d="M210.289 207.867V269.015" stroke="#59595A" stroke-width="3" stroke-miterlimit="10" stroke-linecap="round"/>
<path d="M217.257 214.835V273.375" stroke="#59595A" stroke-width="3" stroke-miterlimit="10" stroke-linecap="round"/>
<path d="M213.687 227.746C215.033 227.746 216.124 225.988 216.124 223.818C216.124 221.649 215.033 219.89 213.687 219.89C212.341 219.89 211.25 221.649 211.25 223.818C211.25 225.988 212.341 227.746 213.687 227.746Z" stroke="#59595A" stroke-width="3" stroke-miterlimit="10" stroke-linecap="round"/>
<path d="M213.687 262.035C215.033 262.035 216.124 259.539 216.124 256.461C216.124 253.382 215.033 250.887 213.687 250.887C212.341 250.887 211.25 253.382 211.25 256.461C211.25 259.539 212.341 262.035 213.687 262.035Z" stroke="#59595A" stroke-width="3" stroke-miterlimit="10" stroke-linecap="round"/>
<path d="M225.386 224.129V279.276" stroke="#59595A" stroke-width="3" stroke-miterlimit="10" stroke-linecap="round"/>
<path d="M232.36 231.099V283.979" stroke="#59595A" stroke-width="3" stroke-miterlimit="10" stroke-linecap="round"/>
<path d="M228.79 244.01C230.136 244.01 231.227 242.252 231.227 240.082C231.227 237.913 230.136 236.154 228.79 236.154C227.444 236.154 226.353 237.913 226.353 240.082C226.353 242.252 227.444 244.01 228.79 244.01Z" stroke="#59595A" stroke-width="3" stroke-miterlimit="10" stroke-linecap="round"/>
<path d="M228.79 271.33C230.136 271.33 231.227 268.834 231.227 265.756C231.227 262.677 230.136 260.182 228.79 260.182C227.444 260.182 226.353 262.677 226.353 265.756C226.353 268.834 227.444 271.33 228.79 271.33Z" stroke="#59595A" stroke-width="3" stroke-miterlimit="10" stroke-linecap="round"/>
<path d="M0.363405 67.6674L5.53123 66.5879L16.8823 66.6841L53.8747 32.0644L90.4717 66.636L100.813 66.5879L50.5506 15.9891L0 61.0513L0.363405 67.6674Z" fill="#DCDBDB"/>
<path d="M240.932 239.718L162.313 227.747" stroke="#5C5C5B" stroke-miterlimit="10"/>
<path d="M0 60.2976L50.6308 14.9201L121.912 86.6391L172.516 118.319L176.476 114.359L130.275 66.6197L51.069 7L0 51.1697V55.429V60.2976Z" stroke="#5C5C5B" stroke-width="3" stroke-miterlimit="10"/>
<path d="M56.52 11.099L126.096 82.2408L174.643 114.252" stroke="#5C5C5B" stroke-width="3" stroke-miterlimit="10"/>
<path d="M0.363281 67.6672L51.9507 23.4976" stroke="#5C5C5B" stroke-width="3" stroke-miterlimit="10" stroke-linecap="round"/>
<path d="M194.186 303.469L206.152 309.834L206.36 432.894" stroke="#5C5C5B" stroke-miterlimit="10"/>
<path d="M194.999 304.896L195.266 434.54L205.682 432.894L205.233 310.01L194.999 304.896Z" fill="white" stroke="#5C5C5B" stroke-width="3" stroke-miterlimit="10"/>
<path d="M204.896 365.777L201.096 364.729V366.723L204.896 368.182V365.777Z" fill="#5C5C5B"/>
<path d="M0 52.2389V55.4294V58.9833L50.6949 13.7768L122.36 86.1157C122.505 86.26 122.815 86.2493 122.986 86.3562L172.43 117.331L175.551 114.386L169.737 111.992L125.391 82.8451L56.13 11.901L51.1759 8.05322L0 52.2389Z" fill="#E5E5E5"/>
<path d="M72.1035 24.7908L127.688 81.2735L169.084 109.111L129.484 67.4481L72.1035 24.7908Z" fill="white"/>
<path opacity="0.64" d="M34.748 139.189V152.982L80.2752 133.802V116.294H72.1039L34.748 139.189Z" fill="white"/>
<path opacity="0.64" d="M23.2686 328.047V341.835L68.7957 322.66V305.147H60.6244L23.2686 328.047Z" fill="white"/>
<path opacity="0.64" d="M116.054 328.047V341.835L161.581 322.66V305.147H153.41L116.054 328.047Z" fill="white"/>
<path d="M32.2518 69.3132C33.2819 69.3132 34.117 68.4782 34.117 67.4481C34.117 66.418 33.2819 65.583 32.2518 65.583C31.2218 65.583 30.3867 66.418 30.3867 67.4481C30.3867 68.4782 31.2218 69.3132 32.2518 69.3132Z" fill="#5C5C5B"/>
<path d="M35.9773 305.104C36.7506 305.104 37.3775 304.477 37.3775 303.704C37.3775 302.931 36.7506 302.304 35.9773 302.304C35.204 302.304 34.5771 302.931 34.5771 303.704C34.5771 304.477 35.204 305.104 35.9773 305.104Z" fill="#5C5C5B"/>
<path d="M162.923 340.525C163.664 340.525 164.264 339.925 164.264 339.184C164.264 338.443 163.664 337.843 162.923 337.843C162.182 337.843 161.582 338.443 161.582 339.184C161.582 339.925 162.182 340.525 162.923 340.525Z" fill="#5C5C5B"/>
<path d="M210.866 421.415C211.471 421.415 211.961 420.432 211.961 419.219C211.961 418.006 211.471 417.022 210.866 417.022C210.261 417.022 209.77 418.006 209.77 419.219C209.77 420.432 210.261 421.415 210.866 421.415Z" fill="#5C5C5B"/>
<path d="M67.5289 165.231C68.3731 165.231 69.0574 164.547 69.0574 163.702C69.0574 162.858 68.3731 162.174 67.5289 162.174C66.6848 162.174 66.0005 162.858 66.0005 163.702C66.0005 164.547 66.6848 165.231 67.5289 165.231Z" fill="#5C5C5B"/>
<path d="M219.961 313.649V336.143L226.962 338.297V316.61L219.961 313.649Z" fill="white"/>
<path d="M220.105 351.091V373.788L227.106 375.941V352.903L220.105 351.091Z" fill="white"/>
<path opacity="0.34" d="M131.114 92.4005L103.886 130.12L104.88 168.587L144.518 100.834L131.114 92.4005Z" fill="white"/>
<path d="M138.714 124.69L138.858 149.172L145.64 151.336L145.88 127.913L138.714 124.69Z" fill="#FDFEFE"/>
<path d="M1.21875 437.913L265.697 437.239" stroke="#5C5C5B" stroke-width="3" stroke-miterlimit="10"/>
</g>
<defs>
<clipPath id="clip0">
<rect width="450" height="440" fill="white"/>
</clipPath>
</defs>
</svg>
