<svg xmlns="http://www.w3.org/2000/svg" xmlns:xlink="http://www.w3.org/1999/xlink" width="1165" height="759" fill="none" xmlns:v="https://vecta.io/nano"><style><![CDATA[.B{fill:#cecccc}.C{fill:#fff}.D{stroke:#787878}.E{stroke-width:2}.F{stroke-miterlimit:10}.G{opacity:.64}.H{stroke-linecap:round}.I{fill:#585859}.J{opacity:.63}.K{fill:#787878}.L{fill:#d9dbdb}.M{fill:#eaeaea}.N{opacity:.13}.O{fill:#7c7c7c}.P{fill:#98999b}.Q{opacity:.8}.R{fill:#adadad}.S{fill:#e4e4e4}.T{fill:#ededed}.U{fill:#e5e5e5}.V{fill:#c1c1c1}.W{fill:#6f6f70}.X{fill:#f9f9f9}]]></style><g class="R"><path d="M76.069 622.546c4.706 0 8.52-.578 8.52-1.29s-3.815-1.29-8.52-1.29-8.52.577-8.52 1.29 3.815 1.29 8.52 1.29z"/><use xlink:href="#B"/><use xlink:href="#B" x="29.58" y="-0.2"/><use xlink:href="#B" x="60.58" y="-0.2"/><use xlink:href="#B" x="88.58" y="-0.2"/><use xlink:href="#B" x="108.58" y="-0.2"/><use xlink:href="#C"/><use xlink:href="#C" x="31"/><use xlink:href="#C" x="60.58" y="-0.2"/><use xlink:href="#C" x="91.58" y="-0.2"/><use xlink:href="#C" x="119.58" y="-0.2"/><use xlink:href="#C" x="139.58" y="-0.2"/></g><g class="V"><path d="M1058.73 534.056c-7.8-12.19-9.26-26.91-9.11-37.11.08-6.543.83-13.06 2.23-19.45l-.56-.2c-1.42 6.436-2.17 13-2.25 19.59-.15 10.3 1.32 25.17 9.22 37.51l.47-.34z"/><path d="M1053.78 475.476c-.06 1.128-.35 2.231-.85 3.245a8.5 8.5 0 0 1-2.05 2.655 9.63 9.63 0 0 1-1.94-6.65c.06-1.128.34-2.231.84-3.244s1.2-1.913 2.06-2.646c1.44 1.898 2.13 4.263 1.94 6.64zm-5.28 5.78c1.27 2.017 1.73 4.435 1.31 6.78a8.75 8.75 0 0 1-5.31-4.07 9.61 9.61 0 0 1-1.31-6.78 8.75 8.75 0 0 1 5.31 4.07h0zm-2.98 6.81c1.99 1.292 3.41 3.284 4 5.58-1.07.273-2.19.314-3.27.121-1.09-.193-2.12-.616-3.03-1.241a9.39 9.39 0 0 1-4-5.58c1.07-.274 2.18-.315 3.27-.122s2.12.617 3.03 1.242h0zm.92 9.48c.8.561 1.48 1.288 1.98 2.131a6.94 6.94 0 0 1 .93 2.759 5.51 5.51 0 0 1-2.67.45 5.52 5.52 0 0 1-2.56-.88 6.79 6.79 0 0 1-1.99-2.128c-.5-.844-.82-1.786-.92-2.762a5.5 5.5 0 0 1 2.67-.451 5.51 5.51 0 0 1 2.56.881zm6.72-11.23a6.63 6.63 0 0 1 2.78-.792 6.66 6.66 0 0 1 2.85.462c-.23.966-.67 1.873-1.27 2.66-.61.787-1.38 1.438-2.25 1.91a6.64 6.64 0 0 1-2.78.79 6.61 6.61 0 0 1-2.85-.47c.23-.967.66-1.873 1.27-2.659.6-.786 1.37-1.434 2.25-1.901zm-.2 6.53a6.68 6.68 0 0 1 2.78-.787c.97-.055 1.94.104 2.85.467-.24.965-.67 1.87-1.28 2.656s-1.38 1.434-2.25 1.904c-.86.466-1.8.738-2.77.795-.98.057-1.95-.102-2.85-.465a6.98 6.98 0 0 1 1.27-2.661 7.06 7.06 0 0 1 2.25-1.909h0zm-5.35 15.11a3.65 3.65 0 0 1 1.31.631c.39.298.71.672.95 1.099a3.04 3.04 0 0 1-1.23.602 2.99 2.99 0 0 1-1.36-.002c-.47-.119-.92-.334-1.31-.632-.38-.298-.7-.671-.94-1.098.35-.291.77-.496 1.22-.6s.91-.104 1.36 0h0z"/></g><g fill="#3c8f7c"><path d="M1055.51 542.666c-17.85-4.27-31.47-17.47-39.75-27.8-5.38-6.697-10.03-13.956-13.85-21.65l-.72.37c3.83 7.758 8.51 15.072 13.94 21.81 8.36 10.43 22.12 23.77 40.19 28.09l.19-.82z"/><path d="M1002.15 489.256a11.88 11.88 0 0 1 2 8.81c-1.49-.217-2.93-.743-4.204-1.546a10.82 10.82 0 0 1-3.218-3.114 11.79 11.79 0 0 1-1.877-4.206c-.343-1.512-.385-3.076-.123-4.604a10.82 10.82 0 0 1 4.202 1.547 10.87 10.87 0 0 1 3.22 3.113h0zm-.47 11.1c1.46.378 2.84 1.057 4.03 1.993 1.18.937 2.17 2.11 2.88 3.447a11.01 11.01 0 0 1-4.21 1.567 10.98 10.98 0 0 1-4.476-.242c-1.461-.387-2.826-1.072-4.011-2.01a11 11 0 0 1-2.874-3.445c1.271-.813 2.699-1.349 4.191-1.574a10.78 10.78 0 0 1 4.47.264h0zm2.64 9.81a10.65 10.65 0 0 1 4.46-.154 10.62 10.62 0 0 1 4.13 1.684c-.79 1.316-1.83 2.46-3.07 3.362a11.4 11.4 0 0 1-4.14 1.888c-1.46.365-2.98.417-4.45.153a10.62 10.62 0 0 1-4.131-1.683c.785-1.315 1.827-2.458 3.061-3.36 1.24-.902 2.65-1.545 4.14-1.89h0zm7.12 8.91a10.65 10.65 0 0 1 4.45-.145 10.67 10.67 0 0 1 4.13 1.685c-.79 1.315-1.83 2.457-3.07 3.359-1.23.903-2.64 1.546-4.13 1.891-1.46.365-2.98.418-4.46.154a10.65 10.65 0 0 1-4.13-1.684 11.42 11.42 0 0 1 3.07-3.364 11.36 11.36 0 0 1 4.14-1.896h0z"/><path d="M1009.31 504.256c-.17-2.874.74-5.707 2.54-7.95a10.01 10.01 0 0 1 2.41 3.272c.57 1.243.89 2.589.93 3.958.17 2.873-.74 5.707-2.54 7.95-1.02-.917-1.84-2.03-2.41-3.273a10.04 10.04 0 0 1-.93-3.957zm7.42 9.22a11.59 11.59 0 0 1 2.42-8c1.03.899 1.87 1.999 2.46 3.231s.93 2.572.99 3.939c.21 2.874-.65 5.725-2.42 8-1.04-.896-1.88-1.994-2.47-3.227a10 10 0 0 1-.98-3.943h0zm6.13 14.37c.53-.356 1.14-.589 1.78-.684.63-.095 1.28-.05 1.9.134a4.81 4.81 0 0 1-2.09 3.21 4.36 4.36 0 0 1-1.77.684 4.38 4.38 0 0 1-1.9-.134c.1-.65.34-1.271.7-1.824a4.77 4.77 0 0 1 1.38-1.386h0z"/></g><g fill="#e2e2e2"><path d="M1102.77 567.846h.77c-1.11-20.42 6.39-39.64 12.87-52.16 4.08-7.974 8.94-15.524 14.51-22.54l-.57-.59c-5.6 7.062-10.49 14.658-14.6 22.68-6.52 12.61-14.1 32.01-12.98 52.61z"/><path d="M1134.23 491.966c-.71 1.315-1.69 2.468-2.87 3.383a10.66 10.66 0 0 1-3.99 1.927c-.42-3.315.28-6.674 2-9.54a10.69 10.69 0 0 1 2.86-3.385 10.74 10.74 0 0 1 4-1.925c.42 3.314-.28 6.674-2 9.54h0zm-9.38 3.55c.16 3.315-.81 6.588-2.75 9.28a13.02 13.02 0 0 1-3.37-8.66 14.73 14.73 0 0 1 2.74-9.28c2.15 2.371 3.36 5.455 3.38 8.66h0zm-7.53 6.38a14.7 14.7 0 0 1 1 9.62c-1.4-.429-2.69-1.16-3.78-2.141-1.08-.981-1.94-2.19-2.51-3.539-1.41-3.001-1.77-6.393-1-9.62a10.04 10.04 0 0 1 3.78 2.14 10.1 10.1 0 0 1 2.51 3.54h0z"/><use xlink:href="#D"/><use xlink:href="#D" x="-2.23" y="5.63"/><path d="M1126.88 504.946a8.06 8.06 0 0 1 3.63.951 8.11 8.11 0 0 1 2.82 2.489 8.63 8.63 0 0 1-3 2.394 8.57 8.57 0 0 1-3.73.856 8.13 8.13 0 0 1-3.64-.951 8.09 8.09 0 0 1-2.81-2.489c.81-1.009 1.83-1.824 3-2.387 1.16-.562 2.44-.857 3.73-.863h0zm-4.27 7.97a7.97 7.97 0 0 1 3.63.938c1.12.596 2.08 1.45 2.81 2.492-.81 1.013-1.83 1.831-2.99 2.394-1.17.563-2.45.855-3.74.856-1.27-.028-2.51-.354-3.63-.951a8.1 8.1 0 0 1-2.81-2.489c.81-1.011 1.83-1.826 2.99-2.387a8.66 8.66 0 0 1 3.74-.853h0zm-7.07 10.84c.82.019 1.63.232 2.36.621a5.3 5.3 0 0 1 1.83 1.619c-.53.658-1.19 1.19-1.95 1.555s-1.59.555-2.43.555a5.25 5.25 0 0 1-2.37-.617c-.73-.389-1.36-.945-1.83-1.623.53-.657 1.2-1.187 1.95-1.552a5.69 5.69 0 0 1 2.44-.558h0z"/></g><path d="M1036.23 601.366c0-3.4 20.52.62 22.23-4s-17.58-4.89-17.58-11.16 9.83-1.87 15.59-1.87-11.38-2.68-11.38-4.9 6-1.06 6-3.41-31.59-4.13-27.89-9.89 20.68 1.68 25.34-1.31-24.91-6.23-25.64-10.66 21.79 3.79 25 .61-35.62-14.66-34-23.08 29.41 10.79 36.36 8.72-35-31.64-25.28-43.16 28.38 38.13 34.74 36.36-8-31.38-1.47-36.53 25.13 41.68 26.3 51.3 3.54-20.69 13.74-24.23.3 18.77 2.07 25.57 10.05-17.44 21.21-15.67-20.17 23.95-17.07 30.45 27.3-21.71 34.88-14.13-29.15 28.61-27.15 34.37 24-4.12 30.38 2.23-23.67 10.37-27.65 10.37-19.19 5-4.33 4-74.4 3.42-74.4.02z" class="R"/><path d="M1094.71 605.296s24.72 1.32 31.92-3.21 1.52-8 1.52-8 22.86-.5 22.8-5.92-5.6-5.1-5.6-5.1 11.54-7.84 9.39-12.73c-3.31-7.51-22.1 5.56-22.1 5.56s6.16-7.31 1.18-9c-13.67-4.76-39.11 38.4-39.11 38.4z" class="B"/><path d="M1154.74 567.286c2.15 4.89-9.39 12.73-9.39 12.73s8.33-.11 7 5.15-22.29 7-22.29 7 7.31 1.43.11 6-35.44 4.15-35.44 4.15l60.01-35.03z" class="R"/><g class="B"><path d="M153.459 521.676c-8-12.8-9.45-28.26-9.3-39 .077-6.869.84-13.713 2.28-20.43l-.57-.21a102.43 102.43 0 0 0-2.3 20.57c-.16 10.82 1.34 26.44 9.41 39.39l.48-.32z"/><path d="M148.398 460.156c-.059 1.18-.356 2.336-.871 3.399a8.81 8.81 0 0 1-2.129 2.791 10.39 10.39 0 0 1-2-7 8.87 8.87 0 0 1 .873-3.404 8.88 8.88 0 0 1 2.127-2.796c1.5 2.014 2.212 4.507 2 7.01h0zm-5.379 6.07a10.36 10.36 0 0 1 1.34 7.12c-1.142-.319-2.21-.861-3.141-1.594a9.01 9.01 0 0 1-2.289-2.676c-1.292-2.134-1.765-4.664-1.33-7.12 1.141.316 2.208.857 3.139 1.59a8.92 8.92 0 0 1 2.281 2.68zm-3.05 7.15a9.86 9.86 0 0 1 4.07 5.86 7.71 7.71 0 0 1-6.43-1.17 9.88 9.88 0 0 1-4.07-5.86c1.092-.289 2.234-.335 3.346-.132s2.164.646 3.084 1.302zm.939 9.96c.836.593 1.535 1.357 2.053 2.242s.84 1.869.947 2.888a5.47 5.47 0 0 1-2.729.473 5.46 5.46 0 0 1-2.611-.923 7.27 7.27 0 0 1-2.049-2.244c-.517-.884-.841-1.868-.951-2.886.854-.392 1.794-.556 2.729-.477a5.45 5.45 0 0 1 2.611.927h0zm6.871-11.8a6.57 6.57 0 0 1 2.831-.831c.994-.058 1.989.109 2.909.491a7.37 7.37 0 0 1-1.289 2.774 7.39 7.39 0 0 1-2.301 2.016 6.62 6.62 0 0 1-2.835.834c-.996.061-1.993-.105-2.915-.484a7.39 7.39 0 0 1 1.291-2.782 7.38 7.38 0 0 1 2.309-2.018zm-.21 6.88a6.61 6.61 0 0 1 5.75-.35c-.234 1.006-.674 1.953-1.294 2.779a7.44 7.44 0 0 1-2.306 2.021 6.61 6.61 0 0 1-2.836.83c-.996.059-1.992-.109-2.914-.49a7.38 7.38 0 0 1 1.291-2.778 7.37 7.37 0 0 1 2.309-2.012h0zm.53 105.88c-17.65-6.4-30-21.68-37.24-33.36a124.52 124.52 0 0 1-11.63-24.09l-.78.31a125.1 125.1 0 0 0 11.71 24.29c7.32 11.8 19.79 27.23 37.65 33.71l.29-.86z"/><path d="M99.919 522.706a12.71 12.71 0 0 1 1 9.42 11.01 11.01 0 0 1-4.109-2.09 10.99 10.99 0 0 1-2.891-3.59 12.67 12.67 0 0 1-1-9.42 11.05 11.05 0 0 1 7 5.68h0zm-1.69 11.54a11.19 11.19 0 0 1 3.881 2.537c1.102 1.107 1.96 2.434 2.519 3.893a10.76 10.76 0 0 1-8.94.42 11.21 11.21 0 0 1-3.879-2.54c-1.102-1.107-1.961-2.432-2.521-3.89 1.373-.705 2.882-1.107 4.424-1.18a10.81 10.81 0 0 1 4.516.76h0zm1.55 10.53c1.523-.219 3.074-.105 4.549.334a10.65 10.65 0 0 1 3.991 2.206c-.929 1.278-2.109 2.354-3.467 3.162s-2.866 1.331-4.433 1.538a10.71 10.71 0 0 1-4.552-.337 10.7 10.7 0 0 1-3.998-2.203 11.64 11.64 0 0 1 3.471-3.164c1.36-.808 2.87-1.331 4.439-1.536zm6.22 10.07a10.63 10.63 0 0 1 4.548.334 10.65 10.65 0 0 1 3.992 2.206 11.72 11.72 0 0 1-3.469 3.158c-1.358.808-2.865 1.332-4.431 1.542-1.523.217-3.074.103-4.548-.335a10.67 10.67 0 0 1-3.992-2.205 11.6 11.6 0 0 1 3.465-3.165c1.358-.809 2.867-1.331 4.435-1.535z"/><path d="M105.499 539.146a12.4 12.4 0 0 1 3.47-8c.936 1.082 1.646 2.339 2.089 3.699s.61 2.795.491 4.221a12.4 12.4 0 0 1-3.47 8 10.74 10.74 0 0 1-2.58-7.92h0zm6.5 10.45a12.45 12.45 0 0 1 3.35-8.09c.952 1.063 1.682 2.307 2.145 3.657s.653 2.779.555 4.203a12.41 12.41 0 0 1-3.36 8.09c-.948-1.066-1.674-2.31-2.136-3.659a10.74 10.74 0 0 1-.554-4.201zm4.61 15.7c.577-.313 1.218-.492 1.874-.523a4.37 4.37 0 0 1 1.916.343 5 5 0 0 1-.911 1.816c-.425.537-.956.98-1.559 1.304a4.39 4.39 0 0 1-3.8.18c.177-.663.489-1.281.916-1.818a5 5 0 0 1 1.564-1.302h0z"/></g><g class="R"><path d="M186.229 568.766s13.72-28.85 9.13-35.29c-6.33-8.9-14.22 18.41-14.6 16-3.63-22.67-2.87-51.25-19.85-55.58-9.65-2.47.64 21.34-.56 27.48s-17.24-15.76-27.12-27.35-15.94-5.19-10.21 8.87c5.54 13.59 25.62 29.52 21.12 30.88s-29.69-17.57-33.49-10.59c-4.66 8.56 34.16 23.66 30.27 25.36s-22.39-6.3-22.39.51 25.56 8.52 24.89 11.47c-1.08 4.77-17.13-7.45-18.38-.82s21.79 7.28 21 12.58c-.46 3-6.27-.14-7.32 4-2.4 9.55 34 22.92 34 22.92l13.51-30.44z"/><path d="M172.649 599.006s-14.12-22.54-21-26.88c-7.37-4.62-1.94 8.91-1.94 8.91s-14.9-18.4-19.2-14.79-.54 7.93-.54 7.93-13.59-4.3-16.14.68c-3.92 7.64 18.47 14.44 18.47 14.44s-9.66-.28-8 5c2.53 7.86 48.35 4.71 48.35 4.71z"/></g><path d="M113.789 574.846c2.55-5 16.14-.68 16.14-.68s-3.76-4.33.54-7.93 16.28 7.61 16.28 7.61-1.11-9.11 7.92-.94c6.44 5.84 18 26.07 18 26.07l-58.88-24.13z" class="B"/><g class="R"><path d="M215.229 574.006c5.52 2.58 4 9 4 9s15-11.65 20.57-4.85 2.65 20.13-3.91 22.29-63.65.65-63.65.65 37.99-29.41 42.99-27.09z"/><path d="M172.229 601.016s24.95-5.12 30.39-10.1 3-6.93 3-6.93 9.59-7.55 9.44-12.48-6.39-2.43-6.39-2.43 10.58-13.59 8.07-16.17c-4.68-4.81-16.91 9.31-16.91 9.31s3.63-6.72-.2-7.79c-5.78-1.6-10 15-10 15s1.07-6.54-2.91-5.67c-7.11 1.51-14.49 37.26-14.49 37.26z"/></g><path d="M1156.31 548.296h.36c.76 0 1.5.303 2.04.843s.84 1.273.84 2.037v65.8h-6.1v-65.8c0-.761.3-1.49.84-2.03.53-.539 1.26-.845 2.02-.85h0z" class="B"/><use xlink:href="#E" class="D E F H"/><path d="M1134.71 548.296h.36a2.86 2.86 0 0 1 1.1.219c.35.145.67.357.94.624.26.268.48.585.62.935a2.97 2.97 0 0 1 .22 1.102v65.8h-6.12v-65.8c0-.764.3-1.497.84-2.037s1.28-.843 2.04-.843h0z" class="B"/><path d="M1131.83 596.976v-45.8c0-.764.3-1.497.84-2.037s1.28-.843 2.04-.843h.36c.76 0 1.5.303 2.04.843s.84 1.273.84 2.037" class="D E F H"/><path d="M1107.89 548.296h.36a2.86 2.86 0 0 1 1.1.219c.35.145.67.357.94.624a3.09 3.09 0 0 1 .62.935 2.97 2.97 0 0 1 .22 1.102v65.8h-6.12v-65.8c0-.764.3-1.497.84-2.037s1.27-.843 2.04-.843h0z" class="B"/><path d="M1105.01 596.976v-45.8c0-.764.3-1.497.84-2.037s1.27-.843 2.04-.843h.36a2.86 2.86 0 0 1 1.1.219c.35.145.67.357.94.624a3.09 3.09 0 0 1 .62.935 2.97 2.97 0 0 1 .22 1.102" class="D E F H"/><use xlink:href="#F" class="B"/><use xlink:href="#E" x="-79.42" class="D E F H"/><use xlink:href="#F" x="-31" class="B"/><use xlink:href="#G" class="D E F H"/><use xlink:href="#F" x="-62" class="B"/><use xlink:href="#G" x="-31" class="D E F H"/><path d="M1163.03 566.966h-157.92v4.25h157.92v-4.25z" class="B"/><use xlink:href="#H" class="D E F"/><path d="M1163.03 597.966h-157.92v4.25h157.92v-4.25z" class="B"/><use xlink:href="#H" y="31" class="D E F"/><path d="M371.969 120.636c4.888-8.946 6.73-19.241 5.248-29.327a46.93 46.93 0 0 0-40.213-39.693 46.93 46.93 0 0 0-29.255 5.63 45.49 45.49 0 0 0-8.396-25.16c-5.236-7.367-12.548-13.007-21.002-16.201a45.49 45.49 0 0 0-26.468-1.733c-8.798 2.064-16.783 6.703-22.934 13.324-3.348-7.535-9.123-13.733-16.404-17.603a36.9 36.9 0 0 0-23.767-3.749c-8.119 1.441-15.521 5.56-21.025 11.699s-8.794 13.945-9.344 22.172a25.51 25.51 0 0 0-18.827-.972c-6.17 2.092-11.305 6.465-14.353 12.222-8.257-5.483-18.021-8.248-27.926-7.905a47.51 47.51 0 0 0-43.822 33.686 47.51 47.51 0 0 0 .458 29.02 43.34 43.34 0 0 0-29.25 39.34 43.34 43.34 0 0 0 26.16 41.46 36.3 36.3 0 0 0-5.25 18.63c-.01 2.823.305 5.638.94 8.39-5.189-1.49-10.652-1.762-15.964-.797a35.1 35.1 0 0 0-14.662 6.365c-4.333 3.221-7.864 7.399-10.319 12.207a35.1 35.1 0 0 0-.395 31.125 35.1 35.1 0 0 0 10.006 12.465c4.25 3.33 9.21 5.635 14.496 6.735s10.754.967 15.979-.39c.533 2.247 1.332 4.422 2.38 6.48-21.15 10.08-35.63 30.13-35.76 53.3-.18 33.48 29.64 60.79 66.6 61 16.379.212 32.324-5.271 45.11-15.51 2.377 5.224 5.883 9.857 10.265 13.565s9.531 6.399 15.077 7.879 11.351 1.713 16.998.682a38.86 38.86 0 0 0 15.66-6.646c2.3 5.149 6.156 9.449 11.025 12.295s10.508 4.097 16.124 3.575a27 27 0 0 0 15.189-6.484c4.261-3.695 7.259-8.631 8.572-14.116 1.85.07 3.71.12 5.57.13 32.202.179 63.796-8.778 91.112-25.834a170.24 170.24 0 0 0 78.957-163.906 170.24 170.24 0 0 0-36.589-87.35h0z" class="S"/><path d="M206.639 420.496h-.16a29.47 29.47 0 0 1-14.652-4.044c-4.446-2.605-8.132-6.332-10.688-10.806-4.763 2.963-10.081 4.921-15.628 5.754s-11.206.524-16.629-.908a41.15 41.15 0 0 1-14.907-7.424 41.16 41.16 0 0 1-10.746-12.722c-12.714 9.362-28.111 14.371-43.9 14.28h-.42a72.46 72.46 0 0 1-48.77-18.61c-13.06-12-20.2-27.83-20.11-44.68.13-22.61 13.49-43.24 35-54.35-.373-.88-.707-1.78-1-2.7a39.12 39.12 0 0 1-7.41.7A37.4 37.4 0 0 1 .001 247.389a37.4 37.4 0 0 1 10.895-26.182c6.928-6.959 16.315-10.914 26.133-11.011 2.217.02 4.429.23 6.61.63a38.53 38.53 0 0 1 4-23A45.63 45.63 0 0 1 22.4 145.101a45.63 45.63 0 0 1 28.679-40.495 49.81 49.81 0 0 1 8.042-43.753 49.81 49.81 0 0 1 39.798-19.877h.31a49.54 49.54 0 0 1 25.22 7 27.8 27.8 0 0 1 32-11.29 39.2 39.2 0 0 1 31.833-32.861 39.2 39.2 0 0 1 41.297 19.691 48.15 48.15 0 0 1 33-12.94 47.56 47.56 0 0 1 31.92 12.353c8.738 7.936 14.213 18.839 15.36 30.587a49.22 49.22 0 0 1 47.448 3.037c7.008 4.472 12.77 10.647 16.746 17.948a49.22 49.22 0 0 1 5.996 23.805c-.048 7.646-1.869 15.176-5.32 22 24.3 30.737 37.438 68.817 37.26 108-.52 94.81-77.83 171.58-172.52 171.58h-1c-1.28 0-2.56 0-3.83-.07a29.25 29.25 0 0 1-28 20.68h0zm-23.7-21.65l1.15 2.54a24.86 24.86 0 0 0 9.083 10.543c3.97 2.577 8.594 3.968 13.327 4.007h.14a24.69 24.69 0 0 0 15.301-5.267c4.363-3.426 7.445-8.221 8.749-13.613l.44-1.81 1.87.07 5.49.13h.94c92.19 0 167.43-74.73 167.94-167a168.3 168.3 0 0 0-37.14-106.37l-1-1.2.74-1.34c3.709-6.78 5.594-14.406 5.471-22.132a44.63 44.63 0 0 0-22.38-37.98 44.63 44.63 0 0 0-22.011-5.938h-.25a44.59 44.59 0 0 0-21.91 5.76l-3.32 1.87-.1-3.81a43.19 43.19 0 0 0-7.966-23.9c-4.972-6.998-11.916-12.356-19.946-15.389a43.19 43.19 0 0 0-46.918 11.02l-2.41 2.53-1.41-3.16a34.69 34.69 0 0 0-12.678-14.895 34.68 34.68 0 0 0-18.722-5.665h-.19a34.66 34.66 0 0 0-34.54 32.29l-.22 3.31-3-1.38a23.06 23.06 0 0 0-9.53-2.12h-.13a23.25 23.25 0 0 0-20.58 12.38l-1.18 2.23-2.11-1.4a44.93 44.93 0 0 0-24.71-7.54h-.26a45.24 45.24 0 0 0-45.22 45 45.54 45.54 0 0 0 2.38 14.73l.73 2.16-2.15.74a41.05 41.05 0 0 0-27.682 37.262c-.315 8.279 1.883 16.46 6.304 23.467a41.06 41.06 0 0 0 18.468 15.791l2.42 1-1.37 2.25a34.19 34.19 0 0 0-4 25.32l.87 3.79-3.73-1.08c-4.505-1.297-9.237-1.613-13.874-.927a32.8 32.8 0 0 0-13.012 4.904 32.81 32.81 0 0 0-9.812 9.852c-2.529 3.948-4.183 8.392-4.85 13.032s-.332 9.37.983 13.871 3.579 8.666 6.639 12.217a32.81 32.81 0 0 0 11.104 8.371 32.82 32.82 0 0 0 13.574 3.02 32.3 32.3 0 0 0 8.44-1.05l2.26-.59.55 2.28a26.7 26.7 0 0 0 2.19 6l1.08 2.1-2.13 1c-21.22 10.06-34.42 29.72-34.54 51.24-.08 15.53 6.53 30.19 18.63 41.27 12.538 11.278 28.826 17.484 45.69 17.41 15.851.205 31.282-5.096 43.66-15l2.3-1.87 1.23 2.69a36.54 36.54 0 0 0 9.657 12.764 36.55 36.55 0 0 0 14.184 7.417c5.217 1.394 10.679 1.615 15.993.646s10.346-3.102 14.736-6.247l2.27-1.6z" class="K"/><path d="M375.799 134.726a42 42 0 0 0-7.291-50.139 42 42 0 0 0-50.229-6.641 40.74 40.74 0 0 0-26.326-37.058 40.74 40.74 0 0 0-23.71-1.552c-7.882 1.85-15.034 6.007-20.544 11.94-3.001-6.746-8.175-12.293-14.696-15.757a33.06 33.06 0 0 0-40.115 7.116c-4.931 5.496-7.881 12.484-8.379 19.851a22.87 22.87 0 0 0-29.74 10.08 42.56 42.56 0 0 0-49.471 1.723 42.56 42.56 0 0 0-14.379 47.367c-7.412 2.544-13.88 7.273-18.554 13.563a38.82 38.82 0 0 0-1.667 43.874 38.82 38.82 0 0 0 17.471 14.933 32.43 32.43 0 0 0-4.7 16.69 32.09 32.09 0 0 0 .84 7.51 31.05 31.05 0 0 0-8.52-1.22 31.43 31.43 0 0 0-13.016 2.696c-4.097 1.816-7.758 4.487-10.739 7.834s-5.211 7.293-6.541 11.572a31.44 31.44 0 0 0 3.227 25.784c2.345 3.819 5.479 7.093 9.192 9.603a31.45 31.45 0 0 0 12.338 4.946c4.418.75 8.946.547 13.279-.595a25.85 25.85 0 0 0 2.14 5.8c-19 9-31.92 27-32 47.75-.17 30 26.54 54.45 59.65 54.63a63.39 63.39 0 0 0 40.41-13.9 34.81 34.81 0 0 0 9.197 12.147c3.924 3.32 8.536 5.73 13.503 7.056s10.166 1.536 15.223.613a34.81 34.81 0 0 0 14.027-5.946c2.077 4.593 5.536 8.425 9.894 10.959s9.398 3.646 14.418 3.179a24.22 24.22 0 0 0 13.585-5.783c3.816-3.294 6.509-7.697 7.703-12.595l5 .12c28.835.149 57.12-7.881 81.576-23.158s44.077-37.175 56.589-63.154a152.47 152.47 0 0 0 14.102-83.618c-3.3-28.645-14.655-55.768-32.747-78.22h0z" class="C"/><path d="M239.079 322.846c-2.47 31.22-3.94 86.4-4.73 101.62-7.57-23.7-27.22-40.61-48.85-64a12.15 12.15 0 0 0-9.246-3.948 12.16 12.16 0 0 0-5 1.203c-1.562.754-2.944 1.833-4.054 3.165-2.92 3.6-3.8 6.8-2.44 8.64 2.34 3.15 38.86 34.53 42.84 42 9.11 10.72 25.47 30.52 26.73 46.74 3 39-4.28 125.6-3 164.91l31.17.17c.42-10.48 0-61.81-.19-66.84-.58-16.38-10-103.85 5.55-150.93 8.39-25.43 25-62 25.25-90.25-10.6 18.83-14.54 42-23.7 61.95-7.82 17-20.1 35.61-23.69 54-1.23-14.84 6.63-85.09 9.72-106.55.176-1.206.08-2.436-.28-3.6a8.19 8.19 0 0 0-1.8-3.13h0c-1.083-1.174-2.483-2.008-4.03-2.401a8.25 8.25 0 0 0-4.687.183c-1.512.514-2.842 1.455-3.829 2.709a8.25 8.25 0 0 0-1.734 4.359h0z" fill="#a0a0a0"/><path d="M263.988 624.906l-34.12-.19v-1.47c-.57-17.5.53-44 1.69-72.07 1.45-35 2.95-71.15 1.3-92.77-1.27-16.33-18.86-37-26.37-45.87l-.18-.27c-2.51-4.68-19.58-20.28-30.87-30.59-7.21-6.58-11-10.07-11.86-11.21-1.83-2.48-.93-6.31 2.49-10.52a13.42 13.42 0 0 1 4.465-3.548c1.726-.849 3.613-1.317 5.535-1.372 1.982-.065 3.954.297 5.783 1.061a13.8 13.8 0 0 1 4.817 3.369l11.78 12.46c14.67 15.31 27.57 28.78 34.75 45.12l.55-14.78 3.86-79.49a9.78 9.78 0 0 1 2.019-5.215c1.167-1.504 2.748-2.635 4.548-3.253s3.743-.697 5.587-.227a9.77 9.77 0 0 1 6.931 6.597 9.77 9.77 0 0 1 .335 4.278c-2.46 17-8.46 69.59-9.64 94.93 3.31-9.34 8.16-18.61 12.89-27.66 2.83-5.4 5.49-10.5 7.81-15.54 4-8.64 7-18.09 10-27.24 3.81-11.85 7.76-24.1 13.79-34.82l2.91-5.18-.06 5.95c-.21 21.86-9.84 48-18.34 71.13l-7 19.58c-13.24 39.75-8.36 109.1-6.27 138.75l.73 11.68c.17 4.94.62 56.33.2 67l-.06 1.38zm-31.16-3.23l28.21.16c.34-13.17-.08-60.53-.24-65.26-.08-2.4-.37-6.44-.73-11.56-2.1-29.78-7-99.52 6.36-139.9 2-6 4.43-12.66 7-19.68 7.51-20.38 15.9-43.2 17.78-63-4.16 8.86-7.28 18.53-10.31 27.94-3 9.23-6 18.78-10.09 27.58-2.35 5.11-5 10.24-7.88 15.68-6.5 12.43-13.23 25.28-15.71 37.93l-2.11 10.79-.91-11c-1.25-15.15 6.71-85.82 9.74-106.89a6.71 6.71 0 0 0-.148-2.676 6.7 6.7 0 0 0-1.182-2.405c-.551-.714-1.241-1.31-2.027-1.752s-1.654-.72-2.551-.82-1.805-.017-2.669.242a6.72 6.72 0 0 0-4.042 3.353 6.72 6.72 0 0 0-.731 2.578h0c-1.74 22-3 56.52-3.84 79.36l-.89 22.22-.43 8.36-2.55-8c-6-18.95-20.25-33.78-36.69-50.95l-11.82-12.5c-1.046-1.137-2.326-2.033-3.752-2.629a10.73 10.73 0 0 0-4.508-.821 10.37 10.37 0 0 0-7.73 3.8c-2.36 2.9-3.3 5.56-2.4 6.77.71 1 5.93 5.72 11.46 10.77 12 11 28.43 26 31.42 31.26 7.76 9.13 25.65 30.25 27 47.49 1.66 21.8.16 58.07-1.3 93.13-1.13 27.28-2.2 53.04-1.73 70.43h0z" class="I"/><path opacity=".109" d="M321.049 86.656a26.3 26.3 0 0 0-24.51 16.43c-7.448-5.281-16.35-8.124-25.48-8.14-23.38-.13-42.42 17.33-42.54 39a37.1 37.1 0 0 0 7.36 22.29 38 38 0 0 0-14.347 16.494c-3.064 6.785-4.067 14.321-2.885 21.671a38 38 0 0 0 28.328 30.839 38.01 38.01 0 0 0 39.488-13.936 38 38 0 0 0 7.623-20.489c.48-7.429-1.234-14.836-4.927-21.299 13-5.79 22.32-17.54 23.78-31.48 2.528.808 5.166 1.223 7.82 1.23a26.34 26.34 0 0 0 10.229-1.803c3.255-1.275 6.225-3.186 8.733-5.621s4.508-5.347 5.878-8.563 2.087-6.674 2.107-10.171-.659-6.961-1.994-10.193-3.302-6.164-5.784-8.627-5.429-4.406-8.671-5.717a26.31 26.31 0 0 0-10.208-1.916h0z" class="S"/><path d="M148.049 376.846a41.64 41.64 0 0 1-21.23-5.9c-.504-.341-.852-.868-.967-1.465s.011-1.216.352-1.72.868-.852 1.465-.967a2.29 2.29 0 0 1 1.72.352h0c5.763 3.527 12.417 5.324 19.172 5.177s13.325-2.232 18.928-6.007c16.17-10.42 22.76-24 19.58-40.3-.116-.597.009-1.216.348-1.72a2.29 2.29 0 0 1 3.182-.622c.505.339.854.865.97 1.462 3.57 18.34-3.7 33.49-21.59 45-6.497 4.332-14.121 6.665-21.93 6.71h0zm39.58-56.34a2.61 2.61 0 0 0 0-5.22 2.61 2.61 0 1 0 0 5.22zm60.23 7.78a20.73 20.73 0 0 1-2.67-.17c-12.32-1.51-15.27-11.68-16-16.27-.55.11-1.23.28-2 .48-4.72 1.17-13.52 3.37-20.49-.86-4.2-2.54-7.09-7-8.6-13.21-2.45-10.14 1.83-18.11 14.77-27.52a2.29 2.29 0 0 1 1.706-.408c.6.096 1.137.426 1.494.918s.504 1.105.408 1.705-.426 1.138-.918 1.495c-11.32 8.23-15 14.61-13 22.73 1.21 5 3.4 8.49 6.51 10.37 5.34 3.24 12.65 1.42 17 .33 1-.26 1.9-.47 2.58-.59a4.3 4.3 0 0 1 1.717.041c.563.128 1.095.37 1.563.709.469.346.865.781 1.165 1.28a4.44 4.44 0 0 1 .585 1.63c.6 4.24 3 11.51 12 12.62 12.05 1.47 15-10 15.16-10.47.153-.58.527-1.078 1.042-1.385s1.13-.4 1.713-.259a2.29 2.29 0 0 1 1.404 1.016c.317.509.422 1.122.291 1.708-1.17 5.12-6.37 14.11-17.43 14.11zm-27.58-57.88a2.58 2.58 0 1 0 0-5.16 2.58 2.58 0 0 0 0 5.16z" class="I"/><path d="M218.139 190.436a2.27 2.27 0 0 1-.875-.176 2.26 2.26 0 0 1-.74-.5c-.212-.214-.378-.468-.491-.746a2.28 2.28 0 0 1-.164-.878 40.13 40.13 0 0 1 4.488-18.285c2.924-5.652 7.152-10.528 12.332-14.225a39.2 39.2 0 0 1-6.46-21.69 39.86 39.86 0 0 1 3.546-16.079c2.289-5.054 5.608-9.574 9.744-13.271a46 46 0 0 1 31.28-11.93h.27c9.605.006 18.97 2.998 26.8 8.56a2.27 2.27 0 0 1 .679.637c.181.256.306.547.369.855a2.28 2.28 0 0 1-.001.931 2.3 2.3 0 0 1-.372.853c-.182.256-.413.472-.682.635a2.27 2.27 0 0 1-.877.311c-.311.043-.627.021-.929-.064a2.3 2.3 0 0 1-.827-.428c-7.063-5.012-15.509-7.706-24.17-7.71a41.24 41.24 0 0 0-28.42 10.72c-3.668 3.274-6.613 7.278-8.646 11.754a35.36 35.36 0 0 0-3.164 14.246c-.022 7.525 2.395 14.854 6.89 20.89l1.46 2-2.08 1.31a35.6 35.6 0 0 0-12.187 12.859c-2.915 5.245-4.456 11.141-4.483 17.141a2.29 2.29 0 0 1-2.29 2.28h0z" class="W"/><path d="M323.999 290.976a46.93 46.93 0 0 1-27.088-12.421c-7.439-6.974-12.404-16.182-14.143-26.229a46.92 46.92 0 0 1 4.504-29.457c4.663-9.069 12.153-16.372 21.337-20.803-7.286-5.349-12.813-12.748-15.875-21.252s-3.521-17.728-1.318-26.494a45.48 45.48 0 0 1 37.723-33.944c-4.272-7.051-6.06-15.33-5.079-23.515s4.673-15.807 10.489-21.65a36.91 36.91 0 0 1 45.14-5.615 25.51 25.51 0 0 1 28.19-20.83c.217-9.906 3.525-19.497 9.461-27.43a47.52 47.52 0 0 1 52.662-16.747 47.52 47.52 0 0 1 23.567 16.927 43.34 43.34 0 0 1 48.992-1.542c7.367 4.718 13.135 11.555 16.543 19.612s4.3 16.958 2.555 25.53a36.29 36.29 0 0 1 24.64 11.88 35.1 35.1 0 0 1 22.053-21.968c5.117-1.719 10.562-2.234 15.912-1.506a35.1 35.1 0 0 1 25.783 17.44 35.11 35.11 0 0 1 4.524 15.33 35.1 35.1 0 0 1-2.742 15.747 35.11 35.11 0 0 1-9.44 12.898 29.06 29.06 0 0 1 4 5.66c20.36-11.62 45.09-12.06 64.19 1.07 27.59 19 33 59 12.05 89.49a70.7 70.7 0 0 1-38.49 28.19 38.84 38.84 0 0 1 5.295 16.189c.545 5.722-.186 11.494-2.141 16.899s-5.086 10.309-9.166 14.357-9.008 7.141-14.428 9.055c2.913 4.828 4.242 10.447 3.8 16.069s-2.635 10.964-6.268 15.277-8.526 7.38-13.991 8.77a27 27 0 0 1-16.481-1.016l-3.07 4.64a170.23 170.23 0 0 1-73.214 60.063 170.24 170.24 0 0 1-93.98 11.648c-31.798-5.085-61.501-19.084-85.662-40.373s-41.788-48.993-50.834-79.898v-.05z" class="S"/><path d="M487.009 415.716a172.65 172.65 0 0 1-164.78-122.65 49.21 49.21 0 0 1-41.533-39.334 49.21 49.21 0 0 1 3.527-29.826c4.256-9.331 11.32-17.1 20.206-22.22a47.78 47.78 0 0 1-14.451-21.871c-2.684-8.495-2.94-17.571-.738-26.203a47.78 47.78 0 0 1 13.198-22.649c6.425-6.172 14.447-10.424 23.161-12.277a39.2 39.2 0 0 1-3.57-23.769c1.328-8.101 5.166-15.581 10.973-21.384s13.288-9.637 21.39-10.961a39.2 39.2 0 0 1 23.767 3.584 27.5 27.5 0 0 1 3.71-7.77 27.81 27.81 0 0 1 23.83-12.07 49.81 49.81 0 0 1 10.568-27.34c6.185-7.847 14.588-13.653 24.115-16.662a49.81 49.81 0 0 1 29.311-.215c9.57 2.87 18.056 8.551 24.356 16.307a45.63 45.63 0 0 1 49.618-.429 45.63 45.63 0 0 1 17.003 19.499c3.668 8.004 4.942 16.898 3.669 25.61a38.64 38.64 0 0 1 21.12 9.83c.909-2.025 2-3.963 3.26-5.79A37.39 37.39 0 0 1 599.944 56.4c4.452-2.751 9.43-4.536 14.615-5.242a37.39 37.39 0 0 1 15.484 1.147c5.024 1.461 9.685 3.961 13.683 7.337s7.241 7.554 9.523 12.263 3.548 9.844 3.72 15.074a37.39 37.39 0 0 1-11.42 28.147 34.25 34.25 0 0 1 1.65 2.35c21.42-11.34 46-10.53 64.62 2.27 13.89 9.54 22.84 24.46 25.2 42 2.261 17.859-2.213 35.921-12.55 50.66-8.939 13.181-21.927 23.094-37 28.24a41.16 41.16 0 0 1 4.322 16.091 41.14 41.14 0 0 1-2.414 16.486 41.15 41.15 0 0 1-8.752 14.178c-3.853 4.079-8.501 7.327-13.656 9.545 2.468 5.154 3.377 10.917 2.614 16.58s-3.163 10.981-6.906 15.299-8.666 7.448-14.164 9.006a29.33 29.33 0 0 1-16.784-.235c-.69 1.07-1.4 2.14-2.13 3.19a171.45 171.45 0 0 1-48.172 47.093 171.46 171.46 0 0 1-62.598 24.897 175.26 175.26 0 0 1-31.82 2.94h0zm-126.24-349.08a34.62 34.62 0 0 0-17.485 4.708c-5.308 3.093-9.697 7.542-12.717 12.891s-4.562 11.406-4.469 17.547 1.82 12.149 5.001 17.404l1.79 3-3.42.49a43.21 43.21 0 0 0-35.817 32.241c-2.093 8.324-1.66 17.083 1.245 25.159a43.21 43.21 0 0 0 15.062 20.19l3.08 2.25-3.44 1.66c-8.712 4.226-15.814 11.172-20.232 19.788a44.63 44.63 0 0 0 9.155 52.895c7.058 6.63 16.081 10.784 25.707 11.837l1.52.16.44 1.48c8.928 30.485 26.319 57.813 50.155 78.813a167.95 167.95 0 0 0 84.504 39.824c31.368 5.016 63.514 1.034 92.71-11.485a167.95 167.95 0 0 0 72.231-59.242l3-4.59 1-1.57 1.75.67c4.806 1.853 10.071 2.161 15.06.88s9.455-4.087 12.774-8.027 5.326-8.817 5.741-13.951-.782-10.271-3.425-14.692l-1.42-2.4 2.63-.93c7.269-2.563 13.532-7.376 17.88-13.74a36.71 36.71 0 0 0 1.3-39.39l-1.51-2.55 2.85-.82c15.625-4.749 29.087-14.83 38.042-28.486a69.74 69.74 0 0 0 10.958-46.244c-2.19-16.26-10.44-30.05-23.25-38.85-17.75-12.2-41.42-12.57-61.75-1l-2.06 1.17-1.1-2.09a26.52 26.52 0 0 0-3.64-5.2l-1.56-1.74 1.77-1.53c3.547-3.037 6.405-6.796 8.383-11.026a32.82 32.82 0 0 0 3.085-13.503c.057-4.669-.885-9.296-2.76-13.573s-4.642-8.103-8.115-11.224-7.573-5.465-12.024-6.875a32.81 32.81 0 0 0-26.887 3.203 32.8 32.8 0 0 0-10.072 9.508 33.19 33.19 0 0 0-4 8l-1.21 3.74-2.61-2.88a34.07 34.07 0 0 0-23.1-11.13l-2.62-.17.52-2.58a41.01 41.01 0 0 0-2.372-24.209 41 41 0 0 0-39.127-25.055 41 41 0 0 0-22.981 7.974l-1.84 1.35-1.37-1.87a45.22 45.22 0 0 0-50.083-16.184c-8.993 2.867-16.864 8.476-22.508 16.041a45.22 45.22 0 0 0-8.969 26.143l-.05 2.52-2.51-.29a23.2 23.2 0 0 0-25.66 19l-.59 3.26-2.85-1.71a34.43 34.43 0 0 0-17.74-4.99h0z" class="K"/><path d="M333.369 302.166c-9.095-.955-17.629-4.851-24.308-11.098a42 42 0 0 1-8.638-49.923 42 42 0 0 1 19.166-18.619c-6.524-4.794-11.471-11.422-14.212-19.039a40.75 40.75 0 0 1-1.178-23.729c1.973-7.852 6.239-14.937 12.256-20.354s13.509-8.918 21.524-10.058a33.06 33.06 0 0 1 4.834-40.443 33.06 33.06 0 0 1 19.336-9.492c7.325-.916 14.745.645 21.08 4.435a22.86 22.86 0 0 1 25.25-18.65c.204-8.868 3.174-17.451 8.495-24.549a42.56 42.56 0 0 1 47.16-14.962 42.56 42.56 0 0 1 21.095 15.161 38.81 38.81 0 0 1 21.716-7.503c7.83-.252 15.553 1.872 22.153 6.092a38.81 38.81 0 0 1 14.827 17.551c3.057 7.213 3.861 15.182 2.304 22.86a32.64 32.64 0 0 1 22.08 10.64c1.564-4.57 4.16-8.717 7.587-12.121a31.43 31.43 0 0 1 26.409-8.84 31.43 31.43 0 0 1 13.355 5.11c4 2.707 7.322 6.3 9.709 10.499a31.42 31.42 0 0 1 4.053 13.713 31.43 31.43 0 0 1-2.442 14.089c-1.886 4.447-4.771 8.399-8.431 11.55a25.86 25.86 0 0 1 3.54 5.07c18.23-10.41 40.38-10.8 57.49.95 24.72 17 29.55 52.88 10.8 80.17a63.29 63.29 0 0 1-34.48 25.24c2.628 4.419 4.244 9.365 4.732 14.483a34.79 34.79 0 0 1-10.098 27.968c-3.646 3.626-8.049 6.398-12.894 8.119 2.578 4.327 3.743 9.35 3.333 14.371s-2.376 9.788-5.623 13.639a24.22 24.22 0 0 1-12.493 7.847c-4.879 1.252-10.027.953-14.727-.857l-2.75 4.16a152.5 152.5 0 0 1-65.581 53.772c-26.505 11.362-55.688 14.976-84.164 10.422a152.49 152.49 0 0 1-76.716-36.151c-21.639-19.062-37.43-43.869-45.539-71.543l-.01.02z" class="C"/><path d="M565.909 297.326c27 15.79 73.19 46.08 86.14 54.12-15.13-19.74-17.82-45.53-24.67-76.6-.386-1.691-.404-3.444-.054-5.142a12.12 12.12 0 0 1 2.08-4.701 12.14 12.14 0 0 1 3.842-3.418c1.51-.852 3.185-1.37 4.912-1.519 4.64-.35 7.76.76 8.49 2.92 1.26 3.73 6.18 51.62 10 59.15 3.6 13.6 10.52 38.34 23.12 48.63 30.34 24.73 105.56 68.18 137.1 91.69l-17.64 25.64c-8.85-5.64-50.74-35.31-54.77-38.31-13.12-9.83-79.54-67.53-127.1-81.6-25.66-7.63-65.13-14.87-88.51-30.79 21.51 2.05 42.82 12.06 64.39 15.9 18.44 3.3 40.72 3.83 57.83 11.35-11.48-9.47-73.65-43.12-93-52.83a8.21 8.21 0 0 1-2.796-2.292 8.22 8.22 0 0 1-1.544-3.268h0a8.23 8.23 0 0 1 .324-4.698c.562-1.501 1.55-2.805 2.843-3.753a8.24 8.24 0 0 1 4.435-1.583c1.601-.085 3.192.298 4.578 1.104z" fill="#a0a0a0"/><path d="M799.669 490.176l-1.24-.79c-9-5.72-50.9-35.43-54.87-38.38-2-1.48-5.15-4-9.17-7.27-23.11-18.61-77.23-62.19-117.44-74.09-6-1.79-12.85-3.57-20.06-5.45-23.81-6.2-50.81-13.23-68.88-25.54l-4.91-3.35 5.92.57c12.24 1.17 24.55 4.92 36.46 8.55 9.19 2.8 18.69 5.7 28 7.37 5.46 1 11.18 1.7 17.22 2.46 10.13 1.28 20.51 2.59 30.07 5.2-21.48-13.49-68.08-38.58-83.45-46.28-1.153-.598-2.176-1.419-3.008-2.417a9.76 9.76 0 0 1-2.218-7.231c.129-1.293.515-2.546 1.134-3.687a9.78 9.78 0 0 1 2.474-2.961 9.76 9.76 0 0 1 3.427-1.772c1.249-.357 2.556-.462 3.846-.308a9.78 9.78 0 0 1 3.665 1.206h0c19.16 11.16 48.27 29.84 67.59 42.23l12.42 8c-9.32-15.22-13-33.51-17.21-54.28l-3.51-16.79c-.425-1.936-.43-3.94-.014-5.877a13.83 13.83 0 0 1 2.424-5.353 13.37 13.37 0 0 1 4.29-3.766c1.684-.932 3.55-1.489 5.47-1.634 5.4-.41 9.07 1 10 4 .46 1.34 1.15 6.45 2.44 16.12 2 15.17 5.08 38.09 7.5 42.82l.11.3c3 11.22 9.93 37.48 22.61 47.84 16.81 13.69 47.36 33.11 76.91 51.88 23.71 15.07 46.1 29.3 60.14 39.76l1.18.88-19.32 28.04zm-263.91-150.33c17.35 9.78 40.88 15.91 61.9 21.39l20.15 5.47c40.8 12.07 95.25 55.92 118.5 74.64l9.08 7.2c3.79 2.83 42.43 30.21 53.44 37.45l16-23.25c-14-10.31-35.77-24.14-58.77-38.76-29.62-18.82-60.25-38.28-77.2-52.1-13.39-10.93-20.52-37.69-23.59-49.27-2.64-5.47-5.58-27.51-7.73-43.64l-2.3-15.56c-.48-1.42-3.2-2.16-6.93-1.89a10.33 10.33 0 0 0-4.221 1.268c-1.3.722-2.428 1.715-3.309 2.912-.925 1.237-1.572 2.659-1.896 4.169s-.319 3.073.016 4.581l3.51 16.84c4.71 23.3 8.78 43.42 20.88 59.21l5.1 6.65-7.16-4.41-18.72-11.94-67.39-42.16a6.72 6.72 0 0 0-2.545-.911 6.73 6.73 0 0 0-2.698.166 6.72 6.72 0 0 0-2.414 1.216c-.714.564-1.306 1.268-1.74 2.068s-.701 1.68-.784 2.586a6.7 6.7 0 0 0 .298 2.687c.28.866.733 1.666 1.332 2.351a6.71 6.71 0 0 0 2.151 1.637c19 9.53 81.6 43.34 93.32 53l8.48 7-10.06-4.43c-11.81-5.19-26.2-7-40.11-8.76-6.09-.77-11.84-1.49-17.38-2.48-9.54-1.7-19.13-4.63-28.4-7.46-9.44-2.85-19.16-5.81-28.81-7.47z" class="I"/><path opacity=".109" d="M325.169 229.776a26.29 26.29 0 0 1 12.086-9.589c4.896-1.916 10.255-2.321 15.384-1.161a44.23 44.23 0 0 1 7.87-25.57c13.23-19.26 38.44-24.93 56.3-12.66a37.12 37.12 0 0 1 14.1 18.76 38 38 0 0 1 21.731-2.362c7.319 1.358 14.077 4.836 19.437 10.002s9.084 11.791 10.711 19.055a38 38 0 0 1-1.56 21.804c-2.644 6.958-7.274 12.986-13.314 17.337s-13.225 6.83-20.663 7.133-14.8-1.586-21.174-5.431-11.478-9.478-14.678-16.198c-12.18 7.36-27.14 8.31-39.42 1.55a26.33 26.33 0 0 1-5.53 9.793 26.32 26.32 0 0 1-9.115 6.589 26.33 26.33 0 0 1-11.033 2.181c-3.791-.077-7.522-.973-10.935-2.626s-6.429-4.024-8.841-6.952-4.161-6.342-5.129-10.008a26.31 26.31 0 0 1-.482-11.237c.651-3.736 2.103-7.287 4.255-10.41h0z" class="S"/><path d="M623.229 272.126c-10.79 0-20.3-4.19-28.42-12.55a2.3 2.3 0 0 1-.65-1.632c.009-.609.259-1.189.695-1.613a2.3 2.3 0 0 1 1.632-.65 2.29 2.29 0 0 1 1.613.695c11.58 11.93 26.47 14.26 44.26 6.94a35.71 35.71 0 0 0 15.666-12.159 35.72 35.72 0 0 0 6.764-18.641 2.3 2.3 0 0 1 2.3-2.27h0a2.27 2.27 0 0 1 .875.182 2.26 2.26 0 0 1 .738.503 2.27 2.27 0 0 1 .49.747c.113.279.17.577.167.878 0 .25-.56 24.82-25.27 35-6.589 2.869-13.675 4.422-20.86 4.57h0zm-32.04-17.28a2.61 2.61 0 1 0 0-5.22 2.61 2.61 0 0 0 0 5.22zm-40.45 60.32a19.77 19.77 0 0 1-7-1.24 2.29 2.29 0 0 1-.067-4.188c.54-.25 1.156-.279 1.717-.082.5.18 11.6 4.24 17.26-6.47 4.26-8.08-.36-14.17-3.5-17.08a4.39 4.39 0 0 1-1.006-1.411c-.239-.532-.369-1.106-.384-1.689a4.28 4.28 0 0 1 1.27-3.16c.49-.49 1.17-1.09 2-1.79 3.39-3 9.06-7.92 9.45-14.15.23-3.63-1.39-7.43-4.8-11.27-5.55-6.25-12.86-6.9-26.09-2.3-.284.098-.585.14-.886.122a2.3 2.3 0 0 1-.865-.226 2.28 2.28 0 0 1-.712-.54 2.3 2.3 0 0 1-.574-1.657c.018-.3.094-.594.226-.865a2.27 2.27 0 0 1 .54-.712 2.28 2.28 0 0 1 .771-.452c15.11-5.25 24.1-4.21 31 3.59 4.25 4.79 6.25 9.7 5.94 14.6-.51 8.13-7.33 14.1-11 17.31l-1.53 1.38c3.36 3.19 10 11.42 4.24 22.4-4.06 7.69-10.51 9.88-16 9.88zm-19.31-62.14a2.58 2.58 0 1 0 0-5.16 2.58 2.58 0 0 0 0 5.16z" class="I"/><path d="M352.639 221.326c-.604 0-1.184-.239-1.613-.664s-.672-1.002-.677-1.606c-.066-10.614 3.464-20.938 10.013-29.29s15.733-14.242 26.057-16.71c5.397-1.284 11.004-1.428 16.46-.423a39.9 39.9 0 0 1 15.23 6.263c6.344 4.378 11.256 10.532 14.12 17.69a40.11 40.11 0 0 1 18.722-2.012 40.12 40.12 0 0 1 17.578 6.752 2.29 2.29 0 0 1 .955 1.472c.111.599-.021 1.216-.365 1.718s-.875.845-1.473.955-1.216-.021-1.717-.365A35.58 35.58 0 0 0 449.3 199c-5.968-.602-11.992.315-17.511 2.666l-2.27 1-.79-2.33a34.81 34.81 0 0 0-13.23-17.61 35.32 35.32 0 0 0-13.497-5.539c-4.835-.887-9.802-.754-14.583.389-9.299 2.238-17.568 7.551-23.467 15.079s-9.083 16.827-9.033 26.391a2.3 2.3 0 0 1-2.27 2.32l-.01-.04z" class="W"/><path d="M225.438 622.306v-162.77l30.8-125.37 24.19 134.17 6.6 2.2v160.57l-61.59-8.8z" class="C"/><path d="M249.639 262.676l37.39 202.36 52.79 4.4h40.69l177.07-200.16 161.66 200.16v5.5l5.5-7.7 95.68-1.1-106.68-183.66-50.59 2.2 9.9-22h-423.41z" class="X"/><path d="M249.638 261.216l-49.49 201.62 4.4 5.5 50.31-177.42-5.22-29.7z" class="T"/><g class="B"><path d="M287.029 634.396l53.52-3.29 56.6 3.29v-170.69l-37.53-7.47h-45.46l-33.73 12.1 6.6 2.2v163.86z"/><path d="M204.549 468.336h20.89v-8.8l30.8-127.21 24.19 136.01 6.6-3.3-32.17-174.12-50.31 177.42z"/></g><path d="M287.029 465.036l200.16-202.36h70.39v6.6l-186.23 195.03-84.32.73z" class="C"/><path d="M371.349 464.306l12.46 10.63 173.77-193.2 162.76 200.9 9.53-19.8-172.29-200.16-186.23 201.63z" fill="#e2e2e2"/><path d="M547.438 293.006l10.14-11.27 162.761 200.9h-22.731v-14.3l-150.17-175.33z" class="V"/><path d="M397.148 460.106v174.29h301.19l-.73-166.06-150.17-175.33-150.29 167.1z" class="C"/><path d="M339.818 469.436l.73 161.67 56.6 3.29v-170.69l-13.34 11.23-6.45-5.5h-37.54z" class="T"/><path d="M698.338 623.406l347.532-5.87-8.79-365.12-118.052-152.5-117.31 156.9-13.19 16.86 4.36 145.07 13.81 23.77 13.72 23.62v8.8h-96.37l-3.71 7.7h-22.73l.73 140.77z" class="X"/><path d="M810.419 245.186l208.331 3.56-110.081-134.98 10.36-13.85 118.051 152.5 8.79 365.12-16.17.28-7.29-358.8-220.691-2.2 8.7-11.63z" class="C"/><path d="M673.048 262.676l138.2-190.62 121.71-11 161.302 211.89-5.86 5.13h-50.71l-.61-25.66-118.052-152.5-130.5 173.76-9.54 11.73-65.25-2.93-50.59 2.2 9.9-22z" class="X"/><path d="M778.988 285.406l-10.259-10.26 164.229-214.09 161.302 211.89-5.86 5.13-156.902-193.56-152.51 200.89z" class="T"/><path d="M1037.69 278.076h50.71L931.499 84.516l-13.5 17.3 119.081 150.6.61 25.66z" fill="#ddd9d9"/><g class="C"><path d="M810.229 449.226l-18.12-30.26-4.39-145.59 17.51-18.4 5 194.25zm-16.61-30.7l14.93 24.92-4.82-184.74-14.46 15.26 4.35 144.56z"/><path d="M795.459 266.356l6.26 167.13 7.7 12.85-4.95-189.5-9.01 9.52z"/></g><g class="I"><path d="M576.489 633.076h-65.69v-128.29a1.2 1.2 0 0 1 1.195-1.091 1.2 1.2 0 0 1 1.195 1.091v125.9h60.9v-137.52a30.45 30.45 0 0 0-30.45-30.45 30.45 30.45 0 0 0-30.45 30.45 1.2 1.2 0 0 1-.386.777c-.221.201-.51.313-.809.313s-.588-.112-.809-.313a1.2 1.2 0 0 1-.386-.777 32.84 32.84 0 0 1 2.334-12.746c1.616-4.052 4.023-7.741 7.081-10.852s6.704-5.583 10.727-7.27 8.341-2.555 12.703-2.555 8.681.868 12.703 2.555 7.67 4.158 10.727 7.27 5.465 6.8 7.081 10.852a32.84 32.84 0 0 1 2.334 12.746v139.91z" class="G"/><path d="M586.899 632.896h-86.51v-148.76a36 36 0 0 1 36-36h14.5c9.547 0 18.704 3.793 25.456 10.544a36 36 0 0 1 10.544 25.456v70.71c-.028.298-.165.575-.386.777a1.2 1.2 0 0 1-2.004-.777v-70.71a33.65 33.65 0 0 0-33.62-33.61h-14.5c-8.911.01-17.454 3.555-23.754 9.856a33.65 33.65 0 0 0-9.856 23.754v146.37h81.73v-68.6c-.015-.166.004-.334.057-.492s.139-.303.251-.427a1.2 1.2 0 0 1 .402-.289 1.21 1.21 0 0 1 .485-.102c.167 0 .331.035.484.102a1.19 1.19 0 0 1 .402.289 1.2 1.2 0 0 1 .251.427 1.21 1.21 0 0 1 .058.492l.01 70.99zm-65.821-76.05c-1.121.002-2.219-.329-3.152-.951a5.68 5.68 0 0 1-2.093-2.543 5.67 5.67 0 0 1 4.126-7.737 5.68 5.68 0 0 1 3.277.321c1.037.429 1.923 1.156 2.546 2.089s.956 2.029.956 3.151a5.67 5.67 0 0 1-5.66 5.67h0zm0-8.94c-.649-.002-1.285.189-1.826.548a3.29 3.29 0 0 0-1.212 1.472c-.249.6-.315 1.26-.189 1.897a3.28 3.28 0 0 0 2.58 2.58c.637.126 1.298.061 1.897-.189a3.29 3.29 0 0 0 1.472-1.212 3.28 3.28 0 0 0-.409-4.142c-.613-.615-1.444-.962-2.313-.964v.01z" class="G"/><path d="M533.719 554.426h-6.41a3.13 3.13 0 0 1 0-6.26h6.41a3.13 3.13 0 1 1 0 6.26h0zm-6.41-3.87c-.197 0-.385.078-.524.216s-.216.327-.216.524a.74.74 0 0 0 .74.74h6.41a.74.74 0 0 0 .523-1.264c-.139-.138-.327-.216-.523-.216h-6.41zm151.59 56.37h-32.47a1.59 1.59 0 0 1-1.124-.466c-.299-.298-.466-.703-.466-1.124a1.59 1.59 0 0 1 1.59-1.59h29.29v-126.46h-53.16v126.46h9.93a1.59 1.59 0 0 1 1.124.465c.298.299.466.703.466 1.125a1.59 1.59 0 0 1-1.59 1.59h-13.11v-132.82h59.52v132.82zm-7.511-8.38h-3.18v-113.38h-45.14v-3.18h48.32v116.56z" class="G"/><path d="M648.019 483.576h-3.18v109.01h3.18v-109.01z" class="G"/><path d="M663.419 514.856h-36.61v3.18h36.61v-3.18zm.79 40.45h-36.61v3.18h36.61v-3.18z" class="G"/></g><path d="M653.699 483.576l-32.73 56.94 2.1 24.23 46.73-72.81v-8.36h-16.1zm-.62 35.2l-32.73 56.94 2.1 24.23 46.73-72.81v-8.36h-16.1z" class="N C"/><g class="I"><path d="M640.099 606.876a1.42 1.42 0 0 0 0-2.84 1.42 1.42 0 0 0 0 2.84z"/><path d="M472.878 606.926h-32.47a1.59 1.59 0 0 1-1.59-1.59c0-.422.168-.826.466-1.125a1.59 1.59 0 0 1 1.124-.465h29.29v-126.46h-53.16v126.46h9.92a1.59 1.59 0 0 1 1.125.465c.298.299.465.703.465 1.125a1.59 1.59 0 0 1-1.59 1.59h-13.1v-132.82h59.52v132.82zm-7.519-8.38h-3.18v-113.38h-45.14v-3.18h48.32v116.56z" class="G"/><path d="M441.998 483.576h-3.18v109.01h3.18v-109.01z" class="G"/><path d="M457.389 514.856h-36.61v3.18h36.61v-3.18zm.8 40.45h-36.61v3.18h36.61v-3.18z" class="G"/></g><path d="M447.679 483.576l-32.73 56.94 2.09 24.23 46.73-72.81v-8.36h-16.09zm-.62 35.2l-32.73 56.94 2.09 24.23 46.73-72.81v-8.36h-16.09z" class="N C"/><path d="M434.068 606.876a1.42 1.42 0 0 0 0-2.84 1.42 1.42 0 0 0 0 2.84z" class="I"/><g class="Q"><path d="M516.889 406.846c.67-10 9.39-16 19.4-17 18-1.78 25.46 9.9 24.78 19.94s-12 18.72-27.23 16.42c-9.95-1.48-17.61-9.36-16.95-19.36z" fill="#ebebeb" class="Q"/><path d="M542.069 388.236c7.3.49 11.89 3.38 14.6 6a19.87 19.87 0 0 1 4.698 7.179 19.88 19.88 0 0 1 1.232 8.491 18 18 0 0 1-2.164 7.086c-1.205 2.186-2.852 4.098-4.836 5.614-5.63 4.52-13.63 6.39-22 5.13-11.29-1.71-19-10.55-18.25-21 .67-10 8.83-17.2 20.78-18.38 1.974-.203 3.96-.243 5.94-.12h0zm-5.43 36.76c6.52.45 12.61-1.24 17-4.77a14.91 14.91 0 0 0 4.062-4.637c1.016-1.811 1.642-3.815 1.838-5.883.182-2.441-.171-4.893-1.034-7.183s-2.217-4.364-3.966-6.077c-4.19-4.06-10.45-5.81-18.1-5.05-7.88.78-17.34 5.32-18 15.53-.59 8.85 6 16.33 15.66 17.79.83.13 1.69.23 2.54.28h0z" class="I Q"/><path d="M542.889 426.806c10.063 0 18.22-8.158 18.22-18.22s-8.157-18.22-18.22-18.22-18.22 8.157-18.22 18.22 8.157 18.22 18.22 18.22z" fill="#adaeaf" class="Q"/><path d="M544.229 388.846c3.9.256 7.635 1.663 10.735 4.044s5.422 5.627 6.676 9.328a19.75 19.75 0 0 1 .366 11.466 19.76 19.76 0 0 1-6.069 9.734 19.75 19.75 0 0 1-10.455 4.72c-3.876.504-7.813-.153-11.315-1.887s-6.411-4.47-8.358-7.858-2.845-7.278-2.58-11.177c.362-5.216 2.774-10.076 6.709-13.519a19.78 19.78 0 0 1 14.291-4.851h0zm-2.46 36.36c3.294.22 6.58-.542 9.441-2.189s5.17-4.106 6.634-7.066 2.016-6.287 1.588-9.561a16.69 16.69 0 0 0-12.218-13.955c-3.189-.857-6.56-.749-9.687.31s-5.869 3.023-7.881 5.642-3.2 5.774-3.417 9.069a16.72 16.72 0 0 0 4.091 12.099c2.911 3.332 7.024 5.375 11.439 5.681l.01-.03z" class="I Q"/></g><path d="M713.739 282.476l65.26 2.93 9.53-11.73 4.36 145.07-79.15-136.27z" class="V"/><path d="M768.728 275.146l-112.91-1.47 7.33 11 115.84.73-10.26-10.26zm51.691 190.99h-100.08v8.8h100.08v-8.8z" class="T"/><path opacity=".02" d="M338.789 481.986l9.1 14.58 36.65-14.58-43.99 149.12-1.76-149.12z" fill="#b2b2b2"/><path opacity=".221" d="M287.029 481.986l41.06.65-29.33 148.47h-11.73v-149.12z" class="C"/><path opacity=".012" d="M227.498 474.936l36.59-98.45-7.85-38.14-30.8 121.19 2.06 15.4z" fill="#b2b2b2"/><path d="M1039.84 608.076a4.75 4.75 0 0 0-1.9.39c.48-1.842.29-3.793-.53-5.51a8.08 8.08 0 0 0-3.95-3.874 8.07 8.07 0 0 0-5.52-.415c-1.83.516-3.42 1.664-4.49 3.239-.23-.82-.68-1.564-1.29-2.155s-1.37-1.011-2.2-1.214-1.69-.184-2.51.057-1.56.693-2.14 1.312c-.31-1.136-.92-2.166-1.77-2.977s-1.91-1.372-3.06-1.622a6.43 6.43 0 0 0-3.46.205c-1.11.385-2.09 1.067-2.84 1.974 0-.23.06-.47.07-.7.01-1.716-.66-3.367-1.86-4.588a6.55 6.55 0 0 0-2.09-1.418 6.51 6.51 0 0 0-2.476-.509 6.46 6.46 0 0 0-4.588 1.863 6.47 6.47 0 0 0-1.927 4.562 6.14 6.14 0 0 0 .16 1.48c-.883-.873-2.069-1.371-3.31-1.39s-2.441.444-3.35 1.29c-.01-.866-.195-1.722-.543-2.515s-.851-1.509-1.481-2.104a6.46 6.46 0 0 0-2.184-1.358c-.812-.302-1.676-.438-2.542-.399a6.47 6.47 0 0 0-2.495.625c-.782.374-1.48.901-2.054 1.55s-1.011 1.406-1.286 2.227a6.47 6.47 0 0 0-.315 2.554 5.62 5.62 0 0 0 .15 1.14c-.683-.666-1.547-1.115-2.484-1.293a4.86 4.86 0 0 0-2.786.293c-.879.369-1.631.989-2.161 1.782s-.814 1.724-.819 2.678v.31c-.73-.277-1.518-.371-2.293-.275s-1.515.381-2.156.828a4.81 4.81 0 0 0-1.519 1.739 4.8 4.8 0 0 0-.532 2.248v.31a4.92 4.92 0 0 0-1.65-.31 4.86 4.86 0 0 0-4.639 4.855 4.86 4.86 0 0 0 4.639 4.855h84.121a4.84 4.84 0 0 0 3.29-1.498c.87-.904 1.35-2.107 1.35-3.357s-.48-2.454-1.35-3.358a4.84 4.84 0 0 0-3.29-1.497l.06-.03z" class="C"/><g fill="#58585a"><path d="M1039.83 618.546h-84.111a5.62 5.62 0 0 1-5.383-5.615 5.62 5.62 0 0 1 5.383-5.615 5.32 5.32 0 0 1 .9.08 5.62 5.62 0 0 1 1.853-3.519c1.025-.908 2.347-1.409 3.717-1.411a5.32 5.32 0 0 1 .9.08 5.61 5.61 0 0 1 .93-2.464 5.6 5.6 0 0 1 1.952-1.767 5.62 5.62 0 0 1 5.118-.129 7.22 7.22 0 0 1 1.9-4.743c1.19-1.297 2.812-2.114 4.563-2.298s3.507.277 4.941 1.298a7.22 7.22 0 0 1 2.846 4.243c.786-.438 1.666-.677 2.565-.698a5.53 5.53 0 0 1 2.595.578 7.16 7.16 0 0 1 2.15-5c1.375-1.334 3.215-2.08 5.13-2.08a7.23 7.23 0 0 1 4.711 1.794 7.21 7.21 0 0 1 2.4 4.436c.86-.613 1.85-1.027 2.89-1.213 1.05-.186 2.12-.14 3.14.135s1.97.772 2.78 1.456 1.46 1.538 1.9 2.502c.51-.342 1.07-.602 1.66-.77a5.49 5.49 0 0 1 2.17-.168 5.52 5.52 0 0 1 2.07.688 5.49 5.49 0 0 1 2.11 2.09 8.85 8.85 0 0 1 4.75-2.642 8.84 8.84 0 0 1 5.4.639 8.79 8.79 0 0 1 4 3.677c.92 1.616 1.3 3.48 1.1 5.326a3.19 3.19 0 0 1 .93-.08 5.6 5.6 0 0 1 2.22.357 5.66 5.66 0 0 1 1.91 1.201c.54.524.98 1.154 1.28 1.851a5.76 5.76 0 0 1 .45 2.206c0 .758-.16 1.508-.45 2.205a5.78 5.78 0 0 1-1.28 1.852 5.66 5.66 0 0 1-1.91 1.2 5.6 5.6 0 0 1-2.22.358l.04-.04zm-84.121-9.7a4.09 4.09 0 0 0-4.09 4.09 4.09 4.09 0 0 0 4.09 4.09h84.111a4.1 4.1 0 0 0 2.89-1.198 4.08 4.08 0 0 0 0-5.784 4.1 4.1 0 0 0-2.89-1.198c-.55.006-1.09.114-1.59.32l-1.43.61.39-1.5a7.27 7.27 0 0 0-.49-4.983c-.74-1.551-2.01-2.791-3.57-3.501-1.57-.71-3.34-.844-5-.378-1.65.465-3.09 1.5-4.06 2.922l-.92 1.36-.44-1.59c-.3-1.034-.99-1.91-1.92-2.438-.94-.528-2.04-.666-3.08-.382-.71.201-1.35.588-1.86 1.12l-.93 1-.36-1.32a5.66 5.66 0 0 0-1.56-2.623 5.63 5.63 0 0 0-2.7-1.429c-1.01-.22-2.06-.157-3.04.182s-1.85.941-2.51 1.74l-1.78 2.15.44-2.76c0-.21.06-.41.07-.61a5.73 5.73 0 0 0-1.66-4.027 5.71 5.71 0 0 0-4.011-1.693 5.7 5.7 0 0 0-4.023 1.651c-1.07 1.061-1.676 2.502-1.687 4.009.001.44.048.879.14 1.31l.58 2.55-1.86-1.84a4 4 0 0 0-2.784-1.184c-1.047-.015-2.058.381-2.816 1.104l-1.21 1.12-.07-1.65a5.67 5.67 0 0 0-.53-2.156 5.66 5.66 0 0 0-1.32-1.784 5.69 5.69 0 0 0-2.983-1.431c-1.114-.171-2.254-.007-3.275.47s-1.877 1.248-2.46 2.213-.865 2.082-.812 3.208c.013.336.057.671.13 1l.57 2.52-1.85-1.81c-.575-.563-1.304-.944-2.094-1.094s-1.608-.065-2.35.247a4.08 4.08 0 0 0-1.821 1.505 4.09 4.09 0 0 0-.685 2.262l.12 1.44-1.12-.42c-.616-.226-1.277-.299-1.927-.214a4.07 4.07 0 0 0-1.807.701 4.06 4.06 0 0 0-1.278 1.459c-.302.582-.459 1.228-.458 1.884v.27l.07 1.17-1.1-.41a3.85 3.85 0 0 0-1.39-.27h0z"/><path d="M1039.84 606.466c0-1.86-.54-3.681-1.54-5.245-1.01-1.565-2.44-2.808-4.13-3.581-1.7-.773-3.57-1.044-5.42-.781a9.71 9.71 0 0 0-4.97 2.267 6.53 6.53 0 0 0-2.23-1.748 6.48 6.48 0 0 0-2.77-.622 6.23 6.23 0 0 0-1.38.16c-.16 0-1.4.47-1.45.49-.72-1.181-1.73-2.158-2.94-2.837a8.07 8.07 0 0 0-3.94-1.043 7.97 7.97 0 0 0-3.59.85 8.13 8.13 0 0 0-3.12-4.304 8.08 8.08 0 0 0-5.123-1.429 8.07 8.07 0 0 0-4.898 2.067c-1.352 1.223-2.251 2.867-2.55 4.666-1.289-.408-2.68-.363-3.94.13-.614-1.665-1.761-3.08-3.262-4.025s-3.273-1.368-5.04-1.203a8.05 8.05 0 0 0-7.188 6.678c-.82-.234-1.679-.303-2.527-.203a6.43 6.43 0 0 0-2.411.785c-.744.418-1.397.98-1.923 1.652a6.49 6.49 0 0 0-1.139 2.266v.11c-1.184-.52-2.462-.792-3.756-.801a9.52 9.52 0 0 0-3.767.749c-1.192.503-2.268 1.243-3.164 2.176s-1.593 2.039-2.047 3.25a9.51 9.51 0 0 0-.597 3.794c.061 1.292.385 2.558.952 3.721a9.52 9.52 0 0 0 2.344 3.042 9.54 9.54 0 0 0 3.355 1.869h84.121c1.72 0 3.36-.682 4.57-1.895a6.45 6.45 0 0 0 1.9-4.575c0-1.716-.68-3.362-1.9-4.575-1.21-1.214-2.85-1.895-4.57-1.895l.04.04zm0 9.7h-84.121c-.827-.046-1.604-.407-2.173-1.009a3.24 3.24 0 0 1 2.173-5.461 3.41 3.41 0 0 1 1.1.21c.202.072.416.104.629.092s.424-.065.616-.158a1.6 1.6 0 0 0 .507-.384 1.59 1.59 0 0 0 .318-.55 1.44 1.44 0 0 0 .09-.65v-.21c.008-.855.355-1.672.964-2.272s1.431-.934 2.286-.928a2.98 2.98 0 0 1 1.1.21h.05c.61.231 1.136.641 1.509 1.177a3.24 3.24 0 0 1 .581 1.823h3.23c-.001-1.118-.293-2.217-.847-3.188a6.45 6.45 0 0 0-2.313-2.352 3.24 3.24 0 0 1 3.508-2.507c.79.086 1.521.458 2.055 1.048a3.24 3.24 0 0 1 .837 2.149h3.23a6.43 6.43 0 0 0-1.53-4.13c-.049-.237-.079-.478-.09-.72-.007-1.213.441-2.384 1.257-3.281a4.83 4.83 0 0 1 3.147-1.562c1.208-.107 2.412.244 3.372.984a4.83 4.83 0 0 1 1.814 3.009 6.41 6.41 0 0 0-1.5 4.08h3.24a3.24 3.24 0 0 1 6.47 0h3.23c-.004-1.515-.546-2.978-1.53-4.13a4.48 4.48 0 0 1-.08-.72 4.85 4.85 0 0 1 4.85-4.85c1.287 0 2.521.511 3.431 1.42a4.85 4.85 0 0 1 1.42 3.43 8.08 8.08 0 0 0-1.62 4.85h3.18a4.76 4.76 0 0 1 1.13-3.08h0a4.73 4.73 0 0 1 1.45-1.183c.56-.295 1.16-.478 1.79-.537a4.75 4.75 0 0 1 1.86.191 4.86 4.86 0 0 1 1.65.889c.56.464 1.01 1.053 1.31 1.72-.74 1.074-1.13 2.347-1.13 3.65h3.23c0-.829.32-1.626.9-2.22.35-.378.79-.665 1.27-.834a3.18 3.18 0 0 1 1.52-.138 3.2 3.2 0 0 1 1.41.591 3.17 3.17 0 0 1 .96 1.181c-.8 1.426-1.22 3.034-1.22 4.67h3.24a6.48 6.48 0 0 1 1.89-4.575c1.22-1.214 2.86-1.895 4.58-1.895s3.36.681 4.57 1.895c1.22 1.213 1.9 2.859 1.9 4.575a6.66 6.66 0 0 1-.23 1.6 1.53 1.53 0 0 0-.04.639c.02.214.09.421.2.607a1.68 1.68 0 0 0 .43.478c.17.13.37.223.58.276.33.082.68.054 1-.08.44-.184.91-.269 1.39-.247s.94.149 1.37.372c.42.223.78.536 1.07.918s.48.822.58 1.29.09.95-.03 1.413a3.18 3.18 0 0 1-.62 1.267c-.31.37-.68.67-1.11.877a3.24 3.24 0 0 1-1.38.32l.09-.05zm-64.711-8.09a4.86 4.86 0 0 0-4.85 4.86h3.23a1.62 1.62 0 0 1 3.24 0h3.24a4.87 4.87 0 0 0-4.86-4.86h0zm16.18-1.61a4.85 4.85 0 0 0-4.85 4.85h3.23a1.62 1.62 0 0 1 .475-1.146c.303-.304.715-.474 1.145-.474a1.62 1.62 0 0 1 1.146.474c.303.304.474.716.474 1.146h3.23a4.85 4.85 0 0 0-4.85-4.85h0zm16.171 1.61c-1.29.002-2.52.516-3.43 1.427s-1.42 2.146-1.42 3.433h3.24a1.63 1.63 0 0 1 .08-.658c.08-.211.19-.405.34-.569a1.77 1.77 0 0 1 .54-.385c.21-.089.43-.135.65-.135.23 0 .45.046.65.135a1.56 1.56 0 0 1 .54.385c.16.164.27.358.34.569a1.48 1.48 0 0 1 .09.658h3.24c0-1.288-.52-2.523-1.43-3.434s-2.14-1.424-3.43-1.426h0zm22.65 0c-1.29.002-2.52.516-3.43 1.427s-1.42 2.146-1.42 3.433h3.23c0-.43.17-.842.47-1.146a1.64 1.64 0 0 1 1.15-.474 1.6 1.6 0 0 1 1.62 1.62h3.23c0-1.287-.51-2.522-1.42-3.433s-2.14-1.425-3.43-1.427h0zm-29.11-3.23h-3.241v3.24h3.241v-3.24zm-17.791 0h-3.24v3.24h3.24v-3.24zm37.201 4.85h-3.24v3.24h3.24v-3.24z"/></g><g class="K"><path d="M724.739 468.756a1.53 1.53 0 0 1 0-3l93.06-1.07-105.38-181.45c-.119-.174-.201-.371-.24-.577s-.036-.42.01-.626a1.53 1.53 0 0 1 .26-.568c.124-.17.283-.312.465-.418a1.54 1.54 0 0 1 1.216-.139c.202.062.388.165.548.302s.29.306.381.496l108 185.93-98.32 1.12zm35.75-192.2l-104.67-1.36a1.53 1.53 0 0 1-1.002-.488c-.26-.283-.405-.653-.405-1.037s.145-.755.405-1.038.618-.456 1.002-.487h0l104.66 1.36a1.53 1.53 0 0 1 0 3l.01.05zm-68.86-37.98c-.282.003-.56-.073-.801-.219a1.53 1.53 0 0 1-.567-.608c-.129-.251-.185-.533-.162-.815a1.52 1.52 0 0 1 .29-.778l120-165.57 122.4-11.06a1.54 1.54 0 0 1 1.65 1.39c.036.403-.089.804-.347 1.115a1.53 1.53 0 0 1-1.033.545l-121 10.93-119.19 164.44a1.55 1.55 0 0 1-1.24.63h0zm77.1 38.09a1.52 1.52 0 0 1-.812-.226c-.244-.15-.441-.366-.568-.623s-.177-.545-.147-.83a1.52 1.52 0 0 1 .317-.781l146.23-190.62a1.55 1.55 0 0 1 2.17-.31 1.55 1.55 0 0 1 .404.45c.103.175.172.369.2.57s.018.407-.033.604a1.54 1.54 0 0 1-.261.545l-146.29 190.62a1.52 1.52 0 0 1-.534.444 1.51 1.51 0 0 1-.676.156h0zm277.141-49.53a1.48 1.48 0 0 1-.65-.147 1.46 1.46 0 0 1-.53-.413l-114.381-141.1a1.53 1.53 0 0 1-.311-.531 1.54 1.54 0 0 1-.076-.61 1.53 1.53 0 0 1 .17-.591 1.52 1.52 0 0 1 .389-.476 1.53 1.53 0 0 1 1.158-.332c.206.026.404.094.583.198a1.54 1.54 0 0 1 .457.412l114.381 141.1c.25.314.37.717.33 1.12s-.24.774-.55 1.03a1.57 1.57 0 0 1-.97.34h0zm42.53 52.46a1.54 1.54 0 0 1-.66-.145c-.21-.097-.39-.239-.53-.415l-20.29-25c-.15-.153-.26-.335-.33-.533a1.64 1.64 0 0 1-.09-.621c.01-.211.07-.417.17-.604.09-.188.23-.354.39-.487a1.62 1.62 0 0 1 .56-.286c.2-.056.42-.069.63-.039a1.54 1.54 0 0 1 .59.216c.17.112.33.259.45.434l20.29 25c.25.314.37.717.33 1.12a1.54 1.54 0 0 1-.55 1.03c-.27.218-.61.335-.96.33zm5.83-5.13a1.54 1.54 0 0 1-.68-.159 1.49 1.49 0 0 1-.53-.441l-79.18-104c-.22-.324-.3-.718-.24-1.102.07-.384.28-.729.59-.965.3-.236.69-.345 1.08-.304a1.54 1.54 0 0 1 1 .521l79.18 104a1.58 1.58 0 0 1 .31.781c.03.284-.02.571-.15.826a1.57 1.57 0 0 1-.57.62 1.5 1.5 0 0 1-.81.223h0zm-112.451-147.76c-.237 0-.47-.055-.682-.161a1.53 1.53 0 0 1-.538-.449l-37-48.57c-.216-.324-.301-.718-.236-1.102a1.53 1.53 0 0 1 2.666-.748l37 48.57a1.54 1.54 0 0 1-.29 2.15c-.264.202-.587.311-.92.31h0zm60.131 327.79c-.4 0-.78-.156-1.07-.434a1.51 1.51 0 0 1-.46-1.056l-4.21-174.9a1.47 1.47 0 0 1 .1-.587c.07-.187.18-.358.32-.503a1.47 1.47 0 0 1 .49-.342c.18-.081.38-.124.58-.128h0a1.54 1.54 0 0 1 1.07.434 1.55 1.55 0 0 1 .46 1.056l4.21 174.89c.01.201-.03.402-.1.59a1.48 1.48 0 0 1-.32.506 1.49 1.49 0 0 1-.49.345c-.18.081-.38.125-.58.129zm-250.341-78.12a1.52 1.52 0 0 1-1.058-.428c-.284-.274-.45-.648-.462-1.042l-3.05-82.12a1.52 1.52 0 0 1 .361-1.166c.137-.16.305-.289.494-.38a1.53 1.53 0 0 1 .605-.151 1.54 1.54 0 0 1 .615.103c.196.076.374.192.523.34a1.53 1.53 0 0 1 .344.52 1.55 1.55 0 0 1 .108.614l3 82.13c.013.404-.134.797-.409 1.093a1.53 1.53 0 0 1-1.062.487h-.009zm-352.21 14.84a1.52 1.52 0 0 1-.839-.245c-.25-.162-.446-.393-.565-.666a1.52 1.52 0 0 1 .284-1.649l119.37-128.28 20.69 24a1.53 1.53 0 0 1 .367 1.113c-.03.405-.22.781-.527 1.047s-.708.397-1.113.367a1.53 1.53 0 0 1-1.047-.527l-18.45-21.41-1.49 1.62-115.56 124.15a1.55 1.55 0 0 1-.51.356c-.193.083-.401.125-.61.124h0zm290.51 73.15c-.221-.003-.439-.052-.639-.145s-.378-.228-.521-.395l-112.63-130.84a1.53 1.53 0 0 1 1.273-2.528c.405.03.781.22 1.047.528l112.63 130.86a1.53 1.53 0 0 1 .368 1.113 1.55 1.55 0 0 1-.16.576 1.56 1.56 0 0 1-.368.471c-.282.232-.635.36-1 .36zm-346.06 12.09a1.53 1.53 0 0 1-.832-.247 1.52 1.52 0 0 1-.679-1.519c.045-.292.174-.564.371-.784l126.12-140.21a1.53 1.53 0 0 1 1.995.024c.274.242.453.574.504.937s-.031.731-.229 1.039l-126.11 140.26c-.146.157-.322.282-.518.368s-.408.131-.622.132h0zm228.29-125.89c-.227 0-.451-.051-.656-.15a1.5 1.5 0 0 1-.524-.42l-53.41-65.91-13.49 15a1.53 1.53 0 0 1-.463.461 1.51 1.51 0 0 1-1.264.176c-.211-.063-.406-.171-.571-.317s-.298-.325-.387-.527a1.53 1.53 0 0 1-.132-.64 1.54 1.54 0 0 1 .147-.636c.095-.199.231-.376.4-.517l15.88-17.66 55.66 68.69a1.53 1.53 0 0 1 .33 1.122c-.043.403-.245.773-.56 1.028-.276.207-.615.313-.96.3zm-291.34 116c-.406 0-.795-.162-1.082-.448a1.53 1.53 0 0 1 1.082-2.612l49.94-.72 25.36-27.46c.135-.148.298-.267.479-.352a1.51 1.51 0 0 1 1.166-.043 1.5 1.5 0 0 1 .505.315 1.53 1.53 0 0 1 .09 2.16l-26.28 28.44-51.24.75-.02-.03zm-120.61-2.2c-.123.014-.247.014-.37 0-.393-.097-.733-.347-.943-.694a1.53 1.53 0 0 1-.177-1.156l34.47-140.46c.048-.197.134-.383.254-.547a1.54 1.54 0 0 1 .444-.407c.173-.105.365-.176.565-.207s.405-.022.602.026.383.134.547.254.302.27.407.443a1.55 1.55 0 0 1 .207.566c.031.2.022.405-.026.602l-34.5 140.41a1.52 1.52 0 0 1-.536.842c-.269.212-.601.328-.944.328zm19.85-49c-.237 0-.471-.056-.682-.161a1.53 1.53 0 0 1-.539-.448c-.142-.189-.239-.409-.282-.641a1.52 1.52 0 0 1 .033-.7l32.83-115.77c.123-.376.387-.689.736-.874a1.53 1.53 0 0 1 2.04.582 1.54 1.54 0 0 1 .164 1.132l-32.83 115.77a1.54 1.54 0 0 1-.55.801c-.265.2-.588.308-.92.309h0zm-15.45 54.48c-.139.019-.281.019-.42 0a1.53 1.53 0 0 1-1.05-1.89l5.73-20.2c.128-.369.392-.676.738-.857a1.53 1.53 0 0 1 1.124-.116c.376.106.697.352.897.687a1.53 1.53 0 0 1 .181 1.116l-5.73 20.2a1.52 1.52 0 0 1-1.47 1.06zm20.89 99a1.52 1.52 0 0 1-1.52-1.52v-99a1.53 1.53 0 0 1 .079-.623c.069-.199.178-.383.321-.538a1.54 1.54 0 0 1 .511-.364 1.53 1.53 0 0 1 1.228 0c.194.085.368.208.511.364a1.52 1.52 0 0 1 .321.538 1.53 1.53 0 0 1 .079.623v99a1.52 1.52 0 0 1-.117.584c-.077.185-.189.353-.332.494a1.53 1.53 0 0 1-.496.329c-.186.076-.384.114-.585.113z"/><path d="M288.559 632.846l-64.64-9.23v-19.6c.031-.383.205-.741.488-1.001a1.53 1.53 0 0 1 2.074 0c.283.26.457.618.488 1.001v17l58.53 8.36v-114.53a1.53 1.53 0 0 1 3.06 0v118zm-1.53-142.64c-.406 0-.795-.162-1.082-.448a1.53 1.53 0 0 1-.448-1.082v-18.14a1.53 1.53 0 0 1 3.06 0v18.14a1.53 1.53 0 0 1-.448 1.082c-.287.286-.676.448-1.082.448zm52.79 91.83a1.53 1.53 0 0 1-1.53-1.53v-111.07a1.53 1.53 0 0 1 3.06 0v111.07a1.54 1.54 0 0 1-.116.585 1.53 1.53 0 0 1-.332.497c-.142.142-.311.254-.496.331a1.53 1.53 0 0 1-.586.117h0zm57.33-65.66c-.2.001-.399-.037-.585-.113a1.53 1.53 0 0 1-.496-.329 1.52 1.52 0 0 1-.449-1.078v-51.16a1.53 1.53 0 0 1 3.06 0v51.15a1.53 1.53 0 0 1-.448 1.082c-.287.286-.676.448-1.082.448h0z"/><path d="M398.679 636.016l-58.22-3.39h-53.43c-.222.044-.451.039-.671-.016a1.51 1.51 0 0 1-.6-.301c-.175-.143-.317-.324-.414-.528s-.147-.429-.147-.655.051-.45.147-.655.239-.385.414-.529a1.54 1.54 0 0 1 .6-.301 1.52 1.52 0 0 1 .671-.015h53.52l55.07 3.2v-87.51a1.53 1.53 0 0 1 1.53-1.53 1.53 1.53 0 0 1 1.53 1.53v90.7z"/><path d="M699.889 635.926h-302.74a1.53 1.53 0 0 1-.623-.079c-.199-.069-.383-.178-.538-.322a1.51 1.51 0 0 1-.364-.51 1.53 1.53 0 0 1-.129-.614c0-.212.044-.421.129-.614s.208-.368.364-.511a1.54 1.54 0 0 1 .538-.322 1.53 1.53 0 0 1 .623-.078h299.65l-.72-86.34a1.53 1.53 0 0 1 2.612-1.082c.286.287.448.676.448 1.082l.75 89.39zm20.45-151.77a1.56 1.56 0 0 1-.658-.148 1.55 1.55 0 0 1-.532-.412l-71.19-87.88c-.164-.15-.294-.333-.38-.538s-.127-.426-.119-.648a1.54 1.54 0 0 1 .164-.637 1.55 1.55 0 0 1 1.01-.797c.216-.051.44-.055.658-.011a1.53 1.53 0 0 1 .602.266 1.52 1.52 0 0 1 .435.495l71.2 87.87a1.53 1.53 0 0 1 .33 1.122c-.044.403-.245.773-.56 1.028a1.5 1.5 0 0 1-.96.29h0z"/><g class="J"><path d="M1025.56 415.366h-73.261a1.53 1.53 0 1 1 0-3.06h73.261a1.54 1.54 0 0 1 1.08.448 1.52 1.52 0 0 1 0 2.164 1.54 1.54 0 0 1-1.08.448h0zm0 29h-63.891a1.53 1.53 0 1 1 0-3.06h63.891a1.54 1.54 0 0 1 1.08.448 1.52 1.52 0 0 1 0 2.164 1.54 1.54 0 0 1-1.08.448h0zm0-14.52h-43.781a1.53 1.53 0 1 1 0-3.06h43.781a1.54 1.54 0 0 1 1.08.448 1.52 1.52 0 0 1 0 2.164 1.54 1.54 0 0 1-1.08.448h0z" class="J"/><path d="M988.288 444.356a1.54 1.54 0 0 1-1.073-.465c-.282-.29-.439-.68-.437-1.085l.22-14.49c.013-.403.182-.784.472-1.064s.676-.437 1.078-.436c.201.002.399.045.583.124s.351.194.49.339a1.52 1.52 0 0 1 .322.5 1.51 1.51 0 0 1 .105.587l-.21 14.48c-.002.201-.044.399-.124.584a1.53 1.53 0 0 1-.338.492 1.54 1.54 0 0 1-.501.325 1.55 1.55 0 0 1-.587.109h0zm18.262-14.51a1.49 1.49 0 0 1-.58-.125c-.19-.079-.35-.194-.49-.338a1.64 1.64 0 0 1-.33-.501 1.47 1.47 0 0 1-.1-.586l.18-14.45a1.35 1.35 0 0 1 .11-.594 1.43 1.43 0 0 1 .33-.501 1.51 1.51 0 0 1 .51-.324 1.5 1.5 0 0 1 .6-.091 1.49 1.49 0 0 1 .58.124 1.55 1.55 0 0 1 .49.339c.14.144.25.314.32.5a1.48 1.48 0 0 1 .11.587l-.21 14.49a1.52 1.52 0 0 1-.46 1.042c-.29.275-.67.428-1.06.428h0z" class="J"/><path d="M1014.14 565.846h-39.001a1.53 1.53 0 0 1-1.082-.448c-.286-.287-.448-.677-.448-1.082s.162-.795.448-1.082a1.53 1.53 0 0 1 1.082-.448h39.001c.41 0 .79.161 1.08.448a1.52 1.52 0 0 1 0 2.164c-.29.287-.67.448-1.08.448h0zm0 15.39h-34.001c-.222.044-.451.039-.671-.016a1.51 1.51 0 0 1-.6-.301 1.53 1.53 0 0 1-.413-1.838c.097-.205.238-.386.413-.529a1.54 1.54 0 0 1 .6-.301 1.52 1.52 0 0 1 .671-.015h34.001a1.5 1.5 0 0 1 1.23 1.5 1.5 1.5 0 0 1-1.23 1.5h0zm0-7.72h-23.31c-.406 0-.795-.162-1.082-.448a1.53 1.53 0 0 1 1.082-2.612h23.31c.41 0 .79.161 1.08.448a1.52 1.52 0 0 1 0 2.164c-.29.286-.67.448-1.08.448h0z" class="J"/><path d="M994.289 581.236a1.53 1.53 0 0 1-1.5-1.55l.11-7.72a1.53 1.53 0 0 1 3.06 0l-.12 7.71c.004.205-.033.409-.109.599a1.54 1.54 0 0 1-.335.509 1.52 1.52 0 0 1-.507.338 1.54 1.54 0 0 1-.599.114h0zm9.731-7.73a1.51 1.51 0 0 1-.58-.124c-.19-.08-.36-.195-.5-.339s-.25-.314-.32-.5a1.48 1.48 0 0 1-.11-.587l.11-7.71c.01-.402.17-.784.46-1.066a1.52 1.52 0 0 1 1.07-.444 1.54 1.54 0 0 1 1.07.465c.29.29.44.68.44 1.085l-.11 7.72a1.56 1.56 0 0 1-.46 1.059c-.29.28-.67.438-1.07.441z" class="J"/><path d="M861.779 476.456h-73.25a1.53 1.53 0 0 1-.623-.079c-.2-.069-.383-.178-.538-.322a1.51 1.51 0 0 1-.364-.51 1.53 1.53 0 0 1-.129-.614c0-.212.044-.421.129-.614s.208-.368.364-.511a1.53 1.53 0 0 1 1.161-.4h73.25a1.53 1.53 0 0 1 1.16.4 1.52 1.52 0 0 1 .365.511 1.54 1.54 0 0 1 .128.614c0 .211-.044.42-.128.614s-.209.367-.365.51a1.54 1.54 0 0 1-.538.322 1.53 1.53 0 0 1-.622.079zm0 29h-63.89c-.383-.031-.741-.205-1.001-.488a1.53 1.53 0 0 1 1.001-2.562h63.89a1.53 1.53 0 0 1 .622.078c.2.069.383.179.539.322a1.53 1.53 0 0 1 .364.511 1.52 1.52 0 0 1 .128.614 1.53 1.53 0 0 1-.128.614c-.085.193-.209.367-.364.51s-.339.253-.539.322a1.53 1.53 0 0 1-.622.079zm-.001-14.5h-43.78a1.53 1.53 0 0 1-.622-.079c-.2-.069-.383-.178-.539-.322s-.279-.317-.364-.51-.128-.403-.128-.614a1.54 1.54 0 0 1 .128-.614 1.53 1.53 0 0 1 .364-.511c.156-.143.339-.253.539-.322a1.53 1.53 0 0 1 .622-.078h43.78a1.53 1.53 0 0 1 .623.078 1.54 1.54 0 0 1 .538.322c.156.143.28.317.364.511s.129.402.129.614a1.53 1.53 0 0 1-.129.614 1.51 1.51 0 0 1-.364.51c-.155.144-.339.253-.538.322a1.53 1.53 0 0 1-.623.079z" class="J"/><path d="M824.508 505.446c-.2-.003-.398-.045-.582-.125a1.54 1.54 0 0 1-.491-.338 1.53 1.53 0 0 1-.427-1.087l.21-14.48a1.53 1.53 0 0 1 1.53-1.51h0c.201.002.399.045.583.124s.35.194.49.339a1.52 1.52 0 0 1 .322.5 1.53 1.53 0 0 1 .105.587l-.21 14.49c-.005.401-.169.784-.456 1.065a1.52 1.52 0 0 1-1.074.435zm18.27-14.5a1.53 1.53 0 0 1-1.5-1.55l.21-14.49a1.51 1.51 0 0 1 .119-.586 1.52 1.52 0 0 1 .338-.493c.145-.14.316-.249.504-.322a1.5 1.5 0 0 1 .589-.099 1.51 1.51 0 0 1 .586.121c.185.079.353.194.494.338a1.51 1.51 0 0 1 .324.502 1.52 1.52 0 0 1 .106.589l-.22 14.48a1.51 1.51 0 0 1-.121.585c-.079.186-.194.353-.338.494a1.53 1.53 0 0 1-.502.325 1.52 1.52 0 0 1-.589.106z" class="J"/></g><path d="M698.339 624.926c-.383-.031-.741-.205-1.001-.488a1.53 1.53 0 0 1 0-2.075 1.53 1.53 0 0 1 1.001-.487l346.001-5.84-2.3-95.42c-.01-.201.03-.401.1-.589s.18-.359.32-.505a1.49 1.49 0 0 1 .49-.345c.18-.081.38-.126.58-.131a1.56 1.56 0 0 1 1.08.432 1.57 1.57 0 0 1 .48 1.058l2.38 98.5h-1.54l-347.591 5.89z"/><path opacity=".02" d="M670.899 285.846l-418.3-6 34.39 180.13 73.07-141.25s-86.83-38.56-107.46-38.88"/><path d="M287.029 466.566a1.53 1.53 0 0 1-1.5-1.25l-25.3-136.74a1.53 1.53 0 0 1 2.339-1.463c.327.206.563.529.661.903l25.3 136.74c.038.197.036.399-.005.596a1.53 1.53 0 0 1-.234.548c-.114.165-.259.307-.427.416s-.356.184-.554.22l-.28.03zm96.78-203.83h-134.17c-.211.017-.423-.01-.622-.079a1.52 1.52 0 0 1-.539-.322c-.155-.143-.279-.317-.364-.51a1.53 1.53 0 0 1-.129-.614c0-.212.044-.421.129-.614a1.53 1.53 0 0 1 .364-.511c.155-.143.339-.253.539-.322s.411-.095.622-.078h134.17c.211-.017.422.009.622.078s.383.179.539.322a1.53 1.53 0 0 1 .364.511c.085.193.129.402.129.614a1.53 1.53 0 0 1-.129.614c-.085.193-.209.367-.364.51s-.339.253-.539.322a1.53 1.53 0 0 1-.622.079h0zm289.24 1.47l-215.66-1.47c-.383-.031-.741-.205-1.001-.488a1.53 1.53 0 0 1 1.001-2.562h0l215.65 1.46a1.53 1.53 0 0 1 1.082 2.612c-.287.286-.676.448-1.082.448h.01z"/><path d="M476.529 274.236h34.49l-215.06 182.57 180.57-182.57z" style="mix-blend-mode:screen"/><path d="M812.779 73.576l52.15 12.47-159.89 184.84-34.34 1.93 142.08-199.24z" style="mix-blend-mode:screen" opacity=".292"/></g><path d="M931.499 141.756l-121.08 103.43 98.25-131.42 22.83 27.99z" fill="#ddd9d9" style="mix-blend-mode:screen" opacity=".24"/><path d="M515.309 328.726l32.13-35.72 150.17 175.33v15.03l-182.3-154.64z" style="mix-blend-mode:hard-light" opacity=".23" class="K"/><path d="M879.138 282.636h-32.53v82.89h32.53v-82.89z" class="C"/><g class="I"><path d="M884.229 366.736h-21.9a1.07 1.07 0 0 1-1.07-1.07c0-.284.113-.556.313-.757a1.07 1.07 0 0 1 .757-.313h19.72v-85.12h-35.82v85.12h6.68c.284 0 .556.112.756.313a1.07 1.07 0 0 1 0 1.513c-.2.201-.472.314-.756.314h-8.78v-89.4h40.1v89.4zm-5.1-5.64h-2.14v-76.32h-30.39v-2.14h32.53v78.46z" class="G"/><path d="M863.399 283.706h-2.14v73.38h2.14v-73.38z" class="G"/><path d="M873.769 304.756h-24.64v2.14h24.64v-2.14zm.53 27.23h-24.64v2.14h24.64v-2.14z" class="G"/></g><path d="M867.229 283.706l-22.03 38.33 1.4 16.31 31.46-49.01v-5.63h-10.83zm-.42 23.69l-22.03 38.33 1.41 16.31 31.46-49.01v-5.63h-10.84z" class="N C"/><path d="M858.068 366.706a.96.96 0 1 0 0-1.92.96.96 0 1 0 0 1.92z" class="I"/><path d="M984.839 282.466h-32.53v82.89h32.53v-82.89z" class="C"/><g class="I"><path d="M989.889 366.566h-21.86c-.14 0-.28-.028-.409-.082a1.07 1.07 0 0 1-.347-.232 1.04 1.04 0 0 1-.232-.347c-.054-.13-.082-.269-.082-.409a1.07 1.07 0 0 1 .082-.41 1.04 1.04 0 0 1 .232-.347c.099-.099.217-.178.347-.232a1.06 1.06 0 0 1 .409-.081h19.72v-85.12h-35.78v85.12h6.68a1.07 1.07 0 0 1 .757.313c.2.201.313.473.313.757a1.07 1.07 0 0 1-1.07 1.07h-8.82v-89.4h40.06v89.4zm-5.06-5.64h-2.14v-76.32h-30.38v-2.14h32.52v78.46z" class="G"/><path d="M969.099 283.536h-2.14v73.38h2.14v-73.38z" class="G"/><path d="M979.469 304.596h-24.64v2.14h24.64v-2.14zm.529 27.22h-24.64v2.14h24.64v-2.14z" class="G"/></g><path d="M972.928 283.536l-22.03 38.33 1.41 16.31 31.45-49.01v-5.63h-10.83zm-.42 23.69l-22.029 38.34 1.409 16.3 31.461-49.01v-5.63h-10.841z" class="N C"/><path d="M963.769 366.536a.96.96 0 1 0 0-1.92.96.96 0 1 0 0 1.92z" class="I"/><path d="M938.769 505.266h-32.53v82.89h32.53v-82.89z" class="C"/><g class="I"><path d="M943.829 589.366h-21.86a1.07 1.07 0 0 1-.757-.314c-.201-.2-.313-.473-.313-.756a1.07 1.07 0 0 1 1.07-1.07h19.72v-85.13h-35.79v85.13h6.69c.284 0 .556.112.756.313a1.07 1.07 0 0 1 0 1.513c-.2.201-.472.314-.756.314h-8.83v-89.41h40.07v89.41zm-5.06-5.64h-2.14v-76.32h-30.39v-2.14h32.53v78.46z" class="G"/><path d="M923.038 506.336h-2.14v73.38h2.14v-73.38z" class="G"/><path d="M933.399 527.386h-24.64v2.14h24.64v-2.14zm.54 27.23h-24.64v2.14h24.64v-2.14z" class="G"/></g><path d="M926.869 506.336l-22.04 38.33 1.41 16.31 31.46-49.01v-5.63h-10.83zm-.42 23.69l-22.03 38.33 1.41 16.31 31.46-49.01v-5.63h-10.84z" class="N C"/><path d="M917.709 589.336a.96.96 0 0 0 0-1.92.96.96 0 0 0 0 1.92z" class="I"/><path d="M768.289 508.766h-32.53v82.89h32.53v-82.89z" class="C"/><g class="I"><path d="M773.349 592.846h-21.86a1.07 1.07 0 0 1-.756-1.827c.2-.201.473-.313.756-.313h19.74v-85.1h-35.81v85.12h6.69a1.07 1.07 0 0 1 1.07 1.07c0 .283-.112.556-.313.756a1.07 1.07 0 0 1-.757.314h-8.83v-89.4h40.07v89.38zm-5.06-5.62h-2.14v-76.32h-30.39v-2.14h32.53v78.46z" class="G"/><path d="M752.559 509.836h-2.14v73.38h2.14v-73.38z" class="G"/><path d="M762.919 530.896h-24.64v2.14h24.64v-2.14zm.539 27.22h-24.64v2.14h24.64v-2.14z" class="G"/></g><path d="M756.389 509.836l-22.04 38.33 1.41 16.31 31.46-49.01v-5.63h-10.83zm-.42 23.69l-22.031 38.34 1.411 16.31 31.449-49.02v-5.63h-10.829z" class="N C"/><path d="M747.229 592.836a.96.96 0 0 0 0-1.92.96.96 0 0 0 0 1.92z" class="I"/><path d="M1027.08 254.936l7.9 358 10.89 4.6-5.28-198.44-2.9-141.02-.61-25.66-119.081-150.6-5.74 8.04 114.821 145.08z" class="N W"/><use xlink:href="#I" class="B"/><use xlink:href="#J" class="D E F H"/><use xlink:href="#K" class="B"/><use xlink:href="#J" x="-21.6" class="D E F H"/><use xlink:href="#K" x="-26.82" class="B"/><use xlink:href="#L" class="D E F H"/><use xlink:href="#K" x="-57.82" class="B"/><use xlink:href="#L" x="-31" class="D E F H"/><use xlink:href="#K" x="-88.82" class="B"/><use xlink:href="#L" x="-62" class="D E F H"/><path d="M74.889 552.296h.36a2.88 2.88 0 0 1 2.88 2.88v65.8h-6.12v-65.8a2.88 2.88 0 0 1 2.88-2.88z" class="B"/><use xlink:href="#L" x="-93" class="D E F H"/><path d="M223.028 570.966H65.108v4.25h157.92v-4.25z" class="B"/><use xlink:href="#M" class="D E F"/><path d="M223.028 601.966H65.108v4.25h157.92v-4.25z" class="B"/><use xlink:href="#M" y="31" class="D E F"/><use xlink:href="#I" x="1" class="B"/><use xlink:href="#J" x="1" class="D E F H"/><use xlink:href="#K" x="1" class="B"/><use xlink:href="#J" x="-20.6" class="D E F H"/><use xlink:href="#K" x="-25.82" class="B"/><use xlink:href="#L" x="1" class="D E F H"/><use xlink:href="#K" x="-56.82" class="B"/><use xlink:href="#L" x="-30" class="D E F H"/><use xlink:href="#K" x="-87.82" class="B"/><use xlink:href="#L" x="-61" class="D E F H"/><use xlink:href="#K" x="-118.82" class="B"/><use xlink:href="#L" x="-92" class="D E F H"/><path d="M224.028 570.966H66.108v4.25h157.92v-4.25z" class="B"/><use xlink:href="#N" class="D E F"/><path d="M224.028 601.966H66.108v4.25h157.92v-4.25z" class="B"/><use xlink:href="#N" y="31" class="D E F"/><g class="B"><path d="M299.818 650.206s2.07 0 2.78-.88c0 0 .71-.5-1-.41s-1.78 1.29-1.78 1.29z"/><path d="M300.999 651.016s1.21-.61.75-1.3c0 0-.07-.47-1 .11s.25 1.19.25 1.19zm-.55-1.48s2.08 0 2.79-.89c0 0 .7-.5-1-.41s-1.79 1.3-1.79 1.3z"/><path d="M301.639 650.346s1.21-.62.74-1.3c0 0-.07-.47-1 .11s.26 1.19.26 1.19z"/></g><g fill="#589626"><path d="M330.769 652.556s-2.08 0-2.78-.88c0 0-.71-.5 1-.41s1.78 1.29 1.78 1.29z"/><path d="M329.589 653.366s-1.22-.61-.75-1.3c0 0 .07-.47 1 .11s-.25 1.19-.25 1.19z"/></g><g fill="#75ae47"><path d="M330.129 651.846s-2.07.05-2.78-.88c0 0-.71-.5 1-.41s1.78 1.29 1.78 1.29z"/><path d="M328.949 652.686s-1.21-.61-.74-1.3c0 0 .06-.46 1 .11s-.26 1.19-.26 1.19z"/></g><g class="B"><path d="M330.639 652.236s-2.58.05-3.46-1.1c0 0-.88-.62 1.28-.51s2.18 1.61 2.18 1.61z"/><path d="M329.169 653.236s-1.51-.76-.93-1.61c0 0 .09-.58 1.2.14s-.27 1.47-.27 1.47zm.68-1.84s-2.58.05-3.46-1.1c0 0-.88-.62 1.28-.51s2.18 1.61 2.18 1.61z"/><path d="M328.379 652.396s-1.51-.76-.93-1.61c0 0 .09-.58 1.2.14s-.27 1.47-.27 1.47z"/></g><path d="M566.959 653.376c16.629 0 30.11-2.373 30.11-5.3s-13.481-5.3-30.11-5.3-30.11 2.373-30.11 5.3 13.48 5.3 30.11 5.3z" fill="#94969a"/><path d="M563.159 651.526c13.978 0 25.31-1.993 25.31-4.45s-11.332-4.45-25.31-4.45-25.31 1.992-25.31 4.45 11.331 4.45 25.31 4.45z" fill="#b8babc"/><path d="M634.569 660.726c14.829 0 26.85-2.113 26.85-4.72s-12.021-4.72-26.85-4.72-26.85 2.113-26.85 4.72 12.021 4.72 26.85 4.72z" fill="#94969a"/><path d="M631.178 659.086c12.465 0 22.57-1.778 22.57-3.97s-10.105-3.97-22.57-3.97-22.57 1.777-22.57 3.97 10.105 3.97 22.57 3.97z" fill="#b8babc"/><path d="M631.179 658.276c9.919 0 17.96-1.415 17.96-3.16s-8.041-3.16-17.96-3.16-17.96 1.415-17.96 3.16 8.041 3.16 17.96 3.16zm-69.58-8.04c9.919 0 17.96-1.415 17.96-3.16s-8.041-3.16-17.96-3.16-17.96 1.414-17.96 3.16 8.041 3.16 17.96 3.16z" fill="#bfc0c1"/><g clip-path="url(#A)"><g fill="#efefef"><path opacity=".39" d="M823.753 712.014c33.273 0 60.247-4.635 60.247-10.353s-26.974-10.353-60.247-10.353-60.248 4.635-60.248 10.353 26.974 10.353 60.248 10.353zm-167.178 38.227c0 4.838 24.117 8.766 53.864 8.766s53.863-3.922 53.863-8.766-24.115-8.766-53.863-8.766-53.864 3.927-53.864 8.766zm-88.579-27.873c0 4.838 24.115 8.766 53.864 8.766s53.863-3.923 53.863-8.766-24.116-8.766-53.863-8.766-53.864 3.927-53.864 8.766z"/></g><path d="M698.286 727.878c.088-1.652-.038-3.308-.374-4.927 6.212-3.274 14.09-16.122 16.159-21.883.571-1.594-8.91-11.38-16.071-.82s-10.703 15.188-10.231 19.743c.281 2.709 1.997 25.617 1.997 25.617l5.802.227c-.528-9.261 2.318-11.886 2.718-17.957z" class="L"/><g class="O"><path d="M698.286 727.878c.088-1.652-.038-3.308-.374-4.927 6.212-3.274 14.09-16.122 16.159-21.883.571-1.594-8.91-11.38-16.071-.82s-10.703 15.188-10.231 19.743c.281 2.709.579 19.858.579 19.858l8.618 2.004c.025-7.278.92-7.904 1.32-13.975zm-6.161 16.038c-.532-2.404-2.263-2.876-2.263-2.876-4.009 4.442-12.016.429-12.55 7.04l18.027 2.215c.169-1.511.359-5.128.239-6.566l-.678.043-2.775.144z"/></g><path d="M677.862 749.929l16.495 2.028a.78.78 0 0 0 .571-.159.77.77 0 0 0 .292-.515l.145-1.168-18.033-2.217-.145 1.169a.78.78 0 0 0 .159.57c.127.161.312.266.516.292h0z" class="C"/><path d="M716.298 691.416c4.138 4.516 9.922 16.407 9.919 23.419.013 0-2.49 7.446-5.464 9.493-4.009-1.885-6.873-8.235-12.687-19.113-6.012-11.252 7.092-15.045 8.232-13.799z" class="P"/><path d="M724.329 713.39c1.39-.955 2.542-2.491 4.018-3.019 5.74-2.049 9.614.242 17.916-3.93l1.639 5.117s-21.602 12.617-27.149 12.77c-1.196.033 3.034-7.367 3.576-10.938z" class="L"/><path d="M746.238 710.276c-1.996 1.448-1.744 3.213-1.744 3.213 5.68 1.903 5.178 10.83 11.466 8.687l-5.14-17.386c-1.463.448-4.856 1.713-6.131 2.391l.312.605 1.237 2.49z" class="O"/><path d="M757.443 720.94l-4.702-15.908c-.058-.196-.193-.362-.373-.46a.78.78 0 0 0-.59-.063l-1.132.333 5.14 17.391 1.133-.332c.197-.058.363-.192.461-.372a.77.77 0 0 0 .063-.589h0z" class="C"/><path d="M723.806 713.494c1.389-.956 3.06-2.595 4.542-3.123 5.74-2.049 10.161-1.107 13.866-2.546l1.03 8.012s-16.943 8.336-22.491 8.491c-1.196.033 2.511-7.264 3.053-10.834z" class="P"/><g class="L"><path d="M695.835 676.705c-3.005 2.234-11.607 5.772-14.451 5.473-.174-2.076-1.078-1.928-1.964-3.784 0 0 1.754-2.854 3.327-3.603 1.351-.64 3.432-3.985 11.266-6.613 2.067-.692 9.278 3.788 1.822 8.527z"/><path d="M671.545 669.003c3.676 1.564 7.759 4.225 11.563 6.418 1.693 1.611 2.674 4.809 1.136 5.976-.638.514-2.005.745-2.861.775-4.771-2.345-8.552-6.536-11.578-10.93l1.74-2.239z"/></g><path d="M698.898 668.915c1.034 1.312 3.446 5.602-6.779 11.102-2.61-2.892-5.011-9.24-5.011-9.24s7.934-6.762 11.79-1.862z" class="O"/><g class="L"><path d="M666.144 670.391c1.26.664 3.371 1.03 4.079 1.078l1.679-2.215c-.732-2.757-3.316-4.649-3.656-4.782-.882-.358-1.274-.581-1.382-.482s-.469.635.686 1.399c2.529 1.673-.146 1.774-3.63-1.156-.717-.603-2.129.532-2.008 1.394.213 1.592.629 2.882 4.232 4.764zm38.572-10.723l-2.112 5.79s-2.196 3.826-6.521 3.286c-.181-.36.722-3.719.722-3.719l7.911-5.357z"/></g><path d="M695.859 667.416s3.5 2.368 6.745-1.958c0 0 5.556-.848 8.517 7.614 4.626 13.202 10.825 20.627 10.825 20.627s-13.294 12.685-27.382 8.421c-.403-1.191-6.525-28.583 1.295-34.704z" class="U"/><path d="M686.401 649.131c-2.225 6.979.203 14.069 5.112 15.664 5.658 1.838 13.199-2.166 15.424-9.146s-.569-14.097-6.24-15.897-12.072 2.398-14.296 9.379z" class="L"/><path d="M707.015 656.95c-3.186-.797-3.414-4.888-5.092-9.906-3.44 4.151-16.06.65-16.06.65s-1.197-7.869 7.703-10.453c8.491-2.467 24.163 6.036 13.449 19.709z" fill="#606060"/><path d="M705.426 655.087c-1.65 1.115-2.318 3.007-1.491 4.228s2.836 1.308 4.486.194 2.318-3.006 1.492-4.226-2.836-1.309-4.487-.196z" class="L"/><path d="M705.436 658.628a.36.36 0 0 0 .178.011.37.37 0 0 0 .162-.074c.048-.038.084-.087.108-.143s.033-.116.027-.176c-.061-.664.084-1.144.433-1.415.532-.417 1.463-.306 2.082-.085.092.033.193.028.281-.014s.155-.116.188-.207.027-.192-.014-.28a.37.37 0 0 0-.208-.188c-.838-.297-2.007-.398-2.779.197-.385.297-.82.896-.714 2.06.007.071.035.14.08.196s.107.097.176.118h0z" fill="#bbbbbc"/><path d="M695.434 661.213c.207-.205.116-.575-.151-.596a18.6 18.6 0 0 1-5.532-1.229c-.249-.093-.49.203-.388.477.31.839 1.042 2.171 2.623 2.523s2.81-.545 3.448-1.175z" class="C"/><g class="L"><path d="M707.392 676.203c-1.118 3.573-5.989 11.478-8.467 12.907-1.364-1.578-2.009-.93-3.819-1.91 0 0-.266-3.338.574-4.869.716-1.31.43-5.237 5.218-11.954 1.262-1.777 9.734-2.377 6.494 5.826z"/><path d="M683.205 684.222c3.896-.891 8.766-1.134 13.135-1.593 2.319.31 4.995 2.321 4.443 4.174-.212.79-1.184 1.778-1.864 2.304-5.239.902-10.768-.265-15.801-2.052l.087-2.833z"/></g><path d="M705.282 668.104c1.609.455 6.086 2.51 1.054 12.96-3.814-.81-9.495-4.537-9.495-4.537s2.435-10.121 8.441-8.423z" class="P"/><path d="M679.388 688.615c1.404-.224 3.327-1.185 3.917-1.569l.02-2.777c-2.237-1.776-5.443-1.751-5.799-1.659-.921.239-1.369.293-1.396.438s0 .788 1.388.712c3.031-.166.944 1.51-3.604 1.238-.931-.056-1.388 1.688-.776 2.315 1.122 1.153 2.23 1.938 6.25 1.302z" class="L"/><path d="M605.908 703.102a19.22 19.22 0 0 0-.374-4.927c6.212-3.274 14.089-16.122 16.16-21.883.57-1.594-8.916-11.38-16.072-.82s-10.703 15.188-10.231 19.742c.281 2.71 1.997 25.618 1.997 25.618l5.803.227c-.525-9.261 2.316-11.886 2.717-17.957z" class="M"/><path d="M599.751 719.135c-.532-2.404-2.263-2.876-2.263-2.876-4.009 4.442-12.015.429-12.55 7.04l18.027 2.215c.169-1.511.361-5.128.239-6.566l-.678.043-2.775.144z" class="P"/><path d="M585.488 725.153l16.494 2.028a.78.78 0 0 0 .572-.159c.162-.127.267-.312.292-.516l.145-1.167-18.033-2.22-.145 1.168a.77.77 0 0 0 .021.302c.027.098.073.19.136.271s.141.147.23.198.186.082.288.095h0z" class="C"/><g class="M"><path d="M623.924 666.64c4.138 4.516 9.922 16.407 9.92 23.42.012 0-2.491 7.445-5.465 9.491-4.009-1.884-6.873-8.235-12.687-19.113-6.012-11.251 7.092-15.044 8.232-13.798z"/><path d="M631.955 688.615c1.39-.955 2.542-2.492 4.018-3.018 5.74-2.051 9.614.24 17.916-3.931l1.641 5.116s-21.604 12.617-27.15 12.769c-1.197.034 3.035-7.366 3.575-10.936z"/></g><path d="M653.864 685.5c-1.996 1.448-1.744 3.213-1.744 3.213 5.68 1.903 5.178 10.829 11.466 8.687l-5.138-17.385c-1.464.446-4.858 1.712-6.133 2.39l.312.605 1.237 2.49z" class="P"/><path d="M665.195 696.59l-4.955-16.76a.33.33 0 0 0-.159-.196c-.077-.042-.167-.051-.251-.027l-1.559.459 5.147 17.392 1.558-.459a.33.33 0 0 0 .193-.16c.041-.076.05-.166.026-.249z" class="C"/><path d="M625.862 668l9.663 15.905s-10.793 12.523-14.307 11.397c-1.229-.398-9.035-18.285-9.285-21.166s7.027-14.149 13.929-6.136z" class="O"/><path d="M617.705 686.161l-9.035 12.149s-8.784-3.883-13.176-10.395c3.263-4.132 7.405-13.4 12.173-17.032s21.834-1.662 10.038 15.278z" class="P"/><g class="M"><path d="M604.915 652.345c-1.464 3.444-7.094 10.832-9.7 12.01-1.197-1.704-1.907-1.12-3.611-2.275 0 0 .069-3.347 1.052-4.789.841-1.234.944-5.169 6.372-11.388 1.431-1.639 9.922-1.412 5.887 6.442z"/><path d="M580.053 657.947c3.965-.505 8.834-.266 13.227-.292 2.277.531 4.742 2.801 4.01 4.59-.29.765-1.353 1.654-2.076 2.111-5.303.382-10.691-1.329-15.522-3.596l.361-2.813z"/></g><path d="M603.614 644.077c1.557.611 5.809 3.097-.229 13-3.717-1.181-9.003-5.445-9.003-5.445s3.425-9.838 9.232-7.555z" class="O"/><g class="M"><path d="M576.096 661.869c1.421-.066 3.431-.81 4.066-1.126l.329-2.759c-2.029-2.009-5.217-2.336-5.574-2.287-.942.133-1.393.142-1.436.282s-.083.783 1.302.86c3.029.169.77 1.606-3.727.834-.923-.159-1.566 1.525-1.027 2.214.993 1.272 2.005 2.175 6.067 1.982zm33.537-28.933l1.451 9.058s-3.09 1.346-7.412 1.954c-.266-.3-.276-3.78-.276-3.78l6.237-7.232z"/></g><path d="M603.486 642.64s3.5 2.368 6.743-1.958c0 0 5.558-.847 8.517 7.613 4.632 13.204 10.83 20.635 10.83 20.635s-13.294 12.678-27.377 8.414c-.417-1.19-6.531-28.583 1.287-34.704z" fill="#c6c6c6"/><path d="M589.194 627.54c-.32 7.318 3.882 13.529 9.038 13.788 5.943.298 12.173-5.534 12.492-12.851s-4.241-13.459-10.186-13.717-11.025 5.463-11.344 12.78z" class="M"/><path d="M601.08 636.848c.146-.253-.04-.586-.302-.538-1.863.374-3.773.461-5.662.257-.266-.024-.42.326-.251.562.52.729 1.575 1.825 3.194 1.751s2.569-1.259 3.021-2.032z" class="C"/><path d="M609.602 627.655c-3.257-3.125-7.985-.247-9.148-3.708s-5.324-.62-7.021.753-6.414 4.25-7.585 2.05-1.756-6.049 2.315-7.95 3.873-.864 4.356-3.81c.648-3.951 5.785-4.881 8.772-3.172s4.47 1.719 5.901 1.039c3.352-1.594 6.71 4.023 5.336 6.568s1.14 3.355 1.652 4.818-2.322 5.579-4.578 3.412z" fill="#606060"/><path d="M609.119 628.329c-1.302 1.505-1.451 3.506-.333 4.469s3.08.522 4.381-.983 1.451-3.506.333-4.469-3.08-.519-4.381.983z" class="M"/><path d="M610.051 631.741c.061.002.12-.011.175-.037a.38.38 0 0 0 .137-.115c.035-.049.058-.105.066-.165s.002-.121-.019-.177c-.234-.63-.218-1.127.047-1.479.411-.543 1.331-.676 1.988-.625a.37.37 0 0 0 .267-.087.36.36 0 0 0 .127-.249c.008-.097-.023-.193-.087-.266s-.153-.12-.249-.127c-.887-.069-2.043.133-2.632.914-.292.387-.556 1.079-.147 2.174.025.067.069.126.127.168s.128.067.2.071h0z" fill="#bbbbbc"/><g class="M"><path d="M616.263 643.232c3.685-.686 12.966-.091 15.391 1.424-.758 1.943.119 2.206.097 4.262 0 0-2.833 1.793-4.581 1.773-1.494-.017-4.837 2.074-13.031.998-2.159-.283-6.661-7.471 2.124-8.457z"/><path d="M634.686 660.808c-2.613-3.019-5.108-7.2-7.558-10.838-.811-2.19-.282-5.492 1.616-5.873.798-.182 2.129.211 2.91.559 3.253 4.198 4.802 9.624 5.58 14.895l-2.548 1.257z"/></g><path d="M610.079 648.886c-.35-1.633-.627-6.544 10.981-6.998 1.065 3.743.43 10.493.43 10.493s-10.108 2.603-11.411-3.495z" class="P"/><path d="M640.364 662.121c-.855-1.134-2.603-2.373-3.222-2.718l-2.471 1.281c-.523 2.804 1 5.62 1.247 5.89.643.701.901 1.07 1.041 1.026s.696-.372-.02-1.558c-1.565-2.594.897-1.539 2.784 2.6.389.851 2.145.433 2.413-.399.495-1.534.673-2.878-1.772-6.122z" class="M"/><g fill="#dbd8d7"><path d="M848.372 677.271s6.75 6.568 18.305 7.113c1.651.079 5.281-.746 6.14 1.845-1.651.978-4.093 2.093-6.378 2.609-16.918 3.817-31.657-7.914-31.657-7.914l13.59-3.653zm-55.356-1.052s-6.751 6.569-18.307 7.113c-1.65.079-5.281-.746-6.138 1.845 1.649.979 4.091 2.094 6.376 2.609 16.918 3.817 31.657-7.912 31.657-7.912l-13.588-3.655z"/></g><path d="M804.824 665.58c1.916-1.231 4.772-.544 12.777 1.231 9.161 2.031 17.4-3.877 22.271-2.592s8.548 4.704 9.78 11.269c1.502 8.011-10.264 13.322-20.128 14.315s-19.785-.321-28.462-4.638-10.314-11.953-10.314-11.953 10.679-5.443 14.076-7.632z" class="U"/><path d="M790.882 675.823c2.249 3.137 7.331 3.354 11.352.483s5.456-7.74 3.209-10.879-7.332-3.353-11.354-.482-5.456 7.741-3.207 10.878z" class="O"/><g class="U"><path d="M804.489 662.612s-4.866-4.363-7.504-5.645-6.537-1.152-10.452-.634c-2.361.314-7.046 1.977-11.372 2.265 0 0-1.534.817-.865 3.071s8.215 6.002 11.96 6.597c0 0-2.965 1.046-9.255.297-1.025-.122.566 1.587 2.972 2.861 3.611 1.913 6.44 3.105 10.479 3.777 2.932.485 13.83.808 14.037-12.589zm-3.953 19.034s-4.925 8.029-15.98 11.403c-1.581.484-5.302.578-5.493 3.301 1.841.541 4.483 1.02 6.826.956 17.337-.469 28.714-15.466 28.714-15.466l-14.067-.194z"/><path d="M840.851 682.698s4.917 8.027 15.979 11.403c1.581.482 5.302.578 5.493 3.299-1.841.542-4.483 1.022-6.825.958-17.338-.469-28.72-15.468-28.72-15.468l14.073-.192zm-41.444-21.816c2.573-3.122 4.152-9.563 8.917-6.621s8.477 10.19 4.512 9.802-7.586-3.32-7.586-3.32l-.845 2.972-4.998-2.833z"/></g><path d="M794.429 657.066c-.171-3.436-1.548-8.589-5.764-6.699s-2.287 3.076 0 4.117 3.012 1.888 3.012 1.888l2.752.694z" fill="#dbd8d7"/><g class="O"><path d="M791.216 662.148c0 .247.073.488.21.693a1.25 1.25 0 0 0 1.923.189c.175-.174.294-.397.342-.639a1.24 1.24 0 0 0-.071-.72c-.095-.228-.255-.423-.46-.56a1.25 1.25 0 0 0-.695-.21c-.164 0-.326.032-.478.094s-.289.155-.406.271a1.23 1.23 0 0 0-.27.405 1.24 1.24 0 0 0-.095.477h0zm-18.269-2.542c0 .98.883 1.774 1.971 1.774s1.971-.797 1.971-1.774-.882-1.776-1.971-1.776-1.971.794-1.971 1.776z"/></g><path d="M840.889 664.759l2.262 3.276s10.18-6.551 8.45-16.094a16.14 16.14 0 0 0-.836-2.974c-2.638-6.736-8.621-6.999-4.791-1.436a10.62 10.62 0 0 1 1.049 1.936c2.548 6.181-.879 14.201-6.134 15.292z" class="U"/></g><defs><clipPath id="A"><path transform="translate(568 611)" d="M0 0h316v148H0z" class="C"/></clipPath><path id="B" d="M107.069 622.546c4.705 0 8.52-.578 8.52-1.29s-3.815-1.29-8.52-1.29-8.52.577-8.52 1.29 3.814 1.29 8.52 1.29z"/><path id="C" d="M1016.07 618.546c4.7 0 8.52-.578 8.52-1.29s-3.82-1.29-8.52-1.29c-4.71 0-8.52.577-8.52 1.29s3.81 1.29 8.52 1.29z"/><path id="D" d="M1112.15 517.586c.68 1.216.92 2.628.68 4a4.11 4.11 0 0 1-1.64-.767c-.49-.374-.88-.849-1.16-1.393-.67-1.219-.91-2.63-.67-4 .6.129 1.16.39 1.64.763s.87.851 1.15 1.397h0z"/><path id="E" d="M1153.43 596.976v-45.8c0-.764.3-1.497.84-2.037s1.27-.843 2.04-.843h.36c.76 0 1.5.303 2.04.843s.84 1.273.84 2.037"/><path id="F" d="M1076.89 548.296h.36c.76 0 1.5.303 2.04.843s.84 1.273.84 2.037v65.8h-6.12v-65.8c0-.764.3-1.497.84-2.037s1.27-.843 2.04-.843h0z"/><path id="G" d="M1043.01 596.976v-45.8c0-.378.07-.753.22-1.102a2.76 2.76 0 0 1 .62-.935c.27-.267.59-.479.94-.624a2.86 2.86 0 0 1 1.1-.219h.36c.76 0 1.5.303 2.04.843s.84 1.273.84 2.037"/><path id="H" d="M1160.9 565.846h-153.66c-1.18 0-2.13.951-2.13 2.125s.95 2.125 2.13 2.125h153.66c1.17 0 2.13-.952 2.13-2.125s-.96-2.125-2.13-2.125z"/><path id="I" d="M216.309 552.296h.36a2.88 2.88 0 0 1 2.88 2.88v65.8h-6.1v-65.8a2.88 2.88 0 0 1 2.86-2.88h0z"/><path id="J" d="M213.429 600.976v-45.8a2.88 2.88 0 0 1 2.88-2.88h.36a2.88 2.88 0 0 1 2.88 2.88"/><path id="K" d="M194.709 552.296h.36a2.88 2.88 0 0 1 2.88 2.88v65.8h-6.12v-65.8a2.88 2.88 0 0 1 2.88-2.88h0z"/><path id="L" d="M165.009 600.976v-45.8a2.88 2.88 0 0 1 2.88-2.88h.34a2.88 2.88 0 0 1 2.88 2.88"/><path id="M" d="M220.898 569.846H67.238c-1.176 0-2.13.951-2.13 2.125a2.13 2.13 0 0 0 2.13 2.125h153.66a2.13 2.13 0 0 0 2.13-2.125c0-1.174-.953-2.125-2.13-2.125z"/><path id="N" d="M221.898 569.846H68.238c-1.176 0-2.13.951-2.13 2.125a2.13 2.13 0 0 0 2.13 2.125h153.66a2.13 2.13 0 0 0 2.13-2.125c0-1.174-.953-2.125-2.13-2.125z"/></defs></svg>