<svg width="492" height="495" viewBox="0 0 492 495" fill="none" xmlns="http://www.w3.org/2000/svg">
<g clip-path="url(#clip0)">
<path d="M117.302 175.571L185.545 174.351L184.596 324.916L117.302 320.317V175.571Z" fill="white" stroke="#D8D8D8" stroke-miterlimit="10"/>
<path d="M181.757 174.351H117.29L118.913 331.267L87.2866 328.832V196.247V189.758L116.886 167.051H184.596L181.757 174.351Z" fill="#F7F8F8" stroke="#D8D8D8" stroke-miterlimit="10"/>
<path d="M154.797 186.516H130.063V209.224H154.797V186.516Z" fill="#F7F7F7" stroke="#D8D8D8" stroke-miterlimit="10"/>
<path d="M155.929 317.345H131.757L131.195 238.278H155.929V317.345Z" fill="#F7F7F7" stroke="#D8D8D8" stroke-miterlimit="10"/>
<path d="M109.79 191.581L96.002 201.312V226.454L109.79 219.562V191.581Z" fill="#FDFEFE" stroke="#D8D8D8" stroke-miterlimit="10"/>
<path d="M116.886 167.051L117.302 175.571L87.2866 196.247V189.758L116.886 167.051Z" fill="white" stroke="#D8D8D8" stroke-miterlimit="10"/>
<path d="M116.886 167.051L117.302 175.571L185.545 174.351L184.596 167.051H116.886Z" fill="#F4F4F5" stroke="#D8D8D8" stroke-miterlimit="10"/>
<path d="M93.3672 249.161V275.31L110.239 270.245V242.673L93.3672 249.161Z" fill="#FDFEFE" stroke="#D8D8D8" stroke-miterlimit="10"/>
<path d="M69.4438 205.166C70.4593 203.746 116.889 160.767 116.889 160.767L160.473 126.506L96.0009 184.485L69.4438 205.166Z" fill="white" stroke="#D8D8D8" stroke-miterlimit="10"/>
<path d="M160.474 126.506L213.118 175.433L210.412 178.134L160.474 132.994L99.269 187.994L96.002 184.485L160.474 126.506Z" fill="#F4F4F5" stroke="#D8D8D8" stroke-miterlimit="10"/>
<path d="M96.0013 184.485L96.2719 184.776L99.2684 187.994L69.4443 209.219L67.688 206.381L96.0013 184.485Z" fill="#F9F9FA" stroke="#D8D8D8" stroke-miterlimit="10"/>
<path d="M122.571 167.051L160.474 132.994L198.151 167.051H122.571Z" fill="white" stroke="#D8D8D8" stroke-miterlimit="10"/>
<path d="M142.34 188.402V207.059" stroke="#D8D8D8" stroke-miterlimit="10"/>
<path d="M133.009 197.729H151.667" stroke="#D8D8D8" stroke-miterlimit="10"/>
<path opacity="0.57" d="M133.01 209.311V188.402H154.797V186.516H130.063V209.219L133.01 209.311Z" fill="#FDFEFE" stroke="#D8D8D8" stroke-miterlimit="10"/>
<path d="M101.803 200.3V221.385" stroke="#D8D8D8" stroke-miterlimit="10"/>
<path d="M97.6909 212.432L106.88 208.183" stroke="#D8D8D8" stroke-miterlimit="10"/>
<path d="M102.282 250.122V271.206" stroke="#D8D8D8" stroke-miterlimit="10"/>
<path d="M98.1699 262.254L107.364 258.009" stroke="#D8D8D8" stroke-miterlimit="10"/>
<path opacity="0.57" d="M96.0017 273.824V250.846L109.79 244.903L110.239 242.673L93.3672 249.161V275.31L96.0017 273.824Z" fill="#E5E5E5" stroke="#D8D8D8" stroke-miterlimit="10"/>
<path opacity="0.57" d="M98.4366 225.239L97.6917 201.949L109.79 193.75V191.581L96.002 201.312V226.454L98.4366 225.239Z" fill="#E5E5E5" stroke="#D8D8D8" stroke-miterlimit="10"/>
<path d="M29.5242 332.353V441.852L-0.433105 439.443V354.469L29.5242 332.353Z" fill="#FBFDFE" stroke="#D8D8D8" stroke-miterlimit="10"/>
<path d="M5.87988 366.443V388.48L12.9967 385.496V362.539L5.87988 366.443Z" fill="#F7F7F7" stroke="#D8D8D8" stroke-miterlimit="10"/>
<path d="M16.7012 389.933V440.666L23.818 441.507V386.033L16.7012 389.933Z" fill="#F7F7F7" stroke="#D8D8D8" stroke-miterlimit="10"/>
<path d="M29.5239 332.353L105.279 333.847L106.885 441.852H29.5239V332.353Z" fill="#F7F8F8" stroke="#D8D8D8" stroke-miterlimit="10"/>
<path d="M52.0187 343.257H35.7207V365.066H52.0187V343.257Z" fill="#FDFEFE" stroke="#D8D8D8" stroke-miterlimit="10"/>
<path d="M52.0187 376.199H35.7207V398.007H52.0187V376.199Z" fill="#FDFEFE" stroke="#D8D8D8" stroke-miterlimit="10"/>
<path d="M-11.5664 368.05L32.0502 314.565L69.9276 287.704L12.9971 350.832L-11.5664 368.05Z" fill="white" stroke="#D8D8D8" stroke-miterlimit="10"/>
<path d="M72.4539 285.411L116.757 348.767L114.002 351.523L72.4539 292.295L16.439 354.994L13.4258 350.948L72.4539 285.411Z" fill="#F4F4F5" stroke="#D8D8D8" stroke-miterlimit="10"/>
<path d="M12.9966 350.832L16.4385 354.994L-11.9706 372.898L-13.8643 369.885L12.9966 350.832Z" fill="#F9F9FA" stroke="#D8D8D8" stroke-miterlimit="10"/>
<path d="M156.262 195.66L272.17 193.587L270.564 449.315L156.262 441.507V195.66Z" fill="white" stroke="#D8D8D8" stroke-miterlimit="10"/>
<path d="M265.74 193.587H156.241L157.506 316.051L158.996 460.106L105.278 455.974V230.774V219.753L155.554 181.189H270.564L265.74 193.587Z" fill="#F7F8F8" stroke="#D8D8D8" stroke-miterlimit="10"/>
<path d="M219.943 214.247H177.933V252.811H219.943V214.247Z" fill="#F7F7F7" stroke="#E5E5E5" stroke-miterlimit="10"/>
<path d="M221.87 436.459H180.817L179.86 302.167H221.87V436.459Z" fill="#F7F7F7" stroke="#E5E5E5" stroke-miterlimit="10"/>
<path d="M143.502 222.854L120.087 239.385V282.081L143.502 270.374V222.854Z" fill="#FDFEFE" stroke="#D3D2D1" stroke-miterlimit="10"/>
<path d="M155.554 181.189L156.261 195.66L105.278 230.774V219.753L155.554 181.189Z" fill="white" stroke="#E5E5E5" stroke-miterlimit="10"/>
<path d="M155.554 181.189L156.261 195.66L272.17 193.587L270.563 181.189H155.554Z" fill="#F4F4F5" stroke="#D8D8D8" stroke-miterlimit="10"/>
<path d="M74.9756 245.923C76.6986 243.513 155.554 170.514 155.554 170.514L229.586 112.322L120.086 210.801L74.9756 245.923Z" fill="white" stroke="#D8D8D8" stroke-miterlimit="10"/>
<path d="M229.586 112.322L319 195.423L314.41 200.013L229.586 123.339L125.631 216.757L120.087 210.801L229.586 112.322Z" fill="#F4F4F5" stroke="#D8D8D8" stroke-miterlimit="10"/>
<path d="M120.087 210.801L120.544 211.296L125.63 216.756L74.9758 252.811L71.9917 247.991L120.087 210.801Z" fill="#F9F9FA" stroke="#D8D8D8" stroke-miterlimit="10"/>
<path d="M165.21 181.189L229.586 123.339L293.583 181.189H165.21Z" fill="white" stroke="#E5E5E5" stroke-miterlimit="10"/>
<path d="M198.787 217.452V249.14" stroke="#E5E5E5" stroke-miterlimit="10"/>
<path d="M182.943 233.296H214.632" stroke="#E5E5E5" stroke-miterlimit="10"/>
<path opacity="0.57" d="M182.944 252.965V217.452H219.943V214.247H177.933V252.811L182.944 252.965Z" fill="#FDFEFE"/>
<path d="M129.938 237.662V273.471" stroke="#E5E5E5" stroke-miterlimit="10"/>
<path d="M122.955 258.263L138.566 251.05" stroke="#E5E5E5" stroke-miterlimit="10"/>
<path d="M106.07 387.103L157.477 313.025L158.98 458.687L106.886 451.991L106.07 387.103Z" fill="white"/>
<path d="M108.042 346.508L107.871 376.199L127.062 370.555L127.241 339.249L108.042 346.508Z" fill="#FDFEFE" stroke="#D3D2D1" stroke-miterlimit="10"/>
<path d="M118.16 347.661L118.022 371.6" stroke="#E5E5E5" stroke-miterlimit="10"/>
<path d="M113.411 361.407L123.874 356.646" stroke="#E5E5E5" stroke-miterlimit="10"/>
<path opacity="0.57" d="M110.876 374.53L111.022 348.443L126.712 341.78L127.241 339.249L108.042 346.508L107.871 376.199L110.876 374.53Z" fill="#E5E5E5"/>
<path d="M132.235 382.774L132.069 412.465L151.255 406.822L151.434 375.516L132.235 382.774Z" fill="#FDFEFE" stroke="#D3D2D1" stroke-miterlimit="10"/>
<path d="M142.353 383.927L142.216 407.862" stroke="#E5E5E5" stroke-miterlimit="10"/>
<path d="M137.608 397.67L148.067 392.908" stroke="#E5E5E5" stroke-miterlimit="10"/>
<path opacity="0.57" d="M135.07 410.796L135.219 384.71L150.91 378.046L151.434 375.516L132.235 382.774L132.069 412.465L135.07 410.796Z" fill="#E5E5E5"/>
<path d="M29.5361 441.852C32.5119 440.708 105.283 353.82 105.283 353.82V441.266L29.5361 441.852Z" fill="white"/>
<path opacity="0.57" d="M124.22 280.013L122.954 240.458L143.502 226.533V222.854L120.087 239.385V282.081L124.22 280.013Z" fill="#E5E5E5"/>
<path d="M37.4443 332.353L72.8287 292.836L101.159 333.219L37.4443 332.353Z" fill="#F7F7F7" stroke="#E5E5E5" stroke-miterlimit="10"/>
<path d="M43.8696 346.932V360.704" stroke="#E5E5E5" stroke-miterlimit="10"/>
<path d="M36.9858 353.82H50.7575" stroke="#E5E5E5" stroke-miterlimit="10"/>
<path d="M43.8696 380.219V393.991" stroke="#E5E5E5" stroke-miterlimit="10"/>
<path d="M36.9858 387.103H50.7575" stroke="#E5E5E5" stroke-miterlimit="10"/>
<path d="M9.43848 367.134V382.974" stroke="#E5E5E5" stroke-miterlimit="10"/>
<path d="M7.48633 375.512L11.3902 372.898" stroke="#E5E5E5" stroke-miterlimit="10"/>
<path d="M113.952 438.931C114.202 437.868 114.139 436.757 113.772 435.729C113.404 434.702 112.747 433.802 111.88 433.14C111.013 432.477 109.973 432.08 108.885 431.995C107.797 431.91 106.708 432.142 105.749 432.663C104.199 430.63 102.091 429.093 99.6808 428.24C97.2709 427.388 94.6646 427.257 92.1816 427.864C89.6986 428.471 87.4466 429.79 85.7018 431.658C83.957 433.526 82.7952 435.863 82.3589 438.381C80.3481 439.027 78.6344 440.371 77.5268 442.169C76.4193 443.967 75.9909 446.102 76.3189 448.189C76.6469 450.275 77.7096 452.176 79.3155 453.547C80.9214 454.919 82.9646 455.672 85.0766 455.67H109.911C111.899 455.671 113.829 455.003 115.391 453.773C116.954 452.544 118.057 450.824 118.523 448.892C118.99 446.959 118.793 444.926 117.963 443.119C117.134 441.312 115.721 439.837 113.952 438.931Z" fill="#EDEFEF"/>
<path d="M100.751 453.976L100.102 452.59C99.6491 451.614 99.5042 450.524 99.6864 449.464C99.8685 448.404 100.369 447.424 101.121 446.655L102.894 444.841C103.613 444.103 104.509 443.562 105.496 443.27C106.484 442.979 107.53 442.946 108.534 443.176L110.968 443.734C111.385 443.828 111.816 443.831 112.234 443.743C112.651 443.654 113.044 443.476 113.386 443.222L115.218 441.856C116.318 441.035 117.661 440.604 119.034 440.631C120.407 440.657 121.732 441.139 122.801 442.002L125.389 444.083C126.368 444.87 127.043 445.974 127.297 447.204C127.552 448.434 127.37 449.714 126.784 450.825L125.061 454.101C124.811 454.575 124.436 454.973 123.977 455.25C123.518 455.527 122.992 455.674 122.455 455.674H103.435C102.873 455.676 102.321 455.518 101.845 455.217C101.37 454.916 100.99 454.486 100.751 453.976Z" fill="#EDEFEF"/>
<path d="M116.145 455.67C110.706 452.062 110.319 447.146 111.775 443.788C111.496 443.806 111.216 443.783 110.943 443.721L108.508 443.163C107.504 442.934 106.458 442.966 105.471 443.258C104.483 443.549 103.587 444.09 102.869 444.828L101.121 446.655C100.369 447.427 99.8697 448.41 99.6905 449.472C99.5113 450.535 99.6604 451.627 100.118 452.603L100.767 453.989C101.005 454.495 101.383 454.923 101.855 455.223C102.327 455.523 102.875 455.682 103.435 455.682C103.435 455.682 116.208 455.712 116.145 455.67Z" fill="#E9E8EA"/>
<path d="M120.577 447.563C120.43 447.562 120.285 447.518 120.162 447.436C120.04 447.353 119.944 447.236 119.887 447.1C119.831 446.963 119.816 446.813 119.845 446.668C119.874 446.523 119.945 446.39 120.049 446.285L121.264 445.065C121.405 444.925 121.596 444.846 121.795 444.846C121.994 444.846 122.185 444.925 122.325 445.065C122.466 445.206 122.545 445.397 122.545 445.596C122.545 445.795 122.466 445.986 122.325 446.127L121.098 447.342C120.96 447.481 120.773 447.56 120.577 447.563Z" fill="#E9E8EA"/>
<path d="M120.628 451.991C120.48 451.991 120.335 451.948 120.211 451.866C120.088 451.784 119.992 451.667 119.935 451.53C119.878 451.393 119.862 451.243 119.891 451.097C119.92 450.952 119.991 450.818 120.095 450.713L122.426 448.382C122.567 448.247 122.756 448.172 122.952 448.173C123.148 448.175 123.335 448.253 123.474 448.392C123.613 448.53 123.692 448.717 123.694 448.913C123.697 449.109 123.622 449.298 123.487 449.44L121.157 451.77C121.088 451.841 121.006 451.897 120.915 451.935C120.824 451.973 120.726 451.992 120.628 451.991Z" fill="#E9E8EA"/>
<path d="M104.209 433.857C104.111 433.858 104.014 433.839 103.923 433.802C103.833 433.765 103.75 433.71 103.681 433.641C103.541 433.5 103.462 433.309 103.462 433.11C103.462 432.912 103.541 432.721 103.681 432.58L107.426 428.834C107.495 428.762 107.578 428.705 107.67 428.665C107.761 428.626 107.86 428.605 107.96 428.604C108.059 428.603 108.158 428.622 108.25 428.66C108.343 428.698 108.427 428.754 108.497 428.825C108.567 428.895 108.623 428.979 108.66 429.072C108.698 429.164 108.716 429.263 108.715 429.363C108.714 429.463 108.693 429.561 108.653 429.652C108.613 429.744 108.556 429.826 108.483 429.895L104.738 433.641C104.668 433.71 104.586 433.765 104.495 433.802C104.404 433.839 104.307 433.858 104.209 433.857Z" fill="#EDEFEF"/>
<path d="M85.5307 443.163C85.3311 443.162 85.14 443.083 84.9979 442.943L81.2522 439.197C81.1804 439.128 81.123 439.045 81.0836 438.954C81.0441 438.862 81.0234 438.764 81.0225 438.664C81.0216 438.564 81.0407 438.465 81.0785 438.373C81.1164 438.281 81.1723 438.197 81.2429 438.127C81.3136 438.056 81.3976 438.001 81.49 437.963C81.5824 437.926 81.6814 437.907 81.7811 437.908C81.8808 437.909 81.9792 437.931 82.0707 437.97C82.1621 438.01 82.2447 438.068 82.3135 438.14L86.0592 441.886C86.1629 441.991 86.2334 442.125 86.2618 442.27C86.2902 442.415 86.2753 442.565 86.219 442.702C86.1626 442.838 86.0673 442.955 85.9449 443.038C85.8225 443.121 85.6785 443.166 85.5307 443.168V443.163Z" fill="#E9E8EA"/>
<path d="M92.1393 432.842C92.1393 432.985 92.0968 433.125 92.0172 433.244C91.9376 433.363 91.8245 433.456 91.6922 433.511C91.5599 433.566 91.4143 433.58 91.2738 433.552C91.1333 433.524 91.0043 433.455 90.903 433.354C90.8018 433.253 90.7328 433.124 90.7048 432.983C90.6769 432.843 90.6912 432.697 90.746 432.565C90.8009 432.432 90.8937 432.319 91.0128 432.24C91.1319 432.16 91.2719 432.118 91.4151 432.118C91.5102 432.118 91.6044 432.136 91.6922 432.173C91.7801 432.209 91.8599 432.263 91.9272 432.33C91.9944 432.397 92.0477 432.477 92.0841 432.565C92.1205 432.653 92.1393 432.747 92.1393 432.842Z" fill="#E9E8EA"/>
<path d="M100.958 442.668C100.958 442.811 100.916 442.952 100.836 443.071C100.756 443.19 100.643 443.283 100.511 443.337C100.379 443.392 100.233 443.406 100.093 443.379C99.9522 443.351 99.8232 443.282 99.7219 443.18C99.6206 443.079 99.5516 442.95 99.5237 442.81C99.4957 442.669 99.5101 442.523 99.5649 442.391C99.6197 442.259 99.7125 442.146 99.8316 442.066C99.9507 441.987 100.091 441.944 100.234 441.944C100.329 441.944 100.424 441.962 100.512 441.998C100.6 442.034 100.68 442.088 100.747 442.155C100.815 442.222 100.868 442.302 100.904 442.39C100.94 442.479 100.959 442.573 100.958 442.668Z" fill="#E9E8EA"/>
<path d="M91.6729 440.745C88.41 437.982 87.8523 431.281 91.4856 427.702C89.1583 428.411 87.0732 429.751 85.4619 431.574C83.8506 433.397 82.7764 435.631 82.3586 438.028C80.338 438.676 78.6174 440.029 77.51 441.839C76.4026 443.649 75.982 445.797 76.3248 447.891C76.6677 449.985 77.7511 451.887 79.3779 453.25C81.0047 454.612 83.0668 455.346 85.1887 455.316H95.6184C89.8667 452.44 90.0248 447.163 92.1266 443.58C92.3966 443.129 92.4991 442.598 92.4161 442.08C92.3332 441.561 92.07 441.089 91.6729 440.745Z" fill="#E9E8EA"/>
<path d="M80.727 443.097C82.679 445.049 85.43 445.76 87.3528 446.01C87.6414 446.049 87.9352 446.021 88.2112 445.928C88.4873 445.835 88.7381 445.68 88.9443 445.474C89.1505 445.268 89.3064 445.018 89.3999 444.742C89.4935 444.466 89.5221 444.172 89.4837 443.883C89.2256 441.961 88.5139 439.21 86.5703 437.258C84.6267 435.306 81.8716 434.598 79.9488 434.344C79.6601 434.305 79.3663 434.333 79.0903 434.426C78.8143 434.519 78.5634 434.675 78.3572 434.881C78.1511 435.086 77.9951 435.337 77.9016 435.613C77.808 435.889 77.7794 436.182 77.8179 436.471C78.0717 438.398 78.7834 441.149 80.727 443.097Z" fill="#EDEFEF"/>
<path d="M46.9083 434.045C47.0792 433.117 46.8789 432.159 46.3506 431.377C45.6847 430.465 44.6858 430.303 43.8867 430.886C43.0044 429.304 41.6102 428.285 40.0453 428.285C37.6564 428.285 35.6711 430.653 35.2799 433.766C33.9689 434.344 33.02 436.026 33.02 438.011C33.02 440.475 34.4808 442.473 36.2788 442.473H45.4349C47.237 442.473 48.6937 440.475 48.6937 438.011C48.6812 436.284 47.957 434.786 46.9083 434.045Z" fill="#EDEFEF"/>
<path d="M42.0469 441.619L41.8097 440.92C41.6384 440.426 41.5828 439.9 41.647 439.381C41.7112 438.862 41.8936 438.365 42.1801 437.928L42.8294 437.012C43.0376 436.665 43.3538 436.396 43.7296 436.245C44.1054 436.095 44.5201 436.072 44.9103 436.18L45.8051 436.459C45.9627 436.505 46.1303 436.505 46.2881 436.46C46.4459 436.414 46.5874 436.324 46.6958 436.201L47.37 435.514C47.5457 435.314 47.7633 435.155 48.0073 435.049C48.2512 434.942 48.5157 434.891 48.7818 434.898C49.0479 434.905 49.3092 434.971 49.5471 435.09C49.785 435.209 49.9937 435.38 50.1585 435.589L51.1157 436.642C51.4902 437.113 51.7345 437.674 51.8243 438.269C51.9141 438.865 51.8463 439.473 51.6276 440.034L50.9908 441.698C50.9309 441.912 50.8071 442.103 50.6361 442.245C50.4652 442.387 50.255 442.474 50.0336 442.493H43.0291C42.7942 442.47 42.5726 442.373 42.3962 442.216C42.2198 442.059 42.0975 441.85 42.0469 441.619Z" fill="#EDEFEF"/>
<path d="M47.7115 442.493C46.897 441.756 46.3123 440.799 46.0274 439.737C45.7424 438.676 45.7694 437.555 46.105 436.509C46.0025 436.518 45.8992 436.507 45.8012 436.475L44.9064 436.196C44.5162 436.089 44.1015 436.112 43.7257 436.262C43.3499 436.412 43.0337 436.682 42.8255 437.029L42.1762 437.944C41.8897 438.382 41.7073 438.879 41.6431 439.398C41.5789 439.916 41.6345 440.443 41.8058 440.937L42.043 441.636C42.0975 441.863 42.2214 442.067 42.3975 442.22C42.5736 442.373 42.793 442.467 43.0252 442.489C43.0252 442.489 47.7365 442.493 47.7115 442.493Z" fill="#E9E8EA"/>
<path d="M49.3469 438.39C49.3077 438.388 49.2694 438.377 49.2354 438.357C49.2014 438.338 49.1725 438.31 49.1513 438.277C49.0985 438.199 49.0703 438.106 49.0703 438.011C49.0703 437.916 49.0985 437.823 49.1513 437.745L49.5966 437.133C49.6162 437.098 49.6446 437.069 49.679 437.049C49.7134 437.029 49.7524 437.019 49.7922 437.019C49.832 437.019 49.8711 437.029 49.9054 437.049C49.9398 437.069 49.9682 437.098 49.9878 437.133C50.0406 437.212 50.0688 437.304 50.0688 437.399C50.0688 437.494 50.0406 437.587 49.9878 437.666L49.5383 438.277C49.518 438.31 49.4899 438.338 49.4566 438.357C49.4232 438.377 49.3855 438.388 49.3469 438.39Z" fill="#E9E8EA"/>
<path d="M49.3635 440.62C49.3243 440.619 49.286 440.608 49.252 440.588C49.218 440.569 49.1891 440.541 49.1679 440.508C49.1151 440.429 49.0869 440.337 49.0869 440.242C49.0869 440.147 49.1151 440.054 49.1679 439.975L50.0252 438.802C50.0456 438.768 50.0744 438.74 50.1086 438.721C50.1429 438.702 50.1815 438.692 50.2208 438.692C50.2601 438.692 50.2988 438.702 50.333 438.721C50.3673 438.74 50.396 438.768 50.4164 438.802C50.4692 438.881 50.4974 438.973 50.4974 439.068C50.4974 439.163 50.4692 439.256 50.4164 439.334L49.5591 440.508C49.5378 440.541 49.509 440.569 49.475 440.588C49.4409 440.608 49.4027 440.619 49.3635 440.62Z" fill="#E9E8EA"/>
<path d="M43.3206 431.489C43.2818 431.488 43.2439 431.477 43.21 431.458C43.176 431.44 43.1469 431.413 43.125 431.381C43.0718 431.302 43.0435 431.208 43.0435 431.113C43.0435 431.017 43.0718 430.924 43.125 430.844L44.5109 428.955C44.5307 428.921 44.559 428.893 44.593 428.874C44.6269 428.854 44.6653 428.844 44.7044 428.844C44.7435 428.844 44.7819 428.854 44.8158 428.874C44.8498 428.893 44.8781 428.921 44.8979 428.955C44.9507 429.034 44.9789 429.126 44.9789 429.221C44.9789 429.316 44.9507 429.409 44.8979 429.487L43.5162 431.381C43.4942 431.413 43.4651 431.44 43.4312 431.458C43.3972 431.477 43.3593 431.488 43.3206 431.489Z" fill="#EDEFEF"/>
<path d="M36.445 436.176C36.4058 436.174 36.3676 436.163 36.3335 436.143C36.2995 436.124 36.2706 436.096 36.2494 436.063L34.8676 434.17C34.8145 434.09 34.7861 433.997 34.7861 433.901C34.7861 433.806 34.8145 433.712 34.8676 433.633C34.8881 433.599 34.9168 433.571 34.951 433.552C34.9853 433.533 35.0239 433.523 35.0633 433.523C35.1026 433.523 35.1412 433.533 35.1755 433.552C35.2097 433.571 35.2384 433.599 35.2589 433.633L36.6406 435.526C36.6934 435.605 36.7216 435.698 36.7216 435.793C36.7216 435.888 36.6934 435.98 36.6406 436.059C36.6198 436.093 36.5912 436.121 36.5571 436.141C36.5231 436.162 36.4846 436.174 36.445 436.176Z" fill="#E9E8EA"/>
<path d="M38.8794 430.978C38.8794 431.177 38.7587 431.344 38.613 431.344C38.4674 431.344 38.3467 431.177 38.3467 430.978C38.3467 430.778 38.4674 430.611 38.613 430.611C38.7587 430.611 38.8794 430.778 38.8794 430.978Z" fill="#E9E8EA"/>
<path d="M42.1255 435.926C42.1255 436.126 42.0048 436.288 41.8591 436.288C41.7135 436.288 41.5928 436.126 41.5928 435.926C41.5928 435.726 41.7093 435.56 41.8591 435.56C42.009 435.56 42.1255 435.722 42.1255 435.926Z" fill="#E9E8EA"/>
<path d="M38.6926 434.956C37.4898 433.566 37.2858 430.191 38.6218 428.389C36.8946 429.105 35.5753 431.111 35.2632 433.587C33.9397 434.174 32.9825 435.884 33.0033 437.899C33.0282 440.346 34.514 442.294 36.3036 442.294H40.1409C38.0267 440.845 38.0849 438.19 38.859 436.384C38.9592 436.152 38.9965 435.898 38.9673 435.648C38.938 435.397 38.8433 435.158 38.6926 434.956Z" fill="#E9E8EA"/>
<path d="M34.6807 436.142C35.2738 436.928 36.1476 437.455 37.1196 437.611C37.5774 437.695 37.952 437.162 37.9021 436.538C37.8105 435.572 37.5483 434.186 36.8283 433.208C36.2365 432.421 35.3621 431.894 34.3894 431.739C33.9358 431.656 33.557 432.184 33.607 432.809C33.6985 433.774 33.9649 435.16 34.6807 436.142Z" fill="#EDEFEF"/>
<path d="M75.1714 364.808C75.1714 365.711 76.5323 366.439 78.2054 366.439C78.3344 366.439 78.4593 366.439 78.5841 366.439C80.0824 366.339 81.2394 365.652 81.2394 364.82C81.2394 363.988 80.0824 363.301 78.5841 363.201C78.4593 363.201 78.3344 363.201 78.2054 363.201C76.5323 363.176 75.1714 363.909 75.1714 364.808Z" fill="#DFDEDD"/>
<path d="M76.7242 364.729H76.745C76.7991 364.038 77.5399 363.447 78.5845 363.189C80.0329 363.288 81.1691 363.934 81.2357 364.729H81.7309L82.4176 365.711H83.0378V366.568H76.9822V365.711H76.0874L76.7242 364.729Z" fill="#F9F9FA"/>
<path d="M81.0396 364.903C81.0396 364.903 80.4736 363.655 79.354 363.709C79.354 363.709 80.0657 364.341 79.9991 364.903C79.9325 365.465 81.0396 364.903 81.0396 364.903Z" fill="#F9F9FA"/>
<path d="M79.8328 435.198H76.4575L76.9528 433.704C76.974 433.639 77.0153 433.583 77.0707 433.543C77.1261 433.503 77.1926 433.482 77.2608 433.483H78.8423C78.9263 433.482 79.0087 433.507 79.0785 433.553C79.1484 433.6 79.2024 433.667 79.2335 433.745L79.8328 435.198Z" fill="#DFDEDD"/>
<path d="M77.7769 363.709H78.6467V363.642L78.3845 361.353C78.3795 361.318 78.3622 361.285 78.3354 361.262C78.3087 361.238 78.2745 361.225 78.2388 361.224H78.2139C78.1655 361.229 78.1201 361.249 78.0848 361.282C78.0434 361.321 78.0168 361.372 78.0099 361.428L77.7769 363.709Z" fill="#F9F9FA"/>
<path d="M78.5549 363.189H78.584L78.3676 361.353C78.3627 361.318 78.3453 361.285 78.3186 361.262C78.2919 361.238 78.2576 361.225 78.2219 361.224H78.197H78.172C78.1334 361.266 78.1126 361.321 78.1137 361.378V362.697C78.1098 362.759 78.1182 362.82 78.1383 362.878C78.1585 362.936 78.19 362.99 78.2311 363.036C78.2722 363.081 78.322 363.119 78.3776 363.145C78.4332 363.171 78.4935 363.186 78.5549 363.189Z" fill="#F9F9FA"/>
<path d="M78.8835 373.876H77.2271V446.838H78.8835V373.876Z" fill="#E2E2E2"/>
<path d="M78.8883 373.876H78.1226V446.838H78.8883V373.876Z" fill="#F0EFEF"/>
<path d="M80.6984 435.197H75.417V454.5H80.6984V435.197Z" fill="#F0EFEF"/>
<path d="M80.6986 435.197H77.5522V454.5H80.6986V435.197Z" fill="#F4F4F5"/>
<path d="M75.425 375.316H80.7023L82.5627 366.385H73.8477L75.425 375.316Z" fill="#DFDEDD"/>
<path d="M83.0372 365.711H73.3774V366.568H83.0372V365.711Z" fill="#DFDEDD"/>
<path d="M81.9427 366.818H74.4971L75.9496 374.85H80.2238L81.9427 366.818Z" fill="white"/>
<path d="M73.9937 365.711H82.4173L81.7306 364.728H74.6512L73.9937 365.711Z" fill="#DFDEDD"/>
<path d="M81.4477 367.101H79.7414L79.2461 374.596H79.7414L81.4477 367.101Z" fill="#F9F9FA"/>
<path d="M418.919 179.039L419.571 248.966L433.441 273.971L428.785 274.118L427.727 468.706L491.62 469.71L488.98 178.094L418.919 179.039Z" fill="#FDFEFE"/>
<path d="M222.948 251.92C224.511 249.033 225.396 245.726 225.396 242.214C225.396 230.925 216.249 221.779 204.961 221.779C201.269 221.779 197.816 222.763 194.83 224.473C194.497 213.823 185.763 205.288 175.026 205.288C169.252 205.288 164.063 207.756 160.438 211.694C157.917 206.12 152.309 202.235 145.79 202.235C137.249 202.235 130.264 208.9 129.745 217.315C128.348 216.69 126.805 216.331 125.175 216.331C120.891 216.331 117.179 218.752 115.31 222.298C112.051 220.156 108.152 218.905 103.962 218.905C92.5332 218.905 83.2668 228.171 83.2668 239.6C83.2668 241.955 83.666 244.223 84.391 246.332C77.0271 248.906 71.7454 255.904 71.7454 264.146C71.7454 271.956 76.4883 278.654 83.2469 281.522C81.8233 283.896 81.0051 286.677 81.0051 289.65C81.0051 290.908 81.1581 292.132 81.4308 293.302C80.1137 292.93 78.7234 292.73 77.2866 292.73C68.845 292.73 62 299.575 62 308.017C62 316.458 68.845 323.303 77.2866 323.303C78.6436 323.303 79.9607 323.124 81.218 322.791C81.4575 323.782 81.81 324.727 82.2757 325.605C73.0891 330.049 66.8294 338.816 66.8294 348.908C66.8294 363.489 79.8809 375.31 95.979 375.31C103.529 375.31 110.407 372.709 115.589 368.445C118.277 374.245 124.144 378.27 130.956 378.27C134.668 378.27 138.094 377.073 140.881 375.05C142.75 379.101 146.835 381.915 151.584 381.915C157.152 381.915 161.802 378.057 163.039 372.868C163.844 372.895 164.656 372.915 165.467 372.915C206.411 372.915 239.605 339.721 239.605 298.777C239.618 280.996 233.365 264.685 222.948 251.92Z" fill="#E5E5E5" stroke="#787878" stroke-opacity="0.62" stroke-width="3" stroke-miterlimit="10"/>
<path d="M224.651 258.046C226.048 255.458 226.846 252.498 226.846 249.352C226.846 239.241 218.651 231.045 208.54 231.045C205.234 231.045 202.14 231.923 199.466 233.46C199.167 223.921 191.344 216.277 181.732 216.277C176.563 216.277 171.913 218.486 168.667 222.018C166.405 217.022 161.383 213.55 155.542 213.55C147.892 213.55 141.633 219.524 141.174 227.054C139.923 226.488 138.539 226.169 137.083 226.169C133.244 226.169 129.918 228.338 128.249 231.517C125.328 229.602 121.843 228.484 118.084 228.484C107.847 228.484 99.5447 236.786 99.5447 247.024C99.5447 249.132 99.9039 251.161 100.556 253.05C93.9636 255.352 89.2273 261.625 89.2273 269.009C89.2273 276 93.4713 282 99.5314 284.575C98.2609 286.703 97.5225 289.191 97.5225 291.852C97.5225 292.976 97.6555 294.074 97.9083 295.125C96.7309 294.792 95.4869 294.613 94.1964 294.613C86.633 294.613 80.5063 300.746 80.5063 308.303C80.5063 315.866 86.6396 321.993 94.1964 321.993C95.4138 321.993 96.5912 321.833 97.7154 321.534C97.9349 322.419 98.2476 323.264 98.66 324.055C90.4313 328.033 84.8236 335.889 84.8236 344.929C84.8236 357.988 96.5114 368.578 110.933 368.578C117.698 368.578 123.858 366.25 128.495 362.425C130.903 367.62 136.158 371.225 142.258 371.225C145.584 371.225 148.651 370.154 151.152 368.338C152.822 371.964 156.48 374.485 160.738 374.485C165.72 374.485 169.891 371.026 171.002 366.383C171.72 366.403 172.445 366.422 173.177 366.422C209.857 366.422 239.585 336.687 239.585 300.014C239.585 284.089 233.984 269.481 224.651 258.046Z" fill="white"/>
<path d="M165.56 340.32C164.556 353.917 164.05 377.957 163.744 384.59C160.391 374.285 151.79 366.968 142.318 356.83C140.136 354.495 136.351 354.562 134.348 357.056C133.084 358.633 132.705 360.03 133.304 360.828C134.328 362.198 150.313 375.775 152.063 379.015C156.054 383.658 163.225 392.246 163.817 399.304C165.208 416.294 162.254 454.011 162.913 471.127H176.49C176.649 466.564 176.33 444.206 176.243 442.017C175.951 434.886 171.62 396.816 178.299 376.274C181.891 365.185 189.022 349.227 189.075 336.914C184.505 345.142 182.842 355.26 178.904 363.948C175.538 371.378 170.237 379.507 168.713 387.503C168.141 381.044 171.401 350.431 172.691 341.078C172.838 340.014 172.498 338.943 171.767 338.151C169.645 335.843 165.793 337.186 165.56 340.32Z" fill="#A09F9F" stroke="#585859" stroke-opacity="0.62" stroke-width="2" stroke-miterlimit="10"/>
<path d="M151.398 471.127C151.398 471.127 147.147 463.384 152.868 462.18C152.868 462.18 147.832 462.426 145.278 455.215C145.191 454.962 145.105 454.703 145.018 454.43C142.564 446.421 154.498 441.844 154.498 441.844C154.498 441.844 149.921 431.547 161.037 429.91L164.795 431.381C164.795 431.381 165.287 418.469 173.789 418.795C182.29 419.121 183.594 426.152 183.594 426.152C183.594 426.152 192.914 425.174 191.769 433.183C191.769 433.183 199.453 437.108 200.271 441.685C200.271 441.685 209.378 443.927 206.87 453.619C204.362 463.304 199.619 460.903 199.619 460.903L203.218 463.916C203.218 463.916 205.832 472.577 197.656 472.418H152.701L151.398 471.127Z" fill="#E5E5E5"/>
<path d="M156.939 471.127C156.939 471.127 152.688 463.384 158.409 462.18C158.409 462.18 153.374 462.426 150.819 455.215C150.733 454.962 150.646 454.703 150.56 454.43C148.105 446.421 160.039 441.844 160.039 441.844C160.039 441.844 155.462 431.547 166.578 429.91L170.336 431.381C170.336 431.381 170.829 418.469 179.33 418.795C187.832 419.121 189.135 426.152 189.135 426.152C189.135 426.152 198.455 425.174 197.311 433.183C197.311 433.183 204.994 437.108 205.812 441.685C205.812 441.685 214.919 443.927 212.411 453.619C209.903 463.304 205.16 460.903 205.16 460.903L208.759 463.916C208.759 463.916 211.373 472.577 203.198 472.418H158.243L156.939 471.127Z" fill="white"/>
<path d="M209.431 450.046C209.431 445.204 205.866 440.833 201.003 439.549C200.005 435.957 196.992 433.03 193.24 431.953C193.293 431.6 193.326 431.234 193.326 430.868C193.326 426.99 190.173 423.837 186.295 423.837C185.79 423.837 185.297 423.89 184.812 423.997C183.255 419.613 179.497 416.174 174.794 416.174C168.96 416.174 163.997 421.529 163.571 428.061C162.74 427.808 161.869 427.682 160.984 427.682C156.048 427.682 152.037 431.693 152.037 436.629C152.037 437.786 152.256 438.917 152.682 439.968C147.56 441.811 143.981 446.627 143.981 451.969C143.981 455.694 145.923 459.406 149.116 461.92C148.518 462.971 148.198 464.162 148.198 465.386C148.198 467.082 148.804 468.646 149.808 469.863H145.258C144.553 469.863 143.981 470.435 143.981 471.14C143.981 471.845 144.553 472.417 145.258 472.417H208.147C208.852 472.417 209.425 471.845 209.425 471.14C209.425 470.435 208.852 469.863 208.147 469.863H203.597C204.602 468.646 205.207 467.089 205.207 465.386C205.207 463.211 204.216 461.268 202.659 459.978C206.604 458.268 209.431 454.41 209.431 450.046ZM198.182 458.355C197.477 458.355 196.905 458.927 196.905 459.632C196.905 460.337 197.477 460.909 198.182 460.909C200.65 460.909 202.659 462.918 202.659 465.386C202.659 467.854 200.65 469.863 198.182 469.863H186.262L193.047 452.893L200.285 449.275C200.916 448.962 201.169 448.19 200.857 447.558C200.544 446.926 199.772 446.674 199.14 446.986L193.32 449.893V444.292C193.32 443.587 192.748 443.015 192.043 443.015C191.337 443.015 190.765 443.587 190.765 444.292V451.716L189.355 455.235L185.517 447.552C185.204 446.92 184.433 446.667 183.801 446.98C183.169 447.292 182.916 448.064 183.228 448.696L188.085 458.408L183.508 469.856H177.98V465.379C177.98 464.674 177.408 464.102 176.703 464.102C175.998 464.102 175.426 464.674 175.426 465.379V469.856H170.031L166.478 455.641V448.13C166.478 447.425 165.906 446.853 165.201 446.853C164.496 446.853 163.924 447.425 163.924 448.13V453.732L158.103 450.825C157.471 450.512 156.706 450.765 156.387 451.397C156.075 452.029 156.327 452.794 156.959 453.113L164.104 456.685L167.396 469.863H155.23C152.762 469.863 150.753 467.854 150.753 465.386C150.753 462.905 152.768 460.909 155.23 460.909C155.935 460.909 156.507 460.337 156.507 459.632C156.507 458.927 155.935 458.355 155.23 458.355C153.587 458.355 152.01 458.927 150.759 459.958C148.132 457.922 146.535 454.936 146.535 451.962C146.535 446.374 151.425 441.738 157.146 441.738C158.316 441.738 159.467 441.931 160.551 442.317C161.217 442.549 161.948 442.203 162.181 441.538C162.414 440.873 162.068 440.141 161.403 439.908C160.039 439.423 158.602 439.183 157.139 439.183C156.487 439.183 155.828 439.237 155.183 439.33C154.791 438.492 154.584 437.567 154.584 436.622C154.584 433.097 157.452 430.23 160.977 430.23C162.115 430.23 163.232 430.529 164.203 431.101C165.088 431.62 166.206 430.928 166.126 429.897C166.099 429.591 166.093 429.272 166.093 428.946C166.093 423.405 170.071 418.721 174.787 418.721C178.386 418.721 181.652 421.682 182.723 425.919C182.916 426.691 183.754 427.096 184.479 426.777C185.051 426.524 185.657 426.398 186.288 426.398C188.756 426.398 190.765 428.407 190.765 430.875C190.765 431.094 190.745 431.314 190.719 431.533C190.519 431.52 190.326 431.513 190.127 431.513C184.133 431.513 179.264 436.389 179.264 442.376C179.264 443.082 179.836 443.654 180.541 443.654C181.246 443.654 181.818 443.082 181.818 442.376C181.818 437.793 185.543 434.068 190.127 434.068C194.211 434.068 197.963 436.995 198.681 440.853C198.774 441.372 199.187 441.784 199.706 441.877C203.79 442.636 206.877 446.148 206.877 450.046C206.87 454.55 202.892 458.355 198.182 458.355Z" fill="#59595A" fill-opacity="0.62"/>
<path d="M176.702 462.18C177.408 462.18 177.98 461.608 177.98 460.902C177.98 460.197 177.408 459.625 176.702 459.625C175.997 459.625 175.425 460.197 175.425 460.902C175.425 461.608 175.997 462.18 176.702 462.18Z" fill="#59595A"/>
<path d="M176.703 456.426C177.408 456.426 177.98 455.854 177.98 455.148V449.394C177.98 449.055 177.847 448.729 177.607 448.49L173.876 444.758L177.787 438.571C177.913 438.365 177.987 438.132 177.987 437.886V430.216C177.987 429.511 177.415 428.939 176.709 428.939C176.004 428.939 175.432 429.511 175.432 430.216V437.514L172.026 442.902L166.106 436.981C165.607 436.483 164.795 436.483 164.297 436.981C163.798 437.48 163.798 438.292 164.297 438.791L175.426 449.92V455.142C175.426 455.854 175.998 456.426 176.703 456.426Z" fill="#59595A" fill-opacity="0.62"/>
<path d="M363.613 214.016L362.769 378.629L417.881 376.328V179.95L411.296 182.465L406.925 187.913L412.294 190.707L363.613 214.016Z" fill="#E5E5E5"/>
<path opacity="0.8" d="M491.235 35.0737L414.709 178.666L359.976 212.985V222.437L418.794 197.884H428.406L492 84.2196" fill="#E0E0DF"/>
<path opacity="0.8" d="M418.919 179.039V469.71H491.62L491.374 468.666V179.039H418.919Z" stroke="#585859" stroke-width="3" stroke-miterlimit="10"/>
<path opacity="0.8" d="M418.347 376.867L362.769 378.629V212.679" stroke="#585859" stroke-width="3" stroke-miterlimit="10"/>
<path opacity="0.8" d="M492 61.0371L432.038 171.017L426.104 179.039H411.609" stroke="#585859" stroke-width="3" stroke-miterlimit="10"/>
<path opacity="0.8" d="M408.975 183.716L490.942 38.1405L490.63 14L490.051 14.459L435.297 57.7177L348.394 212.679L356.004 216.67L409.886 191.06C410.159 190.933 410.159 190.547 409.886 190.414L407.811 189.41C406.56 188.804 406.194 187.195 407.059 186.11L410.558 181.713L418.913 178.374" stroke="#585859" stroke-width="3" stroke-miterlimit="10"/>
<path opacity="0.8" d="M378.475 222.823V264.272L397.932 257.787L397.866 214.801L378.475 222.823Z" stroke="#585859" stroke-width="3" stroke-miterlimit="10"/>
<path opacity="0.8" d="M397.899 278.435L397.866 257.727L378.475 265.749V307.192L397.932 300.706L397.919 291.247" stroke="#585859" stroke-width="3" stroke-miterlimit="10" stroke-linecap="round"/>
<path opacity="0.8" d="M397.932 219.484L386.344 225.278V257.727" stroke="#585859" stroke-width="3" stroke-miterlimit="10"/>
<path opacity="0.8" d="M397.872 261.478L385.053 267.891V300.34" stroke="#585859" stroke-width="3" stroke-miterlimit="10"/>
<path opacity="0.8" d="M429.316 357.089V347.231" stroke="#585859" stroke-width="3" stroke-miterlimit="10"/>
<path opacity="0.8" d="M419.572 346.413V336.555" stroke="#585859" stroke-width="3" stroke-miterlimit="10"/>
<path opacity="0.8" d="M488.98 429.598H425.811L369.661 446.8" stroke="#585859" stroke-width="3" stroke-miterlimit="10"/>
<path opacity="0.8" d="M458.566 429.751H468.425" stroke="#585859" stroke-width="3" stroke-miterlimit="10"/>
<path opacity="0.8" d="M472.104 429.751H484.802" stroke="#585859" stroke-width="3" stroke-miterlimit="10"/>
<path opacity="0.8" d="M425.812 429.598H457.915" stroke="#585859" stroke-width="3" stroke-miterlimit="10"/>
<path opacity="0.8" d="M447.185 450.492H470.913" stroke="#585859" stroke-width="3" stroke-miterlimit="10"/>
<path opacity="0.8" d="M455.24 450.379V440.521" stroke="#585859" stroke-width="3" stroke-miterlimit="10"/>
<path opacity="0.8" d="M445.867 460.943V451.084" stroke="#585859" stroke-width="3" stroke-miterlimit="10"/>
<g opacity="0.8">
<path opacity="0.8" d="M447.816 440.168V430.303" stroke="#585859" stroke-width="3" stroke-miterlimit="10" stroke-linecap="round"/>
<g opacity="0.8">
<path opacity="0.8" d="M465.75 440.274H488.315" stroke="#585859" stroke-width="3" stroke-miterlimit="10" stroke-linecap="round"/>
<path opacity="0.8" d="M426.456 440.274H460.236" stroke="#585859" stroke-width="3" stroke-miterlimit="10" stroke-linecap="round"/>
<path opacity="0.8" d="M465.604 440.274V430.582" stroke="#585859" stroke-width="3" stroke-miterlimit="10" stroke-linecap="round"/>
<path opacity="0.8" d="M478.449 450.379V440.52" stroke="#585859" stroke-width="3" stroke-miterlimit="10" stroke-linecap="round"/>
<path opacity="0.8" d="M456.617 450.525H466.476" stroke="#585859" stroke-width="3" stroke-miterlimit="10" stroke-linecap="round"/>
<path opacity="0.8" d="M470.154 450.525H482.853" stroke="#585859" stroke-width="3" stroke-miterlimit="10" stroke-linecap="round"/>
<path opacity="0.8" d="M463.801 461.055H488.98" stroke="#585859" stroke-width="3" stroke-miterlimit="10" stroke-linecap="round"/>
<path opacity="0.8" d="M425.811 461.055H458.287" stroke="#585859" stroke-width="3" stroke-miterlimit="10" stroke-linecap="round"/>
<path opacity="0.8" d="M425.811 450.379H455.965" stroke="#585859" stroke-width="3" stroke-miterlimit="10" stroke-linecap="round"/>
<path opacity="0.8" d="M463.655 461.055V451.363" stroke="#585859" stroke-width="3" stroke-miterlimit="10" stroke-linecap="round"/>
<path opacity="0.8" d="M476.5 469.71V461.295" stroke="#585859" stroke-width="3" stroke-miterlimit="10" stroke-linecap="round"/>
<path opacity="0.8" d="M434.259 469.71V461.295" stroke="#585859" stroke-width="3" stroke-miterlimit="10" stroke-linecap="round"/>
<path opacity="0.8" d="M453.291 469.71V461.295" stroke="#585859" stroke-width="3" stroke-miterlimit="10" stroke-linecap="round"/>
</g>
</g>
<g opacity="0.8">
<path d="M480.386 171.016H489.672L491.235 62.4403L432.038 171.016H467.215" fill="#F4F4F5"/>
<path d="M480.386 171.016H489.672L491.235 62.4403L432.038 171.016H467.215" stroke="#585859" stroke-width="3" stroke-miterlimit="10" stroke-linecap="round"/>
</g>
<path opacity="0.8" d="M418.088 346.413L363.607 359.025" stroke="#585859" stroke-width="3" stroke-miterlimit="10"/>
<path opacity="0.8" d="M418.088 357.236L363.162 365.91" stroke="#585859" stroke-width="3" stroke-miterlimit="10"/>
<path opacity="0.8" d="M418.088 368.012L363.162 372.217" stroke="#585859" stroke-width="3" stroke-miterlimit="10"/>
<path opacity="0.8" d="M408.409 339.535V348.655" stroke="#585859" stroke-width="3" stroke-miterlimit="10"/>
<path opacity="0.8" d="M390.069 345.149V350.504" stroke="#585859" stroke-width="3" stroke-miterlimit="10" stroke-linecap="round"/>
<path opacity="0.8" d="M378.475 355.586V351.508" stroke="#585859" stroke-width="3" stroke-miterlimit="10" stroke-linecap="round"/>
<path opacity="0.8" d="M368.078 351.888V357.089" stroke="#585859" stroke-width="3" stroke-miterlimit="10" stroke-linecap="round"/>
<path opacity="0.8" d="M398.637 350.916V358.074" stroke="#585859" stroke-width="3" stroke-miterlimit="10" stroke-linecap="round"/>
<path opacity="0.8" d="M383.178 354.495V362.924" stroke="#585859" stroke-width="3" stroke-miterlimit="10"/>
<path opacity="0.8" d="M370.958 358.074V362.724" stroke="#585859" stroke-width="3" stroke-miterlimit="10" stroke-linecap="round"/>
<path opacity="0.8" d="M413.904 358.706V368.012" stroke="#585859" stroke-width="3" stroke-miterlimit="10"/>
<path opacity="0.8" d="M393.183 361.573V368.012" stroke="#585859" stroke-width="3" stroke-miterlimit="10" stroke-linecap="round"/>
<path opacity="0.8" d="M378.475 371.046V365.91" stroke="#585859" stroke-width="3" stroke-miterlimit="10" stroke-linecap="round"/>
<path opacity="0.8" d="M366.261 365.425V371.977" stroke="#585859" stroke-width="3" stroke-miterlimit="10"/>
<path opacity="0.8" d="M406.693 368.884V376.574" stroke="#585859" stroke-width="3" stroke-miterlimit="10"/>
<path opacity="0.8" d="M390.621 376.427V372.216" stroke="#585859" stroke-width="3" stroke-miterlimit="10" stroke-linecap="round"/>
<path opacity="0.8" d="M380.318 371.046V375.742" stroke="#585859" stroke-width="3" stroke-miterlimit="10" stroke-linecap="round"/>
<path opacity="0.8" d="M370.958 371.977V375.742" stroke="#585859" stroke-width="3" stroke-miterlimit="10" stroke-linecap="round"/>
<path opacity="0.8" d="M432.131 213.031H470.447" stroke="#585859" stroke-width="3" stroke-miterlimit="10"/>
<path opacity="0.8" d="M423.829 224.998H462.145" stroke="#585859" stroke-width="3" stroke-miterlimit="10"/>
<path opacity="0.8" d="M419.572 201.63H457.888" stroke="#585859" stroke-width="3" stroke-miterlimit="10"/>
<path opacity="0.8" d="M443.52 224.992V213.803" stroke="#585859" stroke-width="3" stroke-miterlimit="10"/>
<path opacity="0.8" d="M426.104 212.825V201.63" stroke="#585859" stroke-width="3" stroke-miterlimit="10"/>
<path opacity="0.8" d="M460.868 212.825V201.63" stroke="#585859" stroke-width="3" stroke-miterlimit="10"/>
<path opacity="0.33" d="M200.69 237.245C195.867 237.245 191.743 240.232 190.06 244.456C186.967 242.281 183.122 240.97 178.944 240.97C168.767 240.97 160.511 248.62 160.511 258.059C160.511 261.658 161.715 264.991 163.764 267.745C159.168 270.685 156.114 275.827 156.114 281.688C156.114 290.834 163.531 298.245 172.671 298.245C181.818 298.245 189.229 290.828 189.229 281.688C189.229 278.668 188.404 275.841 186.993 273.406C192.641 270.851 196.672 265.709 197.278 259.636C198.355 259.969 199.499 260.155 200.683 260.155C207.01 260.155 212.138 255.026 212.138 248.7C212.145 242.374 207.016 237.245 200.69 237.245Z" fill="#E5E5E5"/>
<path opacity="0.8" d="M432.889 172.087L427.94 178.094H490.29L490.437 171.715L479.54 172.001L479.401 170.451L468.332 170.524L468.252 171.855L432.889 172.087Z" fill="#F6F6F6"/>
<path d="M350.948 210.184L390.103 140.137L399.702 121.186L417.882 91.4373L432.53 64.4562L436.122 58.4028L490.942 14.725L491.235 35.0738L409.58 180.489L407.584 183.682L403.833 188.631L399.562 187.514L399.083 185.518L350.948 210.184Z" fill="white"/>
<path d="M350.03 212.679L355.944 215.759L408.283 190.667L403.833 188.631L399.562 187.514L350.03 212.679Z" fill="#E0E0DF"/>
<path opacity="0.84" d="M489.398 127.411L473.214 153.8L471.338 156.701L477.465 165.349L489.724 146.031L489.398 127.411Z" fill="white"/>
<path opacity="0.8" d="M476.7 355.201H442.255V390.157H476.7V355.201Z" stroke="#585859" stroke-width="3" stroke-miterlimit="10"/>
<path opacity="0.8" d="M475.496 370.72H452.732" stroke="#585859" stroke-width="3" stroke-miterlimit="10"/>
<path opacity="0.42" d="M442.255 367.56V385.069L476.7 355.201H459.478L442.255 367.56Z" fill="white"/>
<path opacity="0.8" d="M476.38 172.001C476.858 172.001 477.245 171.614 477.245 171.136C477.245 170.659 476.858 170.272 476.38 170.272C475.903 170.272 475.516 170.659 475.516 171.136C475.516 171.614 475.903 172.001 476.38 172.001Z" fill="#585859"/>
<path opacity="0.8" d="M449.725 344.058H442.986V268.177H475.961V344.058H457.887" stroke="#585859" stroke-width="3" stroke-miterlimit="10" stroke-linecap="round"/>
<path opacity="0.8" d="M444.21 272.787H471.564V340.08" stroke="#585859" stroke-width="3" stroke-miterlimit="10"/>
<path opacity="0.8" d="M457.887 272.787V336.588" stroke="#585859" stroke-width="3" stroke-miterlimit="10"/>
<path opacity="0.8" d="M446.399 292.025H467.832" stroke="#585859" stroke-width="3" stroke-miterlimit="10"/>
<path opacity="0.8" d="M446.865 315.7H468.298" stroke="#585859" stroke-width="3" stroke-miterlimit="10"/>
<path opacity="0.36" d="M462.144 272.787L442.986 306.115L444.21 320.297L471.564 277.683V272.787H462.144Z" fill="white"/>
<path opacity="0.36" d="M461.779 293.389L442.621 326.716L443.851 340.898L471.198 298.285V293.389H461.779Z" fill="white"/>
<path d="M454.175 344.956C454.634 344.956 455.007 344.584 455.007 344.125C455.007 343.665 454.634 343.293 454.175 343.293C453.716 343.293 453.344 343.665 453.344 344.125C453.344 344.584 453.716 344.956 454.175 344.956Z" fill="#585859"/>
<path opacity="0.8" d="M379.565 223.475L396.808 216.664V218.925L385.053 224.992V257.727V260.834L379.565 262.75V223.475Z" fill="#D3D3D3"/>
<path opacity="0.8" d="M379.565 266.228L396.808 259.417V261.678L385.053 267.745V300.48V303.587L379.565 305.502V266.228Z" fill="#D3D3D3"/>
<path d="M397.48 283.018C398.002 283.018 398.425 282.595 398.425 282.073C398.425 281.552 398.002 281.129 397.48 281.129C396.959 281.129 396.536 281.552 396.536 282.073C396.536 282.595 396.959 283.018 397.48 283.018Z" fill="#585859"/>
<path opacity="0.8" d="M348.394 212.679L399.05 186.729" stroke="#585859" stroke-width="3" stroke-miterlimit="10" stroke-linecap="round"/>
<path d="M229.56 273.319C231.21 274.59 233.239 275.268 235.201 275.707C235.048 275.674 232.082 278.288 231.935 278.574C234.091 279.453 234.45 281.289 236.565 282.406C235.361 282.918 234.51 284.249 233.153 284.355C234.044 285.153 234.836 286.012 235.394 287.076C235.341 286.989 233.179 290.369 232.886 291.406C234.157 290.668 235.561 290.249 236.904 289.63C237.929 291.147 237.543 293.262 237.357 294.985C238.175 293.648 238.594 291.859 238.441 290.176C239.432 291.007 240.696 291.566 241.774 290.994C241.514 290.515 239.485 288.094 239.598 287.681C239.871 286.577 242.173 287.275 242.931 286.597C242.273 286.491 241.521 285.879 240.856 285.739C241.488 284.475 243.39 285.4 244.601 284.262C244.222 284.049 243.936 283.437 243.231 283.224C243.69 282.067 244.887 281.907 245.532 280.756C244.581 280.49 243.636 280.391 242.658 280.091C242.964 279.087 243.53 278.322 244.242 277.623C243.117 277.67 241.734 277.843 240.603 277.151C240.729 276.107 241.188 275.062 241.594 274.191C240.61 274.277 239.685 274.936 238.647 274.71C239.066 272.887 239.665 271.078 240.084 269.262C239.984 269.694 236.785 270.18 236.206 269.508C236.904 268.117 237.802 266.8 238.641 265.51C238.508 265.297 238.255 264.924 238.135 264.705C237.091 264.758 235.86 264.845 234.895 264.864C235.754 264.845 235.567 261.212 235.774 260.587C233.126 263.195 232.075 264.485 228.104 261.206C230.212 264.439 228.982 265.397 227.824 267.758C229.135 267.712 230.931 268.623 232.028 269.607C231.643 269.854 229.933 273.619 229.56 273.319Z" fill="#C23C2B"/>
<path d="M178.898 306.853L178.053 471.473L233.159 469.172V272.794L226.573 275.309L222.203 280.757L227.571 283.551L178.898 306.853Z" fill="#E5E5E5"/>
<path d="M245.838 263.86L330.966 110.442L416.119 264.233L294.106 264.845H284.228L245.838 263.86Z" fill="#F4F4F5"/>
<path d="M234.183 271.883L427.727 270.938V468.706L233.631 469.71L234.183 271.883Z" fill="#FDFEFE"/>
<path opacity="0.8" d="M177.973 318.474L236.791 293.914H246.397L330.041 144.428L406.68 272.974L426.736 273.014L426.729 279.879L433.441 273.971L330.041 88.4238L232.707 274.703L177.973 309.021V318.474Z" fill="#E0E0DF"/>
<path opacity="0.8" d="M234.204 271.883V469.418H306.898L427.727 468.706V271.883H234.204Z" stroke="#585859" stroke-width="3" stroke-miterlimit="10"/>
<path opacity="0.8" d="M233.631 469.71L178.053 471.473V305.522" stroke="#585859" stroke-width="3" stroke-miterlimit="10"/>
<path opacity="0.8" d="M224.252 276.559L330.965 87.0466L435.078 274.889L427.727 274.929V271.882H419.472L330.965 110.442L247.322 263.86L241.388 271.882H226.886L330.433 87.9846C330.546 87.785 330.3 87.5721 330.114 87.7118L250.574 150.548L163.678 305.522L171.288 309.514L225.17 283.903C225.443 283.776 225.443 283.391 225.17 283.258L223.094 282.253C221.844 281.648 221.478 280.038 222.343 278.954L225.842 274.557L234.197 271.217" stroke="#585859" stroke-width="3" stroke-miterlimit="10"/>
<path opacity="0.8" d="M306.066 353.67C306.066 339.089 317.887 327.268 332.469 327.268C347.05 327.268 358.871 339.089 358.871 353.67V469.417H306.06V363.376" stroke="#585859" stroke-width="3" stroke-miterlimit="10" stroke-linecap="round"/>
<path opacity="0.8" d="M367.565 411.032V469.271H297.372V346.147C297.372 330.102 310.377 317.104 326.415 317.104H338.515C354.56 317.104 367.559 330.109 367.559 346.147V405.165" stroke="#585859" stroke-width="3" stroke-miterlimit="10" stroke-linecap="round"/>
<path opacity="0.8" d="M193.759 315.667V357.116L213.21 350.63L213.143 307.644L193.759 315.667Z" stroke="#585859" stroke-width="3" stroke-miterlimit="10"/>
<path opacity="0.8" d="M213.176 371.278L213.143 350.57L193.759 358.593V400.036L213.21 393.55L213.196 384.09" stroke="#585859" stroke-width="3" stroke-miterlimit="10" stroke-linecap="round"/>
<path opacity="0.8" d="M194.843 359.072L212.085 352.26V354.522L200.331 360.589V393.324V396.43L194.843 398.346V359.072Z" fill="#D3D3D3"/>
<path opacity="0.8" d="M213.21 312.328L201.628 318.122V350.571" stroke="#585859" stroke-width="3" stroke-miterlimit="10"/>
<path opacity="0.8" d="M213.15 354.322L200.331 360.735V393.184" stroke="#585859" stroke-width="3" stroke-miterlimit="10"/>
<path opacity="0.8" d="M297.372 429.152H234.203L178.053 446.355" stroke="#585859" stroke-width="3" stroke-miterlimit="10"/>
<path opacity="0.8" d="M367.565 431.647H427.727" stroke="#585859" stroke-width="3" stroke-miterlimit="10"/>
<path opacity="0.8" d="M350.489 294.008C350.489 300.56 345.088 304.791 338.622 305.875C327.034 307.817 321.652 300.56 321.652 294.008C321.652 287.455 328.63 281.315 338.622 282.14C345.154 282.686 350.489 287.455 350.489 294.008Z" fill="#ECECEC" stroke="#585859" stroke-width="3" stroke-miterlimit="10"/>
<path opacity="0.8" d="M266.959 429.305H276.817" stroke="#585859" stroke-width="3" stroke-miterlimit="10"/>
<path opacity="0.8" d="M333.52 305.875C340.074 305.875 345.387 300.562 345.387 294.008C345.387 287.453 340.074 282.14 333.52 282.14C326.966 282.14 321.652 287.453 321.652 294.008C321.652 300.562 326.966 305.875 333.52 305.875Z" fill="#AFAEAF" stroke="#585859" stroke-width="3" stroke-miterlimit="10"/>
<path opacity="0.8" d="M280.496 429.305H293.195" stroke="#585859" stroke-width="3" stroke-miterlimit="10"/>
<path opacity="0.8" d="M234.204 429.152H266.307" stroke="#585859" stroke-width="3" stroke-miterlimit="10"/>
<path opacity="0.8" d="M255.577 450.046H279.305" stroke="#585859" stroke-width="3" stroke-miterlimit="10"/>
<path opacity="0.8" d="M244.601 449.933V440.075" stroke="#585859" stroke-width="3" stroke-miterlimit="10"/>
<path opacity="0.8" d="M234.855 439.257V429.398" stroke="#585859" stroke-width="3" stroke-miterlimit="10"/>
<path opacity="0.8" d="M263.633 449.933V440.075" stroke="#585859" stroke-width="3" stroke-miterlimit="10"/>
<path opacity="0.8" d="M373.192 450.865V441.539" stroke="#585859" stroke-width="3" stroke-miterlimit="10"/>
<path opacity="0.8" d="M395.471 450.865V441.539" stroke="#585859" stroke-width="3" stroke-miterlimit="10" stroke-linecap="round"/>
<path opacity="0.8" d="M254.26 460.497V450.638" stroke="#585859" stroke-width="3" stroke-miterlimit="10"/>
<g opacity="0.8">
<path opacity="0.8" d="M256.209 439.722V429.864" stroke="#585859" stroke-width="3" stroke-miterlimit="10" stroke-linecap="round"/>
<g opacity="0.8">
<path opacity="0.8" d="M274.143 439.836H296.707" stroke="#585859" stroke-width="3" stroke-miterlimit="10" stroke-linecap="round"/>
<path opacity="0.8" d="M234.855 439.836H268.628" stroke="#585859" stroke-width="3" stroke-miterlimit="10" stroke-linecap="round"/>
<path opacity="0.8" d="M273.997 439.835V430.137" stroke="#585859" stroke-width="3" stroke-miterlimit="10" stroke-linecap="round"/>
<path opacity="0.8" d="M286.849 449.933V440.075" stroke="#585859" stroke-width="3" stroke-miterlimit="10" stroke-linecap="round"/>
<path opacity="0.8" d="M265.01 450.08H274.868" stroke="#585859" stroke-width="3" stroke-miterlimit="10" stroke-linecap="round"/>
<path opacity="0.8" d="M278.547 450.08H291.246" stroke="#585859" stroke-width="3" stroke-miterlimit="10" stroke-linecap="round"/>
<path opacity="0.8" d="M272.194 460.61H297.372" stroke="#585859" stroke-width="3" stroke-miterlimit="10" stroke-linecap="round"/>
<path opacity="0.8" d="M234.204 460.61H266.679" stroke="#585859" stroke-width="3" stroke-miterlimit="10" stroke-linecap="round"/>
<path opacity="0.8" d="M234.204 449.934H264.358" stroke="#585859" stroke-width="3" stroke-miterlimit="10" stroke-linecap="round"/>
<path opacity="0.8" d="M272.047 460.61V450.918" stroke="#585859" stroke-width="3" stroke-miterlimit="10" stroke-linecap="round"/>
<path opacity="0.8" d="M284.893 469.264V460.849" stroke="#585859" stroke-width="3" stroke-miterlimit="10" stroke-linecap="round"/>
<path opacity="0.8" d="M242.652 469.264V460.849" stroke="#585859" stroke-width="3" stroke-miterlimit="10" stroke-linecap="round"/>
<path opacity="0.8" d="M261.684 469.264V460.849" stroke="#585859" stroke-width="3" stroke-miterlimit="10" stroke-linecap="round"/>
</g>
</g>
<path opacity="0.8" d="M386.557 441.073V431.647" stroke="#585859" stroke-width="3" stroke-miterlimit="10"/>
<path opacity="0.8" d="M404.498 441.186H427.062" stroke="#585859" stroke-width="3" stroke-miterlimit="10"/>
<path opacity="0.8" d="M367.565 441.186H398.983" stroke="#585859" stroke-width="3" stroke-miterlimit="10" stroke-linecap="round"/>
<path opacity="0.8" d="M404.352 441.186V432.232" stroke="#585859" stroke-width="3" stroke-miterlimit="10" stroke-linecap="round"/>
<path opacity="0.8" d="M417.197 451.29V441.425" stroke="#585859" stroke-width="3" stroke-miterlimit="10"/>
<path opacity="0.8" d="M395.364 451.437H405.223" stroke="#585859" stroke-width="3" stroke-miterlimit="10" stroke-linecap="round"/>
<path opacity="0.8" d="M408.902 451.437H421.601" stroke="#585859" stroke-width="3" stroke-miterlimit="10" stroke-linecap="round"/>
<path opacity="0.8" d="M402.549 461.967H427.727" stroke="#585859" stroke-width="3" stroke-miterlimit="10" stroke-linecap="round"/>
<path opacity="0.8" d="M367.565 461.967H397.034" stroke="#585859" stroke-width="3" stroke-miterlimit="10" stroke-linecap="round"/>
<path opacity="0.8" d="M367.565 451.29H394.712" stroke="#585859" stroke-width="3" stroke-miterlimit="10"/>
<path opacity="0.8" d="M402.402 461.967V452.275" stroke="#585859" stroke-width="3" stroke-miterlimit="10"/>
<path opacity="0.8" d="M415.248 468.413V462.207" stroke="#585859" stroke-width="3" stroke-miterlimit="10"/>
<path opacity="0.8" d="M373.007 468.413V462.207" stroke="#585859" stroke-width="3" stroke-miterlimit="10"/>
<path opacity="0.8" d="M392.038 468.919V462.207" stroke="#585859" stroke-width="3" stroke-miterlimit="10"/>
<path opacity="0.8" d="M265.009 416.939H258.271V341.065H291.245V416.939H273.171" stroke="#585859" stroke-width="3" stroke-miterlimit="10" stroke-linecap="round"/>
<path opacity="0.8" d="M259.495 345.675H286.848V412.967" stroke="#585859" stroke-width="3" stroke-miterlimit="10"/>
<path opacity="0.8" d="M273.172 345.675V409.475" stroke="#585859" stroke-width="3" stroke-miterlimit="10"/>
<path opacity="0.8" d="M261.683 364.912H283.11" stroke="#585859" stroke-width="3" stroke-miterlimit="10"/>
<path opacity="0.8" d="M262.149 388.588H283.575" stroke="#585859" stroke-width="3" stroke-miterlimit="10"/>
<path opacity="0.8" d="M295.662 263.86H416.877L330.965 110.442L247.321 263.86H282.491" stroke="#585859" stroke-width="3" stroke-miterlimit="10" stroke-linecap="round"/>
<path opacity="0.8" d="M258.271 178.627L221.671 175.62L224.252 220.741L260.273 184.314" stroke="#585859" stroke-width="3" stroke-miterlimit="10"/>
<path opacity="0.8" d="M219.09 175.62L204.415 181.806L206.244 231.272L224.252 220.741" stroke="#585859" stroke-width="3" stroke-miterlimit="10" stroke-linecap="round"/>
<path opacity="0.8" d="M198.103 187.154L206.125 140.523L228.183 183.975L260.273 184.314L239.971 143.197L206.125 138.188" stroke="#585859" stroke-width="3" stroke-miterlimit="10" stroke-linecap="round"/>
<path opacity="0.8" d="M233.365 439.257L178.891 451.869" stroke="#585859" stroke-width="3" stroke-miterlimit="10"/>
<path opacity="0.8" d="M233.365 450.08L178.445 458.754" stroke="#585859" stroke-width="3" stroke-miterlimit="10"/>
<path opacity="0.8" d="M233.365 460.849L178.445 465.06" stroke="#585859" stroke-width="3" stroke-miterlimit="10"/>
<path opacity="0.8" d="M223.693 432.372V441.498" stroke="#585859" stroke-width="3" stroke-miterlimit="10"/>
<path opacity="0.8" d="M205.353 437.993V443.348" stroke="#585859" stroke-width="3" stroke-miterlimit="10" stroke-linecap="round"/>
<path opacity="0.8" d="M193.759 448.43V444.352" stroke="#585859" stroke-width="3" stroke-miterlimit="10" stroke-linecap="round"/>
<path opacity="0.8" d="M183.361 444.731V449.933" stroke="#585859" stroke-width="3" stroke-miterlimit="10" stroke-linecap="round"/>
<path opacity="0.8" d="M213.921 443.76V450.918" stroke="#585859" stroke-width="3" stroke-miterlimit="10" stroke-linecap="round"/>
<path opacity="0.8" d="M198.462 447.339V455.767" stroke="#585859" stroke-width="3" stroke-miterlimit="10"/>
<path opacity="0.8" d="M186.242 450.918V455.568" stroke="#585859" stroke-width="3" stroke-miterlimit="10" stroke-linecap="round"/>
<path opacity="0.8" d="M229.188 451.55V460.849" stroke="#585859" stroke-width="3" stroke-miterlimit="10"/>
<path opacity="0.8" d="M208.466 454.417V460.85" stroke="#585859" stroke-width="3" stroke-miterlimit="10" stroke-linecap="round"/>
<path opacity="0.8" d="M193.759 463.89V458.754" stroke="#585859" stroke-width="3" stroke-miterlimit="10" stroke-linecap="round"/>
<path opacity="0.8" d="M181.539 458.269V464.821" stroke="#585859" stroke-width="3" stroke-miterlimit="10"/>
<path opacity="0.8" d="M221.977 461.727V469.417" stroke="#585859" stroke-width="3" stroke-miterlimit="10"/>
<path opacity="0.8" d="M205.905 469.264V465.06" stroke="#585859" stroke-width="3" stroke-miterlimit="10" stroke-linecap="round"/>
<path opacity="0.8" d="M195.595 463.889V468.579" stroke="#585859" stroke-width="3" stroke-miterlimit="10" stroke-linecap="round"/>
<path opacity="0.8" d="M186.242 464.821V468.579" stroke="#585859" stroke-width="3" stroke-miterlimit="10" stroke-linecap="round"/>
<path opacity="0.8" d="M409.786 335.044H384.275V370.001H409.786V335.044Z" stroke="#585859" stroke-width="3" stroke-miterlimit="10"/>
<path opacity="0.8" d="M408.901 350.57H392.038" stroke="#585859" stroke-width="3" stroke-miterlimit="10"/>
<path opacity="0.8" d="M313.637 405.803C315.698 405.803 317.368 404.132 317.368 402.071C317.368 400.01 315.698 398.339 313.637 398.339C311.576 398.339 309.905 400.01 309.905 402.071C309.905 404.132 311.576 405.803 313.637 405.803Z" stroke="#585859" stroke-width="3" stroke-miterlimit="10"/>
<path opacity="0.8" d="M324.186 403.794H318.838C317.947 403.794 317.222 403.069 317.222 402.178C317.222 401.286 317.947 400.561 318.838 400.561H324.186C325.078 400.561 325.803 401.286 325.803 402.178C325.803 403.069 325.078 403.794 324.186 403.794Z" stroke="#585859" stroke-width="3" stroke-miterlimit="10"/>
<path opacity="0.8" d="M247.415 305.875H285.731" stroke="#585859" stroke-width="3" stroke-miterlimit="10"/>
<path opacity="0.8" d="M239.106 317.842H277.429" stroke="#585859" stroke-width="3" stroke-miterlimit="10"/>
<path opacity="0.8" d="M234.855 294.473H273.172" stroke="#585859" stroke-width="3" stroke-miterlimit="10"/>
<path opacity="0.8" d="M258.803 317.836V306.64" stroke="#585859" stroke-width="3" stroke-miterlimit="10"/>
<path opacity="0.8" d="M241.388 305.669V294.473" stroke="#585859" stroke-width="3" stroke-miterlimit="10"/>
<path opacity="0.8" d="M276.151 305.669V294.473" stroke="#585859" stroke-width="3" stroke-miterlimit="10"/>
<path opacity="0.8" d="M346.438 480.779C361.214 480.779 373.193 479.591 373.193 478.125C373.193 476.659 361.214 475.471 346.438 475.471C331.662 475.471 319.683 476.659 319.683 478.125C319.683 479.591 331.662 480.779 346.438 480.779Z" fill="#ECECEC" stroke="#59595B" stroke-width="3" stroke-miterlimit="10"/>
<path opacity="0.8" d="M384.275 492.334C406.961 492.334 425.352 491.137 425.352 489.66C425.352 488.183 406.961 486.986 384.275 486.986C361.589 486.986 343.198 488.183 343.198 489.66C343.198 491.137 361.589 492.334 384.275 492.334Z" fill="#ECECEC" stroke="#59595B" stroke-width="3" stroke-miterlimit="10"/>
<path opacity="0.8" d="M394.081 482.116C399.753 482.116 404.352 481.517 404.352 480.779C404.352 480.041 399.753 479.442 394.081 479.442C388.408 479.442 383.81 480.041 383.81 480.779C383.81 481.517 388.408 482.116 394.081 482.116Z" fill="#ECECEC" stroke="#59595B" stroke-width="3" stroke-miterlimit="10"/>
<path d="M228.057 271.803L241.221 270.938L245.838 263.86L258.863 240.764L330.978 108.254L422.039 270.965L428.492 270.938L428.784 274.118L431.146 274.131L433.441 273.971L330.965 89.2554L228.057 271.803Z" fill="#CFCFCE"/>
<path d="M247.687 264.951L243.217 270.938H421.72L418.401 264.559L247.687 264.951Z" fill="#F6F6F6"/>
<path d="M166.225 303.028L205.379 232.981L224.252 222.205L261.537 184.607L247.813 157.3L251.399 151.246L327.433 90.6722L224.857 273.333L222.861 276.526L219.109 281.475L214.839 280.358L214.36 278.362L166.225 303.028Z" fill="white"/>
<path d="M165.307 305.523L171.221 308.603L223.56 283.511L219.109 281.475L214.839 280.358L165.307 305.523Z" fill="#E0E0DF"/>
<path d="M222.702 176.744L225.177 218.473L257.865 185.245L227.465 184.899L223.381 176.744H222.702Z" fill="#F2F2F3"/>
<path d="M205.3 182.451L220.773 175.932L223.221 220.249L207.176 229.548L205.3 182.451Z" fill="#F7F7F7"/>
<path d="M206.717 139.352L228.855 183.05L259.269 183.289L239.226 144.015L206.717 139.352Z" fill="#CFCFCE"/>
<path d="M206.697 143.716L198.854 187.461H203.324L203.244 181.481L218.125 175.527C218.298 175.46 218.498 175.54 218.571 175.706C218.837 176.305 219.569 176.458 220.167 176.192L220.66 175.933L220.586 174.516L222.316 174.655L206.697 143.716Z" fill="white"/>
<path opacity="0.8" d="M201.628 187.154L207.422 150.222" stroke="#585859" stroke-width="3" stroke-miterlimit="10" stroke-linecap="round"/>
<path opacity="0.84" d="M342.66 165.589L293.028 248.427L287.281 257.527H312.186L353.855 184.374L342.66 165.589Z" fill="white"/>
<path opacity="0.36" d="M277.429 345.675L258.271 379.002L259.494 393.184L286.848 350.571V345.675H277.429Z" fill="white"/>
<path opacity="0.36" d="M277.063 366.276L257.905 399.603L259.129 413.786L286.482 371.172V366.276H277.063Z" fill="white"/>
<path opacity="0.42" d="M384.275 347.411V364.912L409.793 335.044H397.034L384.275 347.411Z" fill="white"/>
<path opacity="0.8" d="M291.665 264.844C292.142 264.844 292.529 264.457 292.529 263.98C292.529 263.502 292.142 263.115 291.665 263.115C291.187 263.115 290.8 263.502 290.8 263.98C290.8 264.457 291.187 264.844 291.665 264.844Z" fill="#585859"/>
<path d="M305.953 358.626C306.537 358.626 307.011 358.153 307.011 357.569C307.011 356.984 306.537 356.511 305.953 356.511C305.369 356.511 304.896 356.984 304.896 357.569C304.896 358.153 305.369 358.626 305.953 358.626Z" fill="#585859"/>
<path d="M367.685 409.116C368.181 409.116 368.583 408.714 368.583 408.218C368.583 407.722 368.181 407.32 367.685 407.32C367.189 407.32 366.787 407.722 366.787 408.218C366.787 408.714 367.189 409.116 367.685 409.116Z" fill="#585859"/>
<path d="M269.46 417.844C269.919 417.844 270.291 417.471 270.291 417.012C270.291 416.553 269.919 416.181 269.46 416.181C269.001 416.181 268.628 416.553 268.628 417.012C268.628 417.471 269.001 417.844 269.46 417.844Z" fill="#585859"/>
<path opacity="0.8" d="M194.843 316.319L212.085 309.507V311.769L200.331 317.835V350.57V353.677L194.843 355.593V316.319Z" fill="#D3D3D3"/>
<path d="M212.763 375.862C213.285 375.862 213.708 375.439 213.708 374.917C213.708 374.396 213.285 373.973 212.763 373.973C212.242 373.973 211.819 374.396 211.819 374.917C211.819 375.439 212.242 375.862 212.763 375.862Z" fill="#585859"/>
<path opacity="0.8" d="M163.678 305.522L214.334 279.572" stroke="#585859" stroke-width="3" stroke-miterlimit="10" stroke-linecap="round"/>
<path d="M463.828 462.173C463.336 462.173 462.85 462.273 462.398 462.466C463.242 459.213 461.28 455.887 458.027 455.049C455.539 454.404 452.918 455.395 451.468 457.517C450.929 455.581 448.92 454.45 446.985 454.989C446.353 455.169 445.774 455.515 445.322 455.994C444.623 453.413 441.969 451.883 439.381 452.581C438.417 452.84 437.559 453.393 436.92 454.164C436.947 453.991 436.967 453.818 436.973 453.639C436.993 450.945 434.825 448.743 432.124 448.723C429.43 448.703 427.228 450.871 427.208 453.572C427.208 453.951 427.248 454.324 427.328 454.69C425.944 453.319 423.729 453.286 422.299 454.61C422.179 451.922 419.897 449.84 417.21 449.96C414.522 450.08 412.44 452.362 412.56 455.049C412.573 455.335 412.613 455.628 412.673 455.907C411.23 454.49 408.908 454.517 407.498 455.96C406.826 456.645 406.453 457.563 406.453 458.521C406.453 458.601 406.473 458.674 406.473 458.754C406.074 458.608 405.655 458.528 405.229 458.521C403.207 458.521 401.571 460.158 401.571 462.18C401.571 462.26 401.591 462.333 401.591 462.413C401.191 462.266 400.772 462.187 400.347 462.18C398.324 462.18 396.688 463.816 396.688 465.839C396.688 467.861 398.324 469.497 400.347 469.497H463.815C465.837 469.497 467.473 467.861 467.473 465.839C467.473 463.816 465.85 462.173 463.828 462.173Z" fill="white" stroke="#59595A" stroke-miterlimit="10"/>
<path d="M463.828 460.949C463.828 456.905 460.549 453.625 456.504 453.632C454.748 453.632 453.045 454.264 451.721 455.415C450.797 454.29 449.42 453.632 447.969 453.625C447.617 453.625 447.271 453.672 446.925 453.745C446.812 453.771 445.867 454.097 445.834 454.111C444.73 452.301 442.767 451.19 440.645 451.184C439.701 451.184 438.776 451.403 437.938 451.829C436.96 448.609 433.554 446.793 430.335 447.778C428.119 448.45 426.476 450.326 426.097 452.607C425.126 452.301 424.075 452.341 423.124 452.707C421.96 449.561 418.467 447.951 415.321 449.115C413.279 449.867 411.802 451.656 411.436 453.798C408.835 453.08 406.148 454.596 405.422 457.197C405.416 457.224 405.409 457.257 405.403 457.284C403.121 457.231 401.105 458.741 400.52 460.942C397.826 460.903 395.604 463.051 395.564 465.745C395.524 468.439 397.673 470.661 400.367 470.701H463.835C466.529 470.701 468.717 468.513 468.717 465.818C468.711 463.138 466.522 460.949 463.828 460.949ZM463.828 468.273H400.36C399.01 468.273 397.919 467.182 397.919 465.832C397.919 464.481 399.01 463.39 400.36 463.39C400.646 463.397 400.926 463.45 401.185 463.55C401.817 463.783 402.516 463.45 402.748 462.818C402.808 462.659 402.828 462.492 402.821 462.326C402.821 462.293 402.802 462.2 402.802 462.166C402.802 460.816 403.892 459.725 405.243 459.725C405.529 459.732 405.808 459.785 406.068 459.885C406.081 459.885 406.094 459.885 406.108 459.891C407.052 460.251 407.678 461.155 407.684 462.166H410.126C410.119 460.45 409.214 458.867 407.744 457.989C407.99 456.865 408.981 456.066 410.126 456.066C411.469 456.08 412.554 457.164 412.567 458.508H415.008C415.002 457.364 414.589 456.259 413.851 455.388C413.817 455.208 413.797 455.029 413.791 454.849C413.784 452.84 415.407 451.197 417.423 451.19C419.199 451.184 420.716 452.454 421.022 454.204C420.297 455.069 419.897 456.16 419.891 457.29H422.332C422.332 455.94 423.423 454.849 424.773 454.849C426.124 454.849 427.215 455.94 427.215 457.29H429.656C429.649 456.146 429.244 455.042 428.499 454.171C428.465 453.991 428.445 453.811 428.439 453.625C428.439 451.603 430.075 449.966 432.097 449.966C434.12 449.966 435.756 451.603 435.756 453.625C434.965 454.683 434.532 455.967 434.539 457.284H436.98C436.987 456.432 437.286 455.607 437.832 454.956C437.838 454.949 437.845 454.942 437.852 454.936C439.122 453.392 441.404 453.179 442.94 454.45C443.366 454.802 443.705 455.248 443.932 455.747C443.373 456.559 443.073 457.517 443.073 458.501H445.515C445.515 457.876 445.761 457.277 446.193 456.825L446.2 456.818C447.098 455.854 448.601 455.8 449.566 456.698C449.785 456.905 449.965 457.144 450.091 457.417C449.493 458.494 449.18 459.705 449.18 460.942H451.621C451.635 458.248 453.81 456.073 456.504 456.06C459.198 456.06 461.387 458.248 461.387 460.942C461.38 461.348 461.32 461.761 461.214 462.153C461.047 462.805 461.44 463.47 462.092 463.637C462.351 463.703 462.624 463.683 462.87 463.577C464.114 463.051 465.544 463.63 466.07 464.867C466.595 466.111 466.017 467.541 464.779 468.067C464.48 468.207 464.154 468.273 463.828 468.273Z" fill="#59595A"/>
<path d="M415.008 462.173C412.986 462.173 411.35 463.81 411.35 465.832H413.791C413.791 465.16 414.336 464.614 415.008 464.614C415.68 464.614 416.226 465.16 416.226 465.832H418.667C418.667 463.81 417.031 462.173 415.008 462.173Z" fill="#59595A"/>
<path d="M427.215 460.949C425.193 460.949 423.557 462.586 423.557 464.608H425.998C425.998 463.936 426.543 463.391 427.215 463.391C427.887 463.391 428.433 463.936 428.433 464.608H430.874C430.874 462.592 429.238 460.949 427.215 460.949Z" fill="#59595A"/>
<path d="M439.415 462.173C437.393 462.173 435.756 463.81 435.756 465.832H438.198C438.198 465.16 438.743 464.614 439.415 464.614C440.087 464.614 440.632 465.16 440.632 465.832H443.074C443.08 463.81 441.437 462.173 439.415 462.173Z" fill="#59595A"/>
<path d="M456.504 462.173C454.482 462.173 452.845 463.81 452.845 465.832H455.287C455.287 465.16 455.832 464.614 456.504 464.614C457.176 464.614 457.721 465.16 457.721 465.832H460.163C460.169 463.81 458.526 462.173 456.504 462.173Z" fill="#59595A"/>
<path d="M434.539 459.732H432.098V462.173H434.539V459.732Z" fill="#59595A"/>
<path d="M421.108 459.732H418.667V462.173H421.108V459.732Z" fill="#59595A"/>
<path d="M449.18 463.391H446.739V465.832H449.18V463.391Z" fill="#59595A"/>
<path d="M202.513 318.474V353.039L212.085 349.925V314.004L202.513 318.474Z" fill="#F9F9FA"/>
<path d="M201.236 361.34L201.475 396.384L212.245 393.038V355.872L201.236 361.34Z" fill="#F9F9FA"/>
<path d="M116.142 359.704L143.362 340.067L144.234 344.138C144.234 344.138 145.544 352.26 136.59 359.132C127.636 366.01 119.255 362.418 116.142 359.704Z" fill="white"/>
<path opacity="0.25" d="M239.226 144.015L220.919 167.384L228.057 181.693L247.322 159.874L239.226 144.015Z" fill="white"/>
<path opacity="0.44" d="M222.702 176.744L223.447 189.23L257.865 185.245L227.465 184.899L223.381 176.744H222.702Z" fill="#ABABAB"/>
<path d="M117.346 360.668C117.346 360.668 125.727 366.296 135.034 360.223C144.34 354.149 144.959 346.912 143.894 341.59" stroke="#585859" stroke-opacity="0.62" stroke-width="3" stroke-miterlimit="10" stroke-linecap="round"/>
<path d="M143.142 339.408C143.771 339.408 144.28 338.899 144.28 338.271C144.28 337.643 143.771 337.133 143.142 337.133C142.514 337.133 142.005 337.643 142.005 338.271C142.005 338.899 142.514 339.408 143.142 339.408Z" fill="#585859" fill-opacity="0.62"/>
<path d="M155.914 316.931L149.395 323.324L148.171 326.809L149.602 332.317L152.655 334.945L157.418 335.264L161.516 334.539L162.281 336.461L164.955 340.38L167.529 341.59L171.527 341.184L174.787 338.457L176.21 334.712L157.591 315.015L155.914 316.931Z" fill="white"/>
<path d="M176.011 336.235C176.011 336.235 174.574 342.322 168.347 341.59C163.618 341.038 162.48 337.127 162.208 335.277C162.134 334.778 161.669 334.439 161.176 334.526C158.848 334.951 150.819 338.264 148.631 329.443C147.593 325.259 149.608 322.153 154.617 318.467" stroke="#585859" stroke-opacity="0.62" stroke-width="3" stroke-miterlimit="10" stroke-linecap="round"/>
<path d="M157.238 317.503C157.859 317.503 158.363 316.999 158.363 316.379C158.363 315.758 157.859 315.254 157.238 315.254C156.618 315.254 156.114 315.758 156.114 316.379C156.114 316.999 156.618 317.503 157.238 317.503Z" fill="#585859" fill-opacity="0.62"/>
<path d="M190.06 244.456C186.967 242.28 183.122 240.97 178.944 240.97C168.767 240.97 160.511 248.62 160.511 258.059C160.511 261.658 161.715 264.991 163.764 267.745C159.168 270.685 156.114 275.827 156.114 281.687" stroke="#6F6F71" stroke-opacity="0.62" stroke-width="3" stroke-miterlimit="10" stroke-linecap="round"/>
<path d="M156.873 288.041C157.659 288.041 158.296 287.403 158.296 286.617C158.296 285.831 157.659 285.193 156.873 285.193C156.087 285.193 155.449 285.831 155.449 286.617C155.449 287.403 156.087 288.041 156.873 288.041Z" fill="#6F6F71" fill-opacity="0.62"/>
<path d="M490.437 171.715L489.672 65.3142" stroke="#585859" stroke-width="3" stroke-miterlimit="10" stroke-linecap="round"/>
</g>
<defs>
<clipPath id="clip0">
<rect width="492" height="495" fill="white"/>
</clipPath>
</defs>
</svg>
