<svg id="_лой_1" data-name=" лой 1" xmlns="http://www.w3.org/2000/svg" viewBox="0 0 2856.7 1463.64"><defs><style>.cls-1,.cls-2,.cls-3{fill:#bbbbbc;}.cls-1{opacity:0.6;}.cls-1,.cls-3,.cls-35,.cls-36{isolation:isolate;}.cls-3{opacity:0.5;}.cls-4{fill:#fff;}.cls-5{fill:#999;}.cls-6{fill:#ebf3fa;}.cls-7{fill:#9f57c0;}.cls-8{fill:#ebac7d;}.cls-9{fill:#6e4691;}.cls-10{fill:#606060;}.cls-11{fill:#c6c6c8;}.cls-12{fill:#59367b;}.cls-13{fill:#f0ebf3;}.cls-14{fill:#5a377e;}.cls-15{fill:#6e4492;}.cls-16{fill:#dc9463;}.cls-17{fill:#c7b5d4;}.cls-18{fill:#ece4df;}.cls-19{fill:#828283;}.cls-20,.cls-21,.cls-22,.cls-25,.cls-28,.cls-32{fill:none;}.cls-20,.cls-21,.cls-22{stroke:#bbbbbc;stroke-miterlimit:10;}.cls-20{stroke-width:3px;}.cls-21{stroke-width:7px;}.cls-23{fill:#c8c8c8;}.cls-24{fill:#d7d7d7;}.cls-25,.cls-28,.cls-32{stroke:#9d9c9d;stroke-linecap:round;stroke-linejoin:round;}.cls-25{stroke-width:4.97px;}.cls-26{fill:#e9e9e9;}.cls-27{fill:#8c8c8d;}.cls-28{stroke-width:3.04px;}.cls-29{fill:#dadbdc;}.cls-30{fill:#efeeee;}.cls-31{fill:#a3a2a3;}.cls-32{stroke-width:4.24px;}.cls-33{fill:#c3c3c3;}.cls-34{fill:#b6b6b6;}.cls-35{fill:#d2d2d2;opacity:0.74;}.cls-37{fill:#955dba;fill-rule:evenodd;}</style></defs><path class="cls-1" d="M2196.29,1277.47c-15.89,6-121.14,17.08-116.8,30.41s77.9,26.77,116,9.82c0,0-30.94,113-88.91,114.29s-79.9-32.08-115.7-30.61-60.62,14.07-41.75,21.53,78.17-6.06,109.71,14.92c4.63,3.07,9.12,6,13.24,8.71,2.48,1.66,4.84,3.26,7,4.82H1868.26v-4.82a126.11,126.11,0,0,0-1-14s-109.12-45.22-70.55-128.66c0,0,32.57-52.28,72.06-69.4,0,0-8.13,118.58,14,118.73s-.46-132.8-.46-132.8,101.69-64.6,144.48-65.5c0,0-53.49,121.18-32,115.87s83-128.82,83-128.82,108.13-33.53,133.61,29.88S2212.19,1271.44,2196.29,1277.47Z"/><path class="cls-2" d="M824,488.9c-46.61-47.2,25-130.5,25-130.5s133.74-7,146.78-24.12S880.27,318,880.27,318c17.35-37.74,114.17-103.3,114.17-103.3s109.6,71.53,118,51.75S1012.15,208,1012.15,208c30.51-28.54,89.65-37.33,89.65-37.33,89.19-2.09,87.27,112.55,87.27,112.55s38.52,24,97.56,25.94h0s11.48-.63,28.82,2L1310,320.6c-3-.7-5.91-1.28-8.81-1.7H1301c-1.83-.2-4.44-.48-7.64-.79h0c-7.31-.41-12.61-.89-16.34-1.41h0c-22.72-1.68-53-2.67-62.69,2.8a21.48,21.48,0,0,0-3.15-4.53c1,1.44,2,3,3.15,4.53,25.19,36.27-16,120.32-51.42,159.9s-36.67,12.61-43.15-23.58,28.46-83.75,29.12-103.43-20.16-2.48-35.31,28.83,6.1,63.75-17.47,114.85-136.12,35-136.12,35C989.84,503.68,1006.29,433,996.11,424s-60.71,80.41-72.22,92.23S870.6,536.1,824,488.9Z"/><path class="cls-3" d="M2176,957.55c46.63-39.56-12.4-121.87-12.4-121.87s-122.24-17.33-132.84-34.13,107.4-5.6,107.4-5.6c-12.86-36.07-96.44-104.14-96.44-104.14s-106.46,56.78-112.6,37.93S2026,684.27,2026,684.27c-25.69-28.69-79.28-41.56-79.28-41.56C1865,633.54,1857.4,739,1857.4,739s-37.32,18.88-91.71,15.89h0a142.74,142.74,0,0,0-26.63-.48l4.27,9.11c2.8-.41,5.54-.7,8.23-.85h.12c1.7,0,4.12-.08,7.08-.11h0c6.75.23,11.65.22,15.11,0h0c21,.31,48.91,1.86,57.34,7.67a19.7,19.7,0,0,1,3.26-3.91l-3.26,3.91c-26.07,31.26,5,111.78,34.23,151s32.65,14.56,41.54-18.15-19.33-79.21-18.34-97.34,18.72-.64,30.08,29.34-10.78,58.05,6.72,106.88,122.15,43.17,122.15,43.17c-25.17-27.58-34.54-93.81-24.46-101.27s49.22,78.78,58.83,90.56S2129.38,997.09,2176,957.55Z"/><path class="cls-4" d="M1939,85.69v1280a76.12,76.12,0,0,1-76.11,76.13H1193.77a76.12,76.12,0,0,1-76.13-76.11V85.69a76.12,76.12,0,0,1,76.1-76.14h669.14A76.12,76.12,0,0,1,1939,85.64Z"/><path class="cls-5" d="M1862.9,1451.36H1193.77a85.8,85.8,0,0,1-85.69-85.69V85.67A85.8,85.8,0,0,1,1193.77,0h669.1a85.8,85.8,0,0,1,85.69,85.69v1280A85.8,85.8,0,0,1,1862.9,1451.36ZM1193.77,19.12a66.65,66.65,0,0,0-66.58,66.57v1280a66.67,66.67,0,0,0,66.58,66.56h669.1a66.66,66.66,0,0,0,66.58-66.58V85.67a66.65,66.65,0,0,0-66.58-66.57Z"/><rect class="cls-6" x="1263.43" y="1303.36" width="539.04" height="4.82"/><rect class="cls-7" x="1263.43" y="1303.36" width="269.15" height="4.82"/><path class="cls-7" d="M1245.77,1305.78a17.65,17.65,0,1,1,17.65,17.65,17.65,17.65,0,0,1-17.65-17.65Z"/><path class="cls-6" d="M1784.83,1305.78a17.65,17.65,0,1,1,17.65,17.65,17.65,17.65,0,0,1-17.65-17.65Z"/><path class="cls-6" d="M1509.29,1305.78a23.67,23.67,0,1,1,23.67,23.67,23.67,23.67,0,0,1-23.67-23.67Z"/><rect class="cls-5" y="1451.36" width="2856.7" height="12.28" rx="4.12"/><path class="cls-8" d="M966.24,1379.11c1.75,8.74,14.21,7.29,28.12,3.88s10.61.65,30.42-1.55,25.81-9.58,26.42-12.52c.54-2.61-9.25-3.54-19.75-4.75-1.32-.14-2.65-.31-4-.47-11.85-1.49-20.53-9.14-31.3-15.42-10.2-6-25.42-30.19-25.42-30.19l-27.17,2.15s14.26,21.65,19.77,31.07c3.25,5.53,3.08,12.86,2.67,18.51A34.83,34.83,0,0,0,966.24,1379.11Z"/><path class="cls-9" d="M994.36,1383c13.92-3.4,10.61.65,30.42-1.55s25.81-9.58,26.42-12.52c.54-2.61-9.25-3.54-19.75-4.75l-.1.21a55.88,55.88,0,0,1-28.37,8.82c-13.43.32-27.67-3.53-37-3.38a34.82,34.82,0,0,0,.21,9.29C968,1387.85,980.45,1386.4,994.36,1383Z"/><path class="cls-8" d="M737.84,1395.55a7.81,7.81,0,0,0-1.39,8.35h0c2,5.57,8.67,11.79,16.41,18,1,.8,1.86,1.53,2.63,2.2l.59.53.45.41c7.22,6.65,4.5,8.17,17.46,21.66,14.77,15.37,25,15.65,27.84,14.25,2.45-1.19-2.53-9.35-8-18.51-.27-.44-.53-.89-.8-1.34-.74-1.21-1.46-2.45-2.19-3.67-6.46-11-4.8-16.21-3.27-32.62,1.24-13.34,20.75-74.51,20.75-74.51L780,1325.42s-8.52,48.71-17.92,56.21c-5,4-10.64,4-15.47,7-.34.2-.68.41-1,.63A37.33,37.33,0,0,0,737.84,1395.55Z"/><path class="cls-9" d="M737.84,1395.55a7.81,7.81,0,0,0-1.39,8.35h0c2.46,5.57,9,11.76,16.43,18,1,.81,1.84,1.55,2.61,2.25l.59.53.45.41c7.22,6.65,4.5,8.17,17.46,21.66,14.77,15.37,25,15.65,27.84,14.25,2.45-1.19-2.53-9.35-8-18.51a63,63,0,0,1-26.33-19.41c-8.9-11.35-14.83-25.93-20.89-34.38-.34.2-.68.41-1,.63A37.33,37.33,0,0,0,737.84,1395.55Z"/><path class="cls-10" d="M1044.48,1461.78h27.44V1279.09a125.66,125.66,0,0,1,251.31,0v182.69h27.43V1279.09c0-84.41-68.67-153.08-153.09-153.08s-153.09,68.67-153.09,153.08Z"/><path class="cls-10" d="M257.16,1248.3a13.72,13.72,0,0,0,13.72-13.72V892.3a13.72,13.72,0,1,0-27.44,0v342.25a13.72,13.72,0,0,0,13.69,13.75Z"/><path class="cls-10" d="M1102.56,1248.3a13.71,13.71,0,0,0,13.71-13.71V892.3a13.72,13.72,0,0,0-27.43,0v342.25a13.72,13.72,0,0,0,13.69,13.75Z"/><path class="cls-10" d="M217.45,1461.78h27.43V1279.09a125.66,125.66,0,0,1,251.31,0v182.69h27.44V1279.09c0-84.41-68.68-153.08-153.09-153.08s-153.09,68.67-153.09,153.08Z"/><rect class="cls-11" x="183.5" y="1108.93" width="1010.52" height="84.49" rx="12.51"/><path class="cls-11" d="M231.88,1251.76H1314.77a17.18,17.18,0,0,0,17.18-17.18h0a17.18,17.18,0,0,0-17.18-17.18H231.88Z"/><rect class="cls-11" x="176.52" y="1009.28" width="1010.52" height="84.49" rx="12.51"/><rect class="cls-11" x="167.14" y="906" width="1010.52" height="84.49" rx="12.51"/><path class="cls-12" d="M725.77,884.07c3.52-5,8-14.31,12.26-31.42-.5,1.69-7,23.08-17.36,34.13C682.51,904,604.22,969.15,603.24,983.71c0,0-17-43.28-17.39-43.58,0,0-34.31-61.57,21.68-84.79,28.46-11.8,31.58-32.26,33.33-50.19s22.07-93.09,70.81-64.82c0,0,8.92-2.37,12.56-1.22a10.39,10.39,0,0,0-4.94,1.45c6.07.6,14.61,2.42,21.14,7.64C757.77,762.05,759.33,861.81,725.77,884.07Z"/><path class="cls-13" d="M719.27,869.74s10.55,42.68,10.91,58c.12,4.9,3.33,17.22,8.08,31.91,10.12,31.25,27.29,73.28,36.82,77.77,5,2.38,10.09,4.73,14.53,6.29,7.87,2.77,13.9,3.11,14.86-3,1.5-9.63-21.06-134.62-30-147.38S719.27,869.74,719.27,869.74Z"/><path class="cls-14" d="M862.13,1205.41,803.59,1363a53.65,53.65,0,0,1-17.62-1.61c-7.93-2.29-17-8.3-17-8.3s14.53-151.28,41.15-182.75S862.13,1205.41,862.13,1205.41Z"/><path class="cls-15" d="M630.57,1141.67s168.23-56.89,205.75-44.78,150.16,236.22,150.16,236.22-2.53,3.39-9.48,6c-6.45,2.42-22.08,2.26-22.08,2.26s-101.66-87.14-113.76-112.55-17-49.62-29-47.2S656,1240.92,623.31,1207s-24.14-77.91-24.14-77.91Z"/><path class="cls-8" d="M686.51,890.21c12,6.28,30.91,1.45,30.75,1.34-2-1.51-.55-10.6,1.6-20,.14-.59.27-1.18.41-1.78,2.51-10.67,5.71-21.19,5.71-21.19l-37-16.2-2.19-1c-.2.86-.39,1.71-.58,2.53C678.79,861.16,671,866,667.46,869.72,662.67,874.89,675.23,884.29,686.51,890.21Z"/><path class="cls-16" d="M685.25,833.92c4.08,13.12,12.67,29,34.3,34.68,2.5-10.67,5.43-20,5.43-20l-37-16.2-2.19-1C685.63,832.25,685.44,833.1,685.25,833.92Z"/><path class="cls-12" d="M683,825.66s-8.42-19.59-8.7-35.23c-.2-11.16,11.74-50.53,51.26-38.29A55.65,55.65,0,0,1,747,764.38c7.84,7.33,18.47,22.16-1.29,55l-5.57,11.27Z"/><path class="cls-13" d="M738.26,959.64c10.12,31.25,27.29,73.28,36.82,77.77,5,2.38,10.09,4.73,14.53,6.29-1.2-24.92-48.78-92.68-48.78-92.68Z"/><path class="cls-8" d="M728.94,856.1s-51-7.25-46-38.92,1.83-53.93,34.6-50.63,37.14,16.37,38,27.35S742.32,857.18,728.94,856.1Z"/><path class="cls-12" d="M740.77,769.46s-19.83,34.92-42.07,37-30.58-5.11-30.58-5.11a193.27,193.27,0,0,1,8.26-40.6S733.13,750.11,740.77,769.46Z"/><path class="cls-12" d="M736.88,771.92s9.07,10,10.32,18.42-.25,25.24,4.67,25.45c0,0,14.51-23.58,5-39.74C746.77,758.92,736.88,771.92,736.88,771.92Z"/><path class="cls-13" d="M590,1134.08v2.15a20.39,20.39,0,0,0,1.1,6.33c2.45,6.79,9.35,9.14,18.76,8.67q1.9-.09,3.93-.33c21.75-2.53,54.07-17.14,77.36-27.24,35.5-15.39,51.64-.93,62.94-10.72a8.36,8.36,0,0,0,2.64-4.07,8.88,8.88,0,0,0,.28-1.13c2.33-12.55-12.81-41,5.15-127.5,7.11-34.31-42.9-110.5-42.9-110.5s-5,21.58-48.68-3.08c-.28-.16-11.93,25.67-28.29,56.67-18,34.19-35.3,75.5-30.21,96.78,5.61,23.57-5.09,53.5-13.47,78.84C594.12,1112.55,590.3,1124.81,590,1134.08Z"/><path class="cls-17" d="M590,1134.08v2.15a20.39,20.39,0,0,0,1.1,6.33c2.45,6.79,9.35,9.14,18.76,8.67q1.9-.09,3.93-.33c21.75-2.53,54.07-17.14,77.36-27.24,35.5-15.39,51.07-1.26,63.24-10,3.36-2.39,2.59-8.57,3.06-10.17-19.4-10.72-67.55-2-45.25-49.4,11.37-24.17-45.81-92.8-61.39-66.53-23.54,34.55-41.77,11.39-35.14,32.9,7.22,23.42-6.21,53.1-17.06,78.44C594.12,1112.55,590.3,1124.81,590,1134.08Z"/><path class="cls-13" d="M813,1054.91s12.55,23.81,10.23,33.51c-1.73,7.27-14.29,7.85-29.38,9.7-6.07,1.13-9,3.55-9,3.55Z"/><polygon class="cls-18" points="818.16 1040.65 815.77 1038.08 739 1031.35 740.83 1033.62 818.16 1040.65"/><path class="cls-13" d="M670.59,866.66s-35.38,4-49.9,24.27C600.25,919.44,565,1081.8,588.18,1098c27.38,19.1,118.16,1.85,118.16,1.85s.71-10.64-3.6-17.63-75.92-13.15-79.15-16.38S663.77,956,663.77,946.34,670.59,866.66,670.59,866.66Z"/><polygon class="cls-18" points="716.76 1071.04 739 1031.35 740.83 1033.62 721.2 1069.99 716.76 1071.04"/><path class="cls-19" d="M819.15,1044.77,783,1104.84a3,3,0,0,1-2.71,1.46l-72.36-2.92a3,3,0,0,1-2.91-3.09,3,3,0,0,1,.37-1.35l34.24-64.17a3,3,0,0,1,3-1.58l74.27,7a3,3,0,0,1,2.75,3.23A3.09,3.09,0,0,1,819.15,1044.77Z"/><circle class="cls-18" cx="745.01" cy="1040.95" r="2.15"/><path class="cls-18" d="M768.77,1076.55c-1.42,3-5.81,4-8.86,2.6s-3.6-4.68-2.18-7.73,5.83-4,8.87-2.59S770.15,1073.55,768.77,1076.55Z"/><path class="cls-8" d="M702.77,1082.24s8-11.24,18.46-12.24,17.28,4.31,17.82,7.52S737,1091,729.65,1094s-30.38,4-30.38,4Z"/><path class="cls-8" d="M823.32,1081.55s-5.82-10.91-14.53-11.74-14.92,4.53-15.65,7.69.34,14,6.54,16.06C828.34,1103.19,823.32,1081.55,823.32,1081.55Z"/><line class="cls-20" x1="1197.57" y1="238.19" x2="1821.27" y2="238.19"/><line class="cls-20" x1="1197.57" y1="269.19" x2="1821.27" y2="269.19"/><line class="cls-20" x1="1197.57" y1="299.19" x2="1821.27" y2="299.19"/><line class="cls-20" x1="1197.57" y1="330.19" x2="1821.27" y2="330.19"/><line class="cls-21" x1="1197.57" y1="405.23" x2="1371.93" y2="405.23"/><line class="cls-21" x1="1197.57" y1="466.23" x2="1295.55" y2="466.23"/><line class="cls-21" x1="1458.57" y1="466.23" x2="1556.55" y2="466.23"/><line class="cls-21" x1="1197.57" y1="527.23" x2="1441.05" y2="527.23"/><line class="cls-21" x1="1197.57" y1="608.23" x2="1393.53" y2="608.23"/><line class="cls-21" x1="1197.57" y1="669.23" x2="1475.61" y2="669.23"/><line class="cls-22" x1="1384.89" y1="405.23" x2="1821.27" y2="405.23"/><line class="cls-22" x1="1310.16" y1="466.23" x2="1458.57" y2="466.23"/><line class="cls-22" x1="1571.16" y1="466.23" x2="1821.27" y2="466.23"/><line class="cls-22" x1="1458.57" y1="527.23" x2="1821.27" y2="527.23"/><line class="cls-22" x1="1408.57" y1="608.23" x2="1821.27" y2="608.23"/><line class="cls-22" x1="1491.45" y1="669.23" x2="1821.27" y2="669.23"/><line class="cls-21" x1="1197.57" y1="742.19" x2="1295.55" y2="742.19"/><line class="cls-21" x1="1197.57" y1="772.19" x2="1295.55" y2="773.19"/><rect class="cls-15" x="1350.66" y="869.74" width="388.41" height="66.85" rx="25.47"/><path class="cls-23" d="M2578.53,1236.85c27.23-44.32,7-61.27,13.51-127.35s8.51-93.44,28.21-82.91,52.5,73.13,35.95,122.72-30.12,58.76-17.61,95.85,1.27,51.6-12.6,62.45C2610.67,1319.63,2546.22,1289.41,2578.53,1236.85Z"/><path class="cls-24" d="M2649,1066.27c0,1.11,0,2.22,0,3.34.11,19.79-3.34,54-9.37,72.68-15,46.45-23.68,49.15-22.5,83.74.34,10,1.48,20,1.41,30-.08,11.47-1.27,24-7.06,34a32.33,32.33,0,0,1-16.13,14.14c12,6.47,24.78,8,30.58,3.43,13.87-10.84,25.11-25.36,12.6-62.45s1.06-46.25,17.61-95.84C2665.33,1121.94,2659.43,1090.63,2649,1066.27Z"/><path class="cls-25" d="M2590.17,1291.29s20.26-17,16.2-71.67,28.9-84.52,13.37-162.72"/><path class="cls-26" d="M2659,1272.33c-8.94-30.57,5.73-37.32,12.57-77.39s10.06-56.56-3.28-53.53-42.82,34.72-41.05,66.68,8.32,39.57-5.08,59.47-9.08,30.27-2.64,38.92C2626.69,1316,2669.62,1308.55,2659,1272.33Z"/><path class="cls-27" d="M2644.94,1160.21c-.2.65-.4,1.31-.58,2-3.26,11.69-6.74,32.45-6.2,44.45,1.36,29.86,6.05,32.85-.23,53.09-1.81,5.85-4.09,11.54-5.67,17.47-1.8,6.79-3.12,14.41-1.31,21.22a19.72,19.72,0,0,0,7.24,11c-8.11,1.88-15.93.7-18.62-2.91-6.44-8.64-10.73-19,2.65-38.92s6.83-27.49,5.08-59.47C2626.3,1190.45,2634.85,1172.91,2644.94,1160.21Z"/><path class="cls-28" d="M2643.35,1302.6s-9.22-13.35,2-44.94-3.42-54.58,18.36-98.26"/><path class="cls-24" d="M2566,1239.55c-28.08-43.78-8.2-61.12-15.95-127.07s-10.26-93.26-29.77-82.37-51.11,74.13-33.62,123.41,31.25,58.16,19.44,95.48-.28,51.63,13.79,62.22C2535.38,1322.86,2599.25,1291.45,2566,1239.55Z"/><path class="cls-29" d="M2492.24,1070.3v3.34c.27,19.79,4.36,54,10.75,72.52,15.89,46.15,24.6,48.69,24.08,83.3-.15,10-1.08,20-.83,30,.3,11.47,1.73,24,7.71,33.87a32.2,32.2,0,0,0,16.39,13.84c-11.82,6.7-24.62,8.44-30.49,4-14.08-10.59-25.6-24.9-13.8-62.21s-1.94-46.22-19.43-95.49C2477,1126.28,2482.27,1094.85,2492.24,1070.3Z"/><path class="cls-25" d="M2555.32,1294.16s-20.55-16.61-17.55-71.33-30.49-84-16.47-162.45"/><path class="cls-30" d="M2476.62,1273c8.93-30.57-5.74-37.32-12.58-77.39s-10.07-56.55,3.28-53.52,42.81,34.71,41,66.67-8.31,39.57,5.08,59.47,9.09,30.28,2.65,38.92C2509,1316.7,2466,1309.27,2476.62,1273Z"/><path class="cls-31" d="M2490.7,1160.9c.2.65.39,1.3.58,2,3.25,11.66,6.75,32.45,6.2,44.45-1.37,29.85-6.05,32.84.22,53.09,1.82,5.84,4.07,11.54,5.67,17.46,1.81,6.79,3.13,14.41,1.32,21.23a19.72,19.72,0,0,1-7.24,11c8.11,1.89,15.92.71,18.61-2.91,6.44-8.64,10.74-19-2.64-38.92s-6.84-27.48-5.09-59.47C2509.35,1191.14,2500.77,1173.55,2490.7,1160.9Z"/><path class="cls-28" d="M2492.29,1303.28s9.21-13.34-2-44.93,3.43-54.58-18.37-98.26"/><path class="cls-30" d="M2548.7,1256.26c19.82-39.65,1.38-52.55,2-109.13s.24-80,17.79-72.5,50,58.17,39.68,101.52-21.19,52.12-7.8,82.67,4.93,43.72-6,54C2582.15,1324.11,2525.18,1303.29,2548.7,1256.26Z"/><path class="cls-32" d="M2562.65,1301.6s15.94-16,8.41-62,18.22-73.92-.81-139.15"/><path class="cls-33" d="M2595.77,1106.17c.1,1,.2,1.9.29,2.84,1.57,16.77,1.2,46.12-2.54,62.42-9.27,40.55-16.42,43.49-12.85,72.78,1,8.46,2.74,16.82,3.43,25.32.79,9.76.71,20.52-3.45,29.41a27.44,27.44,0,0,1-12.64,13.21c10.64,4.58,21.64,4.92,26.21.64,11-10.25,19.44-23.41,6-54s-2.54-39.33,7.79-82.67C2613.77,1152.23,2606.43,1126.07,2595.77,1106.17Z"/><path class="cls-34" d="M2496,1444.77c-29.48-51.34-22.47-149.09-22.47-149.09h189.79s13.37,108-28.6,149.09Z"/><path class="cls-35" d="M2663.31,1295.68h-29.72c-.73,38.69-17.35,78.28-42.62,106-14.87,16.31-34.26,27.79-55.28,34.38a104.22,104.22,0,0,1-17,3.83c17.11,6.16,38.07,4.13,51,4.15,21.81,0,54.16-2.93,66.15-14.67C2677.9,1388.3,2663.31,1295.68,2663.31,1295.68Z"/><g id="logo" class="cls-36"><path id="logo_1_Traced_" data-name="logo 1 (Traced)" class="cls-37" d="M1373.05,103.33c-.12.36-.53,2-.92,3.54s-2.38,9.15-4.42,16.82c-4,15.21-9.83,37-13.57,51.27-1.31,5-2.43,9.22-2.49,9.41s.48.35,10.12.35H1372l.72-2.94c1-3.87,6.55-25.73,6.93-27.09a5.48,5.48,0,0,1,.76-1.59l.46-.53,8.92,0c9.93,0,10.7-.11,13.24-1.34a11.64,11.64,0,0,0,5.63-6.6c.33-.86,1.45-4.88,2.47-8.94s2.8-11,3.94-15.45c2-7.77,2.07-8.13,2-9.78a6.3,6.3,0,0,0-.62-2.82,11,11,0,0,0-4.54-4.25l-1.38-.68h-37.27Zm59.2-.46a7.64,7.64,0,0,0-4,2.92,86.43,86.43,0,0,0-4.2,10.2c-.78,2.27-3.08,10.58-8.19,29.6-4.38,16.3-10.25,37.52-10.77,38.88-.07.2,2.1.25,10.45.25h10.54l.19-.75,2.85-10.8c5.25-19.87,5.2-19.71,6.23-20.27a4.51,4.51,0,0,1,2.1-.16c1.79.11,2.42.35,2.42.9,0,.2-2,7.25-4.33,15.66s-4.33,15.33-4.33,15.36,4.78.06,10.63.06,10.62,0,10.62-.09,4.31-16.36,7.7-29c1.84-6.85,4.63-17.33,6.2-23.3s3.28-12.42,3.8-14.33c1.32-4.76,1.62-6.34,1.65-8.67,0-2.62-.27-3.68-1.43-4.89-1.68-1.76-.6-1.67-20.38-1.71C1440.53,102.73,1432.52,102.78,1432.25,102.87Zm49.49.16c-.2.52-4.27,15.7-11.54,43.06-3.57,13.42-7.32,27.53-8.35,31.36s-1.86,7-1.86,7.12,4.6.15,10.22.15h10.23l.22-.85c.12-.46,1.93-7,4-14.58s5.71-20.82,8-29.47c5.13-18.95,5.31-19.57,5.83-20.13s2.2-.79,3.74-.58l1,.14-.12.77c-.21,1.28-10,37.74-15.39,57.39-1,3.7-1.85,6.86-1.85,7s1.45.29,10.42.29h10.43l.29-1.05c1.56-5.61,5.67-20.52,9.62-35,2.66-9.69,5.66-20.67,6.69-24.39s2-7.62,2.17-8.66c.93-5.66.47-8.84-1.56-10.83a7,7,0,0,0-3.53-1.75c-1.28-.34-2.63-.36-20-.36C1482.94,102.68,1481.86,102.7,1481.74,103Zm54.81,0c-.19.37-1.77,6.09-5.93,21.46-3.88,14.37-15.3,56.31-15.85,58.23-.26.93-.48,1.76-.48,1.84s9.93.16,22,.16h22.06l.84-.5a10.68,10.68,0,0,0,3.35-3.67c1.36-2.71,2.88-7.76,7.19-23.91,2.31-8.64,10-36.88,11.46-42,.9-3.17,1-3.68,1-5.68s0-2.28-.48-3.18a5.75,5.75,0,0,0-3.24-2.67c-1.08-.41-1.3-.42-21.44-.42C1537.91,102.68,1536.73,102.7,1536.55,103Zm59.4-.16c-2.14.67-3.28,1.87-5.06,5.33-1.67,3.24-2,4.07-4.88,14.49-2.33,8.31-17,61.74-17,61.93s4.71.08,10.46,0l10.46,0,.25-.8c.14-.43,1.8-6.71,3.7-13.93,4.19-16,4.32-16.44,4.76-16.77s4.43-.36,4.76,0a1.24,1.24,0,0,1,.24.75c0,.28-1.9,7.3-4.23,15.6s-4.23,15.14-4.23,15.19,4.75.06,10.56,0l10.57,0,2.92-10.85c1.61-6,5-18.71,7.53-28.31s5.19-19.55,5.89-22.1c2.82-10.34,2.93-10.89,2.95-14.11,0-2.61,0-3-.42-3.71a5.22,5.22,0,0,0-2.88-2.38c-1-.36-1.93-.38-18.43-.41C1604.28,102.73,1596.22,102.78,1596,102.87Zm49.11.16c-.06.19-.86,3.58-1.79,7.52s-1.73,7.32-1.79,7.52.47.34,10.14.34c5.63,0,10.24,0,10.24.08s-7.92,14.87-17.61,33-17.61,33-17.61,33.08,3.93.19,10.52.19h10.53l.27-.45c.16-.24,8.93-17.43,19.51-38.18s19.89-39,20.69-40.57l1.47-2.84H1667.4C1646.39,102.68,1645.16,102.7,1645.06,103Zm-251.23,16.09a1.06,1.06,0,0,1,.44.74c0,.23-.7,3.16-1.55,6.51s-1.67,6.61-1.81,7.25a5.06,5.06,0,0,1-.56,1.55,4.25,4.25,0,0,1-2.95.76c-1.31,0-1.79-.36-1.79-1.36,0-.38.72-3.84,1.59-7.68,1.91-8.43,1.71-8.08,4.47-8.08A4.19,4.19,0,0,1,1393.83,119.12Zm54.4.32a.86.86,0,0,1,.35.78c0,1-3.54,14.8-3.9,15.16s-3.75.65-4.35.27c-.4-.25-.21-1.38,1.36-8.27s1.81-7.6,2.77-8.13A7.84,7.84,0,0,1,1448.23,119.44Zm110.11.06c.29.29.28.44-.09,1.86-.83,3.08-10.38,37.91-11.73,42.75a44,44,0,0,1-1.69,5.33c-.26.3-.68.35-3.1.35h-2.8l.27-.95c.14-.52,2.25-8.2,4.69-17.07,6.13-22.39,8.34-30.33,8.7-31.32.43-1.2.88-1.38,3.36-1.32C1557.54,119.17,1558.1,119.25,1558.34,119.5Zm54.14,0c.2.25-.1,1.63-1.67,7.72-1,4.08-2,7.62-2.2,7.87-.41.65-.95.8-2.71.74-1.6-.05-2.08-.3-2.08-1.08,0-.27,2.81-12.16,3.35-14.2.34-1.25.55-1.35,2.93-1.35C1611.76,119.21,1612.28,119.28,1612.48,119.51Z"/></g></svg>