<svg width="2857" height="1464" viewBox="0 0 2857 1464" fill="none" xmlns="http://www.w3.org/2000/svg">
<g clip-path="url(#clip0)">
<path opacity="0.6" d="M2096.29 1277.47C2080.4 1283.47 1975.15 1294.55 1979.49 1307.88C1983.83 1321.21 2057.39 1334.65 2095.49 1317.7C2095.49 1317.7 2064.55 1430.7 2006.58 1431.99C1948.61 1433.28 1926.68 1399.91 1890.88 1401.38C1855.08 1402.85 1830.26 1415.45 1849.13 1422.91C1868 1430.37 1927.3 1416.85 1958.84 1437.83C1963.47 1440.9 1967.96 1443.83 1972.08 1446.54C1974.56 1448.2 1976.92 1449.8 1979.08 1451.36H1768.26V1446.54C1768.19 1441.86 1767.85 1437.18 1767.26 1432.54C1767.26 1432.54 1658.14 1387.32 1696.71 1303.88C1696.71 1303.88 1729.28 1251.6 1768.77 1234.48C1768.77 1234.48 1760.64 1353.06 1782.77 1353.21C1804.9 1353.36 1782.31 1220.41 1782.31 1220.41C1782.31 1220.41 1884 1155.81 1926.79 1154.91C1926.79 1154.91 1873.3 1276.09 1894.79 1270.78C1916.28 1265.47 1977.79 1141.96 1977.79 1141.96C1977.79 1141.96 2085.92 1108.43 2111.4 1171.84C2136.88 1235.25 2112.19 1271.44 2096.29 1277.47Z" fill="#BBBBBC"/>
<path d="M770.21 1366.8C723.61 1319.61 795.21 1236.31 795.21 1236.31C795.21 1236.31 928.95 1229.31 941.99 1212.18C955.03 1195.05 826.48 1195.86 826.48 1195.86C843.82 1158.11 940.64 1092.55 940.64 1092.55C940.64 1092.55 1050.25 1164.09 1058.64 1144.3C1067.03 1124.51 958.36 1085.92 958.36 1085.92C988.87 1057.38 1048 1048.59 1048 1048.59C1137.2 1046.5 1135.27 1161.14 1135.27 1161.14C1135.27 1161.14 1173.79 1185.14 1232.84 1187.08C1232.84 1187.08 1244.32 1186.45 1261.67 1189.08L1256.18 1198.5C1253.2 1197.8 1250.26 1197.23 1247.37 1196.8H1247.24C1245.41 1196.6 1242.79 1196.32 1239.6 1196C1232.28 1195.6 1226.98 1195.12 1223.26 1194.6C1200.53 1192.93 1170.26 1191.93 1160.57 1197.41C1159.72 1195.77 1158.66 1194.24 1157.42 1192.87L1160.57 1197.41C1185.75 1233.68 1144.57 1317.72 1109.14 1357.31C1073.71 1396.9 1072.48 1369.92 1065.99 1333.73C1059.5 1297.54 1094.46 1249.98 1095.12 1230.3C1095.78 1210.62 1074.95 1227.82 1059.81 1259.13C1044.67 1290.44 1065.91 1322.88 1042.33 1373.97C1018.75 1425.06 906.22 1408.97 906.22 1408.97C936.06 1381.58 952.51 1310.9 942.33 1301.89C932.15 1292.88 881.62 1382.3 870.11 1394.12C858.6 1405.94 816.82 1414 770.21 1366.8Z" fill="#BBBBBC"/>
<path opacity="0.5" d="M2076 957.55C2122.63 917.99 2063.6 835.68 2063.6 835.68C2063.6 835.68 1941.36 818.35 1930.76 801.55C1920.16 784.75 2038.16 795.95 2038.16 795.95C2025.3 759.88 1941.72 691.81 1941.72 691.81C1941.72 691.81 1835.26 748.59 1829.12 729.74C1822.98 710.89 1926 684.27 1926 684.27C1900.31 655.58 1846.72 642.71 1846.72 642.71C1765 633.54 1757.4 739 1757.4 739C1757.4 739 1720.08 757.88 1665.69 754.89C1656.85 753.901 1647.93 753.74 1639.06 754.41L1643.33 763.52C1646.13 763.11 1648.87 762.82 1651.56 762.67H1651.68C1653.38 762.67 1655.8 762.59 1658.76 762.56C1665.51 762.79 1670.41 762.78 1673.87 762.56C1694.87 762.87 1722.78 764.42 1731.21 770.23C1732.12 768.791 1733.22 767.477 1734.47 766.32L1731.21 770.23C1705.14 801.49 1736.21 882.01 1765.44 921.23C1794.67 960.45 1798.09 935.79 1806.98 903.08C1815.87 870.37 1787.65 823.87 1788.64 805.74C1789.63 787.61 1807.36 805.1 1818.72 835.08C1830.08 865.06 1807.94 893.13 1825.44 941.96C1842.94 990.79 1947.59 985.13 1947.59 985.13C1922.42 957.55 1913.05 891.32 1923.13 883.86C1933.21 876.4 1972.35 962.64 1981.96 974.42C1991.57 986.2 2029.38 997.09 2076 957.55Z" fill="#BBBBBC"/>
<path d="M2285.21 1451.22H2270.88C2266.08 1450.46 2262.53 1449.07 2257.61 1448.43C2250.14 1447.43 2246.69 1450.51 2246.01 1451.22L2245.88 1451.36H2185C2183.47 1449.18 2184.94 1444.11 2186.38 1440.36C2188.22 1438.72 2188.75 1447.5 2189.77 1448.9C2190.79 1450.3 2239.42 1449.41 2242.23 1447.37C2245.04 1445.33 2253.47 1441.75 2265.23 1444.56C2275.45 1447 2290.52 1440.74 2294.23 1439.08C2295.64 1443.25 2296.84 1446.22 2296.84 1446.22C2296.84 1446.22 2297.53 1449.68 2285.21 1451.22Z" fill="#3B6096"/>
<path d="M2361.67 1451.22H2347.34C2342.54 1450.46 2339 1449.07 2334.08 1448.43C2326.6 1447.43 2323.16 1450.51 2322.48 1451.22L2322.34 1451.36H2261.47C2259.94 1449.18 2261.41 1444.11 2262.85 1440.36C2264.7 1438.72 2265.22 1447.5 2266.24 1448.9C2267.26 1450.3 2315.9 1449.41 2318.71 1447.37C2321.52 1445.33 2329.94 1441.75 2341.71 1444.56C2351.93 1447 2366.99 1440.74 2370.71 1439.08C2372.13 1443.25 2373.32 1446.22 2373.32 1446.22C2373.32 1446.22 2374 1449.68 2361.67 1451.22Z" fill="#466AA5"/>
<path d="M1839 85.69V1365.69C1839 1375.69 1837.03 1385.58 1833.21 1394.82C1829.39 1404.06 1823.78 1412.45 1816.71 1419.52C1809.64 1426.59 1801.25 1432.2 1792.02 1436.02C1782.78 1439.85 1772.89 1441.82 1762.89 1441.82H1093.77C1083.77 1441.82 1073.88 1439.85 1064.64 1436.03C1055.4 1432.21 1047.01 1426.6 1039.94 1419.53C1032.87 1412.46 1027.26 1404.07 1023.44 1394.84C1019.61 1385.6 1017.64 1375.71 1017.64 1365.71V85.69C1017.64 75.6938 1019.6 65.795 1023.43 56.5587C1027.25 47.3224 1032.85 38.9295 1039.92 31.8592C1046.99 24.789 1055.38 19.1798 1064.61 15.352C1073.85 11.5242 1083.74 9.55267 1093.74 9.55005H1762.88C1783.06 9.55005 1802.42 17.5657 1816.69 31.8345C1830.97 46.1033 1838.99 65.457 1839 85.64V85.69Z" fill="white"/>
<path d="M1721.27 1324.12V1437.64C1721.27 1439.03 1721.27 1440.43 1721.19 1441.8H1139.87C1139.81 1440.43 1139.78 1439.03 1139.78 1437.64V1324.12C1139.78 1272.33 1173.21 1229.96 1214.06 1229.96H1647C1687.84 1230 1721.27 1272.33 1721.27 1324.12Z" fill="#9F57C0"/>
<path d="M1762.9 1451.36H1093.77C1071.05 1451.33 1049.27 1442.29 1033.21 1426.23C1017.15 1410.17 1008.11 1388.39 1008.08 1365.67V85.67C1008.11 62.956 1017.15 41.1825 1033.22 25.1231C1049.28 9.06372 1071.06 0.0290945 1093.77 0L1762.87 0C1785.59 0.0291063 1807.37 9.06648 1823.43 25.1302C1839.49 41.1939 1848.53 62.9725 1848.56 85.69V1365.69C1848.53 1388.4 1839.49 1410.17 1823.43 1426.23C1807.38 1442.28 1785.61 1451.32 1762.9 1451.36ZM1093.77 19.12C1076.12 19.1385 1059.2 26.1578 1046.71 38.6378C1034.23 51.1178 1027.21 68.0393 1027.19 85.69V1365.69C1027.22 1383.34 1034.24 1400.26 1046.72 1412.73C1059.2 1425.21 1076.12 1432.23 1093.77 1432.25H1762.87C1780.52 1432.23 1797.44 1425.21 1809.93 1412.73C1822.41 1400.24 1829.43 1383.32 1829.45 1365.67V85.67C1829.43 68.0193 1822.41 51.0978 1809.93 38.6178C1797.44 26.1378 1780.52 19.1185 1762.87 19.1L1093.77 19.12Z" fill="#999999"/>
<path d="M1427.14 1364.89L1389.72 1331.39L1400.23 1319.64L1424.4 1341.28L1457.85 1293.43L1470.77 1302.46L1427.14 1364.89Z" fill="white"/>
<path d="M2217.32 320.64C2217.32 320.64 2268.04 269.55 2300.21 316.27C2300.21 316.27 2320.08 310.5 2328.76 351.35C2337.62 393.03 2324.08 418.51 2309.76 410.68C2300.57 405.68 2293.61 421.75 2293.61 421.75L2217.32 320.64Z" fill="#233862"/>
<path d="M2142 709.22C2093.69 691.42 2047.16 608.74 2047.16 608.74L2062.4 598.08C2075.09 616.64 2132.18 652.28 2132.18 652.28C2133.48 636.64 2135.37 622.45 2137.71 609.59C2153.56 522.22 2189.82 496.34 2199.55 490.84C2200.34 490.377 2201.16 489.963 2202 489.6C2202 489.6 2202 490.24 2201.9 491.46C2201.76 494.09 2201.45 499.39 2200.9 506.65C2197.12 560.75 2182.32 724.1 2142 709.22Z" fill="#F9CDAF"/>
<path d="M2264.62 283.48C2264.62 283.48 2284.75 283.102 2305.86 296.009C2322.44 306.15 2360.46 358.327 2373.25 389.553C2386.04 420.779 2360.87 434.873 2379.37 452.589C2397.7 470.089 2423.13 519.951 2381.97 545.447C2358.72 559.885 2316.07 517.467 2289.08 511.872C2262.09 506.276 2191.2 563.045 2171.95 545.972C2152.71 528.9 2133.2 499.33 2189.35 460.371C2203.85 450.308 2139.06 445.401 2165.43 374.734C2183.54 326.016 2216.67 282.998 2264.62 283.48Z" fill="#233862"/>
<path d="M2375.45 798.43C2351.58 744.91 2340.16 729.77 2339.76 712.93C2339.45 699.61 2346.01 685.24 2358.76 650.01C2361.72 641.753 2363.85 633.221 2365.11 624.54C2375.2 556.61 2335.75 482.28 2311.34 477.28C2300.79 474.73 2293.2 451.84 2293.34 412.28L2290.28 412.88L2238.88 423.06C2238.88 423.06 2240.05 439.24 2240.08 454.48C2240.08 467.18 2242.23 480.55 2236.47 480.74C2232.77 481.07 2230.59 481.29 2230.59 481.29C2230.59 481.29 2187.77 540.85 2184.13 596.21C2180.49 651.57 2218.45 675.63 2183.84 786.27C2148.5 899.27 2388.63 828 2375.45 798.43Z" fill="#F9CDAF"/>
<path d="M2239.02 423.794C2239.02 423.794 2240.49 439.949 2240.8 455.186C2269.55 453.837 2284.29 427.316 2290.22 412.653L2239.02 423.794Z" fill="#E8945B"/>
<path d="M2295.42 406.964C2295.42 406.964 2310.05 382.866 2313.29 362.431C2315.6 347.846 2307.18 294.094 2253.16 302.868C2242.28 304.587 2231.92 308.729 2222.85 314.988C2211.25 323.147 2194.6 340.611 2214.45 387.278L2219.67 403.073L2295.42 406.964Z" fill="#233862"/>
<path d="M2229.68 438.431C2229.68 438.431 2297.75 438.286 2297 395.892C2296.26 353.499 2304.54 324.939 2261.05 323.243C2217.56 321.548 2209.39 337.864 2206.2 352.076C2203 366.289 2211.96 437.353 2229.68 438.431Z" fill="#F9CDAF"/>
<path d="M2230 322.755C2230 322.755 2249.56 372.137 2278.29 378.96C2307.03 385.783 2319.28 377.882 2319.28 377.882C2319.28 377.882 2297.02 360.876 2291.9 330.547C2291.94 330.536 2243.64 298.816 2230 322.755Z" fill="#233862"/>
<path d="M2234.73 326.707C2227.91 331.448 2222.16 337.554 2217.83 344.637C2211.8 354.212 2205.77 362.726 2207.04 381.436C2207.04 381.436 2192.41 347.894 2207.78 328.482C2224.13 307.852 2234.73 326.707 2234.73 326.707Z" fill="#233862"/>
<path d="M2315.18 1312.06C2298.06 1380.18 2272.28 1432.4 2272.28 1432.4L2249.84 1430.84C2249.84 1430.84 2260.84 1378.48 2260.21 1307.73C2259.77 1258.27 2253.65 1199.81 2234.11 1144C2167 952.2 2177.8 812.61 2177.8 812.61L2304.09 827.38L2309.98 828.07C2310.5 886.07 2311.98 964.82 2313.31 1026.4C2314.47 1081.78 2315.49 1123.26 2315.49 1123.26C2339.77 1175.55 2331 1249.37 2315.18 1312.06Z" fill="#999999"/>
<path d="M2464 855.29L2443.56 861.42C2443.56 861.42 2376.16 749.58 2370.03 720.48C2368.03 711.01 2363.13 692.05 2357.41 670.81C2345.58 626.81 2330.3 572.99 2330.3 572.99L2325.3 551.2L2308.14 476.9C2308.14 476.9 2341 480.26 2360.21 488.29C2366.58 490.95 2371.43 494.12 2373.13 497.84C2387.24 528.84 2401.34 607.22 2411.24 663.1C2416.76 694.25 2420.97 718.42 2423.17 723.54C2429.24 737.84 2448 816.48 2464 855.29Z" fill="#F9CDAF"/>
<path d="M2387.64 1301.18C2380.38 1378.68 2348.4 1428.79 2348.4 1428.79L2337.68 1436.59C2337.68 1436.59 2327.53 1381.99 2320.35 1317.03C2313.51 1255.29 2304.13 1189.95 2293.52 1170.03C2251.4 1090.94 2238.73 792.38 2238.73 792.38L2366.73 786.03C2379.61 807.68 2385.22 843.19 2386.56 883.56C2389.93 985.46 2365.97 1118.32 2362.39 1137.56C2362.18 1139.04 2362.48 1140.55 2363.23 1141.85C2388.77 1192.29 2392.42 1250 2387.64 1301.18Z" fill="#DBDBDB"/>
<path d="M2391.5 837.08C2391.72 841.39 2391.5 844.84 2390.7 847.31C2387.98 855.88 2378.62 859.79 2356 857.45C2342.18 856.01 2336 832.84 2333.26 813.08C2324.96 841.36 2313.29 857.187 2298.26 860.56C2276.33 865.44 2165.71 878.89 2158.47 826.3C2150.47 768.47 2174.35 666.06 2175.66 610.84C2172.73 593.946 2171.39 576.814 2171.66 559.67C2172.58 520.34 2185.25 497.49 2194.13 488.61C2209.81 482.61 2234.69 480.86 2234.6 481.01C2232.72 484.35 2226.39 503.73 2227.44 513.62C2230.71 544.33 2262.44 541.01 2290.25 522.44C2310.84 508.72 2322.48 478.82 2322.48 478.82C2322.48 478.82 2363.58 482.17 2373.21 497.91C2391.65 528.03 2406.03 608.07 2417.56 664.35C2389.56 679.75 2365.19 675.17 2357.56 673.13C2367.56 738 2390 807.55 2391.5 837.08Z" fill="#9F57C0"/>
<path d="M2285.21 1451.22H2270.88C2266.08 1450.46 2262.53 1449.07 2257.61 1448.43C2250.14 1447.43 2246.69 1450.51 2246.01 1451.22L2245.88 1451.36H2185C2183.47 1449.18 2184.94 1444.11 2186.38 1440.36C2186.86 1439.11 2187.63 1437.99 2188.61 1437.09C2189.6 1436.18 2190.78 1435.52 2192.07 1435.15C2198.53 1433.28 2211.25 1431.62 2222.91 1421.07C2229.47 1415.15 2254.57 1399.29 2254.57 1399.29H2254.7C2255.25 1399.29 2257.88 1400.1 2269.3 1409.74C2275.2 1414.74 2285.3 1402.74 2285.3 1402.74C2286.68 1404 2287.8 1405.52 2288.6 1407.21C2290.02 1410.11 2290.48 1413.39 2289.9 1416.56C2289 1422.04 2291.9 1432.23 2294.27 1439.13C2295.68 1443.3 2296.88 1446.27 2296.88 1446.27C2296.88 1446.27 2297.53 1449.68 2285.21 1451.22Z" fill="#1A2D4C"/>
<path d="M2288.57 1407.18C2285.15 1409.59 2277.93 1414.34 2273.14 1414.96C2266.67 1415.81 2254.58 1399.31 2254.58 1399.31H2254.71C2255.26 1399.31 2257.89 1400.12 2269.31 1409.76C2275.21 1414.76 2285.31 1402.76 2285.31 1402.76C2286.67 1404.01 2287.78 1405.51 2288.57 1407.18Z" fill="#466AA5"/>
<path d="M2361.67 1451.22H2347.34C2342.54 1450.46 2339 1449.07 2334.08 1448.43C2326.6 1447.43 2323.16 1450.51 2322.48 1451.22L2322.34 1451.36H2261.47C2259.94 1449.18 2261.41 1444.11 2262.85 1440.36C2263.33 1439.11 2264.1 1437.99 2265.09 1437.09C2266.08 1436.18 2267.26 1435.52 2268.55 1435.15C2275 1433.28 2287.73 1431.62 2299.38 1421.07C2305.94 1415.15 2331.04 1399.29 2331.04 1399.29H2331.18C2331.73 1399.29 2334.35 1400.1 2345.77 1409.74C2351.67 1414.74 2361.77 1402.74 2361.77 1402.74C2363.15 1404 2364.27 1405.52 2365.07 1407.21C2366.49 1410.11 2366.95 1413.38 2366.38 1416.56C2365.47 1422.04 2368.38 1432.23 2370.74 1439.13C2372.16 1443.3 2373.35 1446.27 2373.35 1446.27C2373.35 1446.27 2374 1449.68 2361.67 1451.22Z" fill="#233862"/>
<path d="M2062.62 587C2062.62 586.29 2072.98 564.87 2069.69 563.22C2066.4 561.57 2060.48 561.82 2059.8 565.57C2059.12 569.32 2062.62 587 2062.62 587Z" fill="#F9CDAF"/>
<path d="M2062.35 598.08C2062.35 595.98 2064.11 565.57 2058.7 559.19C2053.29 552.81 2042.23 543.72 2038.76 544C2035.29 544.28 2021.69 562.34 2025.76 576.18C2029.83 590.02 2047.09 608.74 2047.09 608.74L2062.35 598.08Z" fill="#F9CDAF"/>
<path d="M2365 1407.18C2361.58 1409.59 2354.36 1414.34 2349.57 1414.96C2343.11 1415.81 2331.01 1399.31 2331.01 1399.31H2331.15C2331.7 1399.31 2334.32 1400.12 2345.74 1409.76C2351.64 1414.76 2361.74 1402.76 2361.74 1402.76C2363.1 1404.01 2364.21 1405.51 2365 1407.18Z" fill="#466AA5"/>
<path d="M2391.5 837.08C2375.97 812.61 2366.87 782.99 2354.71 749.08C2323.38 661.72 2328.13 613.98 2335.71 612.22C2343.29 610.46 2357.63 673.13 2357.63 673.13C2367.56 738 2390 807.55 2391.5 837.08Z" fill="#8F4DB2"/>
<path d="M2182.46 621.35C2180.05 621.21 2177.66 620.849 2175.31 620.27C2174.79 620.15 2174.31 620.01 2173.74 619.86C2167.79 618.05 2162.18 615.239 2157.17 611.55C2146.77 604.12 2135.26 591.37 2135.26 591.37C2155.52 501.17 2194.17 488.62 2194.17 488.62C2194.17 488.62 2206.5 622.63 2182.46 621.35Z" fill="#9F57C0"/>
<path d="M2323.06 587.88L2348.12 679C2348.12 679 2400.32 682.6 2417.6 664.36L2386 583.23L2323.06 587.88Z" fill="#9F57C0"/>
<path d="M2175.31 620.27C2174.79 620.15 2174.31 620.01 2173.74 619.86C2167.79 618.049 2162.18 615.239 2157.17 611.55C2158.62 608.21 2160.71 605.189 2163.33 602.66C2169.45 596.96 2174.51 573.75 2176.63 575.66C2178.75 577.57 2175.31 620.27 2175.31 620.27Z" fill="#8F4DB2"/>
<path d="M2464 855.29C2464 855.29 2488.65 871.67 2492.42 878.58C2496.19 885.49 2505 910.92 2505 910.92C2505 910.92 2498.72 911.86 2492.44 900.92C2486.16 889.98 2465.44 890.92 2458.53 884.92C2451.62 878.92 2443.58 861.48 2443.58 861.48L2464 855.29Z" fill="#F9CDAF"/>
<path d="M2446.21 866.82C2446.21 866.82 2450.31 886.12 2455.34 891.82C2460.37 897.52 2467.27 906.89 2470.09 904.38C2472.91 901.87 2466.95 880.83 2466.95 880.83L2446.21 866.82Z" fill="#F9CDAF"/>
<path d="M2488.93 880.78C2489.56 881.72 2511.23 904.78 2511.23 904.78C2511.23 904.78 2503.38 908.33 2501.18 904.78C2498.98 901.23 2488.93 880.78 2488.93 880.78Z" fill="#F9CDAF"/>
<path d="M2085.3 571.213L2056.94 579.713C2056 579.993 2054.94 579.133 2054.5 577.783L2031.34 500.493C2030.94 499.153 2031.34 497.833 2032.34 497.553L2060.7 489.053C2061.64 488.773 2062.7 489.633 2063.14 490.973L2086.24 568.263C2086.67 569.613 2086.24 570.933 2085.3 571.213Z" fill="#DDDCDB"/>
<path d="M2080.47 572.663L2051.89 581.233C2050.03 581.783 2047.95 580.303 2047.24 577.913L2025.24 504.393C2024.53 502.013 2025.45 499.623 2027.3 499.073L2055.88 490.503C2057.74 489.953 2059.82 491.433 2060.53 493.823L2082.47 567.323C2083.24 569.723 2082.3 572.113 2080.47 572.663Z" fill="#777776"/>
<path d="M2049.84 531.913C2052.29 531.913 2054.28 529.764 2054.28 527.113C2054.28 524.462 2052.29 522.313 2049.84 522.313C2047.39 522.313 2045.4 524.462 2045.4 527.113C2045.4 529.764 2047.39 531.913 2049.84 531.913Z" fill="#DDDCDB"/>
<rect x="2026.47" y="502.007" width="12.5911" height="13.4518" rx="2" transform="rotate(-17.0139 2026.47 502.007)" fill="#C4C4C4"/>
<path d="M2030.95 506.947C2032.33 506.947 2033.45 505.827 2033.45 504.447C2033.45 503.066 2032.33 501.947 2030.95 501.947C2029.57 501.947 2028.45 503.066 2028.45 504.447C2028.45 505.827 2029.57 506.947 2030.95 506.947Z" fill="#858585"/>
<path d="M2032.95 512.947C2034.33 512.947 2035.45 511.827 2035.45 510.447C2035.45 509.066 2034.33 507.947 2032.95 507.947C2031.57 507.947 2030.45 509.066 2030.45 510.447C2030.45 511.827 2031.57 512.947 2032.95 512.947Z" fill="#858585"/>
<path d="M2036.95 507.947C2038.33 507.947 2039.45 506.827 2039.45 505.447C2039.45 504.066 2038.33 502.947 2036.95 502.947C2035.57 502.947 2034.45 504.066 2034.45 505.447C2034.45 506.827 2035.57 507.947 2036.95 507.947Z" fill="#858585"/>
<path d="M2035.51 546.33C2035.51 546.33 2048.63 526.15 2051.83 527.27C2056.41 528.87 2039.94 554.49 2039.94 554.49C2039.94 554.49 2052.14 535.35 2054.05 536.78C2058.39 540.07 2051.48 552.09 2044.62 561.31C2044.62 561.31 2056.9 550.07 2057.29 552.1C2058.7 559.19 2043.82 576.37 2043.82 576.37L2035.51 557.37V546.33Z" fill="#F9CDAF"/>
<path d="M2025.67 565.07C2026.3 562.61 2029.5 514.4 2030.88 518.97C2032.26 523.54 2035.51 548.82 2035.51 548.82L2025.67 565.07Z" fill="#F9CDAF"/>
<path d="M1430.25 1400.37C1416.17 1400.37 1402.4 1396.19 1390.69 1388.37C1378.98 1380.54 1369.85 1369.42 1364.46 1356.41C1359.07 1343.4 1357.66 1329.08 1360.41 1315.27C1363.16 1301.45 1369.94 1288.77 1379.9 1278.81C1389.86 1268.85 1402.54 1262.07 1416.36 1259.32C1430.17 1256.57 1444.49 1257.98 1457.5 1263.37C1470.51 1268.76 1481.63 1277.89 1489.46 1289.6C1497.28 1301.31 1501.46 1315.08 1501.46 1329.16C1501.44 1348.04 1493.93 1366.14 1480.58 1379.49C1467.23 1392.84 1449.13 1400.35 1430.25 1400.37ZM1430.25 1260.81C1416.73 1260.81 1403.51 1264.82 1392.27 1272.33C1381.03 1279.84 1372.26 1290.51 1367.09 1303C1361.91 1315.49 1360.56 1329.24 1363.19 1342.5C1365.83 1355.76 1372.34 1367.94 1381.9 1377.5C1391.45 1387.06 1403.63 1393.57 1416.89 1396.21C1430.15 1398.85 1443.9 1397.5 1456.39 1392.33C1468.88 1387.16 1479.56 1378.4 1487.07 1367.16C1494.59 1355.92 1498.6 1342.7 1498.6 1329.18C1498.58 1311.06 1491.38 1293.68 1478.56 1280.86C1465.75 1268.04 1448.37 1260.83 1430.25 1260.81Z" fill="white"/>
<path d="M1702.47 1063.36H1163.43V1068.18H1702.47V1063.36Z" fill="#EBF3FA"/>
<path d="M1145.77 1065.78C1145.77 1062.29 1146.81 1058.88 1148.74 1055.97C1150.68 1053.07 1153.44 1050.81 1156.67 1049.47C1159.89 1048.14 1163.44 1047.79 1166.86 1048.47C1170.29 1049.15 1173.43 1050.83 1175.9 1053.3C1178.37 1055.77 1180.05 1058.91 1180.73 1062.34C1181.41 1065.76 1181.06 1069.31 1179.73 1072.53C1178.39 1075.76 1176.13 1078.52 1173.23 1080.46C1170.32 1082.39 1166.91 1083.43 1163.42 1083.43C1161.1 1083.43 1158.81 1082.97 1156.67 1082.09C1154.52 1081.2 1152.58 1079.9 1150.94 1078.26C1149.3 1076.62 1148 1074.68 1147.11 1072.53C1146.23 1070.39 1145.77 1068.1 1145.77 1065.78Z" fill="#9F57C0"/>
<path d="M1684.83 1065.78C1684.83 1062.29 1685.87 1058.88 1687.8 1055.97C1689.74 1053.07 1692.5 1050.81 1695.73 1049.47C1698.95 1048.14 1702.5 1047.79 1705.92 1048.47C1709.35 1049.15 1712.49 1050.83 1714.96 1053.3C1717.43 1055.77 1719.11 1058.91 1719.79 1062.34C1720.47 1065.76 1720.12 1069.31 1718.79 1072.53C1717.45 1075.76 1715.19 1078.52 1712.29 1080.46C1709.38 1082.39 1705.97 1083.43 1702.48 1083.43C1700.16 1083.43 1697.87 1082.97 1695.73 1082.09C1693.58 1081.2 1691.64 1079.9 1690 1078.26C1688.36 1076.62 1687.06 1074.68 1686.17 1072.53C1685.29 1070.39 1684.83 1068.1 1684.83 1065.78Z" fill="#EBF3FA"/>
<path d="M1410 1069.65C1410 1066.16 1411.04 1062.75 1412.97 1059.84C1414.91 1056.94 1417.67 1054.68 1420.9 1053.34C1424.12 1052.01 1427.67 1051.66 1431.09 1052.34C1434.52 1053.02 1437.66 1054.7 1440.13 1057.17C1442.6 1059.64 1444.28 1062.78 1444.96 1066.21C1445.64 1069.63 1445.29 1073.18 1443.96 1076.4C1442.62 1079.63 1440.36 1082.39 1437.46 1084.33C1434.55 1086.26 1431.14 1087.3 1427.65 1087.3C1425.33 1087.3 1423.04 1086.84 1420.9 1085.96C1418.75 1085.07 1416.81 1083.77 1415.17 1082.13C1413.53 1080.49 1412.23 1078.55 1411.34 1076.4C1410.46 1074.26 1410 1071.97 1410 1069.65Z" fill="#EBF3FA"/>
<path d="M2852.58 1451.36H4.12C1.84459 1451.36 0 1453.2 0 1455.48V1459.52C0 1461.8 1.84459 1463.64 4.12 1463.64H2852.58C2854.86 1463.64 2856.7 1461.8 2856.7 1459.52V1455.48C2856.7 1453.2 2854.86 1451.36 2852.58 1451.36Z" fill="#999999"/>
<path d="M1118.49 266.99H1721.27" stroke="#E5E5E5" stroke-width="3" stroke-miterlimit="10"/>
<path d="M1118.49 287.99H1721.27" stroke="#E5E5E5" stroke-width="3" stroke-miterlimit="10"/>
<path d="M1118.49 308.99H1721.27" stroke="#E5E5E5" stroke-width="3" stroke-miterlimit="10"/>
<path d="M1118.49 329.99H1721.27" stroke="#E5E5E5" stroke-width="3" stroke-miterlimit="10"/>
<path d="M1118.49 350.99H1721.27" stroke="#E5E5E5" stroke-width="3" stroke-miterlimit="10"/>
<path d="M1118.49 371.99H1721.27" stroke="#E5E5E5" stroke-width="3" stroke-miterlimit="10"/>
<path d="M1118.49 392.99H1562.01" stroke="#E5E5E5" stroke-width="3" stroke-miterlimit="10"/>
<path d="M1118.49 411.99H1562.01" stroke="#E5E5E5" stroke-width="3" stroke-miterlimit="10"/>
<path d="M1118.49 432.99H1562.01" stroke="#E5E5E5" stroke-width="3" stroke-miterlimit="10"/>
<path d="M1118.49 453.99H1562.01" stroke="#E5E5E5" stroke-width="3" stroke-miterlimit="10"/>
<path d="M1118.49 474.99H1562.01" stroke="#E5E5E5" stroke-width="3" stroke-miterlimit="10"/>
<path d="M277.08 1345.48C277.08 1345.48 282.77 1264.55 243.36 1183.55" stroke="#4F4F4F" stroke-width="3.05" stroke-linecap="round" stroke-linejoin="round"/>
<path d="M239.22 1166.17C235.58 1201.5 285.03 1150.84 275.15 1208.28C267.26 1254.1 219.2 1234.94 210 1258.87C210 1258.87 183.73 1234.37 191.52 1194.26C197.52 1163.26 242.83 1130.87 239.22 1166.17Z" fill="#D5D5D5"/>
<path d="M190.84 1219.47C192.53 1207.87 196.94 1195.67 206.36 1188.3C211.63 1184.18 218.94 1180.65 225.82 1181.88C229.709 1182.58 233.385 1184.17 236.56 1186.52C240.1 1189.12 248.41 1193.09 255.42 1193.78C263.76 1194.62 268.8 1192.63 276.42 1198.17C278.72 1157.23 235.88 1199.17 239.28 1166.17C242.9 1130.87 197.58 1163.26 191.56 1194.26C189.902 1202.56 189.658 1211.09 190.84 1219.47Z" fill="#D5D5D5"/>
<path d="M351.59 1358.69C351.59 1358.69 329.67 1213.69 377.73 1006.18" stroke="#4F4F4F" stroke-width="3.05" stroke-linecap="round" stroke-linejoin="round"/>
<path d="M361.85 995.22C387.19 1021.22 315.41 1012.05 359.85 1051.77C395.27 1083.46 421.59 1037.6 444.16 1050.9C444.16 1050.9 449.66 1014.57 417.95 987.42C393.42 966.41 336.53 969.25 361.85 995.22Z" fill="#D5D5D5"/>
<path d="M434.47 1007.18C425.77 998.95 414.47 991.98 402.24 992.06C395.4 992.06 387.32 993.94 382.59 999.29C379.92 1002.31 377.989 1005.91 376.95 1009.81C375.77 1014.15 371.62 1022.61 366.46 1027.61C360.31 1033.61 354.99 1035.19 352.46 1044.44C324.63 1013.12 385.54 1019.44 361.85 995.22C336.52 969.22 393.41 966.41 417.92 987.42C424.52 993.017 430.117 999.7 434.47 1007.18Z" fill="#D5D5D5"/>
<path d="M338.38 1309C338.38 1309 333.31 998.93 348.5 923.86" stroke="#4F4F4F" stroke-width="3.05" stroke-linecap="round" stroke-linejoin="round"/>
<path d="M346.77 902.45C326.93 936.28 399.83 908.05 363.58 961.23C334.65 1003.65 295.15 962.39 274.93 982.23C274.93 982.23 259.76 945.58 285.93 908.86C306.23 880.43 366.61 868.66 346.77 902.45Z" fill="#E1E1E1"/>
<path d="M273.77 933.83C280.77 922.95 290.77 912.72 303.66 909.62C310.83 907.9 319.78 907.71 326.13 912.09C329.718 914.569 332.679 917.849 334.78 921.67C337.17 925.91 343.7 933.67 350.44 937.67C358.44 942.31 364.44 942.67 369.5 951.67C390.5 911.58 328.32 934.06 346.83 902.49C366.65 868.7 306.27 880.49 286.03 908.86C280.558 916.428 276.412 924.872 273.77 933.83Z" fill="#E1E1E1"/>
<path d="M313.61 1308C313.61 1308 268.25 1197.21 273.46 1103" stroke="#4F4F4F" stroke-width="2.44" stroke-linecap="round" stroke-linejoin="round"/>
<path d="M279.92 1092.26C261.72 1115.11 318.46 1101.98 286.11 1137.36C260.32 1165.6 235.54 1131.01 218.54 1143.48C218.54 1143.48 211.22 1114.85 234.41 1090.54C252.33 1071.75 298.1 1069.43 279.92 1092.26Z" fill="#CBCBCA"/>
<path d="M222.77 1107.7C229.08 1100.41 237.55 1093.92 247.36 1093C252.84 1092.49 259.46 1093.29 263.65 1097.19C266.027 1099.41 267.864 1102.15 269.02 1105.19C271.259 1110.34 274.625 1114.92 278.87 1118.6C284.28 1122.86 288.64 1123.72 291.4 1130.93C311.15 1103.6 262.9 1113.61 279.88 1092.28C298.04 1069.46 252.32 1071.77 234.36 1090.57C229.55 1095.58 225.63 1101.37 222.77 1107.7Z" fill="#CBCBCA"/>
<path d="M383.77 1337.47C383.77 1337.47 409.62 1190.16 378.13 1076.58" stroke="#4F4F4F" stroke-width="3.05" stroke-linecap="round" stroke-linejoin="round"/>
<path d="M373.59 1090.18C391.97 1072.31 385.41 1122.99 413.52 1091.69C435.94 1066.69 403.6 1048.06 413.02 1032.14C404.612 1031.37 396.142 1032.63 388.331 1035.84C380.52 1039.05 373.6 1044.09 368.16 1050.55C353.28 1067.86 355.22 1108 373.59 1090.18Z" fill="#A4A3A2"/>
<path d="M382.12 1038.91C376.32 1045.05 371.37 1053.01 371.41 1061.66C371.41 1066.48 372.71 1072.2 376.49 1075.54C378.62 1077.43 381.16 1078.8 383.91 1079.54C388.606 1081.04 392.901 1083.58 396.47 1086.98C400.67 1091.33 401.81 1095.08 408.38 1096.89C386.21 1116.51 390.77 1073.49 373.61 1090.17C355.25 1108.03 353.31 1067.85 368.19 1050.56C372.142 1045.92 376.852 1041.98 382.12 1038.91Z" fill="#A4A3A2"/>
<path d="M337.86 1341.44C337.86 1341.44 299.69 1199.79 324 988.23" stroke="#4F4F4F" stroke-width="3.05" stroke-linecap="round" stroke-linejoin="round"/>
<path d="M308.42 960.55C301.87 996.44 356.59 948.55 341.85 1006.55C330.1 1052.85 282.41 1029.39 271.07 1053.14C271.07 1053.14 246.13 1025.95 257.29 985.49C266 954.21 315 924.66 308.42 960.55Z" fill="#A4A3A2"/>
<path d="M254.6 1011.24C257.24 999.49 262.75 987.35 273 980.55C278.72 976.75 286.49 973.72 293.43 975.55C297.364 976.569 301.006 978.49 304.07 981.16C307.5 984.16 315.71 988.84 322.82 990.16C331.29 991.68 336.6 990.05 343.93 996.34C349.57 954.6 302.34 994.08 308.45 960.58C315.01 924.72 265.99 954.27 257.33 985.58C254.972 993.917 254.049 1002.59 254.6 1011.24Z" fill="#A4A3A2"/>
<path d="M354.12 1328.33C354.12 1328.33 369.3 1303.03 354.12 1132.68" stroke="#1C3839" stroke-width="3.05" stroke-linecap="round" stroke-linejoin="round"/>
<path d="M351.77 1107.6C362.34 1142.53 302.57 1101.09 323.77 1157.09C340.68 1201.76 385.4 1173.09 399.38 1195.39C399.38 1195.39 421.08 1165.54 405.38 1126.62C393.21 1096.55 341.18 1072.71 351.77 1107.6Z" fill="#C3C3C3"/>
<path d="M410.94 1151.91C406.94 1140.55 400.15 1129.1 389.18 1123.51C383.07 1120.38 375.02 1118.25 368.32 1120.83C364.539 1122.29 361.147 1124.61 358.41 1127.6C355.33 1130.92 347.72 1136.54 340.78 1138.6C332.54 1141.06 327.07 1140.04 320.52 1147.11C310.2 1106.28 361.58 1140.17 351.72 1107.58C341.17 1072.69 393.21 1096.51 405.34 1126.58C408.623 1134.65 410.516 1143.21 410.94 1151.91Z" fill="#C3C3C3"/>
<path d="M317.57 1302.82C317.57 1302.82 289.14 1214.82 303.64 1094.82" stroke="#4F4F4F" stroke-width="3.24" stroke-linecap="round" stroke-linejoin="round"/>
<path d="M289.29 1100.34C306.47 1080.53 304.21 1132.76 330.12 1098.34C350.79 1070.92 316.18 1054.75 324.41 1037.69C315.768 1037.64 307.242 1039.68 299.559 1043.64C291.875 1047.59 285.261 1053.35 280.28 1060.41C266.64 1079.38 272.14 1120.17 289.29 1100.34Z" fill="#D5D5D5"/>
<path d="M293.51 1047.35C288.12 1054.12 283.78 1062.66 284.57 1071.47C285.03 1076.39 286.82 1082.12 290.96 1085.18C293.296 1086.93 296.008 1088.1 298.88 1088.61C303.791 1089.75 308.388 1091.96 312.34 1095.09C317 1099.17 318.48 1102.89 325.34 1104.15C304.48 1126.08 305.34 1081.85 289.34 1100.34C272.19 1120.15 266.7 1079.34 280.34 1060.46C283.955 1055.37 288.408 1050.94 293.51 1047.35Z" fill="#D5D5D5"/>
<path d="M332.47 1333.68C336.252 1288.41 337.688 1242.97 336.77 1197.55" stroke="#1C3839" stroke-width="3.05" stroke-linecap="round" stroke-linejoin="round"/>
<path d="M345.05 1182.08C332.61 1214.65 392.39 1179.2 368.4 1231.15C349.24 1272.58 308.57 1242.15 293.73 1262.52C293.73 1262.52 275.06 1232.61 292.66 1196.58C306.25 1168.71 357.46 1149.55 345.05 1182.08Z" fill="#E1E1E1"/>
<path d="M285.6 1220.29C290.14 1209.72 297.44 1199.29 308.26 1194.69C314.26 1192.12 322.12 1190.69 328.26 1193.56C331.773 1195.2 334.855 1197.64 337.26 1200.68C339.97 1204.06 346.85 1209.93 353.32 1212.37C361 1215.27 366.32 1214.68 372.06 1221.87C384.66 1183.66 333.38 1212.47 344.99 1182.08C357.42 1149.5 306.2 1168.71 292.6 1196.58C288.939 1204.03 286.572 1212.05 285.6 1220.29Z" fill="#CBCBCA"/>
<path d="M377.51 1365.55C377.51 1365.55 362.25 1285.85 391.65 1200.77" stroke="#4F4F4F" stroke-width="3.05" stroke-linecap="round" stroke-linejoin="round"/>
<path d="M376.33 1186.09C408.44 1208.7 330.33 1213.19 385.33 1246.64C429.33 1273.3 448.19 1219.32 474.83 1228.98C474.83 1228.98 473.47 1189.29 434.36 1166.68C404.16 1149.2 344.25 1163.55 376.33 1186.09Z" fill="#CBCBCA"/>
<path d="M455.91 1184.41C445.03 1177.41 431.65 1172.22 418.64 1174.73C411.38 1176.14 403.13 1179.73 399.17 1186.3C396.932 1190.05 395.59 1194.27 395.25 1198.62C394.85 1203.47 392.11 1213.29 387.61 1219.62C382.25 1227.18 376.93 1229.95 376.07 1240.29C340.25 1212.51 406.3 1207.18 376.33 1186.08C344.25 1163.53 404.16 1149.19 434.4 1166.66C442.524 1171.31 449.798 1177.32 455.91 1184.41Z" fill="#CBCBCA"/>
<path d="M305.63 1334.66C305.63 1334.66 266.83 1219.14 279.49 1147.44" stroke="#4F4F4F" stroke-width="3.05" stroke-linecap="round" stroke-linejoin="round"/>
<path d="M279.26 1134.91C281.77 1159.5 247.37 1124.26 254.26 1164.22C259.74 1196.13 293.19 1182.79 299.62 1199.44C305.232 1193.53 309.334 1186.35 311.574 1178.52C313.815 1170.68 314.129 1162.42 312.49 1154.44C308.3 1132.88 276.77 1110.33 279.26 1134.91Z" fill="#A4A3A2"/>
<path d="M313 1172C311.82 1163.91 308.77 1155.43 302.2 1150.29C298.52 1147.42 293.43 1144.97 288.66 1145.82C285.95 1146.3 283.392 1147.41 281.19 1149.06C277.23 1151.69 272.734 1153.39 268.03 1154.06C262.24 1154.64 258.72 1153.25 253.45 1157.12C251.85 1128.62 281.68 1157.79 279.31 1134.84C276.8 1110.26 308.31 1132.84 312.51 1154.4C313.667 1160.2 313.833 1166.15 313 1172Z" fill="#A4A3A2"/>
<path d="M247.05 1269.55C247.05 1269.55 226.86 1346.41 256.05 1409.67C268.26 1436.09 310.24 1441.11 331.21 1441.15C352.87 1441.15 384.97 1433.15 396.87 1418.66C438.53 1368.06 415.03 1270.11 415.03 1270.11L247.05 1269.55Z" fill="#B6B6B6"/>
<path opacity="0.74" d="M415 1270.15L391.38 1270.07C383.73 1342.48 337.92 1421.07 261.87 1418.56C278.35 1437.29 312.87 1441.15 331.22 1441.19C352.87 1441.19 384.97 1433.19 396.87 1418.7C438.55 1368.1 415 1270.15 415 1270.15Z" fill="#D2D2D2"/>
<path d="M385.48 1438.82C385.48 1444.41 381.84 1448.94 377.34 1448.94H283.6C279.11 1448.94 275.46 1444.41 275.46 1438.82V1436C275.46 1430.41 279.11 1425.88 283.6 1425.88H377.33C381.84 1425.88 385.47 1430.41 385.47 1436L385.48 1438.82Z" fill="#C0C0BE"/>
<path fill-rule="evenodd" clip-rule="evenodd" d="M1282.93 104.41C1282.82 104.76 1282.41 106.41 1282.02 107.94C1281.63 109.47 1279.64 117.1 1277.6 124.77C1273.6 139.98 1267.77 161.77 1264.02 176.04C1262.71 181.04 1261.6 185.26 1261.54 185.45C1261.48 185.64 1262.01 185.8 1271.66 185.8H1281.88L1282.6 182.86C1283.6 178.99 1289.15 157.12 1289.53 155.77C1289.69 155.198 1289.94 154.66 1290.29 154.18L1290.74 153.64H1299.66C1309.6 153.64 1310.36 153.53 1312.91 152.3C1315.56 150.906 1317.58 148.542 1318.53 145.7C1318.87 144.84 1319.99 140.82 1321.01 136.76C1322.03 132.7 1323.8 125.76 1324.95 121.3C1326.95 113.54 1327.02 113.18 1326.95 111.53C1326.97 110.555 1326.76 109.589 1326.34 108.71C1325.26 106.889 1323.69 105.415 1321.8 104.46L1320.41 103.78H1283.15L1282.93 104.41ZM1342.13 103.94C1340.51 104.452 1339.11 105.481 1338.13 106.87C1336.52 110.18 1335.12 113.586 1333.94 117.07C1333.16 119.34 1330.86 127.65 1325.75 146.67C1321.37 162.97 1315.49 184.19 1314.98 185.55C1314.91 185.75 1317.08 185.8 1325.43 185.8H1336L1336.19 185.05L1339.04 174.25C1344.29 154.38 1344.24 154.54 1345.27 153.98C1345.95 153.761 1346.67 153.706 1347.37 153.82C1349.15 153.93 1349.79 154.16 1349.79 154.72C1349.79 154.92 1347.79 161.97 1345.46 170.38C1343.13 178.79 1341.13 185.7 1341.13 185.74C1341.13 185.78 1345.91 185.8 1351.75 185.8C1357.59 185.8 1362.38 185.8 1362.38 185.71C1362.38 185.62 1366.68 169.35 1370.08 156.71C1371.92 149.86 1374.71 139.38 1376.27 133.41C1377.83 127.44 1379.55 120.99 1380.08 119.07C1381.39 114.32 1381.69 112.74 1381.73 110.41C1381.73 107.79 1381.46 106.73 1380.3 105.51C1378.62 103.76 1379.7 103.85 1359.92 103.81C1350.42 103.81 1342.4 103.86 1342.13 103.94ZM1391.63 104.11C1391.43 104.63 1387.36 119.8 1380.09 147.17L1371.74 178.53C1370.74 182.36 1369.87 185.53 1369.88 185.65C1369.89 185.77 1374.48 185.8 1380.1 185.8H1390.32L1390.55 184.95C1390.67 184.49 1392.48 177.95 1394.55 170.37C1396.62 162.79 1400.27 149.55 1402.61 140.9C1407.74 121.9 1407.92 121.33 1408.44 120.77C1408.96 120.21 1410.63 119.98 1412.18 120.19L1413.18 120.33L1413.05 121.1C1412.85 122.38 1403.05 158.83 1397.67 178.49C1396.67 182.19 1395.82 185.35 1395.82 185.49C1395.82 185.63 1397.26 185.78 1406.24 185.78H1416.66L1416.95 184.73C1418.52 179.12 1422.62 164.2 1426.58 149.73C1429.23 140.04 1432.24 129.06 1433.26 125.34C1434.28 121.62 1435.26 117.71 1435.44 116.67C1436.36 111.02 1435.9 107.84 1433.88 105.85C1432.9 104.938 1431.67 104.33 1430.35 104.1C1429.06 103.76 1427.72 103.74 1410.35 103.74C1392.82 103.76 1391.75 103.78 1391.63 104.11ZM1446.44 104.11C1446.25 104.48 1444.67 110.2 1440.51 125.57C1436.62 139.93 1425.21 181.88 1424.66 183.8C1424.4 184.72 1424.18 185.55 1424.18 185.64C1424.18 185.73 1434.1 185.8 1446.18 185.8H1468.18L1469.03 185.3C1470.42 184.351 1471.57 183.091 1472.38 181.62C1473.74 178.91 1475.25 173.87 1479.57 157.72C1481.88 149.08 1489.57 120.84 1491.03 115.72C1491.93 112.55 1492.03 112.04 1492.03 110.04C1492.03 108.04 1492.03 107.75 1491.55 106.86C1490.84 105.595 1489.69 104.642 1488.31 104.19C1487.23 103.78 1487.01 103.77 1466.87 103.77C1447.79 103.76 1446.61 103.78 1446.44 104.11ZM1505.83 103.95C1503.69 104.62 1502.56 105.82 1500.83 109.28C1499.16 112.52 1498.83 113.35 1495.95 123.77C1493.62 132.07 1478.95 185.51 1478.95 185.7C1478.95 185.89 1483.66 185.78 1489.41 185.75L1499.87 185.7L1500.12 184.9C1500.26 184.46 1501.92 178.19 1503.82 170.96C1508 154.96 1508.14 154.53 1508.58 154.2C1509.02 153.87 1513 153.84 1513.34 154.2C1513.5 154.417 1513.58 154.681 1513.58 154.95C1513.58 155.22 1511.67 162.25 1509.35 170.55C1507.03 178.85 1505.12 185.68 1505.12 185.73C1505.12 185.78 1509.87 185.8 1515.68 185.73L1526.24 185.68L1529.17 174.83C1530.77 168.83 1534.17 156.12 1536.7 146.52C1539.23 136.92 1541.89 126.97 1542.58 124.41C1545.41 114.08 1545.52 113.53 1545.58 110.31C1545.58 107.7 1545.58 107.31 1545.15 106.6C1544.52 105.477 1543.5 104.629 1542.28 104.22C1541.28 103.86 1540.35 103.84 1523.85 103.81C1514.16 103.81 1506.11 103.86 1505.83 104V103.95ZM1554.95 104.11C1554.89 104.3 1554.08 107.68 1553.16 111.63C1552.24 115.58 1551.43 118.95 1551.37 119.14C1551.31 119.33 1551.84 119.49 1561.5 119.49C1567.14 119.49 1571.75 119.49 1571.75 119.56C1571.75 119.63 1563.82 134.44 1554.14 152.56C1544.46 170.68 1536.53 185.56 1536.53 185.64C1536.53 185.72 1540.46 185.83 1547.05 185.83H1557.57L1557.85 185.38C1558 185.13 1566.78 167.95 1577.36 147.2C1587.94 126.45 1597.24 108.2 1598.05 106.63L1599.52 103.79H1577.28C1556.28 103.76 1555 103.78 1555 104.11H1554.95ZM1303.72 120.2C1303.84 120.286 1303.94 120.396 1304.02 120.523C1304.09 120.651 1304.14 120.793 1304.16 120.94C1304.16 121.17 1303.46 124.1 1302.6 127.44C1301.74 130.78 1300.93 134.06 1300.8 134.7C1300.7 135.244 1300.51 135.767 1300.24 136.25C1299.37 136.867 1298.3 137.138 1297.24 137.01C1295.93 137.01 1295.45 136.65 1295.45 135.65C1295.45 135.26 1296.16 131.81 1297.03 127.97C1298.94 119.54 1298.75 119.89 1301.51 119.89C1302.26 119.792 1303.02 119.899 1303.72 120.2ZM1358.12 120.52C1358.24 120.609 1358.33 120.728 1358.39 120.865C1358.45 121.002 1358.48 121.152 1358.46 121.3C1358.46 122.3 1354.92 136.1 1354.57 136.46C1354.22 136.82 1350.82 137.1 1350.22 136.73C1349.82 136.48 1350 135.35 1351.58 128.46C1353.16 121.57 1353.38 120.86 1354.35 120.33C1355.6 120.086 1356.9 120.151 1358.12 120.52ZM1468.23 120.58C1468.52 120.87 1468.51 121.02 1468.13 122.43C1467.31 125.52 1457.76 160.35 1456.41 165.19C1455.96 167 1455.39 168.78 1454.72 170.52C1454.46 170.82 1454.04 170.86 1451.62 170.86H1448.82L1449.08 169.92C1449.23 169.4 1451.34 161.71 1453.77 152.84C1459.91 130.46 1462.12 122.52 1462.47 121.53C1462.91 120.33 1463.36 120.15 1465.84 120.21C1467.43 120.25 1468 120.33 1468.23 120.58ZM1522.36 120.58C1522.57 120.83 1522.27 122.2 1520.7 128.3C1519.7 132.37 1518.7 135.92 1518.5 136.17C1518.09 136.82 1517.5 136.97 1515.78 136.91C1514.19 136.91 1513.71 136.61 1513.71 135.83C1513.71 135.56 1516.52 123.67 1517.06 121.63C1517.39 120.38 1517.61 120.28 1519.99 120.28C1521.65 120.29 1522.17 120.35 1522.36 120.59V120.58Z" fill="#955DBA"/>
<path d="M2300.36 555.5L2185.86 332L2044 495L2052.36 492.5L2054.05 495L2076.55 568.135L2300.36 555.5Z" fill="url(#paint0_linear)"/>
</g>
<defs>
<linearGradient id="paint0_linear" x1="2038.36" y1="536" x2="2252.36" y2="456.5" gradientUnits="userSpaceOnUse">
<stop stop-color="#D8B1EA" stop-opacity="0.45"/>
<stop offset="1" stop-color="#9F57C0" stop-opacity="0"/>
</linearGradient>
<clipPath id="clip0">
<rect width="2856.7" height="1463.64" fill="white"/>
</clipPath>
</defs>
</svg>
