<svg xmlns="http://www.w3.org/2000/svg" viewBox="0 0 2401.51 1148.56"><defs><style>.cls-1{isolation:isolate;}.cls-2{fill:#efefef;}.cls-3{fill:#a0a0a0;stroke-width:2px;}.cls-12,.cls-21,.cls-3,.cls-7{stroke:#585859;}.cls-12,.cls-16,.cls-21,.cls-29,.cls-3,.cls-4,.cls-51,.cls-63,.cls-7,.cls-8{stroke-miterlimit:10;}.cls-14,.cls-4,.cls-6{fill:#e4e4e4;}.cls-16,.cls-4{stroke:#787878;}.cls-12,.cls-16,.cls-21,.cls-4,.cls-63,.cls-7,.cls-8{stroke-width:3px;}.cls-17,.cls-28,.cls-29,.cls-30,.cls-31,.cls-5{fill:#fff;}.cls-6{opacity:0.33;}.cls-12,.cls-21,.cls-51,.cls-63,.cls-7,.cls-8{fill:none;}.cls-12,.cls-7,.cls-8{stroke-linecap:round;}.cls-8{stroke:#6f6f70;}.cls-11,.cls-24,.cls-9{fill:#dfdfde;}.cls-10{fill:#f9f9f9;}.cls-11,.cls-12,.cls-15,.cls-21,.cls-22,.cls-26{opacity:0.8;}.cls-13{fill:#c1bfbf;}.cls-15{fill:#b7b7b7;}.cls-16,.cls-19{fill:#b7b3b3;}.cls-17{opacity:0.79;}.cls-18{fill:#f7f7f7;opacity:0.69;}.cls-20{fill:#444;}.cls-23{fill:#a8a7a7;opacity:0.29;}.cls-24{opacity:0.27;}.cls-25{fill:#919191;}.cls-26,.cls-27{fill:#585859;}.cls-28{opacity:0.39;}.cls-29{stroke:#58585a;}.cls-30{opacity:0.86;}.cls-31{opacity:0.87;}.cls-32{fill:#d1d1d1;}.cls-33{fill:#dbe0e3;}.cls-34{fill:#676868;}.cls-35{fill:#535454;}.cls-36{fill:#eaeaea;}.cls-37{fill:#808081;}.cls-38{fill:#b7b7b8;}.cls-39{fill:#a3a5a6;}.cls-40{fill:#c5c4c6;}.cls-41,.cls-53,.cls-62{fill:#9d80b0;}.cls-41,.cls-48,.cls-52,.cls-64{opacity:0.55;}.cls-41,.cls-48,.cls-52,.cls-58,.cls-59,.cls-62,.cls-64,.cls-66{mix-blend-mode:multiply;}.cls-42{fill:#f6f5f7;}.cls-43{fill:#fdac74;}.cls-44{fill:#e05311;}.cls-45{fill:#e4e3e5;}.cls-46{fill:#c9dffd;}.cls-47{fill:#2ca9dc;}.cls-48{fill:#c7c7c9;}.cls-49{fill:#3c4252;}.cls-50{fill:#ffbdb3;}.cls-51{stroke:#2967ac;}.cls-54,.cls-59{fill:#cecece;}.cls-55{fill:#717171;}.cls-56{fill:#e8eaed;}.cls-57{fill:#d8d9da;}.cls-58,.cls-64{fill:#c3c3c3;}.cls-58,.cls-59,.cls-62,.cls-66{opacity:0.16;}.cls-60{fill:#d6d7d8;}.cls-61{fill:#adadad;}.cls-63{stroke:#adadad;}.cls-65{fill:#e0e0e0;}.cls-66{fill:#d5d5d5;}.cls-67{fill:#d8d8d8;}</style></defs><g class="cls-1"><g id="Слой_2" data-name="Слой 2"><rect class="cls-2" x="1507.23" y="410.49" width="488.31" height="731.89"/><path class="cls-3" d="M733,1080.24c-3.41,46.26-5.13,128-6.18,150.58-11.41-35-40.66-59.94-72.88-94.44-7.43-7.94-20.3-7.71-27.1.77-4.31,5.37-5.59,10.11-3.56,12.82,3.5,4.66,57.85,50.85,63.82,61.86,13.57,15.81,38,45,40,69,4.74,57.79-5.31,186.09-3.07,244.32h46.18c.54-15.53-.55-91.57-.83-99-1-24.26-15.73-153.76,7-223.64,12.21-37.73,36.48-92,36.66-133.89-15.55,28-21.2,62.4-34.6,92-11.45,25.27-29.49,52.92-34.66,80.13-2-22,9.13-126.11,13.54-157.92a12.18,12.18,0,0,0-3.15-10h0A12.21,12.21,0,0,0,733,1080.24Z" transform="translate(-418.19 -429.54)"/><path class="cls-4" d="M1091.28,659.88A85.28,85.28,0,0,0,973.94,545.32,82.68,82.68,0,0,0,830.42,492a67.08,67.08,0,0,0-128.08,23.46,46.38,46.38,0,0,0-60.22,20.79,86.35,86.35,0,0,0-129,100.31,78.77,78.77,0,0,0-4.77,146.86,66,66,0,0,0-7.57,49.15,63.79,63.79,0,1,0-.89,123.06,52.14,52.14,0,0,0,4.4,11.75c-38.35,18.54-64.46,55.13-64.46,97.25,0,60.84,54.47,110.17,121.65,110.17,31.51,0,60.23-10.85,81.83-28.65a70.63,70.63,0,0,0,105.56,27.56,49.15,49.15,0,0,0,92.47-9.11c3.37.11,6.74.18,10.13.18,170.88,0,309.41-138.53,309.41-309.41A308.13,308.13,0,0,0,1091.28,659.88Z" transform="translate(-418.19 -429.54)"/><path class="cls-5" d="M1098.39,685.45a76.38,76.38,0,0,0-105.1-102.62,74.06,74.06,0,0,0-128.56-47.76,60.08,60.08,0,0,0-114.73,21,41.53,41.53,0,0,0-53.93,18.63A77.35,77.35,0,0,0,580.5,664.56a70.56,70.56,0,0,0-4.27,131.55,59.16,59.16,0,0,0-6.78,44,57.14,57.14,0,1,0-.79,110.23,46.31,46.31,0,0,0,3.94,10.52c-34.35,16.61-57.74,49.38-57.74,87.11,0,54.5,48.79,98.69,109,98.69,28.22,0,53.94-9.72,73.3-25.67a63.25,63.25,0,0,0,94.54,24.69,44,44,0,0,0,82.84-8.16c3,.1,6,.16,9.06.16,153.07,0,277.15-124.08,277.15-277.15A275.94,275.94,0,0,0,1098.39,685.45Z" transform="translate(-418.19 -429.54)"/><path class="cls-6" d="M957.42,633.38a43.28,43.28,0,0,0-40.2,27.26,72.89,72.89,0,0,0-42-13.17c-38.48,0-69.67,28.92-69.67,64.6a61,61,0,0,0,12.31,36.62,62.63,62.63,0,1,0,87.84,21.4C927,760.43,942.26,741,944.53,718a43.31,43.31,0,1,0,12.89-84.66Z" transform="translate(-418.19 -429.54)"/><polygon class="cls-5" points="207.15 350.62 197.35 360.22 195.5 365.47 197.66 373.75 202.25 377.69 209.4 378.17 215.57 377.09 216.72 379.98 220.74 385.87 224.61 387.68 230.62 387.07 235.52 382.98 237.66 377.35 209.67 347.74 207.15 350.62"/><path class="cls-7" d="M756,836s-7.07,30-37.74,26.39c-23.31-2.72-28.91-22-30.25-31.09a4.36,4.36,0,0,0-5.09-3.69c-11.48,2.08-51,18.42-61.79-25C616,782,625.94,766.65,650.61,748.5" transform="translate(-418.19 -429.54)"/><path class="cls-8" d="M917.22,660.64a72.89,72.89,0,0,0-42-13.17c-38.48,0-69.67,28.92-69.67,64.6a61,61,0,0,0,12.31,36.62A62.51,62.51,0,0,0,788.9,801.4" transform="translate(-418.19 -429.54)"/><rect class="cls-9" x="282.04" y="460.11" width="426" height="250.2"/><rect class="cls-10" x="708" y="363.26" width="584.19" height="777.3"/><rect class="cls-11" x="686.95" y="102.61" width="835.11" height="379.12"/><path class="cls-5" d="M1329,911.26h-227.4V532.15H1187C1211.44,599.67,1286.28,798.26,1329,911.26Z" transform="translate(-418.19 -429.54)"/><polyline class="cls-12" points="684.7 300.56 684.7 102.61 1519.81 102.61 1519.81 481.73 684.7 481.73 684.7 326.96"/><polygon class="cls-2" points="1129.12 432.72 1568.16 17.62 2007.2 432.72 1129.12 432.72"/><path class="cls-13" d="M2461,903.06a16.06,16.06,0,0,1-11-4.3L1986.35,495.38c-147.69,134.46-319.22,264-324.38,267.4a16.12,16.12,0,0,1-18.63-26.3c10.62-8.79,204.1-184.65,332.15-301.25a16.15,16.15,0,0,1,21.82.1L2471.92,875.1a16.13,16.13,0,0,1-11,28Z" transform="translate(-418.19 -429.54)"/><rect class="cls-10" x="1000.82" y="363.26" width="584.19" height="777.3"/><polygon class="cls-9" points="1000.1 363.26 1292.19 87.09 1584.29 363.26 1000.1 363.26"/><rect class="cls-14" x="1123.23" y="784.64" width="335.37" height="178.3"/><rect class="cls-5" x="1285.54" y="784.64" width="10.75" height="178.31"/><rect class="cls-5" x="1127.19" y="839.4" width="324.06" height="5.38"/><rect class="cls-5" x="1127.19" y="897.99" width="324.06" height="5.38"/><rect class="cls-5" x="1210.94" y="784.64" width="10.75" height="178.31"/><rect class="cls-5" x="1360.13" y="784.64" width="10.75" height="178.31"/><rect class="cls-5" x="1447.85" y="784.64" width="10.75" height="178.31"/><rect class="cls-5" x="1123.23" y="784.64" width="10.75" height="178.31"/><rect class="cls-5" x="1123.25" y="952.2" width="335.37" height="10.75"/><rect class="cls-5" x="1123.25" y="784.64" width="335.37" height="10.75"/><rect class="cls-14" x="787.84" y="784.64" width="148.63" height="178.3"/><rect class="cls-5" x="927.24" y="784.64" width="9.24" height="178.31"/><rect class="cls-5" x="789.59" y="839.4" width="143.62" height="5.38"/><rect class="cls-5" x="789.59" y="897.99" width="143.62" height="5.38"/><rect class="cls-5" x="856.79" y="784.64" width="9.23" height="178.31"/><rect class="cls-5" x="787.84" y="784.64" width="9.23" height="178.31"/><rect class="cls-5" x="787.85" y="952.2" width="148.63" height="10.75"/><rect class="cls-5" x="787.85" y="784.64" width="148.63" height="10.75"/><rect class="cls-14" x="787.84" y="529.3" width="148.63" height="178.3"/><rect class="cls-5" x="927.24" y="529.29" width="9.24" height="178.31"/><rect class="cls-5" x="789.59" y="584.06" width="143.62" height="5.38"/><rect class="cls-5" x="789.59" y="642.64" width="143.62" height="5.38"/><rect class="cls-5" x="856.79" y="529.29" width="9.23" height="178.31"/><rect class="cls-5" x="787.84" y="529.29" width="9.23" height="178.31"/><rect class="cls-5" x="787.85" y="696.85" width="148.63" height="10.75"/><rect class="cls-5" x="787.85" y="529.29" width="148.63" height="10.75"/><rect class="cls-14" x="1713.08" y="392.53" width="148.63" height="178.3"/><rect class="cls-5" x="1852.49" y="392.53" width="9.24" height="178.31"/><rect class="cls-5" x="1714.84" y="447.29" width="143.62" height="5.38"/><rect class="cls-5" x="1714.84" y="505.88" width="143.62" height="5.38"/><rect class="cls-5" x="1782.03" y="392.53" width="9.23" height="178.31"/><rect class="cls-5" x="1713.08" y="392.53" width="9.24" height="178.31"/><rect class="cls-5" x="1713.09" y="560.09" width="148.63" height="10.75"/><rect class="cls-5" x="1713.09" y="392.53" width="148.63" height="10.75"/><rect class="cls-10" x="305.87" y="710.35" width="402.12" height="427.29"/><rect class="cls-15" x="1584.32" y="601.18" width="431.59" height="171.6"/><path class="cls-5" d="M2258.17,1524.41H2102.48V1338.85a78.29,78.29,0,0,1,78.29-78.29h0a77.39,77.39,0,0,1,77.4,77.39Z" transform="translate(-418.19 -429.54)"/><path class="cls-14" d="M2243.37,1340v3.44H2117.24v-2.8a60.53,60.53,0,0,1,60.54-60.53h5.7A59.84,59.84,0,0,1,2243.37,1340Z" transform="translate(-418.19 -429.54)"/><rect class="cls-14" x="1699.06" y="933.39" width="126.12" height="50.69"/><rect class="cls-14" x="1699.06" y="1000.81" width="126.12" height="82.85"/><rect class="cls-16" x="1645.55" y="1091.98" width="233.18" height="16.8"/><rect class="cls-16" x="1625.82" y="1108.78" width="272.64" height="16.8"/><rect class="cls-16" x="1609.61" y="1125.58" width="305.05" height="16.8"/><rect class="cls-14" x="415.89" y="788.83" width="203.2" height="243.77"/><rect class="cls-5" x="606.48" y="788.82" width="12.63" height="243.77"/><rect class="cls-5" x="418.29" y="863.69" width="196.35" height="7.35"/><rect class="cls-5" x="418.29" y="943.79" width="196.35" height="7.35"/><rect class="cls-5" x="510.15" y="788.82" width="12.63" height="243.77"/><rect class="cls-5" x="415.89" y="788.82" width="12.63" height="243.77"/><rect class="cls-5" x="415.9" y="1017.9" width="203.2" height="14.7"/><rect class="cls-5" x="415.9" y="788.82" width="203.2" height="14.7"/><polygon class="cls-17" points="570.95 710.31 282.04 710.31 282.04 460.11 459.77 460.11 570.95 710.31"/><polygon class="cls-18" points="2015.91 601.18 2015.91 772.78 1730.34 772.78 1843.66 601.18 2015.91 601.18"/><path class="cls-19" d="M2658.85,1572.25H2603.2c-3-2.53,2.07-8.27,7.34-8.66a33,33,0,0,1,8.49,1c.77-10.17,5.14-55.89,21.62-54,18.53,2,0,20.13-5.24,30.84a253.12,253.12,0,0,0-9.84,24.66c1.5.32,3.06.64,4.65.94,2.46-7.54,11.6-32.91,23.22-31.43,13.64,1.73,8.16,11.9-1.51,17.93-7.1,4.44-15.81,10.76-19.95,13.8a59,59,0,0,0,10.88.88C2652.39,1567.93,2657.05,1570.74,2658.85,1572.25Z" transform="translate(-418.19 -429.54)"/><path class="cls-20" d="M2816.77,1578.09H618.82a2.92,2.92,0,0,1-2.92-2.92h0a2.92,2.92,0,0,1,2.92-2.92h2198a2.93,2.93,0,0,1,2.93,2.92h0A2.93,2.93,0,0,1,2816.77,1578.09Z" transform="translate(-418.19 -429.54)"/><path class="cls-7" d="M2261.74,680.34,2471.92,875.1A16.13,16.13,0,1,1,2450,898.76L1986.35,495.38c-44.94,40.91-96.08,85.36-140.07,121.94" transform="translate(-418.19 -429.54)"/><path class="cls-7" d="M1844.89,618.47l-33.48-34c54.88-49.86,114.4-104,164.08-149.25a16.15,16.15,0,0,1,21.82.1l221.05,204.82" transform="translate(-418.19 -429.54)"/><polyline class="cls-12" points="1995.55 607.76 1995.55 1142.38 1584.23 1142.38"/><line class="cls-12" x1="1995.55" y1="436.49" x2="1995.55" y2="570.84"/><line class="cls-12" x1="347.54" y1="460.11" x2="684.95" y2="460.11"/><polyline class="cls-12" points="708.03 482.31 708.03 710.31 282.04 710.31 282.04 460.11 313.46 460.11"/><polyline class="cls-21" points="415.89 957.32 415.89 788.83 619.09 788.83 619.09 1032.59 415.89 1032.59 415.89 990.08"/><polyline class="cls-12" points="1584.29 837.08 1584.29 1140.56 1000.1 1140.56 1000.1 363.26 1584.29 363.26 1584.29 778.4"/><polyline class="cls-12" points="787.84 552.56 787.84 529.3 936.47 529.3 936.47 707.6 787.84 707.6 787.84 589.43"/><polyline class="cls-12" points="936.47 906.39 936.47 962.95 787.84 962.95 787.84 784.64 936.47 784.64 936.47 882.95"/><polyline class="cls-12" points="1123.23 850.93 1123.23 784.64 1458.6 784.64 1458.6 962.95 1123.23 962.95 1123.23 931.04"/><polyline class="cls-12" points="1713.08 424.88 1713.08 392.53 1861.72 392.53 1861.72 570.84 1713.08 570.84 1713.08 458.96"/><path class="cls-12" d="M2258.17,1402.58v118.83H2102.48V1338.85a78.29,78.29,0,0,1,78.29-78.29h0a77.39,77.39,0,0,1,77.4,77.39v38.23" transform="translate(-418.19 -429.54)"/><rect class="cls-14" x="1123.84" y="484.08" width="335.37" height="178.3"/><rect class="cls-5" x="1123.84" y="486.08" width="10.75" height="178.31"/><path class="cls-14" d="M1795.5,943.54V1094H1623.9V946.44a86.76,86.76,0,0,1,28.28-64.3,80,80,0,0,1,8.92-7.09,67.38,67.38,0,0,1,9.57-5.92,86.49,86.49,0,0,1,40.43-9.89,82,82,0,0,1,40.21,10.32,53.06,53.06,0,0,1,9.57,6,78.63,78.63,0,0,1,8.06,6.56A84,84,0,0,1,1795.5,943.54Z" transform="translate(-418.19 -429.54)"/><path class="cls-5" d="M1798.35,921H1621.73l2.73-7.27a92.3,92.3,0,0,1,24.1-35.52,84,84,0,0,1,9.5-7.55,70.63,70.63,0,0,1,10.14-6.27,92.49,92.49,0,0,1,42.89-10.49,86.79,86.79,0,0,1,42.84,11,57.58,57.58,0,0,1,10.26,6.48,77.74,77.74,0,0,1,8.38,6.83,90.19,90.19,0,0,1,23.27,35.63Zm-160.68-10.75h145.11a80.35,80.35,0,0,0-17.54-24.16,68.36,68.36,0,0,0-7.43-6,48.77,48.77,0,0,0-8.85-5.6,76.52,76.52,0,0,0-37.87-9.79,81.57,81.57,0,0,0-37.91,9.28,59.13,59.13,0,0,0-8.83,5.46,74.2,74.2,0,0,0-8.53,6.75A81.79,81.79,0,0,0,1637.67,910.21Z" transform="translate(-418.19 -429.54)"/><path class="cls-5" d="M1760.88,875.58l-50.64,53.66-49.14-54.19a67.38,67.38,0,0,1,9.57-5.92l39.67,43.76,41-43.33A53.06,53.06,0,0,1,1760.88,875.58Z" transform="translate(-418.19 -429.54)"/><rect class="cls-5" x="1286.15" y="486.08" width="10.75" height="178.31"/><rect class="cls-5" x="1127.8" y="540.84" width="324.06" height="5.38"/><rect class="cls-5" x="1127.8" y="599.42" width="324.06" height="5.38"/><rect class="cls-5" x="1211.56" y="486.08" width="10.75" height="178.31"/><rect class="cls-5" x="1360.74" y="486.08" width="10.75" height="178.31"/><rect class="cls-5" x="1123.86" y="653.64" width="335.37" height="10.75"/><rect class="cls-5" x="1123.86" y="486.08" width="335.37" height="10.75"/><polyline class="cls-12" points="1166.9 662.38 1123.84 662.38 1123.84 484.08 1459.21 484.08 1459.21 662.38 1236.02 662.38"/><rect class="cls-5" x="1446.85" y="486.08" width="10.75" height="172.94"/><g class="cls-22"><path class="cls-7" d="M1624.46,913.69a92.3,92.3,0,0,1,24.1-35.52,84,84,0,0,1,9.5-7.55,70.63,70.63,0,0,1,10.14-6.27,92.49,92.49,0,0,1,42.89-10.49,86.79,86.79,0,0,1,42.84,11,57.58,57.58,0,0,1,10.26,6.48,77.74,77.74,0,0,1,8.38,6.83,90.19,90.19,0,0,1,23.27,35.63Z" transform="translate(-418.19 -429.54)"/></g><path class="cls-23" d="M1473.77,792.79s226.62-131.93,235.35-138.08S1938,759.61,1938,759.61L1707.77,577.28l-267,215.51Z" transform="translate(-418.19 -429.54)"/><polygon class="cls-23" points="1459.21 219.86 1568.16 156.38 1884.11 340.72 1568.16 65.84 1428.1 187.78 1459.21 219.86"/><polygon class="cls-23" points="926.57 484.27 1000.1 1140.56 1000.1 481.73 926.57 484.27"/><polyline class="cls-12" points="708 1142.64 305.87 1142.64 305.87 710.35 708 710.35 708 1143.24 708.03 710.31 570.95 710.31"/><path class="cls-13" d="M1377.08,835a16.14,16.14,0,0,1-9.72-29c10.64-8.78,204.11-184.64,332.16-301.24a16.15,16.15,0,0,1,21.82.09L2047.48,807a16.13,16.13,0,0,1-21.92,23.67L1706.79,572C1568.45,690.86,1391.16,828.81,1386,832.25A16,16,0,0,1,1377.08,835Z" transform="translate(-418.19 -429.54)"/><g class="cls-22"><path class="cls-7" d="M1657.32,543.11l42.2-38.41a16.15,16.15,0,0,1,21.82.09L2047.48,807a16.13,16.13,0,0,1-21.92,23.67L1706.79,572C1568.45,690.86,1391.16,828.81,1386,832.25a16.13,16.13,0,0,1-18.64-26.31c8.85-7.3,144.11-130.12,263.05-238.34" transform="translate(-418.19 -429.54)"/></g><path class="cls-24" d="M1332,909.77h-227.4V530.66H1190C1214.44,598.18,1289.28,796.77,1332,909.77Z" transform="translate(-418.19 -429.54)"/><path class="cls-14" d="M726.35,1570.8s-7.45-13.57,2.58-15.68c0,0-8.83.43-13.31-12.21-.15-.44-.3-.9-.45-1.37-4.3-14,16.62-22.06,16.62-22.06s-8-18.06,11.46-20.92l6.59,2.58s.86-22.64,15.77-22.07S782.8,1492,782.8,1492s16.33-1.72,14.33,12.32c0,0,13.47,6.88,14.9,14.9,0,0,16,3.93,11.57,20.92s-12.72,12.77-12.72,12.77l6.31,5.28s4.58,15.19-9.75,14.9h-78.8Z" transform="translate(-418.19 -429.54)"/><path class="cls-5" d="M736.06,1570.8s-7.45-13.57,2.58-15.68c0,0-8.83.43-13.3-12.21-.16-.44-.31-.9-.46-1.37-4.29-14,16.62-22.06,16.62-22.06s-8-18.06,11.47-20.92l6.59,2.58s.86-22.64,15.76-22.07,17.19,12.9,17.19,12.9,16.34-1.72,14.33,12.32c0,0,13.47,6.88,14.9,14.9,0,0,16,3.93,11.57,20.92s-12.71,12.77-12.71,12.77l6.3,5.28s4.59,15.19-9.74,14.9H738.35Z" transform="translate(-418.19 -429.54)"/><path class="cls-25" d="M828.08,1533.85c0-8.49-6.26-16.15-14.78-18.4a19.75,19.75,0,0,0-13.61-13.32,11.85,11.85,0,0,0,.15-1.89,12.31,12.31,0,0,0-14.92-12c-2.73-7.68-9.32-13.72-17.57-13.72-10.23,0-18.93,9.39-19.67,20.83a15.7,15.7,0,0,0-19.09,20.88c-9,3.23-15.25,11.68-15.25,21,0,6.53,3.4,13,9,17.45a12.31,12.31,0,0,0,1.21,13.93h-8a2.24,2.24,0,1,0,0,4.48H825.84a2.24,2.24,0,1,0,0-4.48h-8a12.32,12.32,0,0,0-1.64-17.33,19.32,19.32,0,0,0,11.86-17.41Zm-19.72,14.57a2.24,2.24,0,0,0,0,4.48,7.85,7.85,0,0,1,0,15.69H787.47l11.9-29.75,12.68-6.34a2.24,2.24,0,1,0-2-4l-10.2,5.1v-9.82a2.24,2.24,0,0,0-4.48,0v13l-2.47,6.17-6.73-13.46a2.24,2.24,0,0,0-4,2l8.52,17-8,20.07H773v-7.85a2.24,2.24,0,1,0-4.48,0v7.85H759l-6.24-24.93v-13.17a2.24,2.24,0,1,0-4.48,0v9.82l-10.2-5.1a2.24,2.24,0,1,0-2,4l12.52,6.26,5.78,23.11H733.06a7.85,7.85,0,0,1,0-15.69,2.24,2.24,0,1,0,0-4.48,12.33,12.33,0,0,0-7.83,2.81c-4.61-3.57-7.4-8.81-7.4-14,0-9.79,8.57-17.92,18.6-17.92a17.75,17.75,0,0,1,6,1,2.24,2.24,0,0,0,1.5-4.23,22.3,22.3,0,0,0-7.47-1.28,22.05,22.05,0,0,0-3.44.27,11.21,11.21,0,0,1,15.82-14.42,2.24,2.24,0,0,0,3.36-2.11c0-.53-.06-1.09-.06-1.66,0-9.72,7-17.93,15.24-17.93,6.31,0,12,5.19,13.91,12.61a2.23,2.23,0,0,0,3.08,1.5,7.87,7.87,0,0,1,11,7.18,8.77,8.77,0,0,1-.08,1.15l-1,0a19.07,19.07,0,0,0-19,19.05,2.24,2.24,0,0,0,4.48,0,14.59,14.59,0,0,1,14.57-14.57c7.16,0,13.74,5.13,15,11.9a2.25,2.25,0,0,0,1.8,1.79c7.16,1.33,12.57,7.48,12.57,14.32,0,7.9-7,14.57-15.24,14.57Z" transform="translate(-418.19 -429.54)"/><path class="cls-25" d="M770.71,1545a2.24,2.24,0,0,0,2.24-2.24v-10.08a2.24,2.24,0,0,0-.65-1.59l-6.55-6.54,6.86-10.84a2.32,2.32,0,0,0,.34-1.2v-13.45a2.24,2.24,0,1,0-4.48,0v12.8l-6,9.44L752.13,1511a2.24,2.24,0,1,0-3.17,3.17l19.51,19.52v9.15A2.24,2.24,0,0,0,770.71,1545Z" transform="translate(-418.19 -429.54)"/><path class="cls-14" d="M1858.86,1571.05s-8.64-15.75,3-18.2c0,0-10.25.51-15.44-14.16-.18-.51-.35-1-.52-1.59-5-16.29,19.28-25.6,19.28-25.6s-9.31-20.94,13.3-24.26l7.64,3s1-26.27,18.29-25.6,19.95,15,19.95,15,19-2,16.62,14.29c0,0,15.62,8,17.29,17.29,0,0,18.52,4.57,13.41,24.27s-14.74,14.81-14.74,14.81l7.31,6.13s5.32,17.62-11.3,17.29h-91.43Z" transform="translate(-418.19 -429.54)"/><path class="cls-5" d="M1870.13,1571.05s-8.64-15.75,3-18.2c0,0-10.25.51-15.44-14.16-.18-.51-.35-1-.52-1.59-5-16.29,19.28-25.6,19.28-25.6s-9.31-20.94,13.3-24.26l7.64,3s1-26.27,18.29-25.6,19.94,15,19.94,15,19-2,16.63,14.29c0,0,15.62,8,17.28,17.29,0,0,18.53,4.57,13.42,24.27s-14.75,14.81-14.75,14.81l7.32,6.13s5.32,17.62-11.3,17.29h-91.43Z" transform="translate(-418.19 -429.54)"/><path class="cls-25" d="M1976.88,1528.18c0-9.84-7.26-18.74-17.14-21.35a22.88,22.88,0,0,0-15.78-15.44,14.72,14.72,0,0,0,.17-2.2,14.32,14.32,0,0,0-14.3-14.3,14.47,14.47,0,0,0-3,.32c-3.17-8.91-10.81-15.92-20.38-15.92-11.86,0-22,10.89-22.82,24.17a18.21,18.21,0,0,0-22.14,24.22c-10.42,3.75-17.69,13.55-17.69,24.4,0,7.58,4,15.13,10.44,20.25a14.28,14.28,0,0,0,1.42,16.15h-9.26a2.6,2.6,0,1,0,0,5.2h127.9a2.6,2.6,0,1,0,0-5.2H1965a14.29,14.29,0,0,0-1.9-20.1c8-3.48,13.75-11.33,13.75-20.2Zm-22.87,16.9a2.6,2.6,0,0,0,0,5.2,9.1,9.1,0,0,1,0,18.2h-24.24l13.8-34.51,14.72-7.36A2.6,2.6,0,0,0,1956,1522l-11.83,5.92v-11.4a2.6,2.6,0,0,0-5.2,0v15.1l-2.87,7.16-7.81-15.62a2.6,2.6,0,0,0-4.65,2.33l9.88,19.75-9.31,23.28h-11.24v-9.1a2.6,2.6,0,1,0-5.2,0v9.1h-11l-7.23-28.92v-15.28a2.6,2.6,0,1,0-5.19,0v11.39l-11.84-5.91a2.6,2.6,0,0,0-2.33,4.65l14.53,7.26,6.7,26.81h-24.74a9.1,9.1,0,0,1,0-18.2,2.6,2.6,0,0,0,0-5.2,14.31,14.31,0,0,0-9.09,3.26c-5.34-4.14-8.59-10.21-8.59-16.26,0-11.36,10-20.8,21.58-20.8a20.61,20.61,0,0,1,6.93,1.19,2.6,2.6,0,1,0,1.73-4.9,25.67,25.67,0,0,0-8.66-1.48,26.56,26.56,0,0,0-4,.3,13,13,0,0,1,18.34-16.72,2.61,2.61,0,0,0,3.91-2.45c0-.62-.08-1.27-.08-1.93,0-11.27,8.1-20.8,17.68-20.8,7.33,0,14,6,16.14,14.63a2.6,2.6,0,0,0,3.58,1.74,9.11,9.11,0,0,1,12.78,8.33,9.8,9.8,0,0,1-.1,1.33l-1.2,0a22.12,22.12,0,0,0-22.1,22.09,2.6,2.6,0,0,0,5.2,0,16.92,16.92,0,0,1,16.9-16.89c8.31,0,15.94,6,17.39,13.8a2.62,2.62,0,0,0,2.08,2.08c8.32,1.54,14.58,8.68,14.58,16.61,0,9.16-8.09,16.9-17.67,16.9Z" transform="translate(-418.19 -429.54)"/><path class="cls-25" d="M1910.33,1541.15a2.59,2.59,0,0,0,2.6-2.6v-11.7a2.57,2.57,0,0,0-.76-1.83l-7.59-7.59,8-12.58a2.64,2.64,0,0,0,.4-1.39v-15.6a2.6,2.6,0,0,0-5.2,0v14.85l-6.92,11-12-12a2.6,2.6,0,0,0-3.67,3.68l22.63,22.63v10.62A2.6,2.6,0,0,0,1910.33,1541.15Z" transform="translate(-418.19 -429.54)"/><polygon class="cls-23" points="582.54 708.81 706.81 708.81 706.77 980.74 582.54 708.81"/><circle class="cls-26" cx="1123.79" cy="858.41" r="2.25"/><circle class="cls-26" cx="1173.79" cy="663.41" r="2.25"/><circle class="cls-27" cx="787.9" cy="583.38" r="1.7"/><circle class="cls-27" cx="936.47" cy="899.57" r="1.89"/><circle class="cls-27" cx="1712.81" cy="452.63" r="1.59"/><circle class="cls-27" cx="1840.12" cy="967.7" r="1.73"/><circle class="cls-27" cx="1583.96" cy="829.94" r="1.98"/><circle class="cls-27" cx="1837.65" cy="245.46" r="1.66"/><circle class="cls-27" cx="1219.46" cy="131.61" r="2.4"/><circle class="cls-27" cx="684.87" cy="320.66" r="1.79"/><circle class="cls-27" cx="415.31" cy="983.72" r="2.1"/><circle class="cls-27" cx="1995.55" cy="599.84" r="2.21"/><circle class="cls-27" cx="320.86" cy="460.3" r="2.12"/><polygon class="cls-28" points="1564.66 146.09 1880.61 330.42 1992.05 438.03 1992.05 1132.09 1580.74 372.05 1556.33 353.93 1556.33 353.93 1443.35 254.12 1470.7 200.83 1564.66 146.09"/><path class="cls-29" d="M1300.74,1550.57a9.19,9.19,0,0,0-3.69.75,15.67,15.67,0,0,0-28.13-12.75,9.36,9.36,0,0,0-15.82-3.93,12.47,12.47,0,0,0-21.62-4.72,11.86,11.86,0,0,0,.14-1.35,12.57,12.57,0,0,0-25.13-.18,12.1,12.1,0,0,0,.31,2.88,9.36,9.36,0,0,0-12.94-.2,12.54,12.54,0,1,0-24.76,3.34,9.42,9.42,0,0,0-16,6.73c0,.2,0,.4.06.6a9.26,9.26,0,0,0-3.2-.6,9.43,9.43,0,0,0-9.43,9.43c0,.2,0,.39.06.59a9.41,9.41,0,1,0-3.2,18.26h163.37a9.43,9.43,0,0,0,0-18.85Z" transform="translate(-418.19 -429.54)"/><path class="cls-25" d="M1300.74,1547.42a18.85,18.85,0,0,0-31.18-14.25,12.56,12.56,0,0,0-9.66-4.6,12.76,12.76,0,0,0-2.69.32c-.29.06-2.71.91-2.8.94a15.73,15.73,0,0,0-13.37-7.54,15.36,15.36,0,0,0-7,1.67,15.68,15.68,0,0,0-30.47,2,11.57,11.57,0,0,0-7.66.26,15.64,15.64,0,0,0-30.08,2.81,12.57,12.57,0,0,0-15.47,8.75l-.06.22a12.68,12.68,0,0,0-12.57,9.42,12.57,12.57,0,0,0-.39,25.14h163.37a12.57,12.57,0,0,0,0-25.14Zm0,18.85H1137.37a6.28,6.28,0,0,1,0-12.56,6.19,6.19,0,0,1,2.13.4,3.15,3.15,0,0,0,4.21-3.14c0-.09-.06-.33-.06-.4a6.2,6.2,0,0,1,8.42-5.88.15.15,0,0,1,.09,0,6.28,6.28,0,0,1,4.06,5.86h6.28a12.56,12.56,0,0,0-6.13-10.76,6.28,6.28,0,0,1,12.42,1.33h6.28a12.57,12.57,0,0,0-3-8,9.35,9.35,0,0,1,18.45-3,12.45,12.45,0,0,0-2.9,7.94h6.28a6.29,6.29,0,0,1,12.57,0h6.28a12.44,12.44,0,0,0-3-8,9.4,9.4,0,1,1,18.69-1.4h0a15.65,15.65,0,0,0-3.14,9.43h6.28a9.39,9.39,0,0,1,2.2-6s0,0,.06,0a9.29,9.29,0,0,1,15.65,2.08,12.51,12.51,0,0,0-2.2,7.1h6.28a6.26,6.26,0,0,1,1.74-4.32h0a6.12,6.12,0,0,1,8.66-.31,6,6,0,0,1,1.36,1.85,18.72,18.72,0,0,0-2.35,9.07h6.28a12.57,12.57,0,0,1,25.13,0,12.18,12.18,0,0,1-.44,3.12,3.14,3.14,0,0,0,4.27,3.67,6.28,6.28,0,1,1,2.46,12.06Z" transform="translate(-418.19 -429.54)"/><path class="cls-19" d="M1174.31,1549a9.43,9.43,0,0,0-9.43,9.42h6.29a3.14,3.14,0,0,1,6.28,0h6.28A9.42,9.42,0,0,0,1174.31,1549Z" transform="translate(-418.19 -429.54)"/><path class="cls-19" d="M1205.73,1545.81a9.43,9.43,0,0,0-9.43,9.42h6.28a3.15,3.15,0,0,1,6.29,0h6.28A9.42,9.42,0,0,0,1205.73,1545.81Z" transform="translate(-418.19 -429.54)"/><path class="cls-19" d="M1237.14,1549a9.42,9.42,0,0,0-9.42,9.42H1234a3.15,3.15,0,0,1,6.29,0h6.28A9.43,9.43,0,0,0,1237.14,1549Z" transform="translate(-418.19 -429.54)"/><path class="cls-19" d="M1281.13,1549a9.43,9.43,0,0,0-9.43,9.42H1278a3.14,3.14,0,1,1,6.28,0h6.28A9.42,9.42,0,0,0,1281.13,1549Z" transform="translate(-418.19 -429.54)"/><rect class="cls-19" x="800.11" y="1113.13" width="6.28" height="6.28"/><rect class="cls-19" x="765.55" y="1113.13" width="6.28" height="6.28"/><polygon class="cls-30" points="1568.16 181.94 1529.33 203.28 1771.25 302.24 1568.16 181.94"/><polygon class="cls-31" points="1271.18 265.64 1308.63 247.12 1434.29 302.24 1271.18 265.64"/><polygon class="cls-28" points="1068.55 363.26 1584.23 989.95 1584.29 1140.56 1380.16 1140.56 1000.1 560.09 1000.1 377.75 1018.56 363.26 1068.55 363.26"/><path class="cls-32" d="M1508.16,1319.61s23.74,41.49,19,55.8-20.69,15.22-20.69,15.22Z" transform="translate(-418.19 -429.54)"/><path class="cls-33" d="M1520.47,1574.93h-33.14c-2.38-1.61.64-17.36.64-17.36s9-3.43,10.61,3.55,11.52,9.19,16.79,10C1519,1571.75,1520.11,1573.73,1520.47,1574.93Z" transform="translate(-418.19 -429.54)"/><path class="cls-33" d="M1471.32,1574.93h-33.15c-2.37-1.61.64-17.36.64-17.36s9-3.43,10.61,3.55,11.52,9.19,16.79,10C1469.82,1571.75,1471,1573.73,1471.32,1574.93Z" transform="translate(-418.19 -429.54)"/><path class="cls-34" d="M1511.55,1414.3s-1.49,18.59-3.24,40.93c-2.38,30.35-8.8,105.6-8.8,105.6s-4.2,3.59-13.52,1.63a294.19,294.19,0,0,1-10.31-55.59c0-.49-.07-1-.11-1.46-2.21-30.17-5.64-93.68-5.64-93.68Z" transform="translate(-418.19 -429.54)"/><path class="cls-35" d="M1512.06,1407.88s-2,25-3.75,47.35l-32.63,51.64c0-.49-.07-1-.11-1.46-2.21-30.17-5.64-93.68-5.64-93.68Z" transform="translate(-418.19 -429.54)"/><path class="cls-34" d="M1502.55,1407.88s-23.67,58.92-31.23,81.25c-5.39,15.91-20.59,71.71-20.59,71.71s-6.61,2-12.17-1.87c0,0-5.65-57,5.77-73.09,6.06-8.53,1.5-88.67,26.08-89.35S1502.55,1407.88,1502.55,1407.88Z" transform="translate(-418.19 -429.54)"/><path class="cls-36" d="M1492,1321a14.8,14.8,0,0,1-10.2,1.37,21.23,21.23,0,0,1-6.91-2.91,20.16,20.16,0,0,1-2.78-2.1s.12-.18.32-.53c1.07-1.82,4.31-8.39,2.87-18.93,0-.14,1,.06,2.6.43,4.7,1.11,14.14,3.79,14.56,3.91h0s.12,2.21.51,6.19c0,.35.07.72.1,1.1s.1,1,.16,1.47C1493.66,1315.16,1492,1321,1492,1321Z" transform="translate(-418.19 -429.54)"/><path class="cls-37" d="M1493,1308.46c-7,1.61-17.48-8.74-17.48-8.74a11.08,11.08,0,0,1,2.4-1.36c4.7,1.11,14.14,3.79,14.56,3.91h0S1492.57,1304.48,1493,1308.46Z" transform="translate(-418.19 -429.54)"/><path class="cls-32" d="M1515.25,1398c-.51,6.75-1.93,11.59-5.06,11.59a105.39,105.39,0,0,1-30.52,5,77,77,0,0,1-11.67-1.25c-3.9-.66-7-1.33-7-1.33-3.34-.77-7-2.83-6.54-6.64.26-2,.45-4.64.58-7.65l0-.59c.37-8.82.31-21,.35-32.62,0-7.15.1-14.11.35-20,0,0-3.29-23,.36-26.81,4.26-4.42,16.79-5.78,17.58-5.61l.71-.15s10.9,6,18.83,1.5c0,0,11.56,2.64,14.89,6.15,1.15,1.21,5.73,8.65,5.86,16.81.17,11.39-.28,24.32-.28,24.32.13,1.85.32,4.23.54,7,.23,2.9.49,6.18.71,9.59.11,1.72.21,3.48.29,5.24A134.19,134.19,0,0,1,1515.25,1398Z" transform="translate(-418.19 -429.54)"/><path class="cls-38" d="M1473.78,1312.13s11.81,12.18,20.25,9.68c0,0,1.13-1.64-2.67-2.17S1483.45,1319.33,1473.78,1312.13Z" transform="translate(-418.19 -429.54)"/><path class="cls-36" d="M1495.34,1301.71a36.09,36.09,0,0,1-6.56,1.53c-5.37.72-12.44.29-14.66-6.21-3.74-11-8.52-17.51,2.49-22,5.89-2.39,9.66-2.52,12.22-1.61a9,9,0,0,1,4.53,3.92C1495.49,1280.71,1499.79,1299.79,1495.34,1301.71Z" transform="translate(-418.19 -429.54)"/><path class="cls-35" d="M1494.19,1270.75c2.49.61,3.6,4.52,1.24,6.15-4.24,2.92-9.43,1.78-11.34,2.63-2.74,1.21-3.23,5.8-3.28,7.26s-.24,2.69-4,1.82a1.76,1.76,0,0,0-1.34.08c-1.55.91.42,5.35,1,6.31,0,0,.85,3.17-1,4.72-.23.18-4,1.81-13-11.94a12.78,12.78,0,0,1-.58-11.7c2.18-4.68,8.92-10.48,17-10.48C1485.36,1265.6,1488.93,1269.48,1494.19,1270.75Z" transform="translate(-418.19 -429.54)"/><path class="cls-36" d="M1483.5,1389.9s8.88,5.86,12.31,6.23c2.34.26,11.55-.12,11.6-1.28.07-1.65-5.63-3.38-7.1-4s-2.63-1.42-2.62-2.06,5.71,1.48,5.09.09-5.88-3.81-7.15-4-5.38,1.16-7,.42S1483.5,1389.9,1483.5,1389.9Z" transform="translate(-418.19 -429.54)"/><path class="cls-38" d="M1487.4,1384.76c1.18,2.21-3.9,5.14-3.9,5.14s-14,6.67-28.44,7.81l0-.59c.37-8.82.31-21,.35-32.62C1455.44,1364.5,1485.45,1381.1,1487.4,1384.76Z" transform="translate(-418.19 -429.54)"/><path class="cls-32" d="M1459.22,1315.58s-6.08,2.57-13.31,16.08-14.07,42.12-11.14,46.78,27.62,15.3,49.14,12.46c0,0,5.34-4.86,4.26-6.74,0,0-36.08-14.71-36.1-16.47s12.87-16.92,13.6-24.46S1459.22,1315.58,1459.22,1315.58Z" transform="translate(-418.19 -429.54)"/><path class="cls-5" d="M1494.93,1349.76s-.43,4.63,0,5.83,12.72,1.47,13,.34.77-4.54,0-5.14S1494.93,1349.76,1494.93,1349.76Z" transform="translate(-418.19 -429.54)"/><path class="cls-5" d="M1503,1392.74h-2.76a12.48,12.48,0,0,1-12.44-12.44v-11.92c0-6.84.15-12.92,7.5-15.18l12.93,1c11.17,3.08,7.21,7.36,7.21,14.2v11.92A12.48,12.48,0,0,1,1503,1392.74Z" transform="translate(-418.19 -429.54)"/><path class="cls-5" d="M1508,1354s3,.78,5.22-.42c3.15-1.73,6.9-2.71,7.56-3.5,1.11-1.34,6.54-6.86,6.54-6.86l2.6,1.74s-2.51,10.2-4.54,12-5.67,8.29-11.8,9.21C1510.36,1366.68,1508,1354,1508,1354Z" transform="translate(-418.19 -429.54)"/><path class="cls-5" d="M1527.29,1343.23s-1-2.57-.17-2.91,1.24,1.54,1.24,1.54,2.05-4.25,4.13-2.42-2.6,5.53-2.6,5.53Z" transform="translate(-418.19 -429.54)"/><path class="cls-5" d="M1494.87,1353.34s-3,.78-5.22-.42c-3.14-1.73-6.9-2.7-7.56-3.5-1.11-1.34-6.54-6.86-6.54-6.86l-2.6,1.74s2.51,10.2,4.54,12,5.67,8.3,11.81,9.21C1492.48,1366,1494.87,1353.34,1494.87,1353.34Z" transform="translate(-418.19 -429.54)"/><path class="cls-5" d="M1475.55,1342.56s1-2.57.17-2.9-1.24,1.53-1.24,1.53-2-4.25-4.13-2.41,2.6,5.52,2.6,5.52Z" transform="translate(-418.19 -429.54)"/><path class="cls-5" d="M1513.3,1375.41s7.23,3.17,11,4.29c3.56,1,8,3.55,8.05,4s.14,3.94-1.67,4.63-21.38,3.49-24.28,2.35C1506.45,1390.63,1508.54,1376.59,1513.3,1375.41Z" transform="translate(-418.19 -429.54)"/><path class="cls-5" d="M1532.13,1376.3a8.47,8.47,0,0,0-5.48,2.77,2.08,2.08,0,0,1-2.3.63s-5.43,3.47-2,10c0,0,7.31-.46,8.35-1.44S1532.13,1376.3,1532.13,1376.3Z" transform="translate(-418.19 -429.54)"/><path class="cls-39" d="M1530.73,1388.28a6,6,0,0,0,4.31-4.52c.66-3.66,0-7.12-2.42-7.42a4.07,4.07,0,0,0-4.59,2.74C1527.37,1380.82,1525.44,1388.45,1530.73,1388.28Z" transform="translate(-418.19 -429.54)"/><path class="cls-5" d="M1502.64,1325.07s7.3-.32,10.08,6.61,3.32,18.86-3.13,20.74c-4.39,1.28-9.13.38-13.38-1.25-2.24-.86-3-2.75-4.28-4.24C1483.7,1337.33,1486.36,1325.93,1502.64,1325.07Z" transform="translate(-418.19 -429.54)"/><path class="cls-35" d="M1487.84,1373.68s14.34,3.08,27.62,0a26.42,26.42,0,0,1,1.72,3.37c.41,1.64-.34,4.33-3.29,7.76-4.35,5-19.2,8.82-24.41,5.59C1484.92,1387.57,1483.89,1377.94,1487.84,1373.68Z" transform="translate(-418.19 -429.54)"/><path class="cls-5" d="M1503.88,1379.79a78.37,78.37,0,0,1,10,5c3.24,1.81,7,5.22,7,5.63s-.73,3.87-2.64,4.15-21.63-1.33-24.21-3.08a5,5,0,0,1-3.37-4.26C1490.08,1382.29,1492.51,1375.83,1503.88,1379.79Z" transform="translate(-418.19 -429.54)"/><path class="cls-5" d="M1522.23,1383.22a8.47,8.47,0,0,0-6,1.49,2.08,2.08,0,0,1-2.38.1s-6.07,2.18-4.14,9.33c0,0,7.23,1.18,8.47.45S1522.23,1383.22,1522.23,1383.22Z" transform="translate(-418.19 -429.54)"/><path class="cls-39" d="M1520.46,1395.48a6,6,0,0,0,5.21-3.45c1.45-3.42,1.55-6.94-.73-7.77a4.07,4.07,0,0,0-5.08,1.65C1518.83,1387.47,1515.26,1394.48,1520.46,1395.48Z" transform="translate(-418.19 -429.54)"/><path class="cls-36" d="M1496.3,1341.53s-2.83-2.48-3.73-.68,1.16,4.44,2.83,4.47S1497.41,1342.32,1496.3,1341.53Z" transform="translate(-418.19 -429.54)"/><path class="cls-5" d="M1496.72,1341.43s-2.16-1.89-2.85-.51.89,3.38,2.16,3.41S1497.57,1342,1496.72,1341.43Z" transform="translate(-418.19 -429.54)"/><path class="cls-40" d="M1498.45,1363.07a.48.48,0,1,1-.48-.49A.48.48,0,0,1,1498.45,1363.07Z" transform="translate(-418.19 -429.54)"/><path class="cls-40" d="M1510.53,1363.07a.49.49,0,1,1-.49-.49A.49.49,0,0,1,1510.53,1363.07Z" transform="translate(-418.19 -429.54)"/><path class="cls-36" d="M1520.65,1372.19a4.94,4.94,0,0,0-2.74-3.24,31.46,31.46,0,0,0-5.25-2.07c-1.81-.33-5.51-2.5-5.81-1.37s2.61,2.44,2.62,3.68-8.17,4.29-8,5.58a5,5,0,0,0,5.72,3.41c3.17-.77,11.06-2.62,12.87-3.13C1521.08,1374.78,1521,1373.44,1520.65,1372.19Z" transform="translate(-418.19 -429.54)"/><path class="cls-34" d="M1610.62,1553.5a6.22,6.22,0,0,0-.31,4.91,6.8,6.8,0,0,1,.17,4.77,1.59,1.59,0,0,1-2.81.34l-7.59-11.43a2,2,0,0,1,.73-2.84c.9-.48,1.94-1,2.73-1.5,1.7-1,4.13-.24,4.13-.24Z" transform="translate(-418.19 -429.54)"/><path class="cls-37" d="M1631.72,1530.42c-2,6.31-20.38,26.14-20.38,26.14s-7.86-5.77-7.67-10c0,0,9.68-18,9.78-20.22,0-.53-1.08-2.69-2.75-5.71l-.72-1.27h0c-2.9-5.15-7.07-12.21-10.34-18.1-.08-.14-.16-.28-.23-.42-2.93-5.3-5.07-9.57-4.77-10.48.86-2.67,26-6.26,26-6.26S1633.73,1524.11,1631.72,1530.42Z" transform="translate(-418.19 -429.54)"/><path class="cls-41" d="M1610,1519.41c-2.9-5.15-7.07-12.21-10.34-18.1-.08-.14-.16-.28-.23-.42v-6.3l8.73-1.33Z" transform="translate(-418.19 -429.54)"/><path class="cls-34" d="M1578.22,1559.67s-1.38,5.72,0,8.1a6.78,6.78,0,0,1,.92,4.69,1.59,1.59,0,0,1-2.73.77l-9.28-10.1a2,2,0,0,1,.26-2.91c.82-.61,1.76-1.34,2.46-1.92a5.88,5.88,0,0,1,4.05-.88Z" transform="translate(-418.19 -429.54)"/><path class="cls-37" d="M1608.39,1487.87s-9.77,34-13.41,42.55c-2.54,5.95-14.77,33.46-14.77,33.46s-12.2-3.72-11.38-7.48c0,0,7.79-28.21,9.19-31.4,1.81-4.14.67-32.31,7.56-37.38S1608.39,1487.87,1608.39,1487.87Z" transform="translate(-418.19 -429.54)"/><path class="cls-36" d="M1608.33,1440.93s15.45-16.25,16.3-18.38,4.07-20.79,4.07-20.79l4,.15s1,22-.27,26.38-19.46,24.19-19.46,24.19Z" transform="translate(-418.19 -429.54)"/><path class="cls-36" d="M1605.45,1436.15a9.15,9.15,0,0,1-1.11-2.37,17,17,0,0,1-.63-5.45,19.13,19.13,0,0,1,.22-2.37l-10.64-4.38a33.49,33.49,0,0,1,.33,7.18,26.6,26.6,0,0,1-1.66,8.12l.18.48q-1.77.33-3.78.78l13.76,7.27,8-8.27S1609,1436.36,1605.45,1436.15Z" transform="translate(-418.19 -429.54)"/><path class="cls-38" d="M1604.34,1433.78c-5.81.32-10.72-5-10.72-5l10.09-.43A17,17,0,0,0,1604.34,1433.78Z" transform="translate(-418.19 -429.54)"/><path class="cls-36" d="M1585,1441.54s-12.8-14-18.81-18.19c0,0-9.26-18.34-10-19.54s-4.53,1.43-4.53,1.43,4.35,18.21,7.78,23.43,14.19,22.81,20.77,22.95S1585,1441.54,1585,1441.54Z" transform="translate(-418.19 -429.54)"/><path class="cls-36" d="M1606.89,1430.31s-11.32,4-16.08-4.86c-5.13-9.58-1-17.2,2.89-18,7.76-1.62,12.56,1,14.2,4S1613.14,1428.15,1606.89,1430.31Z" transform="translate(-418.19 -429.54)"/><path class="cls-35" d="M1593.14,1428.5s-1.68-3.87-1.7-6c0,0-3.34-3.6-1.65-4.7s2.81,1.1,3.18.62.37-8.1,2.53-8,10.27,1.86,13.49-1.42-6.16-14.26-20-8.57S1579.29,1421.68,1593.14,1428.5Z" transform="translate(-418.19 -429.54)"/><path class="cls-35" d="M1582.43,1407.18a5.09,5.09,0,0,1-.23-3.31,5.4,5.4,0,0,0,1,2.68C1584,1407.33,1582.43,1407.18,1582.43,1407.18Z" transform="translate(-418.19 -429.54)"/><path class="cls-35" d="M1582.62,1405.81a2.84,2.84,0,0,0-2.5,1.37,2.28,2.28,0,0,1,2.5-.16Z" transform="translate(-418.19 -429.54)"/><path class="cls-40" d="M1619.82,1492.49c-13.65,4.56-31.58,4.12-36,3.93l-1-.05a3.14,3.14,0,0,1-2.83-2.75,2.54,2.54,0,0,1,0-.55l2.41-21-2.24-10.27-1.28-5.86-2.92-13.38a56.34,56.34,0,0,1,16-6.19c2,1.6,6,3.88,10.19,3,3.13-.63,3.72-2.17,3.53-3.79a37.48,37.48,0,0,1,10.29,1.84l8.31,48.27A6.2,6.2,0,0,1,1619.82,1492.49Z" transform="translate(-418.19 -429.54)"/><path class="cls-40" d="M1569,1445s8.6,4.91,9.55,9.28c0,0,11.91-9.52,13.4-17.92a17.71,17.71,0,0,0-5.68,1.21,9.11,9.11,0,0,0-3.25-.49l-6.6-4.51S1569.29,1435,1569,1445Z" transform="translate(-418.19 -429.54)"/><path class="cls-40" d="M1605.63,1435.58a23.75,23.75,0,0,1,4.74-.4,4,4,0,0,1,2-.73l7.15-5.47s5.47,4.73,4.74,12c0,0-6,4.34-6,5.29s.17,6.31.17,6.31Z" transform="translate(-418.19 -429.54)"/><path class="cls-36" d="M1628.7,1401.76a9.3,9.3,0,0,0-.74-3.14c-.68-1.4-.67-5.19.06-5s.53,1.53,1.31,1.31,1.69-4.7,2.76-4.39,1.94,1.72,1.88,4.93a22.68,22.68,0,0,1-1.26,6.48Z" transform="translate(-418.19 -429.54)"/><path class="cls-36" d="M1556.08,1403.79a10.1,10.1,0,0,1-.38-3.6c.2-1.74-1.23-5.76-2-5.33s0,1.82-.9,1.88-3.54-4.37-4.56-3.64-1.42,2.55-.17,5.93a25.49,25.49,0,0,0,3.76,6.42Z" transform="translate(-418.19 -429.54)"/><path class="cls-42" d="M1428.86,1437.05l-4.55.84s-12.45-19.2-12.81-25.05c-.35-5.59-11.57-30.06,1.57-45.33a26.05,26.05,0,0,1,1.93-2l.08-.07.06.11a28.92,28.92,0,0,1,2.54,6.5c1.91,6.52,4.28,18.61,4.84,39.51C1422.52,1411.54,1425.58,1429.42,1428.86,1437.05Z" transform="translate(-418.19 -429.54)"/><path class="cls-42" d="M1428.86,1437.05s4.15,4.61,4.27,6.29c.17,2.23-1.56,5.9-2.68,5.55s-1.26-2.17-1.59-3.55-1.8-2.86-1.72-2.24,1,3.08.69,3.48-.6.32-1.23-.86c-.77-1.41-2.43-3.39-2.21-4.84a6.22,6.22,0,0,0-.33-3.79c-.59-1.89-1.58-4.16-1.58-4.16l3.52-.75Z" transform="translate(-418.19 -429.54)"/><path class="cls-5" d="M1331.3,1566l-5.44,2.82a91.73,91.73,0,0,1-6.15-9.35c-2-3.58-3.9-7.6-4.36-10.89-1.11-8-9.57-21.12-8.69-23.36s17.66-6.1,17.66-6.1,3.28,22.45,5.46,37C1330.41,1560.3,1331,1563.86,1331.3,1566Z" transform="translate(-418.19 -429.54)"/><path class="cls-5" d="M1331.3,1566l-5.44,2.82a91.73,91.73,0,0,1-6.15-9.35,21.53,21.53,0,0,0,10.07-3.39C1330.41,1560.3,1331,1563.86,1331.3,1566Z" transform="translate(-418.19 -429.54)"/><path class="cls-5" d="M1319,1524.24a89.88,89.88,0,0,0-11,23.3c-1,3.21-4.31,7.2-7.68,10.75s-6.58,6.47-7.8,8l-5.53-2.66a73.69,73.69,0,0,1,4.82-10.65,30.18,30.18,0,0,1,3.54-5.12c1.76-2,1.18-26.89,2.93-28.53S1319,1524.24,1319,1524.24Z" transform="translate(-418.19 -429.54)"/><path class="cls-43" d="M1303.37,1479.8l0,0A0,0,0,0,1,1303.37,1479.8Z" transform="translate(-418.19 -429.54)"/><path class="cls-5" d="M1317.56,1488.36l-14.16-8.54c.08,0,.36-.46,1.42-3.53a17.35,17.35,0,0,0,.81-3.33l0-.27a8.83,8.83,0,0,0,0-2.06l3.1,1.13,5.74,2.07a7,7,0,0,0,.45,3.18,2.55,2.55,0,0,0,2.18,1.72Z" transform="translate(-418.19 -429.54)"/><path class="cls-37" d="M1315,1477a10.62,10.62,0,0,1-9.36-4l-.15-.21.18-.06,3.14-.93,5.74,2.07A7,7,0,0,0,1315,1477Z" transform="translate(-418.19 -429.54)"/><path class="cls-5" d="M1315.27,1475s-12.33,1.36-12.58-7-2.07-12.14,6.45-12.88,10.54,2.33,11,5.15C1321.75,1469.11,1318.74,1474.65,1315.27,1475Z" transform="translate(-418.19 -429.54)"/><path class="cls-44" d="M1292.28,1446.74c-.17-.39-.29-.64-.29-.64A2.09,2.09,0,0,1,1292.28,1446.74Z" transform="translate(-418.19 -429.54)"/><path class="cls-5" d="M1319.23,1479.57s11.81-9.08,13.07-12.09,6.69-14,8.09-15.12c0,0,2.94-.38,3.36,1.65s-2.8,14.1-5,17.75-13,16-16.52,17.78Z" transform="translate(-418.19 -429.54)"/><path class="cls-5" d="M1347.94,1446.8a6.42,6.42,0,0,1-1.13,2.76c-.66.78-1.71,2.34-2.38,3.35-.43.63-.7,1.09-.7,1.09l-3.35-1.63s-.08-5.69,2.14-6.9c.08,0,.12-.08.2-.08a14.62,14.62,0,0,1,2.61-1.09,3.43,3.43,0,0,1,2.34,0C1348.1,1444.5,1348.17,1445.63,1347.94,1446.8Z" transform="translate(-418.19 -429.54)"/><path class="cls-35" d="M1309.81,1459.23c-4.36-1.11-2.7,6.62-3.8,6.09s-3.35-.58-3,.91a31.36,31.36,0,0,0,1.07,3c.25.92,0,2.76-1,2.39s-10.45-11.13-3.79-19.52,26.51-3.22,20.26,5.55C1318.42,1459.14,1312.91,1460,1309.81,1459.23Z" transform="translate(-418.19 -429.54)"/><path class="cls-45" d="M1330.55,1540.35s-12.12,2.54-17.9,1.76c-7.78-1.06-14.68-1.23-22-5.16,0,0,3.86-19.22,4.1-20.16.35-1.34,2.82-11.67,5.11-21.22,2.09-8.74,4-16.84,4-16.84s5.77,4.1,9.13,2.66,2.93-3.08,2.93-3.08a10.15,10.15,0,0,1,2.25-.61,2.28,2.28,0,0,1,1,0c1,.32,4-1.34,4-1.34a10.43,10.43,0,0,1,3.36,7.87,15.61,15.61,0,0,1-.16,2.57l-2.34,2.69S1329.31,1521.73,1330.55,1540.35Z" transform="translate(-418.19 -429.54)"/><path class="cls-35" d="M1340.3,1572.66h-16.23a20.58,20.58,0,0,1,.06-4.89,1.42,1.42,0,0,1,.4-.74,5.86,5.86,0,0,0,3.9,0,8,8,0,0,0,2.87-1.79c.17.17,3.52,3.36,5.07,3.36A3.65,3.65,0,0,1,1340.3,1572.66Z" transform="translate(-418.19 -429.54)"/><path class="cls-5" d="M1300.24,1558.29c-3.27,3.45-6.58,6.47-7.8,8l-5.53-2.66a73.69,73.69,0,0,1,4.82-10.65A11.85,11.85,0,0,0,1300.24,1558.29Z" transform="translate(-418.19 -429.54)"/><path class="cls-35" d="M1293.64,1564.82s-.2,3.52,1,4,3.37,1.62,3.37,3.85h-8.13s-5.61-2.75-6.35-3.92,3.73-6.17,3.73-6.17S1290,1565.61,1293.64,1564.82Z" transform="translate(-418.19 -429.54)"/><path class="cls-5" d="M1307.09,1507.57s3.56-.67,5,.25,1.8,2.33.8,2.92a6.5,6.5,0,0,1-6.33-.2Z" transform="translate(-418.19 -429.54)"/><path class="cls-5" d="M1304.07,1479.85s-11,2.32-15.28,19.36a5.15,5.15,0,0,0,1.17,4.72c2,2.21,6.37,5.43,16.55,6.61,1.12.13,1.27-2.69,1.27-2.69-.11.22-6.93-4.4-9.82-6.89a1.59,1.59,0,0,1-.13-2,46,46,0,0,0,3.18-5.4C1301.81,1491.65,1307.14,1480.73,1304.07,1479.85Z" transform="translate(-418.19 -429.54)"/><path class="cls-40" d="M1303.93,1478.73s-6.44.46-11.7,7.47c0,0,1.78,6.44,10.13,8.16C1302.36,1494.36,1307.5,1482.76,1303.93,1478.73Z" transform="translate(-418.19 -429.54)"/><path class="cls-35" d="M1302.36,1449.49s-6.2-1.69-10.37,2.84,1.9,12.82-3.93,17.36-3.52,7.94-1.15,9c5.32,2.49,13.46-.61,11.8-4.8a15.22,15.22,0,0,1,1.53-14.22Z" transform="translate(-418.19 -429.54)"/><path class="cls-37" d="M1386.58,1520.41a1,1,0,0,1,0,.16c0,.09,0,.18,0,.25a112,112,0,0,0,3.56,18,148.72,148.72,0,0,0,10.1,26.34l5-.46a140.67,140.67,0,0,1-2.94-27.12c-.16-10.93.88-23.86,4.9-36.28,2.36-7.27,4.22-14.19,5.69-20.68a200.68,200.68,0,0,0,5.29-46.22c-.06-4.24-.29-6.55-.29-6.55l-27.8,3.92-1.29.19c.18,12.8.27,30.19.3,43.79,0,3.28,0,6.34,0,9.06,0,3.77,0,6.9,0,9.06v3.28a37,37,0,0,0-2.77,12A65.54,65.54,0,0,0,1386.58,1520.41Z" transform="translate(-418.19 -429.54)"/><path class="cls-36" d="M1397.25,1559.88c-.12-.65-.29-1.47-.48-2.37a151.42,151.42,0,0,1-6.58-18.71c7,.59,10.45-.36,12.11-1.24a149.35,149.35,0,0,0,1.09,15.89c.73,2.74,2.07,7.11,3.61,8.94a27.32,27.32,0,0,0,8.4,7.07c.36.18-8.15,3.18-12.5,2.72s-7.94-1.23-7.55-3.92a11.52,11.52,0,0,1,.76-2.79C1396.81,1563.89,1397.62,1561.8,1397.25,1559.88Z" transform="translate(-418.19 -429.54)"/><path class="cls-41" d="M1386.58,1520.41c-.44-5.09,8.26-22.69,8.26-22.69l-5.71-3.87v3.28a37,37,0,0,0-2.77,12A65.54,65.54,0,0,0,1386.58,1520.41Z" transform="translate(-418.19 -429.54)"/><path class="cls-35" d="M1403.24,1572.94c4.37-.23,3.15.8,9.22,1.27s8.28-1.41,8.63-2.26-2.57-1.58-5.65-2.54l0,0a17.09,17.09,0,0,1-9,1c-4.05-.66-8.1-2.63-10.89-3.11a10.59,10.59,0,0,0-.47,2.8C1395.05,1572.9,1398.87,1573.17,1403.24,1572.94Z" transform="translate(-418.19 -429.54)"/><path class="cls-41" d="M1391.29,1431.94c.19,12.8.27,30.19.31,43.79,0,3.28,5.73,19.27,5.74,22,4.62-6.59,8.63-52.19,15-63.73-.06-4.24,8-6.16,8-6.16l-27.8,3.92Z" transform="translate(-418.19 -429.54)"/><path class="cls-35" d="M1384.4,1312.5c-.16-.58-2.26-7.08-12.39-4.92,0,0,5.08-.64,6.47,1.32,0,0-4-1.85-6.54-.31s-2.93,6.73-2.56,8.31,3.16,6.28,5,6.28a5.41,5.41,0,0,0,2.1-.52,23.92,23.92,0,0,0-.75,2.74c-2,9.2,4.17,16.19,7.33,14.47,2-1.11,3.57,2.44,3.57,2.44l16.84-22.33S1391.73,1305.88,1384.4,1312.5Z" transform="translate(-418.19 -429.54)"/><path class="cls-36" d="M1410.86,1421c-7.64-24.43.74-29.74-.06-42s-10.26-25.37-10.26-25.37l-1.3-.12c-.64-.33-.81-3-.8-5.8,0-3.36.27-6.93.27-6.93l-11.35-2.25-.68-.13c0,7.9-2,13.08-3.56,14.29-1.42.16-7.46.92-11.19,2.48a5.34,5.34,0,0,0-2.85,2.11c-3.12,6.85-6.23,24.15-8.42,36.49-1.21,6.88-2.14,12.22-2.63,13.35-1.35,3.15-5.49,20.52-9,29.09l3.2,3.93s16.19-27.27,17.55-33.7c.44-2.09,1.52-6.28,2.78-11,.2-.71.39-1.43.59-2.16,2.23,6.05,3.37,8.85,3.3,11.46-.08,3.72-2.61,7.06-7.88,18.88C1365.64,1430.21,1418.66,1446,1410.86,1421Z" transform="translate(-418.19 -429.54)"/><path class="cls-37" d="M1398.71,1342.61s-.26,3.57-.27,6.93c-6.35-.18-9.71-6-11.08-9.18Z" transform="translate(-418.19 -429.54)"/><path class="cls-35" d="M1386.19,1339.12s-3.33-5.26-4.13-9.75c-.57-3.22,1.06-15.12,13-13.4a16.24,16.24,0,0,1,6.74,2.54c2.6,1.76,6.35,5.54,2.15,15.93l-1.08,3.51Z" transform="translate(-418.19 -429.54)"/><path class="cls-36" d="M1400.83,1345.79s-15,.25-15-9.11-2-15.64,7.64-16.19,11.46,3,12.23,6.14S1404.74,1345.49,1400.83,1345.79Z" transform="translate(-418.19 -429.54)"/><path class="cls-37" d="M1393.31,1501.69c-1,1.79-10.41,13.16-19.91,25.75-.81,1.08-1.66,2.24-2.52,3.46-5.6,7.88-12,18.16-15.89,23.17-3.5,4.55-6.65-1.15-4.88-5.21,2.78-6.42,5.14-17.62,7.84-25.87.62-1.91,1.27-3.66,1.93-5.16,2.91-6.49,7.81-15.59,14.69-22.63,1.2-1.23-9.22-28.43-8.48-50.92.3-8.92,1.54-16.76,4.38-21.54l28.27,1.4S1402.61,1484.23,1393.31,1501.69Z" transform="translate(-418.19 -429.54)"/><path class="cls-35" d="M1405.21,1321.43c-2.32-2.82-4.07-2.2-5.06-1.36a10.66,10.66,0,0,0-13.51,2.16,17.92,17.92,0,0,1-5.85,10.57s2.74,1.69,9,.07a10.82,10.82,0,0,0,5.12-3.53,35.39,35.39,0,0,1-6,7.37c7.54-3.49,10.57-14,10.87-15.09a11.78,11.78,0,0,1,3.28,4.37c.74,2.38,1.08,7.29,2.51,7.12C1405.59,1333.11,1408.69,1325.65,1405.21,1321.43Z" transform="translate(-418.19 -429.54)"/><path class="cls-36" d="M1349.38,1435.43s-1.37,3.23-2.8,4.13a4.43,4.43,0,0,0-1.94,4.52c.37,1.73-.39,4.73,1.41,4.73s6-8,6.54-9.47,1-1.81,1-1.81Z" transform="translate(-418.19 -429.54)"/><path class="cls-40" d="M1365,1433.88a6.79,6.79,0,0,0,.18,2.31c.6,1.93,2.66,2.81,7.66,2.28,3.05-.32,4.41-5.55,5-10q2.75,9.55,7.72,10.71c4.84,1.1,31,2.94,32.6-8.91,1.76-13-5.24-35-5.53-47.41a62.37,62.37,0,0,0,.88-11.54c-.2-8.87-2.75-13.84-4.71-15.84-.55-.43-1.11-.71-3.34-1.1-1.14-.19-2.71-.42-5-.72,0,0-1-.13-.94-.1.41.76,4.86,7.44,4.43,9.64s-17.55,2-18.9.71-4.89-10.82-4.89-10.82-6.94.78-10.34,3.3l0,0a2.94,2.94,0,0,0-.89,1c-3.63,7-7.25,24.84-9.79,37.53a17.77,17.77,0,0,0,13.24,2C1370.3,1411.53,1365.34,1427.22,1365,1433.88Z" transform="translate(-418.19 -429.54)"/><path class="cls-36" d="M1370.88,1530.9c-5.6,7.88-12,18.16-15.89,23.17-3.5,4.55-6.65-1.15-4.88-5.21,2.78-6.42,5.14-17.62,7.84-25.87C1359.77,1525.74,1363.47,1529.3,1370.88,1530.9Z" transform="translate(-418.19 -429.54)"/><path class="cls-36" d="M1351.93,1438.65s.83,3.57.23,4.7-.2,2.58-1.41,2.17S1351.93,1438.65,1351.93,1438.65Z" transform="translate(-418.19 -429.54)"/><path class="cls-36" d="M1343.2,1550.75c-2.28,1.49-.45,4.86,2.09,8.42s1,3.08,3.89,8.45,5.64,6.23,6.54,6.07,0-3-.89-6.14c-.11-.39-.21-.78-.32-1.18-.92-3.53.27-6.86.83-10.62.53-3.57,5.68-10.63,5.68-10.63l-3.69-7.46s-4.52,6.5-6.57,9.13c-1.2,1.54-3.3,2.32-5,2.85A11.08,11.08,0,0,0,1343.2,1550.75Z" transform="translate(-418.19 -429.54)"/><path class="cls-35" d="M1345.29,1559.17c2.54,3.56,1,3.08,3.89,8.45s5.64,6.23,6.54,6.07,0-3-.89-6.14h-.07a17.08,17.08,0,0,1-5.72-7c-1.61-3.77-2.13-8.24-3.23-10.86a11.08,11.08,0,0,0-2.61,1.11C1340.92,1552.24,1342.75,1555.61,1345.29,1559.17Z" transform="translate(-418.19 -429.54)"/><path class="cls-40" d="M1406.86,1354.66s4.53,0,7.69,6.06,7.93,25.87,7.93,25.87-5.56,6.2-12.07,4.78S1406.86,1354.66,1406.86,1354.66Z" transform="translate(-418.19 -429.54)"/><path class="cls-40" d="M1326.54,1484.28a15.61,15.61,0,0,1-.16,2.57l-2.34,2.69-6.87-10.81,1.07-1a2.28,2.28,0,0,1,1,0c1,.32,4-1.34,4-1.34A10.43,10.43,0,0,1,1326.54,1484.28Z" transform="translate(-418.19 -429.54)"/><polygon class="cls-46" points="2002.26 908.58 2002.65 908.58 2002.26 910.63 2002.26 908.58"/><path class="cls-47" d="M2300.57,1382.89l-405.42-6.49,1.23,3.39.51.37,406.22,6.6c-.11-.87-.21-1.6-.29-2.16C2302.26,1384.17,2301.51,1383.59,2300.57,1382.89Z" transform="translate(-418.19 -429.54)"/><path class="cls-37" d="M1644.26,894.64h15.31A28.34,28.34,0,0,1,1687.91,923v62.3a0,0,0,0,1,0,0h-43.65a0,0,0,0,1,0,0V894.64A0,0,0,0,1,1644.26,894.64Z"/><path class="cls-48" d="M2106.1,1350.85a26.63,26.63,0,0,0-15.31-24.1c-.78,4.3-1.57,9.21-2.46,14.78-4,25.35-8.27,51.79-1.74,73.29h19.51Z" transform="translate(-418.19 -429.54)"/><path class="cls-37" d="M1941.55,1411.4l-57.26-1.32-6-93.29,2.62-.68c12.9,1.7,46.85,3.2,51.15,30Z" transform="translate(-418.19 -429.54)"/><path class="cls-49" d="M2205.05,1439.71l71.8,1.69,4.06-68.74-3.31-.62c-16.12.65-58.67.18-63.07,19.77Z" transform="translate(-418.19 -429.54)"/><path class="cls-49" d="M2224.76,1414.19a5.76,5.76,0,0,1-.82-.06c-5.06-.72-6.2-7.38-6.63-12.33a110,110,0,0,1,6-41.81c1.8-4.63,4.77-10.69,9.84-10s6.2,7.39,6.63,12.34a110,110,0,0,1-6,41.8C2232.08,1408.54,2229.33,1414.19,2224.76,1414.19Zm7.09-55.11c-1.87,3.43-4.59,11.13-6.23,22.58s-1.21,19.6-.38,23.41c1.87-3.42,4.59-11.12,6.24-22.57S2232.68,1362.89,2231.85,1359.08Z" transform="translate(-418.19 -429.54)"/><path class="cls-50" d="M2138.56,1373.92c7.15.62,17.79,4.61,20.05,5.38,16.43,5.63,23.89,8.27,23.89,8.27s33.39-10.82,40.94-10.23c14.17,1.12-14,17.2-43.16,24.75a196.26,196.26,0,0,0-32.68-6,2.21,2.21,0,0,0-2.42,2c-.3,5-5.12,18.15-13.93,6.33C2118.14,1386.85,2131.41,1373.31,2138.56,1373.92Z" transform="translate(-418.19 -429.54)"/><path class="cls-51" d="M2110.85,1372.47s-6,17-4.79,24.82c.67,4.31,11.88,18.44,13.09,28.92" transform="translate(-418.19 -429.54)"/><g class="cls-52"><path class="cls-53" d="M2223,1381.66c-1.64,11.44-1.2,19.6-.37,23.41a35.18,35.18,0,0,0,2-4.62,98.08,98.08,0,0,1,.89-18.81c1.3-9.87,4.57-19.62,6.31-22.56a30.5,30.5,0,0,0-.72-4.63C2229.26,1357.88,2224.66,1370.21,2223,1381.66Z" transform="translate(-418.19 -429.54)"/><path class="cls-53" d="M2239.79,1362.36c-.43-4.95-1.58-11.61-6.63-12.34a5.47,5.47,0,0,0-2.11.11c4.63,1.09,5.72,7.45,6.13,12.23a110,110,0,0,1-6,41.8c-1.53,3.95-3.92,8.92-7.73,9.86a4.48,4.48,0,0,0,.5.11,5.76,5.76,0,0,0,.82.06c4.57,0,7.32-5.65,9-10a110,110,0,0,0,6-41.8Z" transform="translate(-418.19 -429.54)"/></g><path class="cls-41" d="M1880.92,1316.11l-2.62.68,6,93.29,43.07,1a35.21,35.21,0,0,1-10.24-10c-8.31-12.13-14.34-34.33-13.61-56.6.34-10.28,2-17.57,3.18-23.76C1896.92,1317.61,1886.76,1316.88,1880.92,1316.11Z" transform="translate(-418.19 -429.54)"/><rect class="cls-54" x="1341.21" y="976.45" width="715.89" height="113.51"/><ellipse class="cls-55" cx="2386.65" cy="1512.26" rx="64.7" ry="61.66" transform="translate(-856.87 1105.58) rotate(-32.82)"/><ellipse class="cls-55" cx="1852.48" cy="1512.26" rx="64.7" ry="61.66" transform="translate(-942.15 816) rotate(-32.82)"/><path class="cls-33" d="M2534.21,1434.8c-1.59-12.27-11.44-21.44-21.74-27.84-24.82-15.46-58.13-40-187.81-48.47,0,0-138.44-80.69-262.34-80.89-123.69-.2-171.82,21.29-281.65,68.11,0,0-52.3-4.25-63.71,6.39s-46.34,110.68-46.8,117.07S1669,1503,1687.63,1510c24.59,9.32,84.34,14.47,84.34,14.47l10.2.1a77,77,0,0,1,18.86-60.06c28.29-32.48,77.11-37.45,109-11.1,21.9,18.07,30.16,46.18,24,72.54l385.23,3.52c-4.25-22,1.62-46,18.09-65,28.29-32.48,77.11-37.45,109-11.1,23.26,19.19,31.11,49.71,22.73,77.43l2.62,0s35.34-4.77,52.87-15C2542.58,1505.38,2538.12,1465.08,2534.21,1434.8Zm-636.95-63.31-.51-.37-10.85-30c-.2-3,1.92-6.1,5.29-7.48,26.18-10.66,95.72-39,182-32,145.23,11.79,219.72,66.24,230,74.28.09.56.18,1.29.29,2.16Z" transform="translate(-418.19 -429.54)"/><ellipse class="cls-37" cx="2395.23" cy="1512.26" rx="64.7" ry="61.66" transform="translate(-855.5 1110.22) rotate(-32.82)"/><path class="cls-56" d="M2370.41,1541.81a36.55,36.55,0,0,0,27.72,8.08,39.46,39.46,0,0,0,25.28-13.41c14.25-16.36,12.75-40.49-3.36-53.78a36.55,36.55,0,0,0-27.72-8.08,39.46,39.46,0,0,0-25.28,13.41c-14.26,16.36-12.75,40.49,3.36,53.78Z" transform="translate(-418.19 -429.54)"/><ellipse class="cls-37" cx="1861.05" cy="1512.26" rx="64.7" ry="61.66" transform="translate(-940.78 820.67) rotate(-32.82)"/><path class="cls-56" d="M1836.23,1541.81a36.56,36.56,0,0,0,27.73,8.08,39.43,39.43,0,0,0,25.27-13.41c14.26-16.36,12.75-40.49-3.36-53.78a36.54,36.54,0,0,0-27.72-8.08,39.46,39.46,0,0,0-25.28,13.41c-14.25,16.36-12.75,40.49,3.36,53.78Z" transform="translate(-418.19 -429.54)"/><path class="cls-57" d="M1798.53,1467.59a81,81,0,0,0-5.83,6,77.55,77.55,0,0,0-19.4,50.92l8.87.08A76.74,76.74,0,0,1,1798.53,1467.59Z" transform="translate(-418.19 -429.54)"/><path class="cls-58" d="M2335,1467.55a82.13,82.13,0,0,0-5.87,6.06,77.23,77.23,0,0,0-19.24,55.81l9.48.09A76.53,76.53,0,0,1,2335,1467.55Z" transform="translate(-418.19 -429.54)"/><path class="cls-56" d="M2534.21,1434.8c-1.59-12.27-11.44-21.44-21.74-27.84-24.82-15.46-58.13-40-187.81-48.47,0,0-138.44-80.69-262.34-80.89-123.69-.2-171.82,21.29-281.65,68.11,0,0-52.3-4.25-63.71,6.39a30.15,30.15,0,0,0-4.65,6.7c16.13-7.59,60-4,60-4,109.83-46.83,158-68.31,281.65-68.11,123.9.2,262.34,80.88,262.34,80.88,129.68,8.5,163,33,187.81,48.47,10.3,6.41,20.15,15.57,21.74,27.85,3.17,24.59,6.71,55.79-1.66,72.26l.46-.25C2542.58,1505.38,2538.12,1465.08,2534.21,1434.8Z" transform="translate(-418.19 -429.54)"/><path class="cls-59" d="M2429.19,1518.62a39.41,39.41,0,0,1-25.28,13.41,36.33,36.33,0,0,1-40.76-38.7c-9.88,15.93-7.19,36.56,7.26,48.48a36.55,36.55,0,0,0,27.72,8.08,39.88,39.88,0,0,0,35-36.56A40.42,40.42,0,0,1,2429.19,1518.62Z" transform="translate(-418.19 -429.54)"/><path class="cls-59" d="M1873.76,1536.17a36.61,36.61,0,0,1-27.73-8.09c-12.93-10.66-16.44-28.31-10-43.32a39.56,39.56,0,0,0-3.2,3.27c-14.25,16.36-12.75,40.49,3.36,53.78a36.56,36.56,0,0,0,27.73,8.08,39.43,39.43,0,0,0,25.27-13.41,39.84,39.84,0,0,0,6.6-10.45A39.33,39.33,0,0,1,1873.76,1536.17Z" transform="translate(-418.19 -429.54)"/><ellipse class="cls-60" cx="1522.63" cy="967.99" rx="13.77" ry="8.01"/><path class="cls-60" d="M2133.34,1400.85c0,4.43-6.17,8-13.77,8s-13.78-3.59-13.78-8,6.17-8,13.78-8S2133.34,1396.43,2133.34,1400.85Z" transform="translate(-418.19 -429.54)"/><path class="cls-61" d="M2131.24,1405.12l-23.59-.74a3.9,3.9,0,0,1-3.75-3.41h0a3.89,3.89,0,0,1,4-4.38l23.6.73a3.91,3.91,0,0,1,3.75,3.41h0A3.9,3.9,0,0,1,2131.24,1405.12Z" transform="translate(-418.19 -429.54)"/><path class="cls-61" d="M1952.41,1401.78l-21.75-.72a3.9,3.9,0,0,1-3.74-3.41h0a3.9,3.9,0,0,1,4-4.38l21.75.72a3.9,3.9,0,0,1,3.74,3.41h0A3.9,3.9,0,0,1,1952.41,1401.78Z" transform="translate(-418.19 -429.54)"/><path class="cls-62" d="M1896.75,1374.8l.51.37,406.22,6.6c-.11-.87-.2-1.6-.29-2.16-.51-.4-1.2-.93-2.05-1.56l-403.88-6.56-.51-.37-10.45-28.91a6.21,6.21,0,0,0-.4,2.58Z" transform="translate(-418.19 -429.54)"/><path class="cls-63" d="M2063.43,1299.52s-5.58,142,18.85,202.66" transform="translate(-418.19 -429.54)"/><path class="cls-64" d="M2296.74,1485.26c-1.22,4.17-3.49,9.14-7.37,9.14H1962.14a9.29,9.29,0,0,1-6.5-2.46,3.73,3.73,0,0,1-1.08-3.06c4.39-50.68-31-74.58-41.93-80.7a2.39,2.39,0,0,1-1.12-1.37l-22.81-68.62a8.26,8.26,0,0,0-2.8,6.48l23.61,71a2.4,2.4,0,0,0,1.13,1.37c10.94,6.12,46.31,30,41.92,80.7a3.7,3.7,0,0,0,1.08,3,9.27,9.27,0,0,0,6.5,2.47h327.23c3.89,0,6.16-5,7.37-9.14,1.9-6.5,3.47-13,4.78-19.34Q2298.26,1480,2296.74,1485.26Z" transform="translate(-418.19 -429.54)"/><path class="cls-65" d="M1751.1,1371.56H1706c-3.89,8.54-8.18,19-12.41,29.88H1744a10.69,10.69,0,0,0,8-3.64l7.38-8.39a10.53,10.53,0,0,0,1.25-12.25A11,11,0,0,0,1751.1,1371.56Z" transform="translate(-418.19 -429.54)"/><path class="cls-5" d="M2534.21,1434.82v0c-1.6-12.26-11.44-21.41-21.73-27.81l-1.54-1h-22.28a10.21,10.21,0,0,0-7.36,17.33l11.42,12.07a10.65,10.65,0,0,0,7.68,3.33h34.32C2534.54,1437.4,2534.37,1436.1,2534.21,1434.82Z" transform="translate(-418.19 -429.54)"/><path class="cls-65" d="M2534.21,1434.82v0c-1.6-12.26-11.44-21.41-21.73-27.81l-1.54-1h-22.28a10.21,10.21,0,0,0-7.36,17.33l11.42,12.07a10.65,10.65,0,0,0,7.68,3.33h34.32C2534.54,1437.4,2534.37,1436.1,2534.21,1434.82Z" transform="translate(-418.19 -429.54)"/><circle class="cls-56" cx="1806.52" cy="1394.62" r="18.69" transform="translate(-808.93 1581.95) rotate(-53.35)"/><path class="cls-57" d="M1806.52,1375.93a18.62,18.62,0,0,0-13.78,6.1,18.68,18.68,0,0,1,24.23,28.09,18.69,18.69,0,0,0-10.45-34.19Z" transform="translate(-418.19 -429.54)"/><path class="cls-5" d="M2510.93,1406h-22.28c-.26,0-.52,0-.78.06,6.2,3.55,11.4,6.93,16.27,10,8.8,5.48,17.26,13,20.53,22.71h10v0c-.16-1.31-.33-2.61-.49-3.88v0c-1.3-10-8-17.87-16-23.92l-.33-.24c-.51-.38-1-.76-1.54-1.12l-1.08-.75c-.28-.18-.54-.37-.81-.55-.64-.42-1.28-.83-1.93-1.23l-1.53-1Z" transform="translate(-418.19 -429.54)"/><path class="cls-66" d="M2208,1470c-7,1.43-121.06,23.18-217.55-28.42-34.67-18.54-61.29-43.47-82-70l-11.56-.19-.5-.37-10.86-30a6.42,6.42,0,0,1,.33-2.41,1.74,1.74,0,0,0-.11-.18,8.22,8.22,0,0,0-.22,6.16l23.62,71a2.34,2.34,0,0,0,1.12,1.38c11,6.11,46.32,30,41.93,80.69a3.73,3.73,0,0,0,1.07,3.06,9.28,9.28,0,0,0,6.51,2.46H2287c3.88,0,6.15-5,7.37-9.13,6-20.75,8.81-42.22,9.88-61.15C2281.9,1445.39,2251.46,1461.12,2208,1470Z" transform="translate(-418.19 -429.54)"/><path class="cls-63" d="M1885.9,1344.67l23.61,71a2.4,2.4,0,0,0,1.13,1.37c10.94,6.12,46.31,30,41.92,80.7a3.7,3.7,0,0,0,1.08,3,9.27,9.27,0,0,0,6.5,2.47h327.23c3.89,0,6.16-5,7.37-9.14,15.21-52.11,9.7-108.84,8.45-118.24-10.27-8.75-84.76-61.36-230-74.18-86.29-7.62-158,22.34-184.13,33.94C1885.7,1337.18,1884.68,1340.93,1885.9,1344.67Z" transform="translate(-418.19 -429.54)"/><path class="cls-67" d="M1862.46,923h14.32a14.46,14.46,0,0,1,14.46,14.46v17.86a14.46,14.46,0,0,1-14.46,14.46h-14.32a6.2,6.2,0,0,1-6.2-6.2V929.2A6.2,6.2,0,0,1,1862.46,923Z"/><ellipse class="cls-33" cx="2291.54" cy="1363.47" rx="6.39" ry="12.58" transform="translate(348 3121.06) rotate(-85.86)"/><path class="cls-61" d="M2293.06,1392.48h-10.68a7.3,7.3,0,0,1-7.29-7.3v-28.33a7.21,7.21,0,0,0-.65,3V1392a7.29,7.29,0,0,0,7.29,7.29h10.68a17,17,0,0,0,17-17v-2.25A17,17,0,0,1,2293.06,1392.48Z" transform="translate(-418.19 -429.54)"/></g></g></svg>