<svg width="2165" height="1274" viewBox="0 0 2165 1274" fill="none" xmlns="http://www.w3.org/2000/svg">
<g id="tenant-04 1" clip-path="url(#clip0)">
<g id="Group">
<g id="&#208;&#161;&#208;&#187;&#208;&#190;&#208;&#185; 1">
<g id="tree">
<path id="Vector" d="M1602.56 538.03C1595.61 525.037 1593.08 510.135 1595.36 495.579C1597.64 481.022 1604.6 467.605 1615.19 457.358C1625.78 447.111 1639.41 440.593 1654.04 438.791C1668.66 436.988 1683.47 440 1696.23 447.37C1696.68 434.305 1701.03 421.673 1708.7 411.088C1716.37 400.503 1727.02 392.446 1739.3 387.948C1751.57 383.45 1764.91 382.714 1777.6 385.835C1790.3 388.956 1801.77 395.792 1810.56 405.47C1815.51 394.638 1823.94 385.774 1834.51 380.292C1845.09 374.81 1857.19 373.025 1868.89 375.221C1880.6 377.418 1891.23 383.469 1899.09 392.411C1906.96 401.353 1911.6 412.671 1912.29 424.56C1920.89 420.717 1930.63 420.309 1939.52 423.419C1948.4 426.53 1955.77 432.924 1960.09 441.29C1972.1 433.493 1986.24 429.645 2000.54 430.283C2014.84 430.922 2028.59 436.016 2039.85 444.852C2051.11 453.687 2059.33 465.823 2063.36 479.561C2067.38 493.299 2067.01 507.952 2062.3 521.47C2074.21 525.692 2084.57 533.421 2092.01 543.64C2099.45 553.859 2103.62 566.09 2103.97 578.725C2104.33 591.359 2100.85 603.806 2094 614.426C2087.14 625.047 2077.24 633.345 2065.58 638.23C2072.54 650.001 2074.64 664.025 2071.43 677.32C2078.94 675.247 2086.84 674.936 2094.49 676.409C2102.15 677.882 2109.36 681.101 2115.57 685.814C2121.78 690.528 2126.81 696.61 2130.29 703.587C2133.77 710.565 2135.59 718.25 2135.61 726.045C2135.63 733.84 2133.86 741.536 2130.42 748.533C2126.99 755.531 2121.99 761.643 2115.81 766.393C2109.62 771.144 2102.43 774.405 2094.79 775.924C2087.14 777.442 2079.25 777.177 2071.72 775.15C2070.92 778.387 2069.73 781.516 2068.18 784.47C2098.6 799.34 2119.18 828.47 2119.08 861.99C2118.87 910.36 2075.41 949.38 2022 949.15C1997 949.04 1974.17 940.32 1957.05 926.09C1953.54 933.604 1948.41 940.247 1942.03 945.543C1935.65 950.838 1928.17 954.653 1920.14 956.714C1912.11 958.774 1903.72 959.029 1895.58 957.46C1887.44 955.891 1879.74 952.537 1873.05 947.64C1869.63 955.014 1863.99 961.136 1856.92 965.153C1849.85 969.17 1841.7 970.882 1833.62 970.05C1825.53 969.218 1817.9 965.883 1811.8 960.511C1805.7 955.139 1801.42 947.996 1799.57 940.08C1796.9 940.16 1794.24 940.196 1791.57 940.19C1655.74 939.6 1546.1 829.01 1546.68 693.19C1546.82 636.566 1566.56 581.738 1602.56 538.03Z" fill="#E4E4E4"/>
<path id="Vector_2" d="M1797 943.45C1795.16 943.45 1793.32 943.51 1791.47 943.45C1654.03 942.86 1542.69 830.56 1543.29 693.12C1543.57 636.491 1563.09 581.639 1598.64 537.56C1592.07 524.281 1589.81 509.281 1592.18 494.656C1594.56 480.032 1601.44 466.513 1611.86 455.99C1622.29 445.466 1635.75 438.462 1650.35 435.958C1664.95 433.453 1679.97 435.573 1693.31 442.02C1694.73 429.221 1699.7 417.074 1707.66 406.952C1715.62 396.831 1726.25 389.14 1738.36 384.748C1750.46 380.356 1763.55 379.439 1776.15 382.101C1788.75 384.763 1800.36 390.897 1809.65 399.81C1815.47 389.475 1824.38 381.227 1835.13 376.228C1845.89 371.23 1857.94 369.733 1869.59 371.949C1881.24 374.165 1891.9 379.981 1900.07 388.579C1908.24 397.177 1913.5 408.121 1915.12 419.87C1923.57 417.189 1932.68 417.379 1941.01 420.413C1949.35 423.446 1956.45 429.152 1961.2 436.64C1973.67 429.369 1988.04 426.018 2002.44 427.022C2016.84 428.027 2030.61 433.34 2041.95 442.271C2053.29 451.202 2061.68 463.338 2066.04 477.102C2070.39 490.866 2070.5 505.621 2066.36 519.45C2078.13 524.28 2088.25 532.411 2095.5 542.864C2102.75 553.316 2106.82 565.643 2107.22 578.357C2107.62 591.071 2104.33 603.63 2097.75 614.518C2091.18 625.406 2081.59 634.159 2070.15 639.72C2074.14 647.612 2076.19 656.338 2076.15 665.18C2076.14 667.777 2075.95 670.37 2075.57 672.94C2083.39 671.584 2091.42 671.971 2099.08 674.072C2106.74 676.173 2113.84 679.938 2119.87 685.097C2125.91 690.256 2130.73 696.683 2134 703.92C2137.27 711.157 2138.9 719.026 2138.78 726.966C2138.66 734.906 2136.79 742.722 2133.31 749.857C2129.82 756.991 2124.8 763.269 2118.61 768.243C2112.42 773.216 2105.21 776.764 2097.49 778.632C2089.77 780.5 2081.74 780.642 2073.96 779.05C2073.53 780.37 2073.04 781.67 2072.5 782.93C2103.5 799.29 2122.5 829.29 2122.33 861.93C2122.11 912.04 2077.07 952.62 2021.93 952.38C1998.91 952.412 1976.5 944.95 1958.1 931.12C1952.91 940.409 1945.33 948.143 1936.15 953.519C1926.96 958.896 1916.51 961.72 1905.87 961.7C1894.64 961.676 1883.66 958.45 1874.2 952.4C1870.05 959.54 1863.91 965.313 1856.53 969.011C1849.15 972.708 1840.85 974.169 1832.64 973.213C1824.44 972.257 1816.7 968.926 1810.37 963.63C1804.03 958.333 1799.38 951.302 1796.99 943.4L1797 943.45ZM1875 944.97C1883.97 951.566 1894.81 955.135 1905.95 955.16C1916.04 955.184 1925.92 952.33 1934.44 946.933C1942.96 941.535 1949.76 933.819 1954.05 924.69L1955.86 920.81L1959.16 923.55C1976.33 937.82 1998.66 945.74 2022.01 945.84C2073.5 946.06 2115.56 908.44 2115.76 861.98C2115.89 830.86 2097.1 802.3 2066.76 787.44L2063.7 785.95L2065.29 782.95C2066.71 780.23 2067.8 777.349 2068.54 774.37L2069.36 771.09L2072.62 771.97C2079.13 773.728 2085.94 774.077 2092.59 772.994C2099.24 771.912 2105.59 769.422 2111.21 765.692C2116.82 761.962 2121.58 757.077 2125.15 751.363C2128.73 745.649 2131.05 739.238 2131.95 732.557C2132.85 725.877 2132.32 719.08 2130.39 712.622C2128.46 706.164 2125.17 700.192 2120.74 695.105C2116.32 690.018 2110.86 685.933 2104.74 683.123C2098.61 680.313 2091.95 678.843 2085.21 678.81C2080.86 678.797 2076.54 679.376 2072.35 680.53L2066.94 682.03L2068.25 676.57C2071.26 664.11 2069.3 650.966 2062.78 639.93L2060.84 636.67L2064.34 635.2C2075.38 630.574 2084.76 622.714 2091.26 612.654C2097.75 602.595 2101.04 590.806 2100.7 578.839C2100.37 566.871 2096.42 555.286 2089.37 545.607C2082.32 535.928 2072.51 528.608 2061.23 524.61L2058.13 523.51L2059.21 520.4C2063.7 507.534 2064.06 493.586 2060.23 480.508C2056.4 467.43 2048.57 455.877 2037.85 447.466C2027.13 439.055 2014.05 434.208 2000.43 433.602C1986.82 432.997 1973.36 436.664 1961.93 444.09L1958.88 446.09L1957.19 442.85C1953.26 435.198 1946.54 429.347 1938.42 426.506C1930.3 423.664 1921.4 424.049 1913.56 427.58L1909.18 429.58L1908.91 424.8C1908.28 413.642 1903.92 403.018 1896.55 394.623C1889.17 386.229 1879.19 380.548 1868.21 378.487C1857.22 376.427 1845.87 378.105 1835.95 383.255C1826.03 388.406 1818.12 396.73 1813.49 406.9L1811.41 411.45L1808.03 407.75C1799.68 398.598 1788.79 392.139 1776.76 389.194C1764.73 386.249 1752.09 386.953 1740.46 391.214C1728.82 395.476 1718.72 403.104 1711.44 413.125C1704.16 423.147 1700.02 435.11 1699.56 447.49L1699.37 452.99L1694.6 450.23C1682.46 443.232 1668.38 440.376 1654.48 442.095C1640.57 443.814 1627.61 450.013 1617.54 459.756C1607.48 469.499 1600.86 482.254 1598.69 496.094C1596.52 509.933 1598.91 524.103 1605.51 536.46L1606.51 538.46L1605.1 540.17C1569.66 583.332 1550.16 637.382 1549.88 693.23C1549.3 827.02 1657.68 936.34 1791.47 936.92C1794.12 936.92 1796.77 936.92 1799.4 936.81L1802.1 936.74L1802.72 939.37C1804.41 946.617 1808.33 953.155 1813.91 958.073C1819.5 962.99 1826.48 966.042 1833.89 966.803C1841.29 967.563 1848.75 965.995 1855.22 962.316C1861.69 958.637 1866.85 953.031 1869.98 946.28L1871.68 942.63L1875 944.97Z" fill="#9B9B9B"/>
<path id="Vector_3" d="M1596.84 558.31C1590.63 546.673 1588.37 533.329 1590.41 520.296C1592.46 507.263 1598.69 495.25 1608.17 486.076C1617.65 476.901 1629.86 471.063 1642.96 469.446C1656.05 467.828 1669.31 470.519 1680.74 477.11C1681.16 465.422 1685.05 454.123 1691.92 444.656C1698.79 435.189 1708.32 427.982 1719.3 423.956C1730.29 419.929 1742.22 419.265 1753.58 422.047C1764.94 424.83 1775.21 430.934 1783.09 439.58C1787.52 429.874 1795.07 421.93 1804.54 417.017C1814.02 412.103 1824.86 410.503 1835.35 412.471C1845.83 414.438 1855.36 419.861 1862.4 427.874C1869.45 435.887 1873.61 446.028 1874.22 456.68C1881.92 453.234 1890.65 452.869 1898.61 455.659C1906.57 458.448 1913.16 464.182 1917.03 471.68C1927.78 464.696 1940.45 461.249 1953.26 461.821C1966.07 462.393 1978.38 466.956 1988.47 474.87C1998.56 482.785 2005.92 493.656 2009.53 505.962C2013.13 518.268 2012.8 531.393 2008.58 543.5C2019.25 547.282 2028.53 554.205 2035.19 563.358C2041.85 572.511 2045.58 583.466 2045.9 594.782C2046.22 606.098 2043.11 617.246 2036.97 626.759C2030.83 636.272 2021.96 643.705 2011.52 648.08C2017.76 658.619 2019.64 671.177 2016.76 683.08C2023.49 681.224 2030.56 680.945 2037.42 682.265C2044.27 683.585 2050.73 686.468 2056.29 690.69C2061.85 694.913 2066.37 700.361 2069.48 706.611C2072.59 712.861 2074.22 719.744 2074.24 726.727C2074.26 733.709 2072.67 740.602 2069.59 746.869C2066.52 753.137 2062.04 758.611 2056.5 762.865C2050.96 767.119 2044.52 770.039 2037.67 771.398C2030.82 772.757 2023.75 772.518 2017.01 770.7C2016.3 773.602 2015.23 776.406 2013.84 779.05C2041.09 792.37 2059.57 818.5 2059.44 848.49C2059.25 891.82 2020.32 926.77 1972.44 926.56C1951.24 926.629 1930.67 919.329 1914.26 905.91C1911.12 912.639 1906.52 918.588 1900.8 923.329C1895.09 928.071 1888.39 931.487 1881.2 933.332C1874 935.178 1866.49 935.406 1859.2 934.002C1851.91 932.598 1845.01 929.595 1839.02 925.21C1835.95 931.814 1830.9 937.297 1824.57 940.894C1818.24 944.491 1810.94 946.024 1803.7 945.279C1796.45 944.534 1789.62 941.548 1784.16 936.737C1778.69 931.927 1774.86 925.531 1773.2 918.44C1770.81 918.5 1768.41 918.55 1765.99 918.54C1644.32 918.01 1546.12 818.95 1546.64 697.28C1546.8 646.546 1564.54 597.436 1596.84 558.31Z" fill="#F0F0F0"/>
<path id="Vector_4" d="M1791.68 832.099C1794.81 877.229 1796.15 956.969 1797.07 978.969C1808.35 944.839 1836.98 920.689 1868.55 887.189C1870.26 885.355 1872.33 883.908 1874.65 882.946C1876.96 881.983 1879.45 881.527 1881.96 881.608C1884.46 881.69 1886.92 882.307 1889.16 883.418C1891.41 884.529 1893.39 886.108 1894.97 888.049C1899.15 893.299 1900.38 897.929 1898.38 900.569C1894.96 905.099 1841.75 949.909 1835.89 960.629C1822.59 975.979 1798.67 1004.36 1796.62 1027.77C1791.75 1084.11 1801.02 1209.28 1798.62 1266.05L1753.62 1265.85C1753.16 1250.71 1754.54 1176.56 1754.85 1169.29C1755.92 1145.64 1770.85 1019.41 1748.97 951.169C1737.21 914.319 1713.77 861.299 1713.78 820.439C1728.78 847.789 1734.18 881.379 1747.13 910.269C1758.19 934.959 1775.67 961.999 1780.6 988.559C1782.6 967.139 1772.22 865.56 1768.06 834.49C1767.83 832.746 1767.98 830.971 1768.52 829.296C1769.05 827.62 1769.96 826.084 1771.16 824.799C1772.75 823.126 1774.78 821.948 1777.03 821.411C1779.27 820.873 1781.62 820.999 1783.79 821.772C1785.97 822.545 1787.87 823.933 1789.27 825.766C1790.67 827.599 1791.51 829.799 1791.68 832.099Z" fill="#A0A0A0"/>
<path id="Vector_5" d="M1751.35 1265.92C1750.88 1250.57 1752.27 1176.34 1752.57 1169.19C1752.73 1165.65 1753.21 1159.77 1753.8 1152.33C1757.24 1109.6 1765.28 1009.54 1746.8 951.84C1744.04 943.17 1740.62 933.59 1737 923.46C1725.05 889.97 1711.51 852.02 1711.51 820.46V811.86L1715.65 819.4C1724.21 834.96 1729.74 852.72 1735.08 869.89C1739.2 883.14 1743.47 896.89 1749.08 909.38C1752.35 916.7 1756.14 924.11 1760.14 931.94C1766.85 945.08 1773.72 958.54 1778.37 972.09C1777.02 935.47 1769.1 859.42 1765.8 834.81C1765.48 832.412 1765.79 829.973 1766.68 827.726C1767.58 825.479 1769.03 823.5 1770.91 821.978C1772.79 820.455 1775.03 819.441 1777.42 819.032C1779.8 818.622 1782.25 818.832 1784.53 819.64C1787.13 820.541 1789.41 822.193 1791.07 824.388C1792.74 826.582 1793.71 829.221 1793.88 831.97C1796.09 863.85 1797.43 913.79 1798.32 946.84C1798.54 955.08 1798.73 962.32 1798.91 968.22C1809.51 944.71 1828.35 925.42 1849.76 903.51C1855.33 897.81 1861.09 891.91 1866.94 885.69C1868.91 883.608 1871.3 881.972 1873.95 880.894C1876.6 879.816 1879.46 879.32 1882.32 879.44C1885.1 879.547 1887.82 880.25 1890.3 881.503C1892.78 882.756 1894.96 884.528 1896.7 886.7C1901.58 892.82 1902.83 898.37 1900.14 901.92C1898.91 903.56 1893.37 908.54 1882.87 917.92C1866.4 932.67 1841.51 954.92 1837.87 961.68L1837.6 962.07C1826.6 974.74 1800.92 1004.4 1798.85 1027.96C1796.16 1059.17 1797.85 1111.44 1799.41 1161.96C1800.7 1202.53 1801.91 1240.84 1800.83 1266.11L1800.74 1268.24L1751.45 1268.02L1751.35 1265.92ZM1794.96 1162.13C1793.36 1111.45 1791.7 1059.05 1794.42 1027.58C1796.6 1002.7 1822.74 972.43 1834.08 959.35C1838.47 951.75 1862.4 930.35 1879.93 914.63C1887.98 907.42 1895.59 900.63 1896.63 899.24C1897.94 897.5 1896.63 893.65 1893.25 889.43C1891.91 887.756 1890.22 886.39 1888.3 885.424C1886.39 884.458 1884.28 883.915 1882.14 883.83C1879.91 883.729 1877.68 884.112 1875.61 884.953C1873.54 885.793 1871.67 887.072 1870.14 888.7C1864.25 894.94 1858.48 900.86 1852.89 906.57C1828.89 931.15 1808.17 952.37 1799.15 979.67L1795.35 991.14L1794.85 979.06C1794.57 972.57 1794.27 961.26 1793.85 946.94C1792.96 913.94 1791.62 864.05 1789.42 832.25C1789.32 830.957 1788.96 829.698 1788.37 828.545C1787.77 827.393 1786.95 826.371 1785.96 825.541C1784.96 824.71 1783.81 824.087 1782.57 823.709C1781.33 823.331 1780.03 823.205 1778.74 823.338C1777.45 823.472 1776.2 823.862 1775.06 824.487C1773.93 825.111 1772.93 825.957 1772.12 826.974C1771.32 827.991 1770.73 829.159 1770.38 830.409C1770.03 831.658 1769.94 832.964 1770.11 834.25C1774.2 864.72 1784.69 966.93 1782.66 988.81L1781.2 1004.63L1778.3 989.01C1774.9 970.69 1765.36 952.01 1756.15 934.01C1752.15 926.12 1748.31 918.67 1744.99 911.25C1739.26 898.48 1734.99 884.64 1730.8 871.25C1726.55 857.61 1722.19 843.6 1716.31 830.74C1718.74 859.41 1730.54 892.49 1741.09 922.04C1744.72 932.22 1748.15 941.83 1750.94 950.57C1769.69 1009.09 1761.6 1109.76 1758.14 1152.75C1757.55 1160.15 1757.08 1165.99 1756.92 1169.46C1756.63 1176.29 1755.34 1244.7 1755.65 1263.73L1796.4 1263.9C1797.39 1238.72 1796.21 1201.49 1794.96 1162.13Z" fill="#9B9B9B"/>
<g id="Group_2">
<path id="Vector_6" opacity="0.33" d="M1676.62 489.67C1684.22 489.707 1691.63 492.02 1697.9 496.311C1704.17 500.601 1709 506.672 1711.79 513.74C1722.63 506.229 1735.53 502.251 1748.72 502.35C1782.49 502.49 1809.72 527.99 1809.62 559.29C1809.54 570.889 1805.7 582.148 1798.68 591.38C1807.75 597.208 1814.91 605.574 1819.27 615.439C1823.62 625.303 1824.98 636.23 1823.18 646.86C1821.37 657.491 1816.48 667.357 1809.11 675.231C1801.75 683.105 1792.23 688.639 1781.74 691.147C1771.25 693.654 1760.26 693.023 1750.13 689.333C1740 685.643 1731.17 679.056 1724.76 670.391C1718.34 661.726 1714.61 651.366 1714.03 640.598C1713.45 629.831 1716.05 619.131 1721.51 609.83C1702.82 601.27 1689.51 584.16 1687.6 564.01C1682.37 565.609 1676.85 566.06 1671.43 565.332C1666.01 564.604 1660.81 562.714 1656.19 559.792C1651.57 556.87 1647.63 552.985 1644.64 548.401C1641.66 543.817 1639.7 538.643 1638.9 533.232C1638.1 527.822 1638.48 522.302 1640.01 517.05C1641.53 511.799 1644.18 506.939 1647.76 502.803C1651.34 498.667 1655.77 495.353 1660.74 493.086C1665.72 490.82 1671.13 489.654 1676.6 489.67H1676.62Z" fill="#E4E4E4"/>
</g>
<path id="Vector_7" d="M1955.33 897.11L1865.33 831.58L1862.33 845.07C1862.33 845.07 1857.87 871.99 1887.48 894.93C1917.09 917.87 1944.97 906.07 1955.33 897.11Z" fill="#F0F0F0"/>
<path id="Vector_8" d="M1922.73 911.309C1933.43 911.332 1943.94 908.494 1953.17 903.089C1953.53 902.849 1953.84 902.54 1954.09 902.179C1954.33 901.818 1954.5 901.413 1954.59 900.987C1954.67 900.561 1954.67 900.122 1954.59 899.695C1954.51 899.268 1954.34 898.862 1954.1 898.499C1953.86 898.137 1953.55 897.825 1953.19 897.582C1952.83 897.34 1952.42 897.17 1952 897.084C1951.57 896.997 1951.13 896.996 1950.71 897.079C1950.28 897.163 1949.87 897.329 1949.51 897.569C1948.41 898.289 1922.98 914.569 1894.51 895.819C1871.31 880.539 1861.98 860.819 1866.8 837.319C1866.91 836.886 1866.93 836.434 1866.86 835.992C1866.79 835.55 1866.63 835.127 1866.39 834.748C1866.15 834.37 1865.84 834.043 1865.47 833.789C1865.1 833.534 1864.69 833.357 1864.25 833.268C1863.81 833.178 1863.36 833.179 1862.92 833.269C1862.48 833.36 1862.07 833.538 1861.7 833.793C1861.33 834.048 1861.02 834.375 1860.78 834.755C1860.55 835.134 1860.39 835.557 1860.32 835.999C1854.9 862.439 1865.18 884.429 1890.87 901.349C1900.27 907.741 1911.36 911.207 1922.73 911.309Z" fill="#9B9B9B"/>
<path id="Vector_9" d="M1866.08 829.39C1868.16 829.39 1869.85 827.702 1869.85 825.62C1869.85 823.538 1868.16 821.85 1866.08 821.85C1864 821.85 1862.31 823.538 1862.31 825.62C1862.31 827.702 1864 829.39 1866.08 829.39Z" fill="#9B9B9B"/>
<path id="Vector_10" d="M1824.01 754.67L1845.54 775.96L1849.57 787.55L1844.73 805.8L1834.58 814.46L1818.77 815.45L1805.18 813L1802.62 819.37L1793.69 832.32L1785.12 836.29L1771.88 834.89L1761.09 825.8L1756.42 813.36L1818.47 748.29L1824.01 754.67Z" fill="#F0F0F0"/>
<path id="Vector_11" d="M1779.08 839.77C1780.32 839.776 1781.55 839.709 1782.78 839.57C1800.59 837.57 1805 822.91 1806.08 816.29C1806.88 816.46 1807.86 816.71 1808.97 817C1815.78 818.77 1828.46 822.06 1838.6 816.06C1844.69 812.45 1848.93 806.06 1851.2 797.06C1854.89 782.46 1848.82 770.88 1830.26 757.06C1829.55 756.536 1828.67 756.314 1827.8 756.443C1826.93 756.571 1826.15 757.04 1825.62 757.745C1825.1 758.451 1824.88 759.335 1825.01 760.205C1825.14 761.074 1825.6 761.856 1826.31 762.38C1842.56 774.44 1847.74 783.7 1844.78 795.38C1842.96 802.59 1839.78 807.6 1835.22 810.28C1827.46 814.87 1816.93 812.14 1810.64 810.5C1809.15 810.12 1807.89 809.8 1806.91 809.61C1806.09 809.448 1805.25 809.452 1804.43 809.624C1803.62 809.796 1802.84 810.132 1802.16 810.61C1801.48 811.101 1800.9 811.724 1800.46 812.441C1800.02 813.159 1799.73 813.958 1799.6 814.79C1798.67 820.9 1795.15 831.38 1782.04 832.85C1764.61 834.85 1760.46 818.21 1760.29 817.5C1760.09 816.645 1759.56 815.904 1758.82 815.44C1758.07 814.975 1757.17 814.826 1756.31 815.025C1755.46 815.224 1754.72 815.755 1754.25 816.5C1753.79 817.246 1753.64 818.145 1753.84 819C1755.56 826.58 1762.99 839.7 1779.08 839.77Z" fill="#9B9B9B"/>
<path id="Vector_12" d="M1819.63 756.53C1821.68 756.53 1823.35 754.864 1823.35 752.81C1823.35 750.755 1821.68 749.09 1819.63 749.09C1817.57 749.09 1815.91 750.755 1815.91 752.81C1815.91 754.864 1817.57 756.53 1819.63 756.53Z" fill="#9B9B9B"/>
<path id="Vector_13" d="M1823.83 641.06C1824.71 641.062 1825.55 640.716 1826.18 640.098C1826.8 639.479 1827.15 638.638 1827.16 637.76C1827.21 628.565 1825.07 619.49 1820.93 611.283C1816.78 603.077 1810.74 595.973 1803.31 590.56C1809.52 581.316 1812.87 570.446 1812.93 559.31C1813.07 526.23 1784.27 499.19 1748.74 499.04C1734.86 498.919 1721.28 503.112 1709.89 511.04C1709.53 511.289 1709.23 511.605 1708.99 511.972C1708.76 512.338 1708.6 512.747 1708.52 513.175C1708.45 513.603 1708.46 514.042 1708.55 514.466C1708.64 514.891 1708.82 515.293 1709.07 515.65C1709.32 516.006 1709.64 516.31 1710 516.544C1710.37 516.779 1710.78 516.938 1711.2 517.014C1711.63 517.091 1712.07 517.082 1712.5 516.988C1712.92 516.895 1713.32 516.719 1713.68 516.47C1723.95 509.334 1736.18 505.56 1748.68 505.67C1780.56 505.8 1806.4 529.86 1806.28 559.29C1806.21 570.178 1802.6 580.748 1796 589.41L1793.87 592.25L1796.87 594.17C1804.17 598.85 1810.16 605.298 1814.3 612.915C1818.43 620.533 1820.58 629.072 1820.53 637.74C1820.53 638.174 1820.61 638.605 1820.78 639.007C1820.94 639.409 1821.19 639.775 1821.49 640.083C1821.8 640.391 1822.16 640.636 1822.56 640.804C1822.96 640.971 1823.39 641.058 1823.83 641.06Z" fill="#A0A0A0"/>
<path id="Vector_14" d="M1821.27 658.81C1823.88 658.81 1825.99 656.697 1825.99 654.09C1825.99 651.483 1823.88 649.37 1821.27 649.37C1818.66 649.37 1816.55 651.483 1816.55 654.09C1816.55 656.697 1818.66 658.81 1821.27 658.81Z" fill="#A0A0A0"/>
</g>
<path id="Vector_15" d="M1136.27 331H412V1272.43H1136.27V331Z" fill="#F4F4F4"/>
<path id="Vector_16" d="M1136.18 270.1H392.66V305.08H1136.18V270.1Z" fill="#CFCCCC"/>
<path id="Vector_17" d="M1146.19 262.47H380.4V278.31H1146.19V262.47Z" fill="#6D6D6D"/>
<path id="Vector_18" d="M1132.14 326.75H1116.47V1268.18H1132.14V326.75Z" fill="#E8E8E8"/>
<path id="Vector_19" d="M407.9 323.46H391.76V1271.02H407.9V323.46Z" fill="#E8E8E8"/>
<path id="Vector_20" d="M422.26 377.27H401.33V416.73H422.26V377.27Z" fill="#E8E8E8"/>
<path id="Vector_21" d="M422.26 462.18H401.33V501.64H422.26V462.18Z" fill="#E8E8E8"/>
<path id="Vector_22" d="M422.26 547.08H401.33V586.54H422.26V547.08Z" fill="#E8E8E8"/>
<path id="Vector_23" d="M422.26 631.99H401.33V671.45H422.26V631.99Z" fill="#E8E8E8"/>
<path id="Vector_24" d="M422.26 716.89H401.33V756.35H422.26V716.89Z" fill="#E8E8E8"/>
<path id="Vector_25" d="M422.26 801.8H401.33V841.26H422.26V801.8Z" fill="#E8E8E8"/>
<path id="Vector_26" d="M422.26 886.7H401.33V926.16H422.26V886.7Z" fill="#E8E8E8"/>
<path id="Vector_27" d="M422.26 971.61H401.33V1011.07H422.26V971.61Z" fill="#E8E8E8"/>
<path id="Vector_28" d="M422.26 1056.51H401.33V1095.97H422.26V1056.51Z" fill="#E8E8E8"/>
<path id="Vector_29" d="M422.26 1141.42H401.33V1180.88H422.26V1141.42Z" fill="#E8E8E8"/>
<path id="Vector_30" d="M422.26 1226.32H401.33V1265.78H422.26V1226.32Z" fill="#E8E8E8"/>
<path id="Vector_31" d="M1123.62 377.27H1102.69V416.73H1123.62V377.27Z" fill="#E8E8E8"/>
<path id="Vector_32" d="M1123.62 462.18H1102.69V501.64H1123.62V462.18Z" fill="#E8E8E8"/>
<path id="Vector_33" d="M1123.62 547.08H1102.69V586.54H1123.62V547.08Z" fill="#E8E8E8"/>
<path id="Vector_34" d="M1123.62 631.99H1102.69V671.45H1123.62V631.99Z" fill="#E8E8E8"/>
<path id="Vector_35" d="M1123.62 716.89H1102.69V756.35H1123.62V716.89Z" fill="#E8E8E8"/>
<path id="Vector_36" d="M1123.62 801.8H1102.69V841.26H1123.62V801.8Z" fill="#E8E8E8"/>
<path id="Vector_37" d="M1123.62 886.7H1102.69V926.16H1123.62V886.7Z" fill="#E8E8E8"/>
<path id="Vector_38" d="M1123.62 971.61H1102.69V1011.07H1123.62V971.61Z" fill="#E8E8E8"/>
<path id="Vector_39" d="M1123.62 1056.51H1102.69V1095.97H1123.62V1056.51Z" fill="#E8E8E8"/>
<path id="Vector_40" d="M1123.62 1141.42H1102.69V1180.88H1123.62V1141.42Z" fill="#E8E8E8"/>
<path id="Vector_41" d="M1123.62 1226.32H1102.69V1265.78H1123.62V1226.32Z" fill="#E8E8E8"/>
<path id="Vector_42" d="M1132.59 753.07H391.76V808.68H1132.59V753.07Z" fill="#CFCCCC"/>
<path id="Vector_43" d="M391.76 769.21H1132.59" stroke="#A4A4A4" stroke-width="0.58" stroke-miterlimit="10"/>
<path id="Vector_44" d="M391.76 781.77H1132.59" stroke="#A4A4A4" stroke-width="0.58" stroke-miterlimit="10"/>
<path id="Vector_45" d="M391.76 794.77H1132.59" stroke="#A4A4A4" stroke-width="0.58" stroke-miterlimit="10"/>
<path id="Vector_46" d="M1132.94 1192.51H383.55V1270.85H1132.94V1192.51Z" fill="#BABABA"/>
<path id="Vector_47" d="M1146.19 305.67H380.4V329.74H1146.19V305.67Z" fill="#6D6D6D"/>
<path id="Vector_48" d="M391.76 338.05L392.66 556.73" stroke="#9B9B9B" stroke-width="5" stroke-miterlimit="10" stroke-linecap="round"/>
<path id="Vector_49" d="M391.76 624.83V1004.71" stroke="#9B9B9B" stroke-width="5" stroke-miterlimit="10" stroke-linecap="round"/>
<path id="Vector_50" d="M422.25 753.07H614.19" stroke="#9B9B9B" stroke-width="5" stroke-miterlimit="10" stroke-linecap="round"/>
<path id="Vector_51" d="M721.75 1140.31C721.362 1140.31 720.981 1140.2 720.65 1140C635.16 1087.85 563.23 1081.94 517.94 1086.16C468.94 1090.73 439.94 1107.72 439.66 1107.9C439.179 1108.17 438.612 1108.23 438.081 1108.09C437.55 1107.95 437.095 1107.6 436.814 1107.13C436.532 1106.66 436.445 1106.09 436.571 1105.56C436.697 1105.02 437.027 1104.56 437.49 1104.26C438.7 1103.54 467.66 1086.6 517.55 1081.95C563.47 1077.66 636.37 1083.63 722.85 1136.38C723.245 1136.62 723.55 1136.98 723.719 1137.41C723.888 1137.84 723.913 1138.32 723.788 1138.76C723.664 1139.21 723.397 1139.6 723.029 1139.88C722.661 1140.16 722.212 1140.31 721.75 1140.31Z" fill="#666666"/>
<path id="Vector_52" d="M1703.02 84.0596H793.57V1266.19H1703.02V84.0596Z" fill="#FCFCFC"/>
<path id="Vector_53" d="M1708.09 9.57031H774.47V53.4903H1708.09V9.57031Z" fill="#CFCCCC"/>
<path id="Vector_54" d="M1720.66 0H759.08V19.9H1720.66V0Z" fill="#6D6D6D"/>
<path id="Vector_55" d="M1703.02 80.71H1683.35V1262.84H1703.02V80.71Z" fill="#E8E8E8"/>
<path id="Vector_56" d="M793.62 76.5801H773.35V1266.41H793.62V76.5801Z" fill="#E8E8E8"/>
<path id="Vector_57" d="M811.64 144.15H785.36V193.7H811.64V144.15Z" fill="#E8E8E8"/>
<path id="Vector_58" d="M811.64 250.77H785.36V300.32H811.64V250.77Z" fill="#E8E8E8"/>
<path id="Vector_59" d="M811.64 357.38H785.36V406.93H811.64V357.38Z" fill="#E8E8E8"/>
<path id="Vector_60" d="M811.64 463.99H785.36V513.54H811.64V463.99Z" fill="#E8E8E8"/>
<path id="Vector_61" d="M811.64 570.6H785.36V620.15H811.64V570.6Z" fill="#E8E8E8"/>
<path id="Vector_62" d="M811.64 677.22H785.36V726.77H811.64V677.22Z" fill="#E8E8E8"/>
<path id="Vector_63" d="M811.64 783.83H785.36V833.38H811.64V783.83Z" fill="#E8E8E8"/>
<path id="Vector_64" d="M811.64 890.44H785.36V939.99H811.64V890.44Z" fill="#E8E8E8"/>
<path id="Vector_65" d="M811.64 997.061H785.36V1046.61H811.64V997.061Z" fill="#E8E8E8"/>
<path id="Vector_66" d="M811.64 1103.67H785.36V1153.22H811.64V1103.67Z" fill="#E8E8E8"/>
<path id="Vector_67" d="M811.64 1210.28H785.36V1259.83H811.64V1210.28Z" fill="#E8E8E8"/>
<path id="Vector_68" d="M1692.32 144.15H1666.04V193.7H1692.32V144.15Z" fill="#E8E8E8"/>
<path id="Vector_69" d="M1692.32 250.77H1666.04V300.32H1692.32V250.77Z" fill="#E8E8E8"/>
<path id="Vector_70" d="M1692.32 357.38H1666.04V406.93H1692.32V357.38Z" fill="#E8E8E8"/>
<path id="Vector_71" d="M1692.32 463.99H1666.04V513.54H1692.32V463.99Z" fill="#E8E8E8"/>
<path id="Vector_72" d="M1692.32 570.6H1666.04V620.15H1692.32V570.6Z" fill="#E8E8E8"/>
<path id="Vector_73" d="M1692.32 677.22H1666.04V726.77H1692.32V677.22Z" fill="#E8E8E8"/>
<path id="Vector_74" d="M1692.32 783.83H1666.04V833.38H1692.32V783.83Z" fill="#E8E8E8"/>
<path id="Vector_75" d="M1692.32 890.44H1666.04V939.99H1692.32V890.44Z" fill="#E8E8E8"/>
<path id="Vector_76" d="M1692.32 997.061H1666.04V1046.61H1692.32V997.061Z" fill="#E8E8E8"/>
<path id="Vector_77" d="M1692.32 1103.67H1666.04V1153.22H1692.32V1103.67Z" fill="#E8E8E8"/>
<path id="Vector_78" d="M1692.32 1210.28H1666.04V1259.83H1692.32V1210.28Z" fill="#E8E8E8"/>
<path id="Vector_79" d="M1020.25 220.54C1015.41 211.208 1008.1 203.384 999.114 197.923C990.13 192.462 979.818 189.574 969.305 189.574C958.791 189.574 948.48 192.462 939.496 197.923C930.512 203.384 923.201 211.208 918.36 220.54H879.21V571.92H1060.56V220.54H1020.25Z" fill="#CFCCCC"/>
<g id="Vector_80" style="mix-blend-mode:multiply" opacity="0.21">
<path d="M1060.53 563.66H879.21V569.67H1060.53V563.66Z" fill="#7A91A8"/>
</g>
<path id="Vector_81" d="M1054.89 226.74H885.4V561.22H1054.89V226.74Z" fill="#96979A"/>
<path id="Vector_82" d="M1049.85 232.01H890.62V555.6H1049.85V232.01Z" fill="#F1F1F1"/>
<path id="Vector_83" d="M1049.85 238.72H896.7V555.6H1049.85V238.72Z" fill="white"/>
<path id="Vector_84" d="M976.63 228.62H969.87V559.16H976.63V228.62Z" fill="#96979A"/>
<path id="Vector_85" d="M1052.65 285.87H887.66V292.63H1052.65V285.87Z" fill="#96979A"/>
<path id="Vector_86" d="M1052.65 354.56H887.66V361.32H1052.65V354.56Z" fill="#96979A"/>
<path id="Vector_87" d="M1052.65 423.26H887.66V430.02H1052.65V423.26Z" fill="#96979A"/>
<path id="Vector_88" d="M1052.65 491.96H887.66V498.72H1052.65V491.96Z" fill="#96979A"/>
<path id="Vector_89" d="M907.64 582.59V590.31C907.64 592.731 906.678 595.054 904.966 596.766C903.254 598.478 900.931 599.44 898.51 599.44C896.088 599.44 893.766 598.478 892.054 596.766C890.342 595.054 889.38 592.731 889.38 590.31V582.55L907.64 582.59Z" fill="#C7C7C9"/>
<g id="Vector_90" style="mix-blend-mode:multiply" opacity="0.21">
<path d="M907.64 582.59H889.38V588.41H907.64V582.59Z" fill="#C7C7C9"/>
</g>
<path id="Vector_91" d="M1048.14 582.59V590.31C1048.18 591.535 1047.97 592.756 1047.53 593.899C1047.09 595.043 1046.43 596.086 1045.57 596.967C1044.72 597.848 1043.7 598.549 1042.57 599.027C1041.44 599.506 1040.23 599.752 1039.01 599.752C1037.78 599.752 1036.57 599.506 1035.44 599.027C1034.31 598.549 1033.29 597.848 1032.44 596.967C1031.58 596.086 1030.92 595.043 1030.48 593.899C1030.04 592.756 1029.83 591.535 1029.87 590.31V582.55L1048.14 582.59Z" fill="#C7C7C9"/>
<g id="Vector_92" style="mix-blend-mode:multiply" opacity="0.21">
<path d="M1048.13 582.59H1029.87V588.41H1048.13V582.59Z" fill="#C7C7C9"/>
</g>
<path id="Vector_93" d="M1067.85 567.7H868.51V584.59H1067.85V567.7Z" fill="#C7C7C9"/>
<path id="Vector_94" d="M1548.81 220.73C1543.97 211.397 1536.66 203.573 1527.67 198.112C1518.69 192.652 1508.38 189.764 1497.86 189.764C1487.35 189.764 1477.04 192.652 1468.06 198.112C1459.07 203.573 1451.76 211.397 1446.92 220.73H1407.77V572.1H1589.09V220.73H1548.81Z" fill="#CFCCCC"/>
<g id="Vector_95" style="mix-blend-mode:multiply" opacity="0.21">
<path d="M1589.09 563.85H1407.77V569.86H1589.09V563.85Z" fill="#7A91A8"/>
</g>
<path id="Vector_96" d="M1583.45 226.93H1413.96V561.41H1583.45V226.93Z" fill="#96979A"/>
<path id="Vector_97" d="M1578.41 232.2H1419.18V555.79H1578.41V232.2Z" fill="#F1F1F1"/>
<path id="Vector_98" d="M1578.41 238.91H1425.26V555.79H1578.41V238.91Z" fill="#F1F1F1"/>
<path id="Vector_99" d="M1505.19 228.8H1498.43V559.34H1505.19V228.8Z" fill="#96979A"/>
<path id="Vector_100" d="M1581.21 286.05H1416.22V292.81H1581.21V286.05Z" fill="#96979A"/>
<path id="Vector_101" d="M1581.21 354.75H1416.22V361.51H1581.21V354.75Z" fill="#96979A"/>
<path id="Vector_102" d="M1581.21 423.45H1416.22V430.21H1581.21V423.45Z" fill="#96979A"/>
<path id="Vector_103" d="M1581.21 492.15H1416.22V498.91H1581.21V492.15Z" fill="#96979A"/>
<path id="Vector_104" d="M1436.2 582.78V590.54C1436.2 592.962 1435.24 595.284 1433.53 596.996C1431.81 598.708 1429.49 599.67 1427.07 599.67C1424.65 599.67 1422.33 598.708 1420.61 596.996C1418.9 595.284 1417.94 592.962 1417.94 590.54V582.78H1436.2Z" fill="#C7C7C9"/>
<g id="Vector_105" style="mix-blend-mode:multiply" opacity="0.21">
<path d="M1436.2 582.78H1417.94V588.6H1436.2V582.78Z" fill="#C7C7C9"/>
</g>
<path id="Vector_106" d="M1576.7 582.78V590.54C1576.74 591.765 1576.53 592.986 1576.09 594.13C1575.65 595.273 1574.99 596.317 1574.13 597.198C1573.28 598.079 1572.26 598.779 1571.13 599.258C1570 599.736 1568.79 599.983 1567.56 599.983C1566.34 599.983 1565.13 599.736 1564 599.258C1562.87 598.779 1561.85 598.079 1561 597.198C1560.14 596.317 1559.48 595.273 1559.04 594.13C1558.6 592.986 1558.39 591.765 1558.43 590.54V582.78H1576.7Z" fill="#C7C7C9"/>
<g id="Vector_107" style="mix-blend-mode:multiply" opacity="0.21">
<path d="M1576.69 582.78H1558.43V588.6H1576.69V582.78Z" fill="#C7C7C9"/>
</g>
<path id="Vector_108" d="M1596.41 567.88H1397.07V584.77H1596.41V567.88Z" fill="#C7C7C9"/>
<path id="Vector_109" d="M1283.07 220.73C1278.23 211.397 1270.92 203.573 1261.94 198.111C1252.95 192.65 1242.64 189.762 1232.13 189.762C1221.62 189.762 1211.31 192.65 1202.32 198.111C1193.34 203.573 1186.03 211.397 1181.19 220.73H1142.03V572.1H1323.35V220.73H1283.07Z" fill="#CFCCCC"/>
<g id="Vector_110" style="mix-blend-mode:multiply" opacity="0.21">
<path d="M1323.35 563.85H1142.03V569.86H1323.35V563.85Z" fill="#7A91A8"/>
</g>
<path id="Vector_111" d="M1317.72 226.93H1148.23V561.41H1317.72V226.93Z" fill="#96979A"/>
<path id="Vector_112" d="M1312.67 232.2H1153.44V555.79H1312.67V232.2Z" fill="white"/>
<path id="Vector_113" d="M1170.47 582.78V590.54C1170.47 592.962 1169.51 595.284 1167.8 596.996C1166.08 598.708 1163.76 599.67 1161.34 599.67C1158.92 599.67 1156.6 598.708 1154.88 596.996C1153.17 595.284 1152.21 592.962 1152.21 590.54V582.78H1170.47Z" fill="#C7C7C9"/>
<g id="Vector_114" style="mix-blend-mode:multiply" opacity="0.21">
<path d="M1170.47 582.78H1152.21V588.6H1170.47V582.78Z" fill="#C7C7C9"/>
</g>
<path id="Vector_115" d="M1310.96 582.78V590.54C1310.96 592.962 1310 595.284 1308.29 596.996C1306.57 598.708 1304.25 599.67 1301.83 599.67C1299.41 599.67 1297.09 598.708 1295.37 596.996C1293.66 595.284 1292.7 592.962 1292.7 590.54V582.78H1310.96Z" fill="#C7C7C9"/>
<g id="Vector_116" style="mix-blend-mode:multiply" opacity="0.21">
<path d="M1310.96 582.78H1292.7V588.6H1310.96V582.78Z" fill="#C7C7C9"/>
</g>
<path id="Vector_117" d="M1330.68 567.88H1131.34V584.77H1330.68V567.88Z" fill="#C7C7C9"/>
<g id="Vector_118" style="mix-blend-mode:multiply" opacity="0.21">
<path d="M1324.81 563.66H1143.49V569.67H1324.81V563.66Z" fill="#7A91A8"/>
</g>
<path id="Vector_119" d="M1284.56 757.93C1279.72 748.597 1272.41 740.774 1263.42 735.313C1254.44 729.852 1244.13 726.964 1233.61 726.964C1223.1 726.964 1212.79 729.852 1203.81 735.313C1194.82 740.774 1187.51 748.597 1182.67 757.93H1143.52V1109.31H1324.84V757.93H1284.56Z" fill="#CFCCCC"/>
<g id="Vector_120" style="mix-blend-mode:multiply" opacity="0.21">
<path d="M1324.81 1101.04H1143.49V1107.05H1324.81V1101.04Z" fill="#7A91A8"/>
</g>
<path id="Vector_121" d="M1319.17 761.4H1149.68V1093.26H1319.17V761.4Z" fill="#96979A"/>
<path id="Vector_122" d="M1310.71 771.5H1157.56V1088.38H1310.71V771.5Z" fill="#F1F1F1"/>
<path id="Vector_123" d="M1237.48 761.4H1230.72V1091.94H1237.48V761.4Z" fill="#96979A"/>
<path id="Vector_124" d="M1313.5 818.65H1148.51V825.41H1313.5V818.65Z" fill="#96979A"/>
<path id="Vector_125" d="M1313.5 887.35H1148.51V894.11H1313.5V887.35Z" fill="#96979A"/>
<path id="Vector_126" d="M1313.5 956.05H1148.51V962.81H1313.5V956.05Z" fill="#96979A"/>
<path id="Vector_127" d="M1313.5 1024.74H1148.51V1031.5H1313.5V1024.74Z" fill="#96979A"/>
<path id="Vector_128" d="M1548.81 757.93C1543.97 748.597 1536.66 740.774 1527.67 735.313C1518.69 729.852 1508.38 726.964 1497.86 726.964C1487.35 726.964 1477.04 729.852 1468.06 735.313C1459.07 740.774 1451.76 748.597 1446.92 757.93H1407.77V1109.31H1589.09V757.93H1548.81Z" fill="#CFCCCC"/>
<path id="Vector_129" d="M1582.07 764.12H1412.58V1098.6H1582.07V764.12Z" fill="#96979A"/>
<path id="Vector_130" d="M1573.6 776.85H1420.45V1093.73H1573.6V776.85Z" fill="#F1F1F1"/>
<path id="Vector_131" d="M1500.38 766.75H1493.62V1097.29H1500.38V766.75Z" fill="#96979A"/>
<path id="Vector_132" d="M1576.4 823.99H1411.41V830.75H1576.4V823.99Z" fill="#96979A"/>
<path id="Vector_133" d="M1576.4 892.69H1411.41V899.45H1576.4V892.69Z" fill="#96979A"/>
<path id="Vector_134" d="M1576.4 961.39H1411.41V968.15H1576.4V961.39Z" fill="#96979A"/>
<path id="Vector_135" d="M1576.4 1030.09H1411.41V1036.85H1576.4V1030.09Z" fill="#96979A"/>
<path id="Vector_136" d="M1171.92 1119.97V1127.74C1171.92 1130.16 1170.96 1132.48 1169.25 1134.2C1167.53 1135.91 1165.21 1136.87 1162.79 1136.87C1160.37 1136.87 1158.05 1135.91 1156.33 1134.2C1154.62 1132.48 1153.66 1130.16 1153.66 1127.74V1119.97H1171.92Z" fill="#CFCCCC"/>
<g id="Vector_137" style="mix-blend-mode:multiply" opacity="0.21">
<path d="M1171.92 1119.98H1153.66V1125.8H1171.92V1119.98Z" fill="#CFCCCC"/>
</g>
<path id="Vector_138" d="M1312.42 1119.97V1127.74C1312.46 1128.96 1312.25 1130.19 1311.81 1131.33C1311.37 1132.47 1310.71 1133.52 1309.85 1134.4C1309 1135.28 1307.98 1135.98 1306.85 1136.46C1305.72 1136.94 1304.51 1137.18 1303.28 1137.18C1302.06 1137.18 1300.85 1136.94 1299.72 1136.46C1298.59 1135.98 1297.57 1135.28 1296.72 1134.4C1295.86 1133.52 1295.2 1132.47 1294.76 1131.33C1294.32 1130.19 1294.11 1128.96 1294.15 1127.74V1119.97H1312.42Z" fill="#CFCCCC"/>
<g id="Vector_139" style="mix-blend-mode:multiply" opacity="0.21">
<path d="M1312.41 1119.98H1294.15V1125.8H1312.41V1119.98Z" fill="#CFCCCC"/>
</g>
<path id="Vector_140" d="M1332.13 1105.08H1132.79V1121.97H1332.13V1105.08Z" fill="#CFCCCC"/>
<g id="Vector_141" style="mix-blend-mode:multiply" opacity="0.21">
<path d="M1589.09 1101.04H1407.77V1107.05H1589.09V1101.04Z" fill="#7A91A8"/>
</g>
<path id="Vector_142" d="M1436.2 1119.97V1127.74C1436.2 1130.16 1435.24 1132.48 1433.53 1134.2C1431.81 1135.91 1429.49 1136.87 1427.07 1136.87C1424.65 1136.87 1422.33 1135.91 1420.61 1134.2C1418.9 1132.48 1417.94 1130.16 1417.94 1127.74V1119.97H1436.2Z" fill="#CFCCCC"/>
<g id="Vector_143" style="mix-blend-mode:multiply" opacity="0.21">
<path d="M1436.2 1119.98H1417.94V1125.8H1436.2V1119.98Z" fill="#CFCCCC"/>
</g>
<path id="Vector_144" d="M1576.7 1119.97V1127.74C1576.7 1130.16 1575.74 1132.48 1574.03 1134.2C1572.31 1135.91 1569.99 1136.87 1567.57 1136.87C1565.15 1136.87 1562.83 1135.91 1561.11 1134.2C1559.4 1132.48 1558.44 1130.16 1558.44 1127.74V1119.97H1576.7Z" fill="#CFCCCC"/>
<g id="Vector_145" style="mix-blend-mode:multiply" opacity="0.21">
<path d="M1576.7 1119.98H1558.44V1125.8H1576.7V1119.98Z" fill="#CFCCCC"/>
</g>
<path id="Vector_146" d="M1596.41 1105.08H1397.07V1121.97H1596.41V1105.08Z" fill="#CFCCCC"/>
<path id="Vector_147" d="M1703.59 616.03H773.35V685.85H1703.59V616.03Z" fill="#CFCCCC"/>
<path id="Vector_148" d="M773.35 636.3H1703.58" stroke="#A4A4A4" stroke-width="0.58" stroke-miterlimit="10"/>
<path id="Vector_149" d="M773.35 652.07H1703.58" stroke="#A4A4A4" stroke-width="0.58" stroke-miterlimit="10"/>
<path id="Vector_150" d="M773.35 668.4H1703.58" stroke="#A4A4A4" stroke-width="0.58" stroke-miterlimit="10"/>
<path id="Vector_151" d="M1704.02 1167.83H794.57V1266.19H1704.02V1167.83Z" fill="#A8A8A8"/>
<path id="Vector_152" d="M880.9 1077.77H846.55V1264.72H880.9V1077.77Z" fill="#A6A6A6"/>
<path id="Vector_153" d="M1073.76 1185.88H880.62V1206.15H1073.76V1185.88Z" fill="#9B9B9B"/>
<g id="Vector_154" style="mix-blend-mode:multiply" opacity="0.43">
<path d="M1073.76 1193.77H880.62V1205.88H1073.76V1193.77Z" fill="#9B9B9B"/>
</g>
<path id="Vector_155" d="M1073.76 1205.94H880.62V1226.21H1073.76V1205.94Z" fill="#9B9B9B"/>
<g id="Vector_156" style="mix-blend-mode:multiply" opacity="0.43">
<path d="M1073.76 1213.83H880.62V1225.94H1073.76V1213.83Z" fill="#9B9B9B"/>
</g>
<path id="Vector_157" d="M1073.76 1225.86H880.62V1246.13H1073.76V1225.86Z" fill="#9B9B9B"/>
<g id="Vector_158" style="mix-blend-mode:multiply" opacity="0.43">
<path d="M1073.76 1233.75H880.62V1245.86H1073.76V1233.75Z" fill="#9B9B9B"/>
</g>
<path id="Vector_159" d="M1073.76 1245.99H880.62V1266.26H1073.76V1245.99Z" fill="#9B9B9B"/>
<g id="Vector_160" style="mix-blend-mode:multiply" opacity="0.43">
<path d="M1073.76 1253.88H880.62V1265.99H1073.76V1253.88Z" fill="#9B9B9B"/>
</g>
<path id="Vector_161" d="M1041.68 830.31C1030.68 810.52 1006.75 796.76 978.9 796.76C951.05 796.76 927.11 810.52 916.12 830.31H880.62V1167.31H1073.48V830.31H1041.68Z" fill="#CFCCCC"/>
<path id="Vector_162" d="M1065.44 838.03H889.27V1167.82H1065.44V838.03Z" fill="#C7C7C9"/>
<path id="Vector_163" d="M1056.79 853.73H898.54V930.51H1056.79V853.73Z" fill="white"/>
<path id="Vector_164" d="M980.44 855.4H974.88V930.53H980.44V855.4Z" fill="#96979A"/>
<path id="Vector_165" d="M966.85 945.8H910.91V974.29H966.85V945.8Z" fill="#ADADAE"/>
<g id="Vector_166" style="mix-blend-mode:multiply" opacity="0.41">
<path d="M966.83 945.78V947.12H912.29V974.33H910.91V945.78H966.83Z" fill="#ADADAE"/>
</g>
<path id="Vector_167" d="M1044.42 945.8H988.48V974.29H1044.42V945.8Z" fill="#ADADAE"/>
<g id="Vector_168" style="mix-blend-mode:multiply" opacity="0.41">
<path d="M1044.41 945.78V947.12H989.86V974.33H988.48V945.78H1044.41Z" fill="#ADADAE"/>
</g>
<path id="Vector_169" d="M966.85 1125.75H910.91V1154.24H966.85V1125.75Z" fill="#ADADAE"/>
<g id="Vector_170" style="mix-blend-mode:multiply" opacity="0.41">
<path d="M966.83 1125.73V1127.07H912.29V1154.28H910.91V1125.73H966.83Z" fill="#ADADAE"/>
</g>
<path id="Vector_171" d="M1044.42 1125.75H988.48V1154.24H1044.42V1125.75Z" fill="#ADADAE"/>
<g id="Vector_172" style="mix-blend-mode:multiply" opacity="0.41">
<path d="M1044.41 1125.73V1127.07H989.86V1154.28H988.48V1125.73H1044.41Z" fill="#ADADAE"/>
</g>
<path id="Vector_173" d="M966.85 983.59H910.91V1116.45H966.85V983.59Z" fill="#ADADAE"/>
<g id="Vector_174" style="mix-blend-mode:multiply" opacity="0.41">
<path d="M966.83 983.58V985.42H912.79V1116.44H910.91V983.58H966.83Z" fill="#ADADAE"/>
</g>
<path id="Vector_175" d="M1045.04 983.59H989.1V1116.45H1045.04V983.59Z" fill="#ADADAE"/>
<g id="Vector_176" style="mix-blend-mode:multiply" opacity="0.41">
<path d="M1045.03 983.58V985.42H990.99V1116.44H989.1V983.58H1045.03Z" fill="#ADADAE"/>
</g>
<path id="Vector_177" d="M1056.64 894.819V888.52H900.13V894.819H1056.64Z" fill="#96979A"/>
<path id="Vector_178" d="M1107.83 1077.77H1073.48V1264.72H1107.83V1077.77Z" fill="#A6A6A6"/>
<path id="Vector_179" style="mix-blend-mode:multiply" opacity="0.14" d="M1170.14 1167.49H1108.2V1266.22H1170.14V1167.49Z" fill="url(#paint0_linear)"/>
<path id="Vector_180" style="mix-blend-mode:multiply" opacity="0.14" d="M784.24 1266.22H846.18V1167.49H784.24V1266.22Z" fill="url(#paint1_linear)"/>
<path id="Vector_181" d="M1252.9 420.99C1250 421.487 1247.24 422.613 1244.82 424.288C1242.41 425.964 1240.38 428.149 1238.9 430.69C1233.72 439.43 1223.69 477.25 1216.36 484.96C1209.03 492.67 1183.17 508.12 1183.17 508.12L1189.73 512.36C1189.73 512.36 1229.09 500.36 1234.88 493.45C1240.67 486.54 1248.88 449.27 1248.88 449.27L1252.9 420.99Z" fill="#F7F7F7"/>
<path id="Vector_182" d="M1261.56 367.77C1261.56 367.77 1262.06 355.31 1280 354.54C1297.94 353.77 1310.85 368.89 1311.44 377.15C1312.03 385.41 1308.36 398.26 1320.13 406.78C1331.9 415.3 1326.13 455 1298.33 455C1270.53 455 1253.99 453.38 1253.89 439C1253.79 424.62 1253.33 411.67 1264.37 407.68C1275.41 403.69 1261.56 367.77 1261.56 367.77Z" fill="#7C7C7C"/>
<path id="Vector_183" d="M1291.92 527.31C1291.92 527.31 1291.92 527.43 1291.82 527.64L1291.73 527.94C1291.65 528.19 1291.55 528.51 1291.44 528.94L1291.35 529.23C1291.25 529.54 1291.14 529.9 1291.02 530.29L1290.8 531.03C1290.17 533.1 1289.31 535.97 1288.29 539.43C1288.04 540.33 1287.76 541.26 1287.48 542.23C1287.34 542.71 1287.19 543.23 1287.05 543.71L1286.9 544.22C1286.8 544.56 1286.7 544.9 1286.61 545.22C1286.52 545.54 1286.37 546.01 1286.26 546.43L1285.43 549.31C1284.78 551.61 1284.1 554.03 1283.43 556.54H1241.43C1241.53 553.873 1241.65 551.39 1241.8 549.09C1241.8 548.54 1241.87 548.01 1241.91 547.48C1242.09 544.86 1242.29 542.48 1242.5 540.25C1242.56 539.67 1242.61 539.1 1242.67 538.55C1242.78 537.44 1242.9 536.39 1243.02 535.41L1243.08 534.88C1243.08 534.7 1243.08 534.52 1243.15 534.35C1243.28 533.35 1243.4 532.35 1243.52 531.48C1243.52 531.19 1243.61 530.9 1243.65 530.63C1243.69 530.36 1243.73 530.09 1243.76 529.84C1243.79 529.59 1243.84 529.34 1243.87 529.11C1243.9 528.88 1243.94 528.66 1243.98 528.44C1244.02 528.22 1243.98 528.23 1243.98 528.13C1243.98 527.83 1244.07 527.54 1244.12 527.28C1244.17 527.02 1244.18 526.94 1244.21 526.79C1244.24 526.64 1244.21 526.49 1244.28 526.36C1244.38 525.835 1244.55 525.327 1244.79 524.85C1244.79 524.74 1244.91 524.62 1244.97 524.51L1245.18 524.19C1245.33 523.975 1245.5 523.771 1245.68 523.58L1245.93 523.32L1246.22 523.06L1246.45 522.88C1246.59 522.771 1246.73 522.67 1246.88 522.58C1246.97 522.508 1247.07 522.445 1247.17 522.39C1247.38 522.264 1247.6 522.151 1247.82 522.05L1248.18 521.88C1248.32 521.81 1248.46 521.76 1248.61 521.7L1249.03 521.55L1249.44 521.41C1249.92 521.26 1250.44 521.13 1250.95 521.02L1251.33 520.94L1251.92 520.83L1252.74 520.72L1253.29 520.66H1253.74C1253.99 520.66 1254.25 520.66 1254.51 520.6H1255.51C1256.96 520.6 1258.51 520.6 1260.13 520.68L1261.25 520.76L1263.12 520.94C1264.01 521.03 1264.93 521.14 1265.85 521.27H1266.1L1267.38 521.46C1268.68 521.65 1269.97 521.88 1271.25 522.12L1272.77 522.41L1274.16 522.7C1275.46 522.96 1276.74 523.25 1277.97 523.54L1279.33 523.86L1279.68 523.95L1280.33 524.11L1281.33 524.35L1282.85 524.74L1283.44 524.89L1284.35 525.14L1286.65 525.78L1287.59 526.05L1288.33 526.26H1288.44L1289.05 526.44L1289.58 526.6L1290.16 526.78L1290.52 526.89L1290.88 527L1291.92 527.31Z" fill="#7C7C7C"/>
<path id="Vector_184" d="M1312.65 556.51H1271.16C1270.16 550.68 1269.16 545.3 1268.29 540.62C1266.81 532.62 1265.64 526.62 1265.11 523.97C1264.91 522.97 1264.8 522.39 1264.8 522.39L1265.86 521.16C1270.16 516.32 1286.41 499.16 1294.18 507.02C1295.45 508.31 1296.8 509.69 1298.18 511.18C1303.8 516.999 1308.04 524.019 1310.56 531.71C1312.66 538.38 1313.66 546.48 1312.65 556.51Z" fill="#7C7C7C"/>
<path id="Vector_185" d="M1261.56 426.84L1268.56 437.37L1282.7 436.67L1289.22 419.79C1289.22 419.79 1287.22 419.41 1286.22 398.36L1268.58 403.74C1269.11 407.555 1269.01 411.432 1268.26 415.21C1267.5 419.38 1265.56 423.82 1261.56 426.84Z" fill="#F7F7F7"/>
<path id="Vector_186" d="M1259.63 419.42C1260.54 419.42 1277.16 413.86 1300.9 423.52C1300.9 423.52 1289.63 487.99 1294.47 500.3C1297.41 507.816 1299.65 515.59 1301.15 523.52L1248.64 524.17C1248.64 524.17 1249.37 481.94 1246.96 466.99C1244.55 452.04 1259.63 419.42 1259.63 419.42Z" fill="#F7F7F7"/>
<path id="Vector_187" d="M1311.48 530.31C1310.6 532.16 1308.62 533.62 1306.2 534.78C1302.95 536.217 1299.56 537.306 1296.08 538.03C1292.68 538.762 1289.24 539.309 1285.78 539.67C1283.53 539.92 1281.12 540.14 1278.67 540.28H1277.67C1261.85 541.07 1244.13 540.68 1241.82 533.16C1241.59 531.814 1241.57 530.442 1241.75 529.09C1242.05 525.21 1242.95 519.41 1243.83 513.97C1244.67 508.78 1245.49 503.97 1245.72 501.4C1246.93 488.07 1244.39 468.92 1244.01 456.53C1243.71 446.19 1252.93 420.93 1252.93 420.93C1252.93 420.93 1254.68 419.93 1261.52 418.93C1261.52 418.93 1262.52 431.33 1268.88 432.38C1279.88 434.2 1288.78 424.1 1291.38 420.04C1291.38 420.04 1304.04 423.23 1307.75 427.47C1310.42 430.47 1310.07 437.79 1309.28 442.37C1309.1 443.496 1308.83 444.606 1308.48 445.69C1307.69 447.76 1304.73 462.96 1303.37 469.02C1303.37 469.173 1303.34 469.313 1303.28 469.44C1303.19 469.85 1303.11 470.21 1303.04 470.5C1302.96 470.83 1302.89 471.08 1302.84 471.24L1302.74 471.54C1300.53 478.083 1299.7 485.011 1300.3 491.89C1300.42 492.991 1300.62 494.081 1300.91 495.15C1302.63 504.31 1309.96 522.14 1311.48 530.31Z" fill="white"/>
<path id="Vector_188" d="M1268.37 415.21C1275.67 414.62 1286.37 398.36 1286.37 398.36L1268.73 403.74C1269.25 407.557 1269.13 411.434 1268.37 415.21Z" fill="#7C7C7C"/>
<path id="Vector_189" d="M1261.49 419.01C1261.49 419.01 1244.56 420.82 1238.9 428.78C1233.24 436.74 1229.64 448.67 1229.64 448.67C1229.64 448.67 1233.64 460.8 1245.49 459.28C1257.34 457.76 1261.49 419.01 1261.49 419.01Z" fill="white"/>
<path id="Vector_190" d="M1265.73 408.52C1265.73 408.52 1287.27 407.87 1286.66 394.46C1286.05 381.05 1288.41 371.94 1274.66 371.79C1260.91 371.64 1258.44 376.88 1257.56 381.4C1256.68 385.92 1260.11 408.31 1265.73 408.52Z" fill="#F7F7F7"/>
<path id="Vector_191" d="M1274.34 362.49C1274.34 362.49 1263.34 361.49 1255.49 373.81C1252.12 379.14 1254.75 387.46 1258.24 391.81C1258.24 391.81 1259.38 380.44 1265.4 376.62C1271.42 372.8 1274.34 362.49 1274.34 362.49Z" fill="#7C7C7C"/>
<path id="Vector_192" d="M1200.69 490.02C1200.69 490.02 1195.01 483.39 1200.34 479.18C1200.34 479.18 1204.23 476.83 1207.41 477.02C1207.41 477.02 1202.91 484.56 1204.41 485.31C1205.91 486.06 1208.82 476.54 1208.82 476.54C1208.82 476.54 1217.68 475.69 1220.53 477.06C1220.53 477.06 1212.96 483.25 1214.53 483.62C1216.1 483.99 1224.31 477.91 1224.31 477.91C1224.31 477.91 1232.56 479.31 1232.12 484.34C1231.68 489.37 1228.84 490.93 1227.59 490.79C1226.34 490.65 1219.03 487.87 1218.87 488.89C1218.71 489.91 1223.11 493.26 1226.19 493.42C1226.19 493.42 1220.38 499.83 1216.51 497.98C1212.64 496.13 1212.32 493.19 1209.91 492.1C1207.5 491.01 1205.44 491 1206.44 492.1C1207.44 493.2 1211.79 494.31 1213.17 496.75C1214.55 499.19 1215.78 500.83 1211.79 500.23C1207.8 499.63 1201.29 496.7 1201 493.35L1200.69 490.02Z" fill="#999999"/>
<path id="Vector_193" d="M1228.03 484.48C1228.03 484.48 1205.64 483.62 1200.69 490.02C1199.73 492.436 1198.2 494.583 1196.23 496.28L1195.7 497.71C1195.7 497.71 1199.58 493.62 1200.97 493.37C1200.97 493.37 1198.8 485.43 1228.03 484.48Z" fill="#999999"/>
<path id="Vector_194" d="M1196.23 496.31C1194.74 497.523 1193.52 499.028 1192.63 500.733C1191.75 502.437 1191.22 504.304 1191.09 506.22L1191.96 506.3C1191.96 506.3 1193.5 499.73 1196.27 497.16C1199.04 494.59 1196.23 496.31 1196.23 496.31Z" fill="#999999"/>
<path id="Vector_195" d="M1180.83 481.69C1180.83 481.69 1189.83 476.63 1185.65 469.76C1185.65 469.76 1182.27 465.54 1178.65 464.46C1178.65 464.46 1180.58 474.7 1178.65 474.94C1176.72 475.18 1177.32 463.37 1177.32 463.37C1177.32 463.37 1167.8 458.79 1164.07 459.15C1164.07 459.15 1169.97 469.15 1168.07 468.91C1166.17 468.67 1159.52 458.55 1159.52 458.55C1159.52 458.55 1149.76 456.74 1148.19 462.55C1146.62 468.36 1149.19 471.22 1150.6 471.55C1152.01 471.88 1161.33 471.8 1161.09 473C1160.85 474.2 1154.58 476.13 1151.09 475C1151.09 475 1154.94 484.52 1160 484C1165.06 483.48 1166.63 480.38 1169.76 480.14C1172.89 479.9 1175.18 480.74 1173.62 481.59C1172.06 482.44 1166.75 481.86 1164.22 484.01C1161.69 486.16 1159.64 487.49 1164.34 488.45C1169.04 489.41 1177.47 488.81 1179.16 485.2L1180.83 481.69Z" fill="#D6D6D6"/>
<path id="Vector_196" d="M1152.63 464.31C1152.63 464.31 1177.94 472.51 1180.83 481.67C1180.92 484.75 1181.74 487.765 1183.24 490.46V492.31C1183.24 492.31 1180.59 486.16 1179.14 485.31C1179.14 485.31 1184.8 477.31 1152.63 464.31Z" fill="#D6D6D6"/>
<path id="Vector_197" d="M1183.24 490.48C1184.4 492.44 1185.15 494.618 1185.43 496.877C1185.72 499.137 1185.54 501.432 1184.91 503.62L1183.91 503.35C1183.91 503.35 1184.91 495.41 1182.84 491.41C1180.77 487.41 1183.24 490.48 1183.24 490.48Z" fill="#D6D6D6"/>
<path id="Vector_198" d="M1195.2 474.71C1195.2 474.71 1183.29 468.039 1188.85 458.979C1188.85 458.979 1193.3 453.419 1198.06 451.979C1198.06 451.979 1195.52 465.479 1198.06 465.799C1200.6 466.119 1199.81 450.549 1199.81 450.549C1199.81 450.549 1212.36 444.549 1217.28 444.999C1217.28 444.999 1209.5 458.179 1212.04 457.859C1214.58 457.539 1223.32 444.2 1223.32 444.2C1223.32 444.2 1236.18 441.819 1238.25 449.439C1240.32 457.059 1236.98 460.879 1235.07 461.349C1233.16 461.819 1220.93 461.67 1221.25 463.26C1221.57 464.85 1229.83 467.39 1234.43 465.96C1234.43 465.96 1229.35 478.509 1222.68 477.869C1216.01 477.229 1213.95 473.109 1209.82 472.789C1205.69 472.469 1202.67 473.58 1204.73 474.7C1206.79 475.82 1213.79 475.06 1217.12 477.9C1220.45 480.74 1223.12 482.479 1216.96 483.749C1210.8 485.019 1199.65 484.23 1197.43 479.46L1195.2 474.71Z" fill="#D6D6D6"/>
<path id="Vector_199" d="M1232.37 451.83C1232.37 451.83 1199.02 462.64 1195.2 474.71C1195.09 478.772 1194 482.747 1192.03 486.3V488.68C1192.03 488.68 1195.52 480.58 1197.43 479.47C1197.43 479.47 1189.96 468.99 1232.37 451.83Z" fill="#D6D6D6"/>
<path id="Vector_200" d="M1192.03 486.31C1190.5 488.893 1189.51 491.762 1189.13 494.741C1188.75 497.72 1188.99 500.745 1189.82 503.63L1191.14 503.27C1191.14 503.27 1189.85 492.8 1192.55 487.54C1195.25 482.28 1192.03 486.31 1192.03 486.31Z" fill="#D6D6D6"/>
<path id="Vector_201" d="M1218.14 500.91C1218.2 504.015 1217.65 507.102 1216.5 509.989C1215.36 512.877 1213.65 515.507 1211.48 517.725C1209.31 519.944 1206.71 521.707 1203.85 522.91C1200.99 524.113 1197.91 524.733 1194.8 524.733C1191.7 524.733 1188.62 524.113 1185.76 522.91C1182.9 521.707 1180.3 519.944 1178.13 517.725C1175.96 515.507 1174.25 512.877 1173.11 509.989C1171.96 507.102 1171.41 504.015 1171.47 500.91H1218.14Z" fill="#B4B4B4"/>
<path id="Vector_202" d="M1194.8 524.24C1195.75 524.3 1196.7 524.3 1197.65 524.24C1191.46 524.24 1185.53 521.783 1181.15 517.408C1176.77 513.033 1174.31 507.099 1174.31 500.91H1180.11C1180.11 512.81 1183.28 522.81 1194.8 524.24Z" fill="white"/>
<path id="Vector_203" d="M1218.46 525.43H1171.14C1171.14 524.667 1171.45 523.936 1171.99 523.396C1172.53 522.857 1173.26 522.553 1174.02 522.55H1215.56C1215.94 522.547 1216.32 522.62 1216.67 522.763C1217.02 522.907 1217.34 523.119 1217.61 523.386C1217.88 523.654 1218.09 523.972 1218.24 524.323C1218.38 524.674 1218.46 525.05 1218.46 525.43Z" fill="#B4B4B4"/>
<path id="Vector_204" d="M1219.56 509.609C1219.03 508.369 1213.97 507.14 1211.95 506.27C1211.95 506.27 1210.67 507.19 1212.38 508.71C1212.85 509.12 1213.71 509.71 1214.52 510.32L1213.79 510.13C1211.98 509.64 1200.31 513.62 1198.92 516.22C1197.53 518.82 1205.62 525.28 1211.66 523.22C1214.76 522.22 1224.9 520.33 1224.9 520.33L1223.2 512.139C1223.2 512.139 1220.13 510.849 1219.56 509.609Z" fill="#F7F7F7"/>
<path id="Vector_205" d="M1309.64 432.81C1309.64 432.81 1312.05 449.47 1294.69 474.16C1277.33 498.85 1278.33 500.4 1268.37 506.96C1258.41 513.52 1224.94 520.36 1224.94 520.36L1223.24 512.17C1223.24 512.17 1255.71 491.28 1258.8 487.17C1261.89 483.06 1282.8 436.68 1282.8 436.68L1309.64 432.81Z" fill="#F7F7F7"/>
<path id="Vector_206" d="M1292.98 426.63C1292.98 426.63 1279.13 437.49 1275.44 442.8C1271.75 448.11 1268.37 459.97 1268.37 459.97C1268.37 459.97 1282.87 469.07 1307.88 462.5C1307.88 462.5 1314.54 431.57 1307.72 427.5C1305.76 426.325 1303.54 425.63 1301.26 425.47C1298.98 425.31 1296.69 425.69 1294.58 426.58L1292.98 426.63Z" fill="white"/>
<path id="Vector_207" d="M1316.88 235.45H1151.41V243.77H1316.88V235.45Z" fill="#CFCCCC"/>
<path id="Vector_208" d="M1316.88 248.52H1151.41V256.84H1316.88V248.52Z" fill="#CFCCCC"/>
<path id="Vector_209" d="M1316.88 261.59H1151.41V269.91H1316.88V261.59Z" fill="#CFCCCC"/>
<path id="Vector_210" d="M1316.88 273.83H1151.41V282.15H1316.88V273.83Z" fill="#CFCCCC"/>
<path id="Vector_211" d="M1316.88 287.59H1151.41V295.91H1316.88V287.59Z" fill="#CFCCCC"/>
<path id="Vector_212" d="M1160.7 231.53H1159.1V302.66H1160.7V231.53Z" fill="#CFCCCC"/>
<path id="Vector_213" d="M1310.16 231.53H1308.56V302.66H1310.16V231.53Z" fill="#CFCCCC"/>
<path id="Vector_214" d="M1315.71 273.83H1150.24V282.15H1315.71V273.83Z" fill="#CFCCCC"/>
<path id="Vector_215" d="M1315.71 286.9H1150.24V295.22H1315.71V286.9Z" fill="#CFCCCC"/>
<path id="Vector_216" d="M1315.71 299.97H1150.24V308.29H1315.71V299.97Z" fill="#CFCCCC"/>
<path id="Vector_217" d="M1315.71 312.21H1150.24V320.53H1315.71V312.21Z" fill="#CFCCCC"/>
<path id="Vector_218" d="M1315.71 325.97H1150.24V334.29H1315.71V325.97Z" fill="#CFCCCC"/>
<path id="Vector_219" d="M1159.52 269.91H1157.92V341.04H1159.52V269.91Z" fill="#CFCCCC"/>
<path id="Vector_220" d="M1308.99 269.91H1307.39V341.04H1308.99V269.91Z" fill="#CFCCCC"/>
<path id="Vector_221" d="M625.97 1268.31H638.27V1186.31C638.27 1171.36 644.208 1157.03 654.777 1146.46C665.347 1135.89 679.682 1129.95 694.63 1129.95C709.577 1129.95 723.913 1135.89 734.482 1146.46C745.052 1157.03 750.99 1171.36 750.99 1186.31V1268.31H763.29V1186.31C763.29 1168.1 756.056 1150.64 743.18 1137.76C730.303 1124.88 712.839 1117.65 694.63 1117.65C676.42 1117.65 658.956 1124.88 646.08 1137.76C633.203 1150.64 625.97 1168.1 625.97 1186.31V1268.31Z" fill="#606060"/>
<path id="Vector_222" d="M265.72 1158.13C267.351 1158.13 268.916 1157.48 270.069 1156.33C271.222 1155.18 271.87 1153.61 271.87 1151.98V998.47C271.87 997.663 271.711 996.863 271.402 996.117C271.093 995.371 270.64 994.693 270.069 994.122C269.498 993.551 268.82 993.098 268.074 992.788C267.328 992.479 266.528 992.32 265.72 992.32C264.913 992.32 264.113 992.479 263.367 992.788C262.621 993.098 261.943 993.551 261.372 994.122C260.801 994.693 260.348 995.371 260.038 996.117C259.729 996.863 259.57 997.663 259.57 998.47V1151.98C259.57 1153.61 260.218 1155.18 261.372 1156.33C262.525 1157.48 264.089 1158.13 265.72 1158.13Z" fill="#606060"/>
<path id="Vector_223" d="M644.89 1158.13C646.521 1158.13 648.086 1157.48 649.239 1156.33C650.392 1155.18 651.04 1153.61 651.04 1151.98V998.47C651.04 997.663 650.881 996.863 650.572 996.117C650.263 995.371 649.81 994.693 649.239 994.122C648.668 993.551 647.99 993.098 647.244 992.788C646.497 992.479 645.698 992.32 644.89 992.32C644.083 992.32 643.283 992.479 642.537 992.788C641.79 993.098 641.113 993.551 640.542 994.122C639.97 994.693 639.517 995.371 639.208 996.117C638.899 996.863 638.74 997.663 638.74 998.47V1151.98C638.74 1153.61 639.388 1155.18 640.542 1156.33C641.695 1157.48 643.259 1158.13 644.89 1158.13Z" fill="#606060"/>
<path id="Vector_224" d="M245.42 1147.91H687.43C690.528 1147.91 693.04 1145.4 693.04 1142.3V1115.62C693.04 1112.52 690.528 1110.01 687.43 1110.01H245.42C242.322 1110.01 239.81 1112.52 239.81 1115.62V1142.3C239.81 1145.4 242.322 1147.91 245.42 1147.91Z" fill="#C7C7C9"/>
<path id="Vector_225" d="M261.5 1174.08H747.2C749.243 1174.08 751.202 1173.26 752.645 1171.82C754.089 1170.37 754.9 1168.41 754.9 1166.37C754.9 1164.33 754.089 1162.37 752.645 1160.93C751.201 1159.48 749.242 1158.67 747.2 1158.67H261.5V1174.08Z" fill="#C7C7C9"/>
<path id="Vector_226" d="M242.29 1103.22H684.3C687.398 1103.22 689.91 1100.71 689.91 1097.61V1070.93C689.91 1067.83 687.398 1065.32 684.3 1065.32H242.29C239.192 1065.32 236.68 1067.83 236.68 1070.93V1097.61C236.68 1100.71 239.192 1103.22 242.29 1103.22Z" fill="#C7C7C9"/>
<path id="Vector_227" d="M238.08 1056.9H680.09C683.188 1056.9 685.7 1054.39 685.7 1051.29V1024.61C685.7 1021.51 683.188 1019 680.09 1019H238.08C234.982 1019 232.47 1021.51 232.47 1024.61V1051.29C232.47 1054.39 234.982 1056.9 238.08 1056.9Z" fill="#C7C7C9"/>
<path id="Vector_228" d="M255.03 1268.31H267.34V1186.31C267.241 1178.85 268.625 1171.44 271.413 1164.51C274.2 1157.59 278.335 1151.29 283.578 1145.97C288.821 1140.66 295.067 1136.44 301.954 1133.56C308.841 1130.68 316.231 1129.2 323.695 1129.2C331.16 1129.2 338.55 1130.68 345.437 1133.56C352.323 1136.44 358.569 1140.66 363.812 1145.97C369.055 1151.29 373.191 1157.59 375.978 1164.51C378.766 1171.44 380.15 1178.85 380.05 1186.31V1268.31H392.36V1186.31C392.142 1168.24 384.812 1150.99 371.958 1138.29C359.105 1125.59 341.764 1118.47 323.695 1118.47C305.626 1118.47 288.286 1125.59 275.432 1138.29C262.579 1150.99 255.248 1168.24 255.03 1186.31V1268.31Z" fill="#606060"/>
<path id="Vector_229" d="M483.03 1009.17C484.61 1006.9 486.63 1002.75 488.52 995.07C488.3 995.83 485.4 1005.43 480.74 1010.38C463.62 1018.09 428.51 1047.38 428.07 1053.86C428.07 1053.86 420.43 1034.45 420.27 1034.31C420.27 1034.31 404.88 1006.7 429.99 996.31C442.76 991.02 444.16 981.84 444.99 973.8C445.82 965.76 454.89 932.05 476.75 944.73C476.75 944.73 480.75 943.66 482.39 944.18C481.607 944.204 480.843 944.428 480.17 944.83C483.589 945.065 486.873 946.254 489.65 948.26C497.36 954.44 498.07 999.18 483.03 1009.17Z" fill="#606060"/>
<path id="Vector_230" d="M480.11 1002.74C480.11 1002.74 484.84 1021.88 485 1028.74C485 1030.94 486.49 1036.46 488.62 1043.05C493.16 1057.05 500.86 1075.92 505.14 1077.93C507.4 1079 509.66 1080.05 511.65 1080.75C515.19 1082 517.89 1082.15 518.32 1079.39C518.99 1075.07 508.88 1019.01 504.87 1013.29C500.86 1007.57 480.11 1002.74 480.11 1002.74Z" fill="#F7F7F7"/>
<path id="Vector_231" d="M489.72 1235.05C489.266 1235.55 488.966 1236.17 488.856 1236.83C488.746 1237.5 488.831 1238.18 489.1 1238.8C490.01 1241.3 493 1244.09 496.46 1246.87C496.91 1247.23 497.3 1247.56 497.64 1247.87L497.91 1248.11L498.11 1248.29C501.35 1251.29 500.11 1251.95 505.94 1258C512.57 1264.9 517.13 1265 518.43 1264.4C519.53 1263.86 517.3 1260.2 514.83 1256.09C514.7 1255.9 514.59 1255.69 514.46 1255.49C514.13 1254.95 513.81 1254.39 513.46 1253.84C510.56 1248.9 511.31 1246.58 512 1239.21C512.55 1233.21 521.3 1205.8 521.3 1205.8L508.6 1203.61C508.6 1203.61 504.78 1225.46 500.6 1228.82C498.34 1230.61 495.82 1230.64 493.65 1231.97L493.2 1232.25C491.921 1233.03 490.751 1233.97 489.72 1235.05Z" fill="white"/>
<path id="Vector_232" d="M489.72 1235.05C489.266 1235.55 488.966 1236.17 488.856 1236.83C488.746 1237.5 488.831 1238.18 489.1 1238.8C490.21 1241.29 493.1 1244.07 496.48 1246.8C496.91 1247.16 497.3 1247.49 497.64 1247.8L497.91 1248.04L498.11 1248.22C501.35 1251.22 500.11 1251.88 505.94 1257.93C512.57 1264.83 517.13 1264.93 518.43 1264.33C519.53 1263.79 517.3 1260.13 514.83 1256.02C510.189 1254.22 506.11 1251.22 503.01 1247.32C499.01 1242.23 496.36 1235.69 493.64 1231.9L493.19 1232.18C491.911 1232.98 490.744 1233.94 489.72 1235.05Z" fill="#606060"/>
<path id="Vector_233" d="M544.18 1153.31L517.92 1223.98C515.265 1224.18 512.595 1223.93 510.02 1223.26C507.331 1222.34 504.768 1221.09 502.39 1219.54C502.39 1219.54 508.9 1151.68 520.84 1137.54C532.78 1123.4 544.18 1153.31 544.18 1153.31Z" fill="#7C7C7C"/>
<path id="Vector_234" d="M532.6 1104.62C515.77 1099.19 440.32 1124.7 440.32 1124.7L426.29 1119.1C426.29 1119.1 422.42 1138.84 437.11 1154.04C451.8 1169.24 516.4 1143.72 521.8 1142.64C555.5 1139 557.5 1123.5 532.6 1104.62Z" fill="#878787"/>
<g id="lower-leg">
<path id="Vector_235" d="M590.88 1231.2C591.66 1235.12 597.25 1234.47 603.49 1232.94C609.73 1231.41 608.25 1233.23 617.13 1232.24C626.01 1231.25 628.71 1227.95 628.98 1226.63C629.22 1225.46 624.83 1225.04 620.12 1224.5L618.34 1224.29C613.03 1223.62 609.13 1220.19 604.34 1217.37C599.77 1214.7 592.94 1203.83 592.94 1203.83L580.76 1204.83C580.76 1204.83 587.15 1214.54 589.63 1218.76C591.08 1221.24 591 1224.53 590.82 1227.06C590.657 1228.44 590.678 1229.83 590.88 1231.2Z" fill="white"/>
<path id="Vector_236" d="M603.49 1232.94C609.73 1231.41 608.25 1233.23 617.13 1232.24C626.01 1231.25 628.71 1227.95 628.98 1226.63C629.22 1225.46 624.83 1225.04 620.12 1224.5V1224.59C616.319 1227.05 611.923 1228.43 607.4 1228.59C601.4 1228.73 594.98 1227 590.82 1227.07C590.668 1228.46 590.702 1229.86 590.92 1231.24C591.66 1235.12 597.25 1234.47 603.49 1232.94Z" fill="#606060"/>
<path id="lowerleg" d="M599.501 1211C599.501 1211 548.971 1110.43 532.141 1105C516.641 1107.89 492.781 1119.53 521.341 1143.02C526.741 1141.94 528.941 1152.79 534.341 1164.19C539.741 1175.59 585.341 1214.68 585.341 1214.68C585.341 1214.68 592.351 1214.77 595.241 1213.68C596.872 1213.18 598.341 1212.25 599.501 1211Z" fill="#878787"/>
</g>
<path id="Vector_237" d="M465.41 1011.92C470.79 1014.74 479.28 1012.57 479.21 1012.52C478.32 1011.85 478.96 1007.77 479.92 1003.52C479.98 1003.25 480.04 1002.99 480.11 1002.72C481.23 997.93 482.67 993.21 482.67 993.21L466.09 985.95L465.09 985.52C465 985.9 464.91 986.29 464.83 986.65C461.95 998.87 458.44 1001.03 456.83 1002.72C454.72 1005.05 460.35 1009.31 465.41 1011.92Z" fill="white"/>
<path id="Vector_238" d="M464.85 986.67C466.68 992.56 470.53 999.67 480.23 1002.23C481.35 997.44 482.67 993.23 482.67 993.23L466.09 985.97L465.09 985.54C465.02 985.92 464.93 986.31 464.85 986.67Z" fill="#C7C7C9"/>
<path id="Vector_239" d="M463.84 982.97C463.84 982.97 460.06 974.18 459.93 967.17C459.85 962.17 465.2 944.5 482.93 949.99C486.505 951.08 489.789 952.96 492.54 955.49C496.05 958.77 500.82 965.42 491.96 980.16L489.46 985.22L463.84 982.97Z" fill="#606060"/>
<path id="Vector_240" d="M488.62 1043.06C493.16 1057.06 500.86 1075.93 505.14 1077.94C507.4 1079.01 509.66 1080.06 511.65 1080.76C511.12 1069.59 489.77 1039.19 489.77 1039.19L488.62 1043.06Z" fill="#F2ECF5"/>
<path id="Vector_241" d="M484.44 996.62C484.44 996.62 461.59 993.37 463.83 979.17C466.07 964.97 464.64 954.98 479.33 956.46C494.02 957.94 495.99 963.8 496.39 968.72C496.79 973.64 490.44 997.1 484.44 996.62Z" fill="white"/>
<path id="Vector_242" d="M489.77 957.76C489.77 957.76 480.87 973.43 470.9 974.36C460.93 975.29 457.18 972.07 457.18 972.07C457.759 965.888 459.003 959.786 460.89 953.87C460.89 953.87 486.32 949.08 489.77 957.76Z" fill="#606060"/>
<path id="Vector_243" d="M488 958.871C488 958.871 492.07 963.33 492.63 967.13C493.19 970.93 492.52 978.45 494.73 978.54C494.73 978.54 501.24 967.97 496.97 960.72C492.45 953.03 488 958.871 488 958.871Z" fill="#606060"/>
<path id="Vector_244" d="M422.13 1121.31C422.13 1121.64 422.13 1121.97 422.13 1122.31C422.142 1123.28 422.308 1124.24 422.62 1125.15C423.72 1128.15 426.82 1129.25 431.04 1129.04C431.61 1129.04 432.2 1128.96 432.8 1128.89C442.56 1127.76 457.05 1121.21 467.5 1116.67C483.42 1109.77 490.66 1116.26 495.73 1111.87C496.295 1111.39 496.705 1110.75 496.91 1110.04C496.91 1109.88 497 1109.71 497.04 1109.54C498.04 1103.91 491.29 1091.15 499.35 1052.35C502.54 1036.96 480.11 1002.79 480.11 1002.79C480.11 1002.79 477.86 1012.47 458.27 1001.41C458.15 1001.34 452.92 1012.92 445.58 1026.82C437.5 1042.16 429.75 1060.69 432.03 1070.23C434.55 1080.8 429.75 1094.23 426.03 1105.59C423.98 1111.64 422.26 1117.14 422.13 1121.31Z" fill="#F7F7F7"/>
<path id="Vector_245" d="M422.13 1121.31C422.13 1121.64 422.13 1121.97 422.13 1122.31C422.142 1123.28 422.308 1124.24 422.62 1125.15C423.72 1128.15 426.82 1129.25 431.04 1129.04C431.61 1129.04 432.2 1128.96 432.8 1128.89C442.56 1127.76 457.05 1121.21 467.5 1116.67C483.42 1109.77 490.41 1116.11 495.86 1112.21C497.37 1111.14 497.02 1108.37 497.23 1107.65C488.53 1102.85 466.94 1106.74 476.94 1085.49C482.04 1074.66 456.39 1043.87 449.4 1055.66C438.85 1071.15 430.67 1060.76 433.65 1070.41C436.88 1080.92 430.86 1094.23 425.99 1105.59C423.98 1111.64 422.26 1117.14 422.13 1121.31Z" fill="#C7C7C9"/>
<path id="Vector_246" d="M522.17 1085.79C522.17 1085.79 527.79 1096.47 526.75 1100.79C525.98 1104.05 520.34 1104.31 513.57 1105.14C512.132 1105.35 510.762 1105.9 509.57 1106.73L522.17 1085.79Z" fill="#F2ECF5"/>
<path id="Vector_247" d="M524.46 1079.4L523.39 1078.24L488.96 1075.22L489.77 1076.25L524.46 1079.4Z" fill="#EFE5DF"/>
<path id="Vector_248" d="M458.27 1001.36C458.27 1001.36 442.41 1003.16 435.89 1012.24C426.72 1025.03 410.89 1097.85 421.31 1105.12C433.59 1113.69 474.31 1105.96 474.31 1105.96C474.31 1105.96 474.62 1101.18 472.69 1098.05C470.76 1094.92 438.69 1092.15 437.19 1090.7C435.69 1089.25 455.19 1041.44 455.19 1037.1C455.19 1032.76 458.27 1001.36 458.27 1001.36Z" fill="#F7F7F7"/>
<path id="Vector_249" d="M478.98 1093.03L488.96 1075.22L489.77 1076.25L480.97 1092.56L478.98 1093.03Z" fill="#EFE5DF"/>
<path id="Vector_250" d="M524.9 1081.24L508.69 1108.24C508.565 1108.45 508.387 1108.62 508.174 1108.73C507.961 1108.85 507.721 1108.9 507.48 1108.89L475.02 1107.58C474.789 1107.57 474.564 1107.51 474.366 1107.39C474.168 1107.27 474.004 1107.1 473.89 1106.9C473.776 1106.7 473.715 1106.47 473.713 1106.24C473.711 1106.01 473.769 1105.78 473.88 1105.58L489.24 1076.8C489.366 1076.57 489.559 1076.37 489.793 1076.25C490.028 1076.12 490.295 1076.07 490.56 1076.09L523.87 1079.24C524.091 1079.27 524.303 1079.34 524.487 1079.47C524.67 1079.6 524.82 1079.77 524.922 1079.96C525.024 1080.16 525.075 1080.38 525.071 1080.61C525.067 1080.83 525.009 1081.05 524.9 1081.24Z" fill="#838384"/>
<path id="Vector_251" d="M491.65 1080.5C492.185 1080.5 492.62 1080.07 492.62 1079.53C492.62 1078.99 492.185 1078.56 491.65 1078.56C491.114 1078.56 490.68 1078.99 490.68 1079.53C490.68 1080.07 491.114 1080.5 491.65 1080.5Z" fill="#EFE5DF"/>
<path id="Vector_252" d="M502.29 1095.5C501.889 1096.16 501.256 1096.64 500.516 1096.86C499.775 1097.07 498.981 1097 498.29 1096.66C497.984 1096.51 497.713 1096.3 497.493 1096.04C497.274 1095.78 497.112 1095.48 497.018 1095.15C496.924 1094.83 496.899 1094.48 496.946 1094.15C496.993 1093.81 497.11 1093.49 497.29 1093.2C497.69 1092.54 498.323 1092.06 499.064 1091.84C499.805 1091.63 500.599 1091.7 501.29 1092.04C502.69 1092.67 502.93 1094.13 502.29 1095.5Z" fill="#EFE5DF"/>
<path id="Vector_253" d="M472.69 1098.05C472.69 1098.05 476.29 1093.05 480.97 1092.56C485.65 1092.07 488.72 1094.49 488.97 1095.93C489.22 1097.37 488.04 1101.93 484.76 1103.33C481.48 1104.73 471.13 1105.12 471.13 1105.12L472.69 1098.05Z" fill="white"/>
<path id="Vector_254" d="M526.77 1097.72C526.77 1097.72 524.17 1092.83 520.26 1092.46C516.35 1092.09 513.56 1094.46 513.26 1095.9C512.96 1097.34 513.41 1102.17 516.19 1103.11C529.03 1107.45 526.77 1097.72 526.77 1097.72Z" fill="white"/>
<path id="Vector_255" d="M1720.66 54.2402H759.08V84.4602H1720.66V54.2402Z" fill="#6D6D6D"/>
<path id="Vector_256" d="M773.35 94.9004L774.47 369.5" stroke="#9B9B9B" stroke-width="5" stroke-miterlimit="10" stroke-linecap="round"/>
<path id="Vector_257" d="M773.35 455V932.01" stroke="#9B9B9B" stroke-width="5" stroke-miterlimit="10" stroke-linecap="round"/>
<path id="Vector_258" d="M1060.53 220.55V377.15" stroke="#9B9B9B" stroke-width="5" stroke-miterlimit="10" stroke-linecap="round"/>
<path id="Vector_259" d="M879.21 563.66V398.36" stroke="#9B9B9B" stroke-width="5" stroke-miterlimit="10" stroke-linecap="round"/>
<path id="Vector_260" d="M879.21 220.54H918.36C918.36 220.54 938.05 180.26 976.62 190.05" stroke="#9B9B9B" stroke-width="5" stroke-miterlimit="10" stroke-linecap="round"/>
<path id="Vector_261" d="M661.15 382.97C656.847 374.678 650.35 367.727 642.367 362.875C634.384 358.023 625.221 355.457 615.88 355.457C606.538 355.457 597.375 358.023 589.392 362.875C581.409 367.727 574.912 374.678 570.61 382.97H535.81V695.23H696.95V382.97H661.15Z" fill="#CFCCCC"/>
<g id="Vector_262" style="mix-blend-mode:multiply" opacity="0.21">
<path d="M696.94 687.89H535.81V693.23H696.94V687.89Z" fill="#7A91A8"/>
</g>
<path id="Vector_263" d="M691.94 388.48H541.32V685.73H691.94V388.48Z" fill="#96979A"/>
<path id="Vector_264" d="M687.46 393.17H545.95V680.73H687.46V393.17Z" fill="#F1F1F1"/>
<path id="Vector_265" d="M687.46 399.13H551.36V680.74H687.46V399.13Z" fill="#F7F7F5"/>
<path id="Vector_266" d="M622.38 390.15H616.38V683.89H622.38V390.15Z" fill="#96979A"/>
<path id="Vector_267" d="M689.94 441.02H543.32V447.03H689.94V441.02Z" fill="#96979A"/>
<path id="Vector_268" d="M689.94 502.07H543.32V508.07H689.94V502.07Z" fill="#96979A"/>
<path id="Vector_269" d="M689.94 563.12H543.32V569.13H689.94V563.12Z" fill="#96979A"/>
<path id="Vector_270" d="M689.94 624.18H543.32V630.18H689.94V624.18Z" fill="#96979A"/>
<path id="Vector_271" d="M561.08 704.72V711.62C561.118 712.709 560.936 713.796 560.546 714.813C560.155 715.831 559.564 716.76 558.806 717.545C558.049 718.329 557.141 718.953 556.138 719.379C555.134 719.805 554.055 720.025 552.965 720.025C551.874 720.025 550.795 719.805 549.792 719.379C548.788 718.953 547.88 718.329 547.123 717.545C546.366 716.76 545.774 715.831 545.384 714.813C544.993 713.796 544.811 712.709 544.85 711.62V704.72H561.08Z" fill="#C7C7C9"/>
<g id="Vector_272" style="mix-blend-mode:multiply" opacity="0.21">
<path d="M561.08 704.72H544.85V709.89H561.08V704.72Z" fill="#C7C7C9"/>
</g>
<path id="Vector_273" d="M685.93 704.72V711.62C685.93 713.771 685.075 715.833 683.555 717.354C682.034 718.875 679.971 719.73 677.82 719.73C675.669 719.73 673.606 718.875 672.085 717.354C670.564 715.833 669.71 713.771 669.71 711.62V704.72H685.93Z" fill="#C7C7C9"/>
<g id="Vector_274" style="mix-blend-mode:multiply" opacity="0.21">
<path d="M685.94 704.72H669.71V709.89H685.94V704.72Z" fill="#C7C7C9"/>
</g>
<path id="Vector_275" d="M703.46 691.48H526.31V706.49H703.46V691.48Z" fill="#C7C7C9"/>
<path id="Vector_276" d="M696.95 382.98V522.15" stroke="#9B9B9B" stroke-width="5" stroke-miterlimit="10" stroke-linecap="round"/>
<path id="Vector_277" d="M535.81 687.89V541" stroke="#9B9B9B" stroke-width="5" stroke-miterlimit="10" stroke-linecap="round"/>
<path id="Vector_278" d="M535.81 382.97H570.61C570.61 382.97 588.1 347.18 622.39 355.87" stroke="#9B9B9B" stroke-width="5" stroke-miterlimit="10" stroke-linecap="round"/>
<path id="Vector_279" d="M1323.35 220.73V320.53" stroke="#9B9B9B" stroke-width="5" stroke-miterlimit="10" stroke-linecap="round"/>
<path id="Vector_280" d="M1181.19 220.73C1181.19 220.73 1218.36 162.95 1273.92 207.85" stroke="#9B9B9B" stroke-width="5" stroke-miterlimit="10" stroke-linecap="round"/>
<path id="Vector_281" d="M1142.03 408.53L1143.49 563.66" stroke="#9B9B9B" stroke-width="5" stroke-miterlimit="10" stroke-linecap="round"/>
<path id="Vector_282" d="M1446.92 220.73H1407.77V506.27" stroke="#9B9B9B" stroke-width="5" stroke-miterlimit="10" stroke-linecap="round"/>
<path id="Vector_283" d="M1589.09 408.53V559.16" stroke="#9B9B9B" stroke-width="5" stroke-miterlimit="10" stroke-linecap="round"/>
<path id="Vector_284" d="M811.64 616.03H1052.64" stroke="#9B9B9B" stroke-width="5" stroke-miterlimit="10" stroke-linecap="round"/>
<path id="Vector_285" d="M1697.95 685.85L1420.45 688.37" stroke="#9B9B9B" stroke-width="5" stroke-miterlimit="10" stroke-linecap="round"/>
<path id="Vector_286" d="M1182.64 757.93C1182.64 757.93 1204.69 720.99 1238.47 727.17C1272.25 733.35 1284.53 757.93 1284.53 757.93" stroke="#9B9B9B" stroke-width="5" stroke-miterlimit="10" stroke-linecap="round"/>
<path id="Vector_287" d="M1497.87 726.96C1467.53 725.96 1446.87 757.96 1446.87 757.96H1407.72V922.96" stroke="#9B9B9B" stroke-width="5" stroke-miterlimit="10" stroke-linecap="round"/>
<path id="Vector_288" d="M1589.09 844.79V1018.46" stroke="#9B9B9B" stroke-width="5" stroke-miterlimit="10" stroke-linecap="round"/>
<path id="Vector_289" d="M1097.56 1077.77H1107.83L1108.2 1216.08" stroke="#9B9B9B" stroke-width="5" stroke-miterlimit="10" stroke-linecap="round"/>
<path id="Vector_290" d="M1703.02 84.0596V205.75" stroke="#9B9B9B" stroke-width="5" stroke-miterlimit="10" stroke-linecap="round"/>
<path id="Vector_291" d="M1703.02 305.48L1703.58 754.1" stroke="#9B9B9B" stroke-width="5" stroke-miterlimit="10" stroke-linecap="round"/>
<path id="Vector_292" d="M1704.02 1167.83L1703.02 887.35" stroke="#9B9B9B" stroke-width="5" stroke-miterlimit="10" stroke-linecap="round"/>
<path id="Vector_293" d="M880.62 894.82V830.31H916.12C916.12 830.31 930.12 801.46 971.23 797.12" stroke="#9B9B9B" stroke-width="5" stroke-miterlimit="10" stroke-linecap="round"/>
<path id="Vector_294" d="M1073.48 830.29V1021.83" stroke="#9B9B9B" stroke-width="5" stroke-miterlimit="10" stroke-linecap="round"/>
<path id="Vector_295" d="M1650.71 1264.47H1596.04C1593.11 1261.99 1598.04 1256.34 1603.25 1255.97C1606.06 1255.94 1608.87 1256.27 1611.59 1256.97C1612.34 1246.97 1616.59 1202.06 1632.83 1203.86C1651.04 1205.86 1632.83 1223.65 1627.69 1234.16C1624.04 1242.06 1620.81 1250.15 1618.01 1258.39C1619.49 1258.71 1621.01 1259.03 1622.59 1259.31C1625 1251.9 1633.98 1226.98 1645.4 1228.43C1658.8 1230.13 1653.4 1240.13 1643.91 1246.06C1636.91 1250.42 1628.38 1256.62 1624.31 1259.61C1627.84 1260.23 1631.42 1260.52 1635 1260.47C1644.37 1260.23 1648.94 1262.99 1650.71 1264.47Z" fill="#D8D8D8"/>
<path id="Vector_296" d="M3.26 1265.21H2161.05C2161.92 1265.21 2162.75 1265.55 2163.36 1266.17C2163.98 1266.78 2164.32 1267.61 2164.32 1268.48V1270.37C2164.32 1271.23 2163.98 1272.06 2163.37 1272.68C2162.75 1273.29 2161.92 1273.63 2161.06 1273.63H3.26C2.39539 1273.63 1.5662 1273.29 0.954832 1272.68C0.343463 1272.06 0 1271.23 0 1270.37L0 1268.48C0 1267.62 0.343463 1266.79 0.954832 1266.17C1.5662 1265.56 2.39539 1265.22 3.26 1265.22V1265.21Z" fill="#7C7C7C"/>
</g>
</g>
</g>
<defs>
<linearGradient id="paint0_linear" x1="1184.78" y1="1216.85" x2="1099.86" y2="1216.85" gradientUnits="userSpaceOnUse">
<stop stop-color="#FFA39C" stop-opacity="0"/>
<stop offset="1" stop-color="#5E728E"/>
</linearGradient>
<linearGradient id="paint1_linear" x1="-90217" y1="172024" x2="-84957" y2="172024" gradientUnits="userSpaceOnUse">
<stop stop-color="#FFA39C" stop-opacity="0"/>
<stop offset="1" stop-color="#5E728E"/>
</linearGradient>
<clipPath id="clip0">
<rect width="2164.32" height="1273.63" fill="white"/>
</clipPath>
</defs>
</svg>
