<svg width="3003" height="1060" viewBox="0 0 3003 1060" fill="none" xmlns="http://www.w3.org/2000/svg">
<g clip-path="url(#clip0)">
<path opacity="0.5" d="M1172.93 356.6L1206.58 628.53H1139.28L1172.93 356.6Z" fill="white"/>
<path opacity="0.5" d="M1232.2 396.54L1257.83 603.64H1206.58L1232.2 396.54Z" fill="white"/>
<path opacity="0.5" d="M1129.04 427.03L1158.35 663.89H1099.73L1129.04 427.03Z" fill="white"/>
<path d="M1051.24 681.22C1051.24 681.22 1289.24 379.75 1430.76 380.71C1572.28 381.67 1726.49 579.29 1927.91 748.06C2153.64 937.18 1858.91 945.12 1841.91 946.68C1824.91 948.24 1238.02 927.53 1228.19 917.3C1218.36 907.07 1061.7 776.3 1061.7 776.3L1051.24 681.22Z" fill="#F9F9F9"/>
<path d="M2272.35 690.29H2282.41V578.81H2272.35V690.29Z" fill="#C6C6C6"/>
<path d="M2277.38 362.54L2310.21 627.85H2244.55L2277.38 362.54Z" fill="#C6C6C6"/>
<path d="M2298.31 531.63L2251.49 571.77L2253.3 557.22L2296.85 519.87L2298.31 531.63Z" fill="white"/>
<path d="M2291.11 473.47L2262.45 483.27L2263.79 472.38L2289.87 463.47L2291.11 473.47Z" fill="white"/>
<path d="M1005.34 620.53C1259.57 662.83 1641.05 1043 1931.6 1043C2222.15 1043 2284.72 952.07 2393.68 971.3C2502.64 990.53 2648.91 1043 2648.91 1043L489.78 1049.38C489.78 1049.38 751.1 578.27 1005.34 620.53Z" fill="#EFEFEF"/>
<path d="M1878.97 509.77L1908.28 746.63H1849.66L1878.97 509.77Z" fill="#E5E5E5"/>
<path d="M1772.89 675.8L1795.21 856.19H1750.57L1772.89 675.8Z" fill="#E5E5E5"/>
<path d="M2632.38 806.74L2632.78 785.89C2632.78 770.42 2620.97 757.89 2606.42 757.89C2569.73 757.89 2540 789.48 2540 828.45V856.94C2540.07 862.752 2538.59 868.476 2535.72 873.528C2532.84 878.58 2528.68 882.778 2523.65 885.69C2514.82 890.63 2509.42 900.5 2509.42 911.1V926.1C2509.41 934.006 2511.12 941.82 2514.42 949.005C2517.72 956.189 2522.54 962.574 2528.54 967.72C2532.17 970.863 2535.08 974.756 2537.05 979.131C2539.03 983.506 2540.04 988.259 2540 993.06V1014.33C2540 1037.84 2557.94 1056.9 2580.07 1056.9H2592.7C2614.83 1056.9 2632.78 1037.84 2632.78 1014.33C2629.14 984.63 2637.95 967.49 2648.11 957.69C2655.62 950.406 2661.58 941.687 2665.65 932.051C2669.72 922.415 2671.81 912.059 2671.79 901.6V898.6C2671.8 887.593 2669.46 876.709 2664.94 866.676C2660.41 856.642 2653.8 847.688 2645.54 840.41C2638.29 834.06 2632.38 823.68 2632.38 806.74Z" fill="#C6C6C6"/>
<path d="M1824.13 562.66L1853.44 799.52H1794.83L1824.13 562.66Z" fill="#E5E5E5"/>
<path d="M2111.02 620.53C1856.78 662.83 1475.31 1043 1184.75 1043C894.19 1043 831.63 952.07 722.67 971.3C613.71 990.53 467.44 1043 467.44 1043L2626.58 1049.38C2626.58 1049.38 2365.28 578.27 2111.02 620.53Z" fill="#F2F2F2"/>
<path d="M279.87 1049.42C279.87 1049.42 558.62 807.29 918.03 792.42C1038.72 787.42 1532.91 887.56 1949.03 966.23C1966.52 969.54 2402.67 1050.11 2462.03 1052.5L279.87 1049.42Z" fill="#EAEAEA"/>
<path d="M2987.67 1057.69H15.09C6.76001 1057.69 0 1055.48 0 1052.69C0 1049.95 6.76001 1047.69 15.09 1047.69H2987.67C2996.01 1047.69 3002.76 1049.91 3002.76 1052.69C3002.76 1055.53 2996.02 1057.69 2987.67 1057.69Z" fill="#898989"/>
<path opacity="0.5" d="M1334.16 467.17L1356.49 647.57H1311.84L1334.16 467.17Z" fill="white"/>
<path d="M1295.02 443.53C1295.02 443.53 1420.79 323.65 1552.08 426.48" stroke="#666666" stroke-width="4" stroke-miterlimit="10" stroke-linecap="round"/>
<path d="M1635.99 488.09L1807.15 644.25" stroke="#666666" stroke-width="4" stroke-miterlimit="10" stroke-linecap="round"/>
<path d="M1229.02 379.58C1245.26 383.93 1248.02 446.58 1248.02 446.58L1299.5 440.68C1299.5 440.68 1290.12 375.39 1262.93 348.1C1235.74 320.81 1167.02 337.5 1140.93 354.49C1114.84 371.48 1126.02 393.07 1126.02 393.07C1126.02 393.07 1212.74 375.24 1229.02 379.58Z" fill="#595959"/>
<path d="M1280.73 431.71C1283.42 491.18 1300.09 496.44 1300.42 497.27C1300.77 497.33 1314.08 507.57 1328.81 494.03L1323.92 489.03C1321.57 491.337 1318.69 493.033 1315.53 493.97C1313.54 494.496 1311.47 494.609 1309.44 494.301C1307.41 493.993 1305.46 493.271 1303.72 492.18C1303.36 491.89 1299.86 489.78 1298.11 486.89C1289.56 475.46 1285.48 445.75 1284.33 431.55L1280.73 431.71Z" fill="#595959"/>
<path d="M1107.65 388.24C1107.65 388.24 1114.88 416.58 1115.65 439.61C1116.42 462.64 1132.35 481.85 1134.42 539.48C1135.92 576.508 1139.36 613.432 1144.72 650.1C1144.72 650.1 1208.72 654.55 1221.26 640.98C1233.8 627.41 1228.4 503.98 1215.95 444.05C1203.5 384.12 1258.23 367.71 1229.79 348.05C1201.35 328.39 1164.36 341.71 1148.71 347.05C1133.06 352.39 1107.2 375.53 1107.65 388.24Z" fill="#595959"/>
<path d="M1213.26 435.92C1213.26 435.92 1220.81 481.92 1215.13 528.55C1209.45 575.18 1218.49 667.12 1218.49 667.12C1218.49 667.12 1266.13 700.38 1280.13 673.97C1282.76 668.97 1289.05 610.1 1289.61 585.48C1290.21 559.32 1286.61 467.96 1285.4 438.35C1285.15 432.144 1283.31 426.107 1280.07 420.81C1269.66 403.81 1245.76 366.18 1237.45 364.88C1226.61 363.18 1207.56 386.63 1213.26 435.92Z" fill="#C1C1C1"/>
<path d="M1286.66 470.14C1279.95 476.67 1237.37 517.63 1216 520.58C1216.25 517.98 1216.46 515.38 1216.65 512.8C1233.36 510.12 1271.02 475.42 1286.29 460.62C1286.41 463.65 1286.53 466.84 1286.66 470.14Z" fill="#595959"/>
<path d="M1213.37 580.21C1213.37 577.65 1213.29 575.1 1213.27 572.56C1226.19 578.1 1271.63 574.56 1289.65 572.56C1289.65 575.23 1289.65 577.68 1289.65 579.89C1273.16 581.73 1228.77 586.59 1213.37 580.21Z" fill="#595959"/>
<path d="M1285.36 639.71C1285.1 642.117 1284.83 644.45 1284.56 646.71C1266.56 650.31 1232.02 634.98 1215.42 627.77C1215.24 625.05 1215.07 622.25 1214.91 619.37C1230.34 626.11 1269.58 642.68 1285.36 639.71Z" fill="#595959"/>
<path d="M1286.41 629.72C1278.41 633.07 1228.76 654.38 1217.41 655.1C1217.24 653 1217.05 650.66 1216.85 648.1C1224.85 647.36 1262.65 631.55 1287.2 621.32C1286.95 624.13 1286.69 626.94 1286.41 629.72Z" fill="#595959"/>
<path d="M1237.84 536.22H1221.9C1216.15 536.22 1211.49 540.881 1211.49 546.63V640.11C1211.49 645.859 1216.15 650.52 1221.9 650.52H1237.84C1243.59 650.52 1248.25 645.859 1248.25 640.11V546.63C1248.25 540.881 1243.59 536.22 1237.84 536.22Z" fill="#9F57C0"/>
<path d="M1248.25 570.25H1211.49V577.95H1248.25V570.25Z" fill="#13375B"/>
<path d="M1240.91 972.29L1257.98 987.95C1260.36 989.72 1266.76 993.58 1268.62 995.49C1275.62 1002.67 1230.88 1020.55 1234.92 1010.39C1235.29 1009.47 1235.92 1001.39 1233.81 998.73C1230.48 994.65 1224.48 988.83 1224.48 988.83L1240.91 972.29Z" fill="#EDEDED"/>
<path d="M1234.93 1010.25C1234.93 1010.25 1244.54 1005.13 1248.93 1001.93C1253.32 998.73 1253.84 989.18 1257.76 987.77C1262.08 986.23 1280.2 1004.77 1280.2 1004.77C1280.2 1004.77 1244.77 1043.27 1226.2 1056.1C1222.2 1058.87 1217.36 1057.98 1215.65 1058.02C1209.1 1058.13 1224.64 1030.31 1234.93 1010.25Z" fill="#595959"/>
<path d="M1026.5 1002.6L1021.21 1028.25C1020.88 1031.59 1020.84 1040.05 1020.06 1042.96C1017.15 1053.89 974.06 1020.69 986.21 1018.76C987.31 1018.58 992.78 1016.39 994.66 1013.02C997.93 1007.15 1001.03 996.16 1001.03 996.16L1026.5 1002.6Z" fill="#EDEDED"/>
<path d="M986.36 1018.69C986.36 1018.69 996.85 1025.08 1002.45 1027.48C1008.05 1029.88 1018.32 1023.22 1021.93 1026.23C1025.93 1029.54 1019.43 1058.85 1019.43 1058.85C1019.43 1058.85 945.71 1039.31 930.03 1029.16C923.81 1025.14 961.02 1020.24 986.36 1018.69Z" fill="#595959"/>
<path d="M1066.18 651.47L1020.5 834.09L991.61 1010.94L1027.61 1015.79C1027.61 1015.79 1078.27 880.55 1079.68 864.98C1081.09 849.41 1106.52 776.65 1106.52 776.65L1066.18 651.47Z" fill="#595959"/>
<path d="M1172.81 630.33C1172.81 630.33 1169.39 805.43 1172.21 821.7C1175.03 837.97 1251.56 976.8 1251.56 976.8L1225.8 1004.8C1225.8 1004.8 1116.28 877.8 1111.46 866.63C1103.89 849.07 1066.54 651.1 1066.54 651.1L1172.81 630.33Z" fill="#898989"/>
<path d="M878.54 348.95C882.23 356.34 882.7 359.95 883.64 361.32C884.75 362.93 908.82 373.18 908.82 373.18C908.82 373.18 979.55 403.84 983.43 405.36L1062.43 404.78L1074.84 443.69C1074.84 443.69 988.77 442.05 984.27 441.19C979.77 440.33 888.73 387.92 880.57 383.56C880.57 383.56 869 381.88 861.76 380.56C854.52 379.24 849.35 376.92 847.76 375.56C844.65 372.89 846.88 369.63 847.19 368.56C844.96 363.88 848.49 362.36 848.59 362.19C848.8 361.8 847.7 360.8 848.1 358.5C848.45 356.5 850.2 356.17 850.81 355.12C849.46 350.12 853.48 349.75 854.87 350.01C856.26 350.27 867.87 352.88 869.26 353.2C871.08 353.61 871.43 353.35 871.73 352.11C872.54 348.74 870.73 343.11 870.94 340.79C871.18 337.61 873.69 335.97 874.57 336.38C875.45 336.79 875.53 342.92 878.54 348.95Z" fill="#EDEDED"/>
<path d="M1046.12 446.53C1040.81 427.22 1036.33 409.28 1037.21 400.36C1037.21 400.36 1060.8 396.43 1088.92 392.19C1109.1 389.19 1141.27 421.65 1135 429.01C1121.02 445.53 1046.12 446.53 1046.12 446.53Z" fill="#C1C1C1"/>
<path d="M1130.84 388.02C1130.84 388.02 1150.24 386.24 1158 404.64C1165.76 423.04 1173.51 511.47 1170 553.92C1166.49 596.37 1181.35 655.12 1181.35 655.12C1113.72 690.12 1065.64 652.26 1065.64 652.26C1065.64 652.26 1047.79 489.82 1054.36 459.82C1068.11 397.12 1094.54 387.01 1094.54 387.01L1130.84 388.02Z" fill="#DBDBDB"/>
<path d="M1184.58 680.53C1191.9 668.59 1193.58 670.28 1194.45 668.73C1195.51 666.89 1194.33 638.46 1194.33 638.46C1194.33 638.46 1191.39 554.63 1191.08 550.12L1153.56 472.73L1185.99 442.35C1185.99 442.35 1224.61 527.67 1225.86 532.51C1227.11 537.35 1218.18 651.25 1217.71 661.31C1217.71 661.31 1221.47 673.46 1223.59 681.17C1225.71 688.88 1224.35 697.17 1224.59 699.47C1224.84 705.341 1224.38 711.22 1223.22 716.98C1221.61 725.22 1219.46 716.69 1219.46 716.69C1219.46 716.69 1219.78 700.91 1218.56 701.11C1217.62 701.27 1217.94 709.89 1216.25 719.02C1215.82 721.37 1215.38 723.68 1214.96 725.81C1213.86 731.38 1210.21 732.32 1210.45 726.31C1210.54 723.581 1210.81 720.861 1211.28 718.17C1211.83 715.48 1211.48 712.83 1211.61 710.5C1211.86 705.87 1212.09 702.5 1211.9 702.59C1211.71 702.68 1211.07 701.77 1210.53 704.25C1209.88 707.25 1209.88 713.85 1208.6 718.16C1207.87 720.6 1206.65 725.8 1206.65 725.8C1206.65 725.8 1203.38 733.32 1202.89 733.28C1200.23 733.05 1201.05 727.28 1202.46 724.09C1202.34 721.6 1203.77 716.16 1203.77 716.16C1203.77 716.16 1204.26 704.54 1202.66 704.46C1201.97 704.46 1200.84 711.53 1198.66 718.32C1196.66 724.63 1193.59 730.68 1192.32 730.48C1190.15 730.12 1191.67 722.88 1191.67 722.88C1191.67 722.88 1193 717.88 1193.32 716.16C1193.69 714.16 1194.32 708.16 1194.32 708.16C1194.32 708.16 1195.69 687 1194.16 687.06C1192.63 687.12 1188.76 688.87 1188.23 690.16C1187.7 691.45 1187.93 694.3 1187.4 695.59C1187.09 696.323 1186.53 696.923 1185.83 697.289C1185.12 697.654 1184.31 697.761 1183.53 697.59C1181.94 697.06 1182.17 689.87 1182.17 689.87C1182.17 689.87 1182.46 684.01 1184.58 680.53Z" fill="#EDEDED"/>
<path d="M1202.02 465.04L1159.5 498.04C1159.5 498.04 1140.72 480.14 1131.3 460.35C1121.75 440.35 1133.37 387.49 1143.53 390.21C1166.21 396.26 1202.02 465.04 1202.02 465.04Z" fill="#C1C1C1"/>
<path d="M1122.72 348.74L1129.08 390.68C1129.08 390.68 1105.85 440.6 1091.98 436.27C1080.34 432.64 1087.5 388.46 1087.5 388.46C1087.5 388.46 1093.84 364.74 1091.94 352.87C1090.04 341 1122.72 348.74 1122.72 348.74Z" fill="#EDEDED"/>
<path d="M1091.94 352.87C1090.04 341 1122.72 348.74 1122.72 348.74L1123.25 352.22C1122.42 354.365 1121.22 356.345 1119.7 358.07C1112.4 365.92 1100.99 370.64 1091.13 371C1092.11 364.6 1092.72 357.74 1091.94 352.87Z" fill="#C1C1C1"/>
<path d="M1128.08 289.42C1129 289.09 1135.48 337.18 1123.19 350.42C1110.9 363.66 1086.93 367.99 1078.34 357.56C1068.83 346.04 1069.34 294.35 1088.43 280.74C1107.52 267.13 1128.08 289.42 1128.08 289.42Z" fill="#EDEDED"/>
<path d="M1095.71 255C1106.41 257.292 1116.15 262.843 1123.57 270.89C1130.28 271.68 1139.4 275.39 1148.82 290.99C1160.4 310.16 1151.82 331.4 1138.37 341.82C1124.92 352.24 1125.08 364.28 1125.08 364.28L1122.95 358.06C1121.34 353.348 1120.76 348.345 1121.26 343.39C1121.51 340.352 1122.25 337.374 1123.44 334.57C1126.68 327.57 1116.44 322.99 1113.61 317.2C1111.41 312.74 1111.3 302.54 1107.83 295.2L1103.68 289.57C1103.68 289.57 1094.12 282.13 1084.76 284.23C1075.4 286.33 1076.75 251.13 1095.71 255Z" fill="#595959"/>
<path d="M1114.24 325.76C1114.14 331.62 1116.81 336.43 1120.24 336.48C1123.67 336.53 1126.45 331.83 1126.55 325.97C1126.65 320.11 1123.98 315.29 1120.55 315.24C1117.12 315.19 1114.34 319.89 1114.24 325.76Z" fill="#EDEDED"/>
<path d="M1106.57 476.93C1105.68 440.39 1107.95 390.18 1142.8 375.93C1155.25 370.71 1170.45 376.58 1181.98 380.87C1167.83 378.87 1154.49 384.35 1147.6 388.21C1118.92 402.71 1119.14 444.21 1120.18 476.61C1122.79 557.96 1185.13 549.34 1185.13 549.34L1186.59 554.76C1186.59 554.76 1163.17 562.45 1133.29 547.7C1109.47 535.95 1106.57 476.93 1106.57 476.93Z" fill="#595959"/>
<path d="M1553.18 504.6L1542.27 552.84C1520.27 544.2 1485.42 538.92 1472.49 533.35C1457.34 524.59 1447.38 524.26 1442.66 524.56C1440.12 524.73 1429.54 525.99 1429.54 525.99L1430.77 529.46C1430.77 529.46 1437.71 529.21 1438.77 529.31C1441.29 529.55 1439.99 530.16 1439.99 530.16C1437.82 530.26 1428.41 532.25 1428.41 532.25C1428.41 532.25 1430.41 535.35 1433.09 534.95C1437.82 534.26 1440.82 535.24 1439.15 535.7C1437.93 536.04 1436.15 535.38 1433.33 535.79C1426.41 536.79 1425.99 540.57 1432.47 540.21C1435.29 540.06 1440.4 541.83 1443.63 542.94C1442.72 543.562 1441.73 544.069 1440.7 544.45C1439.56 544.87 1430.93 545.09 1431.48 547.16C1432.03 549.23 1451.38 549.61 1451.38 549.61L1461.38 548.24L1461.92 548.38C1461.92 548.38 1545.58 588.24 1558.77 584.05C1573.95 575.05 1580.88 505.05 1580.11 503.05L1553.18 504.6Z" fill="#F9F9F9"/>
<path d="M1582.23 458.18C1582.23 458.18 1558.23 439.5 1545.5 532.38L1588.92 544.53L1605.48 509.63L1582.23 458.18Z" fill="#C1C1C1"/>
<path d="M1554.79 378.44C1559.71 346.35 1588.79 323.28 1619.11 338.85C1625.93 342.35 1635.18 349.46 1639.9 355.51C1652.9 372.16 1656.01 392.79 1669.76 408.8C1681.61 422.6 1713.25 420 1728.03 430.61C1742.81 441.22 1753.16 460.26 1753.16 483.02C1753.16 508.48 1747.41 535.51 1727.68 551.61C1707.95 567.71 1679.92 571.72 1655.39 564.89C1630.86 558.06 1609.81 541.36 1594.67 520.89C1579.53 500.42 1568.81 478 1561.26 453.68C1552.83 426.53 1551.61 399.18 1554.79 378.44Z" fill="#595959"/>
<path d="M1565.79 471.14C1581.62 435.87 1634.47 431.9 1668.07 451.03C1678.07 456.72 1679.83 456.3 1686.07 462.57C1702.49 479 1718.33 644.85 1676.37 657.76C1627.37 672.76 1583.67 663.52 1567.14 637.57C1556.11 620.19 1541.43 525.42 1565.79 471.14Z" fill="#C6C6C6"/>
<path d="M1563.09 994.02C1563.09 994.02 1560.54 1021.9 1562.22 1031.02C1562.55 1032.53 1562.98 1034.02 1563.51 1035.47C1565.24 1040.57 1560.51 1056.14 1560.51 1056.14L1496.97 1056.37C1493.51 1056.37 1495.83 1054.19 1498.64 1052.18C1503.25 1048.88 1506.96 1046.71 1521.64 1039.85C1522.64 1039.41 1526.08 1037.25 1527.34 1036.5C1530.75 1034.3 1533.84 1031.65 1536.53 1028.61C1541.15 1023.61 1541.85 999.02 1541.85 999.02L1563.09 994.02Z" fill="#F9F9F9"/>
<path d="M1527.35 1034.47C1544.1 1038.98 1556.55 1036.21 1563.53 1033.47C1565.26 1038.56 1568.53 1055.77 1566.53 1055.77C1550.6 1055.77 1537.12 1058.77 1491.47 1058.06C1489.84 1058.06 1490.03 1052.42 1491.1 1051.18C1494.08 1047.79 1526.09 1035.22 1527.35 1034.47Z" fill="#595959"/>
<path d="M1642.77 663.06C1642.77 663.06 1641.87 702.85 1630.46 728.34C1619.36 753.16 1566.19 814.34 1552.06 850.11C1556.43 870.26 1568.44 898.59 1567.57 920.93C1566.57 946.24 1568.06 1013.22 1568.06 1013.22L1539.53 1014.13L1502.1 841.28L1558.5 654.78L1584.09 609.49L1642.77 663.06Z" fill="#595959"/>
<path d="M1764.66 954.38C1764.66 954.38 1782.19 978.43 1789.91 984.51C1794.05 987.77 1805.28 992.14 1806.46 997.51C1807.64 1002.88 1755.6 1050.51 1755.6 1050.51C1752.85 1052.95 1753.16 1049.58 1753.99 1045.99C1755.36 1040.13 1756.8 1035.79 1763.71 1019.99C1764.16 1018.99 1765.43 1014.79 1765.91 1013.31C1767.09 1009.16 1767.7 1004.87 1767.71 1000.56C1767.88 993.31 1751.2 973.2 1751.2 973.2L1764.66 954.38Z" fill="#F9F9F9"/>
<path d="M1765.92 1013.36C1782.45 1005.21 1790.45 994.26 1794.13 987.2C1799.13 990.05 1812.4 996.12 1811.23 997.82C1802.03 1011.18 1792.47 1027.82 1755.52 1059.25C1754.19 1060.38 1748.77 1053.89 1748.75 1052.15C1748.7 1047.35 1765.43 1014.85 1765.92 1013.36Z" fill="#595959"/>
<path d="M1640.76 637.53C1640.76 637.53 1662.82 670.67 1668.07 698.09C1673.19 724.8 1664.68 805.43 1673.57 842.81C1688.7 856.81 1714.77 873.17 1726.85 891.98C1740.55 913.29 1780.13 967.34 1780.13 967.34L1757.26 984.43L1627.56 864.2L1575.06 703.8L1557.06 656.89L1640.76 637.53Z" fill="#898989"/>
<path d="M1622.9 449.04C1622.9 449.04 1652.11 447.18 1663.66 459.75C1675.21 472.32 1638.03 571.75 1635.93 587.75C1633.83 603.75 1653.17 635.65 1653.17 635.65C1653.17 635.65 1572.79 673.23 1553.17 660.28C1553.17 660.28 1556.31 532.08 1558.41 520.66C1560.51 509.24 1578.02 462.76 1582.22 458.19C1586.42 453.62 1622.9 449.04 1622.9 449.04Z" fill="#DBDBDB"/>
<path d="M1613.18 410.09C1613.18 410.09 1613.33 410.95 1613.6 412.41C1614.91 419.41 1619.92 442.66 1623.31 449.06C1627.4 456.78 1609.31 481.41 1591.86 478.41C1586.67 477.51 1596.25 455.77 1595.79 453.47C1594.91 449.06 1593.71 443.05 1592.49 436.88C1591.8 433.41 1591.1 429.88 1590.49 426.56C1588.62 417.15 1587.1 409.44 1587.1 409.44L1613.18 410.09Z" fill="#F9F9F9"/>
<path d="M1613.6 412.41C1613.33 410.95 1613.18 410.09 1613.18 410.09L1587.06 409.44C1587.06 409.44 1588.58 417.15 1590.45 426.56C1591.1 429.86 1591.79 433.37 1592.45 436.83C1596.45 436.23 1600.69 434.28 1604.92 430.59C1609.23 426.822 1612.49 421.997 1614.37 416.59C1614.07 414.92 1613.8 413.53 1613.6 412.41Z" fill="#C1C1C1"/>
<path d="M1593.35 353.86C1593.35 353.86 1605.66 352.44 1613.35 362.4C1621.04 372.36 1629.35 403.16 1610.21 419.91C1591.07 436.66 1572.1 417.7 1569.29 397.6C1566.48 377.5 1565.42 353.13 1593.35 353.86Z" fill="#F9F9F9"/>
<path d="M1592.02 350.53C1592.02 350.53 1608.47 379.82 1620.24 381.18C1632.01 382.54 1633.55 398.1 1633.55 398.1C1633.55 398.1 1629.34 362.23 1617.69 355.31C1606.04 348.39 1592.02 350.53 1592.02 350.53Z" fill="#595959"/>
<path d="M1617.1 388.53C1616.1 393.73 1618.1 398.53 1621.4 399.18C1624.7 399.83 1628.21 396.18 1629.16 391C1630.11 385.82 1628.16 381 1624.86 380.35C1621.56 379.7 1618.02 383.37 1617.1 388.53Z" fill="#C1C1C1"/>
<path d="M1628.15 441.38C1609.97 465.71 1601.67 504.32 1613.93 541.53C1618.99 556.24 1624.7 570.53 1635.58 585.2C1649.28 603.47 1660.05 608.2 1659.11 607.71L1663.11 599.86C1658.69 597.233 1654.65 594.013 1651.11 590.29C1650.73 589.81 1635.96 576.16 1625.87 549.11C1602.2 488.98 1635.39 450.79 1635.95 449.36C1636.18 449.05 1636.41 448.01 1636.56 447.83L1628.15 441.38Z" fill="#9F57C0"/>
<path d="M1555.17 589.91C1560.63 517.1 1590.84 454.75 1591.17 454.35L1582.94 453.68C1582.56 454.14 1573.71 458.97 1565.3 479.13C1555.42 503.314 1550.36 529.195 1550.4 555.32C1550.39 562.25 1555.17 589.91 1555.17 589.91Z" fill="#9F57C0"/>
<path d="M1528.99 611.64L1421.73 587.02V499.75L1528.99 524.36V611.64Z" fill="white"/>
<path d="M1427.83 536.86C1437.66 538.31 1433.56 534.61 1427.13 531.08C1431.35 532.49 1432.13 531.57 1431.99 530.37C1431.85 528.93 1423.84 523.61 1421.72 523.89C1419.6 524.17 1419.87 530.89 1420.48 532.89C1420.63 534.198 1420.7 535.514 1420.69 536.83C1420.59 540.83 1420.63 541.69 1420.94 543.26C1421.41 545.69 1423.8 545.67 1427.11 546.41C1431.71 546.93 1432.66 544.17 1426.31 541.74C1426.97 541.84 1432.95 542.92 1433.61 541.47C1434.27 540.02 1432.17 539.01 1427.83 536.86Z" fill="#F9F9F9"/>
<path d="M1622.02 511.39L1619.18 564.6C1597.18 555.97 1561.88 545.28 1548.95 539.71C1533.8 530.94 1523.84 530.61 1519.12 530.92C1516.58 531.08 1506 532.35 1506 532.35C1506 532.35 1495.07 539.25 1495.75 539.82C1497.75 541.48 1507.22 535.82 1507.22 535.82C1507.22 535.82 1514.17 535.56 1515.22 535.66C1517.75 535.91 1516.45 536.52 1516.45 536.52C1512.54 536.901 1508.67 537.6 1504.87 538.61C1504.87 538.61 1491.93 543.47 1492.44 544.23C1493.16 545.32 1494.37 545.23 1499.22 544.16C1502.22 543.5 1507.22 541.92 1509.9 541.52C1514.64 540.83 1517.81 542.09 1516.19 542.18C1514.93 542.25 1511.88 542.48 1509.04 542.89C1502.12 543.89 1494.19 546.04 1495.12 546.98C1496.37 548.25 1505.91 546.73 1509.34 546.46C1512.16 546.3 1520.17 548.77 1520.08 549.29C1519.99 549.81 1515.77 549.84 1514.8 549.82C1513.58 549.82 1507.04 549.33 1507.04 550.69C1507.04 552.22 1527.46 554.89 1527.46 554.89L1537.79 554.59L1538.32 554.73C1538.32 554.73 1617.02 602.58 1635.02 595.53C1650.19 586.47 1657.18 511.36 1656.41 509.38L1622.02 511.39Z" fill="#F9F9F9"/>
<path d="M1664.64 456.96C1671.99 474.54 1662.9 524.06 1662.9 524.06C1662.9 524.06 1623.66 518.46 1615.5 513.36C1615.5 513.36 1626.5 466.15 1627.29 463.25C1630.82 450.1 1640.21 447.25 1646.54 446.05C1656.49 444.13 1664.64 456.96 1664.64 456.96Z" fill="#C1C1C1"/>
<path d="M623.29 853.9C623.29 853.9 795.81 651.77 898.78 630.33" stroke="#666666" stroke-width="4" stroke-miterlimit="10" stroke-linecap="round"/>
<path d="M1849.66 946.17L2361.17 1038.76" stroke="#666666" stroke-width="4" stroke-miterlimit="10" stroke-linecap="round"/>
<path d="M1289.68 746.38L1423.54 828.37" stroke="#666666" stroke-width="4" stroke-miterlimit="10" stroke-linecap="round"/>
<path d="M2075.02 628.53C2075.02 628.53 2221.02 571.18 2395.48 746.64" stroke="#666666" stroke-width="4" stroke-miterlimit="10" stroke-linecap="round"/>
<path d="M2472.05 828.37L2587.01 984.46" stroke="#666666" stroke-width="4" stroke-miterlimit="10" stroke-linecap="round"/>
<path d="M279.87 1049.42C279.87 1049.42 398.58 944.82 532.87 891.76" stroke="#666666" stroke-width="4" stroke-miterlimit="10" stroke-linecap="round"/>
<path d="M742.02 817.53C742.02 817.53 921.6 769.53 1005.3 799.53" stroke="#666666" stroke-width="4" stroke-miterlimit="10" stroke-linecap="round"/>
<path d="M1420.08 865.72L1495.23 879.74" stroke="#666666" stroke-width="4" stroke-miterlimit="10" stroke-linecap="round"/>
<path d="M1719.59 811.81L1938.25 684.16" stroke="#666666" stroke-width="4" stroke-miterlimit="10" stroke-linecap="round"/>
</g>
<defs>
<clipPath id="clip0">
<rect width="3002.76" height="1059.38" fill="white"/>
</clipPath>
</defs>
</svg>
